<svg width="550" height="72" viewBox="0 0 550 72" fill="none" xmlns="http://www.w3.org/2000/svg">
<mask id="mask0_2003_606" style="mask-type:luminance" maskUnits="userSpaceOnUse" x="0" y="0" width="550" height="72">
<path d="M550 0H0V71.957H550V0Z" fill="white"/>
</mask>
<g mask="url(#mask0_2003_606)">
<g filter="url(#filter0_d_2003_606)">
<path d="M442.755 67.2259V3.08887L474.434 5.34287V64.9729L442.755 67.2259Z" fill="#954E2A"/>
</g>
<path d="M442.758 60.6018V9.7168L474.437 11.5058V58.8148L442.758 60.6018Z" fill="#9A5634"/>
<path d="M442.758 54.2708V16.0518L474.437 17.3948V52.9248L442.758 54.2708Z" fill="#954E2A"/>
<path d="M442.758 46.6017V23.7188L474.437 24.5187V45.7957L442.758 46.6017Z" fill="#9A5634"/>
<path d="M442.758 40.0761V30.2451L474.437 30.5901V39.7351L442.758 40.0761Z" fill="#954E2A"/>
<g filter="url(#filter1_d_2003_606)">
<path d="M482.846 65.2368H482.87C482.912 65.2368 482.955 65.2368 483.002 65.2308C483.156 65.2308 483.31 65.2198 483.46 65.2078C483.533 65.2028 483.607 65.1928 483.68 65.1858L483.845 65.1658C484.331 65.106 484.806 64.9829 485.26 64.7998C486.469 64.3197 487.506 63.4896 488.24 62.4158C492.369 56.5468 491.14 43.4298 501.257 43.4778C515.735 44.3178 533.57 45.3778 536.079 45.5258L536.225 45.5408H536.38C537.007 45.5666 537.632 45.4583 538.214 45.2231C538.795 44.9879 539.32 44.6312 539.753 44.1768C541.737 41.9506 542.885 39.1043 543.002 36.1248C543.002 35.9378 543.002 35.7498 543.002 35.5628C542.996 35.4318 542.986 35.2988 542.977 35.1628C542.986 35.0308 542.996 34.8988 543.002 34.7628C543.002 34.5748 543.008 34.3868 543.002 34.2018C542.885 31.222 541.737 28.3753 539.753 26.1488C539.32 25.6946 538.795 25.3379 538.214 25.1025C537.632 24.8671 537.007 24.7585 536.38 24.7838L536.225 24.7898C536.225 24.7898 536.172 24.7898 536.079 24.8028C533.571 24.9518 515.735 26.0118 501.257 26.8508C491.143 26.8988 492.369 13.7828 488.24 7.91284C487.507 6.83907 486.469 6.00918 485.26 5.52984C484.806 5.34641 484.331 5.22303 483.845 5.16284L483.68 5.14284C483.607 5.13484 483.534 5.12684 483.46 5.12084C483.31 5.10784 483.16 5.09984 483.002 5.09684C482.956 5.09684 482.912 5.09084 482.87 5.09084H482.846C482.846 5.09084 472.313 4.99884 472.313 5.02384V65.3038C472.313 65.3278 482.846 65.2348 482.846 65.2348M525.455 35.1638C525.455 33.6198 527.948 32.3698 531.02 32.3698C534.092 32.3698 536.585 33.6198 536.587 35.1638C536.589 36.7078 534.094 37.9638 531.02 37.9638C527.946 37.9638 525.457 36.7128 525.455 35.1638Z" fill="#D18F2A"/>
</g>
<path d="M481.488 5.01465H472.022V65.3056H481.488V5.01465Z" fill="#EBECEC"/>
<g filter="url(#filter2_d_2003_606)">
<path d="M449.048 57.4547C446.548 55.3107 445.175 51.2467 446.469 48.1987C447.138 46.6257 448.869 45.1447 448.782 43.3297C448.702 41.7497 447.058 40.9857 446.759 39.5127C446.41 37.7907 447.526 35.9577 447.767 34.2787C448.759 27.3437 447.502 20.3107 446.888 13.4067C447.008 12.9337 447.135 12.4787 447.275 12.0557C448.175 9.32074 454.531 6.23274 451.945 3.29074C450.438 1.57374 445.314 1.68474 443.301 1.85474C441.796 1.98274 440.322 2.05974 438.82 2.15474H4.59998V67.9107H420.446C423.826 68.1567 427.246 68.4677 430.666 68.6877C437.007 69.0957 443.337 69.1807 449.366 67.9177C455.01 66.7367 452.591 60.4927 449.044 57.4547" fill="#FFF700"/>
</g>
<g opacity="0.5">
<mask id="mask1_2003_606" style="mask-type:luminance" maskUnits="userSpaceOnUse" x="440" y="2" width="9" height="27">
<g opacity="0.5">
<path d="M448.99 2.58496H440.338V28.113H448.99V2.58496Z" fill="white"/>
</g>
</mask>
<g mask="url(#mask1_2003_606)">
<path d="M443.899 3.7036C444.404 3.39884 444.952 3.17037 445.524 3.0256C448.855 2.1596 449.924 2.3516 448.124 5.6106C445.981 9.5106 444.009 8.4586 444.324 16.3726C444.552 22.0646 444.641 26.8176 443.057 28.0836C442.219 28.7506 440.502 17.7916 440.466 17.1226C440.229 12.9696 439.844 6.1646 443.893 3.7036" fill="white"/>
</g>
</g>
<g style="mix-blend-mode:multiply">
<mask id="mask2_2003_606" style="mask-type:luminance" maskUnits="userSpaceOnUse" x="416" y="17" width="11" height="49">
<g style="mix-blend-mode:multiply">
<path d="M426.49 17.9639H416.14V65.5399H426.49V17.9639Z" fill="white"/>
</g>
</mask>
<g mask="url(#mask2_2003_606)">
<path d="M421.541 35.0906C421.541 35.0906 421.225 46.4906 422.806 53.7646C424.387 61.0386 429.458 65.2646 424.075 65.4756C416.162 65.7926 415.527 65.4756 416.475 50.9166C417.423 36.3576 418.058 31.2936 417.743 25.9166C417.052 14.1906 421.983 16.2286 421.224 26.8656C420.906 31.2976 422.173 29.7156 421.54 35.0946" fill="#F7F8F8"/>
</g>
</g>
<g opacity="0.4">
<mask id="mask3_2003_606" style="mask-type:luminance" maskUnits="userSpaceOnUse" x="441" y="58" width="10" height="10">
<g opacity="0.4">
<path d="M450.514 58.4053H441.413V67.3603H450.514V58.4053Z" fill="white"/>
</g>
</mask>
<g mask="url(#mask3_2003_606)">
<path d="M447.744 59.392C447.744 59.392 452.819 64.467 449.237 65.66C445.655 66.853 442.072 68.945 441.474 65.36C440.876 61.775 445.057 56.106 447.744 59.39" fill="white"/>
</g>
</g>
</g>
<g clip-path="url(#clip0_2003_606)">
<mask id="mask4_2003_606" style="mask-type:luminance" maskUnits="userSpaceOnUse" x="282" y="15" width="143" height="43">
<path d="M425 15H282V58H425V15Z" fill="white"/>
</mask>
<g mask="url(#mask4_2003_606)">
<path d="M325.812 30.415C325.541 29.2827 325.363 28.0873 325.139 26.5746C325.061 26.0491 324.979 25.492 324.884 24.8819C324.777 24.1951 324.424 23.5711 323.89 23.1275C323.356 22.6839 322.679 22.4512 321.986 22.4734C321.103 22.514 320.228 22.6583 319.378 22.9034C319.099 22.4433 318.796 22.0066 318.501 21.5804C318.176 21.1117 317.869 20.6688 317.591 20.1977C317.257 19.6396 316.744 19.2123 316.135 18.9864C315.526 18.7606 314.859 18.7497 314.243 18.9555C312.829 19.3933 311.496 20.0582 310.295 20.9244C310.183 20.9181 310.071 20.9133 309.962 20.9101L309.588 18.3244C309.489 17.6504 309.131 17.0417 308.592 16.6277C308.052 16.2137 307.372 16.0271 306.698 16.1075L285.226 18.7582C284.885 18.8017 284.556 18.9124 284.258 19.0841C283.96 19.2558 283.699 19.4849 283.49 19.7583C283.281 20.0318 283.128 20.344 283.04 20.677C282.952 21.01 282.931 21.3572 282.978 21.6984C282.997 21.8896 283.089 22.5159 283.383 24.4968C283.86 27.7079 284.964 35.1221 284.969 36.1985C284.949 36.2639 284.939 36.3318 284.939 36.4001C284.94 36.7453 285.009 37.0868 285.142 37.4052C285.275 37.7236 285.469 38.0127 285.714 38.2558L294.376 46.8081C294.665 47.0959 295.018 47.3103 295.407 47.4332C295.795 47.5561 296.207 47.5841 296.608 47.5147L310.171 45.315C309.398 45.96 308.68 46.6251 307.998 47.2739C307.725 47.5331 307.506 47.8442 307.353 48.189C307.201 48.5339 307.119 48.9057 307.111 49.2828C307.103 49.6599 307.171 50.0348 307.309 50.3856C307.447 50.7365 307.653 51.0563 307.916 51.3264C308.181 51.6011 308.497 51.8199 308.848 51.9697C309.198 52.1196 309.575 52.1975 309.956 52.1988C311.155 52.1489 312.345 51.9727 313.507 51.6733C313.507 52.8199 313.538 53.667 313.592 54.1897C313.636 54.6933 313.815 55.1755 314.111 55.5849C314.406 55.9942 314.808 56.3152 315.271 56.5136C315.651 56.685 316.062 56.7742 316.479 56.7755C317.057 56.7807 317.622 56.5932 318.082 56.2423C321.234 53.9824 323.916 48.6618 323.997 44.5477C324.295 43.8903 324.551 43.2144 324.763 42.5243C326.768 41.0465 327.473 39.0681 327.046 36.1292C326.706 34.178 326.287 32.3868 325.814 30.415" fill="white"/>
<path d="M352.022 33.6577C352.023 34.2167 352.245 34.7526 352.639 35.1479C353.034 35.5432 353.568 35.7655 354.126 35.7661H363.882C364.44 35.7656 364.975 35.5433 365.369 35.148C365.764 34.7527 365.985 34.2167 365.986 33.6577V29.6544C365.985 29.4509 365.954 29.2486 365.893 29.0543C365.953 28.8597 365.983 28.6573 365.983 28.4537V24.4772C365.982 23.9182 365.761 23.3822 365.366 22.9869C364.972 22.5916 364.437 22.3693 363.879 22.3688H354.124C353.678 22.3701 353.244 22.514 352.885 22.7796C352.526 23.0451 352.261 23.4186 352.128 23.8456C352.061 23.3412 351.813 22.8784 351.432 22.5427C351.05 22.207 350.56 22.0211 350.053 22.0195C347.866 22.0248 342.769 22.0224 338.17 22.0195C335.024 22.0195 332.106 22.0171 330.518 22.0195C329.97 22.0201 329.443 22.235 329.05 22.6187C328.658 23.0024 328.43 23.5245 328.415 24.074C328.134 24.2616 327.903 24.5142 327.74 24.8105C327.578 25.1067 327.488 25.4378 327.48 25.7758C327.197 25.9686 326.965 26.2278 326.804 26.5307C326.644 26.8337 326.559 27.1713 326.558 27.5144V28.5053C326.558 29.0643 326.78 29.6003 327.175 29.9955C327.569 30.3908 328.104 30.6131 328.661 30.6138H334.503C334.038 30.7195 333.621 30.9807 333.323 31.3546C333.024 31.7284 332.862 32.1928 332.861 32.6716V34.0409C332.861 36.6266 332.861 37.4068 329.858 38.4532C329.447 38.5968 329.091 38.8644 328.838 39.2191C328.585 39.5739 328.447 39.9984 328.445 40.4345L328.424 44.7273C328.422 45.0345 328.487 45.3384 328.615 45.6177C328.742 45.897 328.929 46.1449 329.163 46.344C329.396 46.5432 329.67 46.6887 329.966 46.7704C330.261 46.8521 330.571 46.8681 330.873 46.8171C334.932 46.1392 337.111 44.8946 339.024 42.1129C346.362 41.7474 351.171 37.8956 352.02 31.856L352.022 33.6577Z" fill="white"/>
<path d="M423.764 25.3257C423.759 25.0161 423.754 24.6315 423.76 24.5441C423.763 24.5219 423.764 24.4995 423.764 24.4772C423.763 23.9182 423.541 23.3823 423.147 22.987C422.752 22.5917 422.218 22.3694 421.66 22.3688H419.695C419.388 22.4446 419.067 22.4446 418.76 22.3688H416.794C416.237 22.3694 415.702 22.5917 415.308 22.987C414.913 23.3823 414.691 23.9182 414.691 24.4772V25.9134H414.296C412.614 25.9163 410.503 25.9201 408.909 25.9134V24.1695C408.909 23.6105 408.687 23.0746 408.292 22.6793C407.898 22.284 407.363 22.0617 406.806 22.0611H402.411C401.854 22.0617 401.319 22.284 400.925 22.6793C400.53 23.0746 400.308 23.6105 400.308 24.1695V25.7237C399.939 25.4219 399.477 25.2562 399.001 25.2541H396.797V24.1733C396.797 23.6142 396.575 23.0782 396.181 22.6828C395.786 22.2874 395.251 22.065 394.694 22.0644H389.789C389.231 22.065 388.696 22.2874 388.302 22.6828C387.907 23.0782 387.686 23.6142 387.685 24.1733V25.2555H378.244C377.958 25.2564 377.675 25.3162 377.412 25.4313C377.15 25.5463 376.914 25.7142 376.719 25.9244V24.4772C376.718 23.9182 376.497 23.3823 376.102 22.987C375.708 22.5917 375.173 22.3694 374.615 22.3688H372.65C372.492 22.3693 372.335 22.3883 372.182 22.4256C372.029 22.3884 371.872 22.3693 371.714 22.3688H369.749C369.191 22.3694 368.657 22.5917 368.262 22.987C367.868 23.3823 367.646 23.9182 367.646 24.4772V27.1093C367.629 27.4529 367.711 27.7942 367.884 28.0916C367.896 28.1155 367.909 28.1394 367.919 28.1604C368.079 32.4073 367.435 35.1226 365.894 36.7021C364.662 37.9644 362.796 38.5606 360.157 38.5124H353.974C353.419 38.5137 352.887 38.7343 352.494 39.1262C352.1 39.5181 351.876 40.0498 351.871 40.606L351.839 45.0661C351.837 45.3442 351.89 45.6199 351.995 45.8774C352.1 46.1349 352.255 46.3691 352.45 46.5664C352.646 46.7638 352.878 46.9204 353.135 47.0273C353.391 47.1342 353.665 47.1893 353.943 47.1893H360.264C365.598 47.1893 369.688 45.7416 372.419 42.8893C374.707 40.4971 376.041 37.101 376.411 32.7795C376.591 33.1107 376.856 33.3875 377.178 33.5808C377.501 33.7741 377.87 33.8769 378.246 33.8784H387.424C386.699 37.2253 384.309 38.6084 379.394 38.6084H378.202C377.642 38.607 377.105 38.8285 376.707 39.2241C376.31 39.6197 376.086 40.1571 376.084 40.7183L376.087 45.1516C376.086 45.704 376.302 46.2346 376.688 46.6287C377.075 47.0228 377.6 47.2487 378.151 47.2576C378.673 47.2863 379.187 47.3006 379.692 47.3006C389.299 47.3006 395.84 42.1645 396.683 33.8784H399.003C399.479 33.8765 399.94 33.7109 400.31 33.4092V37.102C400.31 43.5128 404.329 47.1898 411.338 47.1898H420.069C420.346 47.1903 420.62 47.1356 420.876 47.029C421.131 46.9224 421.363 46.7659 421.558 46.5687C421.951 46.1718 422.172 45.6349 422.173 45.0751L422.164 40.7226C422.162 40.1647 421.939 39.6305 421.545 39.2365C421.151 38.8426 420.617 38.6211 420.06 38.6204H412.76C408.913 38.6204 408.912 37.7527 408.912 36.7489V34.5091C410.346 34.4943 413.893 34.5019 416.181 34.5091C418.612 34.5148 419.617 34.5167 419.726 34.5091C420.27 34.5085 420.794 34.2964 421.185 33.9175C421.577 33.5385 421.808 33.0221 421.828 32.4766C422.114 32.2937 422.351 32.0439 422.519 31.7487C422.687 31.4535 422.782 31.1217 422.794 30.7819C423.095 30.5874 423.341 30.3195 423.511 30.0033C423.68 29.6871 423.767 29.333 423.763 28.974C423.758 28.8981 423.763 28.7829 423.763 28.6534C423.782 28.2957 423.766 27.9369 423.715 27.5823C423.786 26.8327 423.802 26.079 423.763 25.3272" fill="white"/>
<path d="M307.564 39.145L303.018 39.7068C303.394 40.0026 303.972 40.4555 304.353 40.7522L304.466 40.8411C304.965 40.7799 308.613 40.328 309.012 40.2792C308.847 40.1464 308.426 39.8225 308.256 39.6863C308.106 39.5697 307.713 39.2596 307.566 39.145" fill="#EFEFEF"/>
<path d="M311.279 36.9338C311.169 36.9611 310.949 37.2745 310.8 37.4073L311.159 37.3595L311.246 37.3476L311.389 37.145L311.442 37.0695C311.387 37.0217 311.336 36.9806 311.28 36.9362" fill="#EFEFEF"/>
<path d="M309.151 37.145C307.764 37.6309 306.263 37.6926 304.841 37.3223C304.219 37.1653 303.623 36.9174 303.072 36.5865C302.95 36.497 302.859 36.3708 302.814 36.2262C302.766 36.0846 302.763 35.9318 302.805 35.7883C302.846 35.6448 302.931 35.5175 303.047 35.4236C303.189 35.3083 303.366 35.2466 303.549 35.2492C304.083 35.1677 304.594 34.9722 305.046 34.6758L304.039 34.7986L291.667 36.3041L295.083 39.6056C296.247 39.4436 301.419 38.7207 302.462 38.5755L308.793 37.6916C308.928 37.6749 309.208 37.6319 309.344 37.6147C309.317 37.5693 309.296 37.5191 309.271 37.4742C309.247 37.4169 309.176 37.2095 309.151 37.1469" fill="#EFEFEF"/>
<path d="M290.479 25.0625C291.105 24.9899 291.967 24.869 292.592 24.7906C292.874 24.7627 293.155 24.7193 293.433 24.6607C293.486 24.6254 293.524 24.5715 293.54 24.5095C293.555 24.4476 293.547 24.382 293.517 24.3258C293.487 24.2695 293.436 24.2266 293.376 24.2055C293.316 24.1844 293.25 24.1865 293.192 24.2116L290.627 24.546C290.55 24.5613 290.391 24.5589 290.333 24.6191C290.292 24.6503 290.262 24.6935 290.247 24.7425C290.232 24.7916 290.232 24.8442 290.248 24.8929C290.264 24.9417 290.295 24.9843 290.336 25.0147C290.378 25.0452 290.427 25.0616 290.479 25.0625Z" fill="#83DCFF"/>
<path d="M292.522 25.76C292.196 25.7818 291.872 25.8385 291.558 25.9292C291.526 25.9564 291.501 25.9914 291.486 26.0308C291.472 26.0703 291.467 26.1128 291.474 26.1545C291.48 26.1961 291.497 26.2353 291.523 26.2685C291.549 26.3017 291.583 26.3276 291.622 26.3439C291.944 26.3391 292.266 26.3081 292.584 26.2512L293.68 26.1079L294.478 26.0037C294.533 25.9945 294.584 25.9671 294.621 25.9258C294.659 25.8844 294.682 25.8316 294.686 25.7759C294.69 25.7201 294.675 25.6645 294.644 25.6181C294.613 25.5718 294.567 25.5373 294.514 25.5202C294.214 25.5362 293.916 25.5681 293.62 25.6157C293.37 25.6478 292.776 25.7261 292.52 25.7591" fill="#83DCFF"/>
<path d="M294.532 26.9994C294.457 26.971 294.375 26.9673 294.298 26.9889C294.172 27.0046 293.869 27.0448 293.74 27.0615C292.859 27.1771 291.535 27.3482 290.663 27.4633C290.598 27.4718 290.539 27.5059 290.499 27.558C290.459 27.6102 290.441 27.6761 290.449 27.7414C290.458 27.8066 290.492 27.8658 290.544 27.906C290.596 27.9461 290.662 27.9639 290.727 27.9554L293.206 27.6324L294.476 27.4667C294.526 27.456 294.573 27.4297 294.608 27.3915C294.642 27.3533 294.665 27.3051 294.671 27.2537C294.677 27.2022 294.668 27.15 294.643 27.1044C294.618 27.0589 294.58 27.0221 294.534 26.9994" fill="#83DCFF"/>
<path d="M294.584 30.0256C294.558 29.9852 294.521 29.9526 294.478 29.9312C294.435 29.9099 294.387 29.9006 294.339 29.9043C294.253 29.9148 293.583 30.0036 293.52 30.0113C292.913 30.0916 291.494 30.275 290.907 30.3524C290.854 30.3601 290.805 30.385 290.767 30.4233C290.729 30.4616 290.704 30.5112 290.697 30.5648C290.689 30.6183 290.7 30.6727 290.726 30.7199C290.752 30.7671 290.793 30.8045 290.842 30.8264C291.179 30.82 291.514 30.7872 291.846 30.7284L293.698 30.4867L294.401 30.3949C294.441 30.3885 294.479 30.3727 294.511 30.3488C294.543 30.3248 294.57 30.2935 294.588 30.2574C294.605 30.2213 294.614 30.1814 294.614 30.1411C294.613 30.1008 294.603 30.0612 294.584 30.0256Z" fill="#83DCFF"/>
<path d="M293.977 23.0496C294.015 23.0815 294.061 23.1032 294.111 23.1129C294.16 23.1226 294.211 23.1199 294.258 23.105L294.893 23.0219C295.741 22.9106 297.601 22.6693 298.426 22.5613L298.604 22.5379H298.611C298.661 22.5275 298.706 22.5022 298.74 22.4653C298.775 22.4285 298.798 22.3818 298.805 22.3317C298.812 22.2816 298.804 22.2305 298.781 22.1852C298.759 22.14 298.723 22.1028 298.678 22.0787C298.613 21.9947 297.853 22.1518 297.761 22.1485L294.829 22.5307C294.559 22.5568 294.291 22.5978 294.025 22.6535C293.992 22.6734 293.964 22.7006 293.944 22.733C293.923 22.7654 293.909 22.8021 293.905 22.8404C293.9 22.8786 293.904 22.9175 293.917 22.9539C293.93 22.9903 293.95 23.0234 293.978 23.0505" fill="#FFF100"/>
<path d="M294.95 24.481L296.848 24.2326C297.1 24.2095 297.35 24.1698 297.597 24.1136C297.644 24.0831 297.679 24.0374 297.697 23.9841C297.715 23.9307 297.715 23.8728 297.695 23.8199C297.676 23.7669 297.64 23.722 297.592 23.6925C297.544 23.663 297.488 23.6506 297.432 23.6573L294.143 24.0873C294.082 24.0967 294.027 24.1286 293.988 24.1768C293.949 24.2251 293.93 24.2861 293.934 24.3478C293.938 24.4096 293.965 24.4675 294.01 24.5102C294.055 24.5529 294.114 24.5773 294.176 24.5785C294.277 24.5756 294.837 24.4934 294.95 24.4829" fill="#FFF100"/>
<path d="M298.848 24.9898C298.8 24.9608 298.745 24.9483 298.69 24.9545L297.91 25.0563L295.235 25.4046C295.17 25.4131 295.111 25.4472 295.071 25.4994C295.031 25.5516 295.013 25.6176 295.022 25.6829C295.03 25.7481 295.064 25.8073 295.117 25.8474C295.169 25.8875 295.234 25.9052 295.3 25.8967L297.912 25.5565C297.977 25.5417 298.746 25.4609 298.809 25.4289C298.853 25.4131 298.891 25.3852 298.919 25.3485C298.947 25.3118 298.964 25.2678 298.968 25.2217C298.972 25.1756 298.963 25.1293 298.942 25.0882C298.92 25.0471 298.888 25.013 298.848 24.9898Z" fill="#FFF100"/>
<path d="M298.574 26.5856C298.548 26.5437 298.511 26.51 298.467 26.4884C298.423 26.4668 298.374 26.4583 298.325 26.4638L297.54 26.566L296.009 26.7662L295.728 26.8011C295.639 26.8236 295.299 26.8264 295.233 26.9057C295.201 26.9298 295.177 26.9612 295.16 26.9971C295.144 27.0331 295.137 27.0726 295.14 27.1119C295.143 27.1513 295.155 27.1894 295.176 27.2228C295.197 27.2562 295.226 27.2838 295.26 27.3032C295.35 27.3988 295.965 27.2555 296.08 27.2555L298.247 26.9717C298.326 26.9592 298.459 26.9578 298.517 26.8938C298.562 26.8574 298.592 26.8064 298.603 26.7497C298.613 26.6931 298.604 26.6344 298.576 26.5842" fill="#FFF100"/>
<path d="M295.324 28.8116C295.593 28.7758 296.332 28.6812 296.589 28.6468C296.864 28.6211 297.138 28.5788 297.407 28.5201C297.454 28.4903 297.49 28.4455 297.508 28.393C297.527 28.3405 297.527 28.2833 297.51 28.2305C297.492 28.1778 297.457 28.1325 297.411 28.1019C297.364 28.0714 297.309 28.0573 297.253 28.062L296.534 28.1575C295.914 28.2435 295.043 28.3419 294.427 28.4375C294.378 28.4502 294.335 28.4776 294.302 28.5161C294.269 28.5546 294.249 28.6023 294.245 28.6526C294.24 28.7029 294.251 28.7534 294.276 28.7973C294.301 28.8411 294.339 28.8762 294.385 28.8976C294.701 28.9005 295.016 28.8722 295.327 28.813" fill="#FFF100"/>
<path d="M296.408 30.1331L296.428 30.1303L296.66 30.0997C296.722 30.0867 296.776 30.0511 296.812 30C296.848 29.9488 296.863 29.8859 296.855 29.8238C296.847 29.7617 296.816 29.7049 296.768 29.6649C296.72 29.6248 296.659 29.6043 296.596 29.6076L295.481 29.7538C295.389 29.7748 295.183 29.7638 295.119 29.8493C295.081 29.8846 295.054 29.9313 295.043 29.9827C295.033 30.0341 295.039 30.0876 295.06 30.1354C295.082 30.1832 295.118 30.2229 295.164 30.2487C295.209 30.2746 295.262 30.2853 295.314 30.2793L296.41 30.136" fill="#FFF100"/>
<path d="M297.825 30.9769C297.788 30.9551 297.746 30.9412 297.703 30.9359C297.66 30.9307 297.616 30.9342 297.575 30.9463C297.294 30.9836 296.78 31.0495 296.504 31.0858C296.402 31.0914 296.302 31.1107 296.205 31.1431C296.167 31.1655 296.136 31.1976 296.115 31.236C296.093 31.2744 296.083 31.3178 296.083 31.3618C296.084 31.4058 296.096 31.4488 296.119 31.4864C296.142 31.5241 296.174 31.555 296.213 31.576C296.257 31.6028 296.308 31.6133 296.359 31.6056L297.026 31.5187L297.741 31.4255C297.789 31.4151 297.832 31.3909 297.866 31.3561C297.9 31.3212 297.923 31.2772 297.932 31.2294C297.941 31.1816 297.936 31.1322 297.917 31.0874C297.898 31.0425 297.867 31.0041 297.827 30.9769" fill="#FFF100"/>
<path d="M291.004 23.5283L292.563 23.3253L292.906 23.2808C293.105 23.2441 293.511 23.2808 293.485 22.966C293.478 22.901 293.446 22.8411 293.397 22.7989C293.347 22.7567 293.283 22.7355 293.217 22.7395L292.502 22.8327L290.942 23.0362L290.146 23.1399C290.081 23.1503 290.024 23.1859 289.986 23.2388C289.958 23.2775 289.942 23.3232 289.94 23.3706C289.937 23.4181 289.949 23.4652 289.972 23.5065C289.995 23.5478 290.03 23.5815 290.072 23.6038C290.114 23.626 290.161 23.6358 290.208 23.632C290.406 23.6057 290.81 23.5541 291.005 23.5283" fill="#92FC54"/>
<path d="M293.657 29.029C293.722 29.0204 293.78 28.9865 293.82 28.9345C293.86 28.8826 293.877 28.817 293.869 28.7521C293.86 28.6872 293.826 28.6284 293.775 28.5886C293.723 28.5488 293.657 28.5312 293.593 28.5397L291.203 28.8508C291.095 28.879 290.698 28.8761 290.624 28.9774C290.597 29.0036 290.577 29.0357 290.565 29.0711C290.552 29.1065 290.548 29.1443 290.553 29.1815C290.557 29.2187 290.57 29.2544 290.591 29.2857C290.612 29.317 290.639 29.3431 290.672 29.362C290.767 29.4447 291.053 29.362 291.168 29.3558L291.666 29.2903C292.133 29.2282 293.201 29.0892 293.659 29.029" fill="#92FC54"/>
<path d="M295.545 31.3022C295.491 31.2552 295.421 31.2314 295.35 31.2358L294.683 31.3228L292.973 31.5459C292.648 31.5731 292.326 31.6259 292.01 31.7041C291.968 31.7348 291.937 31.7779 291.921 31.8274C291.905 31.8769 291.905 31.9302 291.92 31.9798C291.936 32.0294 291.967 32.0727 292.009 32.1037C292.051 32.1346 292.101 32.1516 292.153 32.1522C292.717 32.0863 294.166 31.8894 294.747 31.8178L295.417 31.7303C295.463 31.7231 295.505 31.7031 295.541 31.6727C295.576 31.6422 295.601 31.6025 295.615 31.558C295.629 31.5136 295.63 31.4661 295.618 31.4212C295.606 31.3762 295.582 31.3355 295.548 31.3037" fill="#92FC54"/>
<path d="M287.958 23.9263L289.001 23.7902C289.228 23.7424 289.635 23.805 289.611 23.4614C289.544 23.1313 289.154 23.2847 288.931 23.299L287.701 23.4591C287.64 23.4684 287.584 23.5004 287.545 23.5488C287.506 23.5973 287.487 23.6586 287.491 23.7208C287.495 23.7829 287.522 23.8413 287.566 23.8845C287.611 23.9277 287.67 23.9525 287.732 23.954C287.752 23.954 287.935 23.9292 287.958 23.9263Z" fill="#FF78D2"/>
<path d="M288.01 25.3859L289.734 25.1614C289.798 25.1547 289.857 25.123 289.898 25.0732C289.939 25.0233 289.959 24.9593 289.954 24.8949C289.948 24.8305 289.917 24.7709 289.868 24.7288C289.819 24.6868 289.756 24.6658 289.691 24.6702C289.448 24.6936 289.072 24.75 288.833 24.7787L288.226 24.858C288.088 24.88 287.845 24.8718 287.766 25.02L287.771 25.0515L287.811 25.3057C287.834 25.3654 287.946 25.3964 288.01 25.3859Z" fill="#FF78D2"/>
<path d="M287.768 25.0515C287.763 25.0113 287.762 25.0233 287.751 25.0515C287.679 25.18 287.814 25.3439 287.807 25.3033L287.768 25.0491" fill="#FF78D2"/>
<path d="M288.177 26.8231C288.788 26.7509 289.517 26.6482 290.131 26.5703L290.897 26.47C290.958 26.4724 291.018 26.4551 291.068 26.4207C291.119 26.3863 291.157 26.3366 291.177 26.2789C291.187 26.2392 291.187 26.1977 291.178 26.1579C291.168 26.1181 291.149 26.0813 291.122 26.0506C291.095 26.0198 291.061 25.9961 291.023 25.9814C290.985 25.9668 290.944 25.9616 290.903 25.9664C290.57 26.0104 289.846 26.104 289.521 26.1475L288.147 26.3267C288.085 26.3359 288.03 26.3678 287.991 26.4161C287.952 26.4643 287.932 26.5255 287.936 26.5875C287.94 26.6494 287.967 26.7077 288.011 26.7509C288.056 26.7941 288.115 26.819 288.177 26.8207" fill="#FF78D2"/>
<path d="M288.387 28.2593C288.904 28.1962 289.459 28.1198 289.975 28.0538C290.037 28.0417 290.092 28.0063 290.129 27.9549C290.166 27.9034 290.182 27.8397 290.174 27.7769C290.165 27.7141 290.133 27.6569 290.084 27.617C290.035 27.5771 289.972 27.5575 289.909 27.5622L289.051 27.674L288.598 27.7332C288.503 27.7528 288.291 27.7466 288.223 27.8331C288.208 27.8484 288.18 27.8599 288.19 27.8857C288.196 27.9287 288.231 28.1671 288.238 28.2043C288.282 28.2362 288.334 28.2552 288.388 28.2593" fill="#FF78D2"/>
<path d="M288.186 27.8861C288.184 27.8637 288.183 27.8723 288.176 27.8861C288.144 27.9363 288.132 27.9967 288.143 28.0553C288.153 28.1139 288.185 28.1662 288.233 28.202C288.228 28.1671 288.192 27.9253 288.185 27.8847" fill="#FF78D2"/>
<path d="M288.561 29.694C289.047 29.6372 289.566 29.5627 290.051 29.5029C290.115 29.493 290.173 29.4584 290.212 29.4065C290.25 29.3547 290.267 29.2897 290.259 29.2254C290.251 29.1612 290.218 29.1027 290.167 29.0625C290.116 29.0223 290.052 29.0036 289.988 29.0103L289.771 29.039L288.531 29.2034C288.471 29.2131 288.416 29.2451 288.378 29.293C288.34 29.3409 288.32 29.4013 288.324 29.4626C288.328 29.5239 288.354 29.5816 288.398 29.6245C288.442 29.6675 288.5 29.6926 288.561 29.695" fill="#FF78D2"/>
<path d="M288.798 31.1264L289.641 31.0161L290.232 30.9391C290.296 30.9295 290.354 30.895 290.393 30.8431C290.432 30.7912 290.449 30.7261 290.441 30.6617C290.432 30.5973 290.399 30.5387 290.348 30.4987C290.297 30.4586 290.232 30.4403 290.168 30.4475L289.982 30.4719L289.248 30.5674L288.882 30.6152C288.798 30.6324 288.563 30.6238 288.611 30.7609C288.614 30.7877 288.659 31.0791 288.659 31.0954C288.701 31.12 288.749 31.1308 288.797 31.1259" fill="#FF78D2"/>
<path d="M288.654 31.0533C288.65 31.0232 288.606 30.737 288.606 30.716C288.61 30.6783 288.57 30.7461 288.553 30.7733C288.538 30.8013 288.529 30.8319 288.527 30.8633C288.524 30.8947 288.528 30.9263 288.537 30.9563C288.547 30.9863 288.562 31.0142 288.583 31.0382C288.603 31.0622 288.628 31.082 288.656 31.0963C288.671 31.1154 288.656 31.0571 288.656 31.0533" fill="#FF78D2"/>
<path d="M291.636 31.9645C291.625 31.9017 291.59 31.8455 291.539 31.8074C291.488 31.7692 291.424 31.7519 291.361 31.759L290.507 31.8703L289.765 31.9659L288.965 32.0705C288.914 32.0783 288.868 32.1016 288.831 32.1374C288.794 32.1732 288.77 32.2196 288.76 32.2701C288.751 32.3206 288.758 32.3726 288.78 32.419C288.802 32.4654 288.838 32.5037 288.883 32.5287C288.966 32.5956 289.127 32.5416 289.222 32.5354L290.146 32.415C290.226 32.4054 290.484 32.3701 290.568 32.3601L291.426 32.2483C291.458 32.2433 291.49 32.2319 291.518 32.2148C291.546 32.1978 291.571 32.1752 291.59 32.1486C291.61 32.122 291.624 32.0918 291.632 32.0597C291.639 32.0276 291.641 31.9942 291.636 31.9616" fill="#FF78D2"/>
<path d="M321.301 37.3672C321.106 33.5163 318.904 30.0132 315.84 27.7605C313.495 26.0199 310.082 25.3783 307.15 25.7017C305.94 25.8302 304.753 26.1252 303.623 26.5785C304.151 26.5905 304.655 26.8051 305.03 27.1781C305.217 27.3745 305.365 27.6052 305.466 27.8575C305.875 27.8063 306.287 27.7759 306.699 27.7662C307.073 27.7528 307.45 27.7729 307.823 27.7839C307.973 27.7557 308.532 27.9425 308.315 27.718C307.993 27.2187 307.559 26.8015 307.048 26.4996C306.99 26.4633 306.949 26.4057 306.933 26.3391C306.917 26.2724 306.927 26.2021 306.962 26.1432C307.184 25.8499 307.497 26.2144 307.734 26.3587C308.278 26.7571 308.708 27.2917 308.981 27.9091C309.678 28.0237 310.365 28.1866 311.039 28.3964C311.223 28.3419 311.054 28.2392 310.994 28.1384C310.81 27.8995 310.619 27.6659 310.426 27.4332C310.396 27.3968 310.382 27.3505 310.385 27.3037C310.388 27.2568 310.408 27.2127 310.442 27.1805C310.476 27.1482 310.521 27.1301 310.568 27.1297C310.615 27.1293 310.66 27.1468 310.695 27.1786C311.012 27.5318 311.305 27.9063 311.571 28.2994C311.599 28.3444 311.609 28.3985 311.598 28.4504C311.585 28.4947 311.557 28.5327 311.518 28.5569C311.8 28.6573 312.078 28.7672 312.354 28.8842C312.425 28.9363 312.511 28.9662 312.599 28.9703C312.687 28.9743 312.775 28.9524 312.851 28.9072C312.698 28.6076 312.551 28.3052 312.385 28.0123C312.307 27.8971 312.229 27.7256 312.375 27.6301C312.418 27.6064 312.467 27.5993 312.515 27.6103C312.562 27.6212 312.604 27.6494 312.632 27.6893C312.817 28.0006 312.986 28.3213 313.138 28.6501C313.234 28.8599 313.444 29.1456 313.094 29.2287C314.271 29.7987 314.703 30.4513 314.092 28.6936C314.084 28.645 314.094 28.5953 314.121 28.5541C314.148 28.5129 314.189 28.4833 314.237 28.4709C314.512 28.4432 314.494 28.8221 314.58 28.9965C314.683 29.305 314.765 29.6205 314.824 29.9406C314.828 29.9644 314.828 29.9889 314.823 30.0126C314.818 30.0364 314.808 30.0588 314.794 30.0787C314.78 30.0986 314.762 30.1156 314.742 30.1286C314.722 30.1416 314.699 30.1505 314.675 30.1546C315.056 30.4155 315.417 30.7007 315.771 30.9917C315.759 30.6038 315.723 30.2169 315.666 29.8331C315.66 29.7861 315.673 29.7388 315.702 29.7011C315.73 29.6634 315.772 29.6382 315.819 29.6305C315.865 29.6229 315.913 29.6336 315.952 29.6602C315.991 29.6869 316.018 29.7276 316.028 29.7738C316.127 30.277 316.156 30.7916 316.115 31.3027C316.428 31.5931 316.726 31.8998 317.008 32.2215C317.004 31.8574 316.982 31.4905 316.985 31.1269C316.993 31.0823 317.015 31.0417 317.049 31.0118C317.083 30.9819 317.126 30.9645 317.171 30.9626C317.22 30.9638 317.265 30.9834 317.3 31.0172C317.334 31.0511 317.355 31.0968 317.357 31.1451C317.364 31.6028 317.379 32.0638 317.385 32.5206C317.383 32.5597 317.369 32.5973 317.347 32.6295C317.62 32.9791 317.876 33.3422 318.113 33.7174C318.193 33.3391 318.231 32.9531 318.227 32.5665C318.23 32.5184 318.252 32.4735 318.287 32.4408C318.323 32.4081 318.369 32.39 318.417 32.3902C318.719 32.426 318.558 32.8159 318.578 33.018C318.557 33.34 318.53 33.6744 318.483 33.9878C318.479 34.0216 318.465 34.0533 318.442 34.0785C318.42 34.1037 318.389 34.1209 318.356 34.1278C318.598 34.4981 318.733 34.9654 318.972 35.3223C319.118 34.9625 319.205 34.5741 319.314 34.2076C319.324 34.1597 319.353 34.1179 319.394 34.0911C319.435 34.0643 319.485 34.0546 319.533 34.0643C319.856 34.1799 319.543 34.6176 319.528 34.8512C319.404 35.1039 319.359 35.6209 319.128 35.7647C319.245 36.0991 319.37 36.4594 319.465 36.8101C319.517 37.2219 319.857 36.1847 319.989 36.0389C320.013 35.9997 320.051 35.9709 320.095 35.958C320.14 35.9451 320.187 35.9491 320.229 35.9693C320.27 35.9894 320.303 36.0242 320.32 36.067C320.337 36.1098 320.338 36.1575 320.323 36.2009C320.1 36.6252 319.901 37.0843 319.642 37.4871C319.741 37.9066 319.812 38.3328 319.875 38.7585C320.053 38.4546 320.247 38.1517 320.418 37.8473C320.436 37.8228 320.459 37.8024 320.486 37.7874C320.512 37.7724 320.542 37.7632 320.572 37.7604C320.604 37.7588 320.637 37.7659 320.666 37.7809C320.695 37.796 320.719 37.8185 320.736 37.8461C320.754 37.8737 320.764 37.9054 320.765 37.938C320.766 37.9706 320.758 38.003 320.743 38.0318C320.513 38.4747 320.243 38.8953 319.936 39.2883C319.983 39.7298 320.002 40.1732 320.017 40.6137C320.255 40.316 320.481 40.0102 320.708 39.7107C320.737 39.6742 320.779 39.6502 320.825 39.6434C320.872 39.6365 320.919 39.6474 320.957 39.6739C321.138 39.8234 320.94 40.0207 320.839 40.1574C320.617 40.4593 320.389 40.7508 320.148 41.0403C320.116 41.0767 320.071 41.099 320.023 41.1024C320.019 41.5439 320.005 41.9916 319.97 42.4268C320.232 42.1578 320.498 41.8893 320.759 41.618C320.83 41.5396 320.995 41.5272 321.037 41.6385C321.296 40.2298 321.387 38.795 321.306 37.3648" fill="#6BC7DD"/>
<path d="M301.769 27.523C300.798 28.158 299.533 29.0968 298.948 29.9425C299.393 29.9523 299.837 29.9916 300.276 30.06C300.59 29.8135 300.917 29.587 301.251 29.3706C301.364 29.2636 301.67 29.2 301.673 29.0643C301.557 28.6147 301.608 28.1382 301.816 27.7232C301.88 27.5979 301.952 27.4773 302.032 27.362C301.948 27.4098 301.851 27.4738 301.767 27.523" fill="#6BC7DD"/>
<path d="M320.726 42.1899C320.459 42.4182 320.242 42.7761 319.921 42.9123C319.849 43.6298 319.741 44.3432 319.597 45.0498C319.519 45.4321 319.431 45.8143 319.333 46.1798C319.358 46.1525 319.377 46.1224 319.401 46.0947C319.686 45.7606 319.951 45.4096 320.194 45.0436C320.337 44.6007 320.458 44.1435 320.575 43.6901C320.729 43.1053 320.863 42.516 320.978 41.9223C320.896 42.0131 320.809 42.1024 320.724 42.1913" fill="#6BC7DD"/>
<path d="M315.727 41.7732C315.018 40.236 314.047 38.8346 312.858 37.6319C312.736 37.5191 312.612 37.4063 312.489 37.2945C312.46 37.3246 312.388 37.4484 312.363 37.4766C312.301 37.5631 312.172 37.7561 312.114 37.8397C312.22 37.9223 312.328 38.0122 312.429 38.1029C313.801 39.1872 314.808 40.6684 315.312 42.3456C315.415 42.7286 315.652 43.0618 315.98 43.2844L316.32 43.1975C316.153 42.7159 315.932 42.2419 315.726 41.7732" fill="#FFFFBD"/>
<path d="M320.268 45.7995C320.122 45.9732 319.987 46.1561 319.865 46.347C319.767 46.692 319.669 47.0374 319.546 47.3747C319.136 48.5101 318.575 49.5847 317.877 50.5691C317.85 50.5931 317.817 50.6096 317.782 50.6169C317.759 50.6184 317.736 50.6133 317.715 50.6021C317.695 50.5909 317.678 50.5742 317.666 50.5538C317.655 50.5334 317.65 50.5102 317.651 50.4869C317.652 50.4635 317.66 50.441 317.673 50.422C318.467 49.3067 319.078 48.0722 319.485 46.7646C319.257 47.0056 319.016 47.2346 318.764 47.4507C318.55 47.9707 318.171 48.4057 317.686 48.6886C317.635 48.6829 317.578 48.6456 317.581 48.5906C317.556 48.5472 317.598 48.498 317.623 48.4631C317.959 48.2262 318.238 47.9158 318.436 47.5553C318.399 47.566 318.36 47.5743 318.321 47.5801C318.186 47.6051 318.047 47.5964 317.916 47.5547C317.786 47.5131 317.667 47.4398 317.571 47.3413C317.413 47.0647 317.307 46.7616 317.257 46.4469C317.175 46.5458 316.942 46.8061 316.862 46.9007C316.701 47.0632 316.648 47.2352 316.492 47.1363C316.349 47.0145 316.631 46.8066 316.692 46.7135C316.79 46.6002 316.934 46.4344 317.033 46.3217L317.185 46.1473C317.142 45.9686 317.097 45.7851 317.052 45.6026C316.893 45.7257 316.725 45.8374 316.551 45.9371C315.692 46.5054 314.8 47.0211 313.879 47.4812C313.856 47.4776 313.833 47.4692 313.813 47.4566C313.794 47.4439 313.776 47.4273 313.763 47.4077C313.755 47.3905 313.766 47.3718 313.756 47.3565C313.758 47.3344 313.765 47.3129 313.775 47.2935C313.786 47.274 313.801 47.257 313.818 47.2433C314.76 46.7655 315.658 46.207 316.548 45.6404C316.695 45.574 316.834 45.39 317.002 45.411C316.954 45.2075 316.9 45.0145 316.84 44.8019C316.554 44.9251 316.283 45.0565 316.008 45.1975C314.021 46.1868 312.204 47.4881 310.627 49.0522C312.535 48.7462 314.417 48.2971 316.258 47.7087C316.298 47.6828 316.343 47.6681 316.391 47.6661C316.438 47.6642 316.485 47.675 316.526 47.6975C316.568 47.72 316.603 47.7533 316.627 47.794C316.651 47.8346 316.664 47.8811 316.664 47.9284C316.664 47.97 316.538 51.6594 316.635 53.441C318.411 51.9485 319.85 49.2724 320.499 46.9719C320.696 46.2899 320.826 45.5903 320.887 44.8831C320.704 45.2043 320.497 45.5108 320.267 45.7999" fill="#FFFFBD"/>
<path d="M312.411 23.8451C312.574 23.8819 312.737 23.922 312.899 23.9655C313.131 23.7811 313.516 23.459 313.743 23.277L314.219 22.8876C314.232 22.8761 314.247 22.8674 314.264 22.8621C314.28 22.8568 314.297 22.8549 314.315 22.8567C314.332 22.8584 314.348 22.8638 314.363 22.8723C314.378 22.8808 314.391 22.8924 314.402 22.9063C314.421 22.9334 314.429 22.9669 314.424 22.9998C314.419 23.0327 314.401 23.0623 314.375 23.0826C314.214 23.2154 313.883 23.482 313.724 23.6134L313.193 24.0472C313.463 24.115 313.726 24.2135 313.991 24.3018L314.411 23.9311L314.752 23.6296C314.824 23.5637 314.943 23.4347 315.038 23.5436C315.058 23.573 315.066 23.6089 315.062 23.6443C315.057 23.6796 315.039 23.7119 315.012 23.7347L314.726 23.9884C314.721 23.9956 314.278 24.3821 314.253 24.4046C314.474 24.491 314.696 24.5775 314.913 24.675C315.001 24.5856 315.202 24.3855 315.29 24.2999C315.371 24.2297 315.521 24.0094 315.645 24.1232C315.747 24.2311 315.607 24.342 315.534 24.4132L315.158 24.7858C315.343 24.8715 315.527 24.9609 315.709 25.0539C315.768 25.009 316.007 24.6716 316.096 24.6946C316.12 24.6961 316.142 24.7041 316.162 24.7178C316.181 24.7315 316.196 24.7503 316.205 24.7721C316.215 24.7938 316.218 24.8178 316.214 24.8412C316.211 24.8647 316.201 24.8867 316.186 24.9048L315.94 25.1733C316.505 25.477 317.05 25.8183 317.57 26.1948C317.001 24.6329 315.899 23.3888 315.044 21.9689C314.074 22.2902 313.152 22.7425 312.304 23.3133C311.713 23.7433 311.62 23.6927 312.411 23.8437" fill="#FFFFBD"/>
<path d="M324.048 37.048C323.626 34.0743 322.662 31.1809 322.246 28.1919C322.11 27.3032 321.995 26.503 321.854 25.5775C320.77 25.6909 319.715 25.9956 318.738 26.4776C318.198 26.7199 318.161 26.6716 318.651 27.062C318.817 27.2096 318.98 27.3606 319.138 27.5168L319.631 27.3071C319.904 27.19 320.884 26.7748 321.174 26.6511C321.204 26.6403 321.237 26.6416 321.267 26.6545C321.296 26.6675 321.32 26.6912 321.332 26.7209C321.345 26.7506 321.346 26.7839 321.335 26.8143C321.324 26.8446 321.302 26.8696 321.273 26.8842C320.987 27.0065 320.096 27.3873 319.824 27.5053L319.335 27.7137C319.525 27.9014 319.7 28.1054 319.88 28.3023C320.326 28.1112 320.966 27.8417 321.414 27.6496C321.461 27.6429 321.519 27.6329 321.55 27.6802C321.561 27.6902 321.581 27.6965 321.58 27.7132C321.605 27.7371 321.587 27.7724 321.585 27.8016C321.576 27.8393 321.541 27.8594 321.514 27.8814C321.127 28.0524 320.564 28.2808 320.179 28.4499L320.048 28.5058C320.183 28.6706 320.316 28.8364 320.444 29.006L320.926 28.825C321.102 28.7657 321.463 28.6176 321.637 28.5569C321.761 28.5092 321.875 28.6816 321.757 28.7643C321.669 28.8161 321.575 28.8573 321.477 28.8871C321.262 28.9669 320.818 29.1374 320.602 29.2172C320.713 29.3715 320.82 29.5278 320.923 29.6859L321.317 29.5478C321.375 29.5235 321.706 29.4112 321.771 29.3854C321.83 29.3854 321.905 29.3907 321.929 29.4599C321.962 29.6348 321.738 29.651 321.543 29.7304L321.066 29.9004C321.17 30.0658 321.269 30.2349 321.363 30.4016L321.839 30.2335C321.857 30.2212 321.877 30.2128 321.898 30.209C321.919 30.2051 321.94 30.2058 321.961 30.2111C321.982 30.2163 322.001 30.226 322.018 30.2394C322.034 30.2529 322.048 30.2697 322.057 30.2889C322.061 30.3481 322.047 30.425 321.981 30.4475C321.941 30.4604 321.536 30.6033 321.486 30.6209C321.581 30.7939 321.669 30.9673 321.753 31.1427L322.08 31.0696C322.158 31.0442 322.267 31.0352 322.295 31.1336C322.302 31.1669 322.297 31.2015 322.28 31.2312C322.264 31.261 322.238 31.2839 322.206 31.296L321.858 31.3744C321.936 31.5435 322.009 31.7147 322.078 31.888C322.158 31.8818 322.428 31.7729 322.496 31.8474C322.513 31.8625 322.525 31.8819 322.532 31.9035C322.539 31.925 322.539 31.948 322.534 31.9699C322.529 31.9919 322.517 32.012 322.502 32.0281C322.486 32.0442 322.466 32.0557 322.444 32.0614L322.17 32.1235C322.228 32.275 322.281 32.4274 322.332 32.5822C322.427 32.5559 322.524 32.5369 322.623 32.5254C322.651 32.5233 322.678 32.5314 322.701 32.5481C322.723 32.5648 322.739 32.5891 322.745 32.6165C322.751 32.6439 322.747 32.6726 322.734 32.6973C322.721 32.7221 322.699 32.7413 322.673 32.7513C322.665 32.7556 322.661 32.7666 322.651 32.7666L322.409 32.8216C322.466 33.0046 322.516 33.1899 322.564 33.3748C322.648 33.3662 322.865 33.2654 322.907 33.3844C322.974 33.4489 322.902 33.5425 322.836 33.5698L322.624 33.6176C322.658 33.7638 322.689 33.9109 322.719 34.0585L322.962 34.0031C322.98 33.9954 322.999 33.9917 323.018 33.9923C323.037 33.9929 323.056 33.9978 323.073 34.0066C323.09 34.0155 323.104 34.028 323.116 34.0434C323.127 34.0587 323.135 34.0765 323.139 34.0953C323.143 34.1141 323.142 34.1335 323.137 34.152C323.132 34.1705 323.123 34.1877 323.111 34.2023C323.099 34.2169 323.083 34.2286 323.066 34.2363C323.048 34.2441 323.029 34.2479 323.01 34.2473L322.761 34.3036C322.787 34.4532 322.809 34.6032 322.829 34.7537C322.859 34.7537 323.088 34.6811 323.11 34.7059C323.134 34.71 323.156 34.7202 323.175 34.7354C323.194 34.7506 323.209 34.7704 323.218 34.7929C323.218 34.8177 323.213 34.8422 323.202 34.8643C323.19 34.8864 323.174 34.9055 323.154 34.92C323.15 34.9558 322.88 34.9897 322.856 35.0036C322.872 35.1469 322.882 35.2931 322.895 35.4379L323.152 35.3801C323.256 35.3562 323.346 35.4933 323.275 35.5712C323.248 35.6505 322.978 35.6644 322.918 35.6911C322.927 35.8311 322.936 35.9716 322.943 36.1173C323.006 36.1111 323.211 36.0299 323.268 36.0772C323.281 36.0846 323.294 36.0948 323.304 36.107C323.314 36.1193 323.321 36.1334 323.325 36.1486C323.33 36.1638 323.331 36.1797 323.329 36.1954C323.328 36.2111 323.323 36.2263 323.315 36.2401C323.29 36.3356 323.018 36.3418 322.949 36.3729C322.954 36.5062 322.959 36.6409 322.958 36.7747L323.319 36.693C323.35 36.6884 323.382 36.6958 323.408 36.7138C323.434 36.7317 323.453 36.759 323.46 36.79C323.467 36.821 323.462 36.8536 323.446 36.8813C323.431 36.9089 323.405 36.9295 323.375 36.9391L322.964 37.0346C322.964 37.1383 322.952 37.2391 322.951 37.3418C323.023 37.3418 323.313 37.2253 323.373 37.2888C323.393 37.3023 323.409 37.3215 323.419 37.344C323.429 37.3665 323.431 37.3913 323.427 37.4154C323.423 37.4395 323.411 37.4618 323.395 37.4796C323.378 37.4973 323.356 37.5097 323.332 37.5153L322.939 37.6032C322.932 37.725 322.93 37.8459 322.923 37.9672L323.295 37.8827C323.319 37.8776 323.343 37.8802 323.365 37.8902C323.387 37.9002 323.405 37.917 323.416 37.9381C323.484 37.9973 323.428 38.1048 323.351 38.1292L322.912 38.2286C322.907 38.3404 322.896 38.4527 322.887 38.563L323.224 38.4861C323.248 38.482 323.273 38.4849 323.295 38.4944C323.317 38.5039 323.337 38.5197 323.35 38.5398C323.364 38.5599 323.372 38.5835 323.373 38.6079C323.373 38.6322 323.367 38.6563 323.355 38.6772C323.338 38.7034 323.312 38.722 323.281 38.7293L322.852 38.8249C322.805 39.2826 322.743 39.7326 322.651 40.1822C322.862 40.0823 323.056 39.9513 323.229 39.7938C323.569 39.4319 323.819 38.9955 323.961 38.5194C324.102 38.0432 324.131 37.5405 324.044 37.0513" fill="#FFFFBD"/>
<path d="M305.471 27.8646C306.439 27.7789 307.414 27.8372 308.365 28.0376C308.584 28.1164 308.449 27.9578 308.393 27.8355C307.421 27.7312 306.44 27.7409 305.471 27.8646Z" fill="#FFFFBD"/>
<path d="M309.08 28.2096C309.564 28.349 310.038 28.5219 310.499 28.727C310.68 28.6186 310.857 28.5015 311.041 28.3988C310.524 28.2435 309.999 28.104 309.468 27.9965C309.149 27.9807 308.872 27.7347 309.08 28.2096Z" fill="#FFFFBD"/>
<path d="M311.267 29.114C311.43 29.2067 311.589 29.3004 311.749 29.3978C311.767 29.3536 311.801 29.3178 311.844 29.2975C312.093 29.1948 312.349 29.0916 312.604 28.9955C312.246 28.8384 311.886 28.6893 311.518 28.5603C311.181 28.7963 310.612 28.8613 311.269 29.114" fill="#FFFFBD"/>
<path d="M317.35 32.6329C317.334 32.6574 317.312 32.6775 317.286 32.6912C317.26 32.7049 317.232 32.7118 317.202 32.7112C316.93 32.6864 316.66 32.6591 316.388 32.6324C316.188 32.5803 315.721 32.6802 315.731 32.383C315.733 32.3585 315.739 32.3346 315.751 32.3127C315.762 32.2908 315.777 32.2714 315.796 32.2555C315.815 32.2396 315.836 32.2276 315.86 32.2201C315.883 32.2126 315.908 32.2098 315.932 32.2119C316.293 32.2459 316.652 32.2769 317.014 32.3142C317.014 32.2855 317.014 32.2554 317.011 32.2267C316.725 31.952 316.409 31.4785 316.098 31.3352C316.057 31.369 316.006 31.3869 315.952 31.3859C315.527 31.3481 315.117 31.3343 314.697 31.3381C314.648 31.3376 314.601 31.3176 314.566 31.2823C314.532 31.2471 314.513 31.1995 314.513 31.1501C314.514 31.1007 314.534 31.0534 314.569 31.0188C314.604 30.9842 314.651 30.965 314.701 30.9654C315.058 30.9563 315.415 30.9659 315.771 30.9941C315.417 30.7036 315.056 30.4207 314.677 30.1589C314.252 30.1948 313.807 30.2851 313.383 30.35C313.332 30.3448 313.284 30.3195 313.251 30.2794C313.218 30.2393 313.202 30.1878 313.206 30.136C313.212 30.0998 313.229 30.0661 313.254 30.0391C313.279 30.0122 313.311 29.9932 313.347 29.9845C313.625 29.9286 313.909 29.877 314.187 29.8412C313.843 29.6329 313.467 29.4165 313.098 29.2325C312.849 29.3109 312.601 29.4031 312.36 29.4915C312.265 29.5302 312.169 29.5703 312.074 29.6104C312.271 29.7538 312.471 29.8971 312.663 30.0452C313.317 30.577 313.912 31.1786 314.436 31.8393C317.24 35.2444 318.535 39.6949 318.538 44.0704C318.541 45.0712 318.482 46.0712 318.36 47.0646C318.737 46.8427 319.065 46.5466 319.324 46.1941C319.614 45.1204 319.813 44.0244 319.92 42.9175C319.715 42.8893 319.596 42.562 319.444 42.4259C319.291 42.2247 319.121 42.0303 318.977 41.8248C318.958 41.796 318.948 41.7626 318.947 41.7281C318.946 41.6937 318.954 41.6597 318.972 41.63C318.989 41.6002 319.014 41.5758 319.045 41.5596C319.075 41.5434 319.109 41.536 319.143 41.5382C319.17 41.5408 319.195 41.5488 319.219 41.5616C319.242 41.5744 319.263 41.5918 319.279 41.6127C319.51 41.8683 319.732 42.2338 319.964 42.4359C320.003 42.003 320.015 41.5477 320.018 41.1096C319.823 41.1096 319.645 40.7842 319.485 40.6653C319.318 40.4598 319.061 40.3088 318.933 40.0857C318.922 40.0605 318.916 40.0329 318.918 40.0053C318.919 39.9776 318.927 39.9507 318.941 39.9266C318.954 39.9026 318.974 39.8822 318.997 39.8671C319.02 39.852 319.046 39.8426 319.074 39.8397C319.108 39.8377 319.142 39.8436 319.173 39.857C319.204 39.8703 319.232 39.8907 319.254 39.9166C319.514 40.1125 319.772 40.4928 320.014 40.6194C319.995 40.1798 319.98 39.7317 319.93 39.2959C319.899 39.3095 319.865 39.3138 319.831 39.3082C319.798 39.3026 319.767 39.2874 319.742 39.2644C319.401 38.9849 319.064 38.7145 318.71 38.4546C318.672 38.4229 318.648 38.3774 318.644 38.3281C318.639 38.2789 318.655 38.2298 318.686 38.1918C318.718 38.1538 318.763 38.1299 318.812 38.1254C318.861 38.121 318.91 38.1362 318.948 38.1679C319.245 38.3786 319.53 38.6089 319.822 38.8368C319.839 38.811 319.852 38.7842 319.869 38.758C319.803 38.3356 319.74 37.9109 319.638 37.4933C319.617 37.5092 319.593 37.5206 319.568 37.5267C319.306 37.5114 319.023 37.1842 318.779 37.0595C318.632 36.9348 318.377 36.8464 318.297 36.6725C318.287 36.6434 318.285 36.6121 318.291 36.5819C318.296 36.5516 318.31 36.5234 318.33 36.5001C318.35 36.4768 318.376 36.4591 318.405 36.449C318.434 36.4388 318.465 36.4365 318.496 36.4422C318.673 36.4809 318.815 36.6471 318.977 36.7355C319.138 36.7867 319.426 37.1813 319.508 36.9677C319.393 36.565 319.272 36.1632 319.121 35.7733C319.098 35.7804 319.073 35.7827 319.048 35.7799C319.024 35.7771 319 35.7693 318.978 35.757C318.608 35.5595 318.226 35.385 317.834 35.2344C317.791 35.213 317.757 35.1754 317.741 35.1296C317.724 35.0837 317.726 35.0333 317.746 34.9889C317.766 34.9445 317.803 34.9097 317.848 34.8918C317.893 34.8739 317.943 34.8745 317.988 34.8932C318.315 35.0097 318.634 35.1491 318.942 35.3103C318.777 34.902 318.576 34.5097 318.34 34.1383C318.03 34.0955 317.723 34.0357 317.42 33.9592C317.263 33.9071 317.043 33.9491 316.928 33.8158C316.909 33.7871 316.898 33.7537 316.897 33.7193C316.895 33.6848 316.903 33.6506 316.919 33.6201C316.935 33.5897 316.959 33.5643 316.989 33.5465C317.018 33.5287 317.052 33.5193 317.086 33.5191C317.431 33.5755 317.779 33.6362 318.118 33.7231C317.886 33.3465 317.631 32.984 317.356 32.6376" fill="#FFFFBD"/>
<path d="M310.786 35.9854C310.653 35.9018 310.529 35.8072 310.392 35.7298C310.29 35.8368 310.185 35.941 310.08 36.049C310.01 36.1039 309.937 36.1555 309.864 36.2076C309.9 36.3065 309.972 36.5009 310.007 36.5998C310.02 36.6309 310.048 36.7126 310.059 36.7432C310.292 36.4895 310.544 36.2315 310.784 35.9854" fill="#FFFFBD"/>
<path d="M310.022 35.392C310.88 34.2454 310.699 32.7351 311.143 31.4035C310.902 31.4312 310.419 31.4752 310.181 31.5039L309.686 31.555C309.57 31.9125 309.374 32.2391 309.114 32.5105C308.517 33.2258 307.846 33.8757 307.112 34.4494C306.454 34.973 305.748 35.4319 305.002 35.8196C306.351 35.7828 307.456 34.8961 308.399 34.0146C308.529 33.9162 308.628 33.7494 308.78 33.6973C308.802 33.6891 308.826 33.6877 308.849 33.6935C308.871 33.6993 308.892 33.7118 308.907 33.7295C308.922 33.7472 308.932 33.7692 308.934 33.7925C308.937 33.8158 308.932 33.8393 308.921 33.8598C308.826 33.9725 308.722 34.0763 308.609 34.1699C308.094 34.6697 307.529 35.1148 306.923 35.4981C306.335 35.8444 305.672 36.0426 304.991 36.0757C305.317 36.1113 305.645 36.1209 305.972 36.1044C306.778 36.1229 307.572 35.9072 308.258 35.4833C308.944 35.0594 309.493 34.4454 309.839 33.7155C309.98 33.3076 310.079 32.8865 310.134 32.4585C310.455 32.2779 310.314 32.8139 310.311 32.9716C309.978 35.1364 307.824 36.4173 305.752 36.3772C305.492 36.3761 305.232 36.3601 304.974 36.3294C305.339 36.4263 305.712 36.4924 306.088 36.5272C307.45 36.6371 309.06 36.4651 310.023 35.3944" fill="#FFFFBD"/>
<path d="M302.241 39.7274C302.683 40.0738 303.242 40.5124 303.682 40.8583C303.85 40.9658 304.281 41.4015 304.423 41.3466L308.141 40.886L309.667 40.6949C309.715 40.6878 309.76 40.6669 309.796 40.6347C309.832 40.6025 309.859 40.5604 309.872 40.5135C309.885 40.4667 309.884 40.417 309.869 40.3707C309.854 40.3243 309.826 40.2832 309.789 40.2525C309.381 39.9324 308.807 39.4837 308.398 39.1622C308.194 39.0274 307.751 38.5812 307.605 38.6333C307.377 38.6624 305.845 38.8511 305.579 38.8851L302.363 39.2831C302.316 39.2908 302.271 39.312 302.235 39.3442C302.2 39.3764 302.174 39.4183 302.161 39.4648C302.148 39.5113 302.149 39.5606 302.163 39.6067C302.177 39.6528 302.204 39.6939 302.241 39.725M307.564 39.1431C308.006 39.4918 308.576 39.9333 309.011 40.2797C308.633 40.3275 304.945 40.7828 304.465 40.8416L304.351 40.7527C303.974 40.455 303.394 40.0035 303.017 39.7073C303.002 39.7021 307.565 39.145 307.562 39.1431" fill="#236B9B"/>
<path d="M288.986 35.9267C288.938 35.8808 288.875 35.8556 288.809 35.8566C288.743 35.8577 288.681 35.8848 288.635 35.9322C288.589 35.9795 288.564 36.0431 288.565 36.109C288.566 36.1749 288.593 36.2377 288.64 36.2836C288.823 36.4321 295.889 43.3876 296.107 43.52C296.16 43.5394 296.218 43.5401 296.272 43.5221C296.326 43.5041 296.371 43.4685 296.402 43.421C296.433 43.3735 296.446 43.3169 296.441 43.2606C296.435 43.2043 296.411 43.1516 296.372 43.111L288.986 35.9267Z" fill="#236B9B"/>
<path d="M324.973 36.4924C324.412 33.2072 323.495 30.3768 323.058 26.8833C322.981 26.3639 322.899 25.8102 322.806 25.2082C322.778 25.0349 322.691 24.8769 322.559 24.7618C322.427 24.6467 322.258 24.582 322.083 24.579C320.936 24.6367 319.81 24.9086 318.763 25.3807C318.373 25.5914 318.37 25.5403 318.208 25.1681C317.563 23.7667 316.577 22.601 315.786 21.2794C315.697 21.1303 315.558 21.017 315.395 20.9592C315.231 20.9013 315.053 20.9026 314.89 20.9627C313.633 21.3547 312.452 21.9585 311.397 22.7481C311.292 22.874 311.155 22.9692 311 23.0237C310.845 23.0782 310.679 23.0899 310.518 23.0577C309.864 23.0071 309.207 23.0033 308.552 23.0463C308.417 23.0553 308.282 23.0615 308.148 23.0744L308.088 22.6631L307.504 18.6235C307.486 18.4947 307.418 18.3782 307.315 18.2991C307.212 18.2201 307.082 18.1849 306.953 18.2011L285.492 20.8494C285.427 20.8576 285.363 20.8787 285.306 20.9115C285.249 20.9443 285.199 20.9881 285.158 21.0405C285.118 21.0931 285.089 21.1532 285.073 21.2172C285.057 21.2812 285.053 21.3479 285.063 21.4132L286.97 34.5965L287.043 35.103C287.037 35.3935 287.047 36.1011 287.043 36.3987C287.013 36.6376 287.274 36.8254 287.416 36.9759C289.446 38.9825 293.859 43.3351 295.845 45.2973C295.901 45.3517 295.969 45.3922 296.044 45.4156C296.118 45.439 296.197 45.4446 296.274 45.4321L313.907 42.5721L314.313 42.5061C314.403 42.8737 314.571 43.2177 314.805 43.515C315.039 43.8123 315.333 44.056 315.669 44.23C315.516 44.3026 315.371 44.3805 315.223 44.456C313.113 45.5305 311.44 46.9022 309.446 48.8037C309.339 48.9072 309.266 49.04 309.235 49.1852C309.205 49.3305 309.218 49.4816 309.273 49.6194C309.328 49.7572 309.423 49.8755 309.545 49.9592C309.667 50.0429 309.812 50.0882 309.96 50.0894C311.466 50.0847 314.182 49.3584 315.647 48.9313C315.613 50.3646 315.572 52.8863 315.687 53.9986C315.7 54.1284 315.748 54.2523 315.824 54.358C315.9 54.4637 316.003 54.5474 316.122 54.6007C316.24 54.6539 316.371 54.6749 316.501 54.6615C316.63 54.6481 316.754 54.6007 316.859 54.5242C319.398 52.7043 321.608 48.336 321.864 44.9844C321.856 44.6389 321.883 44.2934 321.945 43.9533C322.312 43.1844 322.613 42.3851 322.843 41.5644C322.883 41.1416 323.096 41.0599 323.434 40.8798C323.724 40.6984 323.984 40.4727 324.204 40.2109C324.737 39.5755 325.314 38.3953 324.972 36.49M312.302 23.3133C313.149 22.7407 314.07 22.2871 315.04 21.965C315.87 23.3272 316.896 24.5283 317.503 26.0027C317.624 26.287 317.493 26.1274 317.33 26.0204C316.879 25.7185 316.415 25.4285 315.937 25.1724L316.185 24.9C316.205 24.8753 316.215 24.8439 316.212 24.8123C316.21 24.7807 316.195 24.7511 316.172 24.7298C316.149 24.7084 316.118 24.6968 316.086 24.6972C316.055 24.6977 316.024 24.7103 316.002 24.7323L315.708 25.0539C315.525 24.9602 315.341 24.8704 315.155 24.7844C315.237 24.7032 315.569 24.3735 315.643 24.2985C315.751 24.1724 315.596 24.0295 315.468 24.1217C315.389 24.201 315.226 24.3635 315.146 24.4404L314.912 24.675L314.89 24.6635C314.679 24.5704 314.464 24.4858 314.249 24.4022C314.276 24.3778 314.711 23.9937 314.719 23.986L315.005 23.7314L315.019 23.7194C315.114 23.6062 314.983 23.4266 314.857 23.5326C314.782 23.5947 314.485 23.8628 314.405 23.9306L313.985 24.3019C313.954 24.2923 313.922 24.2808 313.89 24.2708C313.656 24.1905 313.423 24.1064 313.185 24.0467L313.602 23.707C313.816 23.5317 314.154 23.2565 314.37 23.0797C314.383 23.0699 314.394 23.0577 314.402 23.0437C314.41 23.0297 314.416 23.0141 314.418 22.998C314.42 22.9818 314.42 22.9654 314.416 22.9496C314.412 22.9337 314.405 22.9189 314.395 22.9058C314.385 22.8927 314.373 22.8817 314.359 22.8733C314.345 22.865 314.329 22.8595 314.313 22.8571C314.297 22.8548 314.281 22.8556 314.265 22.8596C314.249 22.8636 314.234 22.8707 314.221 22.8805C314.096 22.9894 313.685 23.3148 313.565 23.417C313.43 23.5221 313.034 23.8551 312.894 23.9655C312.517 23.8642 312.134 23.782 311.75 23.7099C311.944 23.5623 312.127 23.429 312.295 23.3109M287.958 34.5167C287.476 31.1785 286.981 27.7634 286.498 24.4256C286.411 23.772 286.204 22.4189 286.117 21.772L306.593 19.247C306.763 20.4701 306.993 21.9775 307.165 23.1958C307.041 23.2192 306.918 23.2436 306.794 23.2679L306.734 22.8585C306.711 22.6421 306.544 21.6163 306.517 21.385L306.334 20.1385C306.325 20.0741 306.291 20.0158 306.239 19.9765C306.187 19.9372 306.122 19.92 306.058 19.9288C305.551 19.9904 298.705 20.8365 298.41 20.8728C295.286 21.2651 290.968 21.7868 287.868 22.1743L286.911 22.2923C286.875 22.2927 286.84 22.3005 286.808 22.3152C286.775 22.3299 286.746 22.3511 286.722 22.3777C286.698 22.4042 286.68 22.4354 286.669 22.4693C286.658 22.5032 286.654 22.5391 286.657 22.5747C286.771 23.3229 286.956 24.6291 287.068 25.373C287.262 26.6874 287.501 28.3195 287.695 29.6339C287.803 30.3553 287.992 31.6658 288.1 32.3878L288.271 33.5492C288.28 33.6135 288.315 33.6714 288.366 33.7106C288.418 33.7499 288.483 33.7674 288.547 33.7595C290.92 33.4699 293.994 33.0848 296.379 32.7929C296.816 32.7356 298.245 32.5645 298.667 32.5106L298.715 32.5048L298.896 32.4824C299.343 32.4449 299.794 32.4737 300.233 32.5679C300.721 32.64 301.262 32.7155 301.733 32.8149L300.284 32.9941L288.129 34.4967L287.964 34.5167M305.351 23.1222L299.684 23.8637L298.46 24.0233C298.419 24.0256 298.377 24.0205 298.338 24.008C298.296 23.9904 298.259 23.9616 298.232 23.9246C298.205 23.8876 298.189 23.844 298.185 23.7984C298.181 23.7528 298.19 23.707 298.211 23.666C298.231 23.6251 298.262 23.5905 298.301 23.5661C298.546 23.5074 298.795 23.4674 299.046 23.4462L305.69 22.5804C305.75 22.5725 305.811 22.5871 305.861 22.6214C305.911 22.6557 305.947 22.7073 305.961 22.7662C305.975 22.8252 305.967 22.8873 305.939 22.9408C305.91 22.9942 305.863 23.0352 305.806 23.0558C305.796 23.0596 305.758 23.0768 305.758 23.0706L305.351 23.1222ZM298.44 28.062C298.334 28.1465 298.185 28.4795 298.08 28.4127C298.026 28.3893 297.982 28.3474 297.956 28.2943C297.929 28.2412 297.923 28.1805 297.937 28.1231C297.959 28.0641 297.999 28.0136 298.051 27.9791C298.103 27.9447 298.166 27.9281 298.228 27.932L298.581 27.8842C298.534 27.9373 298.486 28.0027 298.438 28.0601M298.471 30.9468L298.595 30.9568C298.473 31.0167 298.366 31.1048 298.284 31.2139C298.254 31.1729 298.238 31.1235 298.238 31.0727C298.238 31.0219 298.254 30.9725 298.284 30.9315C298.347 30.9353 298.409 30.942 298.471 30.9468ZM287.55 23.5403C287.616 23.4476 287.783 23.4509 287.884 23.4347L288.137 23.4017L288.93 23.2985C289.037 23.2985 289.384 23.203 289.48 23.277C289.526 23.3017 289.563 23.3405 289.586 23.3877C289.608 23.4349 289.615 23.488 289.606 23.5395C289.596 23.591 289.57 23.638 289.532 23.6739C289.494 23.7098 289.446 23.7326 289.394 23.739L288.881 23.8059L287.965 23.9249C287.935 23.9249 287.758 23.9545 287.731 23.9536C287.684 23.9524 287.638 23.9378 287.599 23.9115C287.559 23.8851 287.528 23.848 287.509 23.8046C287.49 23.7612 287.484 23.7133 287.491 23.6664C287.499 23.6196 287.519 23.5759 287.55 23.5403M287.753 25.0534C287.807 24.8709 288.079 24.8795 288.23 24.8566L289.063 24.7476C289.299 24.7061 289.537 24.6825 289.775 24.6769C289.812 24.6883 289.846 24.7081 289.874 24.7347C289.902 24.7613 289.923 24.794 289.936 24.8303C289.949 24.8666 289.954 24.9055 289.95 24.9439C289.945 24.9822 289.932 25.0191 289.911 25.0515C289.852 25.202 289.4 25.1886 289.209 25.2297L288.775 25.2861C288.669 25.2995 288.413 25.3339 288.309 25.3468L288.012 25.3855C288.001 25.387 287.99 25.3878 287.979 25.3878C287.94 25.3872 287.901 25.377 287.866 25.3581C287.832 25.3392 287.802 25.3122 287.78 25.2794C287.758 25.2466 287.744 25.2089 287.74 25.1695C287.735 25.1302 287.74 25.0903 287.754 25.0534M297.435 29.4967L297.526 29.4848C297.547 29.4877 297.507 29.6071 297.507 29.6491C297.492 29.7614 297.472 29.8708 297.456 29.9893C297.395 29.9854 297.338 29.9591 297.295 29.9154C297.252 29.8717 297.227 29.8138 297.225 29.7527C297.222 29.6916 297.242 29.6317 297.281 29.5844C297.319 29.5372 297.374 29.506 297.435 29.4967ZM297.517 28.3778C297.503 28.4238 297.476 28.4647 297.439 28.4958C297.402 28.5268 297.357 28.5467 297.31 28.5531C297.053 28.5861 296.444 28.6664 296.194 28.6965L295.324 28.8097L295.268 28.8169L294.516 28.9124C294.475 28.917 294.433 28.9111 294.394 28.8953C294.356 28.8795 294.321 28.8543 294.295 28.8219C294.268 28.7896 294.251 28.7511 294.243 28.71C294.235 28.6689 294.237 28.6265 294.25 28.5866C294.266 28.5432 294.293 28.5049 294.329 28.4756C294.364 28.4463 294.407 28.427 294.452 28.4198C294.754 28.3811 295.406 28.2951 295.703 28.2569L296.531 28.1494L297.246 28.0562C297.287 28.0512 297.329 28.0564 297.367 28.0714C297.406 28.0863 297.44 28.1106 297.467 28.142C297.494 28.1734 297.512 28.211 297.521 28.2513C297.53 28.2917 297.529 28.3337 297.517 28.3735M293.799 27.5498C293.298 27.6162 292.096 27.772 291.578 27.8398L290.989 27.9167C290.779 27.9487 290.48 28.0185 290.447 27.7141C290.443 27.5364 290.594 27.4471 290.757 27.4452L291.507 27.3496C291.963 27.2894 293.264 27.1212 293.738 27.0586C293.866 27.0429 294.167 27.0023 294.296 26.986C294.376 26.9642 294.46 26.9675 294.538 26.9956C294.579 27.0143 294.614 27.044 294.64 27.0813C294.665 27.1186 294.68 27.1621 294.682 27.2072C294.685 27.2522 294.675 27.2971 294.654 27.337C294.632 27.3768 294.601 27.4101 294.562 27.4332C294.31 27.4876 294.056 27.5272 293.799 27.5517M293.871 28.7461C293.879 28.8122 293.86 28.8786 293.82 28.9312C293.779 28.9839 293.72 29.0188 293.655 29.0285L292.897 29.1274L291.662 29.2879L291.165 29.3529L290.829 29.3964C290.817 29.3983 290.804 29.3993 290.792 29.3993C290.73 29.3973 290.671 29.3726 290.626 29.3298C290.581 29.287 290.553 29.2291 290.547 29.1671C290.544 29.1044 290.563 29.0426 290.603 28.9939C290.643 28.9453 290.699 28.9133 290.761 28.9043L291.596 28.7958L292.836 28.6343L293.591 28.5359C293.655 28.529 293.72 28.5468 293.772 28.5857C293.824 28.6247 293.86 28.682 293.871 28.7461ZM297.16 22.7218L294.89 23.0181L294.255 23.1012C294.201 23.1194 294.144 23.1211 294.089 23.1061C294.035 23.0911 293.987 23.0601 293.95 23.0171C293.924 22.9827 293.907 22.942 293.901 22.899C293.895 22.856 293.9 22.8122 293.917 22.772C293.933 22.7318 293.959 22.6965 293.993 22.6697C294.027 22.6429 294.068 22.6255 294.111 22.6191L294.133 22.6163L294.825 22.526L298.54 22.0453C298.604 22.0393 298.667 22.0579 298.717 22.0973C298.767 22.1367 298.8 22.1939 298.809 22.257C298.818 22.3201 298.803 22.3843 298.766 22.4364C298.729 22.4884 298.674 22.5242 298.611 22.5365H298.604L298.426 22.5599L297.164 22.7242M297.714 23.8642C297.721 23.9302 297.703 23.9967 297.663 24.0494C297.622 24.1021 297.563 24.137 297.497 24.1466L296.849 24.2316L295.415 24.4194L294.207 24.5771C294.155 24.5821 294.103 24.5709 294.058 24.5449C294.013 24.519 293.977 24.4795 293.956 24.4322C293.934 24.3848 293.928 24.3319 293.938 24.2807C293.948 24.2296 293.973 24.1829 294.011 24.1471C294.08 24.0558 294.42 24.0582 294.519 24.0338L294.884 23.986L296.788 23.7381L297.433 23.654C297.498 23.6469 297.563 23.6647 297.615 23.7037C297.667 23.7427 297.702 23.8001 297.714 23.8642ZM294.416 25.5111C294.481 25.5044 294.545 25.5231 294.596 25.5633C294.646 25.6035 294.679 25.6619 294.688 25.7262C294.696 25.7905 294.679 25.8554 294.64 25.9073C294.601 25.9591 294.544 25.9937 294.48 26.0037L291.746 26.3596C291.699 26.3649 291.651 26.3565 291.609 26.3353C291.566 26.3141 291.53 26.2811 291.506 26.2402C291.481 26.1992 291.469 26.1521 291.471 26.1045C291.472 26.0568 291.487 26.0105 291.514 25.9712C291.534 25.9436 291.559 25.9201 291.588 25.9022C291.617 25.8843 291.649 25.8724 291.683 25.8671L292.522 25.7581L294.416 25.5111ZM293.553 24.4122C293.56 24.4779 293.541 24.5436 293.501 24.5957C293.461 24.6478 293.402 24.6824 293.337 24.6922L292.591 24.7878L291.905 24.8771C291.548 24.9153 290.815 25.0362 290.454 25.0567C290.402 25.0508 290.354 25.0286 290.315 24.9934C290.277 24.9582 290.25 24.9118 290.24 24.8607C290.229 24.8097 290.235 24.7566 290.256 24.709C290.278 24.6614 290.313 24.6218 290.358 24.5957C290.522 24.5336 291.104 24.4911 291.289 24.4567L292.528 24.2952L293.19 24.2087C293.227 24.1955 293.266 24.1904 293.305 24.1936C293.344 24.1969 293.382 24.2085 293.417 24.2276C293.451 24.2467 293.481 24.273 293.504 24.3045C293.527 24.3361 293.544 24.3724 293.552 24.4108M293.279 23.2292L290.206 23.6291C290.141 23.6376 290.075 23.6197 290.023 23.5795C289.971 23.5394 289.938 23.4801 289.929 23.4149C289.921 23.3496 289.939 23.2837 289.979 23.2316C290.019 23.1795 290.078 23.1455 290.143 23.137L290.939 23.0329C291.424 22.9708 292.751 22.794 293.215 22.7362C293.278 22.7329 293.339 22.7534 293.387 22.7936C293.435 22.8338 293.466 22.8907 293.475 22.9529C293.483 23.0151 293.467 23.0781 293.431 23.1294C293.395 23.1806 293.341 23.2163 293.279 23.2292ZM287.955 26.4843C288.002 26.3128 288.254 26.3171 288.395 26.2966L288.615 26.2674L289.521 26.1494C289.865 26.1102 290.592 25.998 290.941 25.9703C290.994 25.9706 291.047 25.9885 291.089 26.0212C291.132 26.0539 291.162 26.0997 291.177 26.1515C291.191 26.2033 291.188 26.2584 291.168 26.3083C291.148 26.3582 291.112 26.4002 291.066 26.428C291.013 26.4517 290.956 26.4659 290.898 26.47L289.329 26.6755L288.463 26.7882C288.452 26.7882 288.185 26.8288 288.177 26.8231C288.138 26.8219 288.099 26.8111 288.064 26.7917C288.03 26.7723 288 26.7447 287.979 26.7115C287.957 26.6782 287.944 26.6402 287.94 26.6006C287.936 26.5611 287.942 26.5212 287.956 26.4843M288.177 27.8876C288.242 27.7481 288.47 27.7538 288.598 27.7333L288.829 27.7032L289.909 27.5598C289.961 27.5531 290.014 27.5634 290.06 27.5892C290.106 27.6149 290.143 27.6548 290.164 27.7029C290.186 27.751 290.192 27.8048 290.181 27.8564C290.17 27.9081 290.143 27.9548 290.103 27.9898C290.035 28.0763 289.727 28.0739 289.63 28.0968L288.688 28.2201C288.573 28.2431 288.456 28.2525 288.339 28.2483C288.301 28.2412 288.265 28.2249 288.234 28.2007C288.203 28.1766 288.179 28.1452 288.163 28.1095C288.147 28.0738 288.14 28.0347 288.142 27.9956C288.145 27.9565 288.157 27.9186 288.177 27.8852M288.329 29.3911C288.363 29.2148 288.542 29.191 288.694 29.1785L289.039 29.1308L289.989 29.0046C290.054 28.9979 290.118 29.0166 290.169 29.0568C290.22 29.097 290.253 29.1554 290.261 29.2197C290.269 29.284 290.252 29.349 290.213 29.4008C290.175 29.4527 290.117 29.4872 290.053 29.4972L289.214 29.6066C289.146 29.6167 288.84 29.6544 288.765 29.6654C288.742 29.6654 288.584 29.6926 288.562 29.6893C288.526 29.6884 288.49 29.6795 288.458 29.6631C288.425 29.6467 288.397 29.6234 288.375 29.5947C288.352 29.566 288.337 29.5326 288.329 29.4971C288.321 29.4616 288.321 29.4247 288.329 29.3892M288.532 30.8226C288.566 30.6501 288.734 30.6205 288.884 30.61L289.25 30.5622L290.17 30.4423C290.234 30.4355 290.298 30.4542 290.349 30.4944C290.4 30.5346 290.433 30.5931 290.441 30.6573C290.45 30.7216 290.432 30.7866 290.394 30.8384C290.355 30.8903 290.297 30.9249 290.234 30.9348L289.357 31.049C289.23 31.0653 288.924 31.1059 288.799 31.1221C288.76 31.1267 288.721 31.1217 288.684 31.1078C288.647 31.0938 288.615 31.0712 288.588 31.0419C288.562 31.0126 288.544 30.9774 288.534 30.9393C288.524 30.9013 288.523 30.8609 288.532 30.8226ZM288.762 32.2506C288.792 32.0743 289.005 32.0552 289.151 32.0419L289.767 31.9616L291.363 31.7533C291.428 31.7461 291.492 31.7646 291.544 31.8047C291.595 31.8448 291.628 31.9034 291.636 31.9679C291.645 32.0324 291.628 32.0977 291.589 32.1496C291.55 32.2016 291.492 32.2362 291.428 32.2459C291.132 32.2831 290.433 32.3758 290.148 32.4126L289.226 32.5325C289.207 32.5325 289.016 32.5626 288.998 32.5607C288.961 32.5591 288.925 32.5493 288.892 32.532C288.859 32.5148 288.83 32.4905 288.808 32.4609C288.785 32.4314 288.769 32.3972 288.762 32.3609C288.754 32.3245 288.754 32.2869 288.762 32.2506ZM290.972 30.8379C290.908 30.8442 290.844 30.8253 290.793 30.7851C290.743 30.7448 290.71 30.6865 290.702 30.6224C290.693 30.5583 290.71 30.4935 290.749 30.4418C290.788 30.3901 290.845 30.3554 290.908 30.3453L294.34 29.8971C294.405 29.8899 294.47 29.9084 294.521 29.9485C294.572 29.9887 294.605 30.0473 294.614 30.1118C294.622 30.1763 294.605 30.2415 294.566 30.2935C294.527 30.3454 294.469 30.38 294.405 30.3897C293.967 30.4475 292.81 30.5975 292.355 30.6573C292.044 30.6983 291.291 30.7958 290.973 30.8379M291.913 31.8522C291.922 31.8011 291.948 31.7543 291.985 31.7184C292.023 31.6825 292.071 31.6593 292.122 31.652L292.977 31.5407C293.604 31.4594 294.737 31.3104 295.353 31.2306C295.417 31.2239 295.482 31.2426 295.532 31.2828C295.583 31.3229 295.616 31.3814 295.624 31.4457C295.633 31.5099 295.616 31.5749 295.577 31.6268C295.538 31.6786 295.481 31.7132 295.417 31.7232L294.747 31.8106L293.041 32.0333L292.186 32.1451C292.147 32.1494 292.108 32.1446 292.072 32.1312C292.035 32.1177 292.003 32.0958 291.976 32.0674C291.949 32.0389 291.93 32.0046 291.919 31.9673C291.908 31.9299 291.906 31.8905 291.913 31.8522ZM295.549 30.2416C295.462 30.2473 295.268 30.2989 295.186 30.2516C295.145 30.2328 295.11 30.2034 295.085 30.1664C295.059 30.1294 295.044 30.0861 295.041 30.0413C295.038 29.9964 295.047 29.9515 295.067 29.9113C295.088 29.8712 295.118 29.8372 295.156 29.813C295.212 29.7652 295.414 29.7619 295.484 29.7471C295.575 29.7366 295.865 29.6964 295.952 29.6859C296.112 29.6711 296.467 29.6081 296.623 29.6047C296.672 29.6061 296.72 29.6224 296.76 29.6513C296.8 29.6803 296.83 29.7207 296.847 29.7671C296.863 29.8136 296.865 29.864 296.853 29.9117C296.84 29.9595 296.814 30.0023 296.777 30.0347C296.718 30.1069 296.513 30.1069 296.43 30.1231L295.549 30.2392M296.089 31.3089C296.119 31.1002 296.343 31.0973 296.507 31.0782C296.781 31.0419 297.3 30.975 297.578 30.9387C297.663 30.9131 297.756 30.9216 297.835 30.9626C297.877 30.9893 297.911 31.0284 297.931 31.0747C297.951 31.1209 297.956 31.1721 297.946 31.2215C297.936 31.2709 297.912 31.3161 297.876 31.3511C297.84 31.3862 297.794 31.4095 297.744 31.4179C297.659 31.4293 296.982 31.5168 296.914 31.5259L296.362 31.5975C296.35 31.5994 296.337 31.5994 296.325 31.5975C296.289 31.5964 296.255 31.5877 296.223 31.572C296.191 31.5562 296.163 31.5339 296.141 31.5064C296.119 31.4789 296.103 31.4469 296.094 31.4126C296.085 31.3783 296.083 31.3424 296.089 31.3075M298.568 26.835C298.508 26.9397 298.358 26.953 298.25 26.964L297.605 27.0481L295.421 27.3348C295.369 27.3401 295.316 27.3286 295.27 27.3019C295.225 27.2753 295.189 27.235 295.168 27.1866C295.147 27.1383 295.141 27.0845 295.153 27.0329C295.164 26.9813 295.191 26.9346 295.23 26.8995C295.297 26.815 295.639 26.814 295.735 26.7906C295.882 26.772 297.355 26.5794 297.546 26.5551L298.331 26.4528C298.377 26.4475 298.425 26.4556 298.467 26.4761C298.509 26.4966 298.545 26.5287 298.57 26.5687C298.595 26.6087 298.608 26.6549 298.608 26.702C298.608 26.7491 298.594 26.7952 298.569 26.835M297.976 25.5398C297.385 25.6157 295.875 25.814 295.306 25.8876C295.242 25.8943 295.177 25.8756 295.127 25.8354C295.076 25.7953 295.043 25.7368 295.035 25.6725C295.026 25.6083 295.043 25.5433 295.082 25.4914C295.121 25.4396 295.178 25.405 295.242 25.395L298.698 24.9449C298.754 24.9377 298.811 24.9503 298.86 24.9805C298.908 25.0107 298.945 25.0566 298.963 25.1106C298.982 25.1647 298.981 25.2234 298.962 25.2771C298.942 25.3307 298.904 25.3759 298.855 25.405C298.565 25.4649 298.272 25.5098 297.977 25.5398M298.948 26.5589C298.955 26.5045 298.979 26.4538 299.017 26.4147C299.055 26.3756 299.105 26.3504 299.16 26.3429L299.948 26.2412C299.948 26.2445 300.458 26.1704 300.472 26.1747C300.227 26.3659 299.991 26.5723 299.749 26.7681L299.485 26.803C299.465 26.803 299.205 26.8432 299.192 26.8369C299.158 26.8365 299.123 26.8288 299.092 26.8142C299.06 26.7996 299.032 26.7785 299.009 26.7522C298.986 26.726 298.969 26.6952 298.959 26.6619C298.949 26.6286 298.946 26.5935 298.95 26.5589M300.375 25.2268L300.311 25.2354L299.596 25.3286C299.561 25.3322 299.525 25.3285 299.492 25.3177C299.459 25.307 299.428 25.2895 299.401 25.2663C299.375 25.243 299.354 25.2146 299.339 25.1828C299.324 25.1509 299.315 25.1163 299.314 25.0811C299.316 25.021 299.339 24.9634 299.379 24.9182C299.418 24.873 299.473 24.8431 299.532 24.8336L300.313 24.7319C301.031 24.6406 302.878 24.3936 303.551 24.3119C303.11 24.5121 302.682 24.7419 302.26 24.9808L300.374 25.2268M299.157 22.181C299.159 22.1208 299.181 22.0632 299.221 22.018C299.261 21.9728 299.315 21.9429 299.374 21.9335L300.141 21.8337L305.494 21.1371C305.559 21.1307 305.623 21.1496 305.673 21.1899C305.724 21.2301 305.756 21.2884 305.765 21.3525C305.773 21.4166 305.756 21.4814 305.717 21.5331C305.679 21.5849 305.622 21.6195 305.558 21.6296L305.14 21.6841L300.212 22.3253L299.439 22.4261C299.404 22.4305 299.368 22.4274 299.335 22.4171C299.301 22.4069 299.27 22.3896 299.243 22.3665C299.217 22.3434 299.195 22.315 299.18 22.283C299.165 22.251 299.157 22.2163 299.157 22.181ZM313.532 41.6266L297.56 44.2161L296.366 44.4072L288.034 36.1894V35.5091C289.789 35.2965 300.824 33.9281 302.836 33.6825C303.165 33.6348 303.965 33.5502 304.302 33.5015C304.827 33.6883 305.364 33.909 305.898 34.0719L305.116 34.1675L305.068 34.1732C304.222 34.3414 292.076 35.6261 290.928 35.9663C290.891 36.0151 290.872 36.076 290.876 36.1375C290.88 36.199 290.906 36.2571 290.949 36.3008L294.827 40.0494C294.922 40.1679 295.146 40.0972 295.271 40.0838L300.758 39.3165L310.733 37.9223L310.846 37.9066L311.022 37.8822C311.023 38.0053 311.053 38.1266 311.108 38.2366C311.163 38.3466 311.243 38.4424 311.341 38.5167C312.185 39.1217 312.914 39.8749 313.491 40.7398C313.253 40.7833 311.434 41.0585 311.144 41.1086L297.841 43.2013L297.169 43.3069C297.106 43.3188 297.05 43.355 297.013 43.4077C296.975 43.4605 296.96 43.5257 296.97 43.5896C296.98 43.6534 297.015 43.7108 297.066 43.7497C297.118 43.7885 297.182 43.8057 297.246 43.7976C301.886 43.0651 308.706 41.9949 313.336 41.2654L313.765 41.1975C313.808 41.2754 313.849 41.3518 313.888 41.4288C313.91 41.4765 313.93 41.5181 313.951 41.5625L313.532 41.6266ZM302.775 36.0127C302.772 36.5177 303.278 36.7293 303.67 36.9042C305.399 37.6864 307.362 37.772 309.152 37.1431C309.203 37.3037 309.267 37.46 309.343 37.6104C309.191 37.628 308.92 37.672 308.774 37.6897C304.735 38.2549 299.145 39.0332 295.082 39.6008C294.277 38.821 292.46 37.0686 291.666 36.3012L304.038 34.7962L305.049 34.673C304.595 34.9697 304.083 35.1653 303.547 35.2463C303.446 35.2435 303.345 35.2613 303.251 35.2984C303.157 35.3355 303.071 35.3913 302.999 35.4624C302.927 35.5335 302.87 35.6185 302.831 35.7122C302.792 35.8059 302.773 35.9065 302.774 36.0079M310.078 36.0418C310.186 35.9381 310.291 35.8278 310.391 35.725C310.528 35.8029 310.653 35.8975 310.785 35.9811L310.776 35.9912C310.542 36.2272 310.289 36.4928 310.061 36.7413C310.04 36.6835 310.008 36.5951 309.987 36.5373C309.962 36.4661 309.888 36.2721 309.864 36.2028C309.938 36.1526 310.011 36.0986 310.08 36.0409M311.072 37.1125C311.137 37.0437 311.202 36.9773 311.263 36.9147L311.277 36.9262L311.441 37.0614C311.407 37.1092 311.283 37.2864 311.247 37.3395L310.799 37.402C310.888 37.3065 310.983 37.2081 311.071 37.1125M315.303 42.3394C314.804 40.6623 313.8 39.1812 312.428 38.0991C312.323 38.0074 312.223 37.9166 312.11 37.8335L312.199 37.7045L312.202 37.7002C312.213 37.671 312.38 37.4517 312.389 37.4293L312.487 37.2883C312.527 37.3251 312.566 37.3619 312.608 37.3987C314.163 38.8923 315.371 40.7112 316.146 42.7259C316.209 42.885 316.265 43.0393 316.322 43.1941L315.981 43.2811C315.647 43.0629 315.405 42.7282 315.303 42.3418M320.886 44.8788C320.585 47.9676 318.919 51.4358 316.634 53.4372C316.539 51.6556 316.661 47.9657 316.663 47.9246C316.663 47.9031 316.648 47.8859 316.643 47.8659C316.619 47.6714 316.412 47.6317 316.257 47.7058C314.416 48.2941 312.533 48.743 310.625 49.0488C312.421 47.264 314.527 45.8229 316.839 44.7966C316.899 45.0097 316.953 45.2022 317.001 45.4058C316.983 45.3987 316.964 45.3958 316.946 45.3974C316.927 45.399 316.909 45.405 316.893 45.4149C315.884 46.089 314.809 46.6848 313.772 47.2901C313.759 47.3126 313.754 47.3386 313.757 47.3642C313.76 47.3899 313.771 47.4139 313.789 47.4327C313.806 47.4516 313.829 47.4644 313.855 47.4691C313.88 47.4739 313.906 47.4704 313.93 47.4593C314.824 47.0035 315.679 46.4784 316.526 45.9414C316.708 45.8363 316.883 45.72 317.051 45.5931C317.098 45.777 317.142 45.9629 317.185 46.143C317.032 46.3188 316.844 46.5329 316.691 46.7092C316.677 46.7287 316.453 46.9686 316.465 46.9925C316.418 47.0699 316.491 47.1549 316.571 47.1602C316.651 47.1654 316.734 47.0297 316.783 46.9829C316.904 46.8396 317.132 46.583 317.256 46.4387C317.367 46.9686 317.511 47.5997 318.176 47.5911C318.263 47.5834 318.351 47.5697 318.436 47.55C318.229 47.9158 317.946 48.2335 317.607 48.4822C317.589 48.5026 317.577 48.528 317.574 48.5551C317.57 48.5822 317.575 48.6098 317.587 48.6341C317.607 48.6602 317.635 48.678 317.667 48.6841C317.699 48.6902 317.732 48.6842 317.76 48.6671C317.993 48.4923 318.206 48.2922 318.394 48.0703C318.553 47.8594 318.685 47.6298 318.787 47.3866C318.998 47.2454 319.19 47.0787 319.359 46.8902C319.532 46.6752 319.458 46.831 319.407 46.9992C319.001 48.2193 318.417 49.3722 317.673 50.4201C317.658 50.4416 317.651 50.4672 317.652 50.4933C317.652 50.5193 317.661 50.5444 317.677 50.5651C317.693 50.5857 317.715 50.6008 317.74 50.6083C317.765 50.6157 317.791 50.615 317.816 50.6064C318.751 49.3549 319.436 47.9347 319.835 46.4234C320.083 45.9175 320.613 45.4149 320.884 44.8821M322.469 37.0256C322.483 39.4689 321.905 41.879 320.784 44.0489C320.3 44.9667 319.695 45.8149 318.985 46.5706C318.727 46.8319 318.326 47.2768 317.941 47.0211C317.806 46.6428 317.699 46.2551 317.62 45.8611C316.74 41.8191 314.665 37.8535 311.094 35.596C310.955 35.5057 310.817 35.4083 310.675 35.3213C310.718 35.2348 310.76 35.1469 310.798 35.0571C311.299 33.9214 311.266 32.6295 311.643 31.4513C311.653 31.4203 311.658 31.3876 311.655 31.3549C311.653 31.3223 311.645 31.2904 311.63 31.2611C311.616 31.2318 311.596 31.2057 311.571 31.1842C311.546 31.1626 311.518 31.1462 311.487 31.1357C311.456 31.1253 311.423 31.1211 311.391 31.1233C311.358 31.1255 311.326 31.1341 311.297 31.1486C311.268 31.1632 311.242 31.1833 311.22 31.208C311.199 31.2326 311.182 31.2612 311.172 31.2922C310.736 32.588 310.862 34.0098 310.167 35.1909C309.757 35.7614 309.153 36.1622 308.469 36.3184C307.325 36.6384 306.116 36.6409 304.972 36.3256C305.799 36.4376 306.64 36.3647 307.435 36.112C308.23 35.8959 308.937 35.4359 309.457 34.7967C309.977 34.1575 310.285 33.3711 310.337 32.5478C310.301 32.3371 310.051 32.4045 310.082 32.6434C309.999 34.4828 308.307 35.8622 306.56 36.0609C306.025 36.1229 305.484 36.1265 304.947 36.0719C306.192 36.048 307.287 35.3524 308.183 34.5387C308.425 34.3256 308.657 34.1125 308.892 33.8899C308.946 33.8206 308.928 33.6873 308.823 33.6911C308.799 33.6898 308.775 33.6933 308.753 33.7015C308.73 33.7097 308.71 33.7225 308.692 33.7389C308.233 34.1915 307.742 34.6109 307.223 34.994C306.575 35.4878 305.795 35.7763 304.983 35.8225C306.227 35.1695 307.366 34.331 308.36 33.3357C308.603 33.0848 310.402 31.2659 309.341 31.3519C309.142 31.4766 309.095 31.7571 308.934 31.9277C308.477 32.5329 307.956 33.0859 307.379 33.5765C306.95 33.3801 306.505 33.2057 306.066 33.0275C304.342 32.3619 302.548 31.8941 300.719 31.6329C300.38 31.5808 299.992 31.5469 299.684 31.4895C300.086 31.2525 300.51 31.0543 300.949 30.8976C301.085 30.8637 301.209 30.7719 301.344 30.8603C301.452 30.9156 301.57 30.9481 301.691 30.9559C301.742 30.9492 301.79 30.9263 301.827 30.8905C301.865 30.8548 301.89 30.808 301.899 30.7569C301.909 30.7059 301.901 30.6532 301.879 30.6065C301.856 30.5598 301.819 30.5215 301.774 30.4972C301.714 30.467 301.653 30.4416 301.59 30.4212C300.612 30.0691 299.577 29.9033 298.539 29.9325C300.116 26.9148 303.931 24.8379 307.181 24.1991C314.955 22.8308 322.809 28.9086 322.469 37.0256ZM300.209 30.5564C300.264 30.5665 300.315 30.5722 300.371 30.5808C300.362 30.5898 300.35 30.5955 300.337 30.5971C300.324 30.5988 300.311 30.5962 300.3 30.5899C300.269 30.5803 300.239 30.5684 300.209 30.5564ZM324.07 37.9572C324.048 38.4199 323.906 38.8687 323.657 39.2592C323.409 39.6497 323.063 39.9683 322.654 40.1832C322.746 39.7336 322.807 39.2807 322.856 38.821L323.285 38.7255C323.309 38.7193 323.33 38.7062 323.346 38.6879C323.363 38.6696 323.373 38.6469 323.376 38.6227C323.38 38.5984 323.376 38.5737 323.365 38.5516C323.355 38.5295 323.338 38.5111 323.317 38.4985C323.265 38.457 322.952 38.5525 322.888 38.5626C322.898 38.4489 322.909 38.3347 322.914 38.2214L323.353 38.1221C323.384 38.1127 323.411 38.0925 323.428 38.0652C323.446 38.0378 323.453 38.0051 323.449 37.973C323.418 37.9195 323.37 37.8631 323.301 37.8803C323.301 37.8765 322.919 37.9759 322.927 37.9606C322.934 37.8392 322.936 37.7188 322.943 37.597L323.336 37.5086C323.368 37.5011 323.396 37.481 323.414 37.4527C323.431 37.4245 323.437 37.3905 323.43 37.3581C323.422 37.3257 323.402 37.2977 323.374 37.2801C323.346 37.2625 323.312 37.2569 323.279 37.2644L322.952 37.338C322.952 37.2348 322.964 37.1335 322.965 37.0289C322.961 37.0289 323.375 36.9333 323.376 36.9333C323.407 36.9252 323.433 36.9052 323.45 36.8777C323.467 36.8502 323.472 36.8173 323.465 36.786C323.458 36.7546 323.439 36.7272 323.412 36.7095C323.385 36.6918 323.353 36.6852 323.321 36.6911L322.959 36.7733C322.959 36.6381 322.955 36.5019 322.95 36.3672L323.236 36.3027C323.253 36.2982 323.269 36.2897 323.283 36.278C323.297 36.2662 323.308 36.2515 323.316 36.2348C323.326 36.2138 323.33 36.1903 323.327 36.1671C323.325 36.1439 323.316 36.1218 323.301 36.1035C323.287 36.0852 323.267 36.0714 323.245 36.0636C323.223 36.0558 323.2 36.0544 323.177 36.0595L322.939 36.113C322.934 35.9697 322.919 35.8263 322.915 35.6859L323.201 35.6204C323.27 35.6032 323.329 35.4971 323.274 35.4417C323.222 35.3099 322.98 35.4298 322.889 35.4369C322.879 35.2936 322.862 35.1393 322.852 35.0003C322.878 34.9902 323.144 34.9467 323.149 34.9166C323.171 34.9049 323.188 34.8865 323.198 34.8641C323.208 34.8418 323.211 34.8167 323.205 34.7928C323.2 34.7688 323.187 34.7473 323.168 34.7314C323.149 34.7156 323.126 34.7063 323.102 34.705C323.079 34.6754 322.851 34.7528 322.821 34.7528C322.804 34.6032 322.773 34.447 322.755 34.3013C322.777 34.3013 323.027 34.2368 323.041 34.2368C323.073 34.227 323.1 34.205 323.117 34.1755C323.133 34.1459 323.137 34.1112 323.128 34.0786C323.081 33.9152 322.85 34.0409 322.712 34.0576C322.685 33.9104 322.647 33.758 322.62 33.6152C322.691 33.5942 322.879 33.5822 322.913 33.501C322.949 33.4437 322.913 33.3854 322.872 33.3428C322.842 33.331 322.81 33.3254 322.777 33.3266L322.557 33.3744C322.513 33.1876 322.453 32.9993 322.404 32.8187L322.646 32.7643C322.656 32.7643 322.66 32.7528 322.668 32.7485C322.693 32.7377 322.714 32.7184 322.726 32.6939C322.739 32.6694 322.742 32.6413 322.736 32.6146C322.73 32.5879 322.714 32.5642 322.692 32.5478C322.67 32.5314 322.643 32.5233 322.616 32.5249C322.518 32.5362 322.42 32.5551 322.325 32.5813C322.277 32.4269 322.214 32.2693 322.165 32.1207C322.213 32.1059 322.471 32.0729 322.497 32.018C322.512 32.0044 322.523 31.9871 322.529 31.9677C322.535 31.9483 322.535 31.9277 322.53 31.908C322.525 31.8883 322.515 31.8704 322.501 31.8561C322.487 31.8418 322.469 31.8317 322.449 31.8269C322.408 31.7882 322.118 31.8847 322.068 31.8871C322 31.7141 321.919 31.5383 321.849 31.3711L322.197 31.2927C322.255 31.2726 322.311 31.1876 322.285 31.1326C322.256 31.0371 322.147 31.0414 322.069 31.0681L321.742 31.1412C321.66 30.9649 321.561 30.7886 321.477 30.6157L321.898 30.4676C322.008 30.4384 322.053 30.4036 322.048 30.2841C322.039 30.265 322.025 30.2481 322.008 30.2347C321.992 30.2212 321.973 30.2116 321.952 30.2063C321.931 30.2011 321.91 30.2003 321.889 30.2042C321.868 30.2081 321.848 30.2164 321.83 30.2287L321.354 30.3964C321.258 30.2273 321.159 30.0602 321.057 29.8952C321.248 29.8345 321.659 29.6749 321.845 29.6133C321.872 29.5981 321.894 29.5747 321.907 29.5463C321.921 29.518 321.925 29.4861 321.92 29.4552C321.896 29.3868 321.822 29.3816 321.762 29.3806C321.531 29.4628 321.147 29.6004 320.917 29.684C320.812 29.5249 320.704 29.3673 320.592 29.2125L321.074 29.0309C321.229 28.9831 321.567 28.8398 321.719 28.7872C321.748 28.7745 321.771 28.751 321.783 28.7217C321.796 28.6924 321.796 28.6594 321.785 28.6296C321.774 28.5998 321.752 28.5755 321.723 28.5616C321.695 28.5477 321.662 28.5454 321.632 28.555C321.282 28.6845 320.789 28.8737 320.44 29.0051C320.311 28.8344 320.177 28.6662 320.04 28.5006C320.126 28.4628 320.425 28.3381 320.517 28.298C320.747 28.1929 321.273 27.9817 321.508 27.8766C321.539 27.8584 321.564 27.8304 321.579 27.7968C321.581 27.7662 321.599 27.7318 321.574 27.7079C321.559 27.6794 321.534 27.6574 321.504 27.6464C321.474 27.6353 321.441 27.636 321.411 27.6482C321.167 27.7657 320.593 27.9865 320.354 28.0988L319.877 28.3018C319.73 28.1403 319.586 27.9745 319.434 27.8169C319.4 27.7796 319.36 27.7457 319.327 27.7089L319.817 27.5001C320.084 27.385 320.984 27.0027 321.266 26.8819C321.281 26.8756 321.295 26.8662 321.307 26.8543C321.318 26.8424 321.327 26.8282 321.333 26.8126C321.339 26.7971 321.342 26.7804 321.341 26.7638C321.34 26.7472 321.336 26.731 321.328 26.7161C321.315 26.687 321.291 26.6642 321.262 26.6525C321.232 26.6408 321.199 26.6412 321.17 26.6535L320.046 27.1356C319.823 27.2278 319.366 27.4265 319.14 27.5202C318.958 27.342 318.771 27.1628 318.576 26.9989C318.467 26.9034 318.349 26.8078 318.242 26.7122C318.41 26.6301 318.571 26.5479 318.737 26.4734C319.714 25.9915 320.769 25.6868 321.853 25.5732C322.083 26.9984 322.25 28.3482 322.508 29.7485C322.814 31.373 323.266 32.9721 323.593 34.5898C323.795 35.7007 324.143 36.8158 324.07 37.9534" fill="#236B9B"/>
<path d="M305.472 27.8661C305.36 27.573 305.18 27.3105 304.948 27.1C304.716 26.8896 304.437 26.7371 304.135 26.655C303.832 26.5728 303.515 26.5634 303.209 26.6275C302.902 26.6915 302.615 26.8272 302.371 27.0235C302.126 27.2199 301.932 27.4712 301.803 27.7572C301.673 28.0432 301.614 28.3556 301.628 28.6692C301.642 28.9827 301.73 29.2885 301.884 29.5616C302.039 29.8346 302.255 30.0673 302.516 30.2406C304.093 31.3467 306.168 29.6286 305.472 27.8661ZM302.437 27.9263C302.442 27.8461 302.466 27.7683 302.507 27.699C302.548 27.6297 302.604 27.5708 302.671 27.5268C302.732 27.4895 302.801 27.4665 302.872 27.4595C302.943 27.4525 303.015 27.4617 303.083 27.4864C303.15 27.5112 303.211 27.5508 303.261 27.6024C303.311 27.654 303.348 27.7162 303.371 27.7844C303.392 27.8564 303.397 27.9323 303.384 28.0064C303.372 28.0805 303.343 28.1507 303.299 28.2118C303.256 28.2729 303.199 28.3232 303.133 28.3589C303.067 28.3947 302.994 28.4148 302.919 28.4179C302.793 28.408 302.675 28.3528 302.586 28.2625C302.497 28.1721 302.444 28.0527 302.437 27.9263ZM305.102 28.6807C305.074 29.0427 304.917 29.3826 304.659 29.6376C304.402 29.8926 304.061 30.0456 303.699 30.0682C303.338 30.0909 302.98 29.9817 302.693 29.7608C302.405 29.54 302.207 29.2223 302.135 28.8665C302.117 28.7232 302.12 28.7347 302.183 28.8522C302.277 29.0053 302.403 29.1357 302.553 29.2342C302.703 29.3326 302.873 29.3968 303.051 29.4221C303.228 29.4473 303.409 29.4331 303.581 29.3803C303.752 29.3275 303.91 29.2376 304.043 29.1168C304.176 28.996 304.28 28.8474 304.349 28.6815C304.418 28.5156 304.45 28.3365 304.442 28.1569C304.435 27.9773 304.387 27.8016 304.304 27.6423C304.221 27.4831 304.104 27.3441 303.961 27.2354C303.884 27.1741 303.799 27.1234 303.708 27.0849C303.847 27.0934 303.983 27.1214 304.114 27.168C304.418 27.2813 304.678 27.4892 304.856 27.7614C305.034 28.0335 305.121 28.3557 305.103 28.6807" fill="#236B9B"/>
<path d="M309.053 28.1322C308.811 27.4189 308.35 26.8003 307.737 26.3644C307.499 26.2211 307.188 25.8556 306.965 26.1489C306.931 26.207 306.921 26.2764 306.937 26.3422C306.953 26.4079 306.994 26.4646 307.051 26.5001C309.515 27.9951 308.906 30.3099 306.631 31.5994C306.594 31.6208 306.563 31.651 306.541 31.6873C306.519 31.7237 306.507 31.7649 306.505 31.8074C306.503 31.8499 306.511 31.8922 306.53 31.9305C306.548 31.9687 306.576 32.0018 306.61 32.0266C306.646 32.0509 306.688 32.065 306.732 32.0676C306.775 32.0701 306.819 32.0609 306.857 32.0409C307.221 31.8343 307.562 31.5911 307.877 31.3152C308.753 30.5507 309.42 29.3104 309.053 28.1322Z" fill="#236B9B"/>
<path d="M311.569 28.2961C311.304 27.9084 311.016 27.5369 310.707 27.1833C310.677 27.1528 310.638 27.133 310.596 27.1271C310.554 27.1212 310.511 27.1296 310.475 27.1508C310.452 27.1651 310.432 27.1842 310.417 27.2067C310.402 27.2292 310.392 27.2547 310.387 27.2815C310.383 27.3082 310.384 27.3356 310.391 27.3619C310.398 27.3881 310.41 27.4126 310.427 27.4337C310.678 27.7299 310.918 28.0276 311.146 28.3381C310.926 28.4595 310.713 28.5961 310.497 28.727C310.354 28.8331 310.046 28.9396 310.177 29.1637C310.368 29.3921 310.658 29.0256 310.851 28.9416C311.057 28.771 311.484 28.6549 311.598 28.4509C311.604 28.424 311.604 28.3962 311.599 28.3691C311.593 28.3421 311.583 28.3164 311.567 28.2937" fill="#236B9B"/>
<path d="M313.264 29.1288C313.282 29.1043 313.293 29.0754 313.296 29.0451C313.299 29.0148 313.295 28.9842 313.282 28.9564C313.092 28.5217 312.875 28.099 312.633 27.6907C312.603 27.6595 312.563 27.6396 312.519 27.6343C312.476 27.6289 312.433 27.6386 312.396 27.6615C312.359 27.6845 312.331 27.7195 312.316 27.7606C312.302 27.8017 312.302 27.8465 312.316 27.8876C312.451 28.1174 312.575 28.3539 312.693 28.5933C312.746 28.6998 312.806 28.8025 312.856 28.9115C312.767 28.9392 312.687 28.9693 312.603 28.9989C312.45 29.0491 312.307 29.1159 312.16 29.1733C312.022 29.2449 311.826 29.2521 311.75 29.4007C311.737 29.4385 311.736 29.4795 311.748 29.5179C311.759 29.5563 311.782 29.5902 311.814 29.6147C311.845 29.6392 311.884 29.6531 311.924 29.6545C311.964 29.6559 312.003 29.6446 312.036 29.6224C312.4 29.4619 312.782 29.3319 313.162 29.2072C313.203 29.1929 313.238 29.1654 313.262 29.1288" fill="#236B9B"/>
<path d="M314.677 30.157C314.701 30.1528 314.724 30.1439 314.744 30.1308C314.765 30.1178 314.782 30.1008 314.796 30.0808C314.81 30.0609 314.82 30.0384 314.825 30.0146C314.83 29.9909 314.83 29.9664 314.826 29.9425C314.767 29.6223 314.686 29.3068 314.582 28.9984C314.508 28.8393 314.518 28.6047 314.366 28.4924C314.343 28.4793 314.318 28.4713 314.292 28.4691C314.265 28.4669 314.239 28.4704 314.214 28.4795C314.189 28.4886 314.167 28.5031 314.148 28.5218C314.13 28.5405 314.115 28.5631 314.106 28.588C314.095 28.621 314.091 28.6563 314.095 28.6912C314.224 29.0596 314.31 29.4322 314.416 29.8059C314.162 29.836 313.911 29.8751 313.654 29.9215C313.501 29.9693 313.245 29.931 313.206 30.1322C313.217 30.1628 313.191 30.1957 313.235 30.2435C313.258 30.3156 313.33 30.3309 313.391 30.3496C313.814 30.2688 314.249 30.1952 314.676 30.1546" fill="#236B9B"/>
<path d="M315.954 31.3849C315.98 31.3863 316.006 31.3825 316.031 31.3735C316.055 31.3646 316.077 31.3508 316.096 31.3329C316.115 31.3151 316.131 31.2935 316.141 31.2696C316.152 31.2457 316.157 31.2199 316.158 31.1938C316.145 30.7853 316.116 30.4174 316.066 30.0228C316.06 29.9397 316.049 29.857 316.033 29.7753C316.017 29.7346 315.989 29.7004 315.951 29.6787C315.914 29.657 315.87 29.649 315.827 29.6562C315.784 29.6634 315.745 29.6852 315.717 29.718C315.688 29.7508 315.672 29.7925 315.671 29.836C315.731 30.2191 315.764 30.6059 315.771 30.9936C315.38 30.9413 314.984 30.945 314.594 31.0046C314.557 31.0289 314.53 31.0657 314.517 31.1082C314.505 31.1507 314.508 31.1962 314.527 31.2365C314.545 31.2768 314.577 31.3093 314.617 31.3281C314.657 31.3469 314.702 31.3508 314.745 31.339C315.148 31.3341 315.552 31.35 315.954 31.3868" fill="#236B9B"/>
<path d="M317.204 32.7088C317.234 32.7096 317.263 32.7023 317.289 32.6878C317.316 32.6733 317.337 32.652 317.352 32.6262C317.394 32.2546 317.399 31.8799 317.369 31.5072C317.341 31.3314 317.444 31.0347 317.216 30.9726C317.191 30.9667 317.166 30.9661 317.141 30.9707C317.116 30.9754 317.092 30.9853 317.071 30.9998C317.051 31.0143 317.033 31.033 317.02 31.0547C317.007 31.0765 316.998 31.1007 316.995 31.126C316.985 31.5177 317.025 31.9281 317.014 32.3142C316.62 32.2543 316.221 32.2284 315.822 32.2368C315.787 32.2602 315.76 32.2949 315.746 32.3354C315.732 32.3759 315.733 32.4199 315.747 32.4603C315.761 32.5006 315.788 32.535 315.824 32.558C315.86 32.581 315.903 32.5912 315.945 32.587C316.366 32.6267 316.785 32.672 317.206 32.7088" fill="#236B9B"/>
<path d="M318.077 34.0987C318.626 34.3084 318.485 33.6954 318.553 33.3457C318.576 33.0901 318.588 32.834 318.601 32.577C318.601 32.5419 318.591 32.5075 318.572 32.4778C318.554 32.4481 318.527 32.4243 318.495 32.4093C318.464 32.3942 318.428 32.3886 318.394 32.3929C318.359 32.3972 318.326 32.4113 318.299 32.4336C318.278 32.4501 318.261 32.471 318.25 32.4948C318.238 32.5186 318.231 32.5447 318.23 32.5712C318.227 32.8345 318.208 33.0968 318.183 33.3586C318.171 33.4809 318.162 33.6042 318.145 33.7251H318.141L318.118 33.7193C317.777 33.6319 317.427 33.5707 317.081 33.5144C317.047 33.5146 317.013 33.5242 316.983 33.5421C316.954 33.5601 316.93 33.5857 316.914 33.6163C316.898 33.6469 316.89 33.6814 316.892 33.7159C316.894 33.7504 316.905 33.7838 316.924 33.8125C317.035 33.9343 317.236 33.8971 317.384 33.9448C317.616 33.9926 317.845 34.0442 318.077 34.0987Z" fill="#236B9B"/>
<path d="M318.974 35.7504C318.997 35.7629 319.022 35.7708 319.048 35.7736C319.074 35.7764 319.1 35.774 319.125 35.7666C319.351 35.6151 319.355 35.2597 319.465 35.0222C319.548 34.7821 319.617 34.5375 319.672 34.2898C319.682 34.2416 319.673 34.1916 319.646 34.1504C319.619 34.1092 319.577 34.0802 319.529 34.0695C319.495 34.0622 319.458 34.0653 319.425 34.0782C319.392 34.0912 319.363 34.1136 319.343 34.1426C319.211 34.5296 319.138 34.9439 318.977 35.3251C318.657 35.156 318.326 35.0107 317.986 34.8904C317.946 34.8728 317.901 34.8699 317.859 34.8823C317.817 34.8947 317.781 34.9215 317.757 34.958C317.732 34.9945 317.722 35.0384 317.727 35.082C317.732 35.1255 317.752 35.1659 317.783 35.1961C318.176 35.3758 318.594 35.5401 318.975 35.7504" fill="#236B9B"/>
<path d="M318.776 37.0571C319.01 37.2371 319.26 37.3951 319.522 37.5291C319.563 37.5293 319.603 37.5158 319.635 37.4909C319.896 37.0881 320.093 36.6285 320.318 36.2009C320.33 36.1578 320.326 36.1119 320.306 36.0715C320.287 36.0311 320.254 35.999 320.214 35.9809C320.173 35.9628 320.127 35.96 320.084 35.9729C320.041 35.9858 320.005 36.0137 319.981 36.0514C319.807 36.3892 319.635 36.7289 319.459 37.0652C319.16 36.8674 318.856 36.6553 318.554 36.4541C318.522 36.4393 318.486 36.4338 318.452 36.4382C318.417 36.4427 318.384 36.4569 318.357 36.4792C318.329 36.5016 318.309 36.5312 318.298 36.5646C318.287 36.598 318.285 36.6339 318.293 36.6682C318.372 36.8411 318.627 36.9305 318.775 37.0552" fill="#236B9B"/>
<path d="M319.132 38.7704C319.335 38.9352 319.537 39.09 319.74 39.2596C319.765 39.2827 319.796 39.298 319.829 39.3036C319.863 39.3092 319.897 39.3049 319.928 39.2912C320.156 39.0202 320.354 38.7251 320.518 38.4111C320.591 38.2439 320.766 38.0919 320.756 37.9032C320.75 37.8732 320.736 37.8453 320.716 37.8222C320.695 37.7991 320.67 37.7815 320.641 37.7712C320.612 37.7609 320.581 37.7581 320.551 37.7631C320.52 37.7682 320.492 37.7809 320.468 37.8C320.23 38.1173 320.044 38.5004 319.826 38.8406C319.568 38.6328 319.31 38.4426 319.052 38.2405C318.828 37.9887 318.515 38.2061 318.711 38.4488C318.854 38.5525 318.997 38.6624 319.136 38.769" fill="#236B9B"/>
<path d="M318.968 40.1579C319.277 40.4388 319.57 40.7479 319.865 41.047C319.883 41.0659 319.905 41.081 319.929 41.0914C319.953 41.1017 319.979 41.1071 320.005 41.1072C320.21 41.0685 320.295 40.8205 320.434 40.6853C320.624 40.4393 320.815 40.1894 320.999 39.9362C321.026 39.8968 321.037 39.8484 321.029 39.8011C321.022 39.7538 320.996 39.7113 320.958 39.6824C320.92 39.6536 320.872 39.6406 320.825 39.6464C320.777 39.6521 320.734 39.676 320.704 39.713C320.477 40.0131 320.249 40.3179 320.012 40.6165C319.869 40.5888 319.71 40.3064 319.556 40.1999C319.396 40.0805 319.281 39.8492 319.073 39.8349C318.909 39.853 318.882 40.0389 318.968 40.1579Z" fill="#236B9B"/>
<path d="M321.031 41.6471C321.006 41.5315 320.82 41.5372 320.754 41.6199C320.493 41.8917 320.229 42.1602 319.965 42.4292C319.965 42.4326 319.951 42.4426 319.949 42.4455C319.724 42.1621 319.497 41.8783 319.269 41.5979C319.244 41.5705 319.213 41.5509 319.177 41.5416C319.142 41.5322 319.105 41.5336 319.07 41.5455C319.035 41.5574 319.005 41.5793 318.983 41.6084C318.961 41.6376 318.947 41.6726 318.945 41.7092C318.997 41.9481 319.301 42.1989 319.445 42.413C319.602 42.5563 319.712 42.8788 319.921 42.9103C320.24 42.7785 320.461 42.412 320.729 42.186C320.838 42.0298 321.174 41.8568 321.03 41.6471" fill="#236B9B"/>
<path d="M345.444 24.1255L343.118 28.1972L342.942 28.5049H345.468C345.754 32.8493 343.933 35.1823 339.303 35.597C339.385 34.6234 339.412 33.6459 339.384 32.6692H334.962C334.883 36.0929 335.647 38.6672 330.548 40.4426L330.527 44.735C334.473 44.0756 336.09 42.9858 337.858 40.0308C345.121 40.0308 350.053 36.4575 350.053 29.8756V24.1255C349.799 24.1255 345.556 24.1255 345.447 24.1255" fill="#236B9B"/>
<path d="M343.936 25.1184C344.073 24.8718 344.365 24.374 344.502 24.1284H330.516C330.516 24.3167 330.516 24.9206 330.516 25.1184H343.936Z" fill="#236B9B"/>
<path d="M342.966 26.8145C343.131 26.5331 343.367 26.105 343.533 25.8212H329.581V26.8145H342.966Z" fill="#236B9B"/>
<path d="M342.001 28.5053C342.115 28.3104 342.45 27.7165 342.567 27.5144H328.66C328.66 27.7323 328.66 28.2789 328.66 28.5053H342.001Z" fill="#236B9B"/>
<path d="M363.881 29.8589V29.6534H354.125V33.6572H363.881V29.8589Z" fill="#236B9B"/>
<path d="M363.881 28.2488V24.4772H354.125V28.4542H363.881V28.2488Z" fill="#236B9B"/>
<path d="M374.413 28.0749C373.114 28.0749 371.315 28.0749 370.018 28.0749C370.018 28.3716 370.018 29.2693 370.018 29.5794C370.018 36.0542 367.873 40.6208 360.155 40.6208H353.974L353.942 45.0804H360.263C372.99 45.0446 374.692 36.5478 374.413 28.0749Z" fill="#236B9B"/>
<path d="M371.713 27.1499C371.713 26.8565 371.713 24.8198 371.713 24.4772H369.748C369.748 24.8083 369.748 26.8723 369.748 27.1499H371.713Z" fill="#236B9B"/>
<path d="M373.115 24.4772H372.648C372.648 24.8317 372.648 26.8451 372.648 27.1499H374.613C374.613 26.8766 374.613 24.8026 374.613 24.4772H373.115Z" fill="#236B9B"/>
<path d="M322.465 36.8373C322.734 28.513 314.275 22.4562 306.423 24.3554C304.151 24.9667 302.052 26.0983 300.291 27.6611C299.578 28.3062 298.987 29.0746 298.546 29.9296C298.969 29.9994 299.012 29.7958 299.269 29.5287C300.11 28.6895 301.045 27.9507 302.056 27.3271C302.244 27.0924 302.482 26.9028 302.752 26.7722C303.023 26.6416 303.319 26.5733 303.619 26.5723C304.597 26.1906 305.612 25.9149 306.649 25.75C309.734 25.32 313.352 25.9096 315.839 27.7567C320.792 31.4456 322.222 36.7355 320.848 42.5726C320.666 43.3996 320.448 44.2199 320.204 45.0302C320.238 44.9586 320.351 44.8305 320.404 44.7202C321.811 42.3366 322.526 39.606 322.466 36.8368" fill="#26A1C6"/>
<path d="M394.696 24.1733H389.791V27.3644H378.244V31.77H389.765C389.693 38.177 385.783 41.0465 378.186 40.7164L378.191 45.1478H379.796C389.284 45.1478 394.62 40.0145 394.699 31.77H399.005V27.363H394.698L394.696 24.1733Z" fill="#26A1C6"/>
<path d="M412.76 40.7283C405.298 40.7202 407.022 37.1555 406.808 32.4231C407.146 32.4265 407.978 32.4231 408.304 32.4231L409.813 29.6339C409.926 29.4284 410.587 28.2005 410.688 28.0185C410.28 28.0214 407.29 28.0185 406.808 28.0185V24.169H402.414V37.1015C402.414 42.0704 405.094 45.0804 411.339 45.0804H420.069L420.06 40.7279L412.76 40.7283Z" fill="#26A1C6"/>
<path d="M418.601 28.0204H411.626C411.511 28.2163 411.179 28.8073 411.06 29.0104H421.66C421.666 28.7471 421.655 28.2875 421.66 28.0204C420.912 28.0204 419.335 28.0204 418.601 28.0204Z" fill="#26A1C6"/>
<path d="M410.667 29.7155C410.51 29.9979 410.286 30.4241 410.126 30.7088H420.691C420.691 30.5048 420.691 29.9277 420.691 29.7155H410.667Z" fill="#26A1C6"/>
<path d="M409.204 32.3992H419.726V31.4083H409.744C409.614 31.6548 409.335 32.1541 409.204 32.3992Z" fill="#26A1C6"/>
<path d="M418.759 27.1499C418.759 26.8073 418.759 24.8628 418.759 24.4772H416.794V27.1499H418.759Z" fill="#26A1C6"/>
<path d="M420.162 24.4772H419.694V27.1499H421.66C421.66 26.8073 421.66 24.8628 421.66 24.4772H420.162Z" fill="#26A1C6"/>
</g>
</g>
<defs>
<filter id="filter0_d_2003_606" x="442.755" y="3.08887" width="34.679" height="67.137" filterUnits="userSpaceOnUse" color-interpolation-filters="sRGB">
<feFlood flood-opacity="0" result="BackgroundImageFix"/>
<feColorMatrix in="SourceAlpha" type="matrix" values="0 0 0 0 0 0 0 0 0 0 0 0 0 0 0 0 0 0 127 0" result="hardAlpha"/>
<feOffset dx="3" dy="3"/>
<feColorMatrix type="matrix" values="0 0 0 0 0 0 0 0 0 0 0 0 0 0 0 0 0 0 0.25 0"/>
<feBlend mode="normal" in2="BackgroundImageFix" result="effect1_dropShadow_2003_606"/>
<feBlend mode="normal" in="SourceGraphic" in2="effect1_dropShadow_2003_606" result="shape"/>
</filter>
<filter id="filter1_d_2003_606" x="472.313" y="5.01953" width="73.6917" height="63.2882" filterUnits="userSpaceOnUse" color-interpolation-filters="sRGB">
<feFlood flood-opacity="0" result="BackgroundImageFix"/>
<feColorMatrix in="SourceAlpha" type="matrix" values="0 0 0 0 0 0 0 0 0 0 0 0 0 0 0 0 0 0 127 0" result="hardAlpha"/>
<feOffset dx="3" dy="3"/>
<feColorMatrix type="matrix" values="0 0 0 0 0 0 0 0 0 0 0 0 0 0 0 0 0 0 0.25 0"/>
<feBlend mode="normal" in2="BackgroundImageFix" result="effect1_dropShadow_2003_606"/>
<feBlend mode="normal" in="SourceGraphic" in2="effect1_dropShadow_2003_606" result="shape"/>
</filter>
<filter id="filter2_d_2003_606" x="4.59998" y="1.76465" width="451.126" height="70.1922" filterUnits="userSpaceOnUse" color-interpolation-filters="sRGB">
<feFlood flood-opacity="0" result="BackgroundImageFix"/>
<feColorMatrix in="SourceAlpha" type="matrix" values="0 0 0 0 0 0 0 0 0 0 0 0 0 0 0 0 0 0 127 0" result="hardAlpha"/>
<feOffset dx="3" dy="3"/>
<feColorMatrix type="matrix" values="0 0 0 0 0 0 0 0 0 0 0 0 0 0 0 0 0 0 0.25 0"/>
<feBlend mode="normal" in2="BackgroundImageFix" result="effect1_dropShadow_2003_606"/>
<feBlend mode="normal" in="SourceGraphic" in2="effect1_dropShadow_2003_606" result="shape"/>
</filter>
<clipPath id="clip0_2003_606">
<rect width="143" height="43" fill="white" transform="translate(282 15)"/>
</clipPath>
</defs>
</svg>
