<svg width="550" height="73" viewBox="0 0 550 73" fill="none" xmlns="http://www.w3.org/2000/svg">
<g clip-path="url(#clip0_1618_132)">
<g filter="url(#filter0_d_1618_132)">
<path d="M443.821 67.3981V2.66211L475.795 4.94011V65.1241L443.821 67.3981Z" fill="#954E2A"/>
</g>
<path d="M443.823 60.7116V9.35156L475.797 11.1576V58.9076L443.823 60.7116Z" fill="#9A5634"/>
<path d="M443.823 54.3191V15.7461L475.797 17.1011V52.9651L443.823 54.3191Z" fill="#954E2A"/>
<path d="M443.823 46.5824V23.4824L475.797 24.2944V45.7684L443.823 46.5824Z" fill="#9A5634"/>
<path d="M443.823 39.9933V30.0713L475.797 30.4203V39.6453L443.823 39.9933Z" fill="#954E2A"/>
<g filter="url(#filter1_d_1618_132)">
<path d="M484.281 65.3866H484.305C484.348 65.3866 484.391 65.3866 484.438 65.3806C484.593 65.3806 484.749 65.3696 484.9 65.3566C484.974 65.3516 485.049 65.3416 485.122 65.3336L485.288 65.3126C485.778 65.2523 486.258 65.1282 486.716 64.9436C487.936 64.459 488.983 63.6212 489.723 62.5376C493.891 56.6146 492.653 43.3746 502.862 43.4226C517.475 44.2706 535.477 45.3416 538.008 45.4896L538.155 45.5046H538.311C538.943 45.5299 539.573 45.4202 540.16 45.1828C540.746 44.9453 541.275 44.5856 541.711 44.1276C543.713 41.8807 544.873 39.0079 544.991 36.0006C544.991 35.8116 544.991 35.6216 544.991 35.4336C544.985 35.3016 544.974 35.1666 544.966 35.0336C544.975 34.9006 544.985 34.7676 544.991 34.6336C544.991 34.4446 544.997 34.2546 544.991 34.0666C544.873 31.0589 543.714 28.1856 541.711 25.9386C541.275 25.4806 540.746 25.1209 540.159 24.8833C539.573 24.6457 538.943 24.5357 538.311 24.5606L538.155 24.5666C538.155 24.5666 538.101 24.5666 538.008 24.5796C535.476 24.7306 517.474 25.8006 502.862 26.6466C492.654 26.6946 493.891 13.4566 489.723 7.53257C488.983 6.44892 487.936 5.61137 486.716 5.12757C486.258 4.94258 485.778 4.81819 485.288 4.75757L485.122 4.73757C485.049 4.72957 484.974 4.72157 484.9 4.71457C484.748 4.70157 484.593 4.69357 484.438 4.69057C484.391 4.69057 484.347 4.68457 484.305 4.68457H484.281C484.281 4.68457 473.65 4.59157 473.65 4.61657V65.4566C473.65 65.4806 484.28 65.3866 484.281 65.3866ZM527.287 35.0346C527.287 33.4766 529.803 32.2146 532.904 32.2146C536.005 32.2146 538.521 33.4766 538.522 35.0346C538.523 36.5926 536.006 37.8556 532.904 37.8556C529.802 37.8556 527.289 36.5926 527.287 35.0346Z" fill="#D18F2A"/>
</g>
<path d="M482.914 4.60645H473.36V65.4594H482.914V4.60645Z" fill="#EBECEC"/>
<g filter="url(#filter2_d_1618_132)">
<path d="M450.172 57.5295C447.649 55.3655 446.263 51.2635 447.572 48.1875C448.247 46.5995 449.998 45.1055 449.907 43.2725C449.827 41.6775 448.167 40.9065 447.865 39.4195C447.513 37.6815 448.639 35.8315 448.883 34.1365C449.883 27.1365 448.615 20.0365 447.996 13.0705C448.117 12.5925 448.245 12.1335 448.387 11.7065C449.297 8.94652 455.71 5.82952 453.101 2.85952C451.58 1.12652 446.408 1.23852 444.377 1.41052C442.858 1.53952 441.37 1.61752 439.854 1.71052H1.57898V68.0855H421.303C424.715 68.3335 428.168 68.6475 431.618 68.8695C438.018 69.2815 444.407 69.3695 450.497 68.0925C456.197 66.9005 453.752 60.5985 450.172 57.5325" fill="#E2871F"/>
</g>
<g opacity="0.5">
<mask id="mask0_1618_132" style="mask-type:luminance" maskUnits="userSpaceOnUse" x="441" y="2" width="10" height="26">
<path d="M450.113 2.15332H441.38V27.9193H450.113V2.15332Z" fill="white"/>
</mask>
<g mask="url(#mask0_1618_132)">
<path d="M444.974 3.28218C445.484 2.97466 446.037 2.74417 446.615 2.59818C449.977 1.72418 451.052 1.91718 449.242 5.20718C447.079 9.14318 445.089 8.08118 445.41 16.0692C445.64 21.8142 445.73 26.6112 444.131 27.8892C443.285 28.5632 441.552 17.5012 441.516 16.8262C441.277 12.6352 440.888 5.76618 444.975 3.28218" fill="white"/>
</g>
</g>
<g style="mix-blend-mode:multiply">
<mask id="mask1_1618_132" style="mask-type:luminance" maskUnits="userSpaceOnUse" x="416" y="17" width="12" height="49">
<path d="M427.403 17.6748H416.956V65.6948H427.403V17.6748Z" fill="white"/>
</mask>
<g mask="url(#mask1_1618_132)">
<path d="M422.407 34.9649C422.407 34.9649 422.088 46.4649 423.684 53.8139C425.28 61.1629 430.398 65.4139 424.965 65.6339C416.978 65.9539 416.337 65.6339 417.295 50.9339C418.253 36.2339 418.895 31.1279 418.575 25.6969C417.875 13.8619 422.855 15.9179 422.089 26.6549C421.768 31.1279 423.046 29.5309 422.408 34.9609" fill="#F7F8F8"/>
</g>
</g>
<g opacity="0.4">
<mask id="mask2_1618_132" style="mask-type:luminance" maskUnits="userSpaceOnUse" x="442" y="58" width="10" height="10">
<path d="M451.652 58.4932H442.466V67.5322H451.652V58.4932Z" fill="white"/>
</mask>
<g mask="url(#mask2_1618_132)">
<path d="M448.852 59.4892C448.852 59.4892 453.974 64.6112 450.359 65.8162C446.744 67.0212 443.128 69.1312 442.523 65.5162C441.918 61.9012 446.14 56.1752 448.851 59.4912" fill="white"/>
</g>
</g>
<g clip-path="url(#clip1_1618_132)">
<mask id="mask3_1618_132" style="mask-type:luminance" maskUnits="userSpaceOnUse" x="301" y="18" width="121" height="36">
<path d="M422 18H301V54H422V18Z" fill="white"/>
</mask>
<g mask="url(#mask3_1618_132)">
<path d="M337.381 40.0794C337.248 39.9295 337.125 39.7663 337 39.6043C336.897 39.4713 336.795 39.339 336.691 39.2107C336.085 38.4521 335.517 37.6639 334.991 36.8492C334.649 36.3236 334.306 35.7887 333.981 35.2577C333.964 35.2292 333.946 35.1947 333.929 35.1642C333.977 35.1642 334.024 35.1685 334.072 35.1673C334.608 35.1509 335.136 35.0358 335.629 34.8281L336.624 34.4047C337.666 33.9731 338.495 33.1575 338.936 32.1316C339.377 31.1057 339.395 29.9505 338.986 28.9119C338.85 28.585 338.682 28.2726 338.482 27.9795C338.452 27.8742 338.415 27.7165 338.386 27.5929L338.363 27.4939C338.141 26.28 337.533 25.1673 336.628 24.3165C336.042 23.8165 335.341 23.4671 334.585 23.2992C333.83 23.1314 333.044 23.1503 332.298 23.3542C332.071 23.419 331.849 23.4974 331.632 23.589C330.726 22.682 329.229 22.0539 326.76 22.662L326.646 22.6906C325.932 22.8527 325.271 23.1912 324.726 23.6743C324.181 24.1574 323.769 24.7692 323.529 25.4524C322.96 24.7517 322.177 24.2498 321.297 24.0206C321.206 23.9956 321.114 23.9725 321.029 23.9549C320.707 23.8841 320.383 23.8199 320.06 23.7561L319.599 23.6646C319.092 23.5694 318.579 23.5067 318.063 23.4767L317.777 23.454C316.61 23.3122 315.434 23.6252 314.498 24.3262C313.587 25.0839 312.971 26.1308 312.756 27.2872C312.671 27.6453 312.568 27.9975 312.465 28.3508L312.309 28.8936C311.812 30.6599 311.238 32.4106 310.603 34.0979C310.222 35.1129 309.82 36.0975 309.407 37.0268C309.191 37.5159 308.966 38.0006 308.733 38.4809L308.578 38.8053C308.487 39.0166 308.381 39.2216 308.261 39.4189C307.947 39.8449 307.657 40.2882 307.394 40.7466C307.24 41.016 307.072 41.2772 306.891 41.5292C306.499 42.0496 305.31 43.6324 305.888 45.6343C306.058 46.1879 306.341 46.7011 306.721 47.1421C307.1 47.5831 307.567 47.9424 308.093 48.1978C308.33 48.3152 308.577 48.4137 308.831 48.4924C309.029 48.6395 309.232 48.7836 309.447 48.9139L310.779 49.7254C311.442 50.1279 312.203 50.3463 312.981 50.3578C313.044 50.3578 313.108 50.3578 313.171 50.3578C313.88 50.3343 314.572 50.1402 315.187 49.7924C315.802 49.4445 316.321 48.9535 316.699 48.3621C317.361 47.3681 317.907 46.3033 318.326 45.1882C318.508 44.7541 318.723 44.3344 318.971 43.9329C319.187 43.5557 319.41 43.1648 319.619 42.7387C320.446 41.0561 321.193 39.3343 321.858 37.6075C322.042 38.0455 322.262 38.4677 322.517 38.8699C322.578 38.972 322.641 39.0714 322.693 39.1704C323.094 39.9256 323.515 40.6742 323.945 41.3965C324.822 42.8761 325.784 44.3059 326.824 45.6789C327.218 46.1959 327.618 46.6963 328.018 47.1686C328.07 47.2305 328.117 47.2958 328.164 47.3596C328.549 47.9487 329.064 48.4439 329.671 48.8081C330.278 49.1723 330.961 49.3959 331.669 49.4621C331.82 49.4728 331.972 49.4758 332.124 49.4711C333.305 49.4308 334.425 48.9443 335.253 48.1121C335.473 47.8898 335.684 47.6926 335.915 47.493L336.106 47.3267C336.23 47.2183 336.399 47.07 336.415 47.0528C337.182 46.6854 337.821 46.0998 338.249 45.3714C338.677 44.643 338.873 43.805 338.814 42.9652C338.732 41.9029 338.255 40.908 337.473 40.1721L337.381 40.0794Z" fill="white"/>
<path d="M330.15 34.3315C330.029 34.0453 329.831 33.7967 329.579 33.6123C328.757 33.0918 327.745 33.6718 326.977 34.0071C326.437 34.2536 325.884 34.4702 325.32 34.6559C325.106 34.7449 324.922 34.8926 324.791 35.0815C324.66 35.2704 324.586 35.4925 324.579 35.7214C324.579 35.7496 324.577 35.7785 324.577 35.8067C324.577 36.5111 325.106 37.1583 325.425 37.7582C325.8 38.4667 326.193 39.1659 326.604 39.8559C327.422 41.2366 328.319 42.5706 329.289 43.8515C329.644 44.3172 330.01 44.7737 330.387 45.2211C330.828 45.7427 331.112 46.3739 331.897 46.4314C332.11 46.4437 332.322 46.4108 332.521 46.3347C332.72 46.2587 332.899 46.1414 333.048 45.9908C333.32 45.7149 333.59 45.4618 333.888 45.2047C334.25 44.8471 334.662 44.5428 335.112 44.3012C335.316 44.1905 335.484 44.0243 335.595 43.8225C335.707 43.6207 335.757 43.3916 335.74 43.1625C335.707 42.6577 335.376 42.4299 335.066 42.084C334.788 41.771 334.538 41.4239 334.277 41.0987C333.604 40.2629 332.982 39.3883 332.397 38.4907C332.04 37.9428 331.683 37.3825 331.342 36.8268C330.933 36.0735 330.564 35.3 330.235 34.5095C330.206 34.4501 330.178 34.3922 330.148 34.3307" fill="#3890AC"/>
<path d="M320.469 26.9467C320.433 26.9365 320.396 26.9279 320.36 26.9197C319.903 26.8191 319.442 26.7334 318.983 26.6403C318.494 26.5589 318.002 26.5053 317.508 26.4799C317.124 26.4182 316.732 26.5009 316.407 26.7115C316.064 27.0584 315.837 27.5016 315.758 27.9805C315.62 28.5604 315.441 29.1298 315.28 29.7023C314.763 31.5419 314.168 33.3582 313.495 35.1512C313.104 36.1923 312.683 37.222 312.234 38.2401C312.003 38.7619 311.764 39.2788 311.515 39.7909C311.304 40.2932 311.044 40.7744 310.74 41.2277C310.201 41.9442 309.91 42.6216 309.37 43.3384C309.048 43.7689 308.707 44.2823 308.855 44.7961C308.907 44.9477 308.991 45.0872 309.1 45.206C309.209 45.3248 309.342 45.4204 309.489 45.4871C309.76 45.6229 310.071 45.6511 310.328 45.8127C310.584 45.9743 310.807 46.1687 311.065 46.3257L312.393 47.1349C312.67 47.3037 313.004 47.3573 313.321 47.2839C313.639 47.2106 313.913 47.0163 314.086 46.7436C314.627 45.9403 315.073 45.0792 315.417 44.1766C315.755 43.2273 316.399 42.3167 316.845 41.4081C317.932 39.1982 318.879 36.9244 319.682 34.5994C319.946 33.8333 320.194 33.0619 320.424 32.2853C320.531 31.9237 320.611 31.5715 320.739 31.2143C320.883 30.812 321.03 30.4109 321.149 30.0012C321.348 29.3844 321.428 28.7367 321.387 28.0909C321.376 27.8487 321.307 27.6125 321.186 27.401C321.013 27.1668 320.758 27.0038 320.47 26.9432" fill="#3890AC"/>
<path d="M330.61 29.6221C330.608 29.5865 330.605 29.5509 330.601 29.5153C330.496 29.1042 330.358 28.7017 330.19 28.3117C330.063 27.8814 329.968 27.4426 329.905 26.9988C329.884 26.6645 329.802 26.3366 329.664 26.0308C329.164 25.1268 328.122 25.4653 327.327 25.6547C327.011 25.7249 326.737 25.9145 326.562 26.1827C326.387 26.4509 326.325 26.7762 326.391 27.0884L327.086 30.3789C327.119 30.5369 327.184 30.6868 327.277 30.8198C327.369 30.9528 327.488 31.0664 327.625 31.1538C327.763 31.2412 327.917 31.3007 328.078 31.3289C328.239 31.3571 328.404 31.3534 328.564 31.3181L329.659 31.0574C329.97 30.978 330.24 30.787 330.416 30.5217C330.592 30.2565 330.662 29.936 330.611 29.6229" fill="#D8B10E"/>
<path d="M336.119 30.0276C336 29.7345 335.776 29.5048 335.654 29.2058C335.53 28.8717 335.432 28.5285 335.362 28.1795C335.278 27.5875 335.01 27.0357 334.595 26.6001C334.397 26.4338 334.16 26.3177 333.906 26.2621C333.652 26.2064 333.388 26.2129 333.137 26.2808C332.822 26.3888 332.514 26.5167 332.216 26.6639C331.917 26.786 331.679 27.019 331.553 27.3126C331.427 27.6062 331.422 27.9369 331.541 28.2335L332.791 31.36C332.851 31.5104 332.941 31.6475 333.055 31.7632C333.169 31.879 333.305 31.9712 333.456 32.0343C333.607 32.0974 333.769 32.1301 333.932 32.1307C334.096 32.1312 334.258 32.0994 334.409 32.0373L335.444 31.5975C335.742 31.4754 335.98 31.2424 336.107 30.9488C336.233 30.6553 336.237 30.3246 336.118 30.028" fill="#D8B10E"/>
<path d="M348.829 38.0654C348.542 38.0731 348.255 38.0553 347.972 38.0122C347.434 38.0032 346.901 37.9903 346.366 37.9774C345.771 37.9629 345.176 37.9488 344.581 37.9402C343.763 37.9588 342.957 37.7458 342.258 37.3265C341.559 36.9071 340.996 36.2989 340.637 35.574C340.369 34.962 340.245 34.2977 340.276 33.6316C340.297 32.5817 340.401 31.5886 340.502 30.6279C340.577 29.9118 340.648 29.2353 340.68 28.5775C340.686 28.2414 340.675 27.9052 340.645 27.5703C340.571 26.7891 340.577 26.0024 340.663 25.2224C340.737 24.4987 340.979 23.8016 341.371 23.1853C341.763 22.569 342.293 22.0501 342.921 21.669C343.868 21.1583 344.955 20.9568 346.026 21.0934C346.486 21.1368 347.007 21.1368 347.558 21.1368C347.825 21.1368 348.093 21.1368 348.362 21.1411C349.302 21.1504 350.214 21.4551 350.967 22.0111C351.719 22.567 352.272 23.3452 352.546 24.2324C352.726 24.9687 352.75 25.7339 352.615 26.4797C352.604 26.563 352.59 26.6456 352.585 26.7266C352.575 27.3918 352.526 28.0453 352.479 28.678C352.439 29.2259 352.399 29.7396 352.389 30.2307C352.361 31.4164 352.369 32.6208 352.412 33.8123C352.485 34.7037 352.279 35.5955 351.822 36.3679C351.51 36.8779 351.071 37.3013 350.547 37.5983C350.024 37.8954 349.432 38.0564 348.828 38.0662" fill="white"/>
<path d="M356.33 51.9613C355.762 51.9761 355.197 51.8852 354.664 51.6933C353.944 51.4179 353.266 51.0465 352.649 50.5894L351.004 49.4652C350.324 49.0081 349.774 48.387 349.406 47.661C349.038 46.935 348.864 46.1282 348.902 45.3174C348.995 44.4042 349.348 43.5359 349.922 42.813C350.08 42.5927 350.249 42.3755 350.418 42.158C350.651 41.8816 350.859 41.5858 351.04 41.274C351.336 40.6632 351.576 40.2108 351.785 39.8172C352.311 38.8796 352.696 37.8718 352.928 36.8253C353.141 36.0364 353.624 33.8514 353.678 33.581C353.727 33.3301 353.773 33.0723 353.816 32.8128C354.017 31.6117 354.136 30.3987 354.173 29.1819C354.181 28.9233 354.184 28.6654 354.181 28.4071C354.181 28.3567 354.174 28.3058 354.17 28.2553C354.041 27.2445 354.26 26.2201 354.793 25.3471C355.361 24.4798 356.228 23.8446 357.234 23.5593C357.555 23.4663 357.884 23.4026 358.217 23.3691C358.34 23.3358 358.455 23.3081 358.574 23.2854C358.957 23.2176 359.346 23.1784 359.735 23.168C359.814 23.1641 359.897 23.1609 359.976 23.1551L360.328 23.1234C360.671 23.0913 361.06 23.0592 361.484 23.0451H361.547C362.622 22.9802 363.683 23.3128 364.522 23.978C364.956 24.3487 365.308 24.8035 365.556 25.3141C365.804 25.8246 365.942 26.3799 365.964 26.9456C366.022 27.7822 366.043 28.5531 366.025 29.3044C365.99 30.7295 365.875 32.1515 365.679 33.5638C365.413 35.4998 365.007 37.4146 364.465 39.2936C363.808 41.5727 362.944 43.7887 361.884 45.9149C361.787 46.1105 361.686 46.3007 361.586 46.4905C361.415 46.798 361.262 47.115 361.127 47.4398C360.823 48.2472 360.432 49.02 359.96 49.745C359.406 50.6653 358.55 51.3716 357.534 51.7473C357.147 51.8769 356.742 51.9491 356.333 51.9613" fill="white"/>
<path d="M348.312 24.1807C347.445 24.167 346.59 24.2006 345.728 24.1189C345.302 24.0474 344.863 24.1087 344.474 24.2942C344.257 24.4442 344.076 24.6406 343.945 24.8689C343.815 25.0971 343.738 25.3514 343.721 25.6129C343.585 26.6486 343.811 27.684 343.76 28.7265C343.678 30.3848 343.393 32.0279 343.36 33.6894C343.341 33.9038 343.371 34.1196 343.447 34.3213C343.571 34.516 343.746 34.6732 343.955 34.7757C344.163 34.8781 344.396 34.9218 344.628 34.902C345.799 34.9189 346.964 34.958 348.14 34.9764C348.513 34.9819 348.939 35.1979 349.197 34.7807C349.327 34.513 349.374 34.2139 349.335 33.9199C349.29 32.6677 349.282 31.4155 349.31 30.1633C349.337 28.9929 349.488 27.819 349.509 26.6596C349.517 26.1286 349.713 25.5346 349.573 25.0208C349.474 24.7719 349.301 24.5583 349.077 24.4084C348.852 24.2585 348.587 24.1792 348.316 24.1811" fill="#3890AC"/>
<path d="M361.591 26.0843H361.544C361.105 26.0917 360.661 26.148 360.223 26.1829C359.868 26.1924 359.513 26.2211 359.161 26.2689C359.016 26.2967 358.891 26.3523 358.742 26.3695C358.533 26.3849 358.325 26.4186 358.122 26.4701C357.83 26.5453 357.576 26.7209 357.404 26.9651C357.121 27.408 357.26 27.8909 357.265 28.3738C357.268 28.6716 357.265 28.9693 357.257 29.2671C357.216 30.6203 357.084 31.9693 356.86 33.305C356.813 33.5899 356.762 33.8742 356.707 34.158C356.662 34.3901 356.151 36.7035 355.909 37.6082C355.155 40.4036 354.838 40.4854 353.824 42.5844C353.419 43.288 352.954 43.9557 352.432 44.58C352.195 44.8528 352.038 45.1841 351.978 45.5383C351.985 45.8204 352.059 46.0969 352.195 46.3452C352.33 46.5935 352.524 46.8066 352.759 46.967C353.252 47.303 353.745 47.6395 354.238 47.9766C354.687 48.3234 355.181 48.6116 355.706 48.8339C355.971 48.9383 356.264 48.9521 356.539 48.873C356.892 48.7155 357.183 48.4458 357.363 48.1069C357.716 47.5655 358.009 46.9883 358.236 46.3851C358.499 45.7668 358.793 45.1622 359.118 44.5738C360.098 42.6106 360.896 40.5641 361.502 38.4593C362.005 36.7201 362.381 34.9476 362.627 33.1555C362.807 31.8559 362.914 30.5472 362.946 29.2358C362.962 28.5416 362.939 27.8483 362.891 27.1564C362.892 26.9972 362.86 26.8395 362.799 26.6922C362.738 26.545 362.648 26.4111 362.534 26.2983C362.257 26.1153 361.922 26.039 361.592 26.0839" fill="#3890AC"/>
<path d="M376.521 50.9396C376.161 50.9513 375.8 50.9275 375.444 50.8688C374.587 50.7352 373.79 50.3524 373.156 49.7692C372.496 49.1261 372.045 48.3039 371.86 47.4073C371.752 46.9592 371.682 46.5382 371.622 46.1676C371.49 45.3772 371.347 44.5351 371.178 43.713L367.973 28.0491C367.94 27.8925 367.906 27.7333 367.871 27.5756C367.727 26.9721 367.621 26.3605 367.554 25.7443C367.442 24.922 367.586 24.0856 367.968 23.3464C368.35 22.6072 368.951 22.0002 369.692 21.6062C370.511 21.1744 371.403 20.8923 372.324 20.7735C372.453 20.7512 372.582 20.7293 372.708 20.7039L374.073 20.43C374.811 20.2548 375.581 20.2649 376.314 20.4593C377.128 20.7228 377.846 21.2173 378.377 21.8809C378.836 22.4346 379.141 23.0968 379.261 23.8022C379.355 24.2687 379.437 24.7414 379.503 25.2109L379.543 25.4966C379.571 25.7044 379.596 25.918 379.64 26.1172C379.784 26.7707 379.818 26.9781 379.861 27.2265L379.899 27.4449C379.969 27.8362 380.04 28.2275 380.121 28.6188C380.185 28.9244 380.248 29.1917 380.312 29.4343C380.368 29.4343 380.425 29.4366 380.483 29.4386C380.605 29.4425 380.739 29.4386 380.872 29.4327C381.057 29.4452 381.251 29.4222 381.431 29.4225L382.594 29.4245C384.475 29.4218 386.005 29.3936 387.401 29.331H387.455C388.59 29.296 389.693 29.7035 390.525 30.4653C391.357 31.2271 391.852 32.2817 391.901 33.4005L392.04 36.6002C392.063 37.1652 391.973 37.7291 391.774 38.2594C391.575 38.7897 391.271 39.2758 390.88 39.6896C390.082 40.5105 388.991 40.9936 387.839 41.0372C386.556 41.0697 385.2 41.0889 383.571 41.0975C383.278 41.0993 382.985 41.1006 382.692 41.1014C382.746 41.353 382.803 41.6101 382.86 41.8676C382.945 42.2472 383.029 42.6263 383.106 43.0059L383.452 44.6959C383.462 44.7417 383.47 44.7875 383.478 44.8333C383.559 45.0606 383.618 45.295 383.655 45.5333C383.785 46.3773 383.651 47.2403 383.27 48.0068C382.341 49.8788 380.489 50.2442 379.792 50.3824L377.912 50.7561C377.455 50.8572 376.991 50.9185 376.523 50.9392" fill="white"/>
<path d="M387.536 32.3696C385.89 32.4408 384.244 32.4631 382.595 32.4654C382.202 32.4654 381.809 32.4648 381.416 32.4635C381.083 32.4635 380.709 32.4889 380.376 32.4776C379.43 32.4451 379.087 32.611 378.515 32.2522C378.007 31.8869 377.645 31.3578 377.491 30.7566C377.332 30.2561 377.209 29.7451 377.102 29.2305C377.016 28.8146 376.94 28.3963 376.864 27.9783C376.794 27.587 376.796 27.5236 376.628 26.7622C376.549 26.399 376.504 26.0026 376.452 25.6329C376.393 25.2186 376.322 24.8062 376.239 24.3956C376.214 24.1953 376.139 24.0043 376.021 23.8399C375.867 23.6418 375.669 23.4823 375.441 23.3746C375.189 23.3293 374.93 23.3412 374.683 23.4095L373.319 23.681C372.612 23.8219 371.851 23.8849 371.216 24.2445C371.048 24.3309 370.902 24.4528 370.786 24.6014C370.63 24.8586 370.571 25.1618 370.618 25.4579C370.707 26.1268 370.832 26.7906 370.992 27.4466C371.133 28.1373 371.274 28.8286 371.416 29.5205C371.589 30.3678 371.763 31.2156 371.936 32.0639L372.513 34.8845L373.108 37.793L373.683 40.5995L374.198 43.1136C374.373 43.9655 374.519 44.8193 374.662 45.6766C374.719 46.021 374.777 46.3653 374.86 46.705C374.913 47.0257 375.059 47.3246 375.28 47.5659C375.47 47.7317 375.706 47.8384 375.957 47.8726C376.409 47.9256 376.867 47.8938 377.306 47.7787L379.109 47.4199C379.653 47.3115 380.232 47.2243 380.507 46.6698C380.61 46.457 380.646 46.2183 380.61 45.985C380.584 45.8684 380.548 45.7541 380.503 45.6434C380.474 45.5297 380.451 45.4146 380.435 45.2986L380.089 43.6086C379.752 42.2413 379.492 40.8565 379.312 39.4608C379.292 39.2388 379.272 39.017 379.253 38.7956C379.222 38.6295 379.24 38.4583 379.304 38.3017C379.352 38.2237 379.417 38.1573 379.494 38.1076C379.571 38.0579 379.659 38.0262 379.751 38.0149C380.031 38.0057 380.312 38.021 380.59 38.0607C380.908 38.0625 381.224 38.0638 381.54 38.0646C382.212 38.0662 382.885 38.065 383.558 38.0611C384.961 38.0533 386.362 38.0364 387.764 38.0012C387.928 37.9974 388.089 37.9614 388.238 37.8954C388.388 37.8293 388.523 37.7345 388.635 37.6165C388.747 37.4984 388.833 37.3596 388.89 37.208C388.947 37.0565 388.973 36.8952 388.966 36.7338L388.826 33.5349C388.819 33.3753 388.78 33.2187 388.712 33.0739C388.644 32.9292 388.547 32.7991 388.428 32.6911C388.309 32.5832 388.169 32.4994 388.017 32.4447C387.865 32.39 387.703 32.3654 387.542 32.3723" fill="#D8B10E"/>
<path d="M416.743 24.059C416.481 23.1168 415.925 22.2799 415.154 21.667C414.329 21.0582 413.314 20.7523 412.285 20.8022C412.153 20.8082 412.021 20.8189 411.888 20.8343H411.869C411.69 20.8558 411.512 20.8867 411.336 20.9192C411.289 20.9286 411.241 20.938 411.237 20.9407C410.87 20.9715 410.506 21.0251 410.147 21.1011L407.443 21.5864C407.064 21.1507 406.6 20.7952 406.078 20.5413C405.556 20.2873 404.987 20.1402 404.406 20.1088L403.085 20.0368C402.859 20.0251 402.632 20.027 402.407 20.0321C402.394 20.0321 402.381 20.0321 402.367 20.0321C402.046 19.9427 401.717 19.8847 401.384 19.8587C400.245 19.7513 399.108 20.0822 398.21 20.7822C397.313 21.4822 396.724 22.4972 396.567 23.6153C396.511 23.9675 396.484 24.3238 396.486 24.6804V24.7332C396.257 25.4669 395.97 26.1815 395.627 26.8705C395.339 27.4047 395.012 27.9176 394.649 28.4052C394.576 28.5038 394.508 28.6052 394.442 28.7081C394.087 28.9981 393.767 29.3281 393.49 29.6914C392.811 30.584 392.456 31.6758 392.482 32.7914C392.553 34.7796 393.948 35.9609 394.619 36.5295C394.705 36.6027 394.791 36.6735 394.867 36.7451L396.022 37.8407C396.585 38.3832 397.281 38.7715 398.042 38.9673C397.823 39.1113 397.618 39.2389 397.436 39.3406C396.771 39.7109 396.211 40.2381 395.804 40.8749C395.444 41.4694 395.232 42.1391 395.183 42.8296C395.135 43.5202 395.253 44.2123 395.526 44.8498C395.757 45.3856 396.064 45.8863 396.438 46.3367L396.544 46.4725C396.622 46.5812 396.694 46.6936 396.761 46.8094L396.919 47.0673C396.982 47.1659 397.042 47.2727 397.104 47.3804C397.62 48.2804 398.83 50.3848 401.524 50.4016C401.587 50.4016 401.649 50.4016 401.711 50.3997C402.798 50.342 403.849 49.9952 404.753 49.396C405.97 48.6103 407.091 47.6879 408.093 46.6474C408.288 46.4577 408.488 46.264 408.697 46.0644C409.557 45.2144 410.372 44.3215 411.139 43.3891L411.552 42.9054C412.091 42.2572 412.574 41.565 412.994 40.8362C413.134 40.6069 413.275 40.3737 413.431 40.1342C414.526 38.4666 415.406 36.6704 416.049 34.7874C416.548 33.3208 416.886 31.8056 417.056 30.2678C417.16 29.3162 417.223 28.3864 417.241 27.5048C417.266 26.3372 417.098 25.1732 416.745 24.0586" fill="white"/>
<path d="M412.241 23.854C411.98 23.8849 411.725 23.9542 411.465 23.9714C411.14 24.0069 410.817 24.0592 410.497 24.1279L408.359 24.5094L406.867 24.7759C406.45 24.8506 406.017 24.9027 405.608 25.0107C405.574 25.0234 405.537 25.0278 405.5 25.0237C405.464 25.0195 405.429 25.0069 405.398 24.9868C405.262 24.8694 405.393 24.5795 405.403 24.4351C405.413 24.2747 405.392 24.1138 405.339 23.9617C405.286 23.8096 405.203 23.6694 405.095 23.5491C404.987 23.4288 404.856 23.3308 404.709 23.2608C404.562 23.1909 404.403 23.1503 404.24 23.1414L402.919 23.0706C402.637 23.0553 402.354 23.0835 402.078 23.0706C401.774 23.0561 401.479 22.9141 401.17 22.8914C400.985 22.8644 400.796 22.8753 400.615 22.9234C400.434 22.9715 400.265 23.0558 400.119 23.1709C399.972 23.2861 399.851 23.4298 399.763 23.593C399.675 23.7562 399.623 23.9355 399.608 24.1197C399.525 24.6061 399.63 25.0455 399.472 25.5131C399.178 26.4665 398.805 27.3942 398.355 28.2867C397.998 28.9511 397.592 29.589 397.14 30.1955C397.012 30.4173 396.86 30.6246 396.687 30.8137C396.424 31.0144 396.183 31.2427 395.97 31.4946C395.704 31.8354 395.56 32.2544 395.563 32.6849C395.592 33.5137 396.446 34.0263 397.002 34.5522L398.155 35.6448C398.281 35.781 398.438 35.8859 398.613 35.951C398.788 36.0161 398.976 36.0395 399.162 36.0192C399.351 35.9551 399.528 35.8593 399.684 35.7359L400.163 35.4002C400.273 35.3219 400.302 35.2006 400.374 35.095C400.476 34.9424 400.624 34.8074 400.742 34.6645C400.983 34.3745 401.215 34.0775 401.438 33.7735C401.865 33.1907 402.261 32.5862 402.623 31.9626C402.742 31.6959 402.897 31.4459 403.082 31.2191C403.272 31.0679 403.508 30.9858 403.752 30.9867L405.127 30.7413L406.693 30.4619L407.488 30.3195C407.652 30.2905 408.218 30.1113 408.224 30.433C408.2 30.5425 408.165 30.6494 408.119 30.7523C408.099 30.8395 408.077 30.926 408.055 31.0129C407.961 31.3823 407.852 31.7475 407.728 32.1085C407.44 32.9381 407.08 33.7414 406.652 34.5096C406.141 35.4226 405.548 36.2883 404.88 37.0961C404.44 37.6674 403.95 38.1998 403.417 38.6875C402.897 39.1325 400.54 41.0937 398.962 41.9772C398.743 42.0964 398.557 42.2675 398.422 42.475C398.319 42.6626 398.262 42.871 398.256 43.0839C398.249 43.2969 398.292 43.5085 398.382 43.7021C398.548 44.0411 398.759 44.3569 399.008 44.6412C399.202 44.8956 399.362 45.1789 399.534 45.4489C400.032 46.2342 400.446 47.3514 401.546 47.3581C402.111 47.3273 402.656 47.1396 403.118 46.8165C404.503 45.9599 405.384 44.9915 406.561 43.8723C407.488 42.9903 408.453 41.8102 409.204 40.9375C409.807 40.1581 410.355 39.3388 410.843 38.4852C411.799 37.031 412.567 35.4644 413.128 33.8221C413.557 32.5621 413.848 31.2603 413.995 29.9392C414.085 29.1143 414.145 28.2675 414.162 27.4391C414.179 26.6001 414.059 25.7639 413.805 24.9629C413.725 24.6195 413.54 24.3083 413.276 24.0708C413.026 23.8966 412.722 23.8136 412.416 23.836C412.358 23.8379 412.3 23.843 412.243 23.8501" fill="#D8B10E"/>
</g>
</g>
</g>
<defs>
<filter id="filter0_d_1618_132" x="443.821" y="2.66211" width="34.974" height="67.7363" filterUnits="userSpaceOnUse" color-interpolation-filters="sRGB">
<feFlood flood-opacity="0" result="BackgroundImageFix"/>
<feColorMatrix in="SourceAlpha" type="matrix" values="0 0 0 0 0 0 0 0 0 0 0 0 0 0 0 0 0 0 127 0" result="hardAlpha"/>
<feOffset dx="3" dy="3"/>
<feColorMatrix type="matrix" values="0 0 0 0 0 0 0 0 0 0 0 0 0 0 0 0 0 0 0.25 0"/>
<feBlend mode="normal" in2="BackgroundImageFix" result="effect1_dropShadow_1618_132"/>
<feBlend mode="normal" in="SourceGraphic" in2="effect1_dropShadow_1618_132" result="shape"/>
</filter>
<filter id="filter1_d_1618_132" x="473.65" y="4.6123" width="74.3436" height="63.8486" filterUnits="userSpaceOnUse" color-interpolation-filters="sRGB">
<feFlood flood-opacity="0" result="BackgroundImageFix"/>
<feColorMatrix in="SourceAlpha" type="matrix" values="0 0 0 0 0 0 0 0 0 0 0 0 0 0 0 0 0 0 127 0" result="hardAlpha"/>
<feOffset dx="3" dy="3"/>
<feColorMatrix type="matrix" values="0 0 0 0 0 0 0 0 0 0 0 0 0 0 0 0 0 0 0.25 0"/>
<feBlend mode="normal" in2="BackgroundImageFix" result="effect1_dropShadow_1618_132"/>
<feBlend mode="normal" in="SourceGraphic" in2="effect1_dropShadow_1618_132" result="shape"/>
</filter>
<filter id="filter2_d_1618_132" x="1.57898" y="1.31934" width="455.31" height="70.8223" filterUnits="userSpaceOnUse" color-interpolation-filters="sRGB">
<feFlood flood-opacity="0" result="BackgroundImageFix"/>
<feColorMatrix in="SourceAlpha" type="matrix" values="0 0 0 0 0 0 0 0 0 0 0 0 0 0 0 0 0 0 127 0" result="hardAlpha"/>
<feOffset dx="3" dy="3"/>
<feColorMatrix type="matrix" values="0 0 0 0 0 0 0 0 0 0 0 0 0 0 0 0 0 0 0.25 0"/>
<feBlend mode="normal" in2="BackgroundImageFix" result="effect1_dropShadow_1618_132"/>
<feBlend mode="normal" in="SourceGraphic" in2="effect1_dropShadow_1618_132" result="shape"/>
</filter>
<clipPath id="clip0_1618_132">
<rect width="550" height="72.144" fill="white"/>
</clipPath>
<clipPath id="clip1_1618_132">
<rect width="121" height="36" fill="white" transform="translate(301 18)"/>
</clipPath>
</defs>
</svg>
