<svg width="542" height="71" viewBox="0 0 542 71" fill="none" xmlns="http://www.w3.org/2000/svg">
<g filter="url(#filter0_d_0_1)">
<path d="M438.755 66.226V2.089L470.434 4.343V63.973L438.755 66.226Z" fill="#954E2A"/>
</g>
<path d="M438.758 59.602V8.717L470.437 10.506V57.815L438.758 59.602Z" fill="#9A5634"/>
<path d="M438.758 53.271V15.052L470.437 16.395V51.925L438.758 53.271Z" fill="#954E2A"/>
<path d="M438.758 45.602V22.719L470.437 23.519V44.796L438.758 45.602Z" fill="#9A5634"/>
<path d="M438.758 39.076V29.245L470.437 29.59V38.735L438.758 39.076Z" fill="#954E2A"/>
<g filter="url(#filter1_d_0_1)">
<path d="M478.846 64.237H478.87C478.912 64.237 478.955 64.237 479.002 64.231C479.156 64.231 479.31 64.22 479.46 64.208C479.533 64.203 479.607 64.193 479.68 64.186L479.845 64.166C480.331 64.1061 480.806 63.9831 481.26 63.8C482.469 63.3199 483.506 62.4898 484.24 61.416C488.369 55.547 487.14 42.43 497.257 42.478C511.735 43.318 529.57 44.378 532.079 44.526L532.225 44.541H532.38C533.007 44.5668 533.632 44.4585 534.214 44.2232C534.795 43.988 535.32 43.6313 535.753 43.177C537.737 40.9508 538.885 38.1045 539.002 35.125C539.002 34.938 539.002 34.75 539.002 34.563C538.996 34.432 538.986 34.299 538.977 34.163C538.986 34.031 538.996 33.899 539.002 33.763C539.002 33.575 539.008 33.387 539.002 33.202C538.885 30.2222 537.737 27.3755 535.753 25.149C535.32 24.6948 534.795 24.338 534.214 24.1027C533.632 23.8673 533.007 23.7586 532.38 23.784L532.225 23.79C532.225 23.79 532.172 23.79 532.079 23.803C529.571 23.952 511.735 25.012 497.257 25.851C487.143 25.899 488.369 12.783 484.24 6.913C483.507 5.83923 482.469 5.00934 481.26 4.53C480.806 4.34657 480.331 4.22319 479.845 4.163L479.68 4.143C479.607 4.135 479.534 4.127 479.46 4.121C479.31 4.108 479.16 4.1 479.002 4.097C478.956 4.097 478.912 4.091 478.87 4.091H478.846C478.846 4.091 468.313 3.999 468.313 4.024V64.304C468.313 64.328 478.845 64.235 478.846 64.235M521.455 34.164C521.455 32.62 523.948 31.37 527.02 31.37C530.092 31.37 532.585 32.62 532.587 34.164C532.589 35.708 530.094 36.964 527.02 36.964C523.946 36.964 521.457 35.713 521.455 34.164Z" fill="#D18F2A"/>
</g>
<path d="M477.488 4.015H468.022V64.306H477.488V4.015Z" fill="#EBECEC"/>
<g filter="url(#filter2_d_0_1)">
<path d="M445.048 56.455C442.548 54.311 441.175 50.247 442.469 47.199C443.138 45.626 444.869 44.145 444.782 42.33C444.702 40.75 443.058 39.986 442.759 38.513C442.41 36.791 443.526 34.958 443.767 33.279C444.759 26.344 443.502 19.311 442.888 12.407C443.008 11.934 443.135 11.479 443.275 11.056C444.175 8.321 450.531 5.233 447.945 2.291C446.438 0.574002 441.314 0.685002 439.301 0.855002C437.796 0.983002 436.322 1.06 434.82 1.155H0.600006V66.911H416.446C419.826 67.157 423.246 67.468 426.666 67.688C433.007 68.096 439.337 68.181 445.366 66.918C451.01 65.737 448.591 59.493 445.044 56.455" fill="#373737"/>
</g>
<g opacity="0.5">
<mask id="mask0_0_1" style="mask-type:luminance" maskUnits="userSpaceOnUse" x="436" y="1" width="9" height="27">
<path d="M444.99 1.585H436.338V27.113H444.99V1.585Z" fill="white"/>
</mask>
<g mask="url(#mask0_0_1)">
<path d="M439.899 2.704C440.404 2.39924 440.952 2.17078 441.524 2.026C444.855 1.16 445.924 1.352 444.124 4.611C441.981 8.511 440.009 7.459 440.324 15.373C440.552 21.065 440.641 25.818 439.057 27.084C438.219 27.751 436.502 16.792 436.466 16.123C436.229 11.97 435.844 5.165 439.893 2.704" fill="white"/>
</g>
</g>
<g style="mix-blend-mode:multiply">
<mask id="mask1_0_1" style="mask-type:luminance" maskUnits="userSpaceOnUse" x="412" y="16" width="11" height="49">
<path d="M422.49 16.964H412.14V64.54H422.49V16.964Z" fill="white"/>
</mask>
<g mask="url(#mask1_0_1)">
<path d="M417.541 34.091C417.541 34.091 417.225 45.491 418.806 52.765C420.387 60.039 425.458 64.265 420.075 64.476C412.162 64.793 411.527 64.476 412.475 49.917C413.423 35.358 414.058 30.294 413.743 24.917C413.052 13.191 417.983 15.229 417.224 25.866C416.906 30.298 418.173 28.716 417.54 34.095" fill="#F7F8F8"/>
</g>
</g>
<g opacity="0.4">
<mask id="mask2_0_1" style="mask-type:luminance" maskUnits="userSpaceOnUse" x="437" y="57" width="10" height="10">
<path d="M446.514 57.405H437.413V66.36H446.514V57.405Z" fill="white"/>
</mask>
<g mask="url(#mask2_0_1)">
<path d="M443.744 58.392C443.744 58.392 448.819 63.467 445.237 64.66C441.655 65.853 438.072 67.945 437.474 64.36C436.876 60.775 441.057 55.106 443.744 58.39" fill="white"/>
</g>
</g>
<mask id="mask3_0_1" style="mask-type:luminance" maskUnits="userSpaceOnUse" x="245" y="13" width="172" height="40">
<path d="M417 13H245V53H417V13Z" fill="white"/>
</mask>
<g mask="url(#mask3_0_1)">
<path d="M390.624 28.9636V29.3418C390.103 29.4394 389.634 29.7262 389.303 30.1493C388.801 30.8999 388.381 31.7048 388.052 32.5493L383.377 43.1351H383.046L378.391 32.1209C378.088 31.3066 377.711 30.5231 377.265 29.7804C376.972 29.5036 376.589 29.3473 376.189 29.3418V28.9636H382.696V29.3418H382.478C382.065 29.3038 381.65 29.3806 381.277 29.564C381.203 29.6114 381.142 29.6781 381.102 29.7572C381.061 29.8363 381.042 29.925 381.046 30.0142C381.051 30.1623 381.078 30.3087 381.126 30.4484C381.18 30.6153 381.36 31.0631 381.666 31.792L384.559 38.6889L387.243 32.5502C387.562 31.8074 387.759 31.3101 387.833 31.0582C387.899 30.85 387.936 30.6331 387.943 30.4142C387.946 30.2213 387.89 30.0322 387.783 29.8733C387.665 29.7082 387.501 29.5833 387.312 29.5151C386.945 29.3864 386.558 29.3277 386.171 29.3418V28.9636H390.624Z" fill="white"/>
<path d="M399.162 42.44V42.8182H392.064V42.44H392.515C392.845 42.455 393.173 42.3809 393.466 42.2253C393.652 42.1155 393.794 41.9424 393.867 41.7364C393.968 41.3151 394.005 40.8804 393.976 40.4476V31.3342C394.003 30.8883 393.967 30.4408 393.867 30.0058C393.772 29.8058 393.615 29.6426 393.422 29.5404C393.142 29.3946 392.829 29.3258 392.515 29.3409H392.064V28.9636H399.162V29.3409H398.712C398.382 29.3258 398.054 29.3999 397.761 29.5556C397.574 29.6666 397.429 29.8389 397.35 30.0444C397.25 30.4659 397.213 30.9005 397.241 31.3333V40.448C397.212 40.8939 397.251 41.3417 397.356 41.7756C397.454 41.9756 397.611 42.1386 397.806 42.2409C398.086 42.3873 398.398 42.4561 398.712 42.4404L399.162 42.44Z" fill="white"/>
<path d="M405.989 36.5444V40.3862C405.956 40.8625 406.002 41.341 406.124 41.8018C406.226 42.0085 406.395 42.1726 406.603 42.2662C407.009 42.4103 407.44 42.4694 407.869 42.44V42.8182H400.974V42.44C401.406 42.4724 401.841 42.4118 402.249 42.2622C402.452 42.1639 402.617 42.0004 402.72 41.7969C402.843 41.3381 402.889 40.8615 402.856 40.3871V31.3956C402.888 30.9193 402.842 30.4408 402.72 29.98C402.618 29.7742 402.45 29.61 402.245 29.5147C401.837 29.3701 401.404 29.3112 400.974 29.3413V28.9631H406.89C408.838 28.9631 410.236 29.3172 411.084 30.0253C411.484 30.3368 411.807 30.7392 412.027 31.2004C412.248 31.6616 412.36 32.169 412.355 32.6822C412.374 33.5302 412.081 34.3547 411.534 34.9933C410.936 35.6646 410.142 36.1227 409.27 36.3009C408.187 36.5016 407.087 36.5837 405.987 36.5458M405.987 29.7618V35.748C406.207 35.7616 406.374 35.7683 406.487 35.768C406.835 35.7903 407.183 35.7357 407.508 35.6079C407.833 35.4801 408.127 35.2821 408.37 35.0276C408.81 34.5336 409.03 33.769 409.03 32.7338C409.03 31.7053 408.81 30.9526 408.37 30.4756C408.108 30.2225 407.797 30.0282 407.457 29.905C407.118 29.7819 406.756 29.7326 406.397 29.7604L405.987 29.7618Z" fill="white"/>
<path d="M292.119 40.0187C292.095 40.0084 292.072 39.9996 292.048 39.9916C291.395 39.7747 290.684 39.5271 289.931 39.2573C289.186 38.9907 288.44 38.6964 287.714 38.3822C287.041 38.0942 286.387 37.7635 285.754 37.392C285.493 37.2387 285.241 37.0688 285.001 36.8831C285.274 36.626 285.574 36.3991 285.895 36.2062C286.688 35.7307 287.515 35.3173 288.369 34.9693C289.349 34.5591 290.44 34.1204 291.612 33.6631C291.902 33.5751 292.157 33.3949 292.34 33.1487C292.522 32.9025 292.623 32.6033 292.627 32.2947C292.628 32.0913 292.587 31.89 292.508 31.7035C292.428 31.5171 292.311 31.3495 292.165 31.2116C291.893 30.9375 291.526 30.783 291.144 30.7809C290.995 30.7836 290.848 30.8111 290.708 30.8622C290.101 31.06 289.395 31.3187 288.613 31.6316C287.823 31.9467 287.015 32.3129 286.208 32.7209C285.431 33.1111 284.68 33.5521 283.958 34.0413C283.871 34.1004 283.788 34.1587 283.708 34.2191C283.702 33.96 283.697 33.6858 283.694 33.3973C283.687 32.7837 283.684 32.1634 283.684 31.5364C283.684 30.7744 283.691 30.0499 283.705 29.3631C283.717 28.6778 283.73 28.152 283.745 27.7529C283.756 27.37 283.62 26.9978 283.366 26.7156C283.113 26.4334 282.761 26.2634 282.386 26.2418C282.06 26.2258 281.738 26.3169 281.466 26.5018C281.274 26.6229 281.117 26.7935 281.011 26.9963C280.904 27.1992 280.852 27.4272 280.859 27.6573C280.818 28.7049 280.797 29.8093 280.797 30.9391C280.797 32.8133 280.856 34.7298 280.971 36.636C281.086 38.5422 281.267 40.3853 281.511 42.1027C281.515 42.128 281.52 42.1547 281.526 42.18C281.587 42.5119 281.761 42.8113 282.016 43.0256C282.272 43.2399 282.594 43.3555 282.924 43.352C283.288 43.3504 283.638 43.2155 283.912 42.972C284.087 42.8161 284.22 42.6171 284.299 42.3938C284.378 42.1704 284.4 41.9302 284.362 41.696C284.36 41.6802 284.358 41.6645 284.355 41.6489C284.303 41.3416 284.254 41.0243 284.208 40.6969C284.171 40.4378 284.136 40.1338 284.103 39.792C284.169 39.832 284.237 39.872 284.306 39.9111C285.022 40.3189 285.759 40.6862 286.515 41.0116C287.265 41.3364 287.995 41.6316 288.689 41.8907C289.374 42.1467 289.943 42.3541 290.397 42.5129C290.945 42.7053 291.058 42.7538 291.05 42.7458C291.106 42.7745 291.164 42.7967 291.224 42.812C291.363 42.852 291.505 42.8742 291.649 42.8782C291.941 42.8773 292.225 42.7816 292.46 42.6048C292.695 42.428 292.868 42.1794 292.955 41.8951L292.968 41.8591C293.02 41.7061 293.048 41.5456 293.051 41.3836C293.05 41.0865 292.961 40.7967 292.794 40.5531C292.628 40.3095 292.392 40.1238 292.119 40.0209" fill="white"/>
<path d="M299.682 37.2373C299.698 37.1716 299.706 37.1041 299.706 37.0364C299.707 36.8456 299.671 36.6565 299.597 36.481C299.524 36.3054 299.416 36.1473 299.28 36.0164C299.032 35.7797 298.708 35.6431 298.369 35.632C298.07 35.6006 297.769 35.6607 297.504 35.8044C297.306 35.9096 297.139 36.0658 297.019 36.2575C296.899 36.4492 296.83 36.6696 296.82 36.8969C296.779 37.5636 296.758 38.2907 296.758 39.0591C296.758 39.96 296.779 40.8502 296.82 41.7058C296.82 41.7227 296.82 41.7391 296.823 41.756C296.858 42.0757 296.998 42.3736 297.222 42.6004C297.363 42.7374 297.529 42.8435 297.712 42.9122C297.894 42.981 298.088 43.011 298.283 43.0004C298.608 43.0005 298.925 42.8933 299.186 42.6947C299.354 42.5644 299.488 42.3951 299.579 42.2008C299.669 42.0066 299.713 41.7932 299.706 41.5782C299.706 41.5352 299.703 41.4923 299.696 41.4498C299.694 41.4338 299.682 41.3373 299.664 41.0013C299.651 40.7468 299.641 40.4449 299.635 40.0956C299.629 39.74 299.625 39.3828 299.625 39.024C299.625 38.5747 299.632 38.1644 299.645 37.8031C299.647 37.6137 299.66 37.4245 299.683 37.2364" fill="white"/>
<path d="M299.8 29.1569C299.337 28.8899 298.812 28.7539 298.28 28.7627C297.892 28.7478 297.505 28.8124 297.141 28.9524C296.778 29.0925 296.445 29.3052 296.163 29.5782C295.889 29.8547 295.674 30.1862 295.532 30.5518C295.389 30.9173 295.323 31.3091 295.336 31.7022C295.329 32.0867 295.397 32.4687 295.537 32.8257C295.677 33.1827 295.886 33.5075 296.151 33.7809C296.428 34.0666 296.761 34.2905 297.127 34.4385C297.494 34.5865 297.886 34.6554 298.28 34.6409C298.807 34.6484 299.326 34.5126 299.784 34.2476C300.223 33.9925 300.587 33.6216 300.837 33.1738C301.088 32.726 301.215 32.2178 301.207 31.7022C301.213 31.1845 301.087 30.6741 300.841 30.2213C300.594 29.7773 300.235 29.4096 299.8 29.1569Z" fill="white"/>
<path d="M314.825 30.5218C313.831 29.9083 312.686 29.5984 311.526 29.6289C310.547 29.6253 309.583 29.8672 308.717 30.3333C307.952 30.7478 307.269 31.3032 306.703 31.9716C306.7 31.6676 306.693 31.3342 306.685 30.9791C306.695 30.6025 306.559 30.237 306.307 29.9616C306.055 29.6863 305.707 29.5232 305.338 29.5076C305 29.4642 304.658 29.5512 304.38 29.7516C304.194 29.8816 304.043 30.0573 303.941 30.2626C303.838 30.4679 303.788 30.6961 303.795 30.9262C303.781 31.1427 303.774 31.3747 303.774 31.6164V32.3564C303.774 33.2747 303.799 34.2876 303.846 35.3662C303.894 36.4449 303.955 37.5356 304.028 38.596C304.103 39.6627 304.188 40.648 304.282 41.5124C304.293 41.8821 304.445 42.2326 304.707 42.4882C304.969 42.7437 305.319 42.8837 305.682 42.8778C306.013 42.8753 306.336 42.7654 306.603 42.564C306.788 42.4233 306.936 42.2382 307.034 42.0251C307.132 41.812 307.177 41.5774 307.166 41.3422C307.166 41.3137 307.165 41.2852 307.162 41.2569C307.151 41.145 307.145 41.0325 307.145 40.92V40.4987C307.149 39.548 307.248 38.6003 307.441 37.6702C307.609 36.7945 307.896 35.9469 308.293 35.152C308.665 34.4332 309.183 33.8044 309.814 33.308C310.372 32.8902 311.057 32.6879 311.747 32.7369C312.78 32.8142 313.501 33.1702 313.951 33.8236C314.493 34.7279 314.753 35.7795 314.695 36.8382C314.691 37.5635 314.625 38.287 314.497 39.0004C314.37 39.7348 314.195 40.4598 313.975 41.1707C313.921 41.3245 313.893 41.4862 313.891 41.6493C313.889 41.8534 313.931 42.0553 314.012 42.2417C314.093 42.4281 314.213 42.5945 314.363 42.7298C314.64 42.9857 315.001 43.126 315.375 43.1231C315.659 43.1231 315.938 43.037 316.174 42.8756C316.444 42.6888 316.639 42.4083 316.721 42.0862C316.992 41.1914 317.215 40.282 317.388 39.3622C317.56 38.4284 317.646 37.48 317.645 36.5298C317.665 35.3185 317.425 34.1174 316.942 33.0111C316.488 31.9895 315.753 31.1247 314.826 30.5222" fill="white"/>
<path d="M331.183 40.0187C331.159 40.0084 331.136 39.9996 331.112 39.9916C330.459 39.7747 329.748 39.5271 328.995 39.2573C328.25 38.9907 327.504 38.6964 326.778 38.3822C326.105 38.0942 325.451 37.7635 324.818 37.392C324.557 37.2387 324.305 37.0688 324.065 36.8831C324.339 36.6254 324.639 36.3981 324.96 36.2049C325.753 35.7294 326.58 35.3159 327.435 34.968C328.415 34.5578 329.506 34.1191 330.678 33.6618C330.968 33.5737 331.223 33.3935 331.405 33.1474C331.588 32.9012 331.689 32.602 331.693 32.2933C331.693 32.0898 331.652 31.8883 331.573 31.7017C331.493 31.5152 331.376 31.3477 331.229 31.2098C330.957 30.9358 330.59 30.7812 330.208 30.7791C330.059 30.7819 329.912 30.8093 329.772 30.8604C329.165 31.0582 328.459 31.3169 327.677 31.6298C326.887 31.9449 326.079 32.3111 325.272 32.7191C324.495 33.1093 323.744 33.5503 323.022 34.0396C322.935 34.0987 322.852 34.1569 322.772 34.2173C322.766 33.9582 322.761 33.684 322.758 33.3956C322.751 32.7819 322.748 32.1616 322.748 31.5347C322.748 30.7726 322.755 30.0482 322.769 29.3613C322.781 28.676 322.795 28.1502 322.809 27.7511C322.82 27.3682 322.684 26.9961 322.43 26.7138C322.177 26.4316 321.825 26.2616 321.45 26.24C321.124 26.224 320.802 26.3152 320.53 26.5C320.338 26.6211 320.181 26.7917 320.075 26.9946C319.968 27.1974 319.916 27.4254 319.923 27.6556C319.882 28.7031 319.861 29.8076 319.861 30.9373C319.861 32.8116 319.92 34.728 320.035 36.6342C320.151 38.5404 320.331 40.3836 320.575 42.1009C320.579 42.1262 320.584 42.1529 320.59 42.1782C320.652 42.5102 320.826 42.8095 321.082 43.0236C321.338 43.2377 321.659 43.3529 321.99 43.3489C322.354 43.3475 322.704 43.2126 322.978 42.9689C323.154 42.813 323.287 42.614 323.366 42.3906C323.445 42.1673 323.466 41.9271 323.429 41.6929C323.427 41.6771 323.425 41.6613 323.422 41.6458C323.369 41.3385 323.32 41.0212 323.274 40.6938C323.238 40.4347 323.203 40.1307 323.169 39.7889C323.236 39.8289 323.304 39.8689 323.373 39.908C324.089 40.3157 324.826 40.6831 325.581 41.0084C326.332 41.3333 327.062 41.6284 327.756 41.8876C328.44 42.1436 329.01 42.351 329.464 42.5098C330.012 42.7022 330.126 42.7507 330.117 42.7427C330.172 42.7714 330.231 42.7936 330.291 42.8089C330.429 42.8488 330.572 42.8711 330.716 42.8751C331.008 42.8742 331.291 42.7785 331.526 42.6017C331.761 42.4249 331.935 42.1763 332.022 41.892L332.035 41.856C332.087 41.703 332.115 41.5425 332.117 41.3804C332.117 41.0834 332.027 40.7936 331.861 40.55C331.694 40.3064 331.459 40.1207 331.186 40.0178" fill="white"/>
<path d="M342.43 39.8178C341.854 40.1774 341.191 40.3658 340.517 40.3618C339.716 40.3729 338.924 40.2009 338.197 39.8582C337.553 39.5577 337.004 39.0807 336.61 38.4804C336.211 37.8452 336.012 37.1011 336.037 36.3471C336.019 35.4245 336.282 34.5189 336.788 33.7547C337.276 33.0122 337.986 32.4509 338.812 32.1547L338.848 32.1404C339.044 32.0576 339.25 32.0015 339.461 31.9738C339.737 31.9365 340.016 31.9184 340.295 31.9196C340.759 31.921 341.222 31.9701 341.677 32.0662C342.115 32.1555 342.541 32.2944 342.949 32.4804C343.153 32.5725 343.346 32.6894 343.522 32.8284C343.522 33.8187 343.566 34.784 343.649 35.708C343.68 36.0329 343.715 36.3453 343.756 36.6489C344.86 36.6809 345.936 37.014 346.871 37.6138C346.828 37.436 346.784 37.2582 346.75 37.072C346.526 35.7742 346.419 34.4579 346.432 33.14C346.432 32.8455 346.435 32.5502 346.442 32.2542C346.449 31.9582 346.459 31.6559 346.472 31.3471V31.3102C346.476 30.988 346.385 30.6719 346.21 30.4031C346.111 30.248 345.98 30.1165 345.826 30.0174C345.673 29.9182 345.5 29.8538 345.32 29.8284C345.088 29.7818 344.849 29.7883 344.619 29.8476C344.543 29.8654 344.468 29.8903 344.395 29.9218C343.855 29.649 343.287 29.4391 342.702 29.296C341.705 29.0293 340.673 28.928 339.645 28.996C339.462 29.009 339.28 29.0319 339.1 29.0644C337.955 29.2273 336.87 29.6897 335.952 30.4067C335.072 31.102 334.37 32.0033 333.903 33.0342C333.423 34.0985 333.179 35.2578 333.189 36.4293C333.171 37.6771 333.492 38.9056 334.116 39.9782C334.73 41.0113 335.607 41.8545 336.654 42.4173C337.764 43.0092 339.001 43.3092 340.254 43.2902H340.586C340.73 43.2901 340.875 43.281 341.018 43.2631C342.017 43.1456 342.985 42.8379 343.873 42.356C343.955 42.3116 344.034 42.2618 344.113 42.2138C343.955 42.049 343.809 41.873 343.676 41.6871C343.166 40.976 342.758 40.3538 342.429 39.8204" fill="white"/>
<path d="M363.241 33.0124C362.787 31.9908 362.052 31.126 361.125 30.5236C360.132 29.9098 358.987 29.5996 357.826 29.6298C356.848 29.6265 355.883 29.8687 355.018 30.3351C354.253 30.7492 353.57 31.3043 353.003 31.9724C353 31.6693 352.994 31.3356 352.986 30.9804C352.995 30.6037 352.859 30.2381 352.608 29.9626C352.356 29.6871 352.008 29.5236 351.639 29.5076C351.301 29.4652 350.959 29.5524 350.681 29.7524C350.494 29.8824 350.343 30.0581 350.241 30.2634C350.139 30.4687 350.089 30.6969 350.096 30.9271C350.082 31.1436 350.075 31.3756 350.075 31.6164V32.3564C350.075 33.2747 350.099 34.2876 350.147 35.3662C350.194 36.4449 350.256 37.5356 350.329 38.596C350.403 39.6627 350.489 40.6476 350.583 41.5124C350.593 41.8821 350.746 42.2326 351.008 42.4882C351.27 42.7437 351.62 42.8837 351.982 42.8778C352.314 42.8754 352.637 42.7653 352.903 42.5636C353.088 42.423 353.237 42.2379 353.335 42.0248C353.433 41.8116 353.478 41.577 353.466 41.3418C353.466 41.3136 353.465 41.2854 353.462 41.2573C353.451 41.1454 353.446 41.033 353.446 40.9204V40.4991C353.45 39.5485 353.549 38.6008 353.741 37.6707C353.909 36.7949 354.196 35.9474 354.593 35.1524C354.964 34.434 355.482 33.8054 356.112 33.3093C356.67 32.8909 357.355 32.6885 358.046 32.7382C359.079 32.8156 359.801 33.1707 360.25 33.8249C360.792 34.7292 361.052 35.7808 360.994 36.8396C360.99 37.5645 360.924 38.2878 360.796 39.0009C360.669 39.7355 360.494 40.4608 360.274 41.172C360.22 41.3259 360.192 41.4875 360.19 41.6507C360.188 41.8547 360.23 42.0567 360.311 42.243C360.392 42.4294 360.512 42.5958 360.662 42.7311C360.939 42.9867 361.3 43.127 361.674 43.1244C361.959 43.1244 362.237 43.0382 362.474 42.8769C362.743 42.6898 362.938 42.4094 363.02 42.0876C363.291 41.1927 363.514 40.2833 363.687 39.3636C363.859 38.4294 363.945 37.4808 363.943 36.5302C363.964 35.3193 363.724 34.1184 363.241 33.0124Z" fill="white"/>
<path d="M301.22 26.2818C300.908 26.5781 300.669 26.9447 300.521 27.3523C300.372 27.7599 300.32 28.1972 300.367 28.6293C301.02 28.4584 301.65 28.2046 302.242 27.8738C303.491 27.2364 303.321 25.556 303.321 25.556C303.321 25.556 301.92 25.6782 301.22 26.2804" fill="white"/>
<path d="M346.904 38.784C346.057 38.067 345.007 37.6476 343.908 37.588C343.365 37.5501 342.82 37.58 342.284 37.6769C342.549 38.2194 342.84 38.7478 343.157 39.26C343.482 39.7907 343.892 40.4156 344.409 41.14C344.547 41.333 344.704 41.5116 344.877 41.6733C346.221 42.9404 348.166 42.8102 349.04 42.6693C348.798 41.8832 348.485 41.1214 348.106 40.3938C347.803 39.7878 347.396 39.2422 346.904 38.7827" fill="white"/>
<path d="M371.13 26.1822H370.363V43.3729H371.13V26.1822Z" fill="white"/>
<path d="M260.412 36.4031C260.995 36.4031 261.565 36.2265 262.05 35.8957C262.535 35.5649 262.914 35.0947 263.137 34.5446C263.36 33.9944 263.418 33.3891 263.305 32.8051C263.191 32.2211 262.91 31.6846 262.497 31.2636C262.085 30.8425 261.559 30.5558 260.987 30.4396C260.415 30.3235 259.822 30.3831 259.283 30.611C258.744 30.8388 258.283 31.2247 257.959 31.7198C257.635 32.2149 257.462 32.797 257.462 33.3924C257.463 34.1906 257.774 34.9559 258.327 35.5203C258.88 36.0847 259.63 36.4022 260.412 36.4031ZM260.412 30.7253C260.809 30.7254 261.197 30.8456 261.526 31.0707C261.856 31.2959 262.114 31.6158 262.265 31.9901C262.417 32.3644 262.457 32.7762 262.38 33.1735C262.302 33.5708 262.111 33.9358 261.83 34.2222C261.55 34.5087 261.192 34.7038 260.803 34.7828C260.414 34.8619 260.01 34.8214 259.643 34.6664C259.277 34.5114 258.963 34.2489 258.743 33.9121C258.522 33.5753 258.404 33.1793 258.404 32.7742C258.404 32.2309 258.616 31.7098 258.992 31.3256C259.369 30.9414 259.879 30.7254 260.412 30.7253Z" fill="white"/>
<path d="M261.069 32.4711C261.174 32.471 261.277 32.4391 261.365 32.3793C261.452 32.3195 261.521 32.2346 261.561 32.1353C261.601 32.0359 261.612 31.9267 261.591 31.8212C261.57 31.7158 261.52 31.619 261.445 31.543C261.371 31.4671 261.276 31.4154 261.172 31.3944C261.069 31.3735 260.962 31.3843 260.865 31.4254C260.768 31.4666 260.684 31.5362 260.626 31.6256C260.567 31.715 260.536 31.8201 260.536 31.9276C260.536 31.999 260.55 32.0697 260.577 32.1357C260.603 32.2017 260.643 32.2617 260.692 32.3122C260.742 32.3627 260.8 32.4027 260.865 32.43C260.93 32.4573 260.999 32.4712 261.069 32.4711Z" fill="white"/>
<path d="M255.02 32.8911C255.02 32.2957 254.847 31.7136 254.523 31.2184C254.199 30.7232 253.738 30.3373 253.199 30.1093C252.66 29.8814 252.067 29.8217 251.495 29.9378C250.923 30.0539 250.397 30.3406 249.985 30.7617C249.572 31.1827 249.291 31.7192 249.178 32.3032C249.064 32.8872 249.122 33.4925 249.346 34.0426C249.569 34.5927 249.947 35.0628 250.432 35.3935C250.917 35.7242 251.488 35.9006 252.071 35.9004C252.853 35.8996 253.603 35.5821 254.156 35.0177C254.709 34.4532 255.019 33.6879 255.02 32.8898M250.063 32.2724C250.063 31.8673 250.181 31.4714 250.402 31.1346C250.622 30.7978 250.936 30.5353 251.302 30.3803C251.669 30.2253 252.073 30.1848 252.462 30.2638C252.851 30.3429 253.209 30.538 253.489 30.8244C253.77 31.1109 253.961 31.4758 254.039 31.8731C254.116 32.2705 254.076 32.6823 253.925 33.0566C253.773 33.4309 253.516 33.7508 253.186 33.9759C252.856 34.201 252.468 34.3212 252.071 34.3213C251.538 34.3212 251.028 34.1053 250.651 33.7211C250.275 33.3369 250.063 32.8158 250.063 32.2724Z" fill="white"/>
<path d="M252.726 30.8827C252.62 30.8827 252.517 30.9146 252.43 30.9743C252.342 31.0341 252.274 31.1191 252.233 31.2185C252.193 31.3179 252.182 31.4273 252.203 31.5328C252.223 31.6383 252.274 31.7353 252.349 31.8113C252.423 31.8874 252.518 31.9392 252.622 31.9602C252.725 31.9812 252.832 31.9704 252.93 31.9293C253.027 31.8881 253.11 31.8184 253.169 31.7289C253.227 31.6394 253.259 31.5343 253.259 31.4267C253.259 31.3552 253.245 31.2845 253.218 31.2185C253.191 31.1525 253.152 31.0925 253.103 31.042C253.053 30.9915 252.994 30.9514 252.93 30.9241C252.865 30.8967 252.796 30.8827 252.726 30.8827Z" fill="white"/>
<path d="M277.852 41.616C276.407 40.2604 272.431 38.1804 269.694 40.4413C270.247 39.1265 270.531 37.7103 270.529 36.2796C270.526 33.9091 269.752 31.6066 268.33 29.7329C268.695 28.7073 269.136 27.7118 269.65 26.7551C270.39 25.8418 271.231 25.0179 272.155 24.2996C272.329 24.4559 272.544 24.5587 272.773 24.5962C273.003 24.6336 273.238 24.6041 273.451 24.5111C274.926 23.9031 273.955 21.5253 272.485 22.1947C272.319 22.2668 272.17 22.3756 272.049 22.5134C271.929 22.6512 271.84 22.8145 271.788 22.9916L268.958 23.06C268.741 23.0676 268.529 22.9988 268.356 22.865C268.184 22.7312 268.062 22.5408 268.011 22.3258L267.276 18.3182C267.527 18.2511 267.751 18.105 267.916 17.9006C268.081 17.6962 268.179 17.4439 268.195 17.1796C268.211 16.9153 268.146 16.6525 268.007 16.4285C267.869 16.2046 267.665 16.0308 267.424 15.932C267.183 15.8332 266.918 15.8144 266.667 15.8782C266.415 15.942 266.189 16.0852 266.022 16.2875C265.854 16.4897 265.753 16.7407 265.734 17.0048C265.714 17.2688 265.777 17.5325 265.912 17.7582C265.459 17.9338 262.552 20.5284 262.057 20.2716C261.539 20.2484 259.694 18.1013 259.316 17.7596C259.378 17.6056 259.41 17.4405 259.41 17.274C259.409 17.1074 259.377 16.9425 259.314 16.7888C259.251 16.6351 259.159 16.4956 259.043 16.3782C258.927 16.2608 258.79 16.168 258.639 16.1049C256.708 15.424 256.282 18.6698 258.322 18.5218C258.782 20.6996 258.434 23.7982 257.319 25.1347C246.116 26.3884 243.241 41.3218 253.406 46.2551C255.134 47.1047 257.03 47.5347 258.947 47.5116C260.865 47.4884 262.751 47.0128 264.458 46.1218C265.099 45.7835 265.709 45.3862 266.279 44.9347C265.294 46.948 268.047 51.2276 268.453 51.4236C268.493 51.4707 268.549 51.5 268.61 51.5051C268.671 51.5101 268.731 51.4906 268.778 51.4507C270.797 49.6867 271.753 46.9511 269.573 43.0062C270.492 43.408 271.432 43.7587 272.388 44.0569C275.537 44.9849 278.267 41.9511 277.852 41.6169M272.475 23.3249C272.519 22.5591 273.704 22.828 273.427 23.5413C273.382 23.6499 273.3 23.7387 273.198 23.7925C273.095 23.8463 272.976 23.8618 272.863 23.8361C272.75 23.8104 272.65 23.7453 272.579 23.6519C272.508 23.5586 272.471 23.4429 272.475 23.3249ZM268.803 33.0236C268.938 33.0236 269.067 33.0782 269.163 33.1753C269.258 33.2725 269.311 33.4043 269.311 33.5418C269.311 33.6792 269.258 33.811 269.163 33.9082C269.067 34.0054 268.938 34.06 268.803 34.06C268.669 34.06 268.54 34.0054 268.444 33.9082C268.349 33.811 268.296 33.6792 268.296 33.5418C268.296 33.4043 268.349 33.2725 268.444 33.1753C268.54 33.0782 268.669 33.0236 268.803 33.0236ZM269.432 37.0791C269.432 37.2166 269.378 37.3484 269.283 37.4456C269.188 37.5427 269.059 37.5973 268.924 37.5973C268.789 37.5973 268.66 37.5427 268.565 37.4456C268.47 37.3484 268.416 37.2166 268.416 37.0791C268.416 36.9417 268.47 36.8099 268.565 36.7127C268.66 36.6155 268.789 36.5609 268.924 36.5609C269.059 36.5609 269.188 36.6155 269.283 36.7127C269.378 36.8099 269.432 36.9417 269.432 37.0791ZM268.405 40.5382C268.405 40.6757 268.352 40.8075 268.257 40.9047C268.162 41.0018 268.032 41.0564 267.898 41.0564C267.763 41.0564 267.634 41.0018 267.539 40.9047C267.444 40.8075 267.39 40.6757 267.39 40.5382C267.39 40.4008 267.444 40.269 267.539 40.1718C267.634 40.0746 267.763 40.02 267.898 40.02C268.032 40.02 268.162 40.0746 268.257 40.1718C268.352 40.269 268.405 40.4008 268.405 40.5382ZM266.49 16.9049C266.541 16.7783 266.64 16.6775 266.764 16.6245C266.887 16.5715 267.027 16.5705 267.151 16.6218C267.276 16.6731 267.376 16.7724 267.429 16.8983C267.483 17.0242 267.485 17.1665 267.436 17.2942C267.382 17.4166 267.283 17.5129 267.161 17.5628C267.039 17.6128 266.902 17.6127 266.78 17.5624C266.658 17.5122 266.56 17.4158 266.505 17.2932C266.451 17.1707 266.446 17.0316 266.49 16.9049ZM258.406 17.7493C258.281 17.8057 258.139 17.8095 258.012 17.7599C257.884 17.7104 257.781 17.6114 257.724 17.4846C257.667 17.3577 257.662 17.2131 257.709 17.0822C257.756 16.9513 257.852 16.8447 257.975 16.7853C258.1 16.729 258.242 16.7252 258.37 16.7747C258.497 16.8243 258.601 16.9232 258.657 17.0501C258.714 17.177 258.719 17.3215 258.672 17.4524C258.625 17.5833 258.53 17.69 258.406 17.7493ZM259.467 22.7911C259.556 21.6482 259.503 20.4983 259.31 19.3689C259.888 19.8084 261.33 21.6391 262.118 21.6324C262.901 21.8822 265.637 19.5458 266.289 19.2267C267.588 23.4076 265.767 24.3222 271.273 23.948C269.963 24.9907 268.813 25.7569 268.167 27.1996C267.964 27.616 267.644 28.3364 267.47 28.7667L267.22 28.6711L258.619 25.3773C258.238 25.4218 259.454 23.8062 259.466 22.7911M265.941 35.0973C265.941 34.9598 265.994 34.8279 266.09 34.7306C266.185 34.6333 266.314 34.5787 266.449 34.5787C266.584 34.5787 266.713 34.6333 266.808 34.7306C266.904 34.8279 266.957 34.9598 266.957 35.0973C266.957 35.2349 266.904 35.3668 266.808 35.4641C266.713 35.5614 266.584 35.616 266.449 35.616C266.314 35.616 266.185 35.5614 266.09 35.4641C265.994 35.3668 265.941 35.2349 265.941 35.0973ZM266.246 38.2916C266.246 38.4291 266.192 38.561 266.097 38.6583C266.002 38.7556 265.872 38.8102 265.738 38.8102C265.603 38.8102 265.474 38.7556 265.378 38.6583C265.283 38.561 265.229 38.4291 265.229 38.2916C265.229 38.154 265.283 38.0221 265.378 37.9248C265.474 37.8275 265.603 37.7729 265.738 37.7729C265.872 37.7729 266.002 37.8275 266.097 37.9248C266.192 38.0221 266.246 38.154 266.246 38.2916ZM266.566 31.6076C266.431 31.6076 266.302 31.5529 266.207 31.4556C266.112 31.3584 266.058 31.2264 266.058 31.0889C266.058 30.9513 266.112 30.8194 266.207 30.7221C266.302 30.6249 266.431 30.5702 266.566 30.5702C266.701 30.5702 266.83 30.6249 266.926 30.7221C267.021 30.8194 267.074 30.9513 267.074 31.0889C267.074 31.2264 267.021 31.3584 266.926 31.4556C266.83 31.5529 266.701 31.6076 266.566 31.6076ZM260.411 29.9596C264.809 29.9836 264.809 36.804 260.411 36.8253C256.013 36.8013 256.013 29.9809 260.411 29.9596ZM248.679 32.8929C248.702 28.3662 255.439 28.3662 255.462 32.8929C255.439 37.4196 248.701 37.4187 248.679 32.8929ZM251.908 37.8951C251.895 37.8331 251.906 37.7684 251.939 37.7145C251.971 37.6606 252.023 37.6216 252.083 37.6058C252.143 37.59 252.207 37.5985 252.261 37.6295C252.315 37.6606 252.356 37.7118 252.374 37.7724C252.925 39.408 254.44 39.0467 255.221 38.8542C255.953 38.5973 256.373 39.2613 257.109 39.3249C258.748 39.4751 259.102 38.5249 259.116 38.4862C259.138 38.4273 259.183 38.3796 259.239 38.353C259.295 38.3265 259.359 38.3231 259.418 38.3437C259.477 38.3643 259.525 38.4072 259.554 38.4635C259.582 38.5197 259.588 38.585 259.571 38.6458C259.614 38.8324 258.626 40.0867 257.065 39.8138C256.339 39.8076 255.995 39.1778 255.357 39.3249C254.034 39.7351 252.348 39.5569 251.907 37.8951M277.353 41.8551C277.249 41.7169 275.456 41.4427 273.532 41.248C273.516 41.2107 275.513 40.4284 274.722 40.38C273.178 41.2067 273.185 41.2076 271.513 41.2738C271.502 41.2218 272.994 39.9404 272.254 40.1431L271.131 41.3218C270.268 41.5213 269.833 41.4222 269.758 41.7262C269.971 41.9511 270.23 41.6498 271.133 41.5716C271.208 41.6124 271.972 42.9409 272.117 42.7391C272.361 42.636 271.409 41.6418 271.404 41.5342C273.422 41.2164 273.038 41.6156 274.191 43.056C274.955 43.388 273.293 41.5262 273.326 41.4769C274.624 41.5835 275.914 41.7676 277.191 42.0284C276.421 42.8071 274.677 44.2747 272.525 43.6027C271.162 43.3529 268.563 41.6644 268.868 42.6196C270.161 45.1498 271.4 48.1164 268.99 50.5596C268.698 49.2799 268.479 47.9839 268.334 46.6782C268.34 46.6249 270.285 48.2867 269.909 47.5098C268.452 46.376 268.084 46.7844 268.326 44.7156C268.395 44.7213 269.466 45.6444 269.53 45.404C269.539 45.3906 269.545 45.3756 269.549 45.3598C269.552 45.344 269.552 45.3277 269.549 45.3118C269.546 45.296 269.54 45.2809 269.531 45.2674C269.522 45.2539 269.511 45.2424 269.498 45.2333C268.042 44.2813 268.334 44.5182 268.551 43.1773C268.294 42.6387 268.213 43.6369 268.11 44.4436C268.115 44.512 266.394 46.0156 267.164 45.8009L268.073 44.8364C268.067 46.5449 268.05 46.5609 267.303 48.1396C267.396 48.9249 268.053 46.9218 268.114 46.8951C268.261 49.0662 268.998 50.6356 268.651 50.9244C268.179 50.3227 266.763 48.3982 266.604 46.7467C266.432 45.8093 266.856 44.8156 267.032 43.9538C266.77 43.6427 266.197 44.4871 265.909 44.6204C263.483 46.4843 260.446 47.3212 257.43 46.9569C255.728 46.7636 254.088 46.1902 252.627 45.2773C256.908 46.34 264.858 45.7218 268.887 41.556C268.452 42.1893 269.09 41.488 269.241 41.3987C271.698 38.9098 275.222 39.924 277.353 41.8529" fill="white"/>
</g>
<defs>
<filter id="filter0_d_0_1" x="438.755" y="2.089" width="34.679" height="67.137" filterUnits="userSpaceOnUse" color-interpolation-filters="sRGB">
<feFlood flood-opacity="0" result="BackgroundImageFix"/>
<feColorMatrix in="SourceAlpha" type="matrix" values="0 0 0 0 0 0 0 0 0 0 0 0 0 0 0 0 0 0 127 0" result="hardAlpha"/>
<feOffset dx="3" dy="3"/>
<feColorMatrix type="matrix" values="0 0 0 0 0 0 0 0 0 0 0 0 0 0 0 0 0 0 0.25 0"/>
<feBlend mode="normal" in2="BackgroundImageFix" result="effect1_dropShadow_0_1"/>
<feBlend mode="normal" in="SourceGraphic" in2="effect1_dropShadow_0_1" result="shape"/>
</filter>
<filter id="filter1_d_0_1" x="468.313" y="4.01969" width="73.6916" height="63.2883" filterUnits="userSpaceOnUse" color-interpolation-filters="sRGB">
<feFlood flood-opacity="0" result="BackgroundImageFix"/>
<feColorMatrix in="SourceAlpha" type="matrix" values="0 0 0 0 0 0 0 0 0 0 0 0 0 0 0 0 0 0 127 0" result="hardAlpha"/>
<feOffset dx="3" dy="3"/>
<feColorMatrix type="matrix" values="0 0 0 0 0 0 0 0 0 0 0 0 0 0 0 0 0 0 0.25 0"/>
<feBlend mode="normal" in2="BackgroundImageFix" result="effect1_dropShadow_0_1"/>
<feBlend mode="normal" in="SourceGraphic" in2="effect1_dropShadow_0_1" result="shape"/>
</filter>
<filter id="filter2_d_0_1" x="0.600006" y="0.764908" width="451.126" height="70.1923" filterUnits="userSpaceOnUse" color-interpolation-filters="sRGB">
<feFlood flood-opacity="0" result="BackgroundImageFix"/>
<feColorMatrix in="SourceAlpha" type="matrix" values="0 0 0 0 0 0 0 0 0 0 0 0 0 0 0 0 0 0 127 0" result="hardAlpha"/>
<feOffset dx="3" dy="3"/>
<feColorMatrix type="matrix" values="0 0 0 0 0 0 0 0 0 0 0 0 0 0 0 0 0 0 0.25 0"/>
<feBlend mode="normal" in2="BackgroundImageFix" result="effect1_dropShadow_0_1"/>
<feBlend mode="normal" in="SourceGraphic" in2="effect1_dropShadow_0_1" result="shape"/>
</filter>
</defs>
</svg>
