<svg width="563" height="76" viewBox="0 0 563 76" fill="none" xmlns="http://www.w3.org/2000/svg">
<g filter="url(#filter0_d_2003_605)">
<path d="M454.07 69.1926V2.73523L486.895 5.0709V66.858L454.07 69.1926Z" fill="#954E2A"/>
</g>
<path d="M454.07 62.3268V9.60098L486.895 11.4545V60.4752L454.07 62.3268Z" fill="#9A5634"/>
<path d="M454.07 55.7641V16.1649L486.895 17.5564V54.3718L454.07 55.7641Z" fill="#954E2A"/>
<path d="M454.07 47.8205V24.1093L486.895 24.9425V46.985L454.07 47.8205Z" fill="#9A5634"/>
<path d="M454.07 41.0574V30.8708L486.895 31.2288V40.6994L454.07 41.0574Z" fill="#954E2A"/>
<g filter="url(#filter1_d_2003_605)">
<path d="M495.604 67.1239C495.613 67.1239 495.619 67.122 495.629 67.122C495.673 67.122 495.718 67.1194 495.766 67.116C495.925 67.1133 496.085 67.105 496.24 67.0917C496.316 67.0864 496.392 67.0766 496.468 67.0686C496.525 67.0607 496.581 67.0554 496.638 67.0474C497.142 66.9855 497.635 66.8582 498.105 66.6687C499.357 66.1712 500.432 65.3111 501.192 64.1985C505.472 58.1175 504.201 44.5254 514.681 44.5754C529.682 45.4465 548.161 46.5449 550.762 46.6964C550.858 46.7062 550.91 46.7123 550.914 46.7123C551.015 46.7123 551.072 46.7157 551.074 46.7157C551.724 46.7424 552.372 46.6301 552.974 46.3863C553.577 46.1426 554.121 45.773 554.569 45.3022C556.625 42.9954 557.815 40.046 557.936 36.9587V36.956C557.94 36.7625 557.938 36.5674 557.936 36.3739C557.929 36.2379 557.919 36.1001 557.91 35.9633C557.919 35.8266 557.929 35.6903 557.936 35.5532C557.94 35.3589 557.941 35.1638 557.936 34.9714V34.9684C557.814 31.881 556.624 28.9318 554.568 26.6252C554.12 26.1545 553.576 25.7849 552.974 25.5409C552.371 25.297 551.723 25.1844 551.073 25.2106L550.913 25.2171C550.909 25.2171 550.858 25.2193 550.761 25.2303C548.162 25.3848 529.681 26.4836 514.68 27.3512C504.2 27.4009 505.47 13.8103 501.192 7.7285C500.432 6.61585 499.356 5.75588 498.104 5.25914C497.634 5.06957 497.141 4.94225 496.638 4.8804L496.467 4.85995C496.391 4.85199 496.315 4.84328 496.24 4.83685C496.084 4.82359 495.924 4.81488 495.765 4.81223C495.717 4.80958 495.672 4.80579 495.628 4.80579C495.618 4.80579 495.612 4.8039 495.604 4.8039C495.604 4.8039 484.69 4.70845 484.69 4.73421V67.1955C484.69 67.2205 495.603 67.1239 495.604 67.1239M539.755 35.9648C539.756 34.3651 542.338 33.0698 545.521 33.0698C548.705 33.0698 551.288 34.3651 551.289 35.9648C551.29 37.5646 548.706 38.861 545.521 38.861C542.336 38.861 539.756 37.5646 539.755 35.9648Z" fill="#D18F2A"/>
</g>
<path d="M494.201 4.72815H484.393V67.2H494.201V4.72815Z" fill="#EBECEC"/>
<g filter="url(#filter2_d_2003_605)">
<path d="M460.696 59.0659C458.184 56.8439 456.802 52.6331 458.104 49.4752C458.776 47.8466 460.52 46.3112 460.429 44.4296C460.349 42.7924 458.696 42.0004 458.396 40.4741C458.045 38.6899 459.167 36.7905 459.41 35.051C460.407 27.8648 459.143 20.5779 458.526 13.4251C458.646 12.9346 458.774 12.4631 458.915 12.0238C459.821 9.19006 466.208 5.99012 463.609 2.94128C462.094 1.16122 456.944 1.27712 454.921 1.45361C453.409 1.58579 451.927 1.66646 450.418 1.76644H14V69.9012H431.948C435.346 70.1561 438.784 70.4784 442.22 70.706C448.593 71.1287 454.955 71.2166 461.019 69.9084C466.692 68.6843 464.261 62.2147 460.695 59.0671" fill="#30AA21"/>
</g>
<g opacity="0.5">
<mask id="mask0_2003_605" style="mask-type:luminance" maskUnits="userSpaceOnUse" x="451" y="2" width="10" height="27">
<path d="M460.528 2.20996H451.563V28.6617H460.528V2.20996Z" fill="white"/>
</mask>
<g mask="url(#mask0_2003_605)">
<path d="M455.252 3.371C455.776 3.05517 456.344 2.81843 456.937 2.66844C460.388 1.77083 461.492 1.96967 459.634 5.34725C457.413 9.38761 455.37 8.29799 455.699 16.4984C455.935 22.3961 456.028 27.3208 454.386 28.6331C453.518 29.3247 451.74 17.969 451.702 17.2756C451.457 12.9727 451.058 5.92103 455.252 3.371Z" fill="white"/>
</g>
</g>
<g style="mix-blend-mode:multiply">
<mask id="mask1_2003_605" style="mask-type:luminance" maskUnits="userSpaceOnUse" x="426" y="18" width="12" height="50">
<path d="M437.214 18.1453H426.489V67.4424H437.214V18.1453Z" fill="white"/>
</mask>
<g mask="url(#mask1_2003_605)">
<path d="M432.085 35.8918C432.085 35.8918 431.757 47.6997 433.395 55.2419C435.033 62.784 440.288 67.1528 434.71 67.3766C426.51 67.705 425.853 67.3766 426.836 52.2904C427.82 37.2042 428.476 31.9575 428.15 26.3817C427.434 14.2319 432.544 16.3429 431.757 27.3665C431.428 31.9587 432.742 30.3206 432.085 35.893" fill="#F7F8F8"/>
</g>
</g>
<g opacity="0.4">
<mask id="mask2_2003_605" style="mask-type:luminance" maskUnits="userSpaceOnUse" x="452" y="60" width="11" height="10">
<path d="M462.107 60.0495H452.677V69.3289H462.107V60.0495Z" fill="white"/>
</mask>
<g mask="url(#mask2_2003_605)">
<path d="M459.233 61.0721C459.233 61.0721 464.491 66.3305 460.78 67.5671C457.069 68.8036 453.357 70.9704 452.736 67.2576C452.115 63.5449 456.448 57.6684 459.233 61.0721Z" fill="white"/>
</g>
</g>
<g clip-path="url(#clip0_2003_605)">
<mask id="mask3_2003_605" style="mask-type:luminance" maskUnits="userSpaceOnUse" x="235" y="17" width="202" height="38">
<path d="M437 17H235V55H437V17Z" fill="white"/>
</mask>
<g mask="url(#mask3_2003_605)">
<path d="M267.682 42.5381C267.407 42.3143 264.928 40.3523 262.576 40.2007C262.105 40.17 261.632 40.1924 261.166 40.2674C261.248 39.7365 261.291 39.2002 261.296 38.663C261.291 36.4149 260.613 34.2203 259.349 32.3638C259.375 32.2997 259.4 32.2372 259.429 32.1692C259.547 31.8821 259.681 31.5654 259.817 31.2728C259.917 31.0383 260.034 30.8112 260.167 30.5934C260.611 30.0427 261.113 29.5414 261.664 29.0984C262.266 29.245 262.901 29.1571 263.441 28.8525C263.981 28.5479 264.386 28.0492 264.574 27.457C264.762 26.8647 264.719 26.223 264.454 25.6611C264.189 25.0993 263.722 24.6591 263.146 24.4294C262.673 24.2389 262.152 24.201 261.657 24.3212C261.161 24.4414 260.715 24.7136 260.381 25.0999L258.762 25.1388L258.302 22.6738C258.591 22.3877 258.805 22.0341 258.923 21.6447C259.042 21.2553 259.062 20.8424 258.983 20.4431C258.903 20.0439 258.725 19.6708 258.466 19.3575C258.207 19.0442 257.874 18.8006 257.497 18.6484C257.121 18.4963 256.712 18.4405 256.309 18.4861C255.906 18.5316 255.52 18.6771 255.187 18.9094C254.853 19.1416 254.583 19.4535 254.399 19.8167C254.216 20.18 254.126 20.5834 254.136 20.9904L253.589 21.3831L252.104 22.4462L250.766 21.0951C250.768 20.6548 250.652 20.2221 250.43 19.8422C250.208 19.4623 249.888 19.1494 249.504 18.936C249.12 18.7226 248.686 18.6168 248.248 18.6295C247.809 18.6422 247.382 18.7729 247.011 19.0082C246.64 19.2434 246.338 19.5743 246.139 19.9664C245.939 20.3584 245.848 20.7972 245.875 21.2367C245.902 21.6762 246.047 22.1002 246.293 22.4645C246.54 22.8288 246.879 23.1198 247.277 23.3072C247.353 23.9572 247.373 24.6127 247.336 25.2663V25.2688C247.331 25.3131 247.327 25.357 247.32 25.4005C247.218 25.9918 247.026 26.5636 246.749 27.0953C240.938 28.0669 236.503 32.8772 236.503 38.6634C236.514 40.2987 236.874 41.9128 237.56 43.3965C238.245 44.8802 239.24 46.1991 240.477 47.2641C240.528 47.3244 240.584 47.3808 240.643 47.4329C240.734 47.5089 240.832 47.5757 240.924 47.6491C241 47.7108 241.079 47.7695 241.156 47.829C241.382 48 241.61 48.1634 241.846 48.3188C241.938 48.3791 242.03 48.4378 242.125 48.4961C242.352 48.6368 242.584 48.7705 242.82 48.8972C242.933 48.9576 243.046 49.0171 243.161 49.0741C243.384 49.1852 243.61 49.2878 243.84 49.3853C243.976 49.4431 244.111 49.5001 244.248 49.5542C244.466 49.6386 244.687 49.7125 244.909 49.7843C245.063 49.8337 245.216 49.8852 245.372 49.9295C245.592 49.9912 245.815 50.0419 246.038 50.0925C246.2 50.1288 246.359 50.1685 246.522 50.1989C246.768 50.2441 247.016 50.2758 247.265 50.3066C247.41 50.3252 247.551 50.3488 247.698 50.3632C248.096 50.3999 248.497 50.421 248.899 50.421C249.281 50.421 249.658 50.3986 250.035 50.3665C250.127 50.3589 250.218 50.3501 250.309 50.3399C250.668 50.3011 251.024 50.2525 251.375 50.1854L251.402 50.1808C251.789 50.106 252.17 50.0098 252.545 49.9013L252.634 49.8738C253.295 49.6789 253.938 49.4304 254.559 49.1307C255.029 51.2773 256.744 53.3213 256.956 53.5661C257.227 53.88 257.609 54.0747 258.022 54.1084C258.434 54.142 258.843 54.0119 259.161 53.746C260.436 52.6786 262.3 50.1187 261.403 47.1885C261.878 47.3284 262.37 47.4011 262.864 47.4047C265.191 47.4047 267.079 45.8475 267.935 44.7447C268.19 44.4173 268.306 44.0028 268.259 43.5904C268.211 43.178 268.005 42.8008 267.683 42.5398" fill="white"/>
<path d="M259.718 38.663C259.718 44.2806 254.875 48.8351 248.902 48.8351C242.93 48.8351 238.082 44.2806 238.082 38.663C238.082 33.0453 242.925 28.4908 248.898 28.4908C254.87 28.4908 259.713 33.0449 259.713 38.663" fill="#F29100"/>
<path d="M253.338 35.9928C253.338 36.5724 253.167 37.1389 252.846 37.6208C252.525 38.1026 252.069 38.4782 251.535 38.7C251.001 38.9218 250.414 38.9798 249.847 38.8667C249.281 38.7537 248.761 38.4746 248.352 38.0648C247.944 37.655 247.665 37.1329 247.553 36.5645C247.44 35.9961 247.498 35.4069 247.719 34.8715C247.94 34.3361 248.314 33.8784 248.795 33.5564C249.275 33.2345 249.84 33.0626 250.417 33.0626C251.192 33.0628 251.934 33.3716 252.482 33.9211C253.03 34.4706 253.338 35.2158 253.338 35.9928Z" fill="white"/>
<path d="M252.306 35.4207C252.305 35.7954 252.195 36.1616 251.987 36.4731C251.78 36.7846 251.485 37.0273 251.14 37.1707C250.795 37.314 250.415 37.3515 250.049 37.2784C249.683 37.2053 249.346 37.0248 249.082 36.7599C248.818 36.495 248.638 36.1575 248.565 35.79C248.492 35.4225 248.53 35.0417 248.673 34.6955C248.816 34.3493 249.057 34.0534 249.368 33.8452C249.678 33.637 250.043 33.5259 250.417 33.5258C250.918 33.5258 251.398 33.7254 251.752 34.0808C252.107 34.4362 252.306 34.9182 252.306 35.4207Z" fill="black"/>
<path d="M251.535 34.6375C251.535 34.7371 251.506 34.8345 251.451 34.9174C251.396 35.0003 251.317 35.0649 251.226 35.1031C251.134 35.1413 251.033 35.1514 250.936 35.132C250.838 35.1127 250.749 35.0648 250.679 34.9944C250.609 34.924 250.561 34.8343 250.541 34.7366C250.522 34.6389 250.532 34.5377 250.57 34.4456C250.608 34.3536 250.672 34.275 250.755 34.2197C250.837 34.1644 250.935 34.135 251.034 34.1351C251.167 34.1352 251.294 34.1881 251.388 34.2823C251.482 34.3765 251.535 34.5042 251.535 34.6375Z" fill="white"/>
<path d="M245.49 35.5296C245.49 36.1092 245.318 36.6757 244.998 37.1576C244.677 37.6395 244.22 38.015 243.687 38.2368C243.153 38.4586 242.566 38.5166 241.999 38.4036C241.433 38.2905 240.912 38.0114 240.504 37.6016C240.096 37.1918 239.817 36.6697 239.705 36.1013C239.592 35.5329 239.65 34.9437 239.871 34.4083C240.092 33.8729 240.466 33.4152 240.947 33.0933C241.427 32.7713 241.992 32.5994 242.569 32.5994C243.344 32.5995 244.086 32.9083 244.634 33.4578C245.182 34.0073 245.49 34.7525 245.49 35.5296Z" fill="white"/>
<path d="M244.458 34.9575C244.458 35.3321 244.347 35.6983 244.14 36.0098C243.932 36.3212 243.637 36.564 243.292 36.7074C242.947 36.8508 242.568 36.8883 242.202 36.8153C241.835 36.7423 241.499 36.562 241.235 36.2972C240.971 36.0324 240.791 35.695 240.718 35.3276C240.645 34.9602 240.682 34.5794 240.825 34.2332C240.967 33.887 241.209 33.591 241.519 33.3827C241.83 33.1743 242.194 33.0629 242.568 33.0626C242.816 33.0626 243.061 33.1116 243.291 33.2069C243.52 33.3021 243.728 33.4417 243.903 33.6176C244.079 33.7936 244.218 34.0025 244.313 34.2324C244.408 34.4623 244.457 34.7087 244.457 34.9575" fill="black"/>
<path d="M243.687 34.1743C243.687 34.2739 243.658 34.3713 243.603 34.4541C243.548 34.5369 243.469 34.6015 243.378 34.6396C243.286 34.6778 243.185 34.6878 243.088 34.6684C242.991 34.649 242.901 34.601 242.831 34.5306C242.761 34.4602 242.713 34.3705 242.694 34.2728C242.674 34.1752 242.684 34.0739 242.722 33.9819C242.76 33.89 242.825 33.8114 242.907 33.7561C242.99 33.7008 243.087 33.6714 243.186 33.6714C243.319 33.6714 243.446 33.7244 243.54 33.8187C243.634 33.913 243.687 34.0409 243.687 34.1743Z" fill="white"/>
<path d="M247.635 41.9483C247.52 41.9483 247.398 41.9432 247.27 41.931C246.894 41.8831 246.534 41.7517 246.215 41.5463C246.133 41.4969 246.041 41.4653 245.946 41.4535C245.851 41.4418 245.755 41.4503 245.663 41.4783C245.521 41.5224 245.377 41.5592 245.232 41.5885C244.103 41.7933 242.77 41.5244 242.417 40.1559C242.404 40.0984 242.414 40.0381 242.445 39.9877C242.475 39.9374 242.524 39.9009 242.581 39.8861C242.638 39.8713 242.699 39.8793 242.75 39.9084C242.801 39.9375 242.839 39.9854 242.855 40.0419C243.202 41.385 244.701 41.2242 245.151 41.1397C245.28 41.1136 245.408 41.0807 245.534 41.0409C245.687 40.9946 245.848 40.981 246.006 41.0011C246.164 41.0212 246.316 41.0745 246.453 41.1574C246.712 41.3264 247.005 41.4354 247.312 41.4766C248.853 41.6156 249.186 40.7378 249.2 40.7006C249.223 40.6491 249.265 40.6082 249.317 40.5861C249.369 40.5639 249.427 40.562 249.481 40.5808C249.534 40.5995 249.578 40.6376 249.605 40.6875C249.632 40.7374 249.639 40.7955 249.625 40.8505C249.609 40.8982 249.236 41.9483 247.633 41.9483" fill="black"/>
<path d="M256.685 33.8623C256.685 33.9572 256.657 34.0499 256.604 34.1288C256.552 34.2076 256.477 34.2691 256.39 34.3054C256.302 34.3417 256.206 34.3512 256.113 34.3327C256.021 34.3142 255.935 34.2685 255.869 34.2014C255.802 34.1344 255.756 34.0489 255.738 33.9559C255.719 33.8628 255.729 33.7664 255.765 33.6787C255.801 33.5911 255.862 33.5162 255.941 33.4635C256.02 33.4108 256.112 33.3826 256.207 33.3826C256.333 33.3826 256.455 33.4332 256.545 33.5231C256.634 33.6131 256.685 33.7351 256.685 33.8623Z" fill="#E57500"/>
<path d="M258.791 36.1322C258.791 36.227 258.763 36.3198 258.71 36.3986C258.657 36.4775 258.583 36.539 258.495 36.5753C258.408 36.6116 258.312 36.6211 258.219 36.6026C258.126 36.5841 258.041 36.5384 257.974 36.4713C257.908 36.4042 257.862 36.3188 257.844 36.2257C257.825 36.1327 257.835 36.0362 257.871 35.9486C257.907 35.861 257.968 35.7861 258.047 35.7333C258.125 35.6806 258.218 35.6525 258.312 35.6525C258.439 35.6525 258.561 35.703 258.651 35.793C258.74 35.8829 258.791 36.0049 258.791 36.1322Z" fill="#E57500"/>
<path d="M256.576 37.569C256.576 37.6638 256.548 37.7566 256.496 37.8355C256.443 37.9143 256.368 37.9758 256.281 38.0121C256.194 38.0484 256.098 38.0579 256.005 38.0394C255.912 38.0209 255.827 37.9752 255.76 37.9081C255.693 37.8411 255.648 37.7556 255.629 37.6626C255.611 37.5695 255.62 37.4731 255.656 37.3854C255.693 37.2978 255.754 37.2229 255.832 37.1702C255.911 37.1175 256.004 37.0893 256.098 37.0893C256.161 37.0893 256.223 37.1017 256.281 37.1259C256.339 37.15 256.392 37.1853 256.436 37.2298C256.48 37.2744 256.516 37.3272 256.54 37.3854C256.564 37.4436 256.576 37.506 256.576 37.569Z" fill="#E57500"/>
<path d="M258.904 39.4027C258.904 39.4976 258.876 39.5904 258.824 39.6693C258.771 39.7483 258.696 39.8097 258.609 39.846C258.521 39.8822 258.425 39.8916 258.332 39.873C258.239 39.8544 258.154 39.8085 258.087 39.7413C258.021 39.674 257.975 39.5884 257.957 39.4952C257.939 39.4021 257.948 39.3056 257.985 39.218C258.021 39.1304 258.083 39.0556 258.162 39.0031C258.241 38.9506 258.333 38.9227 258.428 38.9231C258.555 38.9231 258.676 38.9736 258.766 39.0635C258.856 39.1535 258.906 39.2755 258.906 39.4027" fill="#E57500"/>
<path d="M255.905 40.5241C255.906 40.6191 255.878 40.712 255.826 40.7912C255.774 40.8703 255.699 40.9321 255.612 40.9688C255.524 41.0054 255.428 41.0152 255.335 40.9969C255.242 40.9786 255.157 40.9331 255.09 40.8661C255.023 40.7991 254.977 40.7137 254.959 40.6206C254.94 40.5275 254.949 40.4309 254.985 40.3432C255.022 40.2554 255.083 40.1804 255.161 40.1276C255.24 40.0748 255.333 40.0466 255.427 40.0466C255.49 40.0466 255.552 40.059 255.61 40.0831C255.668 40.1072 255.721 40.1425 255.765 40.1871C255.81 40.2316 255.845 40.2845 255.869 40.3427C255.893 40.4009 255.905 40.4632 255.905 40.5262" fill="#E57500"/>
<path d="M257.938 42.6015C257.938 42.6963 257.909 42.7891 257.857 42.8679C257.804 42.9468 257.73 43.0083 257.642 43.0446C257.555 43.0809 257.459 43.0904 257.366 43.0719C257.273 43.0534 257.188 43.0077 257.121 42.9406C257.055 42.8735 257.009 42.7881 256.991 42.695C256.972 42.602 256.982 42.5055 257.018 42.4179C257.054 42.3303 257.115 42.2554 257.194 42.2026C257.272 42.1499 257.365 42.1218 257.459 42.1218C257.586 42.1218 257.708 42.1723 257.797 42.2623C257.887 42.3522 257.938 42.4742 257.938 42.6015Z" fill="#E57500"/>
<path d="M257.834 44.029C257.834 44.029 259.593 41.5936 262.472 41.7811C264.391 41.9048 266.687 43.7693 266.687 43.7693C266.687 43.7693 264.551 46.5201 261.75 45.6469C258.95 44.7738 257.837 44.0303 257.837 44.0303" fill="#009245"/>
<path d="M266.288 43.8077C265.124 43.5739 263.949 43.4048 262.767 43.3011L263.987 42.7024C264.014 42.6891 264.035 42.6656 264.045 42.6371C264.054 42.6086 264.052 42.5774 264.039 42.5504C264.033 42.537 264.024 42.525 264.012 42.5152C264.001 42.5053 263.988 42.4977 263.974 42.4929C263.946 42.4832 263.915 42.4852 263.888 42.4984L262.311 43.2715L262.25 43.2686C261.789 43.2516 261.327 43.2705 260.868 43.3251L261.728 42.4385C261.738 42.4278 261.746 42.4151 261.752 42.4013C261.757 42.3874 261.76 42.3726 261.76 42.3577C261.759 42.3428 261.756 42.328 261.75 42.3143C261.744 42.3006 261.736 42.2882 261.725 42.2778C261.715 42.2674 261.702 42.2592 261.688 42.2537C261.674 42.2482 261.66 42.2455 261.645 42.2457C261.63 42.2459 261.615 42.2491 261.602 42.255C261.588 42.2609 261.575 42.2694 261.565 42.2801L260.507 43.3716C260.1 43.4297 259.696 43.5083 259.297 43.6072C259.282 43.611 259.269 43.6176 259.257 43.6266C259.245 43.6356 259.235 43.6469 259.228 43.6598C259.22 43.6727 259.215 43.687 259.213 43.7018C259.211 43.7166 259.212 43.7317 259.216 43.7461C259.22 43.7605 259.226 43.7741 259.235 43.7861C259.244 43.798 259.255 43.808 259.268 43.8156C259.281 43.8231 259.295 43.828 259.31 43.83C259.324 43.832 259.339 43.831 259.354 43.8272C259.362 43.8272 259.846 43.7005 260.509 43.603L261.277 44.6585C261.286 44.6717 261.297 44.683 261.309 44.6918C261.322 44.7005 261.337 44.7065 261.352 44.7094C261.367 44.7123 261.383 44.7121 261.398 44.7086C261.413 44.7052 261.428 44.6987 261.44 44.6894C261.453 44.6802 261.463 44.6685 261.471 44.6551C261.479 44.6416 261.484 44.6267 261.486 44.6112C261.488 44.5957 261.487 44.58 261.482 44.5651C261.478 44.5501 261.47 44.5362 261.46 44.5243L260.765 43.5671C261.253 43.5022 261.746 43.4781 262.238 43.4953H262.275L263.386 44.9731C263.396 44.9871 263.41 44.9984 263.426 45.0062C263.442 45.0141 263.459 45.0182 263.477 45.0183C263.501 45.0181 263.525 45.0101 263.545 44.9955C263.569 44.9772 263.584 44.9502 263.589 44.9203C263.593 44.8904 263.585 44.86 263.567 44.8359L262.572 43.513C263.804 43.6132 265.03 43.7863 266.242 44.0315C266.25 44.0334 266.257 44.0342 266.265 44.0341C266.294 44.0343 266.321 44.024 266.342 44.0051C266.363 43.9862 266.376 43.9601 266.379 43.9319C266.382 43.9038 266.374 43.8755 266.357 43.8528C266.341 43.8301 266.316 43.8144 266.288 43.809" fill="#9DB54A"/>
<path d="M258.116 43.6401C258.116 43.6401 255.75 45.484 256.03 48.3665C256.217 50.2867 258.15 52.5271 258.15 52.5271C258.15 52.5271 260.819 50.2927 259.856 47.5132C258.893 44.7337 258.116 43.6401 258.116 43.6401Z" fill="#009245"/>
<path d="M259.24 49.1767L257.731 48.1119C257.731 48.0992 257.731 48.0865 257.728 48.0743C257.695 47.5808 257.703 47.0853 257.752 46.5931L258.727 47.2598C258.739 47.2689 258.753 47.2754 258.768 47.2789C258.783 47.2824 258.798 47.2829 258.814 47.2803C258.829 47.2777 258.843 47.272 258.856 47.2637C258.869 47.2553 258.88 47.2445 258.888 47.2318C258.897 47.2191 258.902 47.2047 258.905 47.1897C258.908 47.1746 258.908 47.1592 258.905 47.1442C258.902 47.1292 258.895 47.1151 258.886 47.1026C258.878 47.0901 258.866 47.0795 258.853 47.0715L257.777 46.336C257.852 45.6676 257.961 45.1791 257.962 45.1702C257.969 45.1409 257.964 45.11 257.948 45.0845C257.932 45.059 257.906 45.041 257.877 45.0343C257.848 45.0276 257.817 45.0329 257.791 45.049C257.766 45.0651 257.748 45.0906 257.741 45.12C257.655 45.5235 257.591 45.9312 257.547 46.3415L256.495 47.4393C256.475 47.4613 256.465 47.49 256.466 47.5195C256.467 47.549 256.48 47.5769 256.501 47.5973C256.522 47.6178 256.55 47.6292 256.58 47.6292C256.609 47.6291 256.637 47.6177 256.659 47.5972L257.512 46.7046C257.472 47.1661 257.469 47.63 257.502 48.092C257.502 48.1131 257.505 48.1342 257.507 48.1541L256.789 49.7585C256.783 49.7721 256.779 49.7867 256.779 49.8016C256.778 49.8164 256.781 49.8312 256.786 49.8451C256.791 49.859 256.799 49.8717 256.81 49.8825C256.82 49.8933 256.832 49.902 256.845 49.908C256.86 49.9147 256.876 49.9181 256.892 49.9181C256.914 49.9182 256.935 49.9119 256.953 49.9C256.972 49.8881 256.986 49.8711 256.995 49.851L257.551 48.608C257.694 49.7898 257.901 50.9628 258.172 52.1217C258.178 52.1465 258.192 52.1685 258.212 52.1843C258.232 52.2 258.257 52.2086 258.282 52.2087C258.291 52.2085 258.301 52.2074 258.31 52.2053C258.339 52.1982 258.364 52.1797 258.38 52.1539C258.396 52.1281 258.401 52.0971 258.394 52.0677C258.11 50.8608 257.898 49.6382 257.758 48.4062L259.11 49.3604C259.134 49.3764 259.164 49.3823 259.193 49.3767C259.222 49.3711 259.247 49.3545 259.264 49.3305C259.281 49.3064 259.288 49.2767 259.283 49.2476C259.279 49.2185 259.263 49.1924 259.24 49.1746" fill="#9DB54A"/>
<path d="M241.662 46.2216C243.692 47.923 246.256 48.8486 248.901 48.8343C250.857 48.8599 252.784 48.3577 254.48 47.3802C256.176 46.4027 257.58 44.9859 258.543 43.2778C256.247 45.1811 253.494 46.4463 250.558 46.947C247.581 47.5054 244.51 47.2549 241.662 46.2216Z" fill="#009245"/>
<path d="M248.909 25.4216C248.901 25.5023 248.891 25.5796 248.88 25.6518C248.7 26.7012 248.299 27.7001 247.704 28.582L252.696 30.601L257.569 32.5694L257.583 32.5344L248.909 25.4216Z" fill="#FFFF00"/>
<path d="M257.97 31.5629L251.93 24.1482C251.659 24.1159 251.407 23.9929 251.215 23.799L249.026 21.5862C249.065 21.5313 249.097 21.4724 249.122 21.4105C249.198 21.2213 249.206 21.0111 249.145 20.8166C249.083 20.622 248.955 20.4554 248.783 20.3455C248.612 20.2356 248.407 20.1895 248.205 20.2152C248.003 20.2408 247.817 20.3366 247.678 20.4858C247.539 20.6351 247.457 20.8285 247.445 21.0324C247.433 21.2362 247.493 21.4378 247.614 21.6019C247.735 21.7661 247.91 21.8826 248.107 21.9312C248.305 21.9797 248.514 21.9573 248.696 21.8678C248.883 23.0428 248.953 24.2333 248.907 25.4221L257.583 32.5344C257.627 32.4204 257.778 32.0273 257.97 31.5629Z" fill="#EFD800"/>
<path d="M262.556 25.8983C262.428 25.8465 262.29 25.8261 262.152 25.8387C262.015 25.8513 261.882 25.8967 261.765 25.971C261.649 26.0453 261.552 26.1464 261.482 26.2659C261.412 26.3855 261.372 26.52 261.364 26.6583L258.466 26.7276C258.193 26.7368 257.925 26.6502 257.709 26.4827C257.493 26.3153 257.342 26.0774 257.281 25.8101L256.531 21.7948C256.737 21.8071 256.941 21.7455 257.106 21.621C257.271 21.4965 257.386 21.3173 257.431 21.1152C257.477 20.9132 257.449 20.7016 257.353 20.5182C257.257 20.3348 257.1 20.1916 256.908 20.1142C256.717 20.0367 256.504 20.0301 256.308 20.0955C256.112 20.1608 255.946 20.2939 255.839 20.4709C255.732 20.648 255.691 20.8575 255.724 21.0619C255.757 21.2664 255.861 21.4525 256.018 21.587L254.501 22.6721L258.382 30.6099C258.521 30.2917 258.683 29.9845 258.868 29.6907C259.644 28.7538 260.527 27.9114 261.499 27.1811C261.574 27.2964 261.674 27.3926 261.792 27.4618C261.91 27.531 262.042 27.5713 262.179 27.5795C262.315 27.5876 262.452 27.5633 262.577 27.5085C262.702 27.4537 262.813 27.3701 262.9 27.2643C262.987 27.1586 263.048 27.0337 263.078 26.8998C263.108 26.766 263.106 26.627 263.072 26.494C263.039 26.3611 262.974 26.238 262.884 26.1348C262.794 26.0316 262.681 25.9512 262.554 25.9" fill="#A08100"/>
<path d="M252.703 23.962C252.478 24.1191 252.202 24.1856 251.93 24.1482L257.97 31.5633C258.096 31.2572 258.241 30.9202 258.384 30.6086L254.503 22.6709L252.703 23.962Z" fill="#CCAA00"/>
<path d="M351.686 33.9961C349.96 30.0349 344.898 28.6318 341.183 30.7189C339.327 28.5972 335.674 29.79 335.643 32.7147C335.596 32.2962 335.467 31.8914 335.261 31.5242C335.056 31.157 334.779 30.835 334.447 30.5774C334.116 30.3197 333.735 30.1316 333.33 30.0242C332.924 29.9169 332.501 29.8925 332.085 29.9525C328.207 28.3675 323.511 29.0587 321.032 32.5703C320.684 31.9081 320.115 31.3897 319.425 31.1058C318.735 30.8219 317.967 30.7906 317.256 31.0174C315.722 31.5134 314.225 32.1178 312.776 32.8262C312.779 31.8627 312.806 30.5715 312.833 29.7515C312.839 28.9439 312.539 28.1641 311.994 27.5702C311.448 26.9764 310.698 26.6131 309.895 26.5541C308.204 26.3983 306.486 27.8351 306.522 29.6198C306.48 30.6999 306.457 31.8677 306.464 33.0208C304.464 29.7853 299.799 28.8408 296.503 30.7176C296.153 30.3235 295.712 30.0214 295.219 29.8374C294.726 29.6534 294.195 29.5932 293.674 29.662C294.379 28.0154 294.172 25.8506 292.117 25.9068C290.522 26.0233 288.432 26.8019 287.836 28.9611C286.796 28.835 285.745 29.0766 284.863 29.6442C283.981 30.2118 283.324 31.0701 283.005 32.0712C282.608 31.5617 282.065 31.1871 281.448 30.9983C280.832 30.8094 280.173 30.8155 279.56 31.0157C278.026 31.5117 276.529 32.1161 275.08 32.8245C275.083 31.8534 275.11 30.574 275.137 29.7499C275.143 28.9422 274.843 28.1624 274.298 27.5686C273.752 26.9747 273.002 26.6114 272.199 26.5524C270.508 26.3978 268.787 27.833 268.826 29.619C268.627 34.374 268.859 39.1373 269.518 43.8504C269.676 44.5297 270.053 45.138 270.589 45.5813C271.126 46.0246 271.794 46.2781 272.488 46.3028C273.183 46.3274 273.867 46.1218 274.433 45.7177C275 45.3136 275.418 44.7335 275.623 44.067C276.947 44.6311 278.554 45.1901 279.762 45.6153C280.152 45.7832 280.572 45.8692 280.996 45.868C281.42 45.8668 281.839 45.7784 282.227 45.6083C282.616 45.4381 282.966 45.1899 283.255 44.8788C283.544 44.5677 283.767 44.2005 283.909 43.7997C284.2 43.0304 284.18 42.1771 283.852 41.4228C283.524 40.6685 282.914 40.0732 282.154 39.7645C280.917 39.3267 279.491 38.8813 278.231 38.3493C279.278 37.9123 280.329 37.4989 281.552 37.0281C282.291 36.79 282.913 36.2812 283.295 35.6031C283.598 36.1988 284.032 36.7184 284.563 37.1231C284.058 38.1626 284.226 39.2866 284.171 40.4773C284.175 41.4116 284.187 42.3224 284.245 43.2251C284.45 45.5473 287.294 46.8528 289.329 45.3451C289.711 45.0569 290.02 44.6823 290.231 44.2517C290.441 43.8211 290.548 43.3467 290.541 42.867C290.515 42.3794 290.475 41.9833 290.473 41.4264C290.46 40.7699 290.458 39.9655 290.481 39.3503C290.626 38.6009 290.527 37.8246 290.198 37.1362C290.492 36.9147 290.757 36.6575 290.988 36.3703C291.067 38.5105 291.221 40.951 291.443 42.9874C291.496 43.7746 291.846 44.5119 292.424 45.0477C293.001 45.5836 293.761 45.8772 294.547 45.8682C294.969 45.8702 295.387 45.7881 295.776 45.6265C296.166 45.465 296.52 45.2273 296.817 44.9272C297.114 44.6272 297.349 44.2708 297.508 43.8788C297.666 43.4869 297.746 43.0671 297.741 42.6441C297.73 42.4199 297.716 42.0749 297.722 41.8419C297.766 40.0234 298.096 37.6078 299.589 36.4374C299.796 36.2905 300.048 36.223 300.3 36.2474C300.712 36.2812 300.973 36.3741 301.081 36.5261C301.385 37.0909 301.523 37.7306 301.48 38.3712C301.451 39.5766 301.247 40.7714 300.875 41.9179C300.762 42.2448 300.704 42.5882 300.703 42.9342C300.711 43.7782 301.051 44.5847 301.65 45.1779C302.248 45.7711 303.056 46.1029 303.897 46.1008C305.696 46.0856 306.777 44.7962 307.103 43.1052C307.099 43.8697 307.37 44.61 307.864 45.1914C308.359 45.7729 309.045 46.1568 309.799 46.2733C310.552 46.3897 311.321 46.2311 311.968 45.8262C312.614 45.4213 313.094 44.797 313.32 44.067C314.644 44.6311 316.26 45.1943 317.467 45.6178C317.861 45.7864 318.286 45.8713 318.715 45.8672C319.143 45.863 319.566 45.7698 319.957 45.5934C320.348 45.4171 320.698 45.1615 320.985 44.8427C321.273 44.5239 321.491 44.1488 321.627 43.741C324.178 46.3977 328.592 46.9921 331.89 45.3345C332.951 45.9244 334.147 46.2251 335.36 46.2068C336.428 46.1536 337.254 46.1464 338.022 45.6339C338.509 45.8303 339.037 45.9037 339.559 45.8476C340.08 45.7915 340.581 45.6077 341.015 45.3122C341.449 45.0167 341.805 44.6187 342.05 44.1531C342.295 43.6875 342.423 43.1686 342.421 42.642C342.326 41.0245 342.56 39.0476 343.299 37.6066C343.535 37.1522 343.865 36.7536 344.267 36.437C344.523 36.1583 345.564 36.2077 345.758 36.5257C346.298 37.3144 346.197 39.005 345.994 40.1087C345.868 41.1279 345.412 41.9664 345.38 42.9346C345.38 43.3767 345.472 43.8139 345.652 44.2176C345.832 44.6213 346.094 44.9825 346.422 45.2775C348.075 46.8207 350.977 46.0823 351.565 43.8462C352.526 40.7314 353.088 36.9859 351.684 33.994M317.625 38.9999C317.056 38.7998 316.488 38.5823 315.927 38.3509C317.003 37.9025 318.13 37.4575 319.377 36.9813C319.285 37.8656 319.32 38.7587 319.48 39.6332C318.903 39.4432 318.281 39.2309 317.625 38.9999ZM325.855 38.9446C325.204 37.8789 325.793 35.9806 327.125 35.5875C327.849 35.4103 328.607 35.4406 329.315 35.6749C329.33 36.1292 329.357 36.5738 329.393 37.0129C327.79 37.1911 327.023 38.5143 327.79 39.9288C327.415 39.921 327.046 39.8285 326.711 39.6582C326.376 39.4879 326.083 39.2437 325.855 38.9446Z" fill="white"/>
<path d="M434.331 33.286C431.63 27.6886 423.965 26.6866 419.648 30.9304C418.933 29.4898 417.262 28.8737 415.753 28.4393C411.869 27.4872 407.118 28.422 404.762 31.82C403.035 29.1938 398.601 30.4326 398.984 33.7474C399.32 35.9928 398.748 39.5129 396.1 39.6915C395.69 39.7419 395.275 39.679 394.899 39.5095C393.897 38.8314 394.187 36.9048 394.42 35.7809C394.581 34.7287 395.342 33.503 395.357 32.4305C395.357 31.9899 395.261 31.5547 395.075 31.1553C394.89 30.7559 394.619 30.402 394.283 30.1184C392.72 28.7551 390.033 29.3133 389.31 31.3167C389.089 31.8601 388.896 32.4077 388.727 32.9549C387.956 31.566 386.784 30.4429 385.366 29.7325C383.889 29.0097 382.261 28.6508 380.618 28.6854C376.574 28.6094 372.865 30.8717 371.781 34.7675C369.916 31.8745 366.091 30.6564 362.669 31.4953C362.717 30.9688 362.766 30.5027 362.815 30.1079C362.907 29.2909 362.677 28.4701 362.172 27.8219C361.668 27.1737 360.931 26.7499 360.118 26.6417C359.306 26.5334 358.483 26.7493 357.828 27.243C357.173 27.7367 356.736 28.4687 356.613 29.2816C356.247 32.0966 356.07 34.9332 356.082 37.7721C356.082 38.9019 356.112 39.9786 356.171 40.9717C356.215 41.9101 356.334 42.8435 356.527 43.763C356.698 44.5491 357.163 45.2394 357.827 45.6911C358.49 46.1429 359.302 46.3216 360.093 46.1905C360.884 46.0594 361.595 45.6283 362.079 44.9864C362.562 44.3445 362.782 43.5408 362.692 42.7412C362.653 42.3667 362.603 41.939 362.603 41.5666C362.575 40.3468 363.246 37.542 364.804 37.5808C365.96 37.6044 366.26 37.9798 366.373 38.1204C367.157 39.0721 367.068 41.019 366.697 42.3135C366.124 44.2616 367.767 46.2427 369.739 46.1954C370.403 46.1988 371.05 45.9868 371.584 45.5912C372.117 45.1955 372.509 44.6373 372.701 43.9998C372.824 43.5729 372.924 43.1398 373.001 42.7024C376.581 47.8712 386.106 47.503 388.883 41.7013C389.525 43.0765 390.591 44.2086 391.922 44.9313C394.259 46.2511 398.212 46.3069 400.653 44.6564C402.348 47.0382 406.439 45.8551 406.416 42.8729C406.434 42.3818 406.32 41.8947 406.087 41.4627C405.983 41.1297 405.904 40.7895 405.85 40.4447C406.344 40.8196 406.883 41.1304 407.455 41.3698C407.256 41.7793 407.149 42.228 407.142 42.6838C407.136 43.1397 407.23 43.5913 407.418 44.0062C407.606 44.4212 407.884 44.7892 408.231 45.0838C408.577 45.3784 408.985 45.5924 409.424 45.7103C410.041 45.8758 410.67 46.0138 411.293 46.1215C414.244 46.6877 418.036 45.9889 419.22 42.9308C420.171 43.9419 421.318 44.7465 422.591 45.2949C423.864 45.8433 425.236 46.1238 426.621 46.119C428.221 46.0645 430.256 45.9176 431.136 44.3879C431.421 43.9089 431.573 43.362 431.576 42.804C431.579 42.2461 431.433 41.6976 431.153 41.2157C435.159 40.3071 435.922 36.6979 434.329 33.286M382.886 39.4006C382.325 39.9389 381.343 40.0521 380.616 40.0521C379.024 40.082 377.641 39.2346 377.715 37.5128C377.725 35.685 378.651 34.9875 380.616 34.9525C381.634 34.9525 382.4 35.1775 382.894 35.6208C383.73 36.2322 383.726 38.755 382.886 39.4006ZM416.569 32.5884H416.571ZM415.549 36.7351C414.144 36.3589 412.428 36.2554 410.933 36.0084C410.545 35.9592 410.166 35.8518 409.809 35.6897C409.783 35.5102 409.821 35.2565 409.908 35.205C410.636 34.4998 411.848 34.3529 412.936 34.3301C413.697 34.2903 414.455 34.4462 415.139 34.7832C415.763 35.1818 416.509 35.3451 417.243 35.2442C417.094 35.9124 417.017 36.5947 417.014 37.2793C416.548 37.045 416.057 36.8625 415.551 36.7351M420.636 38.3248L420.633 38.31L420.643 38.315L420.636 38.3248Z" fill="white"/>
<path d="M281.457 41.3905C279.194 40.6043 276.561 39.8258 274.586 38.416C276.37 36.9382 278.696 36.3087 280.969 35.3603C282.526 34.8655 282.077 32.6442 280.516 32.626C279.678 32.8161 278.86 33.0861 278.073 33.4325C276.407 34.0667 274.819 34.8898 273.34 35.8856C273.309 34.396 273.308 32.7476 273.336 31.2796C273.348 30.6293 273.361 30.1303 273.375 29.752C273.385 29.3886 273.253 29.0357 273.008 28.7678C272.764 28.5 272.424 28.3381 272.063 28.3164C271.876 28.2992 271.688 28.3212 271.511 28.3809C271.333 28.4406 271.17 28.5367 271.031 28.6631C270.893 28.7895 270.782 28.9434 270.706 29.1151C270.63 29.2868 270.591 29.4725 270.59 29.6603C270.551 30.6543 270.531 31.7022 270.531 32.7738C270.531 34.5518 270.587 36.3699 270.699 38.1783C270.815 40.0196 270.983 41.779 271.235 43.4387C271.286 43.6799 271.4 43.9034 271.564 44.0866C271.728 44.2698 271.938 44.4064 272.171 44.4825C272.405 44.5585 272.655 44.5715 272.895 44.52C273.135 44.4684 273.358 44.3543 273.54 44.189C273.709 44.041 273.838 43.8521 273.914 43.6401C273.99 43.4282 274.011 43.2003 273.974 42.9781C273.872 42.3621 273.789 41.8381 273.725 41.1731C275.675 42.3245 278.414 43.2715 280.426 43.9745C282.133 44.7113 283.204 42.1075 281.459 41.3897" fill="#E88C15"/>
<path d="M288.755 38.7508C288.971 37.5977 287.613 36.8571 286.651 37.3912C286.461 37.4911 286.3 37.6393 286.184 37.821C286.069 38.0028 286.003 38.2117 285.993 38.4269C285.953 39.0603 285.933 39.7485 285.933 40.4777C285.933 41.35 285.952 42.2088 285.996 43.0359C286.073 44.0982 287.452 44.5703 288.276 43.9268C288.804 43.4936 288.81 43.0625 288.739 42.3224C288.726 42.0808 288.717 41.7944 288.711 41.4631C288.7 40.6913 288.684 39.4099 288.756 38.7516" fill="#248C41"/>
<path d="M289.874 32.0957C289.06 30.5162 286.552 30.2629 285.36 31.4873C283.638 33.21 284.835 36.3766 287.403 36.288C287.895 36.294 288.38 36.1698 288.809 35.9277C289.238 35.6856 289.596 35.3342 289.847 34.9091C290.098 34.4839 290.232 33.9999 290.237 33.506C290.241 33.0121 290.116 32.5256 289.874 32.0957Z" fill="#E88C15"/>
<path d="M305.409 34.7435C303.641 30.7944 298.19 30.5187 295.529 33.7559C295.527 33.4684 295.521 33.1521 295.512 32.8152C295.52 32.6376 295.492 32.4603 295.43 32.2935C295.369 32.1268 295.275 31.974 295.154 31.8441C295.033 31.7141 294.888 31.6096 294.726 31.5366C294.565 31.4636 294.39 31.4236 294.213 31.4189C294.024 31.3934 293.832 31.4095 293.65 31.4661C293.468 31.5227 293.3 31.6184 293.159 31.7465C293.017 31.8746 292.905 32.0321 292.83 32.2081C292.755 32.384 292.72 32.5742 292.726 32.7654C292.712 32.9706 292.706 33.1905 292.706 33.4198C292.705 36.5552 292.869 39.6885 293.196 42.8067C293.314 44.5631 295.95 44.5416 295.978 42.6449C295.954 42.4224 295.959 42.0754 295.959 41.8453C295.99 39.466 296.559 36.5025 298.531 35.0247C299.606 34.1262 301.83 34.3968 302.524 35.5136C303.047 36.3712 303.298 37.3686 303.242 38.3729C303.213 39.7698 302.979 41.1547 302.546 42.4828C302.454 42.7384 302.44 43.0158 302.507 43.2793C302.573 43.5427 302.717 43.7801 302.92 43.9606C303.155 44.1736 303.454 44.3025 303.771 44.3274C304.087 44.3523 304.402 44.2717 304.668 44.0982C304.929 43.9213 305.116 43.6554 305.195 43.3501C305.457 42.5014 305.672 41.6389 305.839 40.7665C306.204 38.8563 306.244 36.4552 305.408 34.7418" fill="#E88C15"/>
<path d="M319.153 41.3905C316.89 40.6043 314.257 39.8258 312.283 38.416C314.067 36.9382 316.393 36.3087 318.665 35.3603C320.222 34.8655 319.774 32.6442 318.212 32.626C317.374 32.816 316.556 33.0861 315.768 33.4325C314.103 34.0667 312.515 34.8898 311.035 35.8856C311.005 34.396 311.004 32.7476 311.032 31.2796C311.044 30.6293 311.057 30.1303 311.071 29.752C311.08 29.3886 310.949 29.0357 310.704 28.7678C310.459 28.5 310.12 28.3381 309.759 28.3164C309.572 28.2992 309.384 28.3212 309.206 28.3809C309.029 28.4406 308.866 28.5367 308.727 28.6631C308.589 28.7895 308.478 28.9434 308.402 29.1151C308.326 29.2868 308.286 29.4725 308.286 29.6603C308.246 30.6543 308.227 31.7022 308.227 32.7738C308.227 34.5518 308.283 36.3699 308.395 38.1783C308.511 40.0196 308.679 41.779 308.931 43.4387C308.982 43.6799 309.095 43.9034 309.26 44.0866C309.424 44.2698 309.633 44.4064 309.867 44.4825C310.101 44.5585 310.35 44.5715 310.591 44.52C310.831 44.4684 311.053 44.3543 311.236 44.189C311.405 44.041 311.534 43.8521 311.61 43.6401C311.686 43.4282 311.706 43.2003 311.67 42.9781C311.568 42.3621 311.484 41.8381 311.42 41.1731C313.371 42.3245 316.111 43.2719 318.122 43.9745C319.828 44.7113 320.899 42.1075 319.155 41.3897" fill="#E88C15"/>
<path d="M335.256 41.2385C333.984 39.3858 333.922 37.2595 333.867 34.863C333.792 34.0253 334.124 33.0052 333.653 32.2667C333.456 32.0017 333.175 31.8121 332.857 31.7291C332.538 31.6462 332.201 31.675 331.901 31.8107C328.216 30.0374 323.577 30.8168 321.776 34.7633C320.84 36.7376 320.814 39.4842 321.983 41.35C324.129 45.0343 329.805 45.5169 332.811 42.5744C333.753 44.3638 336.356 42.9912 335.251 41.2402M326.515 33.9277C327.275 33.7056 328.073 33.6477 328.856 33.7579C329.64 33.8681 330.391 34.1439 331.06 34.567C331.036 36.2689 331.201 37.9683 331.551 39.6337C331.213 40.2452 330.723 40.7583 330.129 41.1227C329.534 41.487 328.855 41.6902 328.159 41.7123C326.662 41.7123 325.207 41.16 324.391 39.9275C323.077 37.881 324.16 34.6886 326.515 33.9256" fill="#E88C15"/>
<path d="M350.088 34.7435C348.321 30.7944 342.87 30.5187 340.209 33.7559C340.206 33.4684 340.2 33.1521 340.192 32.8152C340.199 32.6376 340.171 32.4603 340.11 32.2935C340.048 32.1268 339.954 31.974 339.833 31.8441C339.713 31.7141 339.567 31.6096 339.406 31.5366C339.244 31.4636 339.07 31.4236 338.892 31.4189C338.704 31.3934 338.511 31.4095 338.329 31.4661C338.147 31.5227 337.979 31.6184 337.838 31.7465C337.696 31.8746 337.584 32.0321 337.51 32.2081C337.435 32.384 337.399 32.5742 337.405 32.7654C337.392 32.9706 337.385 33.1905 337.385 33.4198C337.385 36.5552 337.548 39.6885 337.876 42.8067C337.993 44.5631 340.63 44.5416 340.658 42.6449C340.633 42.4224 340.638 42.0754 340.638 41.8453C340.67 39.466 341.238 36.5025 343.21 35.0247C344.285 34.1262 346.509 34.3968 347.203 35.5136C347.727 36.3712 347.978 37.3686 347.922 38.3729C347.893 39.7698 347.658 41.1547 347.225 42.4828C347.133 42.7384 347.119 43.0158 347.186 43.2793C347.253 43.5427 347.397 43.7801 347.599 43.9606C347.835 44.1736 348.134 44.3025 348.45 44.3274C348.766 44.3523 349.082 44.2717 349.348 44.0982C349.608 43.9213 349.795 43.6554 349.875 43.3501C350.137 42.5014 350.351 41.6389 350.518 40.7665C350.883 38.8563 350.923 36.4552 350.088 34.7418" fill="#E88C15"/>
<path d="M289.416 30.585C289.295 28.7614 290.375 27.8482 292.267 27.6717C292.267 27.6717 292.432 29.2664 291.227 29.8706C290.656 30.1838 290.048 30.424 289.417 30.5854" fill="#248C41"/>
<path d="M329.249 38.8593C329.249 38.8593 332.274 37.9021 334.607 39.8832C336.161 41.2022 336.942 44.2401 336.942 44.2401C336.942 44.2401 333.395 45.2264 331.563 42.7112C329.731 40.1961 329.248 38.8593 329.248 38.8593" fill="#248C41"/>
<path d="M368.417 33.9421C366.163 32.6256 362.716 32.5754 360.667 34.5885C360.724 33.5752 360.813 32.4441 360.901 31.4641C360.955 30.8595 361.011 30.3266 361.066 29.8803C361.097 29.691 361.085 29.497 361.03 29.3132C360.975 29.1293 360.879 28.9605 360.749 28.8197C360.031 28.0175 358.46 28.3553 358.358 29.5324C358.003 32.2652 357.832 35.0188 357.844 37.7746C357.855 39.64 357.888 41.7296 358.243 43.3627C358.314 43.7113 358.516 44.019 358.807 44.2225C359.098 44.426 359.456 44.5099 359.807 44.4567C360.154 44.4037 360.467 44.2172 360.679 43.9366C360.891 43.656 360.986 43.3036 360.943 42.954C360.917 42.715 360.893 42.468 360.872 42.2198C360.798 41.3613 360.866 40.4964 361.073 39.6603C361.529 37.8696 362.683 35.7475 364.819 35.8151C366.162 35.8387 367.121 36.2318 367.749 37.0176C368.447 37.9733 368.796 39.1413 368.737 40.3248C368.735 41.1508 368.623 41.9728 368.402 42.7687C368.34 42.9843 368.336 43.2129 368.392 43.4306C368.447 43.6482 368.56 43.8467 368.719 44.0053C368.884 44.1791 369.092 44.3066 369.322 44.3749C369.551 44.4433 369.794 44.4503 370.028 44.3951C370.261 44.34 370.475 44.2247 370.65 44.0606C370.825 43.8965 370.954 43.6894 371.025 43.4598C371.329 42.3809 371.482 41.2649 371.481 40.1437C371.479 37.5783 370.598 35.243 368.418 33.9429" fill="#E88C15"/>
<path d="M384.562 31.3091C383.333 30.7149 381.981 30.4224 380.617 30.4558C376.378 30.376 373.099 33.1876 373.168 37.5133C373.136 43.6355 379.574 46.0202 384.522 43.6967C386.865 42.498 388.082 40.1885 388.068 37.5133C388.079 34.8047 386.929 32.5239 384.563 31.3095M385.28 37.5128C385.28 38.8834 384.895 39.9195 384.104 40.6795C382.908 41.9436 379.834 42.1784 378.161 41.2867C377.491 40.9626 376.928 40.4532 376.538 39.8186C375.568 38.2944 375.809 35.4591 377.169 34.3369C378.007 33.5621 379.134 33.1851 380.615 33.1851C383.434 33.191 385.307 34.5889 385.278 37.5137" fill="#E88C15"/>
<path d="M404.215 41.285C403.867 39.3154 403.649 37.3247 403.565 35.3261C403.531 34.6594 403.513 34.0595 403.513 33.5363C403.516 33.3445 403.476 33.1544 403.397 32.9798C403.318 32.8051 403.201 32.6501 403.055 32.526C402.811 32.3227 402.511 32.199 402.196 32.1714C401.88 32.1438 401.563 32.2136 401.288 32.3714C400.342 32.8705 400.897 34.1367 400.832 34.9825C400.836 37.1852 400.156 39.347 398.518 40.6246C397.37 41.5957 395.169 41.7275 393.992 41.0308C391.469 39.409 392.515 35.3451 393.475 32.9621C394.177 31.2884 391.571 30.3638 390.942 31.975C389.397 35.6757 388.776 41.1321 392.771 43.3842C393.977 43.9883 395.326 44.2454 396.669 44.1269C397.579 44.0714 398.467 43.8274 399.278 43.4103C400.089 42.9932 400.805 42.412 401.38 41.7034C401.506 42.2693 401.689 42.8209 401.925 43.3501C402.039 43.6238 402.242 43.8503 402.502 43.9918C403.343 44.4791 404.672 43.912 404.648 42.8751C404.665 42.6634 404.617 42.4516 404.51 42.2687C404.371 41.9545 404.27 41.6246 404.21 41.2862" fill="#E88C15"/>
<path d="M417.547 31.1174C414.184 28.9641 408.279 29.4995 406.063 33.0567C404.981 34.7414 405.23 37.7434 406.744 38.9066C407.764 39.6834 408.972 40.1735 410.244 40.3265C411.471 40.5064 412.835 40.6086 413.975 40.8332C414.367 40.8888 414.744 41.0168 415.089 41.2106C415.092 41.2714 415.098 41.3166 414.959 41.4424C414.742 41.6168 414.493 41.7475 414.227 41.8271C412.844 42.2839 411.702 41.6248 410.195 41.4399C408.727 41.377 408.398 43.6388 409.88 44.0032C411.656 44.4778 413.667 44.8054 415.412 44.2004C416.778 43.736 417.786 42.6893 417.771 41.2081C417.702 37.9017 413.03 38.2551 410.649 37.7552C409.105 37.4339 408.039 37.1856 408.039 35.5461C408.047 32.3208 413.989 31.9412 416.08 33.2902C417.449 34.1823 419.107 32.1924 417.548 31.1191" fill="#E88C15"/>
<path d="M432.745 34.0603C432.146 32.8662 431.229 31.8617 430.097 31.1582C428.964 30.4547 427.659 30.0796 426.327 30.0745C425.024 30.037 423.734 30.3415 422.584 30.958C421.435 31.5744 420.466 32.4814 419.773 33.5891C418.629 35.4372 418.39 38.2099 419.442 40.199C420.773 42.8041 423.729 44.363 426.622 44.3494C427.377 44.3502 428.128 44.2472 428.855 44.0433C429.013 44.0068 429.162 43.9388 429.293 43.8435C429.424 43.7483 429.535 43.6276 429.619 43.4885C429.757 43.25 429.819 42.9754 429.799 42.7007C429.779 42.4259 429.676 42.1637 429.505 41.9482C429.334 41.7326 429.102 41.5737 428.84 41.4922C428.578 41.4107 428.297 41.4102 428.035 41.491C425.884 42.107 423.379 41.1287 422.065 39.3571C424.687 39.6674 427.737 39.9904 430.322 39.5813C433.468 39.0797 433.946 36.8094 432.745 34.0603ZM422.178 36.6663C421.935 36.6338 421.688 36.6629 421.459 36.7507C421.599 35.9084 421.961 35.119 422.507 34.4643C423.054 33.8096 423.765 33.3134 424.567 33.0272C425.368 32.741 426.232 32.6752 427.068 32.8366C427.904 32.9979 428.681 33.3807 429.32 33.945C430.064 34.5856 430.693 35.441 430.693 36.4079C430.693 36.5586 430.667 36.6941 430.352 36.8267C429.881 37.0974 427.987 37.2029 426.895 37.1024C425.315 37.0476 423.739 36.9017 422.176 36.6654" fill="#E88C15"/>
</g>
</g>
<defs>
<filter id="filter0_d_2003_605" x="454.07" y="2.73523" width="37.8247" height="71.4573" filterUnits="userSpaceOnUse" color-interpolation-filters="sRGB">
<feFlood flood-opacity="0" result="BackgroundImageFix"/>
<feColorMatrix in="SourceAlpha" type="matrix" values="0 0 0 0 0 0 0 0 0 0 0 0 0 0 0 0 0 0 127 0" result="hardAlpha"/>
<feOffset dx="5" dy="5"/>
<feColorMatrix type="matrix" values="0 0 0 0 0 0 0 0 0 0 0 0 0 0 0 0 0 0 0.25 0"/>
<feBlend mode="normal" in2="BackgroundImageFix" result="effect1_dropShadow_2003_605"/>
<feBlend mode="normal" in="SourceGraphic" in2="effect1_dropShadow_2003_605" result="shape"/>
</filter>
<filter id="filter1_d_2003_605" x="484.69" y="4.7298" width="78.2494" height="67.4698" filterUnits="userSpaceOnUse" color-interpolation-filters="sRGB">
<feFlood flood-opacity="0" result="BackgroundImageFix"/>
<feColorMatrix in="SourceAlpha" type="matrix" values="0 0 0 0 0 0 0 0 0 0 0 0 0 0 0 0 0 0 127 0" result="hardAlpha"/>
<feOffset dx="5" dy="5"/>
<feColorMatrix type="matrix" values="0 0 0 0 0 0 0 0 0 0 0 0 0 0 0 0 0 0 0.25 0"/>
<feBlend mode="normal" in2="BackgroundImageFix" result="effect1_dropShadow_2003_605"/>
<feBlend mode="normal" in="SourceGraphic" in2="effect1_dropShadow_2003_605" result="shape"/>
</filter>
<filter id="filter2_d_2003_605" x="14" y="1.35989" width="455.396" height="74.6249" filterUnits="userSpaceOnUse" color-interpolation-filters="sRGB">
<feFlood flood-opacity="0" result="BackgroundImageFix"/>
<feColorMatrix in="SourceAlpha" type="matrix" values="0 0 0 0 0 0 0 0 0 0 0 0 0 0 0 0 0 0 127 0" result="hardAlpha"/>
<feOffset dx="5" dy="5"/>
<feColorMatrix type="matrix" values="0 0 0 0 0 0 0 0 0 0 0 0 0 0 0 0 0 0 0.25 0"/>
<feBlend mode="normal" in2="BackgroundImageFix" result="effect1_dropShadow_2003_605"/>
<feBlend mode="normal" in="SourceGraphic" in2="effect1_dropShadow_2003_605" result="shape"/>
</filter>
<clipPath id="clip0_2003_605">
<rect width="202" height="38" fill="white" transform="translate(235 17)"/>
</clipPath>
</defs>
</svg>
