<svg width="1494" height="193" viewBox="0 0 1494 193" fill="none" xmlns="http://www.w3.org/2000/svg">
<g clip-path="url(#clip0_0_1)">
<g filter="url(#filter0_d_0_1)">
<path d="M1214.75 182.693V7.22198L1301.42 13.389V176.529L1214.75 182.693Z" fill="#954E2A"/>
</g>
<path d="M1214.75 164.565V25.35L1301.42 30.244V159.676L1214.75 164.565Z" fill="#9A5634"/>
<path d="M1214.75 147.237V42.681L1301.42 46.355V143.561L1214.75 147.237Z" fill="#954E2A"/>
<path d="M1214.75 126.263V63.657L1301.42 65.857V124.057L1214.75 126.263Z" fill="#9A5634"/>
<path d="M1214.75 108.406V81.51L1301.42 82.455V107.461L1214.75 108.406Z" fill="#954E2A"/>
<g filter="url(#filter1_d_0_1)">
<path d="M1324.41 177.231C1324.44 177.231 1324.45 177.226 1324.48 177.226C1324.59 177.226 1324.71 177.219 1324.84 177.21C1325.26 177.203 1325.68 177.181 1326.09 177.146C1326.29 177.132 1326.49 177.106 1326.69 177.085C1326.84 177.064 1326.99 177.05 1327.14 177.029C1328.47 176.866 1329.77 176.53 1331.02 176.029C1334.32 174.716 1337.16 172.445 1339.17 169.507C1350.47 153.451 1347.11 117.563 1374.78 117.695C1414.39 119.995 1463.18 122.895 1470.05 123.295C1470.3 123.321 1470.44 123.337 1470.45 123.337C1470.72 123.337 1470.87 123.346 1470.87 123.346C1472.59 123.416 1474.3 123.12 1475.89 122.476C1477.48 121.833 1478.92 120.857 1480.1 119.614C1485.53 113.523 1488.67 105.736 1488.99 97.584V97.577C1489 97.066 1489 96.551 1488.99 96.04C1488.97 95.681 1488.95 95.317 1488.92 94.956C1488.95 94.595 1488.97 94.235 1488.99 93.873C1489 93.36 1489.01 92.845 1488.99 92.337V92.329C1488.67 84.1773 1485.53 76.3902 1480.1 70.3C1478.92 69.0572 1477.48 68.0812 1475.89 67.4372C1474.3 66.7931 1472.59 66.4958 1470.87 66.565L1470.45 66.582C1470.44 66.582 1470.3 66.588 1470.05 66.617C1463.18 67.025 1414.39 69.926 1374.78 72.217C1347.11 72.348 1350.46 36.464 1339.17 20.406C1337.16 17.4682 1334.32 15.1976 1331.01 13.886C1329.77 13.3855 1328.47 13.0493 1327.14 12.886L1326.69 12.832C1326.49 12.811 1326.29 12.788 1326.09 12.771C1325.68 12.736 1325.26 12.713 1324.84 12.706C1324.71 12.699 1324.59 12.689 1324.48 12.689C1324.45 12.689 1324.43 12.684 1324.41 12.684C1324.41 12.684 1295.6 12.432 1295.6 12.5V177.42C1295.6 177.486 1324.41 177.231 1324.41 177.231ZM1440.99 94.96C1440.99 90.736 1447.81 87.316 1456.21 87.316C1464.62 87.316 1471.44 90.736 1471.44 94.96C1471.44 99.184 1464.62 102.607 1456.21 102.607C1447.8 102.607 1440.99 99.184 1440.99 94.96Z" fill="#D18F2A"/>
</g>
<path d="M1320.71 12.484H1294.81V177.432H1320.71V12.484Z" fill="#EBECEC"/>
<g filter="url(#filter2_d_0_1)">
<path d="M1231.94 155.955C1225.1 150.088 1221.34 138.97 1224.88 130.632C1226.71 126.332 1231.46 122.278 1231.21 117.31C1231 112.987 1226.5 110.896 1225.68 106.866C1224.73 102.155 1227.78 97.14 1228.44 92.547C1231.15 73.573 1227.71 54.333 1226.03 35.447C1226.36 34.152 1226.71 32.907 1227.09 31.747C1229.56 24.265 1246.94 15.816 1239.87 7.76601C1235.75 3.06601 1221.73 3.37201 1216.22 3.83801C1212.1 4.18701 1208.07 4.40001 1203.96 4.66401H15.987V184.564H1153.69C1162.93 185.237 1172.29 186.088 1181.65 186.689C1199 187.805 1216.31 188.037 1232.82 184.583C1248.26 181.351 1241.64 164.269 1231.94 155.958" fill="#30AA21"/>
</g>
<g opacity="0.5">
<mask id="mask0_0_1" style="mask-type:luminance" maskUnits="userSpaceOnUse" x="1208" y="5" width="24" height="71">
<g opacity="0.5">
<path d="M1231.8 5.83502H1208.13V75.677H1231.8V5.83502Z" fill="white"/>
</g>
</mask>
<g mask="url(#mask0_0_1)">
<path d="M1217.87 8.90002C1219.25 8.06612 1220.75 7.44104 1222.32 7.04503C1231.43 4.67503 1234.34 5.20003 1229.44 14.118C1223.57 24.786 1218.18 21.909 1219.05 43.561C1219.67 59.133 1219.92 72.136 1215.58 75.601C1213.29 77.427 1208.59 47.444 1208.49 45.613C1207.85 34.252 1206.79 15.633 1217.87 8.90002Z" fill="white"/>
</g>
</g>
<g style="mix-blend-mode:multiply">
<mask id="mask1_0_1" style="mask-type:luminance" maskUnits="userSpaceOnUse" x="1141" y="47" width="30" height="132">
<g style="mix-blend-mode:multiply">
<path d="M1170.24 47.91H1141.92V178.072H1170.24V47.91Z" fill="white"/>
</g>
</mask>
<g mask="url(#mask1_0_1)">
<path d="M1156.7 94.767C1156.7 94.767 1155.84 125.944 1160.16 145.858C1164.49 165.772 1178.36 177.307 1163.63 177.898C1141.98 178.765 1140.25 177.898 1142.84 138.065C1145.44 98.232 1147.17 84.379 1146.31 69.657C1144.42 37.577 1157.91 43.151 1155.84 72.257C1154.97 84.382 1158.44 80.057 1156.7 94.77" fill="#F7F8F8"/>
</g>
</g>
<g opacity="0.4">
<mask id="mask2_0_1" style="mask-type:luminance" maskUnits="userSpaceOnUse" x="1211" y="158" width="25" height="26">
<g opacity="0.4">
<path d="M1235.97 158.552H1211.07V183.053H1235.97V158.552Z" fill="white"/>
</g>
</mask>
<g mask="url(#mask2_0_1)">
<path d="M1228.38 161.252C1228.38 161.252 1242.26 175.136 1232.47 178.401C1222.67 181.666 1212.87 187.387 1211.23 177.584C1209.59 167.781 1221.03 152.265 1228.38 161.252Z" fill="white"/>
</g>
</g>
<path d="M144 82H678" stroke="white" stroke-width="2"/>
<path d="M165.688 38.3926C165.518 37.5792 165.314 36.8633 165.076 36.18L168.101 35.692C168.169 36.2777 168.305 37.2213 168.441 37.9371C168.645 39.3688 172.384 57.2321 172.86 59.3796C173.098 60.2907 173.37 61.397 173.71 62.3406L170.583 62.8937C170.413 61.7874 170.311 60.7787 170.073 59.8351C169.733 57.7853 166.096 40.0846 165.688 38.3926ZM156.102 43.1106C156.952 43.0456 157.87 42.9805 158.957 42.8829C162.017 42.5575 173.744 40.7679 176.973 40.1497C177.959 39.987 178.843 39.7918 179.421 39.6291L179.965 42.3623C179.455 42.3948 178.435 42.5575 177.517 42.6876C174.016 43.2082 162.425 44.9653 159.433 45.4534C158.515 45.6161 157.7 45.7787 156.714 46.0065L156.102 43.1106ZM156 52.4816C156.816 52.449 158.108 52.3189 158.991 52.1887C162.629 51.7332 175.274 49.7484 179.353 49.0325C180.644 48.8048 181.63 48.577 182.344 48.3818L182.922 51.115C182.208 51.18 181.12 51.3753 179.863 51.5705C175.342 52.2213 163.07 54.141 159.637 54.7267C158.311 54.9544 157.36 55.1497 156.612 55.3449L156 52.4816ZM193.077 37.5792C195.456 39.1085 199.841 42.4924 201.711 44.282L199.603 46.3644C197.87 44.6725 193.655 41.1583 191.105 39.564L193.077 37.5792ZM190.153 59.3796C196.068 58.5336 200.487 56.5488 203.716 54.6291C208.985 51.4729 213.098 46.6573 215.07 42.6226L216.701 45.4208C214.39 49.4555 210.447 53.8807 205.314 56.9718C201.881 59.0217 197.598 61.039 191.921 62.0477L190.153 59.3796ZM236.587 35.8221C236.519 36.5705 236.451 37.6768 236.417 38.4577C235.975 51.7332 232.236 57.8178 225.539 62.2755L223.058 60.3557C224.146 59.8026 225.505 58.8915 226.525 57.9805C230.774 54.3037 233.562 48.8048 233.63 38.5228C233.63 37.7744 233.562 36.5705 233.426 35.8221H236.587ZM248.416 42.59C248.314 43.1432 248.246 43.7288 248.212 44.1518C248.11 47.308 247.668 56.744 246.139 59.8677C245.459 61.2668 244.371 61.8525 242.502 61.8525C240.802 61.8525 238.83 61.7549 237.063 61.6247L236.723 58.9241C238.559 59.1518 240.326 59.3145 241.788 59.3145C242.74 59.3145 243.385 59.0217 243.759 58.2408C245.051 55.7354 245.493 47.731 245.493 44.2495H227.579C226.219 44.2495 224.86 44.282 223.636 44.3796V41.6464C224.826 41.744 226.219 41.8091 227.545 41.8091H244.337C245.255 41.8091 245.901 41.744 246.479 41.6464L248.416 42.59ZM261.061 37.5792C263.441 39.1085 267.826 42.4924 269.695 44.282L267.588 46.3644C265.854 44.6725 261.639 41.1583 259.09 39.564L261.061 37.5792ZM258.138 59.3796C264.053 58.5336 268.472 56.5488 271.701 54.6291C276.97 51.4729 281.083 46.6573 283.055 42.6226L284.686 45.4208C282.375 49.4555 278.432 53.8807 273.299 56.9718C269.865 59.0217 265.582 61.039 259.906 62.0477L258.138 59.3796ZM295.122 51.115C296.583 47.731 298.011 42.7852 298.453 39.0434L301.478 39.6291C301.274 40.3449 301.036 41.2885 300.867 42.0043C300.425 44.0217 299.201 48.8373 297.773 52.1887C296.549 55.1497 294.68 58.5011 292.776 61.1041L289.887 59.9328C292.028 57.2321 293.932 53.8156 295.122 51.115ZM311.846 49.846C310.486 46.4946 308.413 41.9718 306.917 39.564L309.671 38.6855C311.03 41.0282 313.206 45.5184 314.633 48.9675C316.027 52.1887 317.829 57.167 318.713 60.128L315.721 61.039C314.837 57.7202 313.274 53.3275 311.846 49.846ZM339.686 35.3666C339.55 36.3753 339.516 37.1236 339.516 37.8069C339.516 38.5553 339.516 40.9957 339.516 42.1345H336.626C336.626 40.8655 336.626 38.5553 336.626 37.8069C336.626 37.1236 336.592 36.3753 336.457 35.3666H339.686ZM351.277 41.679C351.107 42.1345 350.903 43.013 350.801 43.6312C350.325 46.2343 349.34 50.3015 347.436 53.3926C344.921 57.6551 340.23 60.974 334.009 62.6009L331.8 60.1931C332.921 59.9978 334.213 59.6724 335.301 59.282C338.734 58.2082 342.439 55.8004 344.547 52.7093C346.382 49.9436 347.436 46.0065 347.742 43.2408H328.774C328.774 44.5748 328.774 48.0564 328.774 49.0651C328.774 49.6182 328.808 50.4967 328.876 50.9848H325.919C326.021 50.4317 326.055 49.5531 326.055 48.9024C326.055 47.8612 326.055 44.3145 326.055 43.1757C326.055 42.4924 326.055 41.3861 325.919 40.7028C326.905 40.7679 327.924 40.833 329.114 40.833H347.13C348.388 40.833 349 40.7028 349.442 40.5727L351.277 41.679ZM382.482 39.6616C382.278 39.9219 381.836 40.6377 381.666 41.0607C380.307 44.282 377.723 48.8373 374.902 51.8308C371.095 55.898 366.234 59.7701 360.863 62.1128L358.688 59.9328C364.194 57.9154 369.191 54.0108 372.692 50.3015C375.004 47.7961 377.485 43.9241 378.369 41.2234C377.145 41.2234 366.268 41.2234 365.112 41.2234C363.888 41.2234 362.053 41.3536 361.679 41.3861V38.4577C362.121 38.5228 364.058 38.6529 365.112 38.6529C366.438 38.6529 376.941 38.6529 378.233 38.6529C379.321 38.6529 380.239 38.5553 380.783 38.3926L382.482 39.6616ZM375.344 50.1388C379.015 53.0672 383.536 57.6226 385.847 60.3232L383.502 62.308C381.054 59.2169 377.077 55.0521 373.406 51.961L375.344 50.1388ZM391.49 42.3297H401.484V44.7701H391.49V42.3297ZM408.52 34.6833H411.138V58.859C411.138 60.551 411.444 60.8764 412.905 60.8764C413.653 60.8764 417.052 60.8764 417.936 60.8764C419.5 60.8764 419.738 59.4772 419.976 54.0759C420.622 54.564 421.709 55.0521 422.423 55.2147C422.117 61.1692 421.437 63.2842 418.106 63.2842C417.392 63.2842 413.313 63.2842 412.633 63.2842C409.472 63.2842 408.52 62.308 408.52 58.7939V34.6833ZM400.226 34.6833H402.844V63.7397H400.226V34.6833ZM419.602 39.6941L421.471 41.8091C418.344 44.1193 413.993 46.5922 410.152 48.6095C409.948 48.0564 409.438 47.2104 409.064 46.6898C412.837 44.705 417.052 41.9393 419.602 39.6941ZM390.436 57.4273C393.19 56.5488 397.439 54.987 401.484 53.4577L401.96 55.6703C398.391 57.167 394.549 58.6963 391.626 59.8677L390.436 57.4273ZM425.075 46.9176H455.566V49.2928H425.075V46.9176ZM438.841 38.4577H441.561V64H438.841V38.4577ZM450.263 34.4881L452.201 36.5705C445.844 38.3601 435.986 39.6291 427.59 40.3124C427.522 39.7267 427.182 38.7505 426.91 38.1649C435.17 37.4165 444.858 36.115 450.263 34.4881ZM468.823 40.5727H489.49V42.8829H468.823V40.5727ZM469.978 50.0412H488.504V52.3839H469.978V50.0412ZM467.939 60.551H490V62.8937H467.939V60.551ZM477.831 41.256H480.414V61.9501H477.831V41.256ZM473.412 35.7245L475.077 34C477.661 35.3991 480.992 37.4816 482.658 38.9458L480.856 40.898C479.292 39.4013 475.995 37.1887 473.412 35.7245ZM466.681 34.1627L469.095 34.8785C466.783 40.3774 463.146 45.8438 459.373 49.4555C459.135 48.9024 458.421 47.6334 457.945 47.0477C461.378 43.9566 464.71 39.1085 466.681 34.1627ZM463.146 42.5575L465.56 40.2473L465.593 40.2798V63.9349H463.146V42.5575Z" fill="white"/>
<mask id="mask3_0_1" style="mask-type:luminance" maskUnits="userSpaceOnUse" x="702" y="48" width="480" height="90">
<path d="M1182 48H702V138H1182V48Z" fill="white"/>
</mask>
<g mask="url(#mask3_0_1)">
<mask id="mask4_0_1" style="mask-type:luminance" maskUnits="userSpaceOnUse" x="702" y="48" width="480" height="90">
<path d="M1182 48H702V138H1182V48Z" fill="white"/>
</mask>
<g mask="url(#mask4_0_1)">
<path d="M779.66 108.485C779.006 107.955 773.116 103.308 767.526 102.949C766.407 102.876 765.284 102.929 764.177 103.107C764.372 101.849 764.475 100.579 764.485 99.307C764.473 93.9828 762.861 88.785 759.859 84.388C759.921 84.236 759.981 84.088 760.048 83.927C760.33 83.247 760.648 82.497 760.972 81.804C761.21 81.2485 761.487 80.7108 761.802 80.195C762.858 78.8906 764.051 77.7034 765.36 76.654C766.791 77.0013 768.3 76.7932 769.583 76.0718C770.866 75.3503 771.828 74.1692 772.275 72.7665C772.722 71.3638 772.62 69.8439 771.99 68.5132C771.361 67.1825 770.25 66.1401 768.882 65.596C767.758 65.1447 766.52 65.0551 765.343 65.3397C764.165 65.6243 763.105 66.269 762.311 67.184L758.465 67.276L757.372 61.438C758.058 60.7604 758.565 59.9228 758.848 59.0005C759.13 58.0783 759.178 57.1003 758.988 56.1547C758.799 55.2091 758.377 54.3256 757.76 53.5836C757.144 52.8416 756.353 52.2645 755.459 51.9042C754.564 51.5439 753.594 51.4117 752.635 51.5196C751.677 51.6275 750.761 51.972 749.968 52.5222C749.176 53.0723 748.533 53.8108 748.098 54.6712C747.662 55.5316 747.447 56.4869 747.472 57.451L746.172 58.381L742.644 60.899L739.464 57.699C739.469 56.6561 739.193 55.6312 738.665 54.7315C738.138 53.8319 737.378 53.0906 736.466 52.5852C735.553 52.0799 734.522 51.8292 733.479 51.8592C732.437 51.8893 731.422 52.1991 730.54 52.7561C729.658 53.3132 728.943 54.097 728.468 55.0256C727.993 55.9542 727.777 56.9933 727.841 58.0342C727.906 59.0751 728.249 60.0795 728.835 60.9422C729.421 61.8049 730.228 62.4943 731.172 62.938C731.354 64.4776 731.401 66.0302 731.313 67.578V67.584C731.302 67.689 731.292 67.793 731.275 67.896C731.034 69.2964 730.576 70.6506 729.918 71.91C716.11 74.211 705.572 85.604 705.572 99.308C705.597 103.181 706.454 107.004 708.083 110.518C709.712 114.032 712.076 117.156 715.015 119.678C715.137 119.821 715.269 119.955 715.41 120.078C715.625 120.258 715.857 120.416 716.076 120.59C716.258 120.736 716.444 120.875 716.628 121.016C717.164 121.421 717.708 121.808 718.268 122.176C718.487 122.319 718.706 122.458 718.93 122.596C719.47 122.929 720.021 123.246 720.582 123.546C720.851 123.689 721.119 123.83 721.392 123.965C721.922 124.228 722.46 124.471 723.007 124.702C723.328 124.839 723.649 124.974 723.976 125.102C724.494 125.302 725.019 125.477 725.547 125.647C725.912 125.764 726.275 125.886 726.647 125.991C727.169 126.137 727.699 126.257 728.23 126.377C728.613 126.463 728.991 126.557 729.379 126.629C729.963 126.736 730.552 126.811 731.144 126.884C731.488 126.928 731.825 126.984 732.173 127.018C733.118 127.105 734.073 127.155 735.027 127.155C735.935 127.155 736.832 127.102 737.727 127.026C737.945 127.008 738.161 126.987 738.377 126.963C739.231 126.871 740.077 126.756 740.911 126.597L740.974 126.586C741.895 126.409 742.799 126.181 743.69 125.924L743.902 125.859C745.472 125.397 747.002 124.809 748.477 124.099C749.593 129.183 753.669 134.024 754.172 134.604C754.815 135.347 755.725 135.809 756.705 135.888C757.685 135.968 758.657 135.66 759.412 135.03C762.442 132.502 766.871 126.439 764.74 119.499C765.868 119.83 767.036 120.003 768.212 120.011C773.74 120.011 778.227 116.323 780.262 113.711C780.866 112.936 781.142 111.954 781.03 110.977C780.918 110.001 780.427 109.107 779.662 108.489" fill="white"/>
<path d="M760.735 99.307C760.735 112.612 749.227 123.399 735.035 123.399C720.843 123.399 709.324 112.612 709.324 99.307C709.324 86.002 720.832 75.215 735.024 75.215C749.216 75.215 760.724 86.001 760.724 99.307" fill="#F29100"/>
<path d="M745.575 92.983C745.575 94.3556 745.168 95.6974 744.405 96.8387C743.643 97.9799 742.559 98.8694 741.291 99.3947C740.023 99.92 738.627 100.057 737.281 99.7896C735.935 99.5219 734.698 98.8609 733.728 97.8903C732.757 96.9197 732.096 95.6832 731.828 94.3369C731.561 92.9907 731.698 91.5953 732.223 90.3272C732.749 89.0591 733.638 87.9752 734.779 87.2126C735.921 86.45 737.262 86.043 738.635 86.043C740.475 86.0435 742.24 86.7749 743.542 88.0763C744.843 89.3777 745.574 91.1426 745.575 92.983Z" fill="white"/>
<path d="M743.122 91.628C743.122 92.5154 742.859 93.3828 742.365 94.1205C741.872 94.8582 741.172 95.4332 740.352 95.7727C739.532 96.1121 738.63 96.2009 737.759 96.0278C736.889 95.8546 736.09 95.4273 735.462 94.7998C734.835 94.1723 734.407 93.3729 734.234 92.5026C734.061 91.6323 734.15 90.7302 734.489 89.9104C734.829 89.0905 735.404 88.3897 736.142 87.8966C736.879 87.4035 737.747 87.1402 738.634 87.14C739.824 87.14 740.966 87.6129 741.808 88.4545C742.649 89.2962 743.122 90.4377 743.122 91.628Z" fill="black"/>
<path d="M741.291 89.773C741.291 90.0089 741.222 90.2396 741.091 90.4359C740.96 90.6322 740.774 90.7853 740.556 90.8758C740.338 90.9663 740.099 90.9901 739.867 90.9443C739.636 90.8984 739.423 90.785 739.256 90.6182C739.09 90.4515 738.976 90.239 738.93 90.0077C738.884 89.7763 738.908 89.5365 738.998 89.3186C739.088 89.1007 739.241 88.9145 739.437 88.7835C739.633 88.6526 739.864 88.5828 740.1 88.583C740.416 88.5833 740.718 88.7087 740.942 88.9318C741.165 89.1549 741.29 89.4574 741.291 89.773Z" fill="white"/>
<path d="M726.926 91.886C726.926 93.2586 726.519 94.6004 725.756 95.7417C724.994 96.883 723.91 97.7725 722.642 98.2977C721.374 98.823 719.978 98.9604 718.632 98.6927C717.286 98.4249 716.049 97.7639 715.079 96.7933C714.108 95.8228 713.447 94.5862 713.179 93.2399C712.912 91.8937 713.049 90.4983 713.574 89.2302C714.1 87.9621 714.989 86.8782 716.13 86.1156C717.272 85.353 718.613 84.946 719.986 84.946C721.827 84.9463 723.592 85.6775 724.893 86.979C726.194 88.2804 726.926 90.0455 726.926 91.886Z" fill="white"/>
<path d="M724.474 90.531C724.474 91.4182 724.211 92.2855 723.718 93.0232C723.225 93.7608 722.524 94.3358 721.704 94.6754C720.885 95.0149 719.983 95.1039 719.112 94.931C718.242 94.758 717.443 94.331 716.815 93.7038C716.188 93.0767 715.76 92.2776 715.587 91.4075C715.413 90.5373 715.501 89.6353 715.841 88.8154C716.18 87.9955 716.754 87.2945 717.491 86.8011C718.229 86.3076 719.096 86.0438 719.983 86.043C720.572 86.043 721.156 86.1591 721.7 86.3846C722.245 86.6102 722.74 86.9408 723.156 87.3575C723.573 87.7743 723.904 88.269 724.129 88.8135C724.355 89.358 724.471 89.9416 724.471 90.531" fill="black"/>
<path d="M722.643 88.676C722.643 88.9119 722.573 89.1425 722.443 89.3386C722.312 89.5348 722.125 89.6877 721.908 89.7781C721.69 89.8684 721.45 89.8921 721.219 89.8462C720.987 89.8002 720.775 89.6867 720.608 89.5199C720.441 89.3531 720.328 89.1406 720.282 88.9093C720.236 88.678 720.26 88.4382 720.35 88.2204C720.44 88.0025 720.593 87.8164 720.789 87.6855C720.986 87.5546 721.216 87.4848 721.452 87.485C721.768 87.485 722.071 87.6105 722.294 87.8339C722.518 88.0572 722.643 88.3601 722.643 88.676Z" fill="white"/>
<path d="M732.023 107.088C731.75 107.088 731.46 107.076 731.156 107.047C730.263 106.934 729.406 106.622 728.649 106.136C728.454 106.019 728.236 105.944 728.011 105.916C727.785 105.889 727.556 105.909 727.338 105.975C727.001 106.079 726.659 106.166 726.313 106.236C723.63 106.721 720.464 106.084 719.625 102.843C719.594 102.707 719.618 102.564 719.691 102.445C719.763 102.325 719.88 102.239 720.015 102.204C720.15 102.169 720.294 102.188 720.415 102.257C720.537 102.326 720.627 102.439 720.666 102.573C721.49 105.754 725.051 105.373 726.121 105.173C726.429 105.111 726.733 105.033 727.032 104.939C727.395 104.829 727.776 104.797 728.152 104.845C728.528 104.892 728.89 105.018 729.214 105.215C729.83 105.615 730.527 105.873 731.255 105.971C734.918 106.3 735.71 104.221 735.742 104.133C735.798 104.011 735.897 103.914 736.021 103.862C736.144 103.809 736.283 103.805 736.409 103.849C736.536 103.894 736.642 103.984 736.705 104.102C736.769 104.22 736.786 104.358 736.753 104.488C736.715 104.601 735.827 107.088 732.019 107.088" fill="black"/>
<path d="M753.528 87.937C753.528 88.1617 753.461 88.3813 753.337 88.5681C753.212 88.7549 753.034 88.9005 752.827 88.9865C752.619 89.0725 752.391 89.095 752.17 89.0512C751.95 89.0073 751.748 88.8991 751.589 88.7403C751.43 88.5814 751.322 88.379 751.278 88.1586C751.234 87.9383 751.257 87.7098 751.342 87.5023C751.428 87.2947 751.574 87.1173 751.761 86.9924C751.948 86.8676 752.167 86.801 752.392 86.801C752.693 86.801 752.982 86.9207 753.195 87.1337C753.408 87.3468 753.528 87.6357 753.528 87.937Z" fill="#E57500"/>
<path d="M758.532 93.313C758.532 93.5377 758.465 93.7573 758.341 93.9441C758.216 94.1309 758.038 94.2765 757.831 94.3625C757.623 94.4485 757.395 94.471 757.174 94.4272C756.954 94.3833 756.752 94.2751 756.593 94.1163C756.434 93.9574 756.326 93.755 756.282 93.5346C756.238 93.3143 756.261 93.0858 756.346 92.8783C756.432 92.6707 756.578 92.4933 756.765 92.3685C756.952 92.2436 757.171 92.177 757.396 92.177C757.697 92.177 757.986 92.2967 758.199 92.5097C758.412 92.7228 758.532 93.0117 758.532 93.313Z" fill="#E57500"/>
<path d="M753.27 96.716C753.27 96.9407 753.203 97.1603 753.079 97.3471C752.954 97.534 752.776 97.6796 752.569 97.7655C752.361 97.8515 752.133 97.874 751.912 97.8302C751.692 97.7864 751.49 97.6782 751.331 97.5193C751.172 97.3604 751.064 97.158 751.02 96.9376C750.976 96.7173 750.998 96.4889 751.084 96.2813C751.17 96.0737 751.316 95.8963 751.503 95.7715C751.69 95.6466 751.909 95.58 752.134 95.58C752.283 95.58 752.431 95.6094 752.569 95.6665C752.707 95.7236 752.832 95.8073 752.937 95.9127C753.043 96.0182 753.126 96.1435 753.184 96.2813C753.241 96.4191 753.27 96.5668 753.27 96.716Z" fill="#E57500"/>
<path d="M758.802 101.059C758.802 101.284 758.735 101.504 758.61 101.691C758.485 101.877 758.308 102.023 758.1 102.109C757.892 102.195 757.663 102.217 757.443 102.173C757.222 102.129 757.02 102.02 756.861 101.861C756.703 101.702 756.595 101.499 756.551 101.278C756.508 101.058 756.531 100.829 756.618 100.622C756.704 100.414 756.85 100.237 757.038 100.113C757.225 99.9882 757.445 99.9222 757.67 99.923C757.971 99.923 758.26 100.043 758.473 100.256C758.686 100.469 758.806 100.758 758.806 101.059" fill="#E57500"/>
<path d="M751.676 103.715C751.677 103.94 751.611 104.16 751.487 104.347C751.363 104.535 751.186 104.681 750.978 104.768C750.771 104.855 750.542 104.878 750.321 104.835C750.101 104.792 749.898 104.684 749.739 104.525C749.579 104.366 749.47 104.164 749.426 103.943C749.382 103.723 749.404 103.494 749.49 103.286C749.576 103.079 749.721 102.901 749.908 102.776C750.095 102.651 750.315 102.584 750.54 102.584C750.689 102.584 750.837 102.613 750.975 102.67C751.113 102.728 751.238 102.811 751.343 102.917C751.449 103.022 751.532 103.147 751.59 103.285C751.647 103.423 751.676 103.571 751.676 103.72" fill="#E57500"/>
<path d="M756.505 108.635C756.505 108.86 756.438 109.079 756.314 109.266C756.189 109.453 756.011 109.599 755.804 109.685C755.596 109.771 755.368 109.793 755.147 109.749C754.927 109.705 754.725 109.597 754.566 109.438C754.407 109.279 754.299 109.077 754.255 108.857C754.211 108.636 754.234 108.408 754.319 108.2C754.405 107.993 754.551 107.815 754.738 107.69C754.925 107.566 755.144 107.499 755.369 107.499C755.67 107.499 755.959 107.619 756.172 107.832C756.385 108.045 756.505 108.334 756.505 108.635Z" fill="#E57500"/>
<path d="M756.26 112.016C756.26 112.016 760.439 106.248 767.28 106.692C771.84 106.985 777.296 111.401 777.296 111.401C777.296 111.401 772.22 117.916 765.565 115.848C758.91 113.78 756.265 112.019 756.265 112.019" fill="#009245"/>
<path d="M776.347 111.492C773.583 110.938 770.79 110.538 767.981 110.292L770.881 108.874C770.945 108.843 770.994 108.787 771.017 108.719C771.04 108.652 771.035 108.578 771.004 108.514C770.988 108.482 770.967 108.454 770.94 108.431C770.914 108.407 770.883 108.389 770.849 108.378C770.782 108.355 770.708 108.36 770.644 108.391L766.898 110.222L766.752 110.215C765.656 110.175 764.558 110.22 763.469 110.349L765.511 108.249C765.536 108.224 765.555 108.194 765.568 108.161C765.581 108.128 765.588 108.093 765.587 108.058C765.587 108.022 765.579 107.987 765.565 107.955C765.551 107.922 765.531 107.893 765.506 107.869C765.48 107.844 765.45 107.824 765.417 107.811C765.385 107.798 765.349 107.792 765.314 107.792C765.279 107.793 765.244 107.8 765.211 107.814C765.179 107.828 765.15 107.849 765.125 107.874L762.61 110.459C761.643 110.597 760.683 110.783 759.735 111.017C759.701 111.026 759.669 111.042 759.64 111.063C759.612 111.084 759.589 111.111 759.571 111.142C759.553 111.172 759.541 111.206 759.537 111.241C759.532 111.276 759.534 111.312 759.543 111.346C759.552 111.38 759.567 111.412 759.588 111.441C759.609 111.469 759.636 111.493 759.666 111.51C759.697 111.528 759.73 111.54 759.765 111.545C759.8 111.549 759.836 111.547 759.87 111.538C759.891 111.538 761.039 111.238 762.616 111.007L764.441 113.507C764.461 113.538 764.487 113.565 764.517 113.586C764.548 113.606 764.582 113.621 764.619 113.628C764.655 113.634 764.692 113.634 764.728 113.626C764.764 113.618 764.798 113.602 764.828 113.58C764.858 113.558 764.883 113.531 764.902 113.499C764.921 113.467 764.932 113.432 764.937 113.395C764.941 113.358 764.938 113.321 764.928 113.286C764.917 113.25 764.9 113.217 764.876 113.189L763.223 110.922C764.383 110.768 765.554 110.711 766.723 110.752H766.812L769.451 114.252C769.476 114.285 769.509 114.312 769.547 114.331C769.584 114.349 769.625 114.359 769.667 114.359C769.725 114.359 769.782 114.34 769.829 114.305C769.886 114.262 769.923 114.198 769.933 114.127C769.943 114.056 769.925 113.984 769.882 113.927L767.517 110.794C770.446 111.031 773.358 111.441 776.238 112.022C776.256 112.026 776.275 112.028 776.294 112.028C776.361 112.029 776.426 112.004 776.476 111.959C776.526 111.915 776.557 111.853 776.564 111.786C776.571 111.719 776.552 111.653 776.512 111.599C776.472 111.545 776.414 111.508 776.348 111.495" fill="#9DB54A"/>
<path d="M756.93 111.095C756.93 111.095 751.306 115.462 751.972 122.289C752.416 126.837 757.009 132.143 757.009 132.143C757.009 132.143 763.353 126.851 761.064 120.268C758.775 113.685 756.93 111.095 756.93 111.095Z" fill="#009245"/>
<path d="M759.6 124.208L756.015 121.686C756.015 121.656 756.015 121.626 756.008 121.597C755.928 120.428 755.947 119.255 756.064 118.089L758.381 119.668C758.41 119.69 758.444 119.705 758.479 119.713C758.514 119.722 758.551 119.723 758.587 119.716C758.622 119.71 758.656 119.697 758.687 119.677C758.717 119.657 758.743 119.632 758.764 119.602C758.784 119.571 758.798 119.538 758.805 119.502C758.812 119.466 758.811 119.43 758.803 119.394C758.796 119.359 758.781 119.325 758.76 119.296C758.739 119.266 758.712 119.241 758.681 119.222L756.123 117.48C756.302 115.897 756.56 114.74 756.564 114.719C756.58 114.649 756.567 114.576 756.529 114.516C756.491 114.456 756.431 114.413 756.361 114.397C756.291 114.381 756.218 114.394 756.158 114.432C756.098 114.47 756.055 114.53 756.039 114.6C755.835 115.556 755.681 116.521 755.577 117.493L753.077 120.093C753.03 120.145 753.006 120.213 753.009 120.283C753.011 120.353 753.041 120.419 753.091 120.467C753.142 120.516 753.209 120.543 753.279 120.543C753.349 120.543 753.416 120.516 753.466 120.467L755.493 118.353C755.4 119.446 755.392 120.545 755.469 121.639C755.469 121.689 755.478 121.739 755.481 121.786L753.775 125.586C753.761 125.618 753.752 125.653 753.751 125.688C753.75 125.723 753.756 125.758 753.769 125.791C753.781 125.824 753.8 125.854 753.825 125.88C753.849 125.905 753.878 125.926 753.91 125.94C753.945 125.956 753.982 125.964 754.02 125.964C754.072 125.964 754.123 125.949 754.167 125.921C754.21 125.893 754.245 125.853 754.266 125.805L755.586 122.861C755.926 125.66 756.419 128.438 757.063 131.183C757.077 131.242 757.111 131.294 757.158 131.331C757.205 131.369 757.264 131.389 757.324 131.389C757.346 131.389 757.368 131.386 757.389 131.381C757.459 131.364 757.519 131.32 757.556 131.259C757.594 131.198 757.606 131.125 757.589 131.055C756.915 128.197 756.411 125.301 756.079 122.383L759.29 124.643C759.348 124.681 759.419 124.695 759.488 124.682C759.556 124.668 759.617 124.629 759.657 124.572C759.697 124.515 759.713 124.445 759.702 124.376C759.692 124.307 759.655 124.245 759.599 124.203" fill="#9DB54A"/>
<path d="M717.831 117.209C722.653 121.239 728.747 123.431 735.031 123.397C739.679 123.458 744.258 122.268 748.289 119.953C752.32 117.638 755.654 114.282 757.944 110.237C752.489 114.745 745.946 117.741 738.969 118.927C731.896 120.25 724.598 119.656 717.831 117.209Z" fill="#009245"/>
<path d="M735.05 67.946C735.032 68.137 735.009 68.32 734.982 68.491C734.554 70.9765 733.602 73.3424 732.188 75.431L744.05 80.213L755.63 84.875L755.662 84.792L735.05 67.946Z" fill="#FFFF00"/>
<path d="M756.583 82.491L742.23 64.93C741.586 64.8534 740.988 64.562 740.53 64.103L735.33 58.862C735.421 58.732 735.497 58.5925 735.557 58.446C735.739 57.9978 735.758 57.5001 735.611 57.0393C735.464 56.5785 735.16 56.1838 734.752 55.9236C734.344 55.6634 733.859 55.5542 733.379 55.6149C732.899 55.6756 732.455 55.9024 732.125 56.256C731.795 56.6095 731.6 57.0675 731.572 57.5503C731.544 58.0332 731.687 58.5105 731.974 58.8994C732.262 59.2882 732.677 59.5641 733.146 59.6791C733.616 59.7941 734.111 59.741 734.546 59.529C734.989 62.3118 735.156 65.1314 735.046 67.947L755.662 84.792C755.767 84.522 756.126 83.591 756.583 82.491Z" fill="#EFD800"/>
<path d="M767.48 69.075C767.176 68.9522 766.846 68.9038 766.52 68.9337C766.193 68.9636 765.878 69.071 765.601 69.247C765.324 69.423 765.093 69.6625 764.927 69.9456C764.761 70.2287 764.665 70.5473 764.647 70.875L757.761 71.039C757.112 71.0608 756.476 70.8557 755.962 70.4591C755.449 70.0625 755.089 69.4991 754.946 68.866L753.163 59.356C753.653 59.3851 754.137 59.2393 754.528 58.9445C754.92 58.6496 755.195 58.225 755.302 57.7466C755.41 57.2681 755.344 56.7669 755.116 56.3326C754.889 55.8983 754.514 55.5591 754.059 55.3757C753.604 55.1922 753.099 55.1765 752.634 55.3313C752.168 55.4861 751.773 55.8013 751.519 56.2206C751.264 56.64 751.167 57.1361 751.245 57.6203C751.323 58.1045 751.57 58.5454 751.943 58.864L748.339 61.434L757.561 80.234C757.89 79.4804 758.276 78.7526 758.715 78.057C760.56 75.8378 762.659 73.8428 764.969 72.113C765.145 72.3862 765.383 72.614 765.663 72.7779C765.944 72.9419 766.259 73.0373 766.583 73.0566C766.907 73.0758 767.232 73.0182 767.53 72.8885C767.827 72.7588 768.091 72.5607 768.297 72.3102C768.504 72.0597 768.649 71.764 768.72 71.447C768.791 71.13 768.787 70.8007 768.706 70.4858C768.626 70.171 768.473 69.8795 768.259 69.635C768.045 69.3906 767.776 69.2001 767.475 69.079" fill="#A08100"/>
<path d="M744.066 64.489C743.531 64.8612 742.875 65.0186 742.229 64.93L756.582 82.492C756.882 81.767 757.226 80.969 757.566 80.231L748.344 61.431L744.066 64.489Z" fill="#CCAA00"/>
<path d="M979.273 88.254C975.173 78.872 963.143 75.549 954.317 80.492C949.905 75.467 941.225 78.292 941.151 85.219C941.041 84.2279 940.733 83.2691 940.245 82.3994C939.757 81.5298 939.099 80.7672 938.311 80.1569C937.522 79.5466 936.619 79.1011 935.655 78.8468C934.69 78.5926 933.685 78.5349 932.698 78.677C923.482 74.923 912.322 76.56 906.432 84.877C905.606 83.3087 904.254 82.0808 902.614 81.4084C900.974 80.736 899.149 80.6619 897.46 81.199C893.815 82.3738 890.257 83.8053 886.814 85.483C886.822 83.201 886.885 80.143 886.949 78.201C886.965 76.2882 886.252 74.4412 884.955 73.0348C883.659 71.6283 881.876 70.7679 879.968 70.628C875.951 70.259 871.868 73.662 871.953 77.889C871.853 80.447 871.8 83.213 871.816 85.944C867.064 78.281 855.979 76.044 848.146 80.489C847.314 79.5557 846.267 78.8401 845.095 78.4043C843.923 77.9686 842.663 77.826 841.423 77.989C843.098 74.089 842.607 68.962 837.723 69.095C833.934 69.371 828.966 71.215 827.552 76.329C825.08 76.0304 822.582 76.6024 820.487 77.9468C818.391 79.2912 816.83 81.3238 816.071 83.695C815.128 82.4883 813.837 81.6011 812.372 81.1538C810.908 80.7065 809.341 80.7209 807.885 81.195C804.24 82.3698 800.682 83.8013 797.239 85.479C797.247 83.179 797.31 80.149 797.374 78.197C797.39 76.2842 796.677 74.4372 795.38 73.0308C794.084 71.6243 792.301 70.7639 790.393 70.624C786.376 70.258 782.287 73.657 782.379 77.887C781.907 89.149 782.457 100.431 784.024 111.593C784.399 113.202 785.293 114.643 786.569 115.693C787.844 116.742 789.43 117.343 791.081 117.401C792.732 117.46 794.357 116.973 795.703 116.016C797.05 115.058 798.043 113.684 798.531 112.106C801.675 113.442 805.495 114.766 808.366 115.773C809.292 116.171 810.289 116.375 811.297 116.372C812.304 116.369 813.3 116.159 814.224 115.756C815.147 115.353 815.978 114.765 816.665 114.029C817.352 113.292 817.881 112.422 818.219 111.473C818.912 109.651 818.863 107.63 818.084 105.843C817.304 104.057 815.855 102.647 814.048 101.916C811.11 100.879 807.722 99.824 804.727 98.564C807.215 97.529 809.713 96.55 812.618 95.435C814.374 94.871 815.853 93.6659 816.76 92.06C817.481 93.4709 818.511 94.7013 819.773 95.66C818.573 98.122 818.973 100.784 818.843 103.604C818.852 105.817 818.879 107.974 819.017 110.112C819.505 115.612 826.262 118.704 831.098 115.133C832.006 114.451 832.741 113.563 833.241 112.543C833.742 111.524 833.995 110.4 833.979 109.264C833.917 108.109 833.821 107.171 833.817 105.852C833.787 104.297 833.781 102.392 833.837 100.935C834.181 99.16 833.944 97.3214 833.163 95.691C833.861 95.1664 834.492 94.5571 835.04 93.877C835.229 98.946 835.595 104.726 836.123 109.549C836.247 111.414 837.08 113.16 838.452 114.429C839.824 115.698 841.629 116.393 843.498 116.372C844.5 116.377 845.493 116.182 846.419 115.8C847.345 115.417 848.186 114.854 848.892 114.143C849.598 113.433 850.156 112.589 850.533 111.66C850.91 110.732 851.099 109.738 851.088 108.736C851.061 108.205 851.028 107.388 851.043 106.836C851.148 102.529 851.93 96.808 855.48 94.036C855.97 93.6879 856.57 93.5281 857.168 93.586C858.148 93.666 858.768 93.886 859.023 94.246C859.746 95.5837 860.075 97.0988 859.973 98.616C859.904 101.471 859.419 104.301 858.535 107.016C858.267 107.79 858.129 108.604 858.125 109.423C858.144 111.422 858.953 113.332 860.375 114.737C861.797 116.142 863.717 116.928 865.716 116.923C869.991 116.887 872.56 113.833 873.333 109.828C873.325 111.639 873.967 113.392 875.143 114.769C876.319 116.146 877.95 117.055 879.739 117.331C881.529 117.607 883.358 117.232 884.894 116.273C886.43 115.314 887.57 113.835 888.108 112.106C891.253 113.442 895.092 114.776 897.962 115.779C898.899 116.178 899.908 116.379 900.926 116.37C901.944 116.36 902.949 116.139 903.878 115.721C904.806 115.304 905.638 114.698 906.321 113.943C907.004 113.188 907.523 112.3 907.846 111.334C913.907 117.626 924.396 119.034 932.233 115.108C934.754 116.505 937.597 117.217 940.479 117.174C943.016 117.048 944.979 117.031 946.805 115.817C947.962 116.282 949.216 116.456 950.456 116.323C951.696 116.19 952.884 115.755 953.917 115.055C954.949 114.355 955.794 113.413 956.376 112.31C956.959 111.207 957.262 109.978 957.258 108.731C957.033 104.9 957.587 100.218 959.344 96.805C959.906 95.729 960.69 94.7848 961.644 94.035C962.253 93.375 964.726 93.492 965.188 94.245C966.471 96.113 966.231 100.117 965.749 102.731C965.449 105.145 964.365 107.131 964.289 109.424C964.289 110.471 964.509 111.507 964.936 112.463C965.363 113.419 965.986 114.274 966.766 114.973C970.694 118.628 977.59 116.879 978.987 111.583C981.269 104.206 982.606 95.335 979.269 88.249M898.336 100.105C896.985 99.631 895.636 99.116 894.301 98.568C896.858 97.506 899.536 96.452 902.501 95.324C902.282 97.4185 902.363 99.5337 902.744 101.605C901.374 101.155 899.896 100.652 898.336 100.105ZM917.892 99.974C916.345 97.45 917.746 92.954 920.91 92.023C922.63 91.6033 924.434 91.675 926.115 92.23C926.151 93.306 926.215 94.359 926.3 95.399C922.492 95.821 920.668 98.955 922.492 102.305C921.6 102.286 920.723 102.067 919.927 101.664C919.13 101.261 918.435 100.682 917.892 99.974Z" fill="white"/>
<path d="M1175.66 86.572C1169.24 73.315 1151.03 70.942 1140.77 80.993C1139.07 77.581 1135.1 76.122 1131.51 75.093C1122.28 72.838 1110.99 75.052 1105.4 83.1C1101.29 76.88 1090.75 79.814 1091.66 87.665C1092.46 92.983 1091.1 101.32 1084.81 101.743C1083.84 101.862 1082.85 101.713 1081.96 101.312C1079.58 99.706 1080.26 95.143 1080.82 92.481C1081.2 89.989 1083.01 87.086 1083.05 84.546C1083.05 83.5025 1082.82 82.4716 1082.38 81.5257C1081.94 80.5797 1081.29 79.7416 1080.49 79.07C1076.78 75.841 1070.39 77.163 1068.68 81.908C1068.15 83.195 1067.69 84.492 1067.29 85.788C1065.46 82.4983 1062.68 79.8385 1059.31 78.156C1055.8 76.4441 1051.93 75.594 1048.02 75.676C1038.41 75.496 1029.6 80.854 1027.02 90.081C1022.59 83.229 1013.5 80.344 1005.37 82.331C1005.49 81.084 1005.6 79.98 1005.72 79.045C1005.94 77.11 1005.39 75.166 1004.19 73.6308C1002.99 72.0956 1001.24 71.0919 999.31 70.8355C997.38 70.5792 995.426 71.0906 993.868 72.2598C992.311 73.429 991.275 75.1627 990.982 77.088C990.112 83.7552 989.69 90.4733 989.72 97.197C989.72 99.873 989.791 102.423 989.93 104.775C990.037 106.998 990.319 109.208 990.776 111.386C991.182 113.248 992.288 114.883 993.865 115.953C995.443 117.023 997.37 117.446 999.251 117.135C1001.13 116.825 1002.82 115.804 1003.97 114.284C1005.12 112.763 1005.64 110.86 1005.43 108.966C1005.33 108.079 1005.22 107.066 1005.22 106.184C1005.15 103.295 1006.74 96.652 1010.44 96.744C1013.19 96.8 1013.91 97.689 1014.17 98.022C1016.04 100.276 1015.82 104.887 1014.94 107.953C1013.58 112.567 1017.49 117.259 1022.17 117.147C1023.75 117.155 1025.29 116.653 1026.56 115.716C1027.82 114.779 1028.76 113.457 1029.21 111.947C1029.5 110.936 1029.74 109.91 1029.92 108.874C1038.43 121.116 1061.06 120.244 1067.66 106.503C1069.19 109.76 1071.72 112.441 1074.88 114.153C1080.44 117.279 1089.83 117.411 1095.63 113.502C1099.66 119.143 1109.38 116.341 1109.32 109.278C1109.37 108.115 1109.1 106.961 1108.54 105.938C1108.3 105.149 1108.11 104.343 1107.98 103.527C1109.15 104.415 1110.44 105.151 1111.79 105.718C1111.32 106.688 1111.07 107.751 1111.05 108.83C1111.04 109.91 1111.26 110.979 1111.71 111.962C1112.15 112.945 1112.81 113.817 1113.64 114.514C1114.46 115.212 1115.43 115.719 1116.47 115.998C1117.94 116.39 1119.43 116.717 1120.91 116.972C1127.93 118.313 1136.94 116.658 1139.75 109.415C1142.01 111.81 1144.74 113.715 1147.76 115.014C1150.79 116.313 1154.05 116.977 1157.34 116.966C1161.14 116.837 1165.97 116.489 1168.07 112.866C1168.74 111.732 1169.1 110.436 1169.11 109.115C1169.12 107.793 1168.77 106.494 1168.1 105.353C1177.63 103.201 1179.44 94.653 1175.65 86.572M1053.41 101.054C1052.08 102.329 1049.74 102.597 1048.02 102.597C1044.24 102.668 1040.95 100.661 1041.12 96.583C1041.15 92.254 1043.35 90.602 1048.02 90.519C1050.44 90.519 1052.26 91.052 1053.43 92.102C1055.42 93.55 1055.41 99.525 1053.41 101.054ZM1131.03 94.741C1127.69 93.85 1123.61 93.605 1120.06 93.02C1119.14 92.9035 1118.23 92.649 1117.39 92.265C1117.33 91.84 1117.42 91.239 1117.62 91.117C1119.35 89.447 1122.23 89.099 1124.82 89.045C1126.63 88.9507 1128.43 89.32 1130.05 90.118C1131.54 91.0621 1133.31 91.449 1135.05 91.21C1134.7 92.7925 1134.52 94.4085 1134.51 96.03C1133.4 95.475 1132.23 95.0428 1131.03 94.741ZM1143.11 98.506V98.471L1143.13 98.483L1143.11 98.506Z" fill="white"/>
<path d="M812.392 105.767C807.015 103.905 800.758 102.061 796.066 98.722C800.305 95.222 805.832 93.731 811.232 91.485C814.932 90.313 813.867 85.052 810.156 85.009C808.165 85.4591 806.221 86.0987 804.351 86.919C800.393 88.4212 796.62 90.3705 793.104 92.729C793.032 89.201 793.029 85.297 793.095 81.82C793.125 80.28 793.155 79.098 793.188 78.202C793.211 77.3414 792.899 76.5056 792.317 75.8712C791.735 75.2367 790.929 74.8533 790.07 74.802C789.627 74.7613 789.18 74.8133 788.758 74.9547C788.336 75.096 787.948 75.3236 787.619 75.623C787.29 75.9224 787.027 76.287 786.846 76.6936C786.666 77.1002 786.571 77.54 786.57 77.985C786.477 80.339 786.43 82.821 786.43 85.359C786.43 89.57 786.564 93.876 786.83 98.159C787.105 102.52 787.505 106.687 788.104 110.618C788.225 111.189 788.494 111.718 788.884 112.152C789.275 112.586 789.773 112.91 790.328 113.09C790.883 113.27 791.476 113.301 792.047 113.179C792.618 113.057 793.147 112.786 793.58 112.395C793.982 112.044 794.288 111.597 794.469 111.095C794.649 110.593 794.699 110.053 794.612 109.527C794.369 108.068 794.171 106.827 794.019 105.252C798.654 107.979 805.162 110.222 809.943 111.887C813.998 113.632 816.543 107.465 812.398 105.765" fill="#E88C15"/>
<path d="M829.735 99.515C830.247 96.784 827.022 95.03 824.735 96.295C824.283 96.5315 823.9 96.8825 823.626 97.313C823.352 97.7434 823.195 98.2382 823.172 98.748C823.077 100.248 823.029 101.878 823.029 103.605C823.029 105.671 823.073 107.705 823.179 109.664C823.361 112.18 826.639 113.298 828.596 111.774C829.852 110.748 829.865 109.727 829.696 107.974C829.666 107.402 829.644 106.724 829.63 105.939C829.603 104.111 829.567 101.076 829.738 99.517" fill="#248C41"/>
<path d="M832.393 83.753C830.459 80.012 824.5 79.412 821.667 82.312C817.576 86.392 820.42 93.892 826.521 93.682C827.691 93.6964 828.844 93.402 829.863 92.8287C830.883 92.2553 831.734 91.4231 832.329 90.4162C832.925 89.4092 833.244 88.263 833.255 87.0931C833.267 85.9233 832.969 84.7712 832.393 83.753Z" fill="#E88C15"/>
<path d="M869.308 90.024C865.108 80.671 852.155 80.018 845.832 87.685C845.826 87.004 845.812 86.255 845.791 85.457C845.809 85.0364 845.743 84.6164 845.597 84.2215C845.451 83.8267 845.227 83.4648 844.94 83.157C844.653 82.8493 844.307 82.6017 843.923 82.4289C843.539 82.256 843.125 82.1612 842.704 82.15C842.255 82.0897 841.798 82.1278 841.366 82.2618C840.933 82.3958 840.535 82.6224 840.198 82.9259C839.862 83.2294 839.596 83.6024 839.418 84.0191C839.241 84.4359 839.156 84.8863 839.17 85.339C839.138 85.825 839.122 86.346 839.122 86.889C839.121 94.315 839.51 101.736 840.288 109.121C840.567 113.281 846.832 113.23 846.899 108.738C846.84 108.211 846.852 107.389 846.852 106.844C846.927 101.209 848.278 94.19 852.964 90.69C855.519 88.562 860.803 89.203 862.452 91.848C863.697 93.8792 864.293 96.2415 864.16 98.62C864.091 101.928 863.533 105.209 862.505 108.354C862.286 108.959 862.253 109.616 862.411 110.24C862.57 110.864 862.912 111.427 863.393 111.854C863.953 112.358 864.664 112.664 865.415 112.723C866.166 112.782 866.916 112.591 867.548 112.18C868.167 111.761 868.612 111.131 868.801 110.408C869.423 108.398 869.933 106.355 870.33 104.289C871.197 99.765 871.292 94.078 869.307 90.02" fill="#E88C15"/>
<path d="M901.968 105.767C896.591 103.905 890.334 102.061 885.642 98.722C889.881 95.222 895.408 93.731 900.808 91.485C904.508 90.313 903.443 85.052 899.732 85.009C897.74 85.459 895.795 86.0986 893.925 86.919C889.967 88.4212 886.194 90.3705 882.678 92.729C882.606 89.201 882.603 85.297 882.669 81.82C882.699 80.28 882.729 79.098 882.762 78.202C882.785 77.3414 882.473 76.5056 881.891 75.8712C881.309 75.2367 880.503 74.8533 879.644 74.802C879.201 74.7613 878.754 74.8133 878.332 74.9547C877.91 75.096 877.522 75.3236 877.193 75.623C876.864 75.9224 876.601 76.287 876.42 76.6936C876.24 77.1002 876.145 77.54 876.144 77.985C876.051 80.339 876.004 82.821 876.004 85.359C876.004 89.57 876.138 93.876 876.404 98.159C876.679 102.52 877.079 106.687 877.678 110.618C877.799 111.189 878.068 111.718 878.458 112.152C878.849 112.586 879.347 112.91 879.902 113.09C880.457 113.27 881.05 113.301 881.621 113.179C882.192 113.057 882.721 112.786 883.154 112.395C883.556 112.044 883.862 111.597 884.043 111.095C884.223 110.593 884.273 110.053 884.186 109.527C883.943 108.068 883.745 106.827 883.593 105.252C888.227 107.979 894.739 110.223 899.517 111.887C903.572 113.632 906.117 107.465 901.972 105.765" fill="#E88C15"/>
<path d="M940.231 105.407C937.21 101.019 937.062 95.983 936.931 90.307C936.754 88.323 937.543 85.907 936.422 84.158C935.955 83.5304 935.288 83.0812 934.531 82.8848C933.774 82.6884 932.972 82.7565 932.259 83.078C923.503 78.878 912.48 80.724 908.2 90.071C905.975 94.747 905.915 101.252 908.691 105.671C913.791 114.397 927.28 115.54 934.421 108.571C936.661 112.809 942.845 109.558 940.221 105.411M919.462 88.092C921.267 87.5659 923.163 87.4288 925.025 87.6898C926.886 87.9508 928.671 88.6039 930.262 89.606C930.204 93.6369 930.595 97.6617 931.428 101.606C930.626 103.054 929.461 104.27 928.049 105.133C926.636 105.996 925.023 106.477 923.368 106.529C919.81 106.529 916.353 105.221 914.413 102.302C911.292 97.455 913.865 89.894 919.461 88.087" fill="#E88C15"/>
<path d="M975.477 90.024C971.277 80.671 958.324 80.018 952.001 87.685C951.995 87.004 951.981 86.255 951.96 85.457C951.978 85.0364 951.912 84.6164 951.766 84.2215C951.62 83.8267 951.396 83.4648 951.109 83.157C950.822 82.8493 950.476 82.6017 950.092 82.4289C949.708 82.256 949.294 82.1612 948.873 82.15C948.424 82.0897 947.967 82.1278 947.535 82.2618C947.102 82.3958 946.704 82.6224 946.367 82.9259C946.031 83.2294 945.765 83.6024 945.587 84.0191C945.41 84.4359 945.325 84.8863 945.339 85.339C945.307 85.825 945.291 86.346 945.291 86.889C945.29 94.315 945.679 101.736 946.457 109.121C946.736 113.281 953.001 113.23 953.068 108.738C953.009 108.211 953.021 107.389 953.021 106.844C953.096 101.209 954.447 94.19 959.133 90.69C961.687 88.562 966.972 89.203 968.621 91.848C969.866 93.8792 970.462 96.2415 970.329 98.62C970.26 101.928 969.702 105.209 968.674 108.354C968.455 108.959 968.422 109.616 968.58 110.24C968.739 110.864 969.081 111.427 969.562 111.854C970.122 112.358 970.833 112.664 971.584 112.723C972.335 112.782 973.085 112.591 973.717 112.18C974.336 111.761 974.781 111.131 974.97 110.408C975.592 108.398 976.102 106.355 976.499 104.289C977.366 99.765 977.461 94.078 975.476 90.02" fill="#E88C15"/>
<path d="M831.306 80.175C831.019 75.856 833.585 73.693 838.081 73.275C838.081 73.275 838.473 77.052 835.608 78.483C834.251 79.2248 832.806 79.7936 831.308 80.176" fill="#248C41"/>
<path d="M925.959 99.772C925.959 99.772 933.147 97.505 938.69 102.197C942.383 105.321 944.238 112.516 944.238 112.516C944.238 112.516 935.809 114.852 931.456 108.895C927.103 102.938 925.956 99.772 925.956 99.772" fill="#248C41"/>
<path d="M1019.03 88.126C1013.67 85.008 1005.48 84.889 1000.61 89.657C1000.75 87.257 1000.96 84.578 1001.17 82.257C1001.3 80.825 1001.43 79.563 1001.56 78.506C1001.64 78.0576 1001.61 77.5981 1001.48 77.1627C1001.35 76.7274 1001.12 76.3276 1000.81 75.994C999.104 74.094 995.37 74.894 995.127 77.682C994.285 84.1544 993.877 90.6761 993.907 97.203C993.933 101.621 994.012 106.57 994.854 110.438C995.024 111.264 995.505 111.992 996.196 112.474C996.888 112.956 997.738 113.155 998.571 113.029C999.396 112.904 1000.14 112.462 1000.64 111.797C1001.15 111.133 1001.37 110.298 1001.27 109.47C1001.21 108.904 1001.15 108.319 1001.1 107.731C1000.93 105.698 1001.09 103.649 1001.58 101.669C1002.66 97.428 1005.41 92.402 1010.48 92.562C1013.67 92.618 1015.95 93.549 1017.44 95.41C1019.1 97.6737 1019.93 100.44 1019.79 103.243C1019.79 105.199 1019.52 107.146 1019 109.031C1018.85 109.542 1018.84 110.083 1018.97 110.599C1019.1 111.114 1019.37 111.584 1019.75 111.96C1020.14 112.372 1020.63 112.673 1021.18 112.835C1021.73 112.997 1022.3 113.014 1022.86 112.883C1023.41 112.753 1023.92 112.479 1024.34 112.091C1024.75 111.702 1025.06 111.212 1025.23 110.668C1025.95 108.113 1026.31 105.47 1026.31 102.814C1026.31 96.738 1024.21 91.207 1019.03 88.128" fill="#E88C15"/>
<path d="M1057.39 81.89C1054.47 80.4826 1051.26 79.7898 1048.02 79.869C1037.95 79.68 1030.16 86.339 1030.32 96.584C1030.24 111.084 1045.54 116.732 1057.3 111.229C1062.87 108.39 1065.76 102.92 1065.73 96.584C1065.75 90.169 1063.02 84.767 1057.4 81.891M1059.1 96.583C1059.1 99.829 1058.19 102.283 1056.31 104.083C1053.46 107.077 1046.16 107.633 1042.18 105.521C1040.59 104.753 1039.26 103.547 1038.33 102.044C1036.02 98.434 1036.6 91.719 1039.83 89.061C1041.82 87.226 1044.5 86.333 1048.01 86.333C1054.71 86.347 1059.17 89.658 1059.1 96.585" fill="#E88C15"/>
<path d="M1104.1 105.517C1103.27 100.852 1102.75 96.1375 1102.55 91.404C1102.47 89.825 1102.43 88.404 1102.43 87.165C1102.43 86.7106 1102.34 86.2605 1102.15 85.8468C1101.96 85.4331 1101.69 85.0661 1101.34 84.772C1100.76 84.2907 1100.05 83.9977 1099.3 83.9323C1098.55 83.8669 1097.79 84.0322 1097.14 84.406C1094.89 85.588 1096.21 88.587 1096.06 90.59C1096.07 95.807 1094.45 100.927 1090.56 103.953C1087.83 106.253 1082.6 106.565 1079.8 104.915C1073.81 101.074 1076.29 91.449 1078.57 85.805C1080.24 81.841 1074.05 79.651 1072.55 83.467C1068.88 92.232 1067.41 105.155 1076.9 110.489C1079.77 111.92 1082.97 112.529 1086.17 112.248C1088.33 112.117 1090.44 111.539 1092.36 110.551C1094.29 109.563 1095.99 108.186 1097.36 106.508C1097.66 107.848 1098.09 109.155 1098.65 110.408C1098.92 111.056 1099.41 111.593 1100.02 111.928C1102.02 113.082 1105.18 111.739 1105.12 109.283C1105.17 108.782 1105.05 108.28 1104.79 107.847C1104.47 107.103 1104.23 106.322 1104.08 105.52" fill="#E88C15"/>
<path d="M1135.78 81.436C1127.78 76.336 1113.75 77.604 1108.49 86.029C1105.92 90.019 1106.51 97.129 1110.1 99.884C1112.53 101.724 1115.4 102.885 1118.42 103.247C1121.34 103.673 1124.58 103.915 1127.29 104.447C1128.22 104.579 1129.11 104.882 1129.93 105.341C1129.94 105.485 1129.96 105.592 1129.63 105.89C1129.11 106.303 1128.52 106.612 1127.89 106.801C1124.6 107.883 1121.89 106.322 1118.31 105.884C1114.82 105.735 1114.04 111.092 1117.56 111.955C1121.78 113.079 1126.56 113.855 1130.7 112.422C1133.95 111.322 1136.34 108.843 1136.31 105.335C1136.14 97.504 1125.04 98.341 1119.38 97.157C1115.71 96.396 1113.18 95.808 1113.18 91.925C1113.2 84.286 1127.32 83.387 1132.29 86.582C1135.54 88.695 1139.48 83.982 1135.78 81.44" fill="#E88C15"/>
<path d="M1171.89 88.406C1170.47 85.5779 1168.29 83.1988 1165.6 81.5326C1162.9 79.8663 1159.8 78.978 1156.64 78.966C1153.54 78.8771 1150.48 79.5984 1147.75 81.0584C1145.01 82.5184 1142.71 84.6665 1141.07 87.29C1138.35 91.667 1137.78 98.234 1140.28 102.945C1143.44 109.115 1150.47 112.807 1157.34 112.775C1159.13 112.777 1160.92 112.533 1162.65 112.05C1163.02 111.963 1163.37 111.803 1163.69 111.577C1164 111.351 1164.26 111.065 1164.46 110.736C1164.79 110.171 1164.94 109.521 1164.89 108.87C1164.84 108.219 1164.6 107.598 1164.19 107.088C1163.78 106.577 1163.23 106.201 1162.61 106.008C1161.99 105.815 1161.32 105.814 1160.7 106.005C1155.59 107.464 1149.63 105.147 1146.51 100.951C1152.74 101.686 1159.99 102.451 1166.13 101.482C1173.61 100.294 1174.74 94.917 1171.89 88.406ZM1146.78 94.578C1146.2 94.5012 1145.62 94.5699 1145.07 94.778C1145.4 92.7831 1146.26 90.9134 1147.56 89.3628C1148.86 87.8122 1150.55 86.637 1152.46 85.9592C1154.36 85.2813 1156.41 85.1254 1158.4 85.5077C1160.38 85.8899 1162.23 86.7963 1163.75 88.133C1165.52 89.65 1167.01 91.676 1167.01 93.966C1167.01 94.323 1166.95 94.644 1166.2 94.958C1165.08 95.599 1160.58 95.849 1157.99 95.611C1154.23 95.4812 1150.49 95.1356 1146.77 94.576" fill="#E88C15"/>
</g>
</g>
</g>
<path d="M155.284 128L150.511 110.545H152.659L156.307 124.761H156.477L160.193 110.545H162.58L166.295 124.761H166.466L170.114 110.545H172.261L167.489 128H165.307L161.455 114.091H161.318L157.466 128H155.284ZM178.892 128.273C177.631 128.273 176.543 127.994 175.628 127.438C174.719 126.875 174.017 126.091 173.523 125.085C173.034 124.074 172.79 122.898 172.79 121.557C172.79 120.216 173.034 119.034 173.523 118.011C174.017 116.983 174.705 116.182 175.585 115.608C176.472 115.028 177.506 114.739 178.688 114.739C179.369 114.739 180.043 114.852 180.707 115.08C181.372 115.307 181.977 115.676 182.523 116.188C183.068 116.693 183.503 117.364 183.827 118.199C184.151 119.034 184.312 120.062 184.312 121.284V122.136H174.222V120.398H182.267C182.267 119.659 182.119 119 181.824 118.42C181.534 117.841 181.119 117.384 180.58 117.048C180.045 116.713 179.415 116.545 178.688 116.545C177.886 116.545 177.193 116.744 176.608 117.142C176.028 117.534 175.582 118.045 175.27 118.676C174.957 119.307 174.801 119.983 174.801 120.705V121.864C174.801 122.852 174.972 123.69 175.312 124.378C175.659 125.06 176.139 125.58 176.753 125.938C177.366 126.29 178.08 126.466 178.892 126.466C179.42 126.466 179.898 126.392 180.324 126.244C180.756 126.091 181.128 125.864 181.44 125.562C181.753 125.256 181.994 124.875 182.165 124.42L184.108 124.966C183.903 125.625 183.56 126.205 183.077 126.705C182.594 127.199 181.997 127.585 181.287 127.864C180.577 128.136 179.778 128.273 178.892 128.273ZM189.384 110.545V128H187.372V110.545H189.384ZM198.386 128.273C197.158 128.273 196.102 127.983 195.215 127.403C194.329 126.824 193.647 126.026 193.17 125.009C192.692 123.991 192.454 122.83 192.454 121.523C192.454 120.193 192.698 119.02 193.187 118.003C193.681 116.98 194.369 116.182 195.249 115.608C196.136 115.028 197.17 114.739 198.352 114.739C199.272 114.739 200.102 114.909 200.84 115.25C201.579 115.591 202.184 116.068 202.656 116.682C203.127 117.295 203.42 118.011 203.533 118.83H201.522C201.369 118.233 201.028 117.705 200.499 117.244C199.977 116.778 199.272 116.545 198.386 116.545C197.602 116.545 196.914 116.75 196.323 117.159C195.738 117.562 195.281 118.134 194.951 118.872C194.627 119.605 194.465 120.466 194.465 121.455C194.465 122.466 194.624 123.347 194.942 124.097C195.266 124.847 195.721 125.429 196.306 125.844C196.897 126.259 197.59 126.466 198.386 126.466C198.908 126.466 199.383 126.375 199.809 126.193C200.235 126.011 200.596 125.75 200.891 125.409C201.187 125.068 201.397 124.659 201.522 124.182H203.533C203.42 124.955 203.138 125.651 202.69 126.27C202.246 126.884 201.658 127.372 200.925 127.736C200.198 128.094 199.352 128.273 198.386 128.273ZM211.792 128.273C210.61 128.273 209.573 127.991 208.681 127.429C207.795 126.866 207.102 126.08 206.602 125.068C206.107 124.057 205.86 122.875 205.86 121.523C205.86 120.159 206.107 118.969 206.602 117.952C207.102 116.935 207.795 116.145 208.681 115.582C209.573 115.02 210.61 114.739 211.792 114.739C212.974 114.739 214.008 115.02 214.894 115.582C215.786 116.145 216.479 116.935 216.974 117.952C217.474 118.969 217.724 120.159 217.724 121.523C217.724 122.875 217.474 124.057 216.974 125.068C216.479 126.08 215.786 126.866 214.894 127.429C214.008 127.991 212.974 128.273 211.792 128.273ZM211.792 126.466C212.69 126.466 213.428 126.236 214.008 125.776C214.587 125.315 215.016 124.71 215.295 123.96C215.573 123.21 215.712 122.398 215.712 121.523C215.712 120.648 215.573 119.832 215.295 119.077C215.016 118.321 214.587 117.71 214.008 117.244C213.428 116.778 212.69 116.545 211.792 116.545C210.894 116.545 210.156 116.778 209.576 117.244C208.996 117.71 208.567 118.321 208.289 119.077C208.011 119.832 207.871 120.648 207.871 121.523C207.871 122.398 208.011 123.21 208.289 123.96C208.567 124.71 208.996 125.315 209.576 125.776C210.156 126.236 210.894 126.466 211.792 126.466ZM220.794 128V114.909H222.737V116.955H222.908C223.18 116.256 223.621 115.713 224.229 115.327C224.837 114.935 225.567 114.739 226.419 114.739C227.283 114.739 228.001 114.935 228.575 115.327C229.155 115.713 229.607 116.256 229.93 116.955H230.067C230.402 116.278 230.905 115.741 231.575 115.344C232.246 114.94 233.05 114.739 233.987 114.739C235.158 114.739 236.115 115.105 236.859 115.838C237.604 116.565 237.976 117.699 237.976 119.239V128H235.964V119.239C235.964 118.273 235.7 117.582 235.172 117.168C234.643 116.753 234.021 116.545 233.305 116.545C232.385 116.545 231.672 116.824 231.166 117.381C230.661 117.932 230.408 118.631 230.408 119.477V128H228.362V119.034C228.362 118.29 228.121 117.69 227.638 117.236C227.155 116.776 226.533 116.545 225.771 116.545C225.249 116.545 224.76 116.685 224.305 116.963C223.857 117.241 223.493 117.628 223.214 118.122C222.942 118.611 222.805 119.176 222.805 119.818V128H220.794ZM247.142 128.273C245.881 128.273 244.793 127.994 243.878 127.438C242.969 126.875 242.267 126.091 241.773 125.085C241.284 124.074 241.04 122.898 241.04 121.557C241.04 120.216 241.284 119.034 241.773 118.011C242.267 116.983 242.955 116.182 243.835 115.608C244.722 115.028 245.756 114.739 246.938 114.739C247.619 114.739 248.293 114.852 248.957 115.08C249.622 115.307 250.227 115.676 250.773 116.188C251.318 116.693 251.753 117.364 252.077 118.199C252.401 119.034 252.562 120.062 252.562 121.284V122.136H242.472V120.398H250.517C250.517 119.659 250.369 119 250.074 118.42C249.784 117.841 249.369 117.384 248.83 117.048C248.295 116.713 247.665 116.545 246.938 116.545C246.136 116.545 245.443 116.744 244.858 117.142C244.278 117.534 243.832 118.045 243.52 118.676C243.207 119.307 243.051 119.983 243.051 120.705V121.864C243.051 122.852 243.222 123.69 243.562 124.378C243.909 125.06 244.389 125.58 245.003 125.938C245.616 126.29 246.33 126.466 247.142 126.466C247.67 126.466 248.148 126.392 248.574 126.244C249.006 126.091 249.378 125.864 249.69 125.562C250.003 125.256 250.244 124.875 250.415 124.42L252.358 124.966C252.153 125.625 251.81 126.205 251.327 126.705C250.844 127.199 250.247 127.585 249.537 127.864C248.827 128.136 248.028 128.273 247.142 128.273ZM268.065 114.909V116.614H261.281V114.909H268.065ZM263.259 111.773H265.27V124.25C265.27 124.818 265.352 125.244 265.517 125.528C265.688 125.807 265.903 125.994 266.165 126.091C266.432 126.182 266.713 126.227 267.009 126.227C267.23 126.227 267.412 126.216 267.554 126.193C267.696 126.165 267.81 126.142 267.895 126.125L268.304 127.932C268.168 127.983 267.977 128.034 267.733 128.085C267.489 128.142 267.179 128.17 266.804 128.17C266.236 128.17 265.679 128.048 265.134 127.804C264.594 127.56 264.145 127.188 263.787 126.688C263.435 126.188 263.259 125.557 263.259 124.795V111.773ZM276.268 128.273C275.087 128.273 274.05 127.991 273.158 127.429C272.271 126.866 271.578 126.08 271.078 125.068C270.584 124.057 270.337 122.875 270.337 121.523C270.337 120.159 270.584 118.969 271.078 117.952C271.578 116.935 272.271 116.145 273.158 115.582C274.05 115.02 275.087 114.739 276.268 114.739C277.45 114.739 278.484 115.02 279.371 115.582C280.263 116.145 280.956 116.935 281.45 117.952C281.95 118.969 282.2 120.159 282.2 121.523C282.2 122.875 281.95 124.057 281.45 125.068C280.956 126.08 280.263 126.866 279.371 127.429C278.484 127.991 277.45 128.273 276.268 128.273ZM276.268 126.466C277.166 126.466 277.905 126.236 278.484 125.776C279.064 125.315 279.493 124.71 279.771 123.96C280.05 123.21 280.189 122.398 280.189 121.523C280.189 120.648 280.05 119.832 279.771 119.077C279.493 118.321 279.064 117.71 278.484 117.244C277.905 116.778 277.166 116.545 276.268 116.545C275.371 116.545 274.632 116.778 274.053 117.244C273.473 117.71 273.044 118.321 272.766 119.077C272.487 119.832 272.348 120.648 272.348 121.523C272.348 122.398 272.487 123.21 272.766 123.96C273.044 124.71 273.473 125.315 274.053 125.776C274.632 126.236 275.371 126.466 276.268 126.466ZM292.293 128V110.545H294.407V119.205H294.612L302.452 110.545H305.214L297.884 118.42L305.214 128H302.657L296.589 119.886L294.407 122.341V128H292.293ZM308.497 128V114.909H310.509V128H308.497ZM309.52 112.727C309.128 112.727 308.79 112.594 308.506 112.327C308.227 112.06 308.088 111.739 308.088 111.364C308.088 110.989 308.227 110.668 308.506 110.401C308.79 110.134 309.128 110 309.52 110C309.912 110 310.247 110.134 310.526 110.401C310.81 110.668 310.952 110.989 310.952 111.364C310.952 111.739 310.81 112.06 310.526 112.327C310.247 112.594 309.912 112.727 309.52 112.727ZM316.204 120.125V128H314.192V114.909H316.136V116.955H316.306C316.613 116.29 317.079 115.756 317.704 115.352C318.329 114.943 319.136 114.739 320.124 114.739C321.011 114.739 321.786 114.92 322.451 115.284C323.116 115.642 323.633 116.188 324.002 116.92C324.371 117.648 324.556 118.568 324.556 119.682V128H322.545V119.818C322.545 118.79 322.278 117.989 321.744 117.415C321.21 116.835 320.477 116.545 319.545 116.545C318.903 116.545 318.329 116.685 317.823 116.963C317.323 117.241 316.928 117.648 316.638 118.182C316.349 118.716 316.204 119.364 316.204 120.125ZM330.107 123.227L330.072 120.739H330.482L336.209 114.909H338.697L332.595 121.08H332.425L330.107 123.227ZM328.232 128V110.545H330.243V128H328.232ZM336.55 128L331.436 121.523L332.868 120.125L339.107 128H336.55ZM345.138 128.307C344.309 128.307 343.556 128.151 342.88 127.838C342.204 127.52 341.667 127.062 341.269 126.466C340.871 125.864 340.673 125.136 340.673 124.284C340.673 123.534 340.82 122.926 341.116 122.46C341.411 121.989 341.806 121.619 342.3 121.352C342.795 121.085 343.34 120.886 343.937 120.756C344.539 120.619 345.144 120.511 345.752 120.432C346.548 120.33 347.192 120.253 347.687 120.202C348.187 120.145 348.55 120.051 348.778 119.92C349.011 119.79 349.127 119.562 349.127 119.239V119.17C349.127 118.33 348.897 117.676 348.437 117.21C347.982 116.744 347.292 116.511 346.366 116.511C345.406 116.511 344.653 116.722 344.107 117.142C343.562 117.562 343.178 118.011 342.957 118.489L341.048 117.807C341.388 117.011 341.843 116.392 342.411 115.949C342.985 115.5 343.61 115.187 344.286 115.011C344.968 114.83 345.638 114.739 346.298 114.739C346.718 114.739 347.201 114.79 347.746 114.892C348.298 114.989 348.829 115.19 349.34 115.497C349.857 115.804 350.286 116.267 350.627 116.886C350.968 117.506 351.138 118.335 351.138 119.375V128H349.127V126.227H349.025C348.888 126.511 348.661 126.815 348.343 127.139C348.025 127.463 347.602 127.739 347.073 127.966C346.545 128.193 345.9 128.307 345.138 128.307ZM345.445 126.5C346.241 126.5 346.911 126.344 347.457 126.031C348.008 125.719 348.423 125.315 348.701 124.821C348.985 124.327 349.127 123.807 349.127 123.261V121.42C349.042 121.523 348.854 121.616 348.565 121.702C348.281 121.781 347.951 121.852 347.576 121.915C347.207 121.972 346.846 122.023 346.494 122.068C346.147 122.108 345.866 122.142 345.65 122.17C345.127 122.239 344.638 122.349 344.184 122.503C343.735 122.651 343.371 122.875 343.093 123.176C342.82 123.472 342.684 123.875 342.684 124.386C342.684 125.085 342.942 125.614 343.46 125.972C343.982 126.324 344.644 126.5 345.445 126.5ZM356.821 120.125V128H354.81V114.909H356.753V116.955H356.923C357.23 116.29 357.696 115.756 358.321 115.352C358.946 114.943 359.753 114.739 360.741 114.739C361.628 114.739 362.403 114.92 363.068 115.284C363.733 115.642 364.25 116.188 364.619 116.92C364.989 117.648 365.173 118.568 365.173 119.682V128H363.162V119.818C363.162 118.79 362.895 117.989 362.361 117.415C361.827 116.835 361.094 116.545 360.162 116.545C359.52 116.545 358.946 116.685 358.44 116.963C357.94 117.241 357.545 117.648 357.256 118.182C356.966 118.716 356.821 119.364 356.821 120.125ZM370.86 120.125V128H368.849V110.545H370.86V116.955H371.031C371.337 116.278 371.798 115.741 372.411 115.344C373.031 114.94 373.854 114.739 374.883 114.739C375.775 114.739 376.556 114.918 377.227 115.276C377.897 115.628 378.417 116.17 378.786 116.903C379.161 117.631 379.349 118.557 379.349 119.682V128H377.337V119.818C377.337 118.778 377.067 117.974 376.528 117.406C375.994 116.832 375.252 116.545 374.303 116.545C373.644 116.545 373.053 116.685 372.531 116.963C372.013 117.241 371.604 117.648 371.303 118.182C371.008 118.716 370.86 119.364 370.86 120.125ZM388.347 128.273C387.165 128.273 386.128 127.991 385.236 127.429C384.349 126.866 383.656 126.08 383.156 125.068C382.662 124.057 382.415 122.875 382.415 121.523C382.415 120.159 382.662 118.969 383.156 117.952C383.656 116.935 384.349 116.145 385.236 115.582C386.128 115.02 387.165 114.739 388.347 114.739C389.528 114.739 390.563 115.02 391.449 115.582C392.341 116.145 393.034 116.935 393.528 117.952C394.028 118.969 394.278 120.159 394.278 121.523C394.278 122.875 394.028 124.057 393.528 125.068C393.034 126.08 392.341 126.866 391.449 127.429C390.563 127.991 389.528 128.273 388.347 128.273ZM388.347 126.466C389.244 126.466 389.983 126.236 390.562 125.776C391.142 125.315 391.571 124.71 391.849 123.96C392.128 123.21 392.267 122.398 392.267 121.523C392.267 120.648 392.128 119.832 391.849 119.077C391.571 118.321 391.142 117.71 390.562 117.244C389.983 116.778 389.244 116.545 388.347 116.545C387.449 116.545 386.71 116.778 386.131 117.244C385.551 117.71 385.122 118.321 384.844 119.077C384.565 119.832 384.426 120.648 384.426 121.523C384.426 122.398 384.565 123.21 384.844 123.96C385.122 124.71 385.551 125.315 386.131 125.776C386.71 126.236 387.449 126.466 388.347 126.466ZM405.599 122.648V114.909H407.61V128H405.599V125.784H405.462C405.156 126.449 404.678 127.014 404.031 127.48C403.383 127.94 402.565 128.17 401.576 128.17C400.758 128.17 400.031 127.991 399.394 127.634C398.758 127.27 398.258 126.724 397.894 125.997C397.531 125.264 397.349 124.341 397.349 123.227V114.909H399.36V123.091C399.36 124.045 399.627 124.807 400.161 125.375C400.701 125.943 401.388 126.227 402.224 126.227C402.724 126.227 403.232 126.099 403.749 125.844C404.272 125.588 404.71 125.196 405.062 124.668C405.42 124.139 405.599 123.466 405.599 122.648ZM420.567 117.841L418.76 118.352C418.646 118.051 418.479 117.759 418.257 117.474C418.041 117.185 417.746 116.946 417.371 116.759C416.996 116.571 416.516 116.477 415.93 116.477C415.129 116.477 414.462 116.662 413.928 117.031C413.399 117.395 413.135 117.858 413.135 118.42C413.135 118.92 413.317 119.315 413.68 119.605C414.044 119.895 414.612 120.136 415.385 120.33L417.328 120.807C418.499 121.091 419.371 121.526 419.945 122.111C420.518 122.69 420.805 123.437 420.805 124.352C420.805 125.102 420.589 125.773 420.158 126.364C419.732 126.955 419.135 127.42 418.368 127.761C417.601 128.102 416.709 128.273 415.692 128.273C414.357 128.273 413.251 127.983 412.376 127.403C411.501 126.824 410.947 125.977 410.714 124.864L412.624 124.386C412.805 125.091 413.149 125.619 413.655 125.972C414.166 126.324 414.834 126.5 415.658 126.5C416.595 126.5 417.339 126.301 417.891 125.903C418.447 125.5 418.726 125.017 418.726 124.455C418.726 124 418.567 123.619 418.249 123.312C417.93 123 417.442 122.767 416.783 122.614L414.601 122.102C413.402 121.818 412.521 121.378 411.959 120.781C411.402 120.179 411.124 119.426 411.124 118.523C411.124 117.784 411.331 117.131 411.746 116.562C412.166 115.994 412.737 115.548 413.459 115.224C414.186 114.901 415.01 114.739 415.93 114.739C417.226 114.739 418.243 115.023 418.982 115.591C419.726 116.159 420.254 116.909 420.567 117.841ZM429.322 128.273C428.06 128.273 426.972 127.994 426.058 127.438C425.148 126.875 424.447 126.091 423.952 125.085C423.464 124.074 423.219 122.898 423.219 121.557C423.219 120.216 423.464 119.034 423.952 118.011C424.447 116.983 425.134 116.182 426.015 115.608C426.901 115.028 427.935 114.739 429.117 114.739C429.799 114.739 430.472 114.852 431.137 115.08C431.802 115.307 432.407 115.676 432.952 116.188C433.498 116.693 433.933 117.364 434.256 118.199C434.58 119.034 434.742 120.062 434.742 121.284V122.136H424.651V120.398H432.697C432.697 119.659 432.549 119 432.254 118.42C431.964 117.841 431.549 117.384 431.009 117.048C430.475 116.713 429.844 116.545 429.117 116.545C428.316 116.545 427.623 116.744 427.038 117.142C426.458 117.534 426.012 118.045 425.7 118.676C425.387 119.307 425.231 119.983 425.231 120.705V121.864C425.231 122.852 425.401 123.69 425.742 124.378C426.089 125.06 426.569 125.58 427.183 125.938C427.796 126.29 428.509 126.466 429.322 126.466C429.85 126.466 430.327 126.392 430.754 126.244C431.185 126.091 431.558 125.864 431.87 125.562C432.183 125.256 432.424 124.875 432.594 124.42L434.538 124.966C434.333 125.625 433.989 126.205 433.506 126.705C433.023 127.199 432.427 127.585 431.717 127.864C431.006 128.136 430.208 128.273 429.322 128.273ZM444.825 128V110.545H446.938V119.205H447.143L454.984 110.545H457.745L450.415 118.42L457.745 128H455.188L449.12 119.886L446.938 122.341V128H444.825ZM461.028 128V114.909H463.04V128H461.028ZM462.051 112.727C461.659 112.727 461.321 112.594 461.037 112.327C460.759 112.06 460.619 111.739 460.619 111.364C460.619 110.989 460.759 110.668 461.037 110.401C461.321 110.134 461.659 110 462.051 110C462.443 110 462.778 110.134 463.057 110.401C463.341 110.668 463.483 110.989 463.483 111.364C463.483 111.739 463.341 112.06 463.057 112.327C462.778 112.594 462.443 112.727 462.051 112.727ZM472.417 114.909V116.614H465.633V114.909H472.417ZM467.61 111.773H469.621V124.25C469.621 124.818 469.704 125.244 469.869 125.528C470.039 125.807 470.255 125.994 470.516 126.091C470.783 126.182 471.065 126.227 471.36 126.227C471.582 126.227 471.763 126.216 471.906 126.193C472.048 126.165 472.161 126.142 472.246 126.125L472.656 127.932C472.519 127.983 472.329 128.034 472.085 128.085C471.84 128.142 471.531 128.17 471.156 128.17C470.587 128.17 470.031 128.048 469.485 127.804C468.945 127.56 468.496 127.188 468.138 126.688C467.786 126.188 467.61 125.557 467.61 124.795V111.773ZM479.295 128.307C478.465 128.307 477.712 128.151 477.036 127.838C476.36 127.52 475.823 127.062 475.425 126.466C475.028 125.864 474.829 125.136 474.829 124.284C474.829 123.534 474.977 122.926 475.272 122.46C475.567 121.989 475.962 121.619 476.457 121.352C476.951 121.085 477.496 120.886 478.093 120.756C478.695 120.619 479.3 120.511 479.908 120.432C480.704 120.33 481.349 120.253 481.843 120.202C482.343 120.145 482.707 120.051 482.934 119.92C483.167 119.79 483.283 119.562 483.283 119.239V119.17C483.283 118.33 483.053 117.676 482.593 117.21C482.138 116.744 481.448 116.511 480.522 116.511C479.562 116.511 478.809 116.722 478.263 117.142C477.718 117.562 477.335 118.011 477.113 118.489L475.204 117.807C475.545 117.011 475.999 116.392 476.567 115.949C477.141 115.5 477.766 115.187 478.442 115.011C479.124 114.83 479.795 114.739 480.454 114.739C480.874 114.739 481.357 114.79 481.903 114.892C482.454 114.989 482.985 115.19 483.496 115.497C484.013 115.804 484.442 116.267 484.783 116.886C485.124 117.506 485.295 118.335 485.295 119.375V128H483.283V126.227H483.181C483.045 126.511 482.817 126.815 482.499 127.139C482.181 127.463 481.758 127.739 481.229 127.966C480.701 128.193 480.056 128.307 479.295 128.307ZM479.602 126.5C480.397 126.5 481.067 126.344 481.613 126.031C482.164 125.719 482.579 125.315 482.857 124.821C483.141 124.327 483.283 123.807 483.283 123.261V121.42C483.198 121.523 483.011 121.616 482.721 121.702C482.437 121.781 482.107 121.852 481.732 121.915C481.363 121.972 481.002 122.023 480.65 122.068C480.303 122.108 480.022 122.142 479.806 122.17C479.283 122.239 478.795 122.349 478.34 122.503C477.891 122.651 477.528 122.875 477.249 123.176C476.977 123.472 476.84 123.875 476.84 124.386C476.84 125.085 477.099 125.614 477.616 125.972C478.138 126.324 478.8 126.5 479.602 126.5ZM496.466 119.58V121.455H488.83V119.58H496.466ZM509.278 117.841L507.471 118.352C507.357 118.051 507.19 117.759 506.968 117.474C506.752 117.185 506.457 116.946 506.082 116.759C505.707 116.571 505.227 116.477 504.641 116.477C503.84 116.477 503.173 116.662 502.638 117.031C502.11 117.395 501.846 117.858 501.846 118.42C501.846 118.92 502.028 119.315 502.391 119.605C502.755 119.895 503.323 120.136 504.096 120.33L506.039 120.807C507.21 121.091 508.082 121.526 508.656 122.111C509.229 122.69 509.516 123.437 509.516 124.352C509.516 125.102 509.3 125.773 508.869 126.364C508.442 126.955 507.846 127.42 507.079 127.761C506.312 128.102 505.42 128.273 504.403 128.273C503.067 128.273 501.962 127.983 501.087 127.403C500.212 126.824 499.658 125.977 499.425 124.864L501.335 124.386C501.516 125.091 501.86 125.619 502.366 125.972C502.877 126.324 503.545 126.5 504.369 126.5C505.306 126.5 506.05 126.301 506.602 125.903C507.158 125.5 507.437 125.017 507.437 124.455C507.437 124 507.278 123.619 506.96 123.312C506.641 123 506.153 122.767 505.494 122.614L503.312 122.102C502.113 121.818 501.232 121.378 500.67 120.781C500.113 120.179 499.835 119.426 499.835 118.523C499.835 117.784 500.042 117.131 500.457 116.562C500.877 115.994 501.448 115.548 502.17 115.224C502.897 114.901 503.721 114.739 504.641 114.739C505.937 114.739 506.954 115.023 507.692 115.591C508.437 116.159 508.965 116.909 509.278 117.841ZM518.033 128.273C516.771 128.273 515.683 127.994 514.768 127.438C513.859 126.875 513.158 126.091 512.663 125.085C512.175 124.074 511.93 122.898 511.93 121.557C511.93 120.216 512.175 119.034 512.663 118.011C513.158 116.983 513.845 116.182 514.726 115.608C515.612 115.028 516.646 114.739 517.828 114.739C518.51 114.739 519.183 114.852 519.848 115.08C520.513 115.307 521.118 115.676 521.663 116.188C522.209 116.693 522.643 117.364 522.967 118.199C523.291 119.034 523.453 120.062 523.453 121.284V122.136H513.362V120.398H521.408C521.408 119.659 521.26 119 520.964 118.42C520.675 117.841 520.26 117.384 519.72 117.048C519.186 116.713 518.555 116.545 517.828 116.545C517.027 116.545 516.334 116.744 515.749 117.142C515.169 117.534 514.723 118.045 514.411 118.676C514.098 119.307 513.942 119.983 513.942 120.705V121.864C513.942 122.852 514.112 123.69 514.453 124.378C514.8 125.06 515.28 125.58 515.893 125.938C516.507 126.29 517.22 126.466 518.033 126.466C518.561 126.466 519.038 126.392 519.464 126.244C519.896 126.091 520.268 125.864 520.581 125.562C520.893 125.256 521.135 124.875 521.305 124.42L523.249 124.966C523.044 125.625 522.7 126.205 522.217 126.705C521.734 127.199 521.138 127.585 520.428 127.864C519.717 128.136 518.919 128.273 518.033 128.273ZM528.524 120.125V128H526.513V114.909H528.456V116.955H528.626C528.933 116.29 529.399 115.756 530.024 115.352C530.649 114.943 531.456 114.739 532.445 114.739C533.331 114.739 534.107 114.92 534.771 115.284C535.436 115.642 535.953 116.188 536.322 116.92C536.692 117.648 536.876 118.568 536.876 119.682V128H534.865V119.818C534.865 118.79 534.598 117.989 534.064 117.415C533.53 116.835 532.797 116.545 531.865 116.545C531.223 116.545 530.649 116.685 530.143 116.963C529.643 117.241 529.249 117.648 528.959 118.182C528.669 118.716 528.524 119.364 528.524 120.125ZM540.552 114.909H542.563V128.955C542.563 129.761 542.424 130.46 542.146 131.051C541.873 131.642 541.458 132.099 540.901 132.423C540.35 132.747 539.654 132.909 538.813 132.909C538.745 132.909 538.677 132.909 538.609 132.909C538.54 132.909 538.472 132.909 538.404 132.909V131.034C538.472 131.034 538.535 131.034 538.592 131.034C538.648 131.034 538.711 131.034 538.779 131.034C539.393 131.034 539.842 130.852 540.126 130.489C540.41 130.131 540.552 129.619 540.552 128.955V114.909ZM541.54 112.727C541.148 112.727 540.81 112.594 540.526 112.327C540.248 112.06 540.109 111.739 540.109 111.364C540.109 110.989 540.248 110.668 540.526 110.401C540.81 110.134 541.148 110 541.54 110C541.933 110 542.268 110.134 542.546 110.401C542.83 110.668 542.972 110.989 542.972 111.364C542.972 111.739 542.83 112.06 542.546 112.327C542.268 112.594 541.933 112.727 541.54 112.727ZM554.497 122.648V114.909H556.509V128H554.497V125.784H554.361C554.054 126.449 553.577 127.014 552.929 127.48C552.281 127.94 551.463 128.17 550.474 128.17C549.656 128.17 548.929 127.991 548.293 127.634C547.656 127.27 547.156 126.724 546.793 125.997C546.429 125.264 546.247 124.341 546.247 123.227V114.909H548.259V123.091C548.259 124.045 548.526 124.807 549.06 125.375C549.599 125.943 550.287 126.227 551.122 126.227C551.622 126.227 552.131 126.099 552.648 125.844C553.17 125.588 553.608 125.196 553.96 124.668C554.318 124.139 554.497 123.466 554.497 122.648Z" fill="#EBECEC"/>
<defs>
<filter id="filter0_d_0_1" x="1214.75" y="7.22198" width="91.67" height="180.471" filterUnits="userSpaceOnUse" color-interpolation-filters="sRGB">
<feFlood flood-opacity="0" result="BackgroundImageFix"/>
<feColorMatrix in="SourceAlpha" type="matrix" values="0 0 0 0 0 0 0 0 0 0 0 0 0 0 0 0 0 0 127 0" result="hardAlpha"/>
<feOffset dx="5" dy="5"/>
<feColorMatrix type="matrix" values="0 0 0 0 0 0 0 0 0 0 0 0 0 0 0 0 0 0 0.25 0"/>
<feBlend mode="normal" in2="BackgroundImageFix" result="effect1_dropShadow_0_1"/>
<feBlend mode="normal" in="SourceGraphic" in2="effect1_dropShadow_0_1" result="shape"/>
</filter>
<filter id="filter1_d_0_1" x="1295.6" y="12.4884" width="198.402" height="169.943" filterUnits="userSpaceOnUse" color-interpolation-filters="sRGB">
<feFlood flood-opacity="0" result="BackgroundImageFix"/>
<feColorMatrix in="SourceAlpha" type="matrix" values="0 0 0 0 0 0 0 0 0 0 0 0 0 0 0 0 0 0 127 0" result="hardAlpha"/>
<feOffset dx="5" dy="5"/>
<feColorMatrix type="matrix" values="0 0 0 0 0 0 0 0 0 0 0 0 0 0 0 0 0 0 0.25 0"/>
<feBlend mode="normal" in2="BackgroundImageFix" result="effect1_dropShadow_0_1"/>
<feBlend mode="normal" in="SourceGraphic" in2="effect1_dropShadow_0_1" result="shape"/>
</filter>
<filter id="filter2_d_0_1" x="15.987" y="3.59058" width="1231.02" height="188.835" filterUnits="userSpaceOnUse" color-interpolation-filters="sRGB">
<feFlood flood-opacity="0" result="BackgroundImageFix"/>
<feColorMatrix in="SourceAlpha" type="matrix" values="0 0 0 0 0 0 0 0 0 0 0 0 0 0 0 0 0 0 127 0" result="hardAlpha"/>
<feOffset dx="5" dy="5"/>
<feColorMatrix type="matrix" values="0 0 0 0 0 0 0 0 0 0 0 0 0 0 0 0 0 0 0.25 0"/>
<feBlend mode="normal" in2="BackgroundImageFix" result="effect1_dropShadow_0_1"/>
<feBlend mode="normal" in="SourceGraphic" in2="effect1_dropShadow_0_1" result="shape"/>
</filter>
<clipPath id="clip0_0_1">
<rect width="1494" height="193" fill="white"/>
</clipPath>
</defs>
</svg>
