<svg width="542" height="71" viewBox="0 0 542 71" fill="none" xmlns="http://www.w3.org/2000/svg">
<g filter="url(#filter0_d_0_1)">
<path d="M438.755 66.226V2.089L470.434 4.343V63.973L438.755 66.226Z" fill="#954E2A"/>
</g>
<path d="M438.758 59.602V8.717L470.437 10.506V57.815L438.758 59.602Z" fill="#9A5634"/>
<path d="M438.758 53.271V15.052L470.437 16.395V51.925L438.758 53.271Z" fill="#954E2A"/>
<path d="M438.758 45.602V22.719L470.437 23.519V44.796L438.758 45.602Z" fill="#9A5634"/>
<path d="M438.758 39.076V29.245L470.437 29.59V38.735L438.758 39.076Z" fill="#954E2A"/>
<g filter="url(#filter1_d_0_1)">
<path d="M478.846 64.237H478.87C478.912 64.237 478.955 64.237 479.002 64.231C479.156 64.231 479.31 64.22 479.46 64.208C479.533 64.203 479.607 64.193 479.68 64.186L479.845 64.166C480.331 64.1061 480.806 63.9831 481.26 63.8C482.469 63.3199 483.506 62.4898 484.24 61.416C488.369 55.547 487.14 42.43 497.257 42.478C511.735 43.318 529.57 44.378 532.079 44.526L532.225 44.541H532.38C533.007 44.5668 533.632 44.4585 534.214 44.2232C534.795 43.988 535.32 43.6313 535.753 43.177C537.737 40.9508 538.885 38.1045 539.002 35.125C539.002 34.938 539.002 34.75 539.002 34.563C538.996 34.432 538.986 34.299 538.977 34.163C538.986 34.031 538.996 33.899 539.002 33.763C539.002 33.575 539.008 33.387 539.002 33.202C538.885 30.2222 537.737 27.3755 535.753 25.149C535.32 24.6948 534.795 24.338 534.214 24.1027C533.632 23.8673 533.007 23.7586 532.38 23.784L532.225 23.79C532.225 23.79 532.172 23.79 532.079 23.803C529.571 23.952 511.735 25.012 497.257 25.851C487.143 25.899 488.369 12.783 484.24 6.913C483.507 5.83923 482.469 5.00934 481.26 4.53C480.806 4.34657 480.331 4.22319 479.845 4.163L479.68 4.143C479.607 4.135 479.534 4.127 479.46 4.121C479.31 4.108 479.16 4.1 479.002 4.097C478.956 4.097 478.912 4.091 478.87 4.091H478.846C478.846 4.091 468.313 3.999 468.313 4.024V64.304C468.313 64.328 478.845 64.235 478.846 64.235M521.455 34.164C521.455 32.62 523.948 31.37 527.02 31.37C530.092 31.37 532.585 32.62 532.587 34.164C532.589 35.708 530.094 36.964 527.02 36.964C523.946 36.964 521.457 35.713 521.455 34.164Z" fill="#D18F2A"/>
</g>
<path d="M477.488 4.015H468.022V64.306H477.488V4.015Z" fill="#EBECEC"/>
<g filter="url(#filter2_d_0_1)">
<path d="M445.048 56.455C442.548 54.311 441.175 50.247 442.469 47.199C443.138 45.626 444.869 44.145 444.782 42.33C444.702 40.75 443.058 39.986 442.759 38.513C442.41 36.791 443.526 34.958 443.767 33.279C444.759 26.344 443.502 19.311 442.888 12.407C443.008 11.934 443.135 11.479 443.275 11.056C444.175 8.321 450.531 5.233 447.945 2.291C446.438 0.574002 441.314 0.685002 439.301 0.855002C437.796 0.983002 436.322 1.06 434.82 1.155H0.600006V66.911H416.446C419.826 67.157 423.246 67.468 426.666 67.688C433.007 68.096 439.337 68.181 445.366 66.918C451.01 65.737 448.591 59.493 445.044 56.455" fill="#373737"/>
</g>
<g opacity="0.5">
<mask id="mask0_0_1" style="mask-type:luminance" maskUnits="userSpaceOnUse" x="436" y="1" width="9" height="27">
<path d="M444.99 1.585H436.338V27.113H444.99V1.585Z" fill="white"/>
</mask>
<g mask="url(#mask0_0_1)">
<path d="M439.899 2.704C440.404 2.39924 440.952 2.17078 441.524 2.026C444.855 1.16 445.924 1.352 444.124 4.611C441.981 8.511 440.009 7.459 440.324 15.373C440.552 21.065 440.641 25.818 439.057 27.084C438.219 27.751 436.502 16.792 436.466 16.123C436.229 11.97 435.844 5.165 439.893 2.704" fill="white"/>
</g>
</g>
<g style="mix-blend-mode:multiply">
<mask id="mask1_0_1" style="mask-type:luminance" maskUnits="userSpaceOnUse" x="412" y="16" width="11" height="49">
<path d="M422.49 16.964H412.14V64.54H422.49V16.964Z" fill="white"/>
</mask>
<g mask="url(#mask1_0_1)">
<path d="M417.541 34.091C417.541 34.091 417.225 45.491 418.806 52.765C420.387 60.039 425.458 64.265 420.075 64.476C412.162 64.793 411.527 64.476 412.475 49.917C413.423 35.358 414.058 30.294 413.743 24.917C413.052 13.191 417.983 15.229 417.224 25.866C416.906 30.298 418.173 28.716 417.54 34.095" fill="#F7F8F8"/>
</g>
</g>
<g opacity="0.4">
<mask id="mask2_0_1" style="mask-type:luminance" maskUnits="userSpaceOnUse" x="437" y="57" width="10" height="10">
<path d="M446.514 57.405H437.413V66.36H446.514V57.405Z" fill="white"/>
</mask>
<g mask="url(#mask2_0_1)">
<path d="M443.744 58.392C443.744 58.392 448.819 63.467 445.237 64.66C441.655 65.853 438.072 67.945 437.474 64.36C436.876 60.775 441.057 55.106 443.744 58.39" fill="white"/>
</g>
</g>
<g clip-path="url(#clip0_0_1)">
<mask id="mask3_0_1" style="mask-type:luminance" maskUnits="userSpaceOnUse" x="247" y="9" width="189" height="40">
<path d="M436 9H247V49H436V9Z" fill="white"/>
</mask>
<g mask="url(#mask3_0_1)">
<path d="M394.79 33.861L398.718 24.32H404.608V24.715H404.138C403.783 24.6988 403.43 24.776 403.114 24.939C402.921 25.0552 402.772 25.2306 402.687 25.439C402.581 25.8756 402.543 26.3259 402.575 26.774V36.315C402.546 36.7809 402.586 37.2485 402.692 37.703C402.795 37.9134 402.964 38.0842 403.173 38.189C403.473 38.3404 403.808 38.4117 404.144 38.396H404.614V38.796H397.058V38.396H397.528C397.883 38.4126 398.237 38.3357 398.553 38.173C398.747 38.0531 398.897 37.873 398.98 37.66C399.088 37.2206 399.127 36.7673 399.097 36.316V25.59L393.547 38.79H393.291L387.657 25.685V35.878C387.643 36.3161 387.661 36.7546 387.711 37.19C387.8 37.5427 388.013 37.8516 388.311 38.06C388.751 38.3175 389.259 38.4347 389.768 38.396V38.796H384.816V38.396H384.966C385.273 38.4062 385.58 38.3535 385.866 38.241C386.112 38.153 386.329 37.9999 386.495 37.798C386.659 37.5644 386.772 37.299 386.826 37.019C386.84 36.941 386.847 36.5783 386.847 35.931V26.774C386.876 26.3134 386.837 25.851 386.73 25.402C386.626 25.1942 386.457 25.026 386.249 24.923C385.949 24.7699 385.614 24.6979 385.278 24.714H384.819V24.319H390.732L394.79 33.861Z" fill="white"/>
<path d="M415.067 33.444H409.592C409.59 34.5774 409.962 35.6798 410.649 36.581C410.856 36.8549 411.124 37.0773 411.431 37.2309C411.738 37.3846 412.077 37.4654 412.42 37.467C412.836 37.4704 413.242 37.3454 413.584 37.109C414.036 36.7551 414.416 36.3183 414.704 35.822L415.067 36.057C414.673 36.975 414.058 37.7808 413.276 38.402C412.61 38.8647 411.814 39.1054 411.003 39.09C410.343 39.1238 409.685 38.984 409.095 38.6845C408.505 38.3851 408.004 37.9363 407.642 37.383C407.001 36.3618 406.681 35.1719 406.724 33.967C406.648 32.518 407.132 31.0953 408.074 29.992C408.463 29.5311 408.947 29.1602 409.493 28.905C410.04 28.6498 410.635 28.5164 411.238 28.514C411.741 28.5157 412.237 28.628 412.692 28.8428C413.146 29.0576 413.548 29.3697 413.869 29.757C414.69 30.8069 415.114 32.1122 415.069 33.444M412.444 32.729C412.477 31.9381 412.414 31.1461 412.258 30.37C412.165 29.9954 411.963 29.6572 411.676 29.399C411.506 29.264 411.293 29.1957 411.076 29.207C410.89 29.2091 410.708 29.2606 410.548 29.3562C410.389 29.4518 410.258 29.588 410.168 29.751C409.71 30.5379 409.491 31.4416 409.539 32.351V32.726L412.444 32.729Z" fill="white"/>
<path d="M425.642 33.444H420.167C420.165 34.5774 420.537 35.6798 421.224 36.581C421.431 36.8549 421.699 37.0773 422.006 37.231C422.313 37.3846 422.652 37.4654 422.995 37.467C423.411 37.4704 423.817 37.3454 424.159 37.109C424.611 36.7551 424.991 36.3183 425.279 35.822L425.642 36.057C425.248 36.9745 424.632 37.7796 423.849 38.4C423.183 38.8627 422.387 39.1034 421.576 39.088C420.915 39.1218 420.258 38.982 419.668 38.6825C419.078 38.3831 418.577 37.9343 418.215 37.381C417.574 36.3598 417.254 35.1699 417.297 33.965C417.222 32.516 417.705 31.0933 418.647 29.99C419.036 29.5291 419.52 29.1582 420.066 28.903C420.613 28.6478 421.208 28.5144 421.811 28.512C422.314 28.5137 422.81 28.626 423.265 28.8408C423.719 29.0556 424.121 29.3677 424.442 29.755C425.263 30.8049 425.687 32.1102 425.642 33.442M423.017 32.727C423.05 31.9361 422.987 31.1441 422.831 30.368C422.738 29.9934 422.536 29.6552 422.249 29.397C422.079 29.262 421.866 29.1937 421.649 29.205C421.463 29.2071 421.281 29.2586 421.121 29.3542C420.962 29.4498 420.831 29.586 420.741 29.749C420.283 30.5359 420.064 31.4396 420.112 32.349V32.724L423.017 32.727Z" fill="white"/>
<path d="M431.725 25.165V28.814H434.094V29.865H431.725V36.025C431.707 36.3989 431.734 36.7735 431.805 37.141C431.854 37.3025 431.953 37.4442 432.088 37.546C432.192 37.6372 432.324 37.6917 432.462 37.701C432.923 37.701 433.361 37.3487 433.774 36.644L434.094 36.88C433.908 37.4771 433.534 37.9985 433.029 38.3673C432.524 38.736 431.913 38.9326 431.288 38.928C430.707 38.9459 430.138 38.759 429.681 38.4C429.284 38.1059 428.991 37.6929 428.844 37.221C428.744 36.5711 428.708 35.9129 428.737 35.256V29.865H427.437V29.495C428.272 28.9151 429.039 28.2443 429.726 27.495C430.365 26.7857 430.917 26.0036 431.373 25.165H431.725Z" fill="white"/>
<path d="M296.234 35.919C296.209 35.908 296.184 35.899 296.159 35.891C295.459 35.664 294.7 35.404 293.894 35.122C293.088 34.84 292.3 34.534 291.523 34.205C290.802 33.9036 290.101 33.5572 289.423 33.168C289.143 33.0075 288.874 32.8295 288.617 32.635C288.91 32.3648 289.231 32.1265 289.575 31.924C290.423 31.4244 291.307 30.9898 292.221 30.624C293.269 30.194 294.436 29.735 295.689 29.256C295.999 29.1638 296.272 28.9749 296.467 28.7169C296.662 28.459 296.77 28.1454 296.774 27.822C296.774 27.6085 296.73 27.3973 296.644 27.2018C296.557 27.0064 296.432 26.8311 296.274 26.687C295.983 26.4 295.591 26.2381 295.182 26.236C295.023 26.2388 294.866 26.2675 294.716 26.321C294.066 26.528 293.316 26.799 292.475 27.127C291.634 27.455 290.766 27.841 289.904 28.268C289.073 28.677 288.269 29.1393 287.498 29.652C287.406 29.714 287.317 29.775 287.23 29.837C287.223 29.565 287.218 29.278 287.215 28.976C287.208 28.3333 287.204 27.6837 287.204 27.027C287.204 26.227 287.211 25.468 287.226 24.75C287.239 24.032 287.254 23.481 287.269 23.063C287.281 22.6617 287.136 22.2717 286.864 21.9758C286.593 21.68 286.217 21.5018 285.816 21.479C285.467 21.4624 285.122 21.5581 284.832 21.752C284.627 21.879 284.458 22.0579 284.344 22.2707C284.23 22.4835 284.174 22.7227 284.182 22.964C284.139 24.064 284.116 25.219 284.116 26.402C284.116 28.366 284.179 30.374 284.302 32.371C284.425 34.368 284.619 36.299 284.88 38.1C284.88 38.127 284.889 38.154 284.896 38.181C284.962 38.5292 285.148 38.843 285.423 39.0672C285.697 39.2914 286.042 39.4118 286.396 39.407C286.785 39.4049 287.16 39.2629 287.452 39.007C287.64 38.8438 287.783 38.6352 287.867 38.4012C287.951 38.1672 287.974 37.9155 287.934 37.67C287.932 37.6535 287.93 37.6372 287.926 37.621C287.87 37.299 287.818 36.9657 287.769 36.621C287.73 36.349 287.692 36.031 287.657 35.673C287.728 35.715 287.801 35.757 287.874 35.798C288.64 36.2252 289.428 36.6101 290.236 36.951C291.036 37.291 291.82 37.601 292.561 37.872C293.302 38.143 293.902 38.358 294.388 38.524C294.974 38.724 295.094 38.776 295.088 38.768C295.147 38.798 295.21 38.8211 295.274 38.837C295.422 38.8787 295.574 38.9019 295.728 38.906C296.041 38.9058 296.345 38.8057 296.597 38.6205C296.849 38.4352 297.035 38.1744 297.128 37.876L297.141 37.838C297.197 37.6772 297.227 37.5084 297.23 37.338C297.229 37.0263 297.133 36.7223 296.954 36.467C296.775 36.2117 296.523 36.0173 296.23 35.91" fill="white"/>
<path d="M304.319 33.003C304.336 32.9339 304.344 32.8631 304.344 32.792C304.346 32.5922 304.306 32.3941 304.228 32.2103C304.149 32.0265 304.034 31.8609 303.888 31.724C303.622 31.4774 303.276 31.3353 302.914 31.324C302.595 31.2912 302.273 31.3542 301.989 31.505C301.778 31.6152 301.599 31.7788 301.471 31.9795C301.343 32.1802 301.269 32.4111 301.258 32.649C301.215 33.349 301.192 34.109 301.192 34.914C301.192 35.858 301.214 36.791 301.258 37.687C301.258 37.705 301.258 37.722 301.258 37.74C301.295 38.0746 301.445 38.3864 301.684 38.624C301.834 38.7676 302.013 38.8789 302.208 38.9511C302.403 39.0233 302.61 39.055 302.818 39.044C303.166 39.0441 303.505 38.9319 303.784 38.724C303.963 38.5874 304.107 38.41 304.204 38.2065C304.301 38.0029 304.347 37.7792 304.34 37.554C304.34 37.5088 304.337 37.4637 304.33 37.419C304.33 37.402 304.314 37.301 304.296 36.949C304.282 36.6823 304.272 36.366 304.265 36C304.258 35.634 304.255 35.2597 304.254 34.877C304.254 34.406 304.261 33.977 304.275 33.598C304.277 33.3994 304.29 33.2011 304.315 33.004" fill="white"/>
<path d="M304.445 24.537C303.95 24.2574 303.389 24.1148 302.82 24.124C302.405 24.1084 301.991 24.1759 301.602 24.3226C301.213 24.4692 300.857 24.6921 300.556 24.978C300.263 25.2677 300.033 25.615 299.881 25.998C299.729 26.3809 299.658 26.7912 299.672 27.203C299.664 27.6058 299.737 28.0061 299.887 28.3801C300.037 28.7542 300.26 29.0945 300.543 29.381C300.84 29.6801 301.195 29.9145 301.587 30.0694C301.979 30.2243 302.399 30.2964 302.82 30.281C303.383 30.2888 303.938 30.1466 304.428 29.869C304.897 29.6017 305.286 29.2131 305.554 28.7439C305.822 28.2747 305.959 27.7422 305.95 27.202C305.956 26.6594 305.821 26.1245 305.558 25.65C305.294 25.1848 304.909 24.7996 304.444 24.535" fill="white"/>
<path d="M320.511 25.967C319.449 25.3244 318.224 24.9999 316.983 25.032C315.938 25.0288 314.908 25.2822 313.983 25.77C313.165 26.2041 312.435 26.786 311.829 27.486C311.829 27.167 311.819 26.818 311.81 26.446C311.821 26.0511 311.677 25.6677 311.407 25.379C311.137 25.0903 310.765 24.9196 310.37 24.904C310.009 24.8594 309.645 24.9506 309.348 25.16C309.149 25.2963 308.987 25.4805 308.878 25.6956C308.769 25.9107 308.716 26.1499 308.723 26.391C308.708 26.618 308.7 26.861 308.7 27.114V27.889C308.7 28.851 308.726 29.912 308.777 31.042C308.828 32.172 308.893 33.315 308.972 34.426C309.051 35.537 309.143 36.576 309.244 37.481C309.256 37.8688 309.419 38.2364 309.7 38.5041C309.981 38.7718 310.356 38.918 310.744 38.911C311.099 38.9082 311.444 38.7931 311.729 38.582C311.927 38.4344 312.085 38.2404 312.189 38.0171C312.294 37.7939 312.342 37.5482 312.329 37.302C312.331 37.2724 312.331 37.2426 312.329 37.213C312.317 37.0957 312.311 36.9779 312.311 36.86V36.418C312.315 35.4222 312.421 34.4294 312.627 33.455C312.806 32.538 313.113 31.6505 313.537 30.818C313.934 30.0649 314.489 29.4061 315.163 28.886C315.759 28.4478 316.492 28.2352 317.23 28.286C317.684 28.2805 318.134 28.3805 318.543 28.5782C318.952 28.7758 319.309 29.0657 319.587 29.425C320.169 30.3719 320.448 31.4735 320.387 32.583C320.383 33.3427 320.313 34.1007 320.176 34.848C320.04 35.6175 319.852 36.3771 319.616 37.122C319.559 37.2828 319.529 37.4516 319.527 37.622C319.525 37.8354 319.569 38.0468 319.655 38.242C319.741 38.4372 319.868 38.6117 320.027 38.754C320.324 39.0218 320.71 39.1688 321.11 39.166C321.414 39.1659 321.711 39.0758 321.964 38.907C322.253 38.7113 322.461 38.4174 322.549 38.08C322.839 37.1425 323.077 36.1897 323.262 35.226C323.446 34.2474 323.538 33.2537 323.536 32.258C323.558 30.9888 323.302 29.7301 322.784 28.571C322.296 27.5005 321.506 26.5956 320.511 25.967Z" fill="white"/>
<path d="M338.005 35.919C337.98 35.908 337.955 35.899 337.93 35.891C337.23 35.664 336.471 35.404 335.665 35.122C334.859 34.84 334.071 34.534 333.294 34.205C332.573 33.9036 331.872 33.5572 331.194 33.168C330.914 33.0075 330.645 32.8295 330.388 32.635C330.681 32.3648 331.002 32.1265 331.346 31.924C332.194 31.4244 333.078 30.9898 333.992 30.624C335.04 30.194 336.207 29.735 337.46 29.256C337.77 29.1638 338.043 28.9749 338.238 28.7169C338.433 28.459 338.541 28.1454 338.545 27.822C338.545 27.6085 338.501 27.3973 338.415 27.2018C338.328 27.0064 338.203 26.8311 338.045 26.687C337.754 26.4 337.362 26.2381 336.953 26.236C336.794 26.2388 336.637 26.2675 336.487 26.321C335.837 26.528 335.087 26.799 334.246 27.127C333.405 27.455 332.537 27.841 331.675 28.268C330.844 28.677 330.04 29.1393 329.269 29.652C329.177 29.714 329.088 29.775 329.001 29.837C328.994 29.565 328.989 29.278 328.986 28.976C328.979 28.3333 328.975 27.6837 328.975 27.027C328.975 26.227 328.982 25.468 328.997 24.75C329.01 24.032 329.025 23.481 329.04 23.063C329.052 22.6617 328.907 22.2717 328.635 21.9758C328.364 21.68 327.988 21.5018 327.587 21.479C327.238 21.4624 326.893 21.5581 326.603 21.752C326.398 21.879 326.229 22.0579 326.115 22.2707C326.001 22.4835 325.945 22.7227 325.953 22.964C325.91 24.064 325.887 25.219 325.887 26.402C325.887 28.366 325.95 30.374 326.073 32.371C326.196 34.368 326.39 36.299 326.651 38.1C326.651 38.127 326.66 38.154 326.667 38.181C326.733 38.5293 326.919 38.8432 327.194 39.0674C327.468 39.2917 327.813 39.412 328.167 39.407C328.556 39.4051 328.931 39.2631 329.224 39.007C329.412 38.8438 329.555 38.6352 329.639 38.4012C329.723 38.1672 329.746 37.9155 329.706 37.67C329.704 37.6535 329.702 37.6372 329.698 37.621C329.642 37.299 329.59 36.9657 329.541 36.621C329.502 36.349 329.464 36.031 329.429 35.673C329.5 35.715 329.573 35.757 329.646 35.798C330.412 36.2252 331.2 36.6101 332.008 36.951C332.808 37.291 333.592 37.601 334.333 37.872C335.074 38.143 335.674 38.358 336.16 38.524C336.746 38.724 336.868 38.776 336.86 38.768C336.919 38.798 336.982 38.8211 337.046 38.837C337.194 38.8787 337.346 38.9019 337.5 38.906C337.813 38.9058 338.117 38.8057 338.369 38.6205C338.621 38.4352 338.807 38.1744 338.9 37.876L338.913 37.838C338.969 37.6772 338.999 37.5084 339.002 37.338C339.001 37.0263 338.905 36.7223 338.726 36.467C338.547 36.2117 338.295 36.0173 338.002 35.91" fill="white"/>
<path d="M350.031 35.707C349.415 36.0838 348.707 36.2813 347.985 36.277C347.129 36.2888 346.282 36.1087 345.505 35.75C344.815 35.4352 344.227 34.9349 343.805 34.305C343.378 33.6392 343.164 32.8593 343.192 32.069C343.172 31.1028 343.451 30.154 343.992 29.353C344.513 28.5753 345.273 27.9874 346.156 27.677L346.194 27.662C346.404 27.575 346.625 27.5162 346.85 27.487C347.145 27.4479 347.443 27.4288 347.741 27.43C348.238 27.4316 348.733 27.4832 349.22 27.584C349.688 27.6775 350.144 27.8231 350.579 28.018C350.798 28.1143 351.004 28.2365 351.193 28.382C351.193 29.419 351.237 30.433 351.328 31.399C351.361 31.739 351.398 32.067 351.443 32.385C352.624 32.4186 353.774 32.7677 354.774 33.396C354.726 33.21 354.681 33.022 354.644 32.828C354.404 31.4681 354.29 30.0889 354.304 28.708C354.304 28.3993 354.308 28.09 354.315 27.78C354.322 27.47 354.333 27.1533 354.347 26.83V26.792C354.351 26.4544 354.253 26.1235 354.067 25.842C353.96 25.6799 353.82 25.5426 353.656 25.4391C353.492 25.3356 353.307 25.2684 353.115 25.242C352.867 25.1931 352.611 25.2 352.366 25.262C352.284 25.2808 352.204 25.3069 352.126 25.34C351.549 25.0544 350.941 24.8347 350.315 24.685C349.249 24.4056 348.145 24.2996 347.046 24.371C346.851 24.3847 346.656 24.4088 346.463 24.443C345.239 24.6136 344.079 25.0979 343.097 25.849C342.156 26.5776 341.405 27.5218 340.906 28.602C340.393 29.717 340.132 30.9316 340.143 32.159C340.123 33.4662 340.466 34.7532 341.134 35.877C341.79 36.9596 342.728 37.8432 343.848 38.433C345.035 39.0534 346.359 39.3679 347.698 39.348H348.053C348.207 39.348 348.362 39.3386 348.515 39.32C349.583 39.197 350.618 38.8748 351.567 38.37C351.655 38.323 351.739 38.27 351.824 38.221C351.655 38.0483 351.499 37.8638 351.356 37.669C350.811 36.923 350.375 36.269 350.023 35.712" fill="white"/>
<path d="M372.286 28.576C371.801 27.5051 371.015 26.5986 370.024 25.967C368.962 25.324 367.737 24.9992 366.496 25.031C365.451 25.0281 364.42 25.2819 363.496 25.77C362.678 26.2037 361.948 26.7852 361.342 27.485C361.342 27.167 361.332 26.818 361.323 26.446C361.334 26.0512 361.19 25.6678 360.92 25.379C360.65 25.0903 360.278 24.9196 359.883 24.904C359.522 24.8603 359.158 24.9519 358.861 25.161C358.662 25.2972 358.5 25.4814 358.391 25.6965C358.282 25.9117 358.228 26.1508 358.236 26.392C358.221 26.619 358.213 26.862 358.213 27.114V27.89C358.213 28.852 358.239 29.913 358.29 31.043C358.341 32.173 358.406 33.316 358.485 34.427C358.564 35.538 358.656 36.576 358.757 37.482C358.769 37.8698 358.932 38.2374 359.213 38.5051C359.494 38.7728 359.869 38.919 360.257 38.912C360.612 38.9096 360.957 38.7944 361.242 38.583C361.44 38.4354 361.598 38.2414 361.702 38.0181C361.807 37.7949 361.855 37.5492 361.842 37.303C361.844 37.2734 361.844 37.2436 361.842 37.214C361.83 37.0967 361.824 36.9789 361.824 36.861V36.418C361.828 35.4222 361.934 34.4294 362.14 33.455C362.319 32.5376 362.625 31.6497 363.05 30.817C363.447 30.0643 364.001 29.4057 364.675 28.886C365.271 28.4472 366.004 28.2346 366.742 28.286C367.196 28.2803 367.646 28.3802 368.055 28.5779C368.464 28.7755 368.821 29.0655 369.099 29.425C369.681 30.3718 369.96 31.4735 369.899 32.583C369.895 33.3428 369.824 34.1007 369.687 34.848C369.551 35.6178 369.364 36.3778 369.127 37.123C369.07 37.2838 369.04 37.4526 369.038 37.623C369.036 37.8364 369.08 38.0478 369.166 38.243C369.252 38.4382 369.379 38.6127 369.538 38.755C369.835 39.0228 370.221 39.1698 370.621 39.167C370.925 39.167 371.223 39.0769 371.476 38.908C371.764 38.7119 371.972 38.4182 372.06 38.081C372.35 37.1435 372.588 36.1907 372.773 35.227C372.957 34.2484 373.049 33.2547 373.047 32.259C373.069 30.9901 372.812 29.7318 372.295 28.573" fill="white"/>
<path d="M305.964 21.528C305.631 21.8384 305.375 22.2223 305.216 22.6493C305.058 23.0762 305.001 23.5343 305.051 23.987C305.75 23.8084 306.423 23.543 307.056 23.197C307.456 22.9401 307.775 22.5766 307.979 22.1476C308.183 21.7185 308.263 21.241 308.21 20.769C307.41 20.8332 306.639 21.094 305.964 21.528Z" fill="white"/>
<path d="M354.817 34.624C353.912 33.8737 352.791 33.4343 351.617 33.371C351.037 33.3313 350.454 33.3625 349.881 33.464C350.164 34.0325 350.476 34.5863 350.815 35.123C351.162 35.679 351.601 36.336 352.153 37.093C352.301 37.2959 352.468 37.4838 352.653 37.654C353.275 38.141 353.995 38.4865 354.764 38.6667C355.533 38.8468 356.332 38.8572 357.105 38.697C356.845 37.8734 356.511 37.0753 356.105 36.313C355.781 35.6781 355.346 35.1064 354.82 34.625" fill="white"/>
<path d="M380.723 21.421H379.902V39.432H380.723V21.421Z" fill="white"/>
<path d="M262.33 32.129C262.954 32.129 263.564 31.944 264.082 31.5975C264.601 31.2509 265.005 30.7583 265.244 30.182C265.483 29.6057 265.545 28.9715 265.423 28.3597C265.302 27.7479 265.001 27.1859 264.56 26.7448C264.119 26.3037 263.557 26.0033 262.945 25.8816C262.334 25.7599 261.699 25.8224 261.123 26.0611C260.547 26.2998 260.054 26.7041 259.708 27.2227C259.361 27.7414 259.176 28.3512 259.176 28.975C259.177 29.8112 259.51 30.6128 260.101 31.204C260.692 31.7953 261.494 32.1279 262.33 32.129ZM262.33 26.18C262.754 26.1802 263.169 26.3062 263.522 26.5421C263.875 26.778 264.15 27.1131 264.312 27.5052C264.474 27.8973 264.517 28.3287 264.434 28.7449C264.351 29.1611 264.147 29.5434 263.846 29.8435C263.546 30.1435 263.164 30.3479 262.748 30.4307C262.332 30.5136 261.9 30.4711 261.508 30.3088C261.116 30.1465 260.781 29.8716 260.545 29.5189C260.309 29.1661 260.183 28.7514 260.183 28.327C260.183 27.7576 260.409 27.2115 260.812 26.8088C261.214 26.4062 261.761 26.18 262.33 26.18Z" fill="white"/>
<path d="M263.026 28.009C263.139 28.009 263.249 27.9755 263.343 27.9129C263.437 27.8502 263.51 27.7611 263.553 27.6569C263.596 27.5527 263.607 27.438 263.585 27.3274C263.563 27.2168 263.509 27.1153 263.429 27.0356C263.349 26.9559 263.247 26.9017 263.137 26.8798C263.026 26.858 262.911 26.8694 262.807 26.9127C262.703 26.956 262.614 27.0292 262.552 27.1231C262.489 27.2169 262.456 27.3272 262.456 27.44C262.456 27.5148 262.471 27.5889 262.499 27.658C262.528 27.7271 262.57 27.7899 262.623 27.8427C262.676 27.8956 262.739 27.9374 262.808 27.966C262.877 27.9945 262.951 28.0091 263.026 28.009Z" fill="white"/>
<path d="M256.559 28.449C256.559 27.8252 256.374 27.2153 256.027 26.6966C255.681 26.1779 255.188 25.7737 254.612 25.535C254.035 25.2963 253.401 25.2339 252.789 25.3557C252.177 25.4775 251.615 25.7779 251.174 26.2191C250.733 26.6603 250.433 27.2224 250.311 27.8343C250.19 28.4462 250.252 29.0804 250.491 29.6567C250.73 30.233 251.135 30.7255 251.653 31.0719C252.172 31.4184 252.782 31.6032 253.406 31.603C254.242 31.6019 255.044 31.2693 255.635 30.678C256.226 30.0867 256.558 29.2851 256.559 28.449ZM251.259 27.801C251.259 27.3766 251.385 26.9619 251.621 26.6091C251.857 26.2564 252.192 25.9815 252.584 25.8192C252.976 25.6569 253.408 25.6144 253.824 25.6973C254.24 25.7801 254.622 25.9845 254.922 26.2845C255.223 26.5846 255.427 26.9669 255.51 27.3831C255.593 27.7993 255.55 28.2307 255.388 28.6228C255.226 29.0149 254.951 29.35 254.598 29.5859C254.245 29.8218 253.83 29.9478 253.406 29.948C252.837 29.948 252.29 29.7218 251.888 29.3192C251.485 28.9165 251.259 28.3704 251.259 27.801Z" fill="white"/>
<path d="M254.106 26.345C253.993 26.345 253.883 26.3784 253.789 26.4411C253.696 26.5037 253.623 26.5927 253.579 26.6969C253.536 26.801 253.525 26.9156 253.547 27.0262C253.569 27.1368 253.623 27.2383 253.703 27.3181C253.783 27.3978 253.884 27.4521 253.995 27.474C254.105 27.496 254.22 27.4848 254.324 27.4416C254.428 27.3985 254.517 27.3254 254.58 27.2317C254.643 27.1379 254.676 27.0277 254.676 26.915C254.676 26.7638 254.616 26.6188 254.509 26.5119C254.402 26.4051 254.257 26.345 254.106 26.345Z" fill="white"/>
<path d="M280.975 37.59C279.43 36.17 275.175 33.99 272.252 36.359C272.843 34.9815 273.146 33.4979 273.144 31.999C273.141 29.5156 272.315 27.1034 270.794 25.14C271.184 24.0679 271.656 23.0272 272.205 22.027C272.997 21.0693 273.895 20.2054 274.883 19.452C275.097 19.6404 275.367 19.7543 275.651 19.7766C275.936 19.7989 276.22 19.7285 276.461 19.5758C276.702 19.4232 276.887 19.1966 276.988 18.9299C277.09 18.6632 277.102 18.3709 277.023 18.0966C276.945 17.8224 276.779 17.581 276.552 17.4087C276.325 17.2363 276.047 17.1423 275.762 17.1406C275.477 17.139 275.199 17.2298 274.969 17.3995C274.74 17.5692 274.572 17.8087 274.49 18.082L271.465 18.154C271.233 18.1619 271.006 18.0897 270.822 17.9497C270.637 17.8096 270.507 17.6101 270.452 17.385L269.666 13.185C269.934 13.1147 270.174 12.9616 270.35 12.7475C270.526 12.5334 270.631 12.2691 270.648 11.9923C270.666 11.7155 270.595 11.4402 270.448 11.2056C270.3 10.9709 270.081 10.7889 269.824 10.6854C269.567 10.5818 269.283 10.5621 269.014 10.6289C268.745 10.6957 268.504 10.8456 268.325 11.0574C268.145 11.2693 268.038 11.5321 268.017 11.8087C267.995 12.0853 268.062 12.3615 268.207 12.598C267.722 12.782 264.614 15.498 264.084 15.231C263.53 15.207 261.557 12.957 261.153 12.599C261.22 12.4376 261.254 12.2647 261.253 12.0902C261.253 11.9156 261.218 11.7429 261.151 11.5818C261.084 11.4207 260.985 11.2745 260.861 11.1515C260.737 11.0285 260.591 10.9311 260.429 10.865C260.244 10.7948 260.046 10.7673 259.849 10.7845C259.652 10.8018 259.461 10.8634 259.292 10.9647C259.122 11.0661 258.977 11.2045 258.868 11.3696C258.76 11.5348 258.69 11.7224 258.664 11.9184C258.638 12.1145 258.656 12.3138 258.718 12.5016C258.78 12.6893 258.884 12.8606 259.022 13.0027C259.159 13.1447 259.327 13.2538 259.513 13.3217C259.699 13.3896 259.897 13.4147 260.094 13.395C260.586 15.675 260.214 18.923 259.021 20.323C247.039 21.634 243.964 37.283 254.834 42.451C256.681 43.341 258.709 43.7915 260.759 43.7672C262.81 43.7429 264.826 43.2445 266.652 42.311C267.338 41.9565 267.99 41.5401 268.6 41.067C267.547 43.176 270.49 47.66 270.925 47.867C270.968 47.9163 271.028 47.9469 271.093 47.9521C271.158 47.9574 271.222 47.9368 271.272 47.895C273.431 46.047 274.454 43.181 272.122 39.046C273.105 39.4666 274.11 39.8338 275.132 40.146C278.499 41.118 281.419 37.94 280.975 37.59ZM275.226 18.427C275.274 17.627 276.54 17.906 276.244 18.654C276.195 18.7673 276.108 18.86 275.998 18.916C275.888 18.9721 275.762 18.9881 275.641 18.9612C275.521 18.9343 275.413 18.8663 275.338 18.7688C275.262 18.6713 275.222 18.5504 275.226 18.427ZM271.299 28.588C271.443 28.588 271.581 28.6452 271.683 28.747C271.785 28.8489 271.842 28.987 271.842 29.131C271.842 29.275 271.785 29.4131 271.683 29.515C271.581 29.6168 271.443 29.674 271.299 29.674C271.155 29.674 271.017 29.6168 270.915 29.515C270.813 29.4131 270.756 29.275 270.756 29.131C270.756 28.987 270.813 28.8489 270.915 28.747C271.017 28.6452 271.155 28.588 271.299 28.588ZM271.971 32.837C271.971 32.981 271.914 33.1191 271.812 33.221C271.71 33.3228 271.572 33.38 271.428 33.38C271.284 33.38 271.146 33.3228 271.044 33.221C270.942 33.1191 270.885 32.981 270.885 32.837C270.885 32.693 270.942 32.5549 271.044 32.453C271.146 32.3512 271.284 32.294 271.428 32.294C271.572 32.294 271.71 32.3512 271.812 32.453C271.914 32.5549 271.971 32.693 271.971 32.837ZM270.871 36.461C270.871 36.605 270.814 36.7431 270.712 36.845C270.61 36.9468 270.472 37.004 270.328 37.004C270.184 37.004 270.046 36.9468 269.944 36.845C269.842 36.7431 269.785 36.605 269.785 36.461C269.785 36.317 269.842 36.1789 269.944 36.077C270.046 35.9752 270.184 35.918 270.328 35.918C270.472 35.918 270.61 35.9752 270.712 36.077C270.814 36.1789 270.871 36.317 270.871 36.461ZM268.826 11.701C268.884 11.5723 268.989 11.4711 269.12 11.4184C269.251 11.3658 269.397 11.3658 269.528 11.4186C269.659 11.4713 269.764 11.5727 269.822 11.7014C269.88 11.8301 269.886 11.9762 269.838 12.109C269.78 12.2377 269.675 12.3389 269.544 12.3916C269.413 12.4442 269.267 12.4442 269.136 12.3914C269.005 12.3387 268.9 12.2373 268.842 12.1086C268.784 11.9799 268.778 11.8338 268.826 11.701ZM260.18 12.585C260.046 12.6461 259.893 12.6516 259.755 12.6001C259.617 12.5486 259.506 12.4444 259.445 12.3105C259.383 12.1766 259.378 12.0238 259.429 11.8859C259.481 11.748 259.585 11.6361 259.719 11.575C259.853 11.5139 260.006 11.5084 260.144 11.5599C260.282 11.6114 260.393 11.7156 260.455 11.8495C260.516 11.9834 260.521 12.1362 260.47 12.2741C260.418 12.412 260.314 12.5239 260.18 12.585ZM261.314 17.867C261.41 16.669 261.353 15.4638 261.146 14.28C261.765 14.741 263.307 16.658 264.146 16.652C264.986 16.914 267.909 14.466 268.607 14.132C269.996 18.512 268.046 19.47 273.936 19.078C272.536 20.171 271.305 20.978 270.615 22.485C270.398 22.921 270.058 23.676 269.872 24.127L269.604 24.027L260.404 20.578C259.996 20.624 261.296 18.932 261.309 17.869M268.233 30.762C268.239 30.6219 268.299 30.4895 268.4 30.3925C268.501 30.2955 268.636 30.2413 268.777 30.2413C268.917 30.2413 269.052 30.2955 269.153 30.3925C269.254 30.4895 269.314 30.6219 269.32 30.762C269.314 30.9021 269.254 31.0345 269.153 31.1315C269.052 31.2285 268.917 31.2827 268.777 31.2827C268.636 31.2827 268.501 31.2285 268.4 31.1315C268.299 31.0345 268.239 30.9021 268.233 30.762ZM268.557 34.108C268.551 34.2481 268.491 34.3805 268.39 34.4775C268.289 34.5745 268.154 34.6287 268.014 34.6287C267.873 34.6287 267.738 34.5745 267.637 34.4775C267.536 34.3805 267.476 34.2481 267.47 34.108C267.476 33.9679 267.536 33.8355 267.637 33.7385C267.738 33.6415 267.873 33.5873 268.014 33.5873C268.154 33.5873 268.289 33.6415 268.39 33.7385C268.491 33.8355 268.551 33.9679 268.557 34.108ZM268.9 27.108C268.76 27.102 268.628 27.0421 268.53 26.9408C268.433 26.8396 268.379 26.7047 268.379 26.5645C268.379 26.4243 268.433 26.2894 268.53 26.1882C268.628 26.0869 268.76 26.027 268.9 26.021C269.04 26.027 269.172 26.0869 269.27 26.1882C269.367 26.2894 269.421 26.4243 269.421 26.5645C269.421 26.7047 269.367 26.8396 269.27 26.9408C269.172 27.0421 269.04 27.102 268.9 27.108ZM262.319 25.382C267.019 25.407 267.019 32.551 262.319 32.575C257.619 32.55 257.619 25.406 262.319 25.382ZM249.779 28.45C249.804 23.708 257.008 23.708 257.033 28.45C257.008 33.192 249.803 33.192 249.779 28.45ZM253.232 33.691C253.215 33.6247 253.225 33.5543 253.26 33.4953C253.294 33.4364 253.351 33.3936 253.418 33.3765C253.484 33.3594 253.554 33.3693 253.613 33.4041C253.672 33.4389 253.715 33.4957 253.732 33.562C254.322 35.276 255.941 34.897 256.777 34.696C257.56 34.427 258.009 35.122 258.797 35.189C260.549 35.346 260.928 34.352 260.943 34.31C260.965 34.2454 261.012 34.1923 261.073 34.1623C261.135 34.1323 261.205 34.1279 261.27 34.15C261.335 34.1721 261.388 34.219 261.418 34.2804C261.448 34.3417 261.452 34.4124 261.43 34.477C261.173 34.9408 260.774 35.3099 260.292 35.5302C259.81 35.7505 259.27 35.8104 258.751 35.701C257.974 35.694 257.607 35.035 256.924 35.189C255.51 35.619 253.706 35.432 253.235 33.689M280.444 37.839C279.107 37.4919 277.738 37.2788 276.359 37.203C276.342 37.164 278.477 36.344 277.632 36.293C276.625 36.9849 275.413 37.3142 274.194 37.227C274.182 37.173 275.777 35.827 274.986 36.042L273.786 37.279C272.864 37.488 272.398 37.384 272.318 37.703C272.546 37.939 272.824 37.623 273.788 37.541C273.869 37.584 274.688 38.976 274.84 38.764C275.101 38.656 274.083 37.615 274.078 37.502C276.236 37.169 275.825 37.587 277.059 39.096C277.877 39.444 276.099 37.496 276.134 37.442C277.523 37.5559 278.904 37.7513 280.27 38.027C279.446 38.843 277.582 40.38 275.28 39.676C273.822 39.414 271.044 37.645 271.369 38.646C272.753 41.297 274.077 44.405 271.5 46.965C271.188 45.6237 270.954 44.2654 270.8 42.897C270.807 42.841 272.887 44.582 272.484 43.768C270.927 42.58 270.533 43.008 270.792 40.84C270.866 40.846 272.011 41.813 272.079 41.561C272.089 41.5471 272.095 41.5313 272.099 41.5147C272.102 41.4982 272.103 41.481 272.099 41.4644C272.096 41.4477 272.09 41.4319 272.08 41.4177C272.071 41.4036 272.059 41.3914 272.045 41.382C270.488 40.382 270.8 40.633 271.033 39.228C270.758 38.664 270.672 39.71 270.561 40.555C270.567 40.627 268.726 42.202 269.549 41.977L270.521 40.967C270.643 42.1806 270.352 43.3998 269.694 44.427C269.794 45.25 270.494 43.151 270.561 43.127C270.718 45.402 271.506 47.046 271.134 47.349C270.056 46.0922 269.305 44.5887 268.947 42.972C268.91 41.9764 269.065 40.983 269.404 40.046C269.126 39.72 268.512 40.605 268.204 40.746C265.61 42.6988 262.362 43.5757 259.137 43.194C257.316 42.9892 255.563 42.386 254.001 41.427C258.579 42.54 267.08 41.894 271.389 37.527C270.925 38.191 271.606 37.456 271.768 37.362C274.395 34.755 278.168 35.817 280.442 37.838" fill="white"/>
</g>
</g>
<defs>
<filter id="filter0_d_0_1" x="438.755" y="2.089" width="34.679" height="67.137" filterUnits="userSpaceOnUse" color-interpolation-filters="sRGB">
<feFlood flood-opacity="0" result="BackgroundImageFix"/>
<feColorMatrix in="SourceAlpha" type="matrix" values="0 0 0 0 0 0 0 0 0 0 0 0 0 0 0 0 0 0 127 0" result="hardAlpha"/>
<feOffset dx="3" dy="3"/>
<feColorMatrix type="matrix" values="0 0 0 0 0 0 0 0 0 0 0 0 0 0 0 0 0 0 0.25 0"/>
<feBlend mode="normal" in2="BackgroundImageFix" result="effect1_dropShadow_0_1"/>
<feBlend mode="normal" in="SourceGraphic" in2="effect1_dropShadow_0_1" result="shape"/>
</filter>
<filter id="filter1_d_0_1" x="468.313" y="4.01969" width="73.6916" height="63.2883" filterUnits="userSpaceOnUse" color-interpolation-filters="sRGB">
<feFlood flood-opacity="0" result="BackgroundImageFix"/>
<feColorMatrix in="SourceAlpha" type="matrix" values="0 0 0 0 0 0 0 0 0 0 0 0 0 0 0 0 0 0 127 0" result="hardAlpha"/>
<feOffset dx="3" dy="3"/>
<feColorMatrix type="matrix" values="0 0 0 0 0 0 0 0 0 0 0 0 0 0 0 0 0 0 0.25 0"/>
<feBlend mode="normal" in2="BackgroundImageFix" result="effect1_dropShadow_0_1"/>
<feBlend mode="normal" in="SourceGraphic" in2="effect1_dropShadow_0_1" result="shape"/>
</filter>
<filter id="filter2_d_0_1" x="0.600006" y="0.764908" width="451.126" height="70.1923" filterUnits="userSpaceOnUse" color-interpolation-filters="sRGB">
<feFlood flood-opacity="0" result="BackgroundImageFix"/>
<feColorMatrix in="SourceAlpha" type="matrix" values="0 0 0 0 0 0 0 0 0 0 0 0 0 0 0 0 0 0 127 0" result="hardAlpha"/>
<feOffset dx="3" dy="3"/>
<feColorMatrix type="matrix" values="0 0 0 0 0 0 0 0 0 0 0 0 0 0 0 0 0 0 0.25 0"/>
<feBlend mode="normal" in2="BackgroundImageFix" result="effect1_dropShadow_0_1"/>
<feBlend mode="normal" in="SourceGraphic" in2="effect1_dropShadow_0_1" result="shape"/>
</filter>
<clipPath id="clip0_0_1">
<rect width="189" height="40" fill="white" transform="translate(247 9)"/>
</clipPath>
</defs>
</svg>
