<svg width="555" height="75" viewBox="0 0 555 75" fill="none" xmlns="http://www.w3.org/2000/svg">
<g filter="url(#filter0_d_1705_286)">
<path d="M448.698 67.4826V2.66797L480.711 4.94591V65.2058L448.698 67.4826Z" fill="#954E2A"/>
</g>
<path d="M448.698 60.7859V9.36328L480.712 11.171V58.98L448.698 60.7859Z" fill="#9A5634"/>
<path d="M448.698 54.386V15.7656L480.712 17.1227V53.0282L448.698 54.386Z" fill="#954E2A"/>
<path d="M448.698 46.6388V23.5137L480.712 24.3263V45.8239L448.698 46.6388Z" fill="#9A5634"/>
<path d="M448.698 40.0421V30.1074L480.712 30.4565V39.6931L448.698 40.0421Z" fill="#954E2A"/>
<g filter="url(#filter1_d_1705_286)">
<path d="M489.206 65.4652C489.214 65.4652 489.22 65.4633 489.23 65.4633C489.272 65.4633 489.316 65.4607 489.363 65.4574C489.519 65.4548 489.674 65.4467 489.826 65.4338C489.9 65.4286 489.974 65.419 490.048 65.4112C490.104 65.4035 490.158 65.3983 490.214 65.3905C490.705 65.3302 491.186 65.206 491.644 65.0212C492.866 64.536 493.914 63.6972 494.655 62.6121C498.829 56.6814 497.589 43.4253 507.81 43.474C522.441 44.3236 540.463 45.3948 543 45.5425C543.094 45.5521 543.144 45.558 543.148 45.558C543.246 45.558 543.303 45.5614 543.304 45.5614C543.938 45.5874 544.57 45.4779 545.158 45.2402C545.745 45.0024 546.276 44.642 546.713 44.1829C548.718 41.933 549.878 39.0566 549.996 36.0455V36.0429C550.001 35.8542 549.999 35.664 549.996 35.4752C549.99 35.3426 549.98 35.2081 549.971 35.0748C549.98 34.9415 549.99 34.8085 549.996 34.6748C550 34.4853 550.002 34.295 549.996 34.1074V34.1044C549.878 31.0934 548.717 28.2171 546.712 25.9675C546.275 25.5084 545.745 25.1479 545.157 24.91C544.569 24.6721 543.937 24.5623 543.304 24.5879L543.147 24.5941C543.143 24.5941 543.093 24.5964 542.999 24.6071C540.464 24.7578 522.44 25.8293 507.81 26.6756C497.589 26.724 498.828 13.4693 494.655 7.53786C493.914 6.45272 492.865 5.614 491.644 5.12954C491.185 4.94466 490.704 4.82048 490.213 4.76016L490.047 4.74022C489.973 4.73246 489.899 4.72396 489.825 4.71768C489.673 4.70476 489.518 4.69626 489.362 4.69367C489.315 4.69109 489.271 4.68739 489.229 4.68739C489.219 4.68739 489.213 4.68555 489.205 4.68555C489.205 4.68555 478.561 4.59247 478.561 4.61758V65.535C478.561 65.5593 489.204 65.4652 489.205 65.4652M532.265 35.0763C532.266 33.516 534.784 32.2528 537.889 32.2528C540.994 32.2528 543.513 33.516 543.514 35.0763C543.515 36.6365 540.995 37.9009 537.889 37.9009C534.783 37.9009 532.266 36.6365 532.265 35.0763Z" fill="#D18F2A"/>
</g>
<path d="M487.837 4.61133H478.271V65.5391H487.837V4.61133Z" fill="#EBECEC"/>
<g filter="url(#filter2_d_1705_286)">
<path d="M455.048 57.6058C452.523 55.4387 451.133 51.332 452.442 48.2522C453.118 46.6638 454.872 45.1664 454.78 43.3313C454.7 41.7345 453.038 40.9622 452.736 39.4736C452.384 37.7334 453.512 35.881 453.755 34.1845C454.758 27.176 453.487 20.0692 452.867 13.0932C452.988 12.6148 453.116 12.1549 453.258 11.7265C454.169 8.9628 460.59 5.84195 457.978 2.86847C456.454 1.13241 451.277 1.24544 449.242 1.41757C447.721 1.54648 446.232 1.62516 444.714 1.72267H5.90527V68.1733H426.144C429.56 68.4219 433.017 68.7362 436.471 68.9582C442.88 69.3704 449.276 69.4561 455.374 68.1803C461.078 66.9865 458.633 60.6768 455.048 57.6069" fill="#417DE3"/>
</g>
<g opacity="0.5">
<mask id="mask0_1705_286" style="mask-type:luminance" maskUnits="userSpaceOnUse" x="446" y="2" width="9" height="26">
<path d="M454.996 2.15234H446.252V27.9503H454.996V2.15234Z" fill="white"/>
</mask>
<g mask="url(#mask0_1705_286)">
<path d="M449.85 3.28497C450.361 2.97694 450.915 2.74606 451.493 2.59978C454.859 1.72436 455.935 1.91828 454.123 5.21237C451.958 9.15287 449.965 8.09017 450.286 16.0879C450.516 21.8398 450.606 26.6428 449.006 27.9227C448.159 28.5972 446.424 17.5222 446.387 16.8458C446.148 12.6494 445.759 5.77197 449.85 3.28497Z" fill="white"/>
</g>
</g>
<g style="mix-blend-mode:multiply">
<mask id="mask1_1705_286" style="mask-type:luminance" maskUnits="userSpaceOnUse" x="421" y="17" width="12" height="49">
<path d="M432.259 17.6953H421.799V65.7739H432.259V17.6953Z" fill="white"/>
</mask>
<g mask="url(#mask1_1705_286)">
<path d="M427.257 35.003C427.257 35.003 426.938 46.519 428.535 53.8747C430.133 61.2305 435.258 65.4912 429.817 65.7095C421.82 66.0298 421.179 65.7095 422.138 50.9962C423.098 36.2829 423.738 31.1659 423.42 25.728C422.722 13.8784 427.705 15.9373 426.938 26.6883C426.617 31.167 427.898 29.5695 427.257 35.0041" fill="#F7F8F8"/>
</g>
</g>
<g opacity="0.4">
<mask id="mask2_1705_286" style="mask-type:luminance" maskUnits="userSpaceOnUse" x="447" y="58" width="10" height="10">
<path d="M456.537 58.5625H447.339V67.6126H456.537V58.5625Z" fill="white"/>
</mask>
<g mask="url(#mask2_1705_286)">
<path d="M453.733 59.5598C453.733 59.5598 458.862 64.6882 455.243 65.8942C451.623 67.1002 448.003 69.2134 447.397 65.5924C446.792 61.9714 451.017 56.2402 453.733 59.5598Z" fill="white"/>
</g>
</g>
<mask id="mask3_1705_286" style="mask-type:luminance" maskUnits="userSpaceOnUse" x="321" y="18" width="112" height="34">
<path d="M432.169 18.4688H321.356V51.7125H432.169V18.4688Z" fill="white"/>
</mask>
<g mask="url(#mask3_1705_286)">
<path d="M428.56 31.012C428.546 31.002 428.532 30.992 428.518 30.9824C428.106 30.697 427.65 30.4807 427.169 30.3419C426.966 30.0263 426.707 29.7508 426.404 29.5293C425.466 28.9338 424.365 28.6463 423.255 28.7071H423.252L422.982 28.7027C422.43 28.6617 421.877 28.7454 421.362 28.9476C420.658 28.6035 419.883 28.4281 419.1 28.4352C416.528 28.4352 414.654 29.8525 413.547 31.8028C412.971 31.2751 412.313 30.8447 411.598 30.5285C410.247 29.1418 408.156 28.3318 405.594 28.3318C404.289 28.3318 402.396 28.4692 400.936 29.1315C400.911 29.0115 400.879 28.8929 400.841 28.7762C400.836 28.7621 400.831 28.7485 400.827 28.7352C400.696 28.3768 400.512 28.0405 400.28 27.7378C400.669 27.7991 401.063 27.8285 401.458 27.8258C401.901 27.8258 402.384 27.7907 402.809 27.7596L402.991 27.7463C403.422 27.7413 403.846 27.6471 404.238 27.4696C404.631 27.2922 404.982 27.0354 405.27 26.7154C406.045 27.8235 407.74 27.8258 408.336 27.8258C408.779 27.8258 409.259 27.7907 409.685 27.7596L409.87 27.7463C411.649 27.613 412.353 26.6486 412.631 25.8625C412.645 25.8256 412.657 25.7861 412.668 25.7473C412.728 25.5218 412.775 25.2934 412.81 25.0628C412.871 25.132 412.936 25.1979 413.004 25.2604C412.963 25.4218 412.948 25.5885 412.958 25.7547C413.041 27.1214 413.97 28.0747 415.217 28.0747C415.254 28.0747 415.293 28.0747 415.33 28.0707C416.193 28.0093 417.036 27.7836 417.813 27.4058C418.52 27.062 419.136 26.5557 419.609 25.9283C419.748 27.0024 420.722 28.139 421.953 28.139H421.992C422.78 28.12 423.555 27.931 424.263 27.585C424.972 27.2391 425.597 26.7442 426.096 26.1344C426.392 25.7719 426.638 25.3715 426.827 24.9439C426.836 24.9247 426.844 24.907 426.852 24.8855C427.025 24.4495 427.151 23.996 427.227 23.5329C427.489 23.4019 427.714 23.2083 427.883 22.9692C428.052 22.7301 428.159 22.453 428.195 22.1625C428.306 21.2583 427.438 19.6319 426.237 19.483C425.951 19.4491 425.662 19.4758 425.387 19.5614C425.091 19.5081 424.787 19.5167 424.494 19.5866C424.201 19.6566 423.926 19.7863 423.685 19.9677C423.367 19.8231 423.02 19.7509 422.67 19.7564H422.591C422.172 19.7182 421.75 19.7983 421.374 19.9876C420.998 20.177 420.682 20.468 420.463 20.8276C420.444 20.8597 420.426 20.8926 420.41 20.9258C420.382 20.9831 420.357 21.0422 420.332 21.1009C420.078 20.7259 419.7 20.4516 419.265 20.3252C419.206 20.304 419.145 20.2862 419.083 20.272C418.607 20.1889 418.123 20.1537 417.639 20.1668L417.383 20.1623C417.185 19.9759 416.95 19.8321 416.693 19.7397C416.437 19.6473 416.164 19.6082 415.892 19.6249H415.88C415.431 19.596 414.982 19.6838 414.577 19.8798C414.534 19.9004 414.491 19.9237 414.45 19.9485C413.996 20.2388 413.665 20.6858 413.52 21.2043L413.509 21.2365C413.327 21.6679 413.088 22.0731 412.799 22.4414C412.793 22.4488 412.772 22.475 412.767 22.4827L412.763 22.4875C412.228 20.0201 410.074 20.0201 408.843 20.0201C406.749 20.0201 406.302 20.2547 406.076 20.374C405.745 20.5455 405.463 20.7984 405.257 21.109C404.37 20.0216 402.9 20.0201 401.963 20.0201C399.871 20.0201 399.424 20.2547 399.193 20.3755C398.799 20.5775 398.476 20.8937 398.265 21.2825C398.054 21.6713 397.966 22.1148 398.011 22.5548C398.037 23.0346 398.234 23.4891 398.567 23.8358C398.211 24.2543 398.013 24.7842 398.007 25.3336C397.992 25.6443 398.037 25.9551 398.14 26.2485L398.078 26.2256C396.548 24.1305 392.789 24.1804 390.211 24.2203L389.753 24.2255C386.318 24.2255 384.317 24.6816 383.252 25.7192C382.372 26.5987 382.181 28.0138 382.175 29.0595C382.16 29.4864 382.23 29.912 382.381 30.3116C382.533 30.7111 382.762 31.0765 383.056 31.3865L383.089 31.4202C383.258 31.5845 383.445 31.7282 383.648 31.8483C383.702 32.0796 383.777 32.3052 383.874 32.522C383.144 31.7041 382.258 31.0415 381.266 30.5739C379.699 29.1002 377.618 28.2965 375.467 28.3337C374.358 28.3159 373.257 28.5271 372.233 28.954C371.209 29.3809 370.284 30.0143 369.515 30.8147C369.066 30.4345 368.531 30.1707 367.956 30.0468C367.84 29.8325 367.692 29.6368 367.519 29.4662C366.669 28.6166 365.46 28.5098 364.296 28.5213H364.204C364.028 28.5117 363.853 28.5135 363.678 28.5183C363.099 26.407 361.771 25.6642 360.769 25.413C360.463 24.9438 360.043 24.5601 359.548 24.2981C359.053 24.0361 358.499 23.9043 357.939 23.9152H357.89C356.762 23.8177 355.64 24.1451 354.741 24.8331C353.47 25.8673 352.866 27.9314 352.804 31.4793C352.342 31.1261 351.843 30.8225 351.317 30.5735C349.75 29.0997 347.669 28.2959 345.518 28.3333C344.409 28.3156 343.308 28.5268 342.284 28.9536C341.26 29.3805 340.335 30.0138 339.567 30.814C339.119 30.4338 338.583 30.1701 338.008 30.0461C337.893 29.8309 337.746 29.6341 337.572 29.4625C336.721 28.6099 335.452 28.5065 334.349 28.5176H334.258C334.081 28.5084 333.905 28.5098 333.73 28.5146C333.15 26.4033 331.823 25.6605 330.82 25.4097C330.514 24.9407 330.094 24.5572 329.599 24.2953C329.104 24.0334 328.551 23.9017 327.991 23.9126H327.943C326.815 23.8146 325.692 24.1422 324.794 24.8309C323.451 25.9242 322.851 28.1652 322.851 32.0961V34.9085C322.851 40.4698 324.016 42.0947 324.97 42.7337C325.388 43.8954 325.986 44.6756 326.785 45.1229C327.749 45.639 328.834 45.8865 329.926 45.8395C330.801 45.8631 331.66 45.6017 332.374 45.0948C333.12 45.5844 333.994 45.8434 334.886 45.8395C339.107 45.8395 340.178 44.1466 340.284 42.617C341.092 43.7389 342.157 44.651 343.39 45.2769C344.622 45.9028 345.987 46.2244 347.369 46.2147C350.488 46.2147 353.116 44.7683 354.611 42.4992C354.708 42.5854 354.81 42.6648 354.917 42.7367C355.335 43.8984 355.933 44.6785 356.733 45.1255C357.696 45.6407 358.781 45.8875 359.872 45.8398C360.748 45.8635 361.607 45.6023 362.321 45.0955C363.067 45.5849 363.94 45.8437 364.832 45.8398C369.053 45.8398 370.124 44.1477 370.231 42.6185C371.039 43.74 372.104 44.6518 373.336 45.2774C374.569 45.9031 375.933 46.2245 377.315 46.2147C382.205 46.2147 385.892 42.6621 385.892 37.9507C385.901 36.477 385.514 35.028 384.77 33.7557C385.108 34.0526 385.5 34.2825 385.923 34.4331C385.914 34.9104 385.905 35.3935 385.905 35.9321C385.905 39.4142 386.244 41.8177 387.879 42.9502C388.173 43.935 388.809 44.7823 389.673 45.339C389.704 45.3578 389.736 45.3759 389.767 45.3914C390.453 45.7432 391.213 45.9266 391.984 45.9266C392.065 45.9266 392.147 45.9248 392.229 45.9207H392.542C393.728 45.9841 394.892 45.5812 395.785 44.7982C396.55 44.0572 397.367 42.7644 397.367 36.7609C397.367 36.3314 397.358 35.9062 397.347 35.4814V35.4161C397.341 35.166 397.335 34.9159 397.331 34.6647C397.874 34.657 398.411 34.5498 398.916 34.3482C398.975 34.4942 399.046 34.6353 399.127 34.7704C398.356 35.685 397.952 36.8536 397.993 38.0493C398.007 38.8241 398.178 39.588 398.495 40.2949C398.813 41.0017 399.27 41.6368 399.84 42.1616C400.347 43.3466 401.189 44.3577 402.263 45.0702C403.337 45.7827 404.596 46.1657 405.885 46.1719C406.676 46.1585 407.457 45.9877 408.182 45.6695C408.658 45.8618 409.169 45.9482 409.681 45.9226H410.302C411.506 45.9449 412.683 45.5698 413.651 44.8554C413.819 45.8603 414.366 46.7622 415.181 47.3742C416.223 50.7097 419.858 50.7123 421.366 50.7123C425.941 50.7123 430.672 47.5197 430.672 42.1775V39.3248C430.672 33.3926 429.656 31.8239 428.558 31.012" fill="white"/>
<path d="M330.081 29.0961C330.081 29.6199 330.044 30.1407 330.007 30.6438C329.97 31.1469 329.936 31.6311 329.936 32.1187C329.936 32.2048 329.94 32.3034 329.948 32.4075L330.074 32.2295L330.355 31.8402C330.869 31.1941 331.545 30.6948 332.313 30.3922C332.34 30.383 332.368 30.3771 332.395 30.3682C332.379 30.0586 332.344 29.7502 332.291 29.4448C332.252 29.2156 332.198 28.9891 332.13 28.767C332.021 28.3919 331.844 28.0398 331.609 27.7279C331.387 27.4377 331.093 27.2109 330.756 27.0704C330.466 26.9549 330.156 26.8972 329.844 26.9005H329.776C329.953 27.4354 330.051 27.9933 330.067 28.5564C330.076 28.7297 330.082 28.9077 330.082 29.0957" fill="#E2E3E8"/>
<path d="M338.621 32.117C338.613 32.1089 338.603 32.103 338.595 32.0952C338.492 31.9976 338.377 31.9135 338.253 31.8448C338.042 31.7296 337.814 31.6479 337.578 31.6025C337.282 31.5453 336.982 31.5143 336.681 31.5098C336.584 31.953 336.231 32.4417 335.67 33.1121C335.538 33.2698 335.399 33.4342 335.244 33.6148C334.725 34.2191 333.758 35.3446 333.75 35.7203C333.75 36.2163 334.086 36.7479 334.502 37.2787C334.65 37.4682 334.809 37.6576 334.967 37.8453C335.649 38.6605 336.355 39.5042 336.355 40.493C336.356 40.614 336.335 40.7341 336.294 40.8479C336.064 41.4829 335.168 41.8242 333.575 41.8852C333.403 41.8914 333.225 41.8962 333.036 41.8962C332.433 41.8937 331.849 41.6794 331.388 41.2908C330.859 40.8213 330.41 40.2689 330.058 39.6552C330.046 39.636 330.034 39.6157 330.021 39.5958C330.014 40.3382 329.895 41.8726 328.114 41.894C328.101 41.894 328.09 41.8962 328.077 41.8962C327.48 41.9191 326.885 41.8271 326.323 41.6255C326.416 41.9848 326.543 42.3347 326.701 42.6704C326.84 42.9701 327.031 43.2427 327.265 43.4753C327.365 43.5732 327.476 43.6585 327.597 43.7291C328.316 44.0988 329.12 44.27 329.926 44.2251C330.296 44.2548 330.668 44.1885 331.005 44.0328C331.342 43.8771 331.634 43.6371 331.851 43.3361C331.982 43.1421 332.084 42.9307 332.155 42.7081C332.383 43.0026 332.644 43.2707 332.931 43.5074C333.478 43.9705 334.172 44.2252 334.889 44.2266C335.827 44.2266 338.684 44.2266 338.684 42.3491C338.655 41.6352 338.403 40.9482 337.964 40.3847C337.726 40.0438 337.453 39.7173 337.183 39.3948C337.093 39.2877 337.002 39.178 336.912 39.0679C336.571 38.7009 336.296 38.2771 336.099 37.8157C336.083 37.7607 336.074 37.7037 336.072 37.6462C336.154 37.4355 336.268 37.239 336.411 37.0637C336.72 36.6374 337.167 36.117 337.456 35.7801L337.485 35.7465C337.799 35.3812 338.08 35.0506 338.316 34.7407C338.759 34.1586 339.038 33.6473 339.038 33.1154C339.036 33.0041 339.021 32.8933 338.993 32.7856C338.933 32.5329 338.804 32.302 338.619 32.1189" fill="#E2E3E8"/>
<path d="M345.264 38.1861C345.394 38.2251 345.53 38.2429 345.666 38.2389C345.948 38.2389 346.535 38.2389 346.535 36.1187C346.542 35.7265 346.513 35.3346 346.448 34.9478C346.289 34.11 345.931 34.0195 345.541 34.0195C345.061 34.0195 344.546 34.1821 344.546 36.1187C344.546 37.6006 344.864 38.0535 345.264 38.1872" fill="#E2E3E8"/>
<path d="M353.514 34.7247C353.509 34.7158 353.503 34.7081 353.498 34.6992C353.298 34.3444 353.064 34.0097 352.8 33.6997C352.635 33.5088 352.459 33.3277 352.273 33.1574C351.71 32.6392 351.061 32.2213 350.357 31.9219C351.222 32.8301 351.777 33.99 351.941 35.2341C351.982 35.52 352.004 35.8084 352.006 36.0973C352.006 39.6182 349.217 42.2732 345.519 42.2732C345.168 42.2712 344.818 42.2434 344.471 42.1901C343.162 42.0085 341.938 41.4347 340.962 40.5442C341.267 41.2397 341.692 41.876 342.218 42.424C342.723 42.9537 343.309 43.3997 343.954 43.7452C345.005 44.3091 346.18 44.6034 347.373 44.6018C350.186 44.6018 352.503 43.1612 353.618 40.976C353.785 40.654 353.924 40.3184 354.034 39.9728C354.13 39.6568 354.201 39.3342 354.249 39.0076C354.305 38.658 354.335 38.3046 354.337 37.9504C354.337 37.4588 354.283 36.9686 354.177 36.4885C354.044 35.8715 353.821 35.2776 353.514 34.7258" fill="#E2E3E8"/>
<path d="M367.405 35.7799L367.433 35.7473C367.747 35.382 368.029 35.0514 368.265 34.7415C368.708 34.1587 368.987 33.6474 368.987 33.1163C368.98 32.7425 368.831 32.3856 368.568 32.119C368.561 32.1112 368.551 32.1053 368.543 32.0975C368.44 31.9998 368.325 31.9156 368.201 31.8467C367.99 31.7317 367.762 31.65 367.526 31.6044C367.23 31.5474 366.93 31.5164 366.629 31.5117C366.532 31.955 366.179 32.4437 365.619 33.1137C365.487 33.2722 365.347 33.4369 365.192 33.6179C364.672 34.2222 363.706 35.3477 363.698 35.7233C363.698 36.2201 364.035 36.752 364.451 37.2836C364.599 37.4727 364.757 37.6614 364.914 37.8487C365.597 38.6639 366.303 39.5072 366.303 40.496C366.304 40.6165 366.283 40.7361 366.243 40.8495C366.014 41.4852 365.117 41.8273 363.525 41.8882C363.351 41.8949 363.173 41.8993 362.984 41.8993C362.381 41.8968 361.798 41.6828 361.336 41.2946C360.807 40.8251 360.357 40.2724 360.005 39.6583C359.993 39.6391 359.981 39.6188 359.968 39.5988C359.96 40.3413 359.841 41.8749 358.061 41.8971C358.048 41.8971 358.037 41.8993 358.024 41.8993C357.428 41.922 356.833 41.8304 356.272 41.6293C356.365 41.9884 356.491 42.338 356.65 42.6735C356.788 42.9723 356.979 43.244 357.213 43.4758C357.313 43.5741 357.425 43.6596 357.546 43.7303C358.264 44.0995 359.068 44.2704 359.875 44.2252C360.245 44.2548 360.617 44.1886 360.954 44.033C361.291 43.8773 361.583 43.6375 361.8 43.3365C361.931 43.1428 362.033 42.9313 362.104 42.7086C362.332 43.0034 362.593 43.2719 362.88 43.509C363.427 43.9712 364.12 44.2255 364.836 44.2271C365.775 44.2271 368.631 44.2271 368.631 42.3496C368.602 41.6345 368.35 40.9465 367.909 40.3826C367.672 40.0424 367.4 39.7178 367.13 39.3957C367.04 39.2878 366.948 39.1774 366.858 39.0666C366.517 38.7 366.243 38.277 366.047 37.8166C366.031 37.7614 366.021 37.7043 366.019 37.6467C366.102 37.4367 366.216 37.2407 366.358 37.0656C366.667 36.639 367.115 36.1178 367.404 35.7806" fill="#E2E3E8"/>
<path d="M360.03 29.0954C360.03 29.6191 359.993 30.1399 359.956 30.643C359.92 31.1461 359.885 31.6304 359.885 32.118C359.885 32.204 359.889 32.3026 359.897 32.4068L360.024 32.2288L360.304 31.8394C360.819 31.1935 361.494 30.6942 362.262 30.3915C362.289 30.3823 362.317 30.3763 362.344 30.3675C362.328 30.0579 362.294 29.7495 362.241 29.444C362.202 29.2148 362.148 28.9884 362.079 28.7662C361.97 28.3914 361.793 28.0394 361.558 27.7276C361.336 27.4372 361.042 27.2103 360.704 27.0697C360.415 26.9547 360.105 26.8972 359.794 26.9005H359.726C359.902 27.4355 360 27.9933 360.016 28.5564C360.025 28.7297 360.031 28.9073 360.031 29.095" fill="#E2E3E8"/>
<path d="M382.224 33.1589C381.66 32.6401 381.011 32.2217 380.306 31.9219C381.172 32.8303 381.727 33.9905 381.891 35.2348C381.932 35.5205 381.954 35.8087 381.956 36.0973C381.956 39.6182 379.166 42.2732 375.468 42.2732C375.117 42.2711 374.767 42.2432 374.421 42.1898C373.112 42.0083 371.888 41.4346 370.912 40.5442C371.217 41.2393 371.642 41.8752 372.168 42.4228C372.672 42.9529 373.258 43.3992 373.904 43.7448C374.955 44.3088 376.13 44.6031 377.323 44.6014C381.293 44.6014 384.287 41.7421 384.287 37.9501C384.294 36.8123 384.005 35.6922 383.449 34.6996C383.124 34.1257 382.712 33.6057 382.227 33.1582" fill="#E2E3E8"/>
<path d="M375.212 38.1861C375.342 38.2251 375.478 38.2429 375.614 38.2389C375.896 38.2389 376.484 38.2389 376.484 36.1191C376.491 35.7265 376.462 35.3342 376.397 34.947C376.237 34.11 375.88 34.0195 375.489 34.0195C375.009 34.0195 374.495 34.1821 374.495 36.1191C374.495 37.6006 374.812 38.0531 375.212 38.1876" fill="#E2E3E8"/>
<path d="M399.312 29.2889C399.194 28.9744 399.004 28.6918 398.758 28.4633C398.528 28.2454 398.265 28.0649 397.979 27.9281C397.664 27.7784 397.336 27.6598 396.999 27.5742C397.002 27.5831 397.008 27.5905 397.011 27.5997C397.116 28.1057 397.172 28.6204 397.18 29.137C397.18 29.184 397.178 29.2445 397.171 29.314C397.122 29.7971 396.832 30.7261 395.34 30.7261C395.166 30.7261 394.999 30.7154 394.831 30.7036C394.697 30.6943 394.563 30.6844 394.425 30.6844C393.837 30.6844 393.389 30.8077 393.389 32.3669C393.389 32.7883 393.399 33.2046 393.409 33.6227C393.419 34.0508 393.429 34.4786 393.429 34.9115C393.429 37.4753 393.265 40.69 392.482 41.4494C392.055 41.814 391.506 42.0032 390.945 41.9788C390.834 41.9824 390.723 41.9836 390.622 41.9839H390.327C389.955 42.0098 389.583 41.9606 389.231 41.8391C389.311 42.1831 389.425 42.5183 389.571 42.8398C389.695 43.1173 389.862 43.3736 390.066 43.5996C390.194 43.7401 390.342 43.8619 390.505 43.9616C391.023 44.2278 391.604 44.3491 392.186 44.3128H392.47C393.018 44.3054 393.953 44.3158 394.666 43.6432C394.964 43.3547 395.757 42.5856 395.757 36.7654C395.757 36.3284 395.747 35.8962 395.736 35.4641C395.725 35.0519 395.716 34.6396 395.716 34.2226C395.716 33.0159 395.926 33.0159 396.276 33.0159C396.404 33.0159 396.528 33.0258 396.652 33.0343C396.83 33.0465 397.009 33.0583 397.193 33.0583C397.728 33.0815 398.256 32.9372 398.705 32.6457C398.964 32.4563 399.172 32.2067 399.312 31.9184C399.452 31.6301 399.52 31.312 399.509 30.9917C399.509 30.9854 399.499 30.6179 399.463 30.2071C399.443 29.8976 399.393 29.5908 399.312 29.2914" fill="#E2E3E8"/>
<path d="M387.465 31.2968C387.401 30.9536 387.277 30.8147 386.782 30.7723C386.607 30.7571 386.387 30.7538 386.107 30.7582C385.794 30.7681 385.48 30.7522 385.169 30.7109C385.166 30.7996 385.164 30.8794 385.164 30.9466C385.146 31.4653 385.322 31.9723 385.659 32.3672C385.686 32.3994 385.712 32.4319 385.742 32.4625C385.806 32.5247 385.875 32.5822 385.948 32.6346C386.161 32.7916 386.403 32.9059 386.659 32.9715C386.953 33.0448 387.254 33.0827 387.556 33.0842C387.556 32.956 387.561 32.8293 387.561 32.7004C387.565 32.2891 387.54 31.878 387.484 31.4704C387.476 31.4128 387.474 31.3544 387.465 31.2968Z" fill="#E2E3E8"/>
<path d="M406.142 37.5171C406.108 37.5171 406.079 37.519 406.058 37.519H405.928C404.599 37.519 404.599 37.97 404.599 38.117C404.676 38.1906 404.778 38.2332 404.885 38.2366C405.14 38.242 405.391 38.1776 405.613 38.0506C405.834 37.9236 406.016 37.7386 406.14 37.5156" fill="#E2E3E8"/>
<path d="M405.595 34.0195H405.574C405.383 34.0195 405.194 34.0284 405.004 34.0435C405.145 34.0373 405.3 34.0314 405.459 34.0258C405.502 34.0236 405.548 34.0221 405.597 34.0206" fill="#E2E3E8"/>
<path d="M401.695 34.4255C401.691 34.5307 401.689 34.636 401.693 34.7417V34.8093C402.124 34.5805 402.584 34.4108 403.061 34.3047C402.609 34.3726 402.154 34.4129 401.697 34.4255" fill="#E2E3E8"/>
<path d="M414.006 38.39C414.001 37.8156 413.995 37.2401 413.995 36.6602V36.6572C413.995 36.4833 413.984 36.3141 413.97 36.1468C413.914 35.4481 413.71 34.7693 413.371 34.1555C413.32 34.0639 413.267 33.973 413.21 33.8851C413.1 33.7164 412.979 33.5549 412.848 33.4016C412.647 33.1632 412.423 32.9444 412.181 32.7481C411.71 32.3768 411.186 32.0797 410.626 31.8672C411.243 32.5992 411.603 33.5142 411.649 34.4709C411.656 34.5817 411.666 34.6925 411.666 34.8067C411.666 35.3881 411.671 35.9643 411.677 36.5405C411.682 37.1168 411.687 37.7015 411.687 38.2869C411.687 41.3413 409.928 41.9807 408.451 41.9807H407.784C407.557 42.006 407.328 41.9726 407.118 41.8838C406.908 41.795 406.725 41.6537 406.585 41.4735C406.569 41.4506 406.554 41.4267 406.541 41.4019C406.482 41.4314 406.424 41.4613 406.371 41.4887C405.66 41.9155 404.859 42.17 404.032 42.2319C403.958 42.2319 403.887 42.2245 403.815 42.2208C402.861 42.1737 401.948 41.8258 401.205 41.2272C401.389 41.7813 401.676 42.296 402.05 42.7446C402.518 43.3097 403.104 43.7653 403.767 44.0792C404.43 44.3932 405.153 44.5578 405.887 44.5615C406.723 44.5166 407.537 44.2763 408.264 43.8597C408.646 44.1828 409.138 44.3451 409.637 44.3126H410.302C411.571 44.3126 413.62 43.8512 413.961 40.9945C413.991 40.7451 414.007 40.4943 414.01 40.2431C414.01 40.2062 414.015 40.177 414.015 40.1412C414.015 40.0274 414.015 39.9155 414.012 39.8017C414.011 39.3297 414.008 38.8591 414.004 38.39" fill="#E2E3E8"/>
<path d="M428.005 32.7106C427.894 32.5546 427.757 32.4185 427.601 32.308C427.453 32.2052 427.295 32.1174 427.129 32.0457C426.794 31.8988 426.439 31.8006 426.075 31.7539C426.283 32.3272 426.427 32.9219 426.503 33.5269C426.671 34.8351 426.748 36.1533 426.735 37.4722V40.3275C426.735 44.3622 423.065 46.7738 419.517 46.7738C419.166 46.7738 418.798 46.7738 418.433 46.7539C417.802 46.7447 417.179 46.6122 416.599 46.3638C416.662 46.7351 416.783 47.0943 416.957 47.4283C417.132 47.762 417.375 48.0552 417.671 48.289C418.698 49.0998 420.211 49.1016 421.37 49.1016C425.151 49.1016 429.063 46.5123 429.063 42.1795V39.3239C429.063 34.9257 428.468 33.3467 428.006 32.7121" fill="#E2E3E8"/>
<path d="M420.032 37.5481C420.129 37.5669 420.228 37.5749 420.327 37.5721C420.807 37.5721 421.361 37.4377 421.361 36.3901C421.369 36.0014 421.346 35.6127 421.294 35.2273C421.173 34.4709 420.878 34.3105 420.305 34.3105C419.358 34.3105 419.311 35.5217 419.311 35.7644C419.311 37.1492 419.684 37.4724 420.029 37.5481" fill="#E2E3E8"/>
<path d="M418.059 42.2412C418.483 42.3306 418.914 42.3842 419.347 42.4015C419.368 42.4015 419.39 42.4056 419.411 42.4063C420.471 42.4063 421.062 42.0558 421.273 41.2612C421.207 41.2952 421.142 41.3274 421.076 41.3569C420.375 41.6923 419.605 41.8568 418.828 41.8371C418.761 41.8371 418.697 41.8282 418.632 41.8257C417.603 41.7846 416.622 41.3823 415.861 40.6895C416.061 41.1794 416.322 41.6423 416.637 42.0672C417.114 42.0876 417.589 42.1463 418.057 42.2427" fill="#E2E3E8"/>
<path d="M334.161 32.6818C334.443 32.3527 334.822 31.9113 335.062 31.5811C335.011 31.5766 334.952 31.5733 334.889 31.5703C334.751 31.5637 334.587 31.56 334.389 31.5574H334.208C333.748 31.522 333.287 31.5748 332.848 31.7129C332.323 31.9229 331.859 32.2607 331.497 32.6958L331.239 33.0545C331.116 33.2274 330.99 33.3999 330.863 33.5687C330.771 33.6906 330.678 33.8117 330.584 33.9251C330.47 34.0623 330.33 34.1747 330.171 34.2552C330.012 34.3358 329.838 34.3827 329.66 34.3931C328.708 34.3931 328.509 33.1542 328.509 32.1155C328.509 31.5759 328.546 31.048 328.583 30.5365C328.62 30.0367 328.653 29.5646 328.653 29.0926C328.653 28.9356 328.649 28.7893 328.643 28.6493C328.609 27.8367 328.474 27.2985 328.253 27.0747C328.22 27.0376 328.18 27.0075 328.136 26.9864C328.091 26.9654 328.042 26.9536 327.992 26.952H327.905C327.333 26.9465 326.985 26.9613 326.72 27.1829C326.317 27.5105 325.893 29.1823 325.893 32.0956V34.9095C325.893 37.6828 326.32 39.9396 326.703 40.2315C327.017 40.3844 327.361 40.4631 327.71 40.4616C327.833 40.4675 327.956 40.4693 328.076 40.4693C328.472 40.4693 328.593 40.4693 328.593 39.4539C328.593 39.417 328.589 39.3693 328.585 39.3132C328.561 38.8843 328.522 38.2354 328.914 37.8191C329.007 37.7202 329.12 37.6416 329.245 37.5883C329.37 37.535 329.504 37.508 329.64 37.5092C330.384 37.5092 330.813 38.1792 331.266 38.8903C331.836 39.7845 332.329 40.4693 333.039 40.4693C333.663 40.4856 334.287 40.4187 334.894 40.2706C334.645 39.7123 334.299 39.202 333.873 38.7632C333.147 37.8974 332.325 36.9145 332.325 35.7214C332.357 35.2448 332.524 34.7872 332.807 34.4023C333.22 33.7999 333.672 33.2251 334.16 32.6818" fill="#FCE248"/>
<path d="M346.185 31.4125C345.965 31.3863 345.743 31.3725 345.521 31.3711C342.566 31.3711 340.503 33.3735 340.503 36.2409C340.504 36.4576 340.521 36.6738 340.553 36.8881C340.639 37.4921 340.851 38.0712 341.176 38.5878C341.5 39.1044 341.93 39.5471 342.437 39.887C343.345 40.5082 344.42 40.841 345.52 40.8419C345.742 40.8408 345.964 40.8277 346.185 40.8027C347.427 40.6954 348.585 40.1271 349.429 39.2096C350.118 38.4108 350.521 37.405 350.573 36.3516C350.626 35.2982 350.326 34.2573 349.72 33.3938C349.303 32.8343 348.772 32.3687 348.163 32.0274C347.554 31.686 346.881 31.4765 346.185 31.4125ZM347.887 37.2855C347.836 38.014 347.522 38.6991 347.003 39.2129C346.628 39.5226 346.152 39.6838 345.666 39.6662C345.595 39.6662 345.528 39.661 345.461 39.6569C343.907 39.5616 343.118 38.3737 343.118 36.1168C343.113 35.639 343.157 35.1619 343.248 34.6929C343.535 33.2974 344.302 32.5874 345.541 32.5874C346.001 32.5731 346.455 32.7002 346.841 32.9517C347.126 33.1728 347.363 33.4489 347.539 33.7634C347.716 34.078 347.827 34.4247 347.867 34.783C347.938 35.2234 347.971 35.6692 347.964 36.1154C347.966 36.5063 347.94 36.8968 347.887 37.2841" fill="#FCE248"/>
<path d="M364.109 32.6825C364.391 32.3534 364.77 31.912 365.01 31.5818C364.961 31.5774 364.903 31.574 364.841 31.5711C364.704 31.5644 364.539 31.5607 364.337 31.5582H364.156C363.697 31.5231 363.235 31.5759 362.796 31.7137C362.271 31.9235 361.807 32.2614 361.446 32.6966L361.187 33.0552C361.064 33.2281 360.938 33.4002 360.811 33.569C360.719 33.6913 360.626 33.8125 360.532 33.9258C360.418 34.0631 360.278 34.1755 360.119 34.256C359.96 34.3365 359.786 34.3834 359.608 34.3938C358.656 34.3938 358.457 33.155 358.457 32.1163C358.457 31.5844 358.494 31.0639 358.531 30.5594C358.531 30.552 358.531 30.5442 358.531 30.5372C358.568 30.0374 358.603 29.5654 358.603 29.0933C358.603 28.9367 358.599 28.7904 358.593 28.6501C358.558 27.8374 358.424 27.2996 358.203 27.0754C358.17 27.038 358.13 27.0078 358.085 26.9866C358.04 26.9653 357.991 26.9536 357.941 26.952H357.855C357.281 26.9465 356.934 26.9613 356.669 27.1829C356.267 27.5094 355.842 29.1812 355.842 32.0956V34.9095C355.842 37.6828 356.269 39.9396 356.652 40.2315C356.965 40.3843 357.31 40.4631 357.659 40.4616C357.782 40.4679 357.905 40.4693 358.024 40.4693C358.421 40.4693 358.542 40.4693 358.542 39.4539C358.542 39.417 358.538 39.3693 358.535 39.3136C358.511 38.8843 358.471 38.2354 358.863 37.8191C358.956 37.7202 359.069 37.6417 359.194 37.5884C359.319 37.535 359.453 37.5081 359.589 37.5092C360.333 37.5092 360.762 38.1792 361.213 38.8903C361.783 39.7845 362.276 40.4693 362.986 40.4693C363.61 40.4856 364.234 40.4187 364.841 40.2706C364.592 39.7122 364.246 39.2019 363.82 38.7632C363.094 37.8974 362.272 36.9145 362.272 35.7214C362.305 35.2455 362.473 34.7889 362.756 34.4049C363.169 33.8019 363.621 33.2267 364.11 32.6829" fill="#FCE248"/>
<path d="M376.129 31.414C375.91 31.3881 375.689 31.3744 375.468 31.373C372.513 31.373 370.45 33.3769 370.45 36.2444C370.452 36.4609 370.468 36.677 370.5 36.8911C370.586 37.4953 370.799 38.0745 371.123 38.5913C371.448 39.108 371.877 39.5508 372.384 39.8908C373.292 40.5115 374.367 40.844 375.467 40.8449C375.689 40.8438 375.911 40.8308 376.132 40.8058C377.374 40.6983 378.532 40.1299 379.377 39.2123C380.066 38.4131 380.468 37.4069 380.521 36.353C380.573 35.2992 380.272 34.2579 379.666 33.3943C379.248 32.8348 378.717 32.3694 378.108 32.0283C377.499 31.6871 376.824 31.4779 376.129 31.414M377.834 37.2871C377.783 38.0158 377.469 38.701 376.95 39.2153C376.575 39.5248 376.099 39.6859 375.613 39.6681C375.542 39.6681 375.476 39.6629 375.408 39.6589C373.854 39.5636 373.065 38.3757 373.065 36.1188C373.06 35.6405 373.104 35.1629 373.195 34.6934C373.483 33.2986 374.249 32.5912 375.488 32.5912C375.948 32.5769 376.401 32.7035 376.787 32.954C377.072 33.1751 377.31 33.4511 377.486 33.7658C377.663 34.0804 377.774 34.4272 377.814 34.7857C377.886 35.2263 377.918 35.6724 377.911 36.1188C377.913 36.5096 377.888 36.9 377.834 37.2871Z" fill="#FCE248"/>
<path d="M395.659 28.05C395.571 27.8173 394.859 27.1886 390.255 27.2617L389.848 27.2658H389.757C387.193 27.2658 385.701 27.5827 385.398 27.8768C385.27 28.27 385.209 28.6822 385.219 29.0957C385.215 29.1546 385.222 29.2138 385.242 29.2697C385.292 29.2807 385.345 29.2833 385.396 29.2918C385.628 29.3317 385.863 29.3441 386.098 29.3288H386.265C386.585 29.323 386.905 29.3477 387.22 29.4026C387.638 29.4557 388.027 29.6457 388.326 29.943C388.625 30.2403 388.818 30.6283 388.873 31.0464C388.898 31.2026 388.91 31.3596 388.927 31.5166C388.972 31.9089 388.993 32.3037 388.99 32.6986C388.99 33.2342 388.98 33.7653 388.969 34.2969C388.959 34.8181 388.949 35.34 388.949 35.8667C388.949 39.8608 389.51 40.3967 389.623 40.4651C389.887 40.5448 390.165 40.574 390.44 40.5511H390.643C390.934 40.589 391.23 40.5412 391.495 40.4137C391.762 40.0274 392 37.5448 392 34.91C392 34.4886 391.99 34.0727 391.98 33.6542C391.97 33.2264 391.96 32.7987 391.96 32.3654C391.96 30.301 392.79 29.2538 394.425 29.2538C394.598 29.2538 394.765 29.2652 394.932 29.2763C395.067 29.2859 395.202 29.2959 395.342 29.2959C395.48 29.3086 395.619 29.2882 395.748 29.2364C395.748 29.2316 395.754 29.1995 395.754 29.1352C395.754 29.0791 395.747 29.0244 395.745 28.9671C395.731 28.6595 395.704 28.3525 395.66 28.0474" fill="#FCE248"/>
<path d="M410.237 34.8049C410.248 34.2856 410.133 33.7714 409.903 33.306C409.113 31.7701 407.12 31.444 406.028 31.3852C405.861 31.3764 405.713 31.373 405.596 31.373C404.185 31.373 402.1 31.7317 401.816 32.1148C401.759 32.3693 401.735 32.6299 401.744 32.8904L401.742 33.0038C401.844 32.9979 401.945 32.9854 402.046 32.9772C402.504 32.9403 402.96 32.8882 403.413 32.8092C404.127 32.6814 404.849 32.609 405.574 32.5927C406.012 32.5864 406.443 32.71 406.811 32.9481C407.056 33.1052 407.257 33.3218 407.395 33.5777C407.533 33.8335 407.604 34.1203 407.602 34.4112C407.613 34.6041 407.563 34.7957 407.46 34.9593C407.357 35.1229 407.206 35.2506 407.028 35.3246C406.529 35.426 406.02 35.4694 405.511 35.4539C405.135 35.4679 404.781 35.4794 404.632 35.4964C404.366 35.5215 404.12 35.5581 403.883 35.5998C403.251 35.6941 402.642 35.9072 402.089 36.2277C401.866 36.3638 401.66 36.5255 401.474 36.7098C401.318 36.8878 401.199 37.0951 401.124 37.3197C401.049 37.5443 401.019 37.7816 401.037 38.0177C401.039 38.2444 401.072 38.4697 401.136 38.687C401.256 39.0734 401.454 39.4312 401.717 39.7385C401.98 40.0458 402.303 40.2961 402.667 40.4741C403.09 40.6903 403.558 40.8042 404.033 40.8065C404.631 40.7352 405.207 40.5353 405.721 40.2207C406.093 39.9833 406.514 39.8342 406.952 39.7848C407.364 39.7848 407.641 40.0434 407.777 40.5565H408.453C409.538 40.5565 410.26 40.1712 410.26 38.2907C410.26 37.7093 410.256 37.1323 410.25 36.5565C410.244 35.9806 410.239 35.3955 410.239 34.8101M404.886 39.6666C404.486 39.6757 404.095 39.5429 403.783 39.2917C403.472 39.0405 403.259 38.6871 403.182 38.294C403.175 38.2358 403.171 38.1772 403.171 38.1186C403.163 37.7591 403.261 37.4053 403.453 37.1013C403.645 36.7974 403.923 36.5567 404.251 36.4095C404.779 36.1785 405.352 36.0695 405.929 36.0907H406.039C406.391 36.0554 406.746 36.0896 407.084 36.1912C407.268 36.2789 407.42 36.4211 407.52 36.5984C407.621 36.7757 407.664 36.9796 407.644 37.1822C407.644 38.6689 406.219 39.6681 404.887 39.6681" fill="#FCE248"/>
<path d="M425.019 33.304C424.984 32.843 424.849 32.3951 424.624 31.9912C424.387 31.8592 424.123 31.7841 423.853 31.7722C423.644 31.753 423.435 31.7442 423.225 31.746L422.907 31.7419C422.852 31.7419 422.791 31.739 422.735 31.739C422.735 31.7607 422.735 31.7921 422.733 31.8198C422.731 31.8475 422.733 31.8597 422.733 31.8856V32.6753L421.947 32.5966C421.699 32.564 421.461 32.4783 421.249 32.3455L421.155 32.2945C420.923 32.1792 420.718 32.0614 420.525 31.9495C420.277 31.7919 420.012 31.6628 419.735 31.5646C419.529 31.5019 419.315 31.4716 419.1 31.4748C416.835 31.4748 415.773 33.6113 415.496 35.4157C415.445 35.7306 415.419 36.0488 415.417 36.3676C415.418 36.5626 415.433 36.7574 415.46 36.9505C415.493 37.1903 415.544 37.4272 415.614 37.6589C415.88 38.6106 416.483 39.4329 417.311 39.972C417.767 40.2539 418.292 40.4038 418.828 40.4049C419.401 40.4244 419.969 40.3044 420.485 40.0554C420.559 40.0222 420.625 39.9856 420.693 39.9502C420.727 39.9321 420.763 39.9154 420.797 39.897C421.135 39.6891 421.512 39.551 421.905 39.4907L422.431 39.439L422.794 40.3092V40.4525C422.794 40.4643 422.794 40.4754 422.794 40.4872C422.782 42.5557 421.677 43.7315 419.675 43.8257C419.589 43.8297 419.503 43.8349 419.413 43.8349C418.873 43.8209 418.335 43.7576 417.807 43.6458C417.696 43.6225 417.581 43.6088 417.468 43.5885C417.169 43.5372 416.867 43.5017 416.563 43.4821C416.555 43.7925 416.593 44.1023 416.674 44.4019C416.859 45.0088 417.299 45.2278 418.126 45.3035C418.505 45.3382 418.965 45.3434 419.518 45.3434C422.326 45.3434 425.307 43.5852 425.307 40.3262V37.4717C425.321 36.0771 425.226 34.6836 425.022 33.304M422.698 37.229C422.574 37.7956 422.235 38.2922 421.753 38.6149C421.327 38.8794 420.833 39.0136 420.331 39.0009C420.289 39.0009 420.245 38.9983 420.201 38.9968C419.115 38.9529 417.887 38.336 417.887 35.764C417.884 35.3671 417.944 34.9723 418.066 34.5946C418.201 34.1028 418.494 33.6688 418.899 33.3594C419.305 33.05 419.8 32.8822 420.31 32.8818C420.667 32.8754 421.021 32.9381 421.354 33.0665C422.257 33.4277 422.598 34.2688 422.721 35.0829C422.779 35.5155 422.804 35.9519 422.795 36.3883C422.797 36.6709 422.764 36.9528 422.698 37.2275" fill="#FCE248"/>
<path d="M334.35 30.1295H334.211C333.595 30.093 332.978 30.1735 332.393 30.3667C332.365 30.3755 332.338 30.3811 332.311 30.3907C331.542 30.6927 330.867 31.1922 330.353 31.8386L330.072 32.2279L329.946 32.4056C329.938 32.3022 329.933 32.2028 329.933 32.1168C329.933 31.6292 329.969 31.1494 330.005 30.6418C330.042 30.1343 330.079 29.6179 330.079 29.0942C330.079 28.9061 330.073 28.7285 330.064 28.5552C330.048 27.9921 329.95 27.4343 329.773 26.8993C329.443 25.9862 328.85 25.5245 327.989 25.5245H327.906H327.789C327.083 25.4573 326.377 25.6564 325.81 26.0826C325.145 26.6245 324.723 27.8859 324.551 29.8429C324.492 30.5132 324.462 31.2642 324.462 32.0961V34.9085C324.462 37.0394 324.661 40.7258 325.983 41.4657C326.091 41.5274 326.204 41.5814 326.32 41.6271C326.881 41.8284 327.477 41.9202 328.073 41.8975C328.086 41.8975 328.097 41.8956 328.11 41.8956C329.891 41.8738 330.01 40.3398 330.017 39.5974C330.031 39.6169 330.044 39.6372 330.054 39.6568C330.406 40.2705 330.855 40.8229 331.384 41.2924C331.847 41.6816 332.432 41.8958 333.036 41.8975C333.225 41.8975 333.403 41.893 333.576 41.8864C335.168 41.8258 336.065 41.4845 336.294 40.8495C336.335 40.7356 336.356 40.6153 336.356 40.4942C336.356 39.5054 335.65 38.6621 334.967 37.8469C334.809 37.6592 334.651 37.4694 334.503 37.2799C334.087 36.7491 333.751 36.2179 333.751 35.7215C333.758 35.3444 334.725 34.2192 335.245 33.6161C335.399 33.4358 335.54 33.2714 335.671 33.1133C336.231 32.4433 336.584 31.9546 336.681 31.511C336.7 31.4295 336.71 31.3463 336.71 31.2628C336.71 31.1399 336.685 31.0183 336.637 30.9051C336.59 30.7919 336.52 30.6894 336.432 30.6034C336.094 30.2655 335.486 30.1203 334.35 30.1314M335.063 31.583C334.823 31.9132 334.444 32.3543 334.161 32.6838C333.673 33.2263 333.221 33.8004 332.807 34.4021C332.524 34.7865 332.355 35.2438 332.322 35.7204C332.322 36.9131 333.145 37.896 333.871 38.7622C334.297 39.201 334.642 39.7112 334.892 40.2696C334.284 40.4174 333.66 40.4842 333.036 40.4683C332.325 40.4683 331.832 39.7831 331.263 38.8893C330.812 38.1778 330.383 37.5082 329.64 37.5082C329.504 37.5071 329.369 37.5341 329.244 37.5874C329.119 37.6408 329.007 37.7193 328.914 37.8181C328.522 38.2344 328.561 38.8837 328.585 39.3126C328.588 39.3687 328.592 39.4175 328.592 39.4533C328.592 40.4687 328.473 40.4687 328.075 40.4687C327.955 40.4687 327.832 40.4687 327.709 40.461C327.36 40.4623 327.016 40.3835 326.702 40.2305C326.319 39.939 325.892 37.6818 325.892 34.9085V32.0979C325.892 29.1832 326.316 27.5118 326.719 27.1852C326.985 26.9636 327.332 26.9488 327.905 26.9544H327.992C328.041 26.9562 328.089 26.968 328.134 26.9891C328.178 27.0102 328.218 27.0401 328.251 27.077C328.472 27.3008 328.606 27.8375 328.641 28.6513C328.647 28.792 328.651 28.9387 328.651 29.0945C328.651 29.567 328.617 30.0387 328.58 30.5384C328.544 31.05 328.507 31.5782 328.507 32.1175C328.507 33.1566 328.706 34.3951 329.658 34.3951C329.836 34.3847 330.01 34.3379 330.169 34.2574C330.328 34.177 330.468 34.0646 330.582 33.9274C330.677 33.814 330.769 33.6929 330.861 33.571C330.988 33.4018 331.114 33.2297 331.237 33.0568L331.496 32.6978C331.857 32.2631 332.321 31.9253 332.846 31.7149C333.285 31.5771 333.747 31.5243 334.206 31.5594H334.387C334.585 31.5623 334.749 31.566 334.887 31.5723C334.95 31.5753 335.009 31.5789 335.06 31.5834" fill="#199CA2"/>
<path d="M350.358 31.9229C349.728 31.281 348.975 30.7745 348.143 30.4343C347.311 30.0941 346.418 29.9274 345.519 29.9446C345.411 29.9446 345.307 29.9545 345.202 29.959C344.306 29.9737 343.423 30.1775 342.612 30.5573C341.8 30.937 341.078 31.4839 340.493 32.1623C339.607 33.2475 339.112 34.5991 339.087 35.9997C339.084 36.0817 339.075 36.1611 339.075 36.2443C339.075 36.2838 339.081 36.3215 339.081 36.3606C339.095 37.1493 339.269 37.9269 339.593 38.6462C339.917 39.3655 340.384 40.0113 340.965 40.5445C341.942 41.4351 343.165 42.0089 344.474 42.1905C344.821 42.2436 345.171 42.2714 345.522 42.2736C349.22 42.2736 352.009 39.6181 352.009 36.0976C352.007 35.8086 351.985 35.5201 351.944 35.234C351.781 33.9898 351.226 32.8299 350.36 31.9218M346.186 40.8038C345.965 40.8288 345.743 40.8419 345.521 40.843C344.42 40.8421 343.346 40.5094 342.437 39.8881C341.931 39.5482 341.501 39.1056 341.177 38.589C340.852 38.0725 340.64 37.4935 340.553 36.8896C340.522 36.6753 340.505 36.459 340.504 36.2424C340.504 33.3746 342.567 31.3711 345.522 31.3722C345.744 31.3736 345.966 31.3874 346.186 31.4136C346.882 31.4777 347.555 31.6872 348.164 32.0285C348.773 32.3699 349.304 32.8354 349.721 33.3949C350.326 34.2586 350.627 35.2996 350.574 36.3531C350.521 37.4066 350.118 38.4123 349.429 39.2111C348.584 40.129 347.426 40.6976 346.183 40.8049" fill="#199CA2"/>
<path d="M346.841 32.9528C346.455 32.7015 346.001 32.5746 345.541 32.589C344.301 32.589 343.535 33.2971 343.248 34.6926C343.157 35.1616 343.113 35.6387 343.118 36.1165C343.118 38.3734 343.907 39.5613 345.461 39.6566C345.528 39.6607 345.595 39.6659 345.665 39.6659C346.152 39.6836 346.628 39.5225 347.003 39.213C347.522 38.6989 347.836 38.0137 347.887 37.2852C347.94 36.898 347.966 36.5075 347.964 36.1165C347.971 35.6705 347.938 35.2248 347.867 34.7846C347.827 34.4262 347.716 34.0794 347.539 33.7648C347.363 33.4502 347.126 33.1741 346.841 32.9528ZM346.535 36.1169C346.535 38.2371 345.948 38.2371 345.666 38.2371C345.53 38.2411 345.394 38.2233 345.264 38.1843C344.863 38.0513 344.546 37.5988 344.546 36.1158C344.546 34.1792 345.059 34.0166 345.541 34.0166C345.93 34.0166 346.289 34.1071 346.448 34.9449C346.513 35.3317 346.542 35.7236 346.535 36.1158" fill="#199CA2"/>
<path d="M364.297 30.1311H364.16C363.545 30.0945 362.929 30.1746 362.344 30.3671C362.316 30.376 362.288 30.3819 362.261 30.3912C361.493 30.6942 360.818 31.1935 360.304 31.8391L360.023 32.2284L359.897 32.4061C359.888 32.3027 359.884 32.2033 359.884 32.1172C359.884 31.6297 359.921 31.1498 359.956 30.6423C359.99 30.1348 360.03 29.6184 360.03 29.0946C360.03 28.907 360.024 28.7293 360.015 28.5565C359.998 27.9932 359.901 27.4353 359.724 26.9002C359.394 25.9871 358.799 25.525 357.94 25.525H357.855C357.818 25.525 357.781 25.525 357.744 25.525C357.036 25.4564 356.329 25.6554 355.76 26.0828C355.092 26.6261 354.67 27.8927 354.499 29.8607C354.441 30.5256 354.412 31.2712 354.412 32.0977V34.9101C354.412 36.72 354.56 39.6425 355.409 40.939C355.539 41.1542 355.718 41.3353 355.932 41.4672C356.041 41.529 356.154 41.5831 356.27 41.629C356.831 41.8302 357.426 41.9218 358.022 41.899C358.035 41.899 358.046 41.8972 358.059 41.8972C359.84 41.875 359.958 40.3414 359.966 39.5989C359.98 39.6185 359.992 39.6388 360.003 39.6584C360.356 40.2726 360.806 40.8253 361.336 41.2947C361.798 41.6828 362.382 41.8963 362.985 41.8979C363.175 41.8979 363.355 41.8935 363.527 41.8869C365.119 41.8259 366.016 41.4842 366.245 40.8482C366.285 40.7347 366.305 40.6151 366.305 40.4947C366.305 39.5059 365.599 38.6626 364.916 37.8474C364.759 37.6601 364.601 37.4713 364.453 37.2822C364.037 36.7511 363.7 36.2192 363.7 35.7223C363.707 35.3452 364.674 34.2197 365.194 33.6169C365.349 33.4359 365.49 33.2712 365.621 33.1127C366.181 32.4427 366.534 31.954 366.631 31.5104C366.649 31.4293 366.659 31.3464 366.66 31.2632C366.659 31.1403 366.635 31.0188 366.587 30.9056C366.539 30.7924 366.469 30.6898 366.381 30.6039C366.043 30.2659 365.448 30.1208 364.299 30.1319M365.013 31.5824C364.773 31.9126 364.394 32.3536 364.112 32.6831C363.623 33.2266 363.17 33.8018 362.757 34.4048C362.474 34.7889 362.306 35.2456 362.273 35.7216C362.273 36.9143 363.096 37.8972 363.822 38.7634C364.248 39.2021 364.593 39.7123 364.842 40.2708C364.235 40.4186 363.611 40.4854 362.987 40.4696C362.276 40.4696 361.783 39.7844 361.214 38.8905C360.763 38.1791 360.334 37.5094 359.59 37.5094C359.455 37.5083 359.32 37.5352 359.195 37.5885C359.07 37.6418 358.957 37.7202 358.864 37.8189C358.472 38.2352 358.511 38.8846 358.535 39.3134C358.539 39.3696 358.542 39.4183 358.542 39.4541C358.542 40.4696 358.423 40.4696 358.027 40.4696C357.908 40.4696 357.785 40.4696 357.662 40.4618C357.313 40.4631 356.968 40.3844 356.654 40.2317C356.272 39.9399 355.844 37.683 355.844 34.9094V32.0943C355.844 29.1811 356.269 27.5093 356.671 27.1816C356.936 26.96 357.283 26.9452 357.858 26.9508H357.944C357.994 26.9523 358.043 26.9641 358.088 26.9852C358.133 27.0064 358.173 27.0365 358.206 27.0738C358.427 27.2984 358.561 27.8351 358.596 28.6488C358.602 28.7892 358.605 28.9351 358.605 29.0921C358.605 29.5645 358.568 30.0362 358.534 30.5359C358.534 30.5433 358.534 30.5511 358.534 30.5581C358.497 31.063 358.46 31.5835 358.46 32.115C358.46 33.1541 358.66 34.3926 359.611 34.3926C359.789 34.3823 359.963 34.3355 360.122 34.255C360.281 34.1745 360.421 34.0622 360.535 33.925C360.63 33.8112 360.722 33.69 360.814 33.5681C360.942 33.3993 361.067 33.2268 361.19 33.0543L361.449 32.6953C361.809 32.2599 362.274 31.922 362.799 31.7124C363.238 31.5746 363.699 31.5218 364.158 31.5569H364.34C364.543 31.5599 364.707 31.5635 364.844 31.5702C364.905 31.5732 364.963 31.5765 365.014 31.5809" fill="#199CA2"/>
<path d="M380.306 31.9229C379.676 31.2811 378.923 30.7745 378.091 30.4343C377.258 30.0941 376.366 29.9275 375.467 29.9446C375.359 29.9446 375.256 29.9542 375.15 29.9586C374.254 29.9733 373.371 30.1771 372.56 30.5568C371.748 30.9364 371.026 31.4833 370.441 32.1615C369.554 33.2466 369.058 34.5985 369.032 35.9997C369.029 36.0817 369.021 36.1611 369.021 36.2442C369.021 36.2841 369.027 36.3229 369.027 36.3628C369.042 37.1511 369.216 37.9282 369.54 38.647C369.864 39.3658 370.33 40.0112 370.911 40.5441C371.888 41.4346 373.111 42.0084 374.42 42.1901C374.767 42.2435 375.117 42.2714 375.467 42.2736C379.166 42.2736 381.955 39.6185 381.955 36.0976C381.953 35.809 381.931 35.5208 381.89 35.2351C381.727 33.9907 381.172 32.8305 380.305 31.9222M376.131 40.8049C375.911 40.83 375.689 40.8432 375.467 40.8444C374.366 40.8435 373.292 40.5109 372.384 39.89C371.877 39.5499 371.448 39.1071 371.123 38.5903C370.799 38.0736 370.586 37.4944 370.5 36.8903C370.468 36.6761 370.451 36.46 370.45 36.2435C370.45 33.376 372.514 31.3726 375.468 31.3726C375.689 31.3738 375.91 31.3874 376.13 31.4132C376.825 31.4769 377.499 31.6862 378.109 32.0274C378.718 32.3686 379.249 32.8341 379.667 33.3938C380.273 34.2574 380.573 35.2985 380.521 36.3522C380.468 37.4059 380.066 38.412 379.377 39.2111C378.532 40.1289 377.375 40.6975 376.132 40.8049" fill="#199CA2"/>
<path d="M376.787 32.954C376.401 32.7034 375.948 32.5767 375.488 32.5909C374.249 32.5909 373.483 33.299 373.196 34.6934C373.104 35.1629 373.06 35.6405 373.065 36.1188C373.065 38.3757 373.854 39.5632 375.408 39.6589C375.476 39.663 375.543 39.6682 375.613 39.6682C376.099 39.6857 376.575 39.5246 376.95 39.2153C377.469 38.7011 377.783 38.016 377.834 37.2875C377.888 36.9003 377.914 36.5097 377.912 36.1188C377.918 35.6725 377.886 35.2264 377.814 34.7857C377.774 34.4273 377.663 34.0804 377.486 33.7658C377.31 33.4512 377.072 33.1751 376.787 32.954ZM376.483 36.1188C376.483 38.239 375.895 38.239 375.613 38.239C375.477 38.2431 375.341 38.2251 375.211 38.1858C374.811 38.0532 374.493 37.6004 374.493 36.1173C374.493 34.1807 375.007 34.0182 375.488 34.0182C375.877 34.0182 376.236 34.1087 376.396 34.9457C376.461 35.3327 376.49 35.7249 376.483 36.1173" fill="#199CA2"/>
<path d="M396.999 27.574C396.348 25.8804 393.166 25.7874 390.23 25.832L389.754 25.8376C388.968 25.8376 388.265 25.8642 387.641 25.9159C385.99 26.0518 384.9 26.3658 384.392 26.8596C383.862 27.3893 383.794 28.5717 383.789 29.0231C383.789 29.0493 383.789 29.0741 383.789 29.0951C383.778 29.3108 383.811 29.5265 383.886 29.729C383.961 29.9315 384.076 30.1166 384.225 30.273C384.485 30.5164 384.816 30.6699 385.17 30.7108C385.481 30.7521 385.794 30.7679 386.108 30.758C386.388 30.754 386.608 30.758 386.782 30.7721C387.278 30.8149 387.402 30.9538 387.466 31.2966C387.475 31.3542 387.477 31.4126 387.485 31.4702C387.54 31.8778 387.566 32.2889 387.561 32.7002C387.561 32.8291 387.557 32.9558 387.557 33.084C387.553 33.4803 387.549 33.8763 387.541 34.2701C387.53 34.8016 387.52 35.3324 387.52 35.9322C387.52 39.4395 387.915 41.1072 388.894 41.6945C389.003 41.7493 389.116 41.7967 389.232 41.8363C389.583 41.958 389.956 42.0075 390.327 41.9819H390.623C390.724 41.9819 390.833 41.9819 390.946 41.9767C391.507 42.0012 392.056 41.8117 392.483 41.4467C393.266 40.6887 393.43 37.4737 393.43 34.9087C393.43 34.4758 393.42 34.0484 393.409 33.6203C393.399 33.2037 393.389 32.7878 393.389 32.3645C393.389 30.8053 393.838 30.6816 394.426 30.6816C394.565 30.6816 394.7 30.6919 394.832 30.7008C395 30.7126 395.167 30.7233 395.341 30.7233C396.832 30.7233 397.122 29.7943 397.172 29.3116C397.179 29.2418 397.181 29.1812 397.181 29.1343C397.173 28.6176 397.116 28.1029 397.012 27.5969C397.009 27.5881 397.003 27.5803 396.999 27.5714M395.753 29.135C395.753 29.1989 395.746 29.2314 395.747 29.2358C395.618 29.2878 395.479 29.3083 395.341 29.2957C395.201 29.2957 395.066 29.2857 394.931 29.2761C394.764 29.265 394.598 29.2536 394.424 29.2536C392.788 29.2536 391.959 30.3008 391.959 32.3652C391.959 32.7981 391.969 33.2262 391.98 33.6539C391.989 34.0702 392 34.4865 392 34.9076C392 37.5438 391.761 40.0264 391.494 40.4113C391.229 40.5392 390.933 40.5871 390.642 40.5491H390.439C390.164 40.572 389.886 40.5428 389.622 40.463C389.509 40.3947 388.947 39.8587 388.948 35.8647C388.948 35.3376 388.958 34.816 388.968 34.2948C388.979 33.7633 388.989 33.2321 388.989 32.6961C388.992 32.3012 388.971 31.9065 388.926 31.5141C388.909 31.3572 388.897 31.1998 388.872 31.0439C388.817 30.6258 388.625 30.2378 388.326 29.9404C388.027 29.6431 387.637 29.4531 387.219 29.4002C386.904 29.3453 386.584 29.3206 386.265 29.3263H386.097C385.862 29.3415 385.627 29.3291 385.395 29.2894C385.344 29.2809 385.291 29.2783 385.24 29.2672C385.221 29.2113 385.214 29.1522 385.218 29.0933C385.208 28.6797 385.269 28.2675 385.397 27.8743C385.699 27.5788 387.192 27.2637 389.756 27.2637H389.848L390.254 27.2597C394.858 27.1858 395.571 27.8137 395.658 28.0479C395.702 28.3527 395.728 28.66 395.742 28.9677C395.745 29.0238 395.751 29.0785 395.752 29.1357" fill="#199CA2"/>
<path d="M411.665 34.8056C411.665 34.691 411.655 34.581 411.648 34.4698C411.601 33.5131 411.242 32.5981 410.624 31.8661C409.59 30.6512 407.834 29.9453 405.593 29.9453C405.45 29.9453 404.96 29.9497 404.334 30.004C403.316 30.0923 401.941 30.3128 401.118 30.8621C400.827 31.0369 400.602 31.3024 400.476 31.6178C400.354 32.029 400.299 32.4572 400.313 32.8859V32.9273V33.0056C400.3 33.1113 400.298 33.2183 400.308 33.3244C400.334 33.613 400.447 33.887 400.632 34.1097C400.742 34.2181 400.872 34.3029 401.016 34.3588C401.16 34.4147 401.313 34.4404 401.467 34.4343C401.543 34.4343 401.619 34.4258 401.695 34.4236C402.152 34.4111 402.607 34.3708 403.059 34.3028C402.083 34.5205 401.185 35.0022 400.463 35.6954C400.371 35.7955 400.285 35.9014 400.206 36.0123C399.787 36.5928 399.575 37.2982 399.607 38.0139C399.607 38.0572 399.612 38.0993 399.614 38.1421C399.641 38.74 399.797 39.3249 400.071 39.8569C400.346 40.389 400.731 40.8557 401.202 41.2253C401.945 41.8242 402.859 42.172 403.812 42.2189C403.886 42.2226 403.956 42.23 404.029 42.23C404.856 42.1683 405.657 41.9137 406.368 41.4868L406.538 41.4C406.552 41.4249 406.566 41.4489 406.583 41.472C406.722 41.6522 406.906 41.7934 407.116 41.8822C407.326 41.9709 407.555 42.0042 407.782 41.9788H408.448C409.926 41.9788 411.685 41.338 411.685 38.2851C411.685 37.6996 411.68 37.1193 411.674 36.5383C411.669 35.9573 411.664 35.3858 411.664 34.8044M410.236 34.8044C410.236 35.3899 410.242 35.9706 410.246 36.5509C410.251 37.1311 410.257 37.7033 410.257 38.2847C410.257 40.1656 409.534 40.5504 408.449 40.5504H407.774C407.637 40.0392 407.36 39.7792 406.948 39.7792C406.51 39.8284 406.089 39.9775 405.718 40.2151C405.204 40.5297 404.628 40.7295 404.03 40.8009C403.555 40.7986 403.086 40.6847 402.663 40.4684C402.3 40.2904 401.977 40.0401 401.713 39.7327C401.45 39.4254 401.253 39.0675 401.133 38.681C401.069 38.4638 401.035 38.2386 401.034 38.0121C401.016 37.7759 401.046 37.5386 401.121 37.3139C401.196 37.0893 401.315 36.8819 401.471 36.7038C401.656 36.5203 401.863 36.3591 402.086 36.2236C402.639 35.9031 403.247 35.69 403.879 35.5956C404.116 35.5539 404.362 35.5173 404.629 35.4922C404.777 35.4752 405.131 35.4638 405.507 35.4497C406.016 35.4652 406.525 35.4218 407.024 35.3205C407.203 35.2464 407.354 35.1187 407.457 34.9551C407.56 34.7915 407.609 34.6 407.598 34.407C407.601 34.1161 407.53 33.8292 407.391 33.5733C407.253 33.3173 407.052 33.1007 406.807 32.9435C406.44 32.7071 406.011 32.5842 405.574 32.5904C404.849 32.6067 404.127 32.679 403.413 32.8069C402.961 32.8859 402.505 32.938 402.046 32.9749C401.945 32.9831 401.843 32.9956 401.742 33.0015L401.744 32.8881C401.735 32.6276 401.759 32.367 401.815 32.1124C402.099 31.7294 404.185 31.3707 405.596 31.3707C405.713 31.3707 405.86 31.3741 406.027 31.3829C407.12 31.4428 409.113 31.7689 409.903 33.3037C410.133 33.7691 410.248 34.2833 410.237 34.8026M405.595 34.0188C405.546 34.0188 405.5 34.0217 405.457 34.024C405.298 34.0295 405.143 34.0354 405.003 34.0417C405.193 34.0265 405.381 34.0177 405.572 34.0177L405.595 34.0188Z" fill="#199CA2"/>
<path d="M407.084 36.1903C406.745 36.0884 406.39 36.0542 406.039 36.0899H405.928C405.352 36.0689 404.778 36.1778 404.25 36.4086C403.922 36.556 403.645 36.7967 403.453 37.1007C403.261 37.4047 403.162 37.7586 403.17 38.1181C403.17 38.1768 403.174 38.2353 403.181 38.2936C403.258 38.6866 403.471 39.04 403.783 39.2911C404.094 39.5422 404.485 39.675 404.885 39.6658C406.217 39.6658 407.642 38.6685 407.642 37.1799C407.662 36.9773 407.619 36.7735 407.519 36.5963C407.419 36.419 407.266 36.2769 407.083 36.1892M405.928 37.519H406.057C406.078 37.519 406.108 37.519 406.142 37.519C406.017 37.7417 405.835 37.9265 405.614 38.0534C405.392 38.1804 405.141 38.2447 404.886 38.2396C404.779 38.2364 404.677 38.1938 404.6 38.1199C404.6 37.9722 404.6 37.5219 405.93 37.5219" fill="#199CA2"/>
<path d="M426.503 33.5288C426.426 32.9238 426.283 32.3291 426.075 31.7558C425.961 31.4039 425.753 31.0897 425.473 30.8472C424.813 30.3803 423.925 30.3208 423.226 30.3208L422.939 30.3164C422.719 30.2793 422.494 30.2894 422.278 30.3459C422.062 30.4025 421.86 30.5042 421.687 30.6444C421.618 30.7114 421.559 30.7873 421.51 30.8701C421.416 30.8176 421.326 30.7663 421.239 30.7157C420.618 30.2959 419.888 30.065 419.138 30.0508C419.125 30.0508 419.113 30.0508 419.101 30.0508C416.972 30.0508 415.475 31.3927 414.672 33.162C414.273 34.0569 414.046 35.0188 414.002 35.9977C413.997 36.1226 413.989 36.2478 413.989 36.3726C413.991 37.8939 414.574 39.357 415.618 40.4635C415.696 40.5436 415.78 40.6168 415.864 40.6914C416.625 41.3842 417.606 41.7864 418.634 41.8272C418.7 41.8302 418.763 41.839 418.83 41.839C419.607 41.8589 420.378 41.6943 421.079 41.3588C421.144 41.3297 421.209 41.2975 421.276 41.2632C421.064 42.0577 420.474 42.4082 419.413 42.4082C419.392 42.4082 419.371 42.4042 419.35 42.4031C418.916 42.386 418.486 42.3325 418.062 42.2431C417.594 42.1467 417.119 42.088 416.642 42.0677C416.579 42.0647 416.517 42.0558 416.454 42.054C416.189 42.0271 415.923 42.091 415.699 42.2353C415.475 42.3796 415.307 42.5957 415.222 42.8482C415.16 43.0508 415.129 43.2621 415.133 43.4743C415.133 43.622 415.143 43.7579 415.153 43.8939C415.25 45.2654 415.82 45.9893 416.598 46.3635C417.177 46.6118 417.8 46.7445 418.431 46.7539C418.797 46.7731 419.164 46.7739 419.516 46.7739C423.064 46.7739 426.734 44.3622 426.734 40.3272V37.4737C426.747 36.155 426.67 34.8369 426.502 33.5288M416.671 44.4047C416.59 44.1051 416.552 43.7953 416.56 43.485C416.864 43.5045 417.165 43.54 417.465 43.5913C417.578 43.6102 417.691 43.6253 417.803 43.6486C418.332 43.7604 418.869 43.8237 419.409 43.8377C419.499 43.8377 419.585 43.8325 419.672 43.8285C421.674 43.7343 422.778 42.5589 422.791 40.4901C422.791 40.4782 422.791 40.4672 422.791 40.4553V40.312L422.429 39.4418L421.902 39.4935C421.509 39.5535 421.133 39.6917 420.794 39.8998C420.76 39.9179 420.724 39.9367 420.69 39.953C420.622 39.9899 420.556 40.025 420.482 40.0583C419.966 40.3073 419.398 40.4272 418.825 40.4077C418.289 40.4066 417.764 40.2566 417.308 39.9744C416.48 39.4354 415.877 38.6133 415.611 37.6618C415.542 37.43 415.49 37.1931 415.457 36.9533C415.43 36.7602 415.415 36.5655 415.414 36.3704C415.416 36.0516 415.442 35.7334 415.492 35.4185C415.77 33.6141 416.832 31.4777 419.097 31.4777C419.312 31.4744 419.527 31.5047 419.733 31.5674C420.009 31.6655 420.274 31.7946 420.522 31.9523C420.715 32.0631 420.92 32.1821 421.152 32.2973L421.246 32.3483C421.458 32.4809 421.696 32.5666 421.944 32.5995L422.73 32.6781V31.8873C422.73 31.8615 422.73 31.8437 422.73 31.8216C422.73 31.7994 422.73 31.7625 422.732 31.7407C422.788 31.7407 422.849 31.7433 422.905 31.7433L423.222 31.7473C423.357 31.7473 423.597 31.7473 423.85 31.7739C424.121 31.7859 424.385 31.8609 424.621 31.993C424.846 32.3968 424.981 32.8447 425.016 33.3057C425.221 34.6853 425.316 36.0788 425.302 37.4734V40.329C425.302 43.588 422.32 45.3462 419.514 45.3462C418.959 45.3462 418.5 45.3407 418.121 45.3064C417.294 45.2306 416.854 45.0109 416.669 44.4047" fill="#199CA2"/>
<path d="M421.351 33.0679C421.018 32.9396 420.664 32.8769 420.307 32.8833C419.797 32.8837 419.301 33.0514 418.896 33.3608C418.49 33.6703 418.198 34.1042 418.063 34.5961C417.941 34.9738 417.88 35.3686 417.883 35.7655C417.883 38.3375 419.112 38.9543 420.198 38.9983C420.242 38.9983 420.285 39.0023 420.328 39.0023C420.83 39.0151 421.324 38.8809 421.75 38.6163C422.232 38.2937 422.571 37.7971 422.695 37.2304C422.762 36.9557 422.795 36.6739 422.793 36.3912C422.802 35.9548 422.777 35.5184 422.719 35.0858C422.594 34.2732 422.253 33.4307 421.352 33.0694M419.315 35.7659C419.315 35.5232 419.362 34.312 420.309 34.312C420.882 34.312 421.177 34.4723 421.298 35.2288C421.35 35.6141 421.373 36.0028 421.366 36.3916C421.366 37.4391 420.811 37.5736 420.331 37.5736C420.232 37.5764 420.133 37.5683 420.036 37.5496C419.691 37.4757 419.318 37.1507 419.318 35.7659" fill="#199CA2"/>
<path d="M399.62 25.3945C399.613 25.5025 399.627 25.6108 399.663 25.7129C399.852 26.1695 401.033 26.2127 401.458 26.2127C401.901 26.2127 402.427 26.1695 402.87 26.1388C403.461 26.0945 404.016 25.9442 404.232 25.3262C404.371 24.8156 404.426 24.2857 404.395 23.7575C404.395 21.8267 403.726 21.6328 401.963 21.6328C401.571 21.6328 400.233 21.6513 399.932 21.8086C399.821 21.8657 399.732 21.9561 399.676 22.067C399.62 22.1778 399.6 22.3035 399.62 22.4262C399.62 22.7779 400.038 22.9456 400.25 22.9456C400.624 22.9456 401 22.9216 401.375 22.9216C401.687 22.9216 402.694 22.7649 402.899 23.0032C403.02 23.2088 403.074 23.4467 403.055 23.6843C403.055 24.8032 403.055 25.034 401.775 24.8841C401.231 24.8397 400.849 24.7965 400.175 24.7271C399.943 24.7034 399.624 24.897 399.619 25.3971" fill="#199CA2"/>
<path d="M407.131 22.9426C407.504 22.9426 407.88 22.9186 408.255 22.9186C408.567 22.9186 409.574 22.7624 409.78 23.0002C409.901 23.2059 409.955 23.4437 409.936 23.6814C409.936 24.8002 409.936 25.0311 408.655 24.8815C408.11 24.8371 407.73 24.7936 407.056 24.7245C406.824 24.7005 406.505 24.894 406.499 25.3942C406.491 25.5022 406.506 25.6106 406.542 25.7126C406.729 26.1691 407.909 26.2127 408.335 26.2127C408.779 26.2127 409.304 26.1691 409.749 26.1388C410.342 26.0941 410.894 25.9438 411.111 25.3262C411.249 24.8154 411.304 24.2855 411.273 23.7571C411.273 21.8267 410.604 21.6328 408.842 21.6328C408.448 21.6328 407.111 21.6509 406.81 21.8086C406.7 21.8656 406.61 21.9559 406.554 22.0667C406.498 22.1775 406.478 22.3032 406.497 22.4259C406.497 22.7779 406.916 22.9452 407.129 22.9452" fill="#199CA2"/>
<path d="M414.63 24.3502C415.161 24.3502 415.661 23.0574 416.181 22.8882C416.396 22.8368 416.617 22.8199 416.837 22.838C416.918 22.838 416.999 22.8317 417.087 22.8317C417.256 22.8317 417.624 22.8568 417.624 23.0947C417.616 23.1956 417.602 23.296 417.581 23.395L417.587 23.4064C417.505 23.5431 417.581 23.6934 417.356 23.6934C417.131 23.6934 416.575 23.2554 416.174 23.2554C415.923 23.2554 415.568 23.8305 415.568 24.0551C415.568 24.4244 416.555 24.5186 416.555 24.8056C416.555 25.1927 414.836 25.2685 414.568 25.6552C414.593 26.0615 414.749 26.4612 415.217 26.4612C415.87 26.415 416.509 26.2454 417.098 25.9614C418.498 25.2685 419.056 23.9871 419.056 22.4745C419.056 22.1683 419.106 21.9001 418.724 21.8495V21.8432C418.236 21.7324 416.618 21.8362 416.323 21.6685C416.348 21.219 416.192 21.2378 415.817 21.2378C415.632 21.2185 415.446 21.251 415.279 21.3317C415.123 21.4255 415.074 21.6641 415.011 21.8255C414.771 22.4034 414.454 22.9459 414.067 23.4378C414.03 23.4881 413.986 23.5376 413.956 23.5878C413.921 23.6343 413.896 23.6875 413.882 23.744C413.882 23.9816 414.413 24.3502 414.632 24.3502" fill="#199CA2"/>
<path d="M426.111 22.1881C426.243 22.201 426.574 22.1305 426.591 21.9628C426.61 21.815 426.192 21.1014 426.037 21.0822C425.883 21.063 425.599 21.1764 425.581 21.3566C425.561 21.5007 425.962 22.1693 426.112 22.1881" fill="#199CA2"/>
<path d="M421.596 24.531C422.053 24.531 422.383 23.4125 422.759 23.1377V23.1417C422.986 23.04 423.236 22.9987 423.483 23.0221C423.694 23.0058 423.906 23.0379 424.102 23.1159C424.147 23.1595 424.222 23.1898 424.222 23.2729C424.209 23.5287 424.134 23.7775 424.003 23.9976C423.671 24.7097 422.984 24.9162 422.267 25.1098C421.955 25.138 421.649 25.216 421.361 25.3406C421.3 25.3694 421.252 25.4183 421.223 25.4789C421.194 25.5395 421.188 25.6081 421.204 25.6731C421.204 25.9918 421.604 26.5289 421.955 26.5289C422.51 26.5154 423.056 26.3823 423.555 26.1387C424.054 25.895 424.494 25.5466 424.846 25.1172C425.051 24.8661 425.222 24.5888 425.353 24.2927C425.6 23.669 425.717 23.0012 425.696 22.3306C425.696 22.0691 425.29 21.1309 424.995 21.1309C424.839 21.1309 424.538 21.2616 424.538 21.443C424.538 21.5682 424.695 21.6871 424.695 21.843C424.695 21.9365 424.464 21.9427 424.399 21.9427C424.334 21.9427 424.262 21.9365 424.193 21.9365C424.082 21.9365 423.962 21.9427 423.85 21.9427C423.724 21.9427 423.099 21.9494 423.099 21.7754C423.099 21.7137 423.118 21.6561 423.118 21.5941C423.118 21.4005 422.812 21.3695 422.669 21.3695C422.355 21.3695 422.037 21.3252 421.856 21.6373C421.792 21.7659 421.74 21.8997 421.699 22.0373C421.523 22.5038 421.279 22.9418 420.975 23.3375C420.864 23.4878 420.656 23.7132 420.656 23.9067C420.656 24.1191 421.399 24.5313 421.593 24.5313" fill="#199CA2"/>
</g>
<defs>
<filter id="filter0_d_1705_286" x="448.698" y="2.66797" width="37.0132" height="69.8145" filterUnits="userSpaceOnUse" color-interpolation-filters="sRGB">
<feFlood flood-opacity="0" result="BackgroundImageFix"/>
<feColorMatrix in="SourceAlpha" type="matrix" values="0 0 0 0 0 0 0 0 0 0 0 0 0 0 0 0 0 0 127 0" result="hardAlpha"/>
<feOffset dx="5" dy="5"/>
<feColorMatrix type="matrix" values="0 0 0 0 0 0 0 0 0 0 0 0 0 0 0 0 0 0 0.25 0"/>
<feBlend mode="normal" in2="BackgroundImageFix" result="effect1_dropShadow_1705_286"/>
<feBlend mode="normal" in="SourceGraphic" in2="effect1_dropShadow_1705_286" result="shape"/>
</filter>
<filter id="filter1_d_1705_286" x="478.561" y="4.61328" width="76.439" height="65.9258" filterUnits="userSpaceOnUse" color-interpolation-filters="sRGB">
<feFlood flood-opacity="0" result="BackgroundImageFix"/>
<feColorMatrix in="SourceAlpha" type="matrix" values="0 0 0 0 0 0 0 0 0 0 0 0 0 0 0 0 0 0 127 0" result="hardAlpha"/>
<feOffset dx="5" dy="5"/>
<feColorMatrix type="matrix" values="0 0 0 0 0 0 0 0 0 0 0 0 0 0 0 0 0 0 0.25 0"/>
<feBlend mode="normal" in2="BackgroundImageFix" result="effect1_dropShadow_1705_286"/>
<feBlend mode="normal" in="SourceGraphic" in2="effect1_dropShadow_1705_286" result="shape"/>
</filter>
<filter id="filter2_d_1705_286" x="5.90527" y="1.32617" width="457.864" height="72.9043" filterUnits="userSpaceOnUse" color-interpolation-filters="sRGB">
<feFlood flood-opacity="0" result="BackgroundImageFix"/>
<feColorMatrix in="SourceAlpha" type="matrix" values="0 0 0 0 0 0 0 0 0 0 0 0 0 0 0 0 0 0 127 0" result="hardAlpha"/>
<feOffset dx="5" dy="5"/>
<feColorMatrix type="matrix" values="0 0 0 0 0 0 0 0 0 0 0 0 0 0 0 0 0 0 0.25 0"/>
<feBlend mode="normal" in2="BackgroundImageFix" result="effect1_dropShadow_1705_286"/>
<feBlend mode="normal" in="SourceGraphic" in2="effect1_dropShadow_1705_286" result="shape"/>
</filter>
</defs>
</svg>
