<svg width="550" height="72" viewBox="0 0 550 72" fill="none" xmlns="http://www.w3.org/2000/svg">
<g clip-path="url(#clip0_1618_135)">
<g filter="url(#filter0_d_1618_135)">
<path d="M444.246 67.1143V2.65234L476.085 4.91834V64.8493L444.246 67.1143Z" fill="#954E2A"/>
</g>
<path d="M444.25 60.4565V9.31348L476.089 11.1135V58.6635L444.25 60.4565Z" fill="#9A5634"/>
<path d="M444.25 54.0887V15.6787L476.089 17.0287V52.7387L444.25 54.0887Z" fill="#954E2A"/>
<path d="M444.25 46.3838V23.3838L476.089 24.1928V45.5728L444.25 46.3838Z" fill="#9A5634"/>
<path d="M444.25 39.8243V29.9443L476.089 30.2913V39.4773L444.25 39.8243Z" fill="#954E2A"/>
<g filter="url(#filter1_d_1618_135)">
<path d="M484.534 65.1103H484.558C484.6 65.1103 484.644 65.1102 484.69 65.1042C484.845 65.1042 484.999 65.0933 485.15 65.0803C485.224 65.0753 485.298 65.0653 485.371 65.0583L485.537 65.0372C486.025 64.9773 486.503 64.854 486.959 64.6702C488.174 64.1867 489.217 63.3509 489.954 62.2702C494.104 56.3702 492.872 43.1883 503.037 43.2363C517.588 44.0803 535.514 45.1472 538.037 45.2952L538.184 45.3102H538.34C538.97 45.3361 539.598 45.2272 540.183 44.9908C540.768 44.7543 541.295 44.3958 541.73 43.9393C543.724 41.7017 544.878 38.8409 544.995 35.8463C544.995 35.6583 544.995 35.4693 544.995 35.2813C544.989 35.1493 544.978 35.0153 544.97 34.8813C544.979 34.7483 544.989 34.6163 544.995 34.4813C544.995 34.2933 545 34.1033 544.995 33.9173C544.878 30.9226 543.724 28.0618 541.73 25.8243C541.295 25.3677 540.768 25.0092 540.183 24.7726C539.598 24.536 538.97 24.4268 538.34 24.4523L538.184 24.4583C538.184 24.4583 538.13 24.4583 538.037 24.4713C535.516 24.6213 517.59 25.6873 503.037 26.5293C492.872 26.5773 494.104 13.3953 489.954 7.49625C489.218 6.41519 488.175 5.57931 486.959 5.09625C486.503 4.91219 486.025 4.78848 485.537 4.72825L485.371 4.70825C485.298 4.70025 485.224 4.69225 485.15 4.68625C484.999 4.67325 484.844 4.66525 484.69 4.66225C484.643 4.66225 484.6 4.65625 484.558 4.65625H484.534C484.534 4.65625 473.948 4.56325 473.948 4.58825V65.1793C473.948 65.2033 484.533 65.1103 484.534 65.1103ZM527.358 34.8873C527.358 33.3353 529.863 32.0793 532.952 32.0793C536.041 32.0793 538.545 33.3353 538.547 34.8873C538.549 36.4393 536.042 37.6963 532.952 37.6963C529.862 37.6963 527.36 36.4393 527.358 34.8873Z" fill="#D18F2A"/>
</g>
<path d="M483.176 4.58594H473.662V65.1819H483.176V4.58594Z" fill="#EBECEC"/>
<g filter="url(#filter2_d_1618_135)">
<path d="M450.562 57.2939C448.05 55.1389 446.669 51.0539 447.97 47.9939C448.642 46.4129 450.386 44.9249 450.295 43.0999C450.215 41.5119 448.563 40.7439 448.262 39.2629C447.912 37.5319 449.033 35.6899 449.276 34.0029C450.276 27.0329 449.009 19.9649 448.392 13.0259C448.513 12.5499 448.64 12.0929 448.781 11.6679C449.687 8.91893 456.074 5.81593 453.475 2.85793C451.96 1.13193 446.811 1.24393 444.788 1.41493C443.275 1.54293 441.794 1.62093 440.288 1.71493H3.867V67.8029H421.815C425.215 68.0499 428.65 68.3629 432.086 68.5839C438.459 68.9939 444.821 69.0839 450.886 67.8099C456.559 66.6229 454.127 60.3469 450.562 57.2939Z" fill="#417DE3"/>
</g>
<g opacity="0.5">
<mask id="mask0_1618_135" style="mask-type:luminance" maskUnits="userSpaceOnUse" x="441" y="2" width="10" height="26">
<path d="M450.514 2.14355H441.818V27.8006H450.514V2.14355Z" fill="white"/>
</mask>
<g mask="url(#mask0_1618_135)">
<path d="M445.397 3.26776C445.905 2.96153 446.456 2.73205 447.031 2.58676C450.379 1.71576 451.449 1.90876 449.647 5.18676C447.493 9.10576 445.512 8.04876 445.831 16.0028C446.06 21.7238 446.149 26.5028 444.558 27.7728C443.716 28.4438 441.991 17.4288 441.958 16.7568C441.72 12.5828 441.332 5.74276 445.402 3.26976" fill="white"/>
</g>
</g>
<g style="mix-blend-mode:multiply">
<mask id="mask1_1618_135" style="mask-type:luminance" maskUnits="userSpaceOnUse" x="417" y="17" width="11" height="49">
<path d="M427.9 17.5996H417.497V65.4166H427.9V17.5996Z" fill="white"/>
</mask>
<g mask="url(#mask1_1618_135)">
<path d="M422.925 34.8135C422.925 34.8135 422.608 46.2665 424.196 53.5825C425.784 60.8985 430.882 65.1355 425.471 65.3525C417.518 65.6715 416.88 65.3525 417.834 50.7195C418.788 36.0865 419.425 30.9975 419.108 25.5885C418.414 13.8035 423.369 15.8515 422.608 26.5425C422.289 30.9965 423.561 29.4075 422.925 34.8135Z" fill="#F7F8F8"/>
</g>
</g>
<g opacity="0.4">
<mask id="mask2_1618_135" style="mask-type:luminance" maskUnits="userSpaceOnUse" x="442" y="58" width="11" height="10">
<path d="M452.045 58.2461H442.898V67.2471H452.045V58.2461Z" fill="white"/>
</mask>
<g mask="url(#mask2_1618_135)">
<path d="M449.257 59.2382C449.257 59.2382 454.357 64.3382 450.757 65.5382C447.157 66.7382 443.557 68.8382 442.957 65.2382C442.357 61.6382 446.557 55.9382 449.257 59.2382Z" fill="white"/>
</g>
</g>
<path d="M215.792 30.0557C214.923 30.0557 214.151 30.2266 213.478 30.5684C212.813 30.9004 212.252 31.3838 211.793 32.0186C211.344 32.6533 211.002 33.4199 210.768 34.3184C210.533 35.2168 210.416 36.2275 210.416 37.3506C210.416 38.8643 210.602 40.1582 210.973 41.2324C211.354 42.2969 211.939 43.1123 212.73 43.6787C213.521 44.2354 214.542 44.5137 215.792 44.5137C216.661 44.5137 217.53 44.416 218.399 44.2207C219.278 44.0254 220.23 43.7471 221.256 43.3857V47.1943C220.309 47.585 219.376 47.8633 218.458 48.0293C217.54 48.2051 216.51 48.293 215.367 48.293C213.16 48.293 211.344 47.8389 209.918 46.9307C208.502 46.0127 207.452 44.7334 206.769 43.0928C206.085 41.4424 205.743 39.5186 205.743 37.3213C205.743 35.7002 205.963 34.2158 206.402 32.8682C206.842 31.5205 207.486 30.3535 208.336 29.3672C209.186 28.3809 210.235 27.6191 211.485 27.082C212.735 26.5449 214.171 26.2764 215.792 26.2764C216.856 26.2764 217.921 26.4131 218.985 26.6865C220.06 26.9502 221.085 27.3164 222.062 27.7852L220.597 31.4766C219.796 31.0957 218.99 30.7637 218.18 30.4805C217.369 30.1973 216.573 30.0557 215.792 30.0557ZM245.265 37.2627C245.265 38.9131 245.06 40.417 244.649 41.7744C244.239 43.1221 243.614 44.2842 242.774 45.2607C241.944 46.2373 240.89 46.9893 239.61 47.5166C238.331 48.0342 236.817 48.293 235.069 48.293C233.321 48.293 231.808 48.0342 230.528 47.5166C229.249 46.9893 228.189 46.2373 227.35 45.2607C226.52 44.2842 225.899 43.1172 225.489 41.7598C225.079 40.4023 224.874 38.8936 224.874 37.2334C224.874 35.0166 225.235 33.0879 225.958 31.4473C226.69 29.7969 227.813 28.5176 229.327 27.6094C230.841 26.7012 232.765 26.2471 235.099 26.2471C237.423 26.2471 239.332 26.7012 240.826 27.6094C242.33 28.5176 243.443 29.7969 244.166 31.4473C244.898 33.0977 245.265 35.0361 245.265 37.2627ZM229.635 37.2627C229.635 38.7568 229.82 40.0459 230.191 41.1299C230.572 42.2041 231.163 43.0342 231.964 43.6201C232.765 44.1963 233.8 44.4844 235.069 44.4844C236.358 44.4844 237.403 44.1963 238.204 43.6201C239.005 43.0342 239.586 42.2041 239.947 41.1299C240.318 40.0459 240.504 38.7568 240.504 37.2627C240.504 35.0166 240.084 33.249 239.244 31.96C238.404 30.6709 237.022 30.0264 235.099 30.0264C233.819 30.0264 232.774 30.3193 231.964 30.9053C231.163 31.4814 230.572 32.3115 230.191 33.3955C229.82 34.4697 229.635 35.7588 229.635 37.2627ZM258.771 48L253.614 31.1982H253.482C253.502 31.5986 253.531 32.2041 253.57 33.0146C253.619 33.8154 253.663 34.6699 253.702 35.5781C253.741 36.4863 253.761 37.3066 253.761 38.0391V48H249.703V26.584H255.885L260.953 42.9609H261.041L266.417 26.584H272.599V48H268.365V37.8633C268.365 37.1895 268.375 36.4131 268.395 35.5342C268.424 34.6553 268.458 33.8203 268.497 33.0293C268.536 32.2285 268.565 31.6279 268.585 31.2275H268.453L262.931 48H258.771ZM278.004 48V26.584H282.545V48H278.004ZM306.935 48H301.163L291.847 31.7988H291.715C291.754 32.4727 291.788 33.1514 291.817 33.835C291.847 34.5186 291.876 35.2021 291.905 35.8857C291.935 36.5596 291.964 37.2383 291.993 37.9219V48H287.936V26.584H293.663L302.965 42.624H303.067C303.048 41.96 303.023 41.3008 302.994 40.6465C302.965 39.9922 302.936 39.3379 302.906 38.6836C302.887 38.0293 302.867 37.375 302.848 36.7207V26.584H306.935V48ZM320.47 35.9736H328.966V47.0771C327.843 47.4482 326.676 47.7461 325.465 47.9707C324.254 48.1855 322.882 48.293 321.349 48.293C319.22 48.293 317.413 47.873 315.929 47.0332C314.444 46.1934 313.316 44.9531 312.545 43.3125C311.773 41.6719 311.388 39.6553 311.388 37.2627C311.388 35.0166 311.817 33.0732 312.677 31.4326C313.546 29.792 314.811 28.5225 316.471 27.624C318.141 26.7256 320.177 26.2764 322.579 26.2764C323.712 26.2764 324.83 26.3984 325.934 26.6426C327.037 26.8867 328.038 27.2041 328.937 27.5947L327.428 31.2275C326.773 30.8955 326.026 30.6172 325.187 30.3926C324.347 30.168 323.468 30.0557 322.55 30.0557C321.231 30.0557 320.084 30.3584 319.107 30.9639C318.141 31.5693 317.389 32.4189 316.852 33.5127C316.324 34.5967 316.061 35.876 316.061 37.3506C316.061 38.7471 316.251 39.9873 316.632 41.0713C317.013 42.1455 317.613 42.9902 318.434 43.6055C319.254 44.2109 320.323 44.5137 321.642 44.5137C322.286 44.5137 322.828 44.4844 323.268 44.4258C323.717 44.3574 324.137 44.2891 324.527 44.2207V39.7529H320.47V35.9736ZM354.513 42.0527C354.513 43.3223 354.205 44.4258 353.59 45.3633C352.975 46.3008 352.076 47.0234 350.895 47.5312C349.723 48.0391 348.297 48.293 346.617 48.293C345.875 48.293 345.147 48.2441 344.435 48.1465C343.731 48.0488 343.053 47.9072 342.398 47.7217C341.754 47.5264 341.139 47.2871 340.553 47.0039V42.7852C341.568 43.2344 342.623 43.6396 343.717 44.001C344.811 44.3623 345.895 44.543 346.969 44.543C347.711 44.543 348.307 44.4453 348.756 44.25C349.215 44.0547 349.547 43.7861 349.752 43.4443C349.957 43.1025 350.06 42.7119 350.06 42.2725C350.06 41.7354 349.879 41.2764 349.518 40.8955C349.156 40.5146 348.658 40.1582 348.023 39.8262C347.398 39.4941 346.69 39.1377 345.899 38.7568C345.401 38.5225 344.859 38.2393 344.273 37.9072C343.688 37.5654 343.131 37.1504 342.604 36.6621C342.076 36.1738 341.642 35.583 341.3 34.8896C340.968 34.1865 340.802 33.3467 340.802 32.3701C340.802 31.0908 341.095 29.9971 341.681 29.0889C342.267 28.1807 343.102 27.4873 344.186 27.0088C345.279 26.5205 346.568 26.2764 348.053 26.2764C349.166 26.2764 350.226 26.4082 351.231 26.6719C352.247 26.9258 353.307 27.2969 354.41 27.7852L352.945 31.3154C351.959 30.915 351.075 30.6074 350.294 30.3926C349.513 30.168 348.717 30.0557 347.906 30.0557C347.34 30.0557 346.856 30.1484 346.456 30.334C346.056 30.5098 345.753 30.7637 345.548 31.0957C345.343 31.418 345.24 31.7939 345.24 32.2236C345.24 32.7314 345.387 33.1611 345.68 33.5127C345.982 33.8545 346.432 34.1865 347.027 34.5088C347.633 34.8311 348.385 35.207 349.283 35.6367C350.377 36.1543 351.31 36.6963 352.081 37.2627C352.862 37.8193 353.463 38.4785 353.883 39.2402C354.303 39.9922 354.513 40.9297 354.513 42.0527ZM377.833 37.2627C377.833 38.9131 377.628 40.417 377.218 41.7744C376.808 43.1221 376.183 44.2842 375.343 45.2607C374.513 46.2373 373.458 46.9893 372.179 47.5166C370.899 48.0342 369.386 48.293 367.638 48.293C365.89 48.293 364.376 48.0342 363.097 47.5166C361.817 46.9893 360.758 46.2373 359.918 45.2607C359.088 44.2842 358.468 43.1172 358.058 41.7598C357.647 40.4023 357.442 38.8936 357.442 37.2334C357.442 35.0166 357.804 33.0879 358.526 31.4473C359.259 29.7969 360.382 28.5176 361.896 27.6094C363.409 26.7012 365.333 26.2471 367.667 26.2471C369.991 26.2471 371.9 26.7012 373.395 27.6094C374.898 28.5176 376.012 29.7969 376.734 31.4473C377.467 33.0977 377.833 35.0361 377.833 37.2627ZM362.203 37.2627C362.203 38.7568 362.389 40.0459 362.76 41.1299C363.141 42.2041 363.731 43.0342 364.532 43.6201C365.333 44.1963 366.368 44.4844 367.638 44.4844C368.927 44.4844 369.972 44.1963 370.772 43.6201C371.573 43.0342 372.154 42.2041 372.516 41.1299C372.887 40.0459 373.072 38.7568 373.072 37.2627C373.072 35.0166 372.652 33.249 371.812 31.96C370.973 30.6709 369.591 30.0264 367.667 30.0264C366.388 30.0264 365.343 30.3193 364.532 30.9053C363.731 31.4814 363.141 32.3115 362.76 33.3955C362.389 34.4697 362.203 35.7588 362.203 37.2627ZM401.71 37.2627C401.71 38.9131 401.505 40.417 401.095 41.7744C400.685 43.1221 400.06 44.2842 399.22 45.2607C398.39 46.2373 397.335 46.9893 396.056 47.5166C394.776 48.0342 393.263 48.293 391.515 48.293C389.767 48.293 388.253 48.0342 386.974 47.5166C385.694 46.9893 384.635 46.2373 383.795 45.2607C382.965 44.2842 382.345 43.1172 381.935 41.7598C381.524 40.4023 381.319 38.8936 381.319 37.2334C381.319 35.0166 381.681 33.0879 382.403 31.4473C383.136 29.7969 384.259 28.5176 385.772 27.6094C387.286 26.7012 389.21 26.2471 391.544 26.2471C393.868 26.2471 395.777 26.7012 397.271 27.6094C398.775 28.5176 399.889 29.7969 400.611 31.4473C401.344 33.0977 401.71 35.0361 401.71 37.2627ZM386.08 37.2627C386.08 38.7568 386.266 40.0459 386.637 41.1299C387.018 42.2041 387.608 43.0342 388.409 43.6201C389.21 44.1963 390.245 44.4844 391.515 44.4844C392.804 44.4844 393.849 44.1963 394.649 43.6201C395.45 43.0342 396.031 42.2041 396.393 41.1299C396.764 40.0459 396.949 38.7568 396.949 37.2627C396.949 35.0166 396.529 33.249 395.689 31.96C394.85 30.6709 393.468 30.0264 391.544 30.0264C390.265 30.0264 389.22 30.3193 388.409 30.9053C387.608 31.4814 387.018 32.3115 386.637 33.3955C386.266 34.4697 386.08 35.7588 386.08 37.2627ZM425.147 48H419.376L410.06 31.7988H409.928C409.967 32.4727 410.001 33.1514 410.03 33.835C410.06 34.5186 410.089 35.2021 410.118 35.8857C410.147 36.5596 410.177 37.2383 410.206 37.9219V48H406.148V26.584H411.876L421.178 42.624H421.28C421.261 41.96 421.236 41.3008 421.207 40.6465C421.178 39.9922 421.148 39.3379 421.119 38.6836C421.1 38.0293 421.08 37.375 421.061 36.7207V26.584H425.147V48Z" fill="white"/>
</g>
<defs>
<filter id="filter0_d_1618_135" x="444.246" y="2.65234" width="34.839" height="67.4619" filterUnits="userSpaceOnUse" color-interpolation-filters="sRGB">
<feFlood flood-opacity="0" result="BackgroundImageFix"/>
<feColorMatrix in="SourceAlpha" type="matrix" values="0 0 0 0 0 0 0 0 0 0 0 0 0 0 0 0 0 0 127 0" result="hardAlpha"/>
<feOffset dx="3" dy="3"/>
<feColorMatrix type="matrix" values="0 0 0 0 0 0 0 0 0 0 0 0 0 0 0 0 0 0 0.25 0"/>
<feBlend mode="normal" in2="BackgroundImageFix" result="effect1_dropShadow_1618_135"/>
<feBlend mode="normal" in="SourceGraphic" in2="effect1_dropShadow_1618_135" result="shape"/>
</filter>
<filter id="filter1_d_1618_135" x="473.948" y="4.58398" width="74.0492" height="63.5996" filterUnits="userSpaceOnUse" color-interpolation-filters="sRGB">
<feFlood flood-opacity="0" result="BackgroundImageFix"/>
<feColorMatrix in="SourceAlpha" type="matrix" values="0 0 0 0 0 0 0 0 0 0 0 0 0 0 0 0 0 0 127 0" result="hardAlpha"/>
<feOffset dx="3" dy="3"/>
<feColorMatrix type="matrix" values="0 0 0 0 0 0 0 0 0 0 0 0 0 0 0 0 0 0 0.25 0"/>
<feBlend mode="normal" in2="BackgroundImageFix" result="effect1_dropShadow_1618_135"/>
<feBlend mode="normal" in="SourceGraphic" in2="effect1_dropShadow_1618_135" result="shape"/>
</filter>
<filter id="filter2_d_1618_135" x="3.867" y="1.32422" width="453.396" height="70.5312" filterUnits="userSpaceOnUse" color-interpolation-filters="sRGB">
<feFlood flood-opacity="0" result="BackgroundImageFix"/>
<feColorMatrix in="SourceAlpha" type="matrix" values="0 0 0 0 0 0 0 0 0 0 0 0 0 0 0 0 0 0 127 0" result="hardAlpha"/>
<feOffset dx="3" dy="3"/>
<feColorMatrix type="matrix" values="0 0 0 0 0 0 0 0 0 0 0 0 0 0 0 0 0 0 0.25 0"/>
<feBlend mode="normal" in2="BackgroundImageFix" result="effect1_dropShadow_1618_135"/>
<feBlend mode="normal" in="SourceGraphic" in2="effect1_dropShadow_1618_135" result="shape"/>
</filter>
<clipPath id="clip0_1618_135">
<rect width="550" height="71.852" fill="white"/>
</clipPath>
</defs>
</svg>
