<svg width="1494" height="193" viewBox="0 0 1494 193" fill="none" xmlns="http://www.w3.org/2000/svg">
<g clip-path="url(#clip0_1615_164)">
<g filter="url(#filter0_d_1615_164)">
<path d="M1172.88 182.693V7.22168L1271.84 13.3887V176.529L1172.88 182.693Z" fill="#954E2A"/>
</g>
<path d="M1172.88 164.565V25.3496L1271.84 30.2436V159.676L1172.88 164.565Z" fill="#9A5634"/>
<path d="M1172.88 147.237V42.6807L1271.84 46.3547V143.561L1172.88 147.237Z" fill="#954E2A"/>
<path d="M1172.88 126.263V63.6572L1271.84 65.8572V124.057L1172.88 126.263Z" fill="#9A5634"/>
<path d="M1172.88 108.406V81.5098L1271.84 82.4548V107.461L1172.88 108.406Z" fill="#954E2A"/>
<g filter="url(#filter1_d_1615_164)">
<path d="M1298.09 177.231C1298.12 177.231 1298.13 177.226 1298.17 177.226C1298.3 177.226 1298.43 177.219 1298.58 177.21C1299.06 177.203 1299.54 177.181 1300.01 177.146C1300.24 177.132 1300.46 177.106 1300.69 177.085C1300.87 177.064 1301.04 177.05 1301.21 177.029C1302.72 176.866 1304.21 176.529 1305.63 176.029C1309.4 174.716 1312.64 172.444 1314.94 169.507C1327.84 153.451 1324 117.563 1355.6 117.695C1400.82 119.995 1456.52 122.895 1464.36 123.295C1464.65 123.321 1464.81 123.337 1464.82 123.337C1465.13 123.337 1465.3 123.346 1465.31 123.346C1467.26 123.416 1469.22 123.12 1471.03 122.476C1472.85 121.833 1474.49 120.857 1475.84 119.614C1482.04 113.523 1485.62 105.736 1485.99 97.5839V97.5769C1486 97.0659 1486 96.5509 1485.99 96.0399C1485.97 95.6809 1485.94 95.3169 1485.91 94.9559C1485.94 94.5949 1485.97 94.2349 1485.99 93.8729C1486 93.3599 1486.01 92.8449 1485.99 92.3369V92.3289C1485.62 84.1772 1482.04 76.3902 1475.84 70.2999C1474.49 69.0571 1472.85 68.0812 1471.03 67.4371C1469.21 66.793 1467.26 66.4957 1465.3 66.5649L1464.82 66.5819C1464.81 66.5819 1464.65 66.5879 1464.36 66.6169C1456.53 67.0249 1400.82 69.9259 1355.59 72.2169C1324 72.3479 1327.83 36.4639 1314.93 20.4059C1312.64 17.4681 1309.4 15.1975 1305.63 13.8859C1304.21 13.3854 1302.72 13.0492 1301.21 12.8859L1300.69 12.8319C1300.46 12.8109 1300.23 12.7879 1300.01 12.7709C1299.54 12.7359 1299.06 12.7129 1298.58 12.7059C1298.43 12.6989 1298.29 12.6889 1298.16 12.6889C1298.13 12.6889 1298.11 12.6839 1298.09 12.6839C1298.09 12.6839 1265.19 12.4319 1265.19 12.4999V177.42C1265.19 177.486 1298.09 177.231 1298.09 177.231M1431.18 94.9599C1431.19 90.7359 1438.97 87.3159 1448.57 87.3159C1458.16 87.3159 1465.95 90.7359 1465.95 94.9599C1465.96 99.1839 1458.17 102.607 1448.57 102.607C1438.96 102.607 1431.19 99.1839 1431.18 94.9599Z" fill="#D18F2A"/>
</g>
<path d="M1293.86 12.4844H1264.29V177.432H1293.86V12.4844Z" fill="#EBECEC"/>
<g filter="url(#filter2_d_1615_164)">
<path d="M1192.51 155.673C1184.7 149.832 1180.41 138.765 1184.46 130.465C1186.54 126.184 1191.96 122.149 1191.68 117.203C1191.43 112.9 1186.3 110.818 1185.36 106.807C1184.27 102.117 1187.76 97.1247 1188.51 92.5526C1191.61 73.6647 1187.68 54.5121 1185.77 35.7118C1186.14 34.4227 1186.54 33.1833 1186.98 32.0286C1189.79 24.5806 1209.63 16.1699 1201.56 8.15648C1196.85 3.47782 1180.85 3.78243 1174.57 4.24631C1169.87 4.59373 1165.27 4.80576 1160.58 5.06856H-195V184.152H1103.21C1113.77 184.822 1124.44 185.669 1135.12 186.267C1154.91 187.378 1174.68 187.609 1193.51 184.171C1211.13 180.953 1203.58 163.949 1192.51 155.676" fill="#417DE3"/>
</g>
<g opacity="0.5">
<mask id="mask0_1615_164" style="mask-type:luminance" maskUnits="userSpaceOnUse" x="1165" y="5" width="28" height="71">
<path d="M1192.35 5.83496H1165.33V75.677H1192.35V5.83496Z" fill="white"/>
</mask>
<g mask="url(#mask0_1615_164)">
<path d="M1176.45 8.8999C1178.03 8.066 1179.74 7.44092 1181.53 7.0449C1191.93 4.6749 1195.26 5.1999 1189.66 14.1179C1182.96 24.7859 1176.8 21.9089 1177.8 43.5609C1178.51 59.1329 1178.79 72.1359 1173.84 75.6009C1171.22 77.4269 1165.86 47.4439 1165.75 45.6129C1165.01 34.2519 1163.8 15.6329 1176.45 8.8999Z" fill="white"/>
</g>
</g>
<g style="mix-blend-mode:multiply">
<mask id="mask1_1615_164" style="mask-type:luminance" maskUnits="userSpaceOnUse" x="1089" y="47" width="34" height="132">
<path d="M1122.07 47.9102H1089.74V178.072H1122.07V47.9102Z" fill="white"/>
</mask>
<g mask="url(#mask1_1615_164)">
<path d="M1106.61 94.7668C1106.61 94.7668 1105.62 125.944 1110.56 145.858C1115.5 165.772 1131.34 177.307 1114.53 177.898C1089.81 178.765 1087.83 177.898 1090.79 138.065C1093.76 98.2318 1095.73 84.3788 1094.75 69.6568C1092.59 37.5768 1107.99 43.1508 1105.62 72.2568C1104.63 84.3818 1108.59 80.0568 1106.61 94.7698" fill="#F7F8F8"/>
</g>
</g>
<g opacity="0.4">
<mask id="mask2_1615_164" style="mask-type:luminance" maskUnits="userSpaceOnUse" x="1168" y="158" width="30" height="26">
<path d="M1197.11 158.552H1168.69V183.053H1197.11V158.552Z" fill="white"/>
</mask>
<g mask="url(#mask2_1615_164)">
<path d="M1188.45 161.252C1188.45 161.252 1204.3 175.136 1193.11 178.401C1181.93 181.666 1170.74 187.387 1168.86 177.584C1166.99 167.781 1180.05 152.265 1188.45 161.252Z" fill="white"/>
</g>
</g>
<path d="M591.48 72.1392C589.307 72.1392 587.378 72.5664 585.694 73.4209C584.034 74.251 582.63 75.4595 581.482 77.0464C580.359 78.6333 579.505 80.5498 578.919 82.7959C578.333 85.042 578.04 87.5688 578.04 90.3765C578.04 94.1606 578.504 97.3955 579.432 100.081C580.384 102.742 581.849 104.781 583.826 106.197C585.804 107.588 588.355 108.284 591.48 108.284C593.653 108.284 595.826 108.04 597.999 107.552C600.196 107.063 602.576 106.368 605.14 105.464V114.986C602.771 115.962 600.44 116.658 598.145 117.073C595.85 117.513 593.274 117.732 590.418 117.732C584.9 117.732 580.359 116.597 576.795 114.327C573.255 112.032 570.63 108.833 568.921 104.732C567.212 100.606 566.358 95.7964 566.358 90.3032C566.358 86.2505 566.907 82.5396 568.006 79.1704C569.104 75.8013 570.716 72.8838 572.84 70.418C574.964 67.9521 577.588 66.0479 580.713 64.7051C583.838 63.3623 587.427 62.6909 591.48 62.6909C594.141 62.6909 596.802 63.0327 599.463 63.7163C602.149 64.3755 604.712 65.291 607.154 66.4629L603.492 75.6914C601.49 74.7393 599.476 73.9092 597.449 73.2012C595.423 72.4932 593.433 72.1392 591.48 72.1392ZM665.162 90.1567C665.162 94.2827 664.649 98.0425 663.624 101.436C662.598 104.805 661.036 107.71 658.936 110.152C656.861 112.593 654.224 114.473 651.026 115.792C647.828 117.085 644.043 117.732 639.673 117.732C635.303 117.732 631.519 117.085 628.321 115.792C625.123 114.473 622.474 112.593 620.374 110.152C618.299 107.71 616.749 104.793 615.723 101.399C614.698 98.0059 614.185 94.2339 614.185 90.0835C614.185 84.5415 615.088 79.7197 616.895 75.6182C618.726 71.4922 621.534 68.2939 625.318 66.0234C629.102 63.7529 633.912 62.6177 639.747 62.6177C645.557 62.6177 650.33 63.7529 654.065 66.0234C657.825 68.2939 660.608 71.4922 662.415 75.6182C664.246 79.7441 665.162 84.5903 665.162 90.1567ZM626.087 90.1567C626.087 93.8921 626.551 97.1147 627.479 99.8247C628.431 102.51 629.908 104.585 631.91 106.05C633.912 107.491 636.5 108.211 639.673 108.211C642.896 108.211 645.508 107.491 647.51 106.05C649.512 104.585 650.965 102.51 651.868 99.8247C652.796 97.1147 653.26 93.8921 653.26 90.1567C653.26 84.5415 652.21 80.1226 650.11 76.8999C648.011 73.6772 644.556 72.0659 639.747 72.0659C636.548 72.0659 633.936 72.7983 631.91 74.2632C629.908 75.7036 628.431 77.7788 627.479 80.4888C626.551 83.1743 626.087 86.397 626.087 90.1567ZM698.926 117L686.036 74.9956H685.706C685.755 75.9966 685.828 77.5103 685.926 79.5366C686.048 81.5386 686.158 83.6748 686.255 85.9453C686.353 88.2158 686.402 90.2666 686.402 92.0977V117H676.258V63.46H691.712L704.383 104.402H704.603L718.042 63.46H733.497V117H722.913V91.6582C722.913 89.9736 722.938 88.0327 722.986 85.8354C723.06 83.6382 723.145 81.5508 723.243 79.5732C723.34 77.5713 723.414 76.0698 723.462 75.0688H723.133L709.327 117H698.926ZM747.01 117V63.46H758.362V117H747.01ZM819.336 117H804.908L781.617 76.4971H781.287C781.385 78.1816 781.47 79.8784 781.543 81.5874C781.617 83.2964 781.69 85.0054 781.763 86.7144C781.836 88.3989 781.91 90.0957 781.983 91.8047V117H771.839V63.46H786.158L809.412 103.56H809.668C809.62 101.9 809.559 100.252 809.485 98.6162C809.412 96.9805 809.339 95.3447 809.266 93.709C809.217 92.0732 809.168 90.4375 809.119 88.8018V63.46H819.336V117ZM853.174 86.9341H874.415V114.693C871.607 115.621 868.689 116.365 865.662 116.927C862.635 117.464 859.205 117.732 855.372 117.732C850.049 117.732 845.533 116.683 841.822 114.583C838.111 112.483 835.291 109.383 833.362 105.281C831.434 101.18 830.469 96.1382 830.469 90.1567C830.469 84.5415 831.543 79.6831 833.692 75.5815C835.865 71.48 839.026 68.3062 843.177 66.0601C847.352 63.814 852.442 62.6909 858.448 62.6909C861.28 62.6909 864.075 62.9961 866.834 63.6064C869.593 64.2168 872.095 65.0103 874.341 65.9868L870.569 75.0688C868.934 74.2388 867.066 73.543 864.966 72.9814C862.867 72.4199 860.669 72.1392 858.375 72.1392C855.079 72.1392 852.21 72.896 849.769 74.4097C847.352 75.9233 845.472 78.0474 844.129 80.7817C842.811 83.4917 842.151 86.6899 842.151 90.3765C842.151 93.8677 842.627 96.9683 843.58 99.6782C844.532 102.364 846.033 104.476 848.084 106.014C850.135 107.527 852.808 108.284 856.104 108.284C857.715 108.284 859.07 108.211 860.169 108.064C861.292 107.894 862.342 107.723 863.318 107.552V96.3823H853.174V86.9341ZM938.282 102.132C938.282 105.306 937.513 108.064 935.975 110.408C934.437 112.752 932.19 114.559 929.236 115.828C926.307 117.098 922.742 117.732 918.543 117.732C916.688 117.732 914.869 117.61 913.086 117.366C911.329 117.122 909.632 116.768 907.996 116.304C906.385 115.816 904.847 115.218 903.382 114.51V103.963C905.921 105.086 908.558 106.099 911.292 107.002C914.026 107.906 916.736 108.357 919.422 108.357C921.277 108.357 922.767 108.113 923.89 107.625C925.037 107.137 925.867 106.465 926.38 105.611C926.893 104.756 927.149 103.78 927.149 102.681C927.149 101.338 926.697 100.191 925.794 99.2388C924.891 98.2866 923.646 97.3955 922.059 96.5654C920.496 95.7354 918.726 94.8442 916.749 93.8921C915.503 93.3062 914.148 92.5981 912.684 91.7681C911.219 90.9136 909.827 89.876 908.509 88.6553C907.19 87.4346 906.104 85.9575 905.25 84.2241C904.419 82.4663 904.004 80.3667 904.004 77.9253C904.004 74.7271 904.737 71.9927 906.202 69.7222C907.667 67.4517 909.754 65.7183 912.464 64.522C915.198 63.3013 918.421 62.6909 922.132 62.6909C924.915 62.6909 927.564 63.0205 930.079 63.6797C932.618 64.3145 935.267 65.2422 938.025 66.4629L934.363 75.2886C931.897 74.2876 929.688 73.5186 927.735 72.9814C925.782 72.4199 923.792 72.1392 921.766 72.1392C920.35 72.1392 919.141 72.3711 918.14 72.835C917.139 73.2744 916.382 73.9092 915.87 74.7393C915.357 75.5449 915.101 76.4849 915.101 77.5591C915.101 78.8286 915.467 79.9028 916.199 80.7817C916.956 81.6362 918.079 82.4663 919.568 83.272C921.082 84.0776 922.962 85.0176 925.208 86.0918C927.942 87.3857 930.274 88.7407 932.203 90.1567C934.156 91.5483 935.657 93.1963 936.707 95.1006C937.757 96.9805 938.282 99.3242 938.282 102.132ZM996.583 90.1567C996.583 94.2827 996.07 98.0425 995.044 101.436C994.019 104.805 992.457 107.71 990.357 110.152C988.282 112.593 985.645 114.473 982.447 115.792C979.249 117.085 975.464 117.732 971.094 117.732C966.724 117.732 962.94 117.085 959.742 115.792C956.543 114.473 953.895 112.593 951.795 110.152C949.72 107.71 948.169 104.793 947.144 101.399C946.119 98.0059 945.606 94.2339 945.606 90.0835C945.606 84.5415 946.509 79.7197 948.316 75.6182C950.147 71.4922 952.955 68.2939 956.739 66.0234C960.523 63.7529 965.333 62.6177 971.167 62.6177C976.978 62.6177 981.751 63.7529 985.486 66.0234C989.246 68.2939 992.029 71.4922 993.836 75.6182C995.667 79.7441 996.583 84.5903 996.583 90.1567ZM957.508 90.1567C957.508 93.8921 957.972 97.1147 958.899 99.8247C959.852 102.51 961.329 104.585 963.331 106.05C965.333 107.491 967.92 108.211 971.094 108.211C974.317 108.211 976.929 107.491 978.931 106.05C980.933 104.585 982.386 102.51 983.289 99.8247C984.217 97.1147 984.681 93.8921 984.681 90.1567C984.681 84.5415 983.631 80.1226 981.531 76.8999C979.432 73.6772 975.977 72.0659 971.167 72.0659C967.969 72.0659 965.357 72.7983 963.331 74.2632C961.329 75.7036 959.852 77.7788 958.899 80.4888C957.972 83.1743 957.508 86.397 957.508 90.1567ZM1056.27 90.1567C1056.27 94.2827 1055.76 98.0425 1054.74 101.436C1053.71 104.805 1052.15 107.71 1050.05 110.152C1047.97 112.593 1045.34 114.473 1042.14 115.792C1038.94 117.085 1035.16 117.732 1030.79 117.732C1026.42 117.732 1022.63 117.085 1019.43 115.792C1016.24 114.473 1013.59 112.593 1011.49 110.152C1009.41 107.71 1007.86 104.793 1006.84 101.399C1005.81 98.0059 1005.3 94.2339 1005.3 90.0835C1005.3 84.5415 1006.2 79.7197 1008.01 75.6182C1009.84 71.4922 1012.65 68.2939 1016.43 66.0234C1020.22 63.7529 1025.02 62.6177 1030.86 62.6177C1036.67 62.6177 1041.44 63.7529 1045.18 66.0234C1048.94 68.2939 1051.72 71.4922 1053.53 75.6182C1055.36 79.7441 1056.27 84.5903 1056.27 90.1567ZM1017.2 90.1567C1017.2 93.8921 1017.66 97.1147 1018.59 99.8247C1019.54 102.51 1021.02 104.585 1023.02 106.05C1025.02 107.491 1027.61 108.211 1030.79 108.211C1034.01 108.211 1036.62 107.491 1038.62 106.05C1040.63 104.585 1042.08 102.51 1042.98 99.8247C1043.91 97.1147 1044.37 93.8921 1044.37 90.1567C1044.37 84.5415 1043.32 80.1226 1041.22 76.8999C1039.12 73.6772 1035.67 72.0659 1030.86 72.0659C1027.66 72.0659 1025.05 72.7983 1023.02 74.2632C1021.02 75.7036 1019.54 77.7788 1018.59 80.4888C1017.66 83.1743 1017.2 86.397 1017.2 90.1567ZM1114.87 117H1100.44L1077.15 76.4971H1076.82C1076.92 78.1816 1077 79.8784 1077.08 81.5874C1077.15 83.2964 1077.22 85.0054 1077.3 86.7144C1077.37 88.3989 1077.44 90.0957 1077.52 91.8047V117H1067.37V63.46H1081.69L1104.94 103.56H1105.2C1105.15 101.9 1105.09 100.252 1105.02 98.6162C1104.94 96.9805 1104.87 95.3447 1104.8 93.709C1104.75 92.0732 1104.7 90.4375 1104.65 88.8018V63.46H1114.87V117Z" fill="white"/>
<line x1="141" y1="87" x2="504" y2="87" stroke="white" stroke-width="2"/>
<path d="M155.15 46.4668C154.107 46.4668 153.182 46.6719 152.373 47.082C151.576 47.4805 150.902 48.0605 150.352 48.8223C149.812 49.584 149.402 50.5039 149.121 51.582C148.84 52.6602 148.699 53.873 148.699 55.2207C148.699 57.0371 148.922 58.5898 149.367 59.8789C149.824 61.1562 150.527 62.1348 151.477 62.8145C152.426 63.4824 153.65 63.8164 155.15 63.8164C156.193 63.8164 157.236 63.6992 158.279 63.4648C159.334 63.2305 160.477 62.8965 161.707 62.4629V67.0332C160.57 67.502 159.451 67.8359 158.35 68.0352C157.248 68.2461 156.012 68.3516 154.641 68.3516C151.992 68.3516 149.812 67.8066 148.102 66.7168C146.402 65.6152 145.143 64.0801 144.322 62.1113C143.502 60.1309 143.092 57.8223 143.092 55.1855C143.092 53.2402 143.355 51.459 143.883 49.8418C144.41 48.2246 145.184 46.8242 146.203 45.6406C147.223 44.457 148.482 43.543 149.982 42.8984C151.482 42.2539 153.205 41.9316 155.15 41.9316C156.428 41.9316 157.705 42.0957 158.982 42.4238C160.271 42.7402 161.502 43.1797 162.674 43.7422L160.916 48.1719C159.955 47.7148 158.988 47.3164 158.016 46.9766C157.043 46.6367 156.088 46.4668 155.15 46.4668ZM190.518 55.1152C190.518 57.0957 190.271 58.9004 189.779 60.5293C189.287 62.1465 188.537 63.541 187.529 64.7129C186.533 65.8848 185.268 66.7871 183.732 67.4199C182.197 68.041 180.381 68.3516 178.283 68.3516C176.186 68.3516 174.369 68.041 172.834 67.4199C171.299 66.7871 170.027 65.8848 169.02 64.7129C168.023 63.541 167.279 62.1406 166.787 60.5117C166.295 58.8828 166.049 57.0723 166.049 55.0801C166.049 52.4199 166.482 50.1055 167.35 48.1367C168.229 46.1562 169.576 44.6211 171.393 43.5312C173.209 42.4414 175.518 41.8965 178.318 41.8965C181.107 41.8965 183.398 42.4414 185.191 43.5312C186.996 44.6211 188.332 46.1562 189.199 48.1367C190.078 50.1172 190.518 52.4434 190.518 55.1152ZM171.762 55.1152C171.762 56.9082 171.984 58.4551 172.43 59.7559C172.887 61.0449 173.596 62.041 174.557 62.7441C175.518 63.4355 176.76 63.7812 178.283 63.7812C179.83 63.7812 181.084 63.4355 182.045 62.7441C183.006 62.041 183.703 61.0449 184.137 59.7559C184.582 58.4551 184.805 56.9082 184.805 55.1152C184.805 52.4199 184.301 50.2988 183.293 48.752C182.285 47.2051 180.627 46.4316 178.318 46.4316C176.783 46.4316 175.529 46.7832 174.557 47.4863C173.596 48.1777 172.887 49.1738 172.43 50.4746C171.984 51.7637 171.762 53.3105 171.762 55.1152ZM206.725 68L200.537 47.8379H200.379C200.402 48.3184 200.438 49.0449 200.484 50.0176C200.543 50.9785 200.596 52.0039 200.643 53.0938C200.689 54.1836 200.713 55.168 200.713 56.0469V68H195.844V42.3008H203.262L209.344 61.9531H209.449L215.9 42.3008H223.318V68H218.238V55.8359C218.238 55.0273 218.25 54.0957 218.273 53.041C218.309 51.9863 218.35 50.9844 218.396 50.0352C218.443 49.0742 218.479 48.3535 218.502 47.873H218.344L211.717 68H206.725ZM229.805 68V42.3008H235.254V68H229.805ZM264.521 68H257.596L246.416 48.5586H246.258C246.305 49.3672 246.346 50.1816 246.381 51.002C246.416 51.8223 246.451 52.6426 246.486 53.4629C246.521 54.2715 246.557 55.0859 246.592 55.9062V68H241.723V42.3008H248.596L259.758 61.5488H259.881C259.857 60.752 259.828 59.9609 259.793 59.1758C259.758 58.3906 259.723 57.6055 259.688 56.8203C259.664 56.0352 259.641 55.25 259.617 54.4648V42.3008H264.521V68ZM280.764 53.5684H290.959V66.8926C289.611 67.3379 288.211 67.6953 286.758 67.9648C285.305 68.2227 283.658 68.3516 281.818 68.3516C279.264 68.3516 277.096 67.8477 275.314 66.8398C273.533 65.832 272.18 64.3438 271.254 62.375C270.328 60.4062 269.865 57.9863 269.865 55.1152C269.865 52.4199 270.381 50.0879 271.412 48.1191C272.455 46.1504 273.973 44.627 275.965 43.5488C277.969 42.4707 280.412 41.9316 283.295 41.9316C284.654 41.9316 285.996 42.0781 287.32 42.3711C288.645 42.6641 289.846 43.0449 290.924 43.5137L289.113 47.873C288.328 47.4746 287.432 47.1406 286.424 46.8711C285.416 46.6016 284.361 46.4668 283.26 46.4668C281.678 46.4668 280.301 46.8301 279.129 47.5566C277.969 48.2832 277.066 49.3027 276.422 50.6152C275.789 51.916 275.473 53.4512 275.473 55.2207C275.473 56.8965 275.701 58.3848 276.158 59.6855C276.615 60.9746 277.336 61.9883 278.32 62.7266C279.305 63.4531 280.588 63.8164 282.17 63.8164C282.943 63.8164 283.594 63.7812 284.121 63.7109C284.66 63.6289 285.164 63.5469 285.633 63.4648V58.1035H280.764V53.5684ZM321.615 60.8633C321.615 62.3867 321.246 63.7109 320.508 64.8359C319.77 65.9609 318.691 66.8281 317.273 67.4375C315.867 68.0469 314.156 68.3516 312.141 68.3516C311.25 68.3516 310.377 68.293 309.521 68.1758C308.678 68.0586 307.863 67.8887 307.078 67.666C306.305 67.4316 305.566 67.1445 304.863 66.8047V61.7422C306.082 62.2812 307.348 62.7676 308.66 63.2012C309.973 63.6348 311.273 63.8516 312.562 63.8516C313.453 63.8516 314.168 63.7344 314.707 63.5C315.258 63.2656 315.656 62.9434 315.902 62.5332C316.148 62.123 316.271 61.6543 316.271 61.127C316.271 60.4824 316.055 59.9316 315.621 59.4746C315.188 59.0176 314.59 58.5898 313.828 58.1914C313.078 57.793 312.229 57.3652 311.279 56.9082C310.682 56.627 310.031 56.2871 309.328 55.8887C308.625 55.4785 307.957 54.9805 307.324 54.3945C306.691 53.8086 306.17 53.0996 305.76 52.2676C305.361 51.4238 305.162 50.416 305.162 49.2441C305.162 47.709 305.514 46.3965 306.217 45.3066C306.92 44.2168 307.922 43.3848 309.223 42.8105C310.535 42.2246 312.082 41.9316 313.863 41.9316C315.199 41.9316 316.471 42.0898 317.678 42.4062C318.896 42.7109 320.168 43.1562 321.492 43.7422L319.734 47.9785C318.551 47.498 317.49 47.1289 316.553 46.8711C315.615 46.6016 314.66 46.4668 313.688 46.4668C313.008 46.4668 312.428 46.5781 311.947 46.8008C311.467 47.0117 311.104 47.3164 310.857 47.7148C310.611 48.1016 310.488 48.5527 310.488 49.0684C310.488 49.6777 310.664 50.1934 311.016 50.6152C311.379 51.0254 311.918 51.4238 312.633 51.8105C313.359 52.1973 314.262 52.6484 315.34 53.1641C316.652 53.7852 317.771 54.4355 318.697 55.1152C319.635 55.7832 320.355 56.5742 320.859 57.4883C321.363 58.3906 321.615 59.5156 321.615 60.8633ZM349.6 55.1152C349.6 57.0957 349.354 58.9004 348.861 60.5293C348.369 62.1465 347.619 63.541 346.611 64.7129C345.615 65.8848 344.35 66.7871 342.814 67.4199C341.279 68.041 339.463 68.3516 337.365 68.3516C335.268 68.3516 333.451 68.041 331.916 67.4199C330.381 66.7871 329.109 65.8848 328.102 64.7129C327.105 63.541 326.361 62.1406 325.869 60.5117C325.377 58.8828 325.131 57.0723 325.131 55.0801C325.131 52.4199 325.564 50.1055 326.432 48.1367C327.311 46.1562 328.658 44.6211 330.475 43.5312C332.291 42.4414 334.6 41.8965 337.4 41.8965C340.189 41.8965 342.48 42.4414 344.273 43.5312C346.078 44.6211 347.414 46.1562 348.281 48.1367C349.16 50.1172 349.6 52.4434 349.6 55.1152ZM330.844 55.1152C330.844 56.9082 331.066 58.4551 331.512 59.7559C331.969 61.0449 332.678 62.041 333.639 62.7441C334.6 63.4355 335.842 63.7812 337.365 63.7812C338.912 63.7812 340.166 63.4355 341.127 62.7441C342.088 62.041 342.785 61.0449 343.219 59.7559C343.664 58.4551 343.887 56.9082 343.887 55.1152C343.887 52.4199 343.383 50.2988 342.375 48.752C341.367 47.2051 339.709 46.4316 337.4 46.4316C335.865 46.4316 334.611 46.7832 333.639 47.4863C332.678 48.1777 331.969 49.1738 331.512 50.4746C331.066 51.7637 330.844 53.3105 330.844 55.1152ZM378.252 55.1152C378.252 57.0957 378.006 58.9004 377.514 60.5293C377.021 62.1465 376.271 63.541 375.264 64.7129C374.268 65.8848 373.002 66.7871 371.467 67.4199C369.932 68.041 368.115 68.3516 366.018 68.3516C363.92 68.3516 362.104 68.041 360.568 67.4199C359.033 66.7871 357.762 65.8848 356.754 64.7129C355.758 63.541 355.014 62.1406 354.521 60.5117C354.029 58.8828 353.783 57.0723 353.783 55.0801C353.783 52.4199 354.217 50.1055 355.084 48.1367C355.963 46.1562 357.311 44.6211 359.127 43.5312C360.943 42.4414 363.252 41.8965 366.053 41.8965C368.842 41.8965 371.133 42.4414 372.926 43.5312C374.73 44.6211 376.066 46.1562 376.934 48.1367C377.812 50.1172 378.252 52.4434 378.252 55.1152ZM359.496 55.1152C359.496 56.9082 359.719 58.4551 360.164 59.7559C360.621 61.0449 361.33 62.041 362.291 62.7441C363.252 63.4355 364.494 63.7812 366.018 63.7812C367.564 63.7812 368.818 63.4355 369.779 62.7441C370.74 62.041 371.438 61.0449 371.871 59.7559C372.316 58.4551 372.539 56.9082 372.539 55.1152C372.539 52.4199 372.035 50.2988 371.027 48.752C370.02 47.2051 368.361 46.4316 366.053 46.4316C364.518 46.4316 363.264 46.7832 362.291 47.4863C361.33 48.1777 360.621 49.1738 360.164 50.4746C359.719 51.7637 359.496 53.3105 359.496 55.1152ZM406.377 68H399.451L388.271 48.5586H388.113C388.16 49.3672 388.201 50.1816 388.236 51.002C388.271 51.8223 388.307 52.6426 388.342 53.4629C388.377 54.2715 388.412 55.0859 388.447 55.9062V68H383.578V42.3008H390.451L401.613 61.5488H401.736C401.713 60.752 401.684 59.9609 401.648 59.1758C401.613 58.3906 401.578 57.6055 401.543 56.8203C401.52 56.0352 401.496 55.25 401.473 54.4648V42.3008H406.377V68Z" fill="white"/>
<path d="M145.797 120.156C144.932 120.156 144.195 120 143.586 119.688C142.977 119.37 142.513 118.88 142.195 118.219C141.878 117.557 141.719 116.711 141.719 115.68C141.719 114.612 141.898 113.742 142.258 113.07C142.622 112.393 143.125 111.896 143.766 111.578C144.411 111.26 145.159 111.102 146.008 111.102C146.612 111.102 147.133 111.161 147.57 111.281C148.013 111.396 148.398 111.534 148.727 111.695L148.023 113.539C147.648 113.388 147.299 113.266 146.977 113.172C146.654 113.073 146.331 113.023 146.008 113.023C145.591 113.023 145.245 113.122 144.969 113.32C144.693 113.513 144.487 113.805 144.352 114.195C144.216 114.586 144.148 115.076 144.148 115.664C144.148 116.242 144.221 116.721 144.367 117.102C144.513 117.482 144.724 117.766 145 117.953C145.276 118.135 145.612 118.227 146.008 118.227C146.503 118.227 146.943 118.161 147.328 118.031C147.714 117.896 148.089 117.708 148.453 117.469V119.508C148.089 119.737 147.706 119.901 147.305 120C146.909 120.104 146.406 120.156 145.797 120.156ZM158.422 115.617C158.422 116.346 158.323 116.992 158.125 117.555C157.932 118.117 157.648 118.594 157.273 118.984C156.904 119.37 156.456 119.661 155.93 119.859C155.409 120.057 154.82 120.156 154.164 120.156C153.549 120.156 152.984 120.057 152.469 119.859C151.958 119.661 151.513 119.37 151.133 118.984C150.758 118.594 150.466 118.117 150.258 117.555C150.055 116.992 149.953 116.346 149.953 115.617C149.953 114.648 150.125 113.828 150.469 113.156C150.812 112.484 151.302 111.974 151.938 111.625C152.573 111.276 153.331 111.102 154.211 111.102C155.029 111.102 155.753 111.276 156.383 111.625C157.018 111.974 157.516 112.484 157.875 113.156C158.24 113.828 158.422 114.648 158.422 115.617ZM152.383 115.617C152.383 116.19 152.445 116.672 152.57 117.062C152.695 117.453 152.891 117.747 153.156 117.945C153.422 118.143 153.768 118.242 154.195 118.242C154.617 118.242 154.958 118.143 155.219 117.945C155.484 117.747 155.677 117.453 155.797 117.062C155.922 116.672 155.984 116.19 155.984 115.617C155.984 115.039 155.922 114.56 155.797 114.18C155.677 113.794 155.484 113.505 155.219 113.312C154.953 113.12 154.607 113.023 154.18 113.023C153.549 113.023 153.091 113.24 152.805 113.672C152.523 114.104 152.383 114.753 152.383 115.617ZM170.648 111.102C171.638 111.102 172.385 111.357 172.891 111.867C173.401 112.372 173.656 113.185 173.656 114.305V120H171.266V114.898C171.266 114.273 171.159 113.802 170.945 113.484C170.732 113.167 170.401 113.008 169.953 113.008C169.323 113.008 168.875 113.234 168.609 113.688C168.344 114.135 168.211 114.779 168.211 115.617V120H165.828V114.898C165.828 114.482 165.781 114.133 165.688 113.852C165.594 113.57 165.451 113.359 165.258 113.219C165.065 113.078 164.818 113.008 164.516 113.008C164.073 113.008 163.724 113.12 163.469 113.344C163.219 113.562 163.039 113.888 162.93 114.32C162.826 114.747 162.773 115.271 162.773 115.891V120H160.391V111.266H162.211L162.531 112.383H162.664C162.841 112.081 163.062 111.836 163.328 111.648C163.599 111.461 163.896 111.323 164.219 111.234C164.542 111.146 164.87 111.102 165.203 111.102C165.844 111.102 166.385 111.206 166.828 111.414C167.276 111.622 167.62 111.945 167.859 112.383H168.07C168.331 111.935 168.698 111.609 169.172 111.406C169.651 111.203 170.143 111.102 170.648 111.102ZM178.492 111.266V120H176.109V111.266H178.492ZM177.305 107.844C177.659 107.844 177.964 107.927 178.219 108.094C178.474 108.255 178.602 108.56 178.602 109.008C178.602 109.451 178.474 109.758 178.219 109.93C177.964 110.096 177.659 110.18 177.305 110.18C176.945 110.18 176.638 110.096 176.383 109.93C176.133 109.758 176.008 109.451 176.008 109.008C176.008 108.56 176.133 108.255 176.383 108.094C176.638 107.927 176.945 107.844 177.305 107.844ZM185.961 111.102C186.893 111.102 187.643 111.357 188.211 111.867C188.779 112.372 189.062 113.185 189.062 114.305V120H186.68V114.898C186.68 114.273 186.565 113.802 186.336 113.484C186.112 113.167 185.758 113.008 185.273 113.008C184.544 113.008 184.047 113.255 183.781 113.75C183.516 114.245 183.383 114.958 183.383 115.891V120H181V111.266H182.82L183.141 112.383H183.273C183.461 112.081 183.693 111.836 183.969 111.648C184.25 111.461 184.56 111.323 184.898 111.234C185.242 111.146 185.596 111.102 185.961 111.102ZM194.07 123.844C192.852 123.844 191.919 123.63 191.273 123.203C190.633 122.781 190.312 122.188 190.312 121.422C190.312 120.896 190.477 120.456 190.805 120.102C191.133 119.747 191.615 119.495 192.25 119.344C192.005 119.24 191.792 119.07 191.609 118.836C191.427 118.596 191.336 118.344 191.336 118.078C191.336 117.745 191.432 117.469 191.625 117.25C191.818 117.026 192.096 116.807 192.461 116.594C192.003 116.396 191.638 116.078 191.367 115.641C191.102 115.203 190.969 114.688 190.969 114.094C190.969 113.458 191.107 112.919 191.383 112.477C191.664 112.029 192.07 111.688 192.602 111.453C193.138 111.219 193.789 111.102 194.555 111.102C194.716 111.102 194.904 111.112 195.117 111.133C195.331 111.154 195.526 111.177 195.703 111.203C195.885 111.229 196.008 111.25 196.07 111.266H199.117V112.477L197.75 112.828C197.875 113.021 197.969 113.227 198.031 113.445C198.094 113.664 198.125 113.896 198.125 114.141C198.125 115.078 197.797 115.81 197.141 116.336C196.49 116.857 195.583 117.117 194.422 117.117C194.146 117.102 193.885 117.081 193.641 117.055C193.521 117.148 193.43 117.247 193.367 117.352C193.305 117.456 193.273 117.565 193.273 117.68C193.273 117.794 193.32 117.891 193.414 117.969C193.513 118.042 193.659 118.099 193.852 118.141C194.049 118.177 194.294 118.195 194.586 118.195H196.07C197.029 118.195 197.758 118.401 198.258 118.812C198.763 119.224 199.016 119.828 199.016 120.625C199.016 121.646 198.589 122.438 197.734 123C196.885 123.562 195.664 123.844 194.07 123.844ZM194.172 122.289C194.74 122.289 195.227 122.234 195.633 122.125C196.044 122.021 196.359 121.87 196.578 121.672C196.797 121.479 196.906 121.247 196.906 120.977C196.906 120.758 196.841 120.583 196.711 120.453C196.586 120.328 196.393 120.24 196.133 120.188C195.878 120.135 195.549 120.109 195.148 120.109H193.914C193.622 120.109 193.359 120.156 193.125 120.25C192.896 120.344 192.714 120.474 192.578 120.641C192.443 120.812 192.375 121.01 192.375 121.234C192.375 121.562 192.531 121.82 192.844 122.008C193.161 122.195 193.604 122.289 194.172 122.289ZM194.555 115.664C195.003 115.664 195.331 115.526 195.539 115.25C195.747 114.974 195.852 114.599 195.852 114.125C195.852 113.599 195.742 113.206 195.523 112.945C195.31 112.68 194.987 112.547 194.555 112.547C194.117 112.547 193.789 112.68 193.57 112.945C193.352 113.206 193.242 113.599 193.242 114.125C193.242 114.599 193.349 114.974 193.562 115.25C193.781 115.526 194.112 115.664 194.555 115.664ZM210.812 117.406C210.812 118 210.672 118.503 210.391 118.914C210.115 119.32 209.701 119.63 209.148 119.844C208.596 120.052 207.909 120.156 207.086 120.156C206.477 120.156 205.953 120.117 205.516 120.039C205.083 119.961 204.646 119.831 204.203 119.648V117.68C204.677 117.893 205.185 118.07 205.727 118.211C206.273 118.346 206.753 118.414 207.164 118.414C207.628 118.414 207.958 118.346 208.156 118.211C208.359 118.07 208.461 117.888 208.461 117.664C208.461 117.518 208.419 117.388 208.336 117.273C208.258 117.154 208.086 117.021 207.82 116.875C207.555 116.724 207.138 116.529 206.57 116.289C206.023 116.06 205.573 115.828 205.219 115.594C204.87 115.359 204.609 115.083 204.438 114.766C204.271 114.443 204.188 114.034 204.188 113.539C204.188 112.732 204.5 112.125 205.125 111.719C205.755 111.307 206.596 111.102 207.648 111.102C208.19 111.102 208.706 111.156 209.195 111.266C209.69 111.375 210.198 111.549 210.719 111.789L210 113.508C209.568 113.32 209.159 113.167 208.773 113.047C208.393 112.927 208.005 112.867 207.609 112.867C207.26 112.867 206.997 112.914 206.82 113.008C206.643 113.102 206.555 113.245 206.555 113.438C206.555 113.578 206.599 113.703 206.688 113.812C206.781 113.922 206.958 114.044 207.219 114.18C207.484 114.31 207.872 114.479 208.383 114.688C208.878 114.891 209.307 115.104 209.672 115.328C210.036 115.547 210.318 115.82 210.516 116.148C210.714 116.471 210.812 116.891 210.812 117.406ZM220.609 115.617C220.609 116.346 220.51 116.992 220.312 117.555C220.12 118.117 219.836 118.594 219.461 118.984C219.091 119.37 218.643 119.661 218.117 119.859C217.596 120.057 217.008 120.156 216.352 120.156C215.737 120.156 215.172 120.057 214.656 119.859C214.146 119.661 213.701 119.37 213.32 118.984C212.945 118.594 212.654 118.117 212.445 117.555C212.242 116.992 212.141 116.346 212.141 115.617C212.141 114.648 212.312 113.828 212.656 113.156C213 112.484 213.49 111.974 214.125 111.625C214.76 111.276 215.518 111.102 216.398 111.102C217.216 111.102 217.94 111.276 218.57 111.625C219.206 111.974 219.703 112.484 220.062 113.156C220.427 113.828 220.609 114.648 220.609 115.617ZM214.57 115.617C214.57 116.19 214.633 116.672 214.758 117.062C214.883 117.453 215.078 117.747 215.344 117.945C215.609 118.143 215.956 118.242 216.383 118.242C216.805 118.242 217.146 118.143 217.406 117.945C217.672 117.747 217.865 117.453 217.984 117.062C218.109 116.672 218.172 116.19 218.172 115.617C218.172 115.039 218.109 114.56 217.984 114.18C217.865 113.794 217.672 113.505 217.406 113.312C217.141 113.12 216.794 113.023 216.367 113.023C215.737 113.023 215.279 113.24 214.992 113.672C214.711 114.104 214.57 114.753 214.57 115.617ZM230.516 115.617C230.516 116.346 230.417 116.992 230.219 117.555C230.026 118.117 229.742 118.594 229.367 118.984C228.997 119.37 228.549 119.661 228.023 119.859C227.503 120.057 226.914 120.156 226.258 120.156C225.643 120.156 225.078 120.057 224.562 119.859C224.052 119.661 223.607 119.37 223.227 118.984C222.852 118.594 222.56 118.117 222.352 117.555C222.148 116.992 222.047 116.346 222.047 115.617C222.047 114.648 222.219 113.828 222.562 113.156C222.906 112.484 223.396 111.974 224.031 111.625C224.667 111.276 225.424 111.102 226.305 111.102C227.122 111.102 227.846 111.276 228.477 111.625C229.112 111.974 229.609 112.484 229.969 113.156C230.333 113.828 230.516 114.648 230.516 115.617ZM224.477 115.617C224.477 116.19 224.539 116.672 224.664 117.062C224.789 117.453 224.984 117.747 225.25 117.945C225.516 118.143 225.862 118.242 226.289 118.242C226.711 118.242 227.052 118.143 227.312 117.945C227.578 117.747 227.771 117.453 227.891 117.062C228.016 116.672 228.078 116.19 228.078 115.617C228.078 115.039 228.016 114.56 227.891 114.18C227.771 113.794 227.578 113.505 227.312 113.312C227.047 113.12 226.701 113.023 226.273 113.023C225.643 113.023 225.185 113.24 224.898 113.672C224.617 114.104 224.477 114.753 224.477 115.617ZM237.445 111.102C238.378 111.102 239.128 111.357 239.695 111.867C240.263 112.372 240.547 113.185 240.547 114.305V120H238.164V114.898C238.164 114.273 238.049 113.802 237.82 113.484C237.596 113.167 237.242 113.008 236.758 113.008C236.029 113.008 235.531 113.255 235.266 113.75C235 114.245 234.867 114.958 234.867 115.891V120H232.484V111.266H234.305L234.625 112.383H234.758C234.945 112.081 235.177 111.836 235.453 111.648C235.734 111.461 236.044 111.323 236.383 111.234C236.727 111.146 237.081 111.102 237.445 111.102Z" fill="white"/>
</g>
<defs>
<filter id="filter0_d_1615_164" x="1172.88" y="7.22168" width="103.95" height="180.471" filterUnits="userSpaceOnUse" color-interpolation-filters="sRGB">
<feFlood flood-opacity="0" result="BackgroundImageFix"/>
<feColorMatrix in="SourceAlpha" type="matrix" values="0 0 0 0 0 0 0 0 0 0 0 0 0 0 0 0 0 0 127 0" result="hardAlpha"/>
<feOffset dx="5" dy="5"/>
<feColorMatrix type="matrix" values="0 0 0 0 0 0 0 0 0 0 0 0 0 0 0 0 0 0 0.25 0"/>
<feBlend mode="normal" in2="BackgroundImageFix" result="effect1_dropShadow_1615_164"/>
<feBlend mode="normal" in="SourceGraphic" in2="effect1_dropShadow_1615_164" result="shape"/>
</filter>
<filter id="filter1_d_1615_164" x="1265.19" y="12.4883" width="225.811" height="169.942" filterUnits="userSpaceOnUse" color-interpolation-filters="sRGB">
<feFlood flood-opacity="0" result="BackgroundImageFix"/>
<feColorMatrix in="SourceAlpha" type="matrix" values="0 0 0 0 0 0 0 0 0 0 0 0 0 0 0 0 0 0 127 0" result="hardAlpha"/>
<feOffset dx="5" dy="5"/>
<feColorMatrix type="matrix" values="0 0 0 0 0 0 0 0 0 0 0 0 0 0 0 0 0 0 0.25 0"/>
<feBlend mode="normal" in2="BackgroundImageFix" result="effect1_dropShadow_1615_164"/>
<feBlend mode="normal" in="SourceGraphic" in2="effect1_dropShadow_1615_164" result="shape"/>
</filter>
<filter id="filter2_d_1615_164" x="-195" y="4" width="1404" height="188" filterUnits="userSpaceOnUse" color-interpolation-filters="sRGB">
<feFlood flood-opacity="0" result="BackgroundImageFix"/>
<feColorMatrix in="SourceAlpha" type="matrix" values="0 0 0 0 0 0 0 0 0 0 0 0 0 0 0 0 0 0 127 0" result="hardAlpha"/>
<feOffset dx="5" dy="5"/>
<feColorMatrix type="matrix" values="0 0 0 0 0 0 0 0 0 0 0 0 0 0 0 0 0 0 0.25 0"/>
<feBlend mode="normal" in2="BackgroundImageFix" result="effect1_dropShadow_1615_164"/>
<feBlend mode="normal" in="SourceGraphic" in2="effect1_dropShadow_1615_164" result="shape"/>
</filter>
<clipPath id="clip0_1615_164">
<rect width="1494" height="192.422" fill="white"/>
</clipPath>
</defs>
</svg>
