<svg xmlns="http://www.w3.org/2000/svg" width="1366" height="750" viewBox="0 0 1366 750">
  <path id="background" d="M608.1,647.183c-109.983,0-83.367,91.49-215.417,93.68-66.783,1.108-111.953-21.357-151.437-43.821C202.656,675.089,169.5,653.134,126.9,653.183,40.707,653.283,0,716.508,0,716.508V28.6S42.7,56.628,126.9,55.251,219.149,44.291,337.23,7.757,547.77,75.592,657.867,75.592,800.31,13.951,919.551,7.757,1113.584,58.725,1191.3,61.34,1364.89,28.6,1364.89,28.6V91.1h-.011c-.1,39.711-.747,336.461,1.117,535.3.584,62.327-64.836,88.373-139.493,90.116-36.16.844-66.053-17.01-95.109-34.864-30.935-19.008-60.921-38.017-96.51-34.46C937.4,656.926,929.11,750,820.869,750S718.08,647.183,608.1,647.183Z"/>
</svg>
