<svg xmlns="http://www.w3.org/2000/svg" width="1374.78" height="1042.183" viewBox="0 0 1374.78 1042.183">
  <path id="background" d="M-8.778,969.656,0,133.519V48.506s18.262-36.433,102.523-38.4c35.421-.827,63.688,21.784,93.334,44.394,40.877,31.177,84.379,62.354,152.879,32.09C466.912,34.375,511.741-.013,621.928-.013s174.092,104.156,293.43,95.3,190.355-88.924,268.135-85.186S1366,48.506,1366,48.506v89.313h-.023c-.217,60.977-1.852,546.306.023,831.837.365,55.593-41.289,26.381-90.82-2.831-29.833-17.595-62.523-35.191-90.609-34.254-74.717,2.491-109.076,89.22-178.148,99.077-97.56,13.924-109.67-162.99-218-162.99S688.154,1042.17,578.083,1042.17s-96.4-136.743-228.556-133.612-133.762,133.47-220.021,133.612h-.253C43.144,1042.171-8.778,969.656-8.778,969.656Z" transform="translate(8.778 0.013)" fill="#ff9710"/>
</svg>
