<svg id="COMPANY" xmlns="http://www.w3.org/2000/svg" width="360" height="60" viewBox="0 0 360 60">
  <rect id="長方形_1097" data-name="長方形 1097" width="360" height="60" fill="none"/>
  <path id="パス_807" data-name="パス 807" d="M64.195,54.956l-37.2-.276-.274-43.3,37.156-.413.229,18.893H51.977l.091-6.389-12.857.185.183,19.078,24.8-.23Z"/>
  <path id="パス_808" data-name="パス 808" d="M70.231,54.826V10.968H107.66l-.045,43.858ZM82.585,42.781h12.72V22.875H82.585Z"/>
  <path id="パス_809" data-name="パス 809" d="M144.739,33.633l-4.1,17.791H130.155l-4.1-17.791-.367,21.146H113.424l1.55-43.858h15.09L135.4,29.77l5.334-18.849h15.136l1.55,43.858H145.154Z"/>
  <path id="パス_810" data-name="パス 810" d="M163.043,54.6l.091-43.634H201.2l.137,20.461-8.388,9.517L175.626,40.9l.273,13.7Zm12.628-25.1h10.943l2.279-2.529-.091-4.644H175.671Z"/>
  <path id="パス_811" data-name="パス 811" d="M204.485,54.779l8.3-43.857h24.071l8.34,43.857h-13.13l-1.368-10.8-11.716.138-1.55,10.662ZM220.9,32.759l7.932-.138L227.1,22.507h-4.468Z"/>
  <path id="パス_812" data-name="パス 812" d="M262.949,30.048l.319,24.553h-12.4l.364-43.589H266.05L279.636,35.2l-.32-24.185h12.355L291.216,54.6h-12.9Z"/>
  <path id="パス_813" data-name="パス 813" d="M297.3,11.012h14.319l6.657,14.437,6.7-14.437h14.315L324.333,37.771l.456,16.919h-13.04l.5-16.919Z"/>
  <path id="パス_814" data-name="パス 814" d="M61.192,51.953l-37.2-.276-.274-43.3,37.156-.413L61.1,26.857H48.974l.091-6.389-12.857.185.183,19.078,24.8-.23Z" fill="#fff700"/>
  <path id="パス_815" data-name="パス 815" d="M67.228,51.823V7.965h37.429l-.045,43.858ZM79.582,39.778H92.3V19.872H79.582Z" fill="#fff700"/>
  <path id="パス_816" data-name="パス 816" d="M141.736,30.63l-4.1,17.791H127.152l-4.1-17.791-.367,21.146H110.421l1.55-43.858h15.09l5.334,18.849,5.334-18.849h15.136l1.55,43.858H142.151Z" fill="#fff700"/>
  <path id="パス_817" data-name="パス 817" d="M160.04,51.6l.091-43.634H198.2l.137,20.461-8.388,9.517L172.623,37.9l.273,13.7Zm12.628-25.1h10.943l2.279-2.529-.091-4.644H172.668Z" fill="#fff700"/>
  <path id="パス_818" data-name="パス 818" d="M201.482,51.776l8.3-43.857h24.071l8.34,43.857h-13.13l-1.368-10.8-11.716.138-1.55,10.662Zm16.412-22.02,7.932-.138L224.094,19.5h-4.468Z" fill="#fff700"/>
  <path id="パス_819" data-name="パス 819" d="M259.946,27.045l.319,24.553h-12.4l.364-43.589h14.818l13.586,24.185-.32-24.185h12.355L288.213,51.6h-12.9Z" fill="#fff700"/>
  <path id="パス_820" data-name="パス 820" d="M294.294,8.009h14.319l6.657,14.437,6.7-14.437h14.315L321.33,34.768l.456,16.919h-13.04l.5-16.919Z" fill="#fff700"/>
</svg>
