<svg id="COMPANY" xmlns="http://www.w3.org/2000/svg" width="363" height="60" viewBox="0 0 363 60">
  <rect id="長方形_1102" data-name="長方形 1102" width="363" height="60" fill="none"/>
  <path id="パス_854" data-name="パス 854" d="M69.762,37.831h5.72V17.925H62.762V37.831h7Zm2.72-3h-2.72V24.926h2.72Z" transform="translate(-0.133)"/>
  <path id="パス_855" data-name="パス 855" d="M162.848,24.552h3.943l.155-.173,2.124-2.356L169,18.379l-.02-1H155.848v7.173h7Z" transform="translate(-0.33)"/>
  <path id="パス_856" data-name="パス 856" d="M207.445,18.557l-.171-1h-4.468l-1.732,10.252,1.638-.029,6.1-.106.191,0-.1-.56Z" transform="translate(-0.419)"/>
  <path id="パス_857" data-name="パス 857" d="M327.837,7.062h-6.222l2.231-4h-21.3l-3.687,7.961-1.823-3.961h-2.15l-1.841-4H255.876l.161,12.245-4.62-8.245h-1.749l-2.242-4H227.92l-.237,28.516L223.014,6.972h-3.232l-.759-4H190.051l-2.066,10.943-.046-6.9h-3.965l-.026-4H140.005L140,6.971h-1.224l-.141-4H118.378L116.75,8.736l-.5-1.765H113.39l-1.129-4H92.053L91.91,7.018H90.637l0-4H47.309V7.024l-.34,0-.049-4.044-43.04.479L4.19,52.708l3.966.029.025,3.971,43.082.321V52.875H51.3v4H94.581v-.046h17.982l.059-3.355h13.421l.066,3.355h18.271l-.007-.177,18.4,0L162.5,42.958l15.58.042,5.617-6.388-3.063,16.217h4.747l-.756,4h19.121L205.3,46.136l2.981-.035.85,6.728h3.486l.5,4h19.355l-.033-.178h17.48l-.187-14.441,6.519,10.441h1.494l2.5,4h17.491l.438-42.064,10.578,18.974-.566,19.179h4.109l-.118,4h19.168l-.515-19.176ZM142.992,6.018h37.981l.007,1,.04,6,.09,13.461L172.741,36l-17.285-.046.272,13.7H142.9l.069-32.842ZM110,5.971l.282,1L115.32,24.82l2.986-10.576,2.336-8.273h15.1l.035,1,.212,6,1.3,36.858H125.053l-.269-13.775-.145-7.371-4.091,17.791h-10.46l-3.1-13.48L106,28.683l-.366,21.146H93.4l1.228-34.836.318-9.022ZM47.309,38.563h-.037V34.526l-20.82.194-.087-9.057,2.721-.04-.032,2.287H33.1l-.056,4H47.309ZM8.137,49.737l-.973-.007L6.891,6.43l37.071-.413.013,1.044.072,6,.144,11.849h-12.1l.076-5.332.015-1.057-12.828.185.183,19.078.96-.009,5.985-.056,17.8-.165V50.006l-30.155-.224Zm43.126.139H50.3V6.018H87.645v1l-.006,6L87.6,49.876H51.263Zm160.971-.047h-.468l-.476-3.764-.757-5.991-.132-1.045-11.689.138-1.546,10.662H184.249L187.577,32.2l.511-2.7L192.53,5.972h24.016l.19,1,1.138,6,6.993,36.857H212.235Zm31.31-23.184-.966-1.547.318,24.553H230.526l.025-2.959.338-40.63h14.784l.561,1,12.994,23.185-.125-9.469-.195-14.716h12.327l-.01,1-.063,6-.381,36.589H257.911Zm47.723,23.1.415-14.077.084-2.842L278.236,8.549l-.829-1.487-.558-1h14.286l.46,1L297.777,20.5l2.732-5.9,3.953-8.537h14.282l-.558,1-3.345,6L303.823,32.821l.455,16.919h-13.01Z" transform="translate(0)"/>
  <path id="パス_858" data-name="パス 858" d="M44.371,38.591V37.554l-17.84.165-6,.056-.961.009-.183-19.078,12.857-.185-.015,1.058-.076,5.331H44.283l-.144-11.849-.072-6-.013-1.044L6.9,6.43l.274,43.3.975.007,6,.045,30.225.224V38.591Z" fill="#ff9509"/>
  <path id="パス_859" data-name="パス 859" d="M50.408,6.99V49.876H87.792l.038-36.858.006-6v-1H50.408ZM75.482,18.925V37.831H62.762V17.925h12.72Z" fill="#ff9509"/>
  <path id="パス_860" data-name="パス 860" d="M136.08,6.971l-.035-1H120.909l-2.342,8.273L115.575,24.82,110.524,6.971l-.283-1H95.151l-.319,9.022L93.6,49.829h12.264l.367-21.146.993,4.311,3.107,13.48h10.484l4.1-17.791.144,7.371.271,13.775H137.6l-1.3-36.858Z" transform="translate(-0.217)" fill="#ff9509"/>
  <path id="パス_861" data-name="パス 861" d="M181.386,7.018l-.007-1H143.311l-.022,10.792-.069,32.842h12.856l-.273-13.7L173.128,36l8.388-9.517-.09-13.461ZM169.07,22.023l-2.123,2.356-.156.173H155.848V17.379h13.131l.02,1Z" transform="translate(-0.327)" fill="#ff9509"/>
  <path id="パス_862" data-name="パス 862" d="M217.223,6.973l-.19-1H192.962L188.51,29.5,188,32.2l-3.336,17.628h12.947l1.55-10.662,11.716-.138.132,1.045.759,5.992.477,3.763h13.13l-7.009-36.856ZM208.91,27.112l.1.559-.191,0-6.1.106-1.638.029,1.732-10.253h4.468l.171,1Z" transform="translate(-0.424)" fill="#ff9509"/>
  <path id="パス_863" data-name="パス 863" d="M259.688,20.778l.125,9.469L246.789,7.062l-.562-1H231.409l-.339,40.629-.025,2.96h12.4L243.126,25.1l.969,1.547,14.4,23.006h12.9l.382-36.589.063-6,.01-1H259.493Z" transform="translate(-0.531)" fill="#ff9509"/>
  <path id="パス_864" data-name="パス 864" d="M305.15,6.062,301.188,14.6l-2.738,5.9-6.2-13.437-.461-1H277.474l.559,1,.831,1.487,13.562,24.272-.084,2.842-.416,14.077h13.04l-.456-16.919,11.043-19.759,3.353-6,.559-1Z" transform="translate(-0.742)" fill="#ff9509"/>
</svg>
