<svg id="CONTACT" xmlns="http://www.w3.org/2000/svg" width="363" height="60" viewBox="0 0 363 60">
  <rect id="長方形_1103" data-name="長方形 1103" width="363" height="60" fill="none"/>
  <path id="パス_865" data-name="パス 865" d="M321.313,7.561h-3.991v-4H270.306V7.525l-.476.005-.05-4.043-43.04.465.185,28.657L222.044,7.466H218.83l-.776-4H189.1L188.02,9.054V7.561h-3.991v-4H118.711l.163,12.088-4.636-8.088h-1.7l-2.293-4H90.763l-.034,3.955H90.6l0-4H47.274v4.01l-.342,0-.05-4.043-43.04.465.316,48.27,3.965.029.026,3.971,43.079.311V52.378h.038v4H94.549v-.226h18.21l-.19-14.235,6.542,10.235h1.434l2.557,4h17.467l.378-35.491H141v4h10.445L150.97,52.38h4.06l-.069,4h19.145l-.546-31.719H185l-5.346,27.667h4.764l-.773,4h19.128l1.551-10.453,3.008-.035.839,6.488h3.474l.517,4h19.362l-.02-.1,42.614.308-.006-18.224-3.99.036V34.309l-20.819.189-.084-8.623,2.72-.037-.031,2.146h4.049l-.058,4h18.171l-.14-11.323h.363v4h10.446l-.477,27.719h4.06l-.069,4H307.4l-.547-31.719h14.458ZM47.274,38.348h-.038V34.313l-20.82.189-.084-8.624,2.717-.039-.031,2.145h4.049l-.058,4H47.274ZM8.1,49.25l-.972-.007L6.854,6.92l37.072-.4.013,1.042.074,6,.142,11.423h-12.1l.076-5.189.015-1.056-12.827.18L19.5,37.565l.958-.009,5.986-.054,17.8-.162V49.512L14.09,49.293Zm43.124.128h-.96V6.516H87.612v1l-.006,6-.038,35.862H51.227Zm55.154-22.707-.965-1.509.318,23.991H93.364l.358-41.637.008-.955h14.784l.574,1,12.976,22.633L121.94,21l-.2-14.435h12.327l-.011,1-.064,6-.379,35.592h-12.87ZM154.015,49.38l.425-24.719.1-6,.017-1H140V6.561h41.03v11.1H166.525l.546,31.719H154.015Zm57.247-.052h-.455l-.455-3.523-.775-5.991-.135-1.044-11.69.135-1.546,10.423H183.288l8.281-42.862h24.018l.195,1,1.164,6,6.963,35.862H211.262Zm19.474,2.921.279,0,.01,1.485Zm18.6-14.751,17.8-.162v1.036l0,6,0,5.14-30.156-.219L231,49.25l-.843-.006h-.129l0-.684L229.752,6.92l37.072-.4.013,1.042.074,6,.142,11.423h-12.1l.076-5.191.015-1.054-12.83.176.183,18.645.958-.009ZM287.309,49.38l.425-24.719.1-6,.017-1H273.3V6.561h41.03v11.1h-14.51l.546,31.719H287.309Z"/>
  <path id="パス_866" data-name="パス 866" d="M69.731,37.6h5.721V18.153H62.731V37.6h7Zm2.721-3H69.731V25.153h2.721Z" transform="translate(-0.133)"/>
  <path id="パス_867" data-name="パス 867" d="M206.5,18.793l-.175-1h-4.468l-1.733,10.019,1.652-.028,6.107-.1.174,0-.088-.5Z" transform="translate(-0.417)"/>
  <path id="パス_868" data-name="パス 868" d="M44.338,38.376V37.34L26.5,37.5l-6,.055-.96.008-.183-18.644,12.857-.18L32.2,19.8l-.076,5.19H44.249l-.142-11.423-.074-6L44.02,6.521l-37.159.4.278,42.323.974.007,6,.043,30.226.219V38.376Z" fill="#f4b"/>
  <path id="パス_869" data-name="パス 869" d="M50.376,7.494V49.379H87.763L87.8,13.516l.006-6v-1H50.376ZM75.452,19.153V37.6H62.731V18.153H75.452Z" fill="#f4b"/>
  <path id="パス_870" data-name="パス 870" d="M122.215,21l.125,9.2L109.333,7.561l-.574-1H93.939l-.008.956-.359,41.637h12.4l-.32-23.991.967,1.509,14.4,22.482h12.9l.38-35.593.064-6,.01-1H122.02Z" transform="translate(-0.215)" fill="#f4b"/>
  <path id="パス_871" data-name="パス 871" d="M140.324,7.561v10.1h14.59l-.017,1-.1,6-.426,24.718h13.086L166.9,17.661h14.545V6.561H140.324Z" transform="translate(-0.323)" fill="#f4b"/>
  <path id="パス_872" data-name="パス 872" d="M216.275,7.466l-.195-1H192.006l-8.3,42.862h12.949l1.55-10.423,11.717-.135.135,1.044.777,5.991.456,3.523h13.131l-6.979-35.862Zm-8.309,19.713.087.5-.174,0-6.106.1-1.653.028,1.733-10.019h4.468l.176,1Z" transform="translate(-0.422)" fill="#f4b"/>
  <path id="パス_873" data-name="パス 873" d="M267.75,38.373V37.337l-17.84.161-6,.055-.96.008-.183-18.645,12.86-.175-.016,1.054-.075,5.191h12.132l-.142-11.423-.074-6-.013-1.043-37.159.4.269,41.639.005.684h.128l.846.006,6,.043,30.227.219,0-5.14Z" transform="translate(-0.524)" fill="#f4b"/>
  <path id="パス_874" data-name="パス 874" d="M273.929,6.561v11.1h14.59l-.017,1-.1,6-.426,24.718h13.086l-.547-31.719h14.544V6.561Z" transform="translate(-0.742)" fill="#f4b"/>
</svg>
