<svg id="CONTACT" xmlns="http://www.w3.org/2000/svg" width="360" height="60" viewBox="0 0 360 60">
  <rect id="長方形_1098" data-name="長方形 1098" width="360" height="60" fill="none"/>
  <path id="パス_821" data-name="パス 821" d="M66.4,54.959,29.2,54.69l-.278-42.323,37.159-.4.229,18.465H54.181l.091-6.245-12.857.18L41.6,43.012l24.8-.225Z"/>
  <path id="パス_822" data-name="パス 822" d="M72.436,54.825V11.963h37.432l-.045,42.862ZM84.791,43.051H97.512V23.6H84.791Z"/>
  <path id="パス_823" data-name="パス 823" d="M127.714,30.609l.319,23.991h-12.4L116,12.008h14.819L144.4,35.641l-.32-23.633h12.356L155.981,54.6h-12.9Z"/>
  <path id="パス_824" data-name="パス 824" d="M162.384,12.008H203.51v11.1H188.965l.547,31.719H176.426l.547-31.719h-14.59Z"/>
  <path id="パス_825" data-name="パス 825" d="M205.767,54.775l8.3-42.862h24.074l8.341,42.862H233.351l-1.368-10.558-11.717.135-1.55,10.423Zm16.414-21.516,7.933-.135-1.732-9.884h-4.468Z"/>
  <path id="パス_826" data-name="パス 826" d="M289.814,54.959l-37.2-.269-.274-42.323,37.159-.4.229,18.465H277.6l.091-6.245-12.86.176.183,18.645,24.8-.225Z"/>
  <path id="パス_827" data-name="パス 827" d="M295.989,12.008h41.126v11.1H322.571l.547,31.719H310.032l.547-31.719h-14.59Z"/>
  <path id="パス_828" data-name="パス 828" d="M63.4,51.956l-37.2-.269L25.918,9.364l37.159-.4.229,18.465H51.178l.091-6.245-12.857.18.183,18.645,24.8-.225Z" fill="#fff"/>
  <path id="パス_829" data-name="パス 829" d="M69.433,51.822V8.96h37.432l-.045,42.862ZM81.788,40.048H94.509V20.6H81.788Z" fill="#fff"/>
  <path id="パス_830" data-name="パス 830" d="M124.711,27.606,125.03,51.6h-12.4L113,9.005h14.819L141.4,32.638l-.32-23.633h12.356L152.978,51.6h-12.9Z" fill="#fff"/>
  <path id="パス_831" data-name="パス 831" d="M159.381,9.005h41.126v11.1H185.962l.547,31.719H173.423l.547-31.719H159.38Z" fill="#fff"/>
  <path id="パス_832" data-name="パス 832" d="M202.764,51.772l8.3-42.862h24.074l8.341,42.862H230.348L228.98,41.214l-11.717.135-1.55,10.423Zm16.414-21.516,7.933-.135-1.732-9.884h-4.468Z" fill="#fff"/>
  <path id="パス_833" data-name="パス 833" d="M286.811,51.956l-37.2-.269-.274-42.323,37.159-.4.229,18.465H274.593l.091-6.245-12.86.176.183,18.645,24.8-.225Z" fill="#fff"/>
  <path id="パス_834" data-name="パス 834" d="M292.986,9.005h41.126v11.1H319.568l.547,31.719H307.029l.547-31.719h-14.59Z" fill="#fff"/>
</svg>
