<svg id="logo" xmlns="http://www.w3.org/2000/svg" xmlns:xlink="http://www.w3.org/1999/xlink" width="233" height="60" viewBox="0 0 233 60">
  <defs>
    <clipPath id="clip-path">
      <rect id="長方形_1117" data-name="長方形 1117" width="233" height="60" fill="none"/>
    </clipPath>
  </defs>
  <g id="グループ_212" data-name="グループ 212" clip-path="url(#clip-path)">
    <path id="パス_899" data-name="パス 899" d="M235.993,36.656h-6.482V26.888a4.692,4.692,0,0,0-4.692-4.692h-12.33a4.692,4.692,0,0,0-4.692,4.692V36.42H177.621V33.6c.011-.131.02-.262.02-.4V25.7A4.692,4.692,0,0,0,172.95,21h-7.507c-.155,0-.308.009-.459.023-.151-.015-.3-.023-.459-.023h-7.507a4.677,4.677,0,0,0-3.3,1.363,4.68,4.68,0,0,0-1.241-.171h-12.33a5.893,5.893,0,0,0-2.707.666A6.444,6.444,0,0,0,132.9,21h-7.507c-.155,0-.308.009-.459.023-.151-.015-.3-.023-.459-.023h-7.507a4.692,4.692,0,0,0-4.692,4.692v.647A4.693,4.693,0,0,0,108.282,23L96.025,21.665a4.692,4.692,0,0,0-5.173,4.156L87.8,52.687a1.874,1.874,0,0,0-1.254-.766l-1.37-.2L70.746,24.638a4.7,4.7,0,0,0-.864-1.151L69.59,23.2c-.932-.912-4.1-1.006-5.435-1.006H54.39a4.946,4.946,0,0,0-4.048,2.013c-1.263,1.9-3.449,9.867-3.449,9.867l-2.862-8.6a4.929,4.929,0,0,0-4.721-3.28H21.859a5.016,5.016,0,0,0-4.216,2.233,4.479,4.479,0,0,0-.2,4.573L37.076,65.868a4.987,4.987,0,0,0,4.42,2.578h11a4.929,4.929,0,0,0,4.723-3.285l1.245-3.754h2.509l1.369,3.847a4.937,4.937,0,0,0,4.691,3.192H83.935a11.039,11.039,0,0,0,4.736-1.489,4.4,4.4,0,0,0,1.908.677l12.69,1.386a4.756,4.756,0,0,0,.514.028,4.693,4.693,0,0,0,4.658-4.184l3.525-29.113c.089.8.222,1.568.263,1.934l3.073,27.2a4.692,4.692,0,0,0,4.656,4.165,4.754,4.754,0,0,0,.514-.028l12.258-1.335a7.61,7.61,0,0,0,3.337-1.082,5.309,5.309,0,0,0,4.075,1.885h31.48a4.692,4.692,0,0,0,4.692-4.692V56.405H207.8V63.8a4.692,4.692,0,0,0,4.692,4.692h12.33a4.692,4.692,0,0,0,4.692-4.692V56.59h6.482a4.692,4.692,0,0,0,4.692-4.692V41.347a4.692,4.692,0,0,0-4.692-4.692M87.515,55.19l-.086.762-.238-.446Z" transform="translate(-10.562 -13.121)"/>
    <path id="パス_900" data-name="パス 900" d="M225.983,26.646H219.5V16.879a4.692,4.692,0,0,0-4.692-4.692h-12.33a4.692,4.692,0,0,0-4.692,4.692v9.531H167.612V23.589c.011-.13.02-.262.02-.395V15.688A4.692,4.692,0,0,0,162.94,11h-7.507c-.155,0-.308.008-.459.023-.151-.015-.3-.023-.459-.023h-7.507a4.674,4.674,0,0,0-3.3,1.363,4.685,4.685,0,0,0-1.241-.171h-12.33a5.9,5.9,0,0,0-2.707.665A6.443,6.443,0,0,0,122.889,11h-7.507c-.155,0-.308.008-.459.023-.151-.015-.3-.023-.459-.023h-7.507a4.692,4.692,0,0,0-4.692,4.692v.647a4.692,4.692,0,0,0-3.994-3.343L86.015,11.656a4.692,4.692,0,0,0-5.172,4.157L77.8,42.616c-.015,0-.03-.008-.046-.01l-4.568-.664L58.856,15.05a4.689,4.689,0,0,0-.864-1.15l-.292-.285a5.087,5.087,0,0,0-3.555-1.427H44.381A4.945,4.945,0,0,0,40.333,14.2c-1.263,1.9-3.449,9.867-3.449,9.867l-2.862-8.6A4.929,4.929,0,0,0,29.3,12.187H11.849a5.015,5.015,0,0,0-4.216,2.233,4.478,4.478,0,0,0-.2,4.573L27.066,55.859a4.987,4.987,0,0,0,4.42,2.577h11a4.93,4.93,0,0,0,4.723-3.285L48.451,51.4H50.96l1.369,3.847a4.937,4.937,0,0,0,4.691,3.192H73.926a5.026,5.026,0,0,0,4.059-2.023,4.406,4.406,0,0,0,2.585,1.212l12.69,1.386a4.854,4.854,0,0,0,.514.028,4.692,4.692,0,0,0,4.658-4.184l3.526-29.113c.089.8.222,1.568.263,1.934l3.072,27.2a4.692,4.692,0,0,0,4.656,4.166,4.854,4.854,0,0,0,.514-.028l12.257-1.335a7.607,7.607,0,0,0,3.337-1.082,5.309,5.309,0,0,0,4.075,1.886h31.48a4.692,4.692,0,0,0,4.692-4.692V46.4h31.482v7.392a4.692,4.692,0,0,0,4.692,4.692h12.33a4.692,4.692,0,0,0,4.692-4.692V46.581h6.482a4.692,4.692,0,0,0,4.692-4.692V31.338a4.692,4.692,0,0,0-4.692-4.692" transform="translate(-4.309 -6.869)" fill="#fff"/>
    <rect id="長方形_1111" data-name="長方形 1111" width="23.288" height="6.845" transform="translate(165.993 26.112)" fill="#ad06de"/>
    <rect id="長方形_1112" data-name="長方形 1112" width="3.753" height="3.753" transform="translate(104.526 10.696)" fill="#ff4f12"/>
    <path id="パス_901" data-name="パス 901" d="M278.481,28.5h0v0Z" transform="translate(-173.955 -17.8)" fill="#ff4f12"/>
    <rect id="長方形_1113" data-name="長方形 1113" width="3.753" height="3.753" transform="translate(112.95 10.696)" fill="#ff4f12"/>
    <path id="パス_902" data-name="パス 902" d="M310.925,32.249h0v0Z" transform="translate(-194.222 -17.8)" fill="#ff4f12"/>
    <path id="パス_903" data-name="パス 903" d="M541.548,46.13V31.671h-8.577V64.827h8.577v-11.9h11.174v-6.8Z" transform="translate(-332.925 -19.784)" fill="#ff069a"/>
    <path id="パス_904" data-name="パス 904" d="M82.05,67.2h5.923l1.712-5.162H88.324v-9.2h4.411l2.625-7.915-2.98-9.386Z" transform="translate(-51.253 -22.195)" fill="#ff069a"/>
    <path id="パス_905" data-name="パス 905" d="M367.953,46.764V41.132H348.8V31.671h-8.577V64.826h27.727V56.25H350.679v.021H348.8V46.764Z" transform="translate(-212.525 -19.783)" fill="#0093e5"/>
    <path id="パス_906" data-name="パス 906" d="M113.195,31.671,124.84,64.784h5.936l.248-1.448L129.3,61.651l-2.656-2.589,3.67-.533,2.388-.347.5-1.014-13.492-25.5Z" transform="translate(-70.708 -19.783)" fill="#0093e5"/>
    <path id="パス_907" data-name="パス 907" d="M168.737,104.92h0l-.341.691Z" transform="translate(-105.19 -65.539)" fill="#0093e5"/>
    <path id="パス_908" data-name="パス 908" d="M112.588,86.626h-8.546v5.447h10.531l-1.981-5.447Z" transform="translate(-64.991 -54.112)" fill="#ff4f12"/>
    <path id="パス_909" data-name="パス 909" d="M437.241,75.167h27.045v-10.6H437.241Zm1.878-8.724h23.288v6.845H439.119Z" transform="translate(-273.126 -40.331)"/>
    <path id="パス_910" data-name="パス 910" d="M540.3,41.13V26.671h-12.33V63.58H540.3v-11.9h11.174V41.13Zm9.3,8.674H538.425V61.7h-8.577V28.548h8.577V43.007H549.6Z" transform="translate(-329.802 -16.66)"/>
    <path id="パス_911" data-name="パス 911" d="M205.682,61.874l12.258,1.335,4-36.692-12.257-1.335Zm14.185-33.694-3.59,32.961-8.526-.929,3.591-32.96Z" transform="translate(-128.481 -15.73)"/>
    <path id="パス_912" data-name="パス 912" d="M273.282,51.811l3.073,27.2,12.257-1.335-3.072-27.2Zm4.735,25.129-2.666-23.466,8.526-.929,2.666,23.466Z" transform="translate(-170.708 -31.53)"/>
    <path id="パス_913" data-name="パス 913" d="M347.556,26.671h-12.33V63.58h31.48V51.25h-19.15V45.518h19.152V36.132H347.556ZM364.83,38.009v5.632h-19.15v9.506h1.877v-.021H364.83V61.7H337.1V28.548h8.577v9.461Z" transform="translate(-209.402 -16.66)"/>
    <path id="パス_914" data-name="パス 914" d="M279.111,31h1.877V23.5h-7.507V31h5.63Zm-3.753-5.63h3.753v3.753h-3.753Z" transform="translate(-170.832 -14.677)"/>
    <path id="パス_915" data-name="パス 915" d="M297.8,23.5h-1.877V31h7.507V23.5H297.8Zm3.753,5.63H297.8V25.373h3.753Z" transform="translate(-184.853 -14.677)"/>
    <path id="パス_916" data-name="パス 916" d="M385.816,31h1.877V23.5h-7.507V31h5.63Zm-3.753-5.63h3.753v3.753h-3.753Z" transform="translate(-237.486 -14.677)"/>
    <path id="パス_917" data-name="パス 917" d="M404.508,23.5h-1.877V31h7.507V23.5h-5.63Zm3.753,5.63h-3.753V25.373h3.753Z" transform="translate(-251.507 -14.677)"/>
    <path id="パス_918" data-name="パス 918" d="M79.957,55.059l-2.71-5.489-1.213,2.458L62.529,26.671H52.706L45.122,49.457,37.539,26.671H20.088L39.725,63.537h11L53.055,56.5h9.7l2.506,7.039h7.035l-.465,2.709,5.153-2.709h.531l5.153,2.709-1.035-6.034,4.383-4.273Zm-39.239,6.6L23.624,28.548H36.087l7.992,24.014-2.8,9.1Zm8.55,0H43.345L53.675,30l2.98,9.386L54.031,47.3H49.619v9.2H50.98Zm8.145-18.3.319-.962.342.962,1.4,3.941H56.106Zm4.672,11.264H51.6V49.175H60.15l1.981,5.446Zm4.6,7.039L55.035,28.548h6.512l13.492,25.5-.5,1.014-2.388.347-3.67.533,2.656,2.589,1.727,1.684-.248,1.448ZM80.873,58.4l-.953.929-.256.249.571,3.327-2.358-1.24-.63-.331-.629.331L74.26,62.9l.213-1.24.358-2.087L73.623,58.4l-1.209-1.178,2.227-.324,1.113-.162.341-.691,1-2.024.154-.312,1.494,3.027,1.67.242,1.67.243Z" transform="translate(-12.548 -16.66)"/>
    <rect id="長方形_1114" data-name="長方形 1114" width="33.155" height="8.576" transform="translate(79.27 44.481) rotate(-83.784)" fill="#ffda00"/>
    <path id="パス_919" data-name="パス 919" d="M278.794,56.917l2.666,23.466,8.526-.929L287.32,55.988Z" transform="translate(-174.151 -34.974)" fill="#ffda00"/>
    <rect id="長方形_1115" data-name="長方形 1115" width="3.753" height="3.753" transform="translate(144.576 10.696)" fill="#ffda00"/>
    <rect id="長方形_1116" data-name="長方形 1116" width="3.753" height="3.753" transform="translate(153.001 10.696)" fill="#ffda00"/>
    <path id="パス_920" data-name="パス 920" d="M29.508,31.671,46.6,64.784h.563l2.8-9.1L41.972,31.671Z" transform="translate(-18.433 -19.783)" fill="#ffda00"/>
    <path id="パス_921" data-name="パス 921" d="M165.825,101.724,164.332,98.7l-1.494,3.026-3.34.485,2.417,2.356-.571,3.327,2.987-1.57,2.987,1.57-.571-3.327,2.417-2.356Z" transform="translate(-99.632 -61.653)" fill="#ffda00"/>
  </g>
</svg>
