<svg id="text2" xmlns="http://www.w3.org/2000/svg" xmlns:xlink="http://www.w3.org/1999/xlink" width="1112" height="150" viewBox="0 0 1112 150">
  <defs>
    <clipPath id="clip-path">
      <rect id="長方形_6598" data-name="長方形 6598" width="1112" height="150" fill="none"/>
    </clipPath>
  </defs>
  <g id="グループ_15966" data-name="グループ 15966" clip-path="url(#clip-path)">
    <path id="パス_67285" data-name="パス 67285" d="M118.625,79.962l24.213-1.474-.47-7.72,11.58-.7.47,7.72,16.9-1.029.663,10.878-16.9,1.029.492,8.071a21.026,21.026,0,0,1,3.179,13.66,18.456,18.456,0,0,1-2.387,7.072,16.222,16.222,0,0,1-5.129,5.42,30.225,30.225,0,0,1-15.723,5.947L129.276,118q8.458.073,16.432-5.872a11.026,11.026,0,0,1-8.442,1.629,11.818,11.818,0,0,1-6.689-4.289,10.17,10.17,0,0,1-2.208-6.851,10.533,10.533,0,0,1,2.617-6.675,14.011,14.011,0,0,1,12.635-4.585l-.121-1.989L119.287,90.84ZM141.5,100.935a1.638,1.638,0,0,0-.753,2.1,1.549,1.549,0,0,0,1.723,1.3,3.328,3.328,0,0,0,2.528-.917,1.35,1.35,0,0,0,.65-1.859,1.544,1.544,0,0,0-1.6-1.253,6.035,6.035,0,0,0-2.545.625m22.872,5.417a60.138,60.138,0,0,0-6.461-7.767l4.935-4.761a20.066,20.066,0,0,1,6.924,7.679Zm6.825-5.523a74.448,74.448,0,0,0-7.487-8.232l5.011-4.473a59.418,59.418,0,0,1,7.162,7.724Z" fill="#fff"/>
    <path id="パス_67286" data-name="パス 67286" d="M183.583,90.155a64.925,64.925,0,0,1,29.158-8,16.1,16.1,0,0,1,15.867,10.892,15.585,15.585,0,0,1,.031,10.154,16.218,16.218,0,0,1-6.015,8.232,45.429,45.429,0,0,1-21.6,7.772l-4.731-10.219a58.931,58.931,0,0,0,19.313-4.816,6.041,6.041,0,0,0,3.283-6.833,5.453,5.453,0,0,0-2.141-3.333,6.158,6.158,0,0,0-3.835-1.293,39.652,39.652,0,0,0-24.047,7.1Z" fill="#fff"/>
    <path id="パス_67287" data-name="パス 67287" d="M291.89,116.2a96,96,0,0,1-35.424,2.45,16.816,16.816,0,0,1-8.027-4.09,17.067,17.067,0,0,1-4.871-7.687,16.665,16.665,0,0,1-.318-9.079,16.345,16.345,0,0,1,4.538-7.908,29.434,29.434,0,0,1,10.332-6.734L257.027,65.2l11.81-.778.965,15.85a126.935,126.935,0,0,1,16.58-2.477l.758,12.457a137.709,137.709,0,0,0-25.722,5.617,5.814,5.814,0,0,0-3.251,2.516,6.023,6.023,0,0,0-.93,4.019,5.828,5.828,0,0,0,1.955,3.668,5.765,5.765,0,0,0,3.819,1.5,123.787,123.787,0,0,0,28.057-2.941Z" fill="#fff"/>
    <path id="パス_67288" data-name="パス 67288" d="M304.179,46.882l66.064-8.891,1.97,14.637a115.429,115.429,0,0,1,.809,22.768,36.684,36.684,0,0,1-10.653,24.391,55.374,55.374,0,0,1-30.758,15.658L321.665,101.4a59.929,59.929,0,0,0,21.425-7.8,28.7,28.7,0,0,0,9.6-9.469A29.2,29.2,0,0,0,357,71.269a55.222,55.222,0,0,0-1-14.606l-33.942,4.568,2.652,19.7-15.666,2.108Z" fill="#9134ce"/>
    <path id="パス_67289" data-name="パス 67289" d="M387.555,85.227a55.588,55.588,0,0,0,22.12-34.956l16.607.1-1.175,5.636,31.964-4.3a93.408,93.408,0,0,1-7.964,44.973,66.217,66.217,0,0,1-37.754,31.9l-13.748-12.971q19.693-4.5,32.35-21.189a52.585,52.585,0,0,0,8.67-23.56L419,73.5a68.324,68.324,0,0,1-18.979,23.579Z" fill="#9134ce"/>
    <path id="パス_67290" data-name="パス 67290" d="M466.215,25.076l66.065-8.891,1.97,14.637a115.428,115.428,0,0,1,.808,22.768,36.683,36.683,0,0,1-10.653,24.391,55.374,55.374,0,0,1-30.758,15.658L483.7,79.592a59.926,59.926,0,0,0,21.425-7.8,28.709,28.709,0,0,0,9.6-9.468,29.223,29.223,0,0,0,4.31-12.864,55.223,55.223,0,0,0-1-14.606L484.1,39.424l2.651,19.7-15.666,2.108Z" fill="#9134ce"/>
    <path id="パス_67291" data-name="パス 67291" d="M551.054,74.283a54.929,54.929,0,0,0,14.412-15.311,55.152,55.152,0,0,0,7.708-19.645l16.607.1L588.6,45.064l31.965-4.3A93.42,93.42,0,0,1,612.6,85.735a66.219,66.219,0,0,1-37.753,31.9L561.1,104.668q19.692-4.5,32.349-21.189a52.6,52.6,0,0,0,8.67-23.56l-19.62,2.64a68.35,68.35,0,0,1-18.98,23.579Z" fill="#9134ce"/>
    <path id="パス_67292" data-name="パス 67292" d="M644.87,40.88l11.405-.694,2.207,36.261a6.678,6.678,0,0,0,4.209,5.5,7.048,7.048,0,0,0,6.949-.6A31.564,31.564,0,0,0,682.2,62.969l9.178,9.009A46.307,46.307,0,0,1,670.645,94.96a16.492,16.492,0,0,1-11.845-.276,17.159,17.159,0,0,1-8.953-7.732,17.62,17.62,0,0,1-2.691-8.524Z" fill="#fff"/>
    <path id="パス_67293" data-name="パス 67293" d="M700.347,51.532l3.64-8.674,1.11.871a26.84,26.84,0,0,0,2.662-7.382l7.27,1.788A51.032,51.032,0,0,1,711.114,50l1.124,1.106a60.623,60.623,0,0,0,4.107-10.64l6.328,3.665-.317-5.2,10.41-.634-.21-3.451,9.767-.6.211,3.451,10.936-.666.577,9.475-10.937.666.1,1.637,9.007-.548.434,7.135L724.637,57.1l.746,1.657L754.8,56.964l.89,14.621-8.247.5.5,8.247a1.155,1.155,0,0,0,.649,1.017.937.937,0,0,0,1.17-.072,1.179,1.179,0,0,0,.462-1.084l-.313-5.147L757.2,77.07l.53,8.714a5.24,5.24,0,0,1-1.467,3.377,5.071,5.071,0,0,1-3.336,1.612l-7.72.47a4.612,4.612,0,0,1-3.418-1.172,4.9,4.9,0,0,1-1.721-3.211L738.95,68.5l6.374-.388-.11-1.813-10.878.662.11,1.813L737.2,68.6l-.017,8.4a15.85,15.85,0,0,1-2.523,8.695,16.217,16.217,0,0,1-6.624,5.951L723.7,86.976l-3.02.536L719.7,71.428l3.181-.78-.626-1.606-4.5.391,1.453,23.862-7.661.467-1.439-23.628-8.057.725-.569-9.358,5.6-.575a33.328,33.328,0,0,0-6.736-9.394m2.9,20.6,5.388-.21a81.154,81.154,0,0,1,.528,19.281l-5.941-1.165a89.224,89.224,0,0,0,.025-17.906M715.6,60l3.268-.316a19.112,19.112,0,0,0-1.176-2.922A20.378,20.378,0,0,1,715.6,60m3.878-6.693,2.936-.942q1.167,1.809,2.3,3.969l-.388-6.375,9.124-.555-.1-1.638-10.527.641-.167-2.748q-1.785,4.454-3.174,7.648m4.132,16.772.737,12.106a6.353,6.353,0,0,0,3.995-4.763l.332-4.188-3.333.2-.228-3.743Z" fill="#fff"/>
    <path id="パス_67294" data-name="パス 67294" d="M766.2,86.032a170.526,170.526,0,0,1-3.182-50.349l11.476-.464a140.848,140.848,0,0,0,3.186,48.47ZM776.614,45.95l15.5-.944-.734-12.048,11.346-.69.734,12.048,10-.609.713,11.7-10,.609.762,12.516a18.484,18.484,0,0,1-10.945,16.926,31.054,31.054,0,0,1-9.115,2.61L778.3,77.605a44.432,44.432,0,0,0,8.513-1.927,10.368,10.368,0,0,0,4.94-4.175,10.261,10.261,0,0,0,1.589-6.2l-.522-8.6-15.5.943Z" fill="#fff"/>
    <path id="パス_67295" data-name="パス 67295" d="M834.367,29.4l11.1.029q-.082,5.407-.189,10.4l8.3-.506.31,5.088a61.221,61.221,0,0,1,18.868-.561l.719,11.814A62.642,62.642,0,0,0,848.711,57.7l-.345-5.673-4.27.26A150.337,150.337,0,0,1,835.428,85.4l-11.385-4.766a134.217,134.217,0,0,0,8.064-27.611l-8.422.512-.751-12.34,10.819-.659q.481-4.608.614-11.132m40.021,39.3,1.538,11.764a57.475,57.475,0,0,1-24.411,2.073A8.809,8.809,0,0,1,846.2,80.1a9.076,9.076,0,0,1-2.715-5.059,23.983,23.983,0,0,1,.78-12.258l11.123,1.436a6.14,6.14,0,0,0-.424,4.605,2.607,2.607,0,0,0,2.54,2.193A47.724,47.724,0,0,0,874.388,68.7" fill="#fff"/>
    <path id="パス_67296" data-name="パス 67296" d="M882.051,30.666l12.025-.145a173,173,0,0,0-.125,29.77,2.359,2.359,0,0,0,1.422,2.144,2.294,2.294,0,0,0,2.585.018,30.333,30.333,0,0,0,5.09-4.125l5.414,10.824a29.041,29.041,0,0,1-10.908,7.884,8.7,8.7,0,0,1-5.021.453,9.887,9.887,0,0,1-4.538-2.219,20.414,20.414,0,0,1-5.456-11.526,199.966,199.966,0,0,1-.488-33.078m31.118,4.915,10.87-4.654A73.123,73.123,0,0,1,935.8,64.963l-11.85,3.011a67.539,67.539,0,0,0-10.778-32.393" fill="#fff"/>
    <path id="パス_67297" data-name="パス 67297" d="M118.625,79.962l24.213-1.474-.47-7.72,11.58-.7.47,7.72,16.9-1.029.663,10.878-16.9,1.029.492,8.071a21.026,21.026,0,0,1,3.179,13.66,18.456,18.456,0,0,1-2.387,7.072,16.222,16.222,0,0,1-5.129,5.42,30.225,30.225,0,0,1-15.723,5.947L129.276,118q8.458.073,16.432-5.872a11.026,11.026,0,0,1-8.442,1.629,11.818,11.818,0,0,1-6.689-4.289,10.17,10.17,0,0,1-2.208-6.851,10.533,10.533,0,0,1,2.617-6.675,14.011,14.011,0,0,1,12.635-4.585l-.121-1.989L119.287,90.84ZM141.5,100.935a1.638,1.638,0,0,0-.753,2.1,1.549,1.549,0,0,0,1.723,1.3,3.328,3.328,0,0,0,2.528-.917,1.35,1.35,0,0,0,.65-1.859,1.544,1.544,0,0,0-1.6-1.253,6.035,6.035,0,0,0-2.545.625m22.872,5.417a60.138,60.138,0,0,0-6.461-7.767l4.935-4.761a20.066,20.066,0,0,1,6.924,7.679Zm6.825-5.523a74.448,74.448,0,0,0-7.487-8.232l5.011-4.473a59.418,59.418,0,0,1,7.162,7.724Z" fill="#fff"/>
    <path id="パス_67298" data-name="パス 67298" d="M183.583,90.155a64.925,64.925,0,0,1,29.158-8,16.1,16.1,0,0,1,15.867,10.892,15.585,15.585,0,0,1,.031,10.154,16.218,16.218,0,0,1-6.015,8.232,45.429,45.429,0,0,1-21.6,7.772l-4.731-10.219a58.931,58.931,0,0,0,19.313-4.816,6.041,6.041,0,0,0,3.283-6.833,5.453,5.453,0,0,0-2.141-3.333,6.158,6.158,0,0,0-3.835-1.293,39.652,39.652,0,0,0-24.047,7.1Z" fill="#fff"/>
    <path id="パス_67299" data-name="パス 67299" d="M291.89,116.2a96,96,0,0,1-35.424,2.45,16.816,16.816,0,0,1-8.027-4.09,17.067,17.067,0,0,1-4.871-7.687,16.665,16.665,0,0,1-.318-9.079,16.345,16.345,0,0,1,4.538-7.908,29.434,29.434,0,0,1,10.332-6.734L257.027,65.2l11.81-.778.965,15.85a126.935,126.935,0,0,1,16.58-2.477l.758,12.457a137.709,137.709,0,0,0-25.722,5.617,5.814,5.814,0,0,0-3.251,2.516,6.023,6.023,0,0,0-.93,4.019,5.828,5.828,0,0,0,1.955,3.668,5.765,5.765,0,0,0,3.819,1.5,123.787,123.787,0,0,0,28.057-2.941Z" fill="#fff"/>
    <path id="パス_67300" data-name="パス 67300" d="M304.179,46.882l66.064-8.891,1.97,14.637a115.429,115.429,0,0,1,.809,22.768,36.684,36.684,0,0,1-10.653,24.391,55.374,55.374,0,0,1-30.758,15.658L321.665,101.4a59.929,59.929,0,0,0,21.425-7.8,28.7,28.7,0,0,0,9.6-9.469A29.2,29.2,0,0,0,357,71.269a55.222,55.222,0,0,0-1-14.606l-33.942,4.568,2.652,19.7-15.666,2.108Z" fill="#009fe8"/>
    <path id="パス_67301" data-name="パス 67301" d="M387.555,85.227a55.588,55.588,0,0,0,22.12-34.956l16.607.1-1.175,5.636,31.964-4.3a93.408,93.408,0,0,1-7.964,44.973,66.217,66.217,0,0,1-37.754,31.9l-13.748-12.971q19.693-4.5,32.35-21.189a52.585,52.585,0,0,0,8.67-23.56L419,73.5a68.324,68.324,0,0,1-18.979,23.579Z" fill="#009fe8"/>
    <path id="パス_67302" data-name="パス 67302" d="M466.215,25.076l66.065-8.891,1.97,14.637a115.428,115.428,0,0,1,.808,22.768,36.683,36.683,0,0,1-10.653,24.391,55.374,55.374,0,0,1-30.758,15.658L483.7,79.592a59.926,59.926,0,0,0,21.425-7.8,28.709,28.709,0,0,0,9.6-9.468,29.223,29.223,0,0,0,4.31-12.864,55.223,55.223,0,0,0-1-14.606L484.1,39.424l2.651,19.7-15.666,2.108Z" fill="#009fe8"/>
    <path id="パス_67303" data-name="パス 67303" d="M551.054,74.283a54.929,54.929,0,0,0,14.412-15.311,55.152,55.152,0,0,0,7.708-19.645l16.607.1L588.6,45.064l31.965-4.3A93.42,93.42,0,0,1,612.6,85.735a66.219,66.219,0,0,1-37.753,31.9L561.1,104.668q19.692-4.5,32.349-21.189a52.6,52.6,0,0,0,8.67-23.56l-19.62,2.64a68.35,68.35,0,0,1-18.98,23.579Z" fill="#009fe8"/>
    <path id="パス_67304" data-name="パス 67304" d="M644.87,40.88l11.405-.694,2.207,36.261a6.678,6.678,0,0,0,4.209,5.5,7.048,7.048,0,0,0,6.949-.6A31.564,31.564,0,0,0,682.2,62.969l9.178,9.009A46.307,46.307,0,0,1,670.645,94.96a16.492,16.492,0,0,1-11.845-.276,17.159,17.159,0,0,1-8.953-7.732,17.62,17.62,0,0,1-2.691-8.524Z" fill="#fff"/>
    <path id="パス_67305" data-name="パス 67305" d="M700.347,51.532l3.64-8.674,1.11.871a26.84,26.84,0,0,0,2.662-7.382l7.27,1.788A51.032,51.032,0,0,1,711.114,50l1.124,1.106a60.623,60.623,0,0,0,4.107-10.64l6.328,3.665-.317-5.2,10.41-.634-.21-3.451,9.767-.6.211,3.451,10.936-.666.577,9.475-10.937.666.1,1.637,9.007-.548.434,7.135L724.637,57.1l.746,1.657L754.8,56.964l.89,14.621-8.247.5.5,8.247a1.155,1.155,0,0,0,.649,1.017.937.937,0,0,0,1.17-.072,1.179,1.179,0,0,0,.462-1.084l-.313-5.147L757.2,77.07l.53,8.714a5.24,5.24,0,0,1-1.467,3.377,5.071,5.071,0,0,1-3.336,1.612l-7.72.47a4.612,4.612,0,0,1-3.418-1.172,4.9,4.9,0,0,1-1.721-3.211L738.95,68.5l6.374-.388-.11-1.813-10.878.662.11,1.813L737.2,68.6l-.017,8.4a15.85,15.85,0,0,1-2.523,8.695,16.217,16.217,0,0,1-6.624,5.951L723.7,86.976l-3.02.536L719.7,71.428l3.181-.78-.626-1.606-4.5.391,1.453,23.862-7.661.467-1.439-23.628-8.057.725-.569-9.358,5.6-.575a33.328,33.328,0,0,0-6.736-9.394m2.9,20.6,5.388-.21a81.154,81.154,0,0,1,.528,19.281l-5.941-1.165a89.224,89.224,0,0,0,.025-17.906M715.6,60l3.268-.316a19.112,19.112,0,0,0-1.176-2.922A20.378,20.378,0,0,1,715.6,60m3.878-6.693,2.936-.942q1.167,1.809,2.3,3.969l-.388-6.375,9.124-.555-.1-1.638-10.527.641-.167-2.748q-1.785,4.454-3.174,7.648m4.132,16.772.737,12.106a6.353,6.353,0,0,0,3.995-4.763l.332-4.188-3.333.2-.228-3.743Z" fill="#fff"/>
    <path id="パス_67306" data-name="パス 67306" d="M766.2,86.032a170.526,170.526,0,0,1-3.182-50.349l11.476-.464a140.848,140.848,0,0,0,3.186,48.47ZM776.614,45.95l15.5-.944-.734-12.048,11.346-.69.734,12.048,10-.609.713,11.7-10,.609.762,12.516a18.484,18.484,0,0,1-10.945,16.926,31.054,31.054,0,0,1-9.115,2.61L778.3,77.605a44.432,44.432,0,0,0,8.513-1.927,10.368,10.368,0,0,0,4.94-4.175,10.261,10.261,0,0,0,1.589-6.2l-.522-8.6-15.5.943Z" fill="#fff"/>
    <path id="パス_67307" data-name="パス 67307" d="M834.367,29.4l11.1.029q-.082,5.407-.189,10.4l8.3-.506.31,5.088a61.221,61.221,0,0,1,18.868-.561l.719,11.814A62.642,62.642,0,0,0,848.711,57.7l-.345-5.673-4.27.26A150.337,150.337,0,0,1,835.428,85.4l-11.385-4.766a134.217,134.217,0,0,0,8.064-27.611l-8.422.512-.751-12.34,10.819-.659q.481-4.608.614-11.132m40.021,39.3,1.538,11.764a57.475,57.475,0,0,1-24.411,2.073A8.809,8.809,0,0,1,846.2,80.1a9.076,9.076,0,0,1-2.715-5.059,23.983,23.983,0,0,1,.78-12.258l11.123,1.436a6.14,6.14,0,0,0-.424,4.605,2.607,2.607,0,0,0,2.54,2.193A47.724,47.724,0,0,0,874.388,68.7" fill="#fff"/>
    <path id="パス_67308" data-name="パス 67308" d="M882.051,30.666l12.025-.145a173,173,0,0,0-.125,29.77,2.359,2.359,0,0,0,1.422,2.144,2.294,2.294,0,0,0,2.585.018,30.333,30.333,0,0,0,5.09-4.125l5.414,10.824a29.041,29.041,0,0,1-10.908,7.884,8.7,8.7,0,0,1-5.021.453,9.887,9.887,0,0,1-4.538-2.219,20.414,20.414,0,0,1-5.456-11.526,199.966,199.966,0,0,1-.488-33.078m31.118,4.915,10.87-4.654A73.123,73.123,0,0,1,935.8,64.963l-11.85,3.011a67.539,67.539,0,0,0-10.778-32.393" fill="#fff"/>
  </g>
</svg>
