<svg id="text1" xmlns="http://www.w3.org/2000/svg" xmlns:xlink="http://www.w3.org/1999/xlink" width="1112" height="300" viewBox="0 0 1112 300">
  <defs>
    <clipPath id="clip-path">
      <rect id="長方形_6597" data-name="長方形 6597" width="1112" height="300" fill="none"/>
    </clipPath>
  </defs>
  <g id="グループ_15964" data-name="グループ 15964" clip-path="url(#clip-path)">
    <path id="パス_67263" data-name="パス 67263" d="M44.466,21.077l16.211,3.845a134.41,134.41,0,0,1-8.2,17.964l-.5,8.729a75.84,75.84,0,0,0,15.846-29.2l15.525,2.721q-1.979,6.892-2.289,7.96l26.852,1.533-.893,15.629L84.16,48.949l-.347,6.068,21.033,1.2-.855,14.964-21.032-1.2L82.6,76.3l22.28,1.272-.869,15.214-22.28-1.272-.773,13.55-15.214-.868,2.673-46.8a91.47,91.47,0,0,1-9.2,10.734l-7.634-9.444-2.544,44.56L34.9,102.434,37,65.606q-2.417,2.865-4.359,4.755L27.387,52.88a90.476,90.476,0,0,0,17.079-31.8" fill="#faed00"/>
    <path id="パス_67264" data-name="パス 67264" d="M123.664,51.512l36.8,2.1,2.783,9.843-12.027,7.119a16.953,16.953,0,0,1,12,5.673,16.4,16.4,0,0,1,1.868,19.709,21.093,21.093,0,0,1-7.266,7.508,22.862,22.862,0,0,1-10.019,3.3,38.77,38.77,0,0,1-22.173-4.318,8,8,0,0,1-4.573-7.275,8.272,8.272,0,0,1,1.214-4.3,8.7,8.7,0,0,1,3.32-3.155A21.284,21.284,0,0,1,141.3,85.972a8.814,8.814,0,0,1,4.943,3.363,9.358,9.358,0,0,1,1.8,5.943,9.088,9.088,0,0,0,4.213-1.843,9.513,9.513,0,0,0,2.659-3.4,6.277,6.277,0,0,0-3.9-7.735,26.182,26.182,0,0,0-16.73-.955,42.726,42.726,0,0,0-13.8,7.369L115.5,77.339l25.924-13.075L123,63.212Zm14.443,45.135a2.311,2.311,0,0,0-.786-2.686,5.113,5.113,0,0,0-2.407-1.018,1.41,1.41,0,0,0-1.519.911,1.293,1.293,0,0,0,.433,1.668,12.39,12.39,0,0,0,4.279,1.125" fill="#faed00"/>
    <path id="パス_67265" data-name="パス 67265" d="M203.65,38.452l8.953-.822.49-7.783,15.426-.555-.653,6.939,10.146-.931.516,5.627A85.375,85.375,0,0,0,247.635,29.6l12.473,9.432a85.414,85.414,0,0,1-9.7,12.411,62.713,62.713,0,0,1,12.37,7.378l-8.02,13.8,8.612-.79,1.329,14.5L245.52,88.092a73.14,73.14,0,0,0,20.889,7.456l-7.267,14.51a96.717,96.717,0,0,1-25.529-12.1l1.3,14.154-14.495,1.329-1.283-13.983a77.559,77.559,0,0,1-21.786,15.583l-10.661-13.123A65.613,65.613,0,0,0,205.7,91.744l-18.844,1.729-1.329-14.5,4.945-.454-6.911-15.359a52.651,52.651,0,0,0,11.716-6.319,55.676,55.676,0,0,0-12.682-8.9L191.7,34.732a68.323,68.323,0,0,1,12.418,8.835ZM189.535,78.61l27.456-2.518-.243-2.643-9.805.9L206.4,68.38a104.106,104.106,0,0,1-16.86,10.23m15.109-29.33L201.6,53.6l4.02,6.338Zm14.123-.693L219,51.145l6.053-.556-.234-2.558Zm1.017,11.084.273,2.984,6.054-.555-.274-2.984Zm11.7,15.092,22.424-2.057a70.8,70.8,0,0,0-13.27-8.757L241.3,71.2l-10.061.922Zm7.707-26.588.868,9.464,3.755-5.933Z" fill="#faed00"/>
    <path id="パス_67266" data-name="パス 67266" d="M282.307,59.632l11.407.651-2.071,36.268a6.682,6.682,0,0,0,3.534,5.955,7.053,7.053,0,0,0,6.971.222A31.576,31.576,0,0,0,316.78,85.956l8.055,10.027a46.316,46.316,0,0,1-23.29,20.385,16.5,16.5,0,0,1-11.73-1.668,17.161,17.161,0,0,1-7.982-8.731,17.612,17.612,0,0,1-1.67-8.781Z" fill="#faed00"/>
    <path id="パス_67267" data-name="パス 67267" d="M338.38,75.628q7.881.744,18.19,1.1a92.642,92.642,0,0,1-2.321-9.7l11.924-2.254a82.328,82.328,0,0,0,3.373,11.872q9.222-.177,19.328-1.361L388.6,87.3a107.144,107.144,0,0,1-13.852,1.029A96.465,96.465,0,0,0,381.409,99.1l-10.264,7.1a154.6,154.6,0,0,1-10.163-17.306q-12.025-.1-23.289-1.213Zm12.387,15.379,9.142,8.445a19.989,19.989,0,0,0-5.328,2.865,3.055,3.055,0,0,0-1.02,3.463,3.182,3.182,0,0,0,2.671,2.559,61.057,61.057,0,0,0,29.25-2.438l-.587,12.35a68.717,68.717,0,0,1-29.93.99,16.917,16.917,0,0,1-9.033-5.24,16.565,16.565,0,0,1-4.329-9.49,13.523,13.523,0,0,1,9.164-13.5" fill="#faed00"/>
    <path id="パス_67268" data-name="パス 67268" d="M392.7,107.9l9.6-7.786a62.533,62.533,0,0,1,13.236,15.9L405.8,124.2a67.268,67.268,0,0,0-13.1-16.3" fill="#faed00"/>
    <path id="パス_67269" data-name="パス 67269" d="M455.416,78.553l19.6,1.119-.551,9.652-19.6-1.118Zm-.826,27.831,18.193,1.038-1.2,21.06-8.716-.5.1-1.813-.117-.007-.157,2.749-9.36-.534Zm3.177-37.145,16.848.962-.524,9.184-16.848-.962ZM456.662,88.6l16.848.962-.468,8.189-16.848-.962Zm-.5,8.716,16.848.962-.5,8.716-16.847-.962Zm7.268,18.667-.077,1.346.117.006.077-1.345Zm11.144-24.541L492.3,92.456l-.575,10.062-3.451-.2-.491,8.6,5.6-1.441.332,10.641a110.764,110.764,0,0,1-21.143,4.369l.036-10.914a39.454,39.454,0,0,1,5.026-.652l.638-11.174L474,101.506Zm19.5-20.895,10.237.585-.507,8.891a10.355,10.355,0,0,0-.495-3.667l6.693-3.139a24.043,24.043,0,0,1,3.222,10.4l-2.778,1.367-.328,5.733-6.9-.394a135.927,135.927,0,0,0,.452,22.915l-.293-.017,3.306-6.5,4.564,12.585-4.479,6.494A5.838,5.838,0,0,1,504,128.015a6.584,6.584,0,0,1-3.568.295,5.945,5.945,0,0,1-3.166-1.589,7.444,7.444,0,0,1-1.877-3.1,156.975,156.975,0,0,1-2.409-33.884l-17.491-1,.588-10.3,17.491,1Z" fill="#fff"/>
    <path id="パス_67270" data-name="パス 67270" d="M517.386,79.685l24.628,1.407.417-7.313,11.466.655-.418,7.312,16.731.956-.661,11.582-16.731-.955-.484,8.482a9.512,9.512,0,0,1,1.427,3.779,29.256,29.256,0,0,1-1.734,13.928,12.122,12.122,0,0,1-7.952,7.7,51.483,51.483,0,0,1-15.8,3.382l-4.85-11.663a38.108,38.108,0,0,0,13.671-.98,8.841,8.841,0,0,0,4.08-2.584,16.038,16.038,0,0,1-10.332.055,8.772,8.772,0,0,1-5.673-5.488,11.5,11.5,0,0,1-.343-7.356,11.963,11.963,0,0,1,4.053-6.224,11.837,11.837,0,0,1,5.782-2.6,12.091,12.091,0,0,1,6.584.846l.11-1.931-24.628-1.406Zm19.907,23.439a1.418,1.418,0,0,0-.993.941,2.942,2.942,0,0,0-.067,1.17,1.286,1.286,0,0,0,1.11,1.12,7.947,7.947,0,0,0,3.176-.112,1.42,1.42,0,0,0,.866-.773,2.958,2.958,0,0,0,.066-1.17,1.272,1.272,0,0,0-.882-.989,5.862,5.862,0,0,0-3.276-.187" fill="#fff"/>
    <path id="パス_67271" data-name="パス 67271" d="M589.385,56.135l15.545.888-1.123,19.669a148.121,148.121,0,0,1,43.274,30.877l-10.654,13.794A142.709,142.709,0,0,0,602.5,95.475L600.268,134.5l-15.308-.874ZM629.8,81.359a77.657,77.657,0,0,0-3.624-13.177l8.7-3.164A27.033,27.033,0,0,1,639.2,78.394Zm11.55-3a101.168,101.168,0,0,0-4.671-14.351l8.672-2.767a70.645,70.645,0,0,1,4.478,13.544Z" fill="#e3007f"/>
    <path id="パス_67272" data-name="パス 67272" d="M665.736,77.682l22.572-.939-.834-13.256,16.05-.994.9,13.5,22.889-.921.232,15.45-22.175.962.505,9.259L732.921,99.5l.871,15.407-26.812,1.333,1.424,22.441-15.985,1.236-1.485-22.763-27.684,1.284-.615-15.71,27.2-1.232-.431-9.175-22.973,1Z" fill="#e3007f"/>
    <path id="パス_67273" data-name="パス 67273" d="M751.815,65.41l15.545.888-1.123,19.669a148.121,148.121,0,0,1,43.274,30.877l-10.654,13.794a142.709,142.709,0,0,0-33.931-25.888L762.7,143.772l-15.307-.874Zm40.414,25.224A77.657,77.657,0,0,0,788.6,77.457l8.7-3.164a27.021,27.021,0,0,1,4.328,13.376Zm11.55-3a101.169,101.169,0,0,0-4.671-14.351l8.672-2.767a70.645,70.645,0,0,1,4.478,13.544Z" fill="#e3007f"/>
    <path id="パス_67274" data-name="パス 67274" d="M828.167,86.956l22.572-.939L849.9,72.761l16.051-.994.9,13.5,22.889-.921.232,15.45-22.175.962.505,9.259,27.046-1.241.87,15.407-26.811,1.333,1.424,22.441-15.985,1.236-1.485-22.763-27.684,1.284L825.066,112l27.2-1.232-.431-9.175-22.973,1Z" fill="#e3007f"/>
    <path id="パス_67275" data-name="パス 67275" d="M899.724,136.847l9.6-7.786a62.532,62.532,0,0,1,13.236,15.9l-9.74,8.188a67.293,67.293,0,0,0-13.1-16.3" fill="#e3007f"/>
    <path id="パス_67276" data-name="パス 67276" d="M466.655,190.571l26.266,1.5L492,208.216a71.418,71.418,0,0,0,6.225-17.545l10.9,2.266q-.612,2.49-1.457,4.964l13.279.759-.661,11.582-2.691-.153a45.361,45.361,0,0,1-6.323,22.351,46.468,46.468,0,0,0,7.932,7.026l-7.218,10.27a38.651,38.651,0,0,1-8.454-8.171,38.8,38.8,0,0,1-10.5,7.089l-5.07-6.8a8.913,8.913,0,0,1-4.61,2.613,54.251,54.251,0,0,1-13.966-.035,5.437,5.437,0,0,1-3.554-1.993,5.087,5.087,0,0,1-1.221-3.8l1.754-30.712,14.858.849.354-6.2-15.56-.888Zm9.467,28.476-.729,12.753a.605.605,0,0,0,.3.839.627.627,0,0,0,.86.343l2.529-.091a1.881,1.881,0,0,0,1.243-.692,2.179,2.179,0,0,0,.574-1.317l.608-6.538,9.987,4.972-.8,6.762a22.629,22.629,0,0,0,6.8-4.072,51.553,51.553,0,0,1-3.107-8.276,24.934,24.934,0,0,1-2.5,2.733l-4.952-6.8Zm27.612-9.75-1.718,3.365a35.885,35.885,0,0,0,2.927,9.381,30.709,30.709,0,0,0,2.242-12.549Z" fill="#fff"/>
    <path id="パス_67277" data-name="パス 67277" d="M528.338,196.733l10.881.621a12.4,12.4,0,0,0-.88-3.1l11.261-.883a17.887,17.887,0,0,1,1.085,4.64l7.2.411,1.245-4.331,11.168,1.753-1.357,3.209,11,.628-.444,7.78-21.118-1.205-.087,1.52,18.31,1.046-.331,5.791-18.31-1.045-.086,1.521,21.995,1.256-.468,8.189-8.014-.457-.546,2.375,8.423.481-.474,8.307-53.526-3.057.474-8.306,7.78.444-.155-2.415-7.488-.428.467-8.19,21.587,1.233L548.01,213l-17.784-1.015.33-5.792,17.784,1.016.087-1.521-20.533-1.173Zm1.932,37.084,42.763,2.442-.975,17.082-10.881-.621.067-1.17-21.586-1.233-.067,1.17-10.3-.587Zm9.912,7.316-.1,1.755,21.586,1.232.1-1.755Zm3.217-16.25,3.919.224.137-2.4-4.212-.241Zm13.864.792,3.627.207.546-2.375-4.036-.23Z" fill="#fff"/>
    <path id="パス_67278" data-name="パス 67278" d="M631.076,252.721a46.073,46.073,0,0,1-25.315-4.791,18.479,18.479,0,0,1-6.315-5.027,19.131,19.131,0,0,1-3.612-7.161,18.288,18.288,0,0,1,2.878-15.447,61.367,61.367,0,0,1,7.537-8.666l-19.538-1.116.655-11.465L638.9,201.99l-.658,11.524-11.205.945a27.27,27.27,0,0,0-12.517,4.391,16.94,16.94,0,0,0-6.769,9.591,8.7,8.7,0,0,0,1.137,6.814,8.467,8.467,0,0,0,5.643,3.961,103.787,103.787,0,0,0,17.5,1.88ZM627.973,231a60.642,60.642,0,0,0-4.23-9.162l5.943-3.358a19.775,19.775,0,0,1,4.754,9.251Zm8.011-3.592a73.531,73.531,0,0,0-5.13-9.859l5.985-3.062a54.808,54.808,0,0,1,4.926,9.319Z" fill="#fff"/>
    <path id="パス_67279" data-name="パス 67279" d="M654.6,239.679a42.059,42.059,0,0,0,11.764-8.3l-9.5-.542.733-12.849,13.408.765.168-2.953-13.407-.765.77-13.488,6.145.351-.967-5.5-3.591-.205.8-13.967,12.131.693.278-4.868,14.445.824-.278,4.869,10.375.592-.8,13.966-2.793-.159-1.746,5.345,4.229.241L696,217.222l-10.375-.593-.168,2.953,10.375.592-.734,12.849-7.023-.4a19.427,19.427,0,0,0,6.3,6.125,79.048,79.048,0,0,0,4-20.91L700.3,184a136.4,136.4,0,0,0,27.686-2.5l5.838,15.546a91.313,91.313,0,0,1-20.768,1.937l-.264,4.629,20.989,1.2-.9,15.8-5.108-.291-2.292,40.143-13.647-.779,2.292-40.144-2.234-.127a89.853,89.853,0,0,1-11.652,40.009l-9.621-9.6-2.934,2.315a11.782,11.782,0,0,1-3.852-4.064l-.57,9.977-14.445-.825.547-9.578a36.236,36.236,0,0,1-8.167,5.62Zm22.365-42.52.967,5.5,2.474.141,1.826-5.34Z" fill="#e95513"/>
    <path id="パス_67280" data-name="パス 67280" d="M755.986,203.266l11.3,1.368q-.735,5.5-1.447,10.576l8.523.486-.3,5.223a62.824,62.824,0,0,1,19.293,1.7l-.692,12.125a64.243,64.243,0,0,0-25.48-.913l.332-5.822-4.382-.25a154.35,154.35,0,0,1-12.826,32.689l-11.026-6.23a137.732,137.732,0,0,0,11.548-27.162l-8.644-.493.723-12.665,11.1.634q1.046-4.638,1.968-11.269m36.038,44.873.148,12.173a59.026,59.026,0,0,1-25.124-.832,9.04,9.04,0,0,1-5.121-3.123,9.315,9.315,0,0,1-2.156-5.483,24.61,24.61,0,0,1,2.274-12.4l11.161,2.806a6.29,6.29,0,0,0-.988,4.64,2.676,2.676,0,0,0,2.324,2.542,48.993,48.993,0,0,0,17.482-.327" fill="#e95513"/>
    <path id="パス_67281" data-name="パス 67281" d="M803.386,215.788l12.725.727a96.16,96.16,0,0,0,2.04-10.422l12.516,2.28q-.836,5.133-1.711,8.875l4.382.25-.717,12.545-7.443-.425a113.5,113.5,0,0,1-16.752,30.78l-10.242-8.354A105.213,105.213,0,0,0,811.917,228.8l-9.244-.528Zm32.112,1.834,21.369,1.22-.747,13.085-9.844-.562-.747,13.085A53.274,53.274,0,0,1,857.041,254.8l-7.818,9.309a19.878,19.878,0,0,0-5.366-4.1,12.862,12.862,0,0,1-10.143,5.745,16.544,16.544,0,0,1-11.1-2.742,12.633,12.633,0,0,1-3.972-5.316,12.415,12.415,0,0,1-.772-6.517,12.925,12.925,0,0,1,2.577-6.116,12.17,12.17,0,0,1,5.286-3.974,12.461,12.461,0,0,1,8.468-.66ZM833.67,250.7a9.813,9.813,0,0,0-4.088-.113,2.5,2.5,0,0,0-1.443,1,2.191,2.191,0,0,0-.063,2.164,1.9,1.9,0,0,0,1.8,1.247l1.387-.042a2.588,2.588,0,0,0,2.1-2.047Z" fill="#e95513"/>
    <path id="パス_67282" data-name="パス 67282" d="M948.967,197l-.77,13.488-16.2-.926-.269,4.709,13.487.77-3.3,57.781-12.29-.7.168-2.953-27.773-1.585-.168,2.953-12.37-.707,3.3-57.781,13.727.784.269-4.708-14.206-.812-.83,3.316-3.377,59.137-12.449-.711,2.023-35.434q-.258.306-2.5,3.14l-4.949-17.1A104.727,104.727,0,0,0,884.6,189.8l11.691,4.191Zm-44.549,28.6-1.645,28.81,1.357.077,1.645-28.81Zm14.41-16.792-.269,4.708L920,213.6l.269-4.708Zm-1,17.557-1.645,28.81,1.436.082,1.645-28.81Zm13.168.752-1.645,28.81,1.2.069,1.645-28.811Z" fill="#e95513"/>
    <path id="パス_67283" data-name="パス 67283" d="M978.646,198.851l19.233,1.1.183-3.192,14.365.82-.182,3.192,18.435,1.053-.775,13.567-18.435-1.052-.128,2.234,15.643.893-2.438,42.7-37.43-2.137,2.415-42.3,7.422.424.151-2.634-19.234-1.1.392-6.863L973.7,215.3l-3.354,58.738-13.407-.765,1.946-34.078-3.012,3.671-2.852-20.18a124.329,124.329,0,0,0,13.336-27.422l12.058,7.574ZM975.448,217l11.731.67-2.4,41.978,42.059,2.4-.77,13.488-42.059-2.4-.1,1.676-11.732-.67Zm26.329,8.629-.127,2.235,11.093.633.128-2.235Zm-.6,10.455-.145,2.554,11.093.633.146-2.554Zm-.56,9.816-.146,2.554,11.093.633.146-2.554Z" fill="#e95513"/>
    <path id="パス_67284" data-name="パス 67284" d="M1059.77,221.64l.107.182,12.224,1.755-1.8,4.885,17.725,1.012-.662,11.583-22.814-1.3-1.678,2.663a13.068,13.068,0,0,1,9.037.017,12.153,12.153,0,0,1,6.425,5.678l10-2.422,3.98,11.495L1079.938,259l-.467,8.19-11.758-.672.335-4.852a19.138,19.138,0,0,0-5.112,2.173,2.431,2.431,0,0,0-1.172,2.017,2.361,2.361,0,0,0,1.052,2.143,6.212,6.212,0,0,0,4.048,1.053,102.119,102.119,0,0,0,20.828-.923l.09,11.8a106.664,106.664,0,0,1-24.613-.643,18.79,18.79,0,0,1-11.3-5.575,8.189,8.189,0,0,1-2.31-4.27,8.731,8.731,0,0,1,.37-4.938,17.178,17.178,0,0,1,6.448-8.083,38.487,38.487,0,0,1,10.359-4.632,2.13,2.13,0,0,0-.625-1.385,1.665,1.665,0,0,0-1.325-.428,14.775,14.775,0,0,0-3.223.931,38.647,38.647,0,0,0-17.147,16.627l-5.851-12.658a82.479,82.479,0,0,0,13.347-15.847l-11.641-.665.638-11.173,16.087.918q2.076-4.517,2.776-6.473" fill="#fff"/>
  </g>
</svg>
