<svg id="PRODUCTS" xmlns="http://www.w3.org/2000/svg" width="360" height="60" viewBox="0 0 360 60">
  <rect id="長方形_1096" data-name="長方形 1096" width="360" height="60" fill="none"/>
  <path id="パス_791" data-name="パス 791" d="M9.9,54.6l.091-42.634H48.06L48.2,31.955l-8.388,9.3L22.489,41.21,22.762,54.6Zm12.628-24.53H33.472L35.751,27.6l-.091-4.537H22.529Z" fill="#58f1ff"/>
  <path id="パス_792" data-name="パス 792" d="M54.37,54.736V11.922H91.207V31.465l-7.3,7.368H82.221l10.121,8L81.9,54.741l-13.4-15.9H66.4l.183,15.9ZM66.4,28.993h10.9l1.732-1.617V22.615L66.408,22.57Z" fill="#58f1ff"/>
  <path id="パス_793" data-name="パス 793" d="M98.06,54.825V11.967h37.429l-.045,42.858Zm12.358-11.77h12.72V23.6h-12.72Z" fill="#58f1ff"/>
  <path id="パス_794" data-name="パス 794" d="M179.009,40.809,172.944,54.78h-31.5V11.968h30.675l6.89,10.511ZM166.922,26.522,164.233,22.7H153.792V43.414h10.531l2.6-4.9Z" fill="#58f1ff"/>
  <path id="パス_795" data-name="パス 795" d="M185.178,12.056H197.9l-.364,32.031h12.127L209.3,12.056h12.9l-.365,42.858H185.5Z" fill="#58f1ff"/>
  <path id="パス_796" data-name="パス 796" d="M265.753,54.955l-37.2-.27-.274-42.319,37.155-.4.229,18.464H253.536l.091-6.244-12.856.179.183,18.644,24.8-.225Z" fill="#58f1ff"/>
  <path id="パス_797" data-name="パス 797" d="M271.928,12.012H313.05v11.1H298.506l.547,31.717H285.965l.547-31.717H271.928Z" fill="#58f1ff"/>
  <path id="パス_798" data-name="パス 798" d="M356.1,12.056V28.319l-12.173-1.887V22.389h-12.81v3.369l24.983,4.4V54.735H319.132v-18.2l11.99,2.2v5.533h12.81V39.281l-24.8-5.167V12.056Z" fill="#58f1ff"/>
  <path id="パス_799" data-name="パス 799" d="M6.9,51.6,6.989,8.964H45.057L45.2,28.952l-8.388,9.3-17.324-.045L19.759,51.6Zm12.628-24.53H30.469L32.748,24.6l-.091-4.537H19.526Z"/>
  <path id="パス_800" data-name="パス 800" d="M51.367,51.733V8.919H88.2V28.462L80.9,35.83H79.218l10.121,8L78.9,51.738l-13.4-15.9H63.4l.183,15.9ZM63.4,25.99H74.3l1.732-1.617V19.612L63.4,19.567Z"/>
  <path id="パス_801" data-name="パス 801" d="M95.057,51.822V8.964h37.429l-.045,42.858Zm12.358-11.77h12.72V20.6h-12.72Z"/>
  <path id="パス_802" data-name="パス 802" d="M176.006,37.806l-6.065,13.971h-31.5V8.965h30.675l6.89,10.511ZM163.919,23.519,161.23,19.7H150.789V40.411H161.32l2.6-4.9Z"/>
  <path id="パス_803" data-name="パス 803" d="M182.175,9.053h12.72l-.364,32.031h12.127l-.365-32.031h12.9l-.365,42.858H182.494Z"/>
  <path id="パス_804" data-name="パス 804" d="M262.75,51.952l-37.2-.27-.274-42.319,37.155-.4.229,18.464H250.533l.091-6.244-12.856.179.183,18.644,24.8-.225Z"/>
  <path id="パス_805" data-name="パス 805" d="M268.925,9.009h41.122v11.1H295.5l.547,31.717H282.962l.547-31.717H268.925Z"/>
  <path id="パス_806" data-name="パス 806" d="M353.1,9.053V25.316l-12.173-1.887V19.386h-12.81v3.369l24.983,4.4V51.732H316.129v-18.2l11.99,2.2v5.533h12.81V36.278l-24.8-5.167V9.053Z"/>
</svg>
