<svg id="TEAM" xmlns="http://www.w3.org/2000/svg" width="363" height="60" viewBox="0 0 363 60">
  <rect id="長方形_1100" data-name="長方形 1100" width="363" height="60" fill="none"/>
  <path id="パス_835" data-name="パス 835" d="M118.556,18.707l-.171-1h-4.472l-1.735,10.257,1.639-.028,6.1-.106.2,0-.1-.58Z" transform="translate(-0.234)"/>
  <path id="パス_836" data-name="パス 836" d="M191.55,7.113h-3.858l-.142-4H167.236L165.6,8.892,165.1,7.11h-2.868l-1.132-4H140.832l-1.091,30.869L134.631,7.11h-3.24l-.76-4H101.569L94.748,39.165l-1.985.039-.048-4.078-1.143.022-.083-10.37,4.442.073V6.945l-4,.043V2.945l-40.589.431V7.2h-.269v-4H3.913V20.568h4v4H18.393l-.48,28.486H21.98l-.067,4h19.2l-.548-32.486H51.342V52.66l4,.036V56.66l41.583.376V57.01H115.3L116.858,46.3l3-.035.855,6.741h3.492l.508,4H161.4l.058-3.36h13.469l.066,3.362h18.32ZM20.964,50.055l.429-25.487.1-6,.017-1H6.912V6.2h41.16V17.568H33.516l.548,32.487h-13.1ZM143.728,6.11h15.1l.283,1,5.056,17.866L167.159,14.4l2.346-8.287h15.15l.035,1,.212,6,1.3,36.9h-12.27l-.268-13.8-.143-7.375L169.418,46.65H158.923l-3.115-13.5-.993-4.306-.364,21.167H142.177l.1-2.721ZM54.343,49.687V6.345l34.589-.368V17.8l-22.181-.368v5.43l1-.021L84.5,22.5l.057,7.082.034,4.19-17.843-.414v5.291l1-.02,22-.44.083,7.079.056,4.745L61.342,49.75l-6-.054ZM96.878,53.01h.007l-.007.036Zm26.947-3h-.468l-.48-3.777-.76-5.992-.132-1.045-11.727.139L108.707,50.01H95.75l1.029-5.439L104.055,6.11h24.093l.19,1,1.141,6,7.019,36.9H123.825Z"/>
  <path id="パス_837" data-name="パス 837" d="M6.911,17.568h14.6l-.017,1-.1,6-.43,25.487h13.1l-.548-32.487H48.072V6.2H6.912Z" fill="#57ff6a"/>
  <path id="パス_838" data-name="パス 838" d="M89.75,38.185l-22,.44-1,.02V33.354l17.843.414-.034-4.189L84.5,22.5l-16.752.347-1,.021v-5.43l22.181.368V5.977l-34.589.368V49.687l1,.009,6,.054,28.547.259-.056-4.745Z" fill="#57ff6a"/>
  <path id="パス_839" data-name="パス 839" d="M128.338,7.111l-.191-1H104.054l-7.276,38.46-1.029,5.44h12.957l1.551-10.675,11.727-.14.133,1.046.76,5.992.479,3.777H136.5l-7.018-36.9Zm-8.32,20.135.1.581-.2,0-6.1.106-1.639.029,1.735-10.258h4.472l.172,1Z" transform="translate(-0.22)" fill="#57ff6a"/>
  <path id="パス_840" data-name="パス 840" d="M184.9,13.113l-.212-6-.035-1H169.5L167.16,14.4l-2.993,10.576L159.111,7.11l-.283-1h-15.1l-1.455,41.179-.1,2.721h12.274l.364-21.167.993,4.306,3.115,13.5h10.495l4.107-17.807.143,7.375.268,13.8h12.27Z" transform="translate(-0.33)" fill="#57ff6a"/>
</svg>
