<svg id="TEAM" xmlns="http://www.w3.org/2000/svg" width="360" height="60" viewBox="0 0 360 60">
  <rect id="長方形_1095" data-name="長方形 1095" width="360" height="60" fill="none"/>
  <path id="パス_783" data-name="パス 783" d="M93.519,11.1h41.16V22.466H120.122l.548,32.487h-13.1l.548-32.487h-14.6Z" fill="#fff700"/>
  <path id="パス_784" data-name="パス 784" d="M176.5,54.907l-35.547-.322V11.243l34.589-.368V22.7l-22.181-.368v5.43l17.752-.368.091,11.272-17.843-.414v5.291l23-.46Z" fill="#fff700"/>
  <path id="パス_785" data-name="パス 785" d="M182.356,54.908l8.3-43.9h24.093l8.35,43.9H209.963l-1.372-10.814-11.727.139-1.551,10.675Zm16.428-22.046,7.94-.138L204.991,22.6h-4.472Z" fill="#fff700"/>
  <path id="パス_786" data-name="パス 786" d="M260.131,33.741l-4.107,17.807H245.529l-4.108-17.807-.364,21.167H228.783l1.551-43.9h15.1l5.339,18.866,5.338-18.863h15.15l1.551,43.9h-12.27Z" fill="#fff700"/>
  <path id="パス_787" data-name="パス 787" d="M90.516,8.1h41.16V19.463H117.119l.548,32.487h-13.1l.548-32.487h-14.6Z"/>
  <path id="パス_788" data-name="パス 788" d="M173.493,51.9l-35.547-.322V8.24l34.589-.368V19.7l-22.181-.368v5.43l17.752-.368.091,11.272-17.843-.414V40.54l23-.46Z"/>
  <path id="パス_789" data-name="パス 789" d="M179.353,51.9l8.305-43.9h24.093l8.35,43.9H206.96l-1.372-10.814-11.727.139L192.31,51.9Zm16.428-22.046,7.94-.138L201.988,19.6h-4.472Z"/>
  <path id="パス_790" data-name="パス 790" d="M257.128,30.738l-4.107,17.807H242.526l-4.108-17.807L238.054,51.9H225.78l1.551-43.9h15.1l5.339,18.866,5.338-18.863h15.15l1.551,43.9h-12.27Z"/>
</svg>
