<svg xmlns="http://www.w3.org/2000/svg" xmlns:xlink="http://www.w3.org/1999/xlink" width="204.412" height="124.313" viewBox="0 0 204.412 124.313">
  <defs>
    <filter id="長方形_982" x="0" y="0" width="204.412" height="124.313" filterUnits="userSpaceOnUse">
      <feOffset dx="5" dy="5" input="SourceAlpha"/>
      <feGaussianBlur result="blur"/>
      <feFlood/>
      <feComposite operator="in" in2="blur"/>
      <feComposite in="SourceGraphic"/>
    </filter>
  </defs>
  <g id="text03" transform="matrix(0.995, -0.105, 0.105, 0.995, 0, 19.86)">
    <g transform="matrix(0.99, 0.1, -0.1, 0.99, 2.08, -19.75)" filter="url(#長方形_982)">
      <rect id="長方形_982-2" data-name="長方形 982" width="190" height="100" transform="matrix(0.99, -0.1, 0.1, 0.99, 0, 19.86)" fill="#ad06de"/>
    </g>
    <path id="パス_84" data-name="パス 84" d="M89.492,54.669l18.884-3.377,2.54,15.6-18.968,2.86L94.7,84.338,75.916,87.4l-4.689-30.21-1.283,7.041L59.3,60.418l5,28.868L46.039,92.259l-2.7-18.007-1.562,9.06-7.8-27.425,2.562-38.829,22.138-.643L55.584,37.566l1.167,7.173,4.753-31.9,21.749-2.1L81.392,17.5l23.1-4.063,2.624,16.122-21.2,3.147.554,3.4,18.81-3.366L107.8,48.2,88.89,50.971Z"/>
    <path id="パス_85" data-name="パス 85" d="M86.49,51.666l18.884-3.377,2.54,15.6-18.968,2.86L91.7,81.335,72.914,84.393l-4.689-30.21-1.283,7.041L56.3,57.415l5,28.868L43.037,89.256l-2.7-18.007-1.562,9.06-7.8-27.425L33.53,14.055l22.138-.643L52.582,34.563l1.167,7.173L58.5,9.838l21.749-2.1L78.39,14.5l23.1-4.063,2.624,16.122L82.915,29.7l.554,3.4,18.81-3.366L104.795,45.2,85.888,47.968Z" fill="#faee00"/>
    <path id="パス_86" data-name="パス 86" d="M125.108,51.653V42.46l32.112.043-.043,8.287-9.841,5.05h11.7V82.729h-34.4V65.983h22.055v7.682h.907V65.206H124.633V58.43l14.33-6.777Zm11.308,21.408h-1.64v.95h1.64Z" fill="#fff"/>
  </g>
</svg>
