<svg xmlns="http://www.w3.org/2000/svg" xmlns:xlink="http://www.w3.org/1999/xlink" width="1176.239" height="286.797" viewBox="0 0 1176.239 286.797">
  <defs>
    <filter id="長方形_980" x="0" y="0" width="1176.239" height="286.797" filterUnits="userSpaceOnUse">
      <feOffset dx="5" dy="5" input="SourceAlpha"/>
      <feGaussianBlur result="blur"/>
      <feFlood/>
      <feComposite operator="in" in2="blur"/>
      <feComposite in="SourceGraphic"/>
    </filter>
    <clipPath id="clip-path">
      <rect id="長方形_981" data-name="長方形 981" width="1170" height="100" fill="none"/>
    </clipPath>
  </defs>
  <g id="text02" transform="translate(15.643) rotate(9)">
    <g transform="matrix(0.99, -0.16, 0.16, 0.99, -15.45, 2.45)" filter="url(#長方形_980)">
      <rect id="長方形_980-2" data-name="長方形 980" width="1170" height="100" transform="translate(15.64) rotate(9)" fill="#00a0e9"/>
    </g>
    <path id="パス_57" data-name="パス 57" d="M687.885,71.1l-1.434-8.48.868-.025-.23-1.414-1.075.174,1.634,10.074-11.037,1.789-4.5-27.731-.543,1.307L676.1,73.3l-13.584,2.2-1.627-11.47-.915,2.24-3.47-19.245,8.838-16.419,3.531,1,.717-.233.332-2.61-1.038.4-.68-4.188-7.145,12.892-7.406-9.138,5.055-11.45,8.34.565,5.3-.628-.566-2.057,14.036-2.276.113,2.13,5.68-1.153.578,3.566-.2-5.544,14.965-1.207-.826,5.652,4.661-.988,2.12,13.074-.942-.08,1.775,23.121,3.125,1-1.589,14.2-7.852-4.361-6.467,6.683-1.88-3.355.624,3.849ZM683.807,37.72l-8.351,2.226-.94,1.372,18.508-3-1.834-.923-6.872,2.044Zm-2.343-9.436-.39-1.331-.793.129-.035,1.574Zm2.475,20.277,1.076-.174-.184-1.132-1.075.174Zm.937,5.773.174,1.075,1.075-.174-.174-1.076Zm6.555-29.061,1.007,2.625.105-2.573Zm4.527,21.106,1.285,7.924L698.8,52.83Zm7.215-7.443-.715-9.062-.905.147-.332,2.61Z"/>
    <path id="パス_58" data-name="パス 58" d="M743.776,73.295V63.376h22.992l-2.007-12.442h-5.5v1.261l3.153-.344.86,9.977-19.093,1.146L743.833,53l1.2-.172V31.21l18.577-1.09H744.005l-.974,43.347-13.991-.975,2.409-54.068h22.533l-.23-3.039H768.6l-.23,3.039,18.749-.23V30.35l-4.013-.23,1.089,8.773-7.4.459.114,1.777,8.716-.229v9.8l-7.683-.229.974,5.275.459-3.44,8.314,1.2-3.67,16.226v3.555Zm19.437-32.166L763.1,40.04l-3.841.286v.8Z"/>
    <path id="パス_59" data-name="パス 59" d="M847.392,92.329l-21.948-6.286,3.736-13.308,9.058,2.538,6.489-24.145-6.28-1.595L836.2,51.624l5.408.368-2.634,19.682-9.662-.621-.466-12.6-1.676,1.7-2.514-4.307-6.8,26.786-25.382-6.508,11.6-45.443,5.766,1.524,2.73-8.417,14.5,4.867-3.392,7.065,5.779,1.468-.494,1.945,6.114-9.627,16.052,6.208-2.889,2.756L861.3,41.791ZM808.748,62.811l-1.059,4.168,1.223.311,1.059-4.168Zm3.176-12.267,1.223.311,1.058-4.168-1.222-.311Z"/>
    <path id="パス_60" data-name="パス 60" d="M88.9,76.14,53.823,80.157,50.3,63.675l-12.678,2.66L34.747,51.709,47.008,49.2l-.465-2.216L34.149,49.778,30.5,35.123,78.554,23.757l3.623,15.432L63.136,43.376l.4,1.908,17.4-3.456L83.42,57.37l-16.656,3.3L67.19,62.7,87.3,59.64Z"/>
    <path id="パス_61" data-name="パス 61" d="M106.681,81.215l-2.575-26.087-6.494,1.119L95.765,39.9l5.486-.224-.784-7.334,17.186-1.4.616,6.717,27.319-2.351-3.135,32.973-16.738-2.407,2.127-13.939-7.5.839,4.535,25.416Z"/>
    <path id="パス_62" data-name="パス 62" d="M159.8,67.319l-3.384-16.1,9.374.082,2.7,14.027Zm4.727,10.271L173.969,64l-4.69,1-2.866-15.93,10.419.037.455,10.093,6.011-8.706,9.725,5.813L176.909,85.521Z"/>
    <path id="パス_63" data-name="パス 63" d="M85.9,73.137,50.82,77.155,47.3,60.673,34.62,63.333,31.744,48.707,44.005,46.2l-.465-2.216L31.146,46.776,27.494,32.121,75.551,20.755l3.623,15.432L60.133,40.374l.4,1.908,17.4-3.456,2.489,15.542-16.656,3.3.426,2.031L84.3,56.638Z" fill="#faee00"/>
    <path id="パス_64" data-name="パス 64" d="M103.678,78.212,101.1,52.125l-6.494,1.119L92.762,36.9l5.486-.224-.784-7.334,17.186-1.4.616,6.717,27.319-2.351L139.45,65.28l-16.738-2.407,2.127-13.939-7.5.839,4.535,25.416Z" fill="#faee00"/>
    <path id="パス_65" data-name="パス 65" d="M156.8,64.316l-3.384-16.1,9.374.082,2.7,14.027Zm4.727,10.272,9.44-13.593-4.69,1-2.866-15.93,10.419.037.455,10.094,6.011-8.707,9.725,5.813L173.907,82.518Z" fill="#faee00"/>
    <path id="パス_66" data-name="パス 66" d="M234.543,39.869l.691,11.006L211.02,51.954l.087,7.165,24.127-.173V70.125l-35.651-.173L199.5,41.509l6.518-.3-.13-11.308,11.567.043-.129,10.92Z" fill="#fff"/>
    <path id="パス_67" data-name="パス 67" d="M263.492,62.1l-10.79.259.043-19.638h12.819l.087-.518H245.969l.043-9.711,19.854.129-.086-3.5h11.912l-.129,3.323H286.8v9.539l-9.236.043-2.331,29.091-12.9-1.382Zm-.129-8.848,1.165-.043.13-1.511-1.338.043Z" fill="#fff"/>
    <path id="パス_68" data-name="パス 68" d="M297.712,39.178V29.985l32.112.043-.043,8.287-9.841,5.05h11.7V70.254h-34.4V53.508h22.056V61.19h.906V52.731H297.237V45.955l14.33-6.777ZM309.02,60.586h-1.64v.95h1.64Z" fill="#fff"/>
    <path id="パス_69" data-name="パス 69" d="M341.384,52.86V43.8h1.727l-.864-3.668h-.69V31.28h6.172l-.173-2.979h10.92L358.3,31.28h6.215v8.8h-.69l-.82,3.669h1.6v9.064Zm1.252,19.207V53.551l21.537-.044v18.56ZM353.3,43.753l.733-3.669h-1.985l.777,3.669Zm.733,18.257h-1.338v1.467h1.338Zm29.306-14.8,2.072,19.638L375.05,68.182l-.691-6.6V72.067h-9.452l-.043-43.118h19.767l.043,6.215ZM375.179,38.1h-.82v7.639Zm-.82,19.854.82-.086-.82-8.762Z" fill="#fff"/>
    <path id="パス_70" data-name="パス 70" d="M412.416,71.549l2.158-10.272,5.654.474.3-10.962h-3.582l-8.675,21.8-11.7-5.395,10.056-16.4h-3.28l-1.942,4.359-7.078-10.4,8.459-16.272,10.877,2.374-4.964,9.8h14.157l-.95-2.374-5.7.173v-9.5l13.164.13,9.064,18.214-6.819,9.322-.82-1.856.3,17.394Z" fill="#fff"/>
    <g id="グループ_10" data-name="グループ 10">
      <g id="グループ_9" data-name="グループ 9" clip-path="url(#clip-path)">
        <path id="パス_71" data-name="パス 71" d="M476.848,68.4l-11.955.172-.216-21.494H462.95l-3.237,21.84-11.524-2.5,3.8-19.206-3.281.259-.518-10.532,4.921-.172.647-6.776,11.481.561-.777,5.913,9.409-.346a4.478,4.478,0,0,0,1.468,2.763Zm.518-30a4,4,0,0,1-1.856-1.683,4.283,4.283,0,0,1-.043-3.324,3.367,3.367,0,0,1,1.727-1.726,3.567,3.567,0,0,1,3.409.3q-1.6,2.761.691,5.568-2.029,1.726-3.928.863m11.913,19.509-10.877,1.6L476.158,39.4a4.142,4.142,0,0,0,2.848.647,5.98,5.98,0,0,0,3.324-1.64,4.781,4.781,0,0,0,2.633.647,3.454,3.454,0,0,0,2.071-.431Zm-7.942-23.782a3.611,3.611,0,1,1,1.057,2.568,3.5,3.5,0,0,1-1.057-2.568" fill="#fff"/>
        <path id="パス_72" data-name="パス 72" d="M500.23,44.573l-.3-10.445,5.783-.215.907-4.662,11.049.993-.777,3.021,4.575-.216.13,10.273-6.777.259L510.761,60.8l-11.135-2.633L503.64,44.4Zm34.486,6.949,7.078,3.108-3.582,10.4-3.5-1.986v7.165H509.984V62.054l1.6.388,3.453-14.977h8.244V44.012h11.438Zm-11.438,6.043h-2.5v3.064h2.5Zm14.761-12.3-15.97-6.172,4.36-9.884,15.451,5.827Z" fill="#fff"/>
        <path id="パス_73" data-name="パス 73" d="M564.965,32.273l1.683,23.091,8.373-1.683,2.158,11.567-21.753,3.194-3.021-34.831Zm22.616-.518,6,29.652-12.905,2.33L575.5,34.086Z" fill="#fff"/>
        <path id="パス_74" data-name="パス 74" d="M632.72,68.4l-11.956.173-.216-21.494h-1.726l-3.237,21.839-11.524-2.5,3.8-19.207-3.28.259-.518-10.531,4.92-.173.648-6.776,11.48.561-.777,5.913,10.877-.388ZM645.15,57.91l-10.877,1.6L631.382,34.43l10.79-1.338Z" fill="#fff"/>
        <path id="パス_75" data-name="パス 75" d="M684.882,68.094l-1.434-8.48.868-.025-.23-1.414-1.075.174,1.634,10.074-11.037,1.79-4.5-27.732-.543,1.307L673.1,70.3l-13.583,2.2-1.628-11.47-.915,2.24L653.5,44.024,662.341,27.6l3.531,1,.717-.233.332-2.61-1.038.4-.68-4.188-7.144,12.892-7.407-9.138,5.055-11.45,8.34.565,5.3-.628-.566-2.057,14.036-2.276.113,2.13,5.68-1.153.578,3.566-.2-5.544,14.965-1.207-.826,5.652,4.661-.988,2.12,13.074-.942-.08,1.775,23.121,3.125,1-1.589,14.2-7.852-4.361-6.467,6.683-1.88-3.355.624,3.849ZM680.8,34.717l-8.352,2.226-.94,1.372,18.508-3-1.834-.923-6.872,2.044Zm-2.344-9.436-.39-1.331-.793.129-.035,1.574Zm2.475,20.277,1.076-.174-.184-1.132-1.075.174Zm.937,5.773.174,1.075,1.075-.174-.174-1.076Zm6.555-29.061,1.007,2.625.1-2.573Zm4.527,21.106L694.24,51.3l1.562-1.473Zm7.215-7.443-.715-9.062-.905.147-.332,2.61Z" fill="#faee00"/>
        <path id="パス_76" data-name="パス 76" d="M740.774,70.292V60.373h22.992l-2.007-12.442h-5.5v1.261l3.153-.344.86,9.977-19.093,1.146-.344-9.976,1.2-.172V28.207l18.577-1.09H741l-.974,43.347-13.991-.975,2.409-54.068H750.98l-.23-3.039H765.6l-.23,3.039,18.749-.23V27.347l-4.013-.23L781.2,35.89l-7.4.459.114,1.777,8.716-.229v9.8l-7.683-.229.974,5.275.459-3.44,8.314,1.2-3.67,16.226v3.555Zm19.437-32.166-.115-1.089-3.841.286v.8Z" fill="#faee00"/>
        <path id="パス_77" data-name="パス 77" d="M844.39,89.327l-21.948-6.286,3.736-13.308,9.058,2.538,6.489-24.145-6.28-1.6L833.2,48.622l5.408.368-2.634,19.682-9.662-.621-.466-12.6-1.676,1.7-2.514-4.307-6.8,26.786-25.382-6.508,11.6-45.443,5.766,1.524,2.73-8.417,14.5,4.867-3.392,7.065,5.779,1.468-.494,1.945,6.114-9.627,16.052,6.208-2.889,2.756,13.059,3.318ZM805.746,59.809l-1.059,4.168,1.223.311,1.059-4.168Zm3.176-12.267,1.223.311,1.058-4.168-1.222-.311Z" fill="#faee00"/>
        <path id="パス_78" data-name="パス 78" d="M881.6,30.934l.561,39.32-11.4.043-.129-39.233ZM910,41.422V30.805l-26.544.129.043,10.445Zm-15.452,11.7-.043,6.043,15.236-.173.043,10.92-26.242-.13V53.033Z" fill="#fff"/>
        <path id="パス_79" data-name="パス 79" d="M920.049,35.6h16.013V42.8H920.049Zm26.5,1.338-1.9-.043L943.917,72.2,935.5,70.772V72.11h-15.02V56.443l15.02.043v6.992l1.338-34.529h27.019l-.087,43.118L953.2,71.808l-.216-2.115-8.287.043V53.9h10.575v7.985l.733.173V36.934h-2.33v1.3l1.856-.173v6.863l-1.856-.173v1.209H955.7v7.164H944.737V45.955h1.813V44.789l-1.554.13V38.056l1.554.173Zm-26.069-1.9v-6h14.847v6.043Zm.431,14.286.044-5.956h14.329v5.956Zm0,.475h14.373v6.215H920.912Zm6.69,15.581h.95V63.392h-.95Zm22.228-2.935h.82V61.018h-.82Z" fill="#fff"/>
        <path id="パス_80" data-name="パス 80" d="M1016.288,72.024h-42.73v-8.33h4.575V49.839l-3.5,1.64-1.726-10.79,10.143-1.77-9.755.173v-8.8l16.056.173-.172-2.115h11.48l-.172,2.115,16.056-.173v8.8l-9.755-.173,10.143,1.77-1.726,10.79-3.5-1.64V63.694h4.575ZM984.737,46.9h4.618V45.393Zm4.489,6.517h11.394V52.73H989.226Zm0,5.05h11.394V57.78H989.226Zm0,5.223h11.394v-.82H989.226Zm15.883-16.79-4.618-1.511V46.9Z" fill="#fff"/>
        <path id="パス_81" data-name="パス 81" d="M1031.619,54.457a5.529,5.529,0,0,1-3.5-1.9,6.06,6.06,0,0,1-1.338-4.7,5.775,5.775,0,0,1,1.9-3.194,5.658,5.658,0,0,1,7.381.13,5.845,5.845,0,0,1,1.727,4.834,6.215,6.215,0,0,1-1.338,2.935,5.458,5.458,0,0,1-4.834,1.9" fill="#fff"/>
        <path id="パス_82" data-name="パス 82" d="M1080.534,45.264h7.64V60.413h-8.632l10.1,1.641-4.1,10.013-10.661-4.446-12.387,4.446-3.065-9.8,9.8-1.856-7.122.044V56.7l-1.769,1.424-1.079-3.108.129,16.963h-10.531l.216-12.258-1.295,3.928-1.985-12.6,2.46-7.942-2.374.173V34.215l3.194.172L1048.9,28.3h10.531l-.172,6.085,1.424-.172-.216-3.194,14.114-2.762,15.236,2.546-.863,13.509-1.77-1.165v1.64l-6.647-.172Zm-11.092,0v-.647l-6.3.172.043-1.64-1.683,1.338-.086-1.381h-1.295l1.985,6.517.087-4.359Zm1.856,7.165h-.82v1.036h.82Zm1.165-14.977h4.144l-2.159-.82Zm6.474,16.013h.777V52.429h-.777Z" fill="#fff"/>
        <path id="パス_83" data-name="パス 83" d="M1098.784,35.078H1117.6v8.157h-18.818Zm.6-6.259H1116.7v5.87h-17.307Zm0,26.8h17.523V72.153h-17.523Zm.474-12H1116.7V49.1h-16.833Zm0,5.913H1116.7v5.654h-16.833Zm7.812,15.279h.993V62.96h-.993Zm9.841-16.66,8.762-3.5,2.848,13.725-6.69,2.5Zm22.746-19.725-.173,5.654,2.417-.173V44.487l-2.417-.216V72.11l-19.077-.389.734-9.84,7.553.216V44.271l-11.006.389V33.74l11.006.345-.173-5.654Z" fill="#fff"/>
      </g>
    </g>
  </g>
</svg>
