<svg xmlns="http://www.w3.org/2000/svg" xmlns:xlink="http://www.w3.org/1999/xlink" width="593.273" height="184.747" viewBox="0 0 593.273 184.747">
  <defs>
    <filter id="長方形_984" x="0" y="0" width="593.273" height="184.747" filterUnits="userSpaceOnUse">
      <feOffset dx="5" dy="5" input="SourceAlpha"/>
      <feGaussianBlur result="blur"/>
      <feFlood/>
      <feComposite operator="in" in2="blur"/>
      <feComposite in="SourceGraphic"/>
    </filter>
  </defs>
  <g id="text05" transform="translate(0 80.72) rotate(-8)">
    <g transform="matrix(0.99, 0.14, -0.14, 0.99, 11.23, -79.93)" filter="url(#長方形_984)">
      <rect id="長方形_984-2" data-name="長方形 984" width="580" height="100" transform="translate(0 80.72) rotate(-8)" fill="#ad06de"/>
    </g>
    <path id="パス_98" data-name="パス 98" d="M54.912,62.712l-2.1.431-.529-7.74,17.373-.869-.033-.544-16.394.992-.793-12.095L91.819,40.5l.732,12.1-8.953.542.033.545,9.906-.843.469,7.744-9.936.358.044.726,10.814-.9.5,8.227-10.843.413.029.484,11.747-.529.464,11.69L41.356,83.508l-4.539,1.246-2.426-14,3.291-.806-.666-11.01-3.071.429L33.1,45.332l16.423-.508,1.567,25.891,1.281.105-.507-7.377,2.794.014ZM89.221,21.657l.593,9.8,3.932-.238.517,8.53L49.981,42.428l-.2-3.387L45.92,44.556l-13.4-8.721,9.185-12.76,8.969,10.75,6.715-.406.5-.819L52.2,33l-.56-9.255,7.4-.2.132-1.829,16.291-.683-.4,1.421ZM70.634,70.686l.035-.427L57.186,71.2Zm-.477-8.9-2.481.15-.258.744,2.722-.165ZM67.9,48.569l9.074-.549-.043-.726-9.075.549Zm5.34-16.109,3.146-.19-.048-.787-2.964.18Z"/>
    <path id="パス_99" data-name="パス 99" d="M256.333,71.037l-13.988-.612L241.664,19.4l48.811-4.256.975,11.469-36.256,2.976-.027,2.175,35.669-3.032.893,9.886-5.046,13.57L295,54.026,292.106,67.36l-16.947-5.5-16.783,8.9L255.913,63.6Zm-.94-14.174,7.248-2.629-5.795-9.576,7.336-2.213-8.943.76ZM275.7,41.413l-4.84.411,2.476,7.314Z"/>
    <path id="パス_100" data-name="パス 100" d="M304.874,49.536,314.2,37.152l8.334,5.653-3.222,4.256,4.676,1.217,1.09-9.68,12.331,1.694-1.819,10.444,3.99-1.465-1.067-4.8,9.325-2.6,4.692,16.805-10.823,2.685-.338-1.725-4.758,1.121,12.331,1.694-3.8,27.626-38.4-5.277,2.186-15.906-5.289,1.143-.1-11.859,15.777-1.044-3.646-.693,1.747-6.425-3.978,6.263Zm16.453,17.415,14.4,1.979.116-.849-12.707-1.746-1.759.239Zm-.834,6.07L334.895,75l.09-.659-14.4-1.979Zm-.7,5.466-.1.707,14.4,1.979.1-.707Z"/>
    <path id="パス_101" data-name="パス 101" d="M51.91,60.71l-2.1.431-.529-7.74,17.373-.869-.034-.544-16.393.992-.793-12.1L88.816,38.5l.733,12.1-8.954.542.034.545,9.906-.843L91,58.588l-9.937.358.045.726,10.813-.9.5,8.227-10.844.413.029.484,11.747-.529.465,11.69L38.354,81.506l-4.539,1.246-2.426-14,3.291-.806-.666-11.01-3.071.429L30.094,43.33l16.423-.508,1.567,25.891,1.281.105-.507-7.377,2.794.014ZM86.218,19.655l.594,9.8,3.931-.238.517,8.53L46.979,40.426l-.205-3.387-3.856,5.515-13.4-8.721L38.7,21.073l8.969,10.75,6.715-.406.5-.819L49.2,31l-.56-9.255,7.4-.2.132-1.829L72.46,19.03l-.4,1.421ZM67.632,68.684l.034-.427-13.482.937Zm-.477-8.9-2.481.15-.259.744,2.722-.165ZM64.9,46.567l9.074-.549-.043-.726-9.074.549Zm5.341-16.109,3.145-.19-.047-.787-2.965.18Z" fill="#faee00"/>
    <path id="パス_102" data-name="パス 102" d="M101.579,51.683l31.723-.129.389,27.925-22.617.431L110.988,68.6l11.136-.129-.087-5.827-20.458.431Z" fill="#fff"/>
    <path id="パス_103" data-name="パス 103" d="M144.988,53.323l-.431-10.445,6.474-.216.474-4.186,12.172.518-.518,3.151,16.833-.734.474,10.272-19.206.734-4.575,28.011-12.3-2.762,5.352-24.6Zm16.833,14.114L183.7,70.415l-1.165,9.668-21.969-2.676Zm1.9-14.977,20.458.475-.3,9.927-20.588-.82Z" fill="#fff"/>
    <path id="パス_104" data-name="パス 104" d="M206.1,54.489h22.012V79.22H202.428V68.473h14.286v-3.28H194.789V50.173H206.1Zm17.782-13.6L222.67,51.381,197.508,48.4l1.6-10.013Z" fill="#fff"/>
    <path id="パス_105" data-name="パス 105" d="M253.331,69.035l-13.988-.612L238.662,17.4l48.811-4.256.975,11.469-36.256,2.976-.027,2.175,35.669-3.032.893,9.886-5.046,13.57L292,52.024,289.1,65.358l-16.947-5.5-16.783,8.9L252.911,61.6Zm-.94-14.174,7.248-2.629-5.8-9.576,7.336-2.213-8.943.76ZM272.7,39.411l-4.84.411,2.476,7.314Z" fill="#faee00"/>
    <path id="パス_106" data-name="パス 106" d="M301.872,47.535,311.2,35.15l8.334,5.653-3.222,4.256,4.676,1.218,1.09-9.68,12.331,1.694-1.819,10.444,3.99-1.466-1.067-4.8,9.325-2.6,4.692,16.805-10.823,2.684-.338-1.724-4.758,1.12,12.331,1.694-3.8,27.627-38.4-5.277,2.186-15.907-5.289,1.143-.1-11.858,15.777-1.045-3.646-.692,1.746-6.426-3.977,6.263Zm16.453,17.414,14.4,1.979.116-.848-12.707-1.746-1.759.238Zm-.834,6.071L331.893,73l.09-.659-14.4-1.979Zm-.7,5.466-.1.706,14.4,1.979.1-.706Z" fill="#faee00"/>
    <path id="パス_107" data-name="パス 107" d="M357.005,39.339l12.646-.043.216,28.788L380.959,68l.3-9.064,12,.691-1.295,19.422-34.485.043Z" fill="#fff"/>
    <path id="パス_108" data-name="パス 108" d="M404.6,53.108l-.518-11.394,37.464-.95.216,9.323L428.037,62.906l12.992,7.078-6.086,10.229-25.12-15.926,14.071-12.258Z" fill="#fff"/>
    <path id="パス_109" data-name="パス 109" d="M462.559,71.883l10.963-8.546-.13-9.194-2.46,5.654-9.15-4.229,2.546-7.769-3.884,4.445-8.978-6.085,7.64-8.805,5.827,8.028,2.158-8.244,12.818.475-1.338,2.546H495.49l-.431,22.228-9.841-1.769V62.9l10.359,9.582-7.683,8.546-8.287-8.115-10.186,8.071Zm-10.92-2.331,8.416-9.237,6.906,4.532-7.855,12.517Zm33.536-17.394-.043,3.669.475-5.784L475.162,50l-.95,2.158Z" fill="#fff"/>
    <path id="パス_110" data-name="パス 110" d="M504.63,61.826l12.085-20.2h12.6l19.164,25.378-9.841,8.46L523.621,54.23,515.334,68.9Z" fill="#fff"/>
  </g>
</svg>
