<svg xmlns="http://www.w3.org/2000/svg" xmlns:xlink="http://www.w3.org/1999/xlink" width="945.588" height="318.406" viewBox="0 0 945.588 318.406">
  <defs>
    <filter id="長方形_986" x="0" y="0" width="945.588" height="318.406" filterUnits="userSpaceOnUse">
      <feOffset dx="5" dy="5" input="SourceAlpha"/>
      <feGaussianBlur result="blur"/>
      <feFlood/>
      <feComposite operator="in" in2="blur"/>
      <feComposite in="SourceGraphic"/>
    </filter>
    <clipPath id="clip-path">
      <rect id="長方形_987" data-name="長方形 987" width="927.831" height="154.639" fill="none"/>
    </clipPath>
  </defs>
  <g id="text07" transform="matrix(0.985, 0.174, -0.174, 0.985, 26.853, 0)">
    <g transform="matrix(0.98, -0.17, 0.17, 0.98, -26.44, 4.66)" filter="url(#長方形_986)">
      <rect id="長方形_986-2" data-name="長方形 986" width="927.831" height="154.639" transform="matrix(0.98, 0.17, -0.17, 0.98, 26.85, 0)" fill="#00a0e9"/>
    </g>
    <path id="パス_126" data-name="パス 126" d="M237.887,26.7l34.846-2.745,1.441,17.7-93.708,7.636L179.016,31.5l34.931-2.847-.744-4.534L237.887,22.1Zm16.862,69.985L253.731,84.2l-46.016,3.75,2.558,31.392L187.452,121.2l-3.558-44.813,91.473-7.454,3.651,44.8-31.981,2.231-.424-1.747-34.464,2.808-2.27-27.852L251.7,85.771l.982,10.891ZM192.824,74.348l-2-24.5,73.4-5.983,1.99,24.405Zm22.648-13.192,26.081-2.125-.128-1.584-26.083,2.125Zm14.112,40.859,4.843-.394-.221-1.576-4.845.394Z" transform="translate(97.812 12.077)"/>
    <path id="パス_127" data-name="パス 127" d="M257.323,50.462l27.1.467-.094,22.617,11.4-1.777h-9.813l-.094-31.308h21.5v-1.4l-21.5.374-8.785,9.439-19.72-15.326L272.931,17.1l9.721,13.831L282.557,19.9l24.767.374-.374-3.365,22.15-.094-.281,3.365,22.338-.28.093,19.532-22.523-.467v1.4h21.495v31.4H341.53L352.09,74.2,347.7,92.238h5.233l-.467,19.907-84.394-1.215-8.972,1.682-1.5-24.393,4.113-.28V72.8l-4.393.374Zm71.5,34.392.281,6.823-22.15-.093.374-6.356L288.258,91.21l-3.832-13.831.093,14.392,62.8.467ZM304.893,57.939h2.431v-1.87l-2.431.093Zm26.169-1.777h-2.337v1.775h2.337Z" transform="translate(140.598 9.188)"/>
    <path id="パス_128" data-name="パス 128" d="M51.6,75.687l-.135,8.81,33.773-1,.4,17.02-52.061.868-.467-25.63Zm15.55-17.42v7.141l18.755-.6-.266-22.893-52.328.332.068,16.619Z" transform="translate(18.092 22.902)" fill="#fff"/>
    <path id="パス_129" data-name="パス 129" d="M105.751,104.152H87.8V92.138l-7.143,2.4-3.136-17.02L87.8,74.651V65.974l-9.745.268V48.421l9.745.266V40.145h17.954v8.677h29.233L134.184,87h5.473v17.153H116.229l.8-38.177H105.751Z" transform="translate(42.355 21.935)" fill="#fff"/>
    <path id="パス_130" data-name="パス 130" d="M177.019,66.469l9.677-2.536,3.2,15.953L179.155,81.82v7.475H163.069v-4.2l-3.738.936v3.8h29.434v14.415H142.579l.066-19.089-2.87,5.406L127.963,76.482l11.879-17.021L129.1,59.6l.066-15.085H146.45l1.87-4.537,18.554,1.534-1.4,3H188.1V59.195l-20.757.066ZM158,70.874l-4.072-2.937-3.8,5.072Z" transform="translate(69.917 21.841)" fill="#fff"/>
    <path id="パス_131" data-name="パス 131" d="M234.884,23.694l34.846-2.745,1.441,17.7-93.708,7.636-1.451-17.791,34.931-2.847-.744-4.534L234.884,19.1Zm16.862,69.985L250.728,81.2l-46.016,3.75,2.558,31.392L184.449,118.2,180.89,73.384l91.473-7.454,3.651,44.8-31.981,2.231-.424-1.747-34.464,2.808-2.27-27.852L248.7,82.768l.982,10.891ZM189.821,71.345l-2-24.5,73.4-5.983,1.99,24.405Zm22.648-13.192,26.081-2.125-.128-1.583-26.083,2.125Zm14.112,40.859,4.843-.394-.221-1.576-4.845.394Z" transform="translate(96.171 10.436)" fill="#faee00"/>
    <path id="パス_132" data-name="パス 132" d="M254.32,47.459l27.1.467-.093,22.617,11.4-1.775h-9.813l-.093-31.31h21.495v-1.4l-21.495.373-8.785,9.441L254.32,30.543l15.608-16.449,9.721,13.832L279.554,16.9l24.767.374-.374-3.365,22.15-.093-.28,3.363,22.336-.28.093,19.532-22.523-.467v1.4h21.5v31.4h-8.692l10.56,2.429L344.7,89.234h5.233l-.467,19.907-84.392-1.214-8.972,1.682-1.5-24.393,4.112-.281V69.795l-4.393.374Zm71.5,34.393.28,6.823-22.15-.094.374-6.354-19.065,5.98-3.832-13.831.094,14.392,62.8.467ZM301.891,54.935h2.429v-1.87l-2.429.094Zm26.168-1.775h-2.337v1.775h2.337Z" transform="translate(138.957 7.548)" fill="#faee00"/>
    <g id="グループ_17" data-name="グループ 17">
      <g id="グループ_16" data-name="グループ 16" clip-path="url(#clip-path)">
        <path id="パス_133" data-name="パス 133" d="M327.75,61.435l-.8-17.62,57.932-1.469.334,14.95a9.218,9.218,0,0,0-5.006-.4q-2.6.668-3.271,2.2a9.35,9.35,0,0,0-6.874-.735,6.875,6.875,0,0,0-4.472,3.47,9.161,9.161,0,0,0-.467,6.008,8.251,8.251,0,0,0,3.537,4.338l-4.672,4.406L384.08,87.531l-9.41,15.818L335.825,78.722l21.758-18.956Zm42.581,9.411a6.188,6.188,0,0,1-2.87-2.6,6.623,6.623,0,0,1-.066-5.14,5.206,5.206,0,0,1,2.671-2.669,5.516,5.516,0,0,1,5.272.467q-2.468,4.27,1.069,8.61-3.138,2.67-6.074,1.335m6.141-6.608a5.583,5.583,0,1,1,1.635,3.971,5.406,5.406,0,0,1-1.635-3.971" transform="translate(178.64 23.137)" fill="#fff"/>
        <path id="パス_134" data-name="パス 134" d="M375.152,102.567l1.735-18.155,2.937.4-.667,18.821Zm.133-39.379,1.87-21.892,2.136,3.738.266-6.141,13.75,2.337L386.5,56.313l.867,1.2,4.74-11.746,10.611,4.138L395.909,62.52l4.738-1.4,1.737,7.008V59.984H420.8V75.669h1.4V59.984h18.756V77.871H429.081v.934l13.215-.266v11.68l-9.278-.268,10.279,3.2-5.072,13.415-9.144-6.006.268,6.006h-16.22l.268-5.807-10.679,5.807-3.6-7.141-1.336.2-.4-17.088,3.6-.733.8,9.41,6.942-1.268-6.741.268V80.407l-4.206,1-.2-1.669-1,.266.266,26.63H380.158l.268-24.026-4.74.8-.4-13.815,2.6-.334,1.069-1.935Zm19.223,4.605-.469-1.8-1,2.069Zm9.544-27.9h34.506V59.117H404.052ZM413.4,77.871h-9.011l.334.668,8.677.266Zm-1.067-9.945H410.66v1.8h1.669ZM418.4,50.239h5.139v-1.6H418.4Zm14.083,17.688h-1.6v1.8h1.6Z" transform="translate(204.978 21.251)" fill="#fff"/>
        <path id="パス_135" data-name="パス 135" d="M429.049,81.357V40.577H446.4V64.2h6.942V81.357Zm31.9,23.227L447.87,89.967l14.751-14.483V40.577h18.155V83.158Z" transform="translate(234.426 22.171)" fill="#fff"/>
        <path id="パス_136" data-name="パス 136" d="M472.752,64.322l20.089.066v8.944l1.536-16.019-6.741,6.408L472.685,50.373l14.683-11.48,7.542,12.748.535-11.881h44.584V53.042H510l-.267,1.6h29.9V65.523l-3.937,12.348,4.539,1.067-2.538,14.151h2.538l-.135,13.682-59.134-.6-4.806,2.2L472.418,91.02l4.672-1.536.066-9.544-4.471.6Zm33.771,21.693-.534,6.207-13.215-3.405.066,3.671,14.483.334Zm3-8.411-2.137-2.335-.266,3.136Zm5.205-10.478h-6.608l-.133,2Zm6.875,21.892-10.88,3.937,21.892.135Zm1.8-21.892h-3.4l1.8,5.207Z" transform="translate(258.122 21.251)" fill="#fff"/>
        <path id="パス_137" data-name="パス 137" d="M553.154,90.748l-16.686.4.067-30.368h19.823l.135-.8H526.057l.066-15.017,30.7.2-.133-5.406h18.421l-.2,5.139H589.2V59.646l-14.282.066-3.6,44.986-19.956-2.137Zm-.2-13.682,1.8-.066.2-2.337-2.069.066Z" transform="translate(287.43 21.722)" fill="#fff"/>
      </g>
    </g>
  </g>
</svg>
