<svg xmlns="http://www.w3.org/2000/svg" xmlns:xlink="http://www.w3.org/1999/xlink" width="739.839" height="254.59" viewBox="0 0 739.839 254.59">
  <defs>
    <filter id="長方形_979" x="0" y="0" width="739.839" height="254.59" filterUnits="userSpaceOnUse">
      <feOffset dx="5" dy="5" input="SourceAlpha"/>
      <feGaussianBlur result="blur"/>
      <feFlood/>
      <feComposite operator="in" in2="blur"/>
      <feComposite in="SourceGraphic"/>
    </filter>
  </defs>
  <g id="text01" transform="translate(0 151.776) rotate(-12)">
    <g transform="matrix(0.98, 0.21, -0.21, 0.98, 31.56, -148.46)" filter="url(#長方形_979)">
      <rect id="長方形_979-2" data-name="長方形 979" width="730" height="100" transform="translate(0 151.78) rotate(-12)" fill="#e4007f"/>
    </g>
    <path id="パス_39" data-name="パス 39" d="M548.487,71.018,535.6,67.672,538.161,53.4l1.04.379,4.126-21.06-1.524-.3L533.2,76.347l-12.421-2.434.763-3.9-12.676,1.561-.068-2.944-18.349-.605,1.818-14.067,1.4.04,8.3-42.345,29.078,5.7L524.52,50.61l-3.557-.7,1.571,15.023,9.292-47.427,26.141,5.122ZM512.67,27.006l3.557.7.21-1.073-3.557-.7Zm-1.582,8.074-.2,1.016,3.557.7.2-1.016ZM509.07,55.556l-.2-5.844,8.313-.54L508.655,47.5l-1.571,8.018Z"/>
    <path id="パス_40" data-name="パス 40" d="M570.969,34.48l-5.7-13.578,15.016-9.551,7.768,9.551Zm52.643-5.7V42.477h-6.9l-.057,27.156-25.2-.748.633-13.751,9.723.4.058-13.06H587.194V40.693l-2.474,3.28.172,25.775-14.959-.058.231-11.449-2.82,3.682-2.071-18.238L581.21,27.576l5.984,4.315V28.784Zm-34.577-16.11h32.276V25.849H589.035Z"/>
    <path id="パス_41" data-name="パス 41" d="M633.171,63.518l3.313-18.694,7.422,1.315.11-.623-8.651-1.3,1.566-8.837,8.571,1.752.141-.793-7.575-1.108,1.116-9.268,30.73,3.985-1.337,9.521,2.472.555,1.544-9.368,14.106,2.5-2.053,9.277,9.8,1.737L685.1,91.652l-14.512-3.507.943-4.332-1.8,5.525-9.826-2.91-31.329-4.559,1.407-8.924,8.97,1.473.151-.85-8.368-1.249,1.583-8.6,8.231,1.692.11-.623Zm12.4-9.956.963.171.161-.906-.963-.171Zm-1.014,5.722.963.171.161-.907-.963-.17Zm9.168.69-.217.9.963.171.161-.906Zm.853-4.815.964.17.16-.906-.963-.171Zm5.788-16.5-.19,1.077,6.271.877v-.993Zm-1.787,10.084,6.345,1.125.07-.4-6.3-1.351Zm-3.246,18.648-.111.624,7.019.951-.342,1.926.912-2.175Zm-1.57,9.188,5.649.767.183-.376-5.768-1.081Zm13.982-24.166-1.673-.122-2.65,14.956Zm6.913,22.318,1.6.518,4.514-20.527-1.133-.2Z"/>
    <path id="パス_42" data-name="パス 42" d="M92.991,62.626l6.043-.38L98.015,75.854l-22.623-1.01.636,2.394-30.9,7.134L42.5,71.261l2.819-.534-6.767-40.1L55.58,27.756l-.932-4.147L69.692,21.07l.48,4.224,17.306-2.921,5.048,29.57,5.736,6.07Zm-37.5-22.989,19-3.207-.22-1.3-19,3.206Zm1.527,9.049.219,1.3,19-3.207-.219-1.3ZM65.53,66.038l-3.983-6.366-2.488.42,1.212,7.182ZM79,59.693l2-3.3-3.733.63Z"/>
    <path id="パス_43" data-name="パス 43" d="M118.5,34.982l1.683,23.091,8.373-1.683,2.158,11.567-21.753,3.194L105.941,36.32Zm22.616-.518,6,29.652-12.9,2.33-5.179-29.651Z"/>
    <path id="パス_44" data-name="パス 44" d="M158.457,69.51l4.316-9.582,10.833,4.834-4.316,9.582Zm6.172-11.524,10.531-26.76,12,5.266L174.124,62.129Z"/>
    <path id="パス_45" data-name="パス 45" d="M89.988,59.623l6.043-.38L95.012,72.851l-22.623-1.01.636,2.394-30.9,7.134L39.5,68.258l2.819-.534-6.767-40.1,17.024-2.873-.932-4.147,15.044-2.539.48,4.224L84.475,19.37l5.048,29.57,5.736,6.07Zm-37.5-22.989,19-3.207-.22-1.3-19,3.206Zm1.527,9.049.219,1.3,19-3.207-.219-1.3Zm8.512,17.352-3.983-6.366-2.488.42,1.212,7.182ZM76,56.69l2-3.3-3.733.63Z" fill="#faee00"/>
    <path id="パス_46" data-name="パス 46" d="M115.5,31.979l1.683,23.091,8.373-1.683,2.158,11.567-21.753,3.194-3.021-34.831Zm22.616-.518,6,29.652-12.905,2.33-5.179-29.651Z" fill="#faee00"/>
    <path id="パス_47" data-name="パス 47" d="M155.454,66.508l4.316-9.582L170.6,61.76l-4.316,9.582Zm6.172-11.524,10.531-26.76,12,5.266L171.121,59.127Z" fill="#faee00"/>
    <path id="パス_48" data-name="パス 48" d="M229.727,39.575l.691,11.006L206.2,51.66l.087,7.165,24.127-.173V69.831l-35.651-.173-.087-28.443,6.518-.3-.13-11.308,11.567.043-.129,10.92Z" fill="#fff"/>
    <path id="パス_49" data-name="パス 49" d="M265.928,53.257v9.41l-6.56-.174.172,9.281H248.1l.172-9.281-7.6.174V53.215l7.6.172.043-.82-6.992.129.043-9.149,6.949.172V42.035l-6.992,1.123-.82-14.329,7.079-.561.733,11.61-.172-11.7,11.437.043-.215,12.041.82-12.084,7.164.3-.172,1.468h6.431V60.94h-7.122V34.267l-1.165,8.891-5.956-1.08v1.641l5.61-.129v9.193l-5.61-.173v.777Zm18.516,18.559-15.106-.258.086-9.884,4.7.215.043-33.535h10.272Z" fill="#fff"/>
    <path id="パス_50" data-name="パス 50" d="M313.743,34.4l.389-4.531,4.575.863,17.48-2.547,1.295,10.4-10.618.82-.345,4.705,11.092-.346v9.971l-2.071-.173.3,18.214h-9.409l.345-18.387H325.44L323.8,71.816l-9.15-2.589-.044,1.294H293.8l-.043-41.865,7.9.043v2.5l2.676-1.166.734,4.489-.173-6.086,9.021.043Zm-8.675,4.446-2.374,1.079-1.036-2.374V50.236l2.288-2.071-2.158.129V40.137l3.28.172ZM305.025,57.1l-1.813,3.237L301.658,55.8v5.525l12.69.129,1.424-5.567-1.338,2.114-.734-1.769.173,4.748h-8.978ZM316.894,40.18v8.157l-1.77-.215,1.6,1.424.993-13.812-1.467,4.144-2.547-.907.043,1.338Z" fill="#fff"/>
    <path id="パス_51" data-name="パス 51" d="M347.487,30.166l12.646-.043.216,28.788,11.092-.086.3-9.064,12,.691-1.295,19.422-34.485.043Z" fill="#fff"/>
    <path id="パス_52" data-name="パス 52" d="M394.953,44.15l-.431-10.445L401,33.489l.474-4.186,12.172.518-.518,3.151,16.833-.734.474,10.272-19.206.734L406.65,71.255l-12.3-2.762,5.352-24.6Zm16.833,14.114,21.882,2.978L432.5,70.91l-21.969-2.676Zm1.9-14.977,20.458.475-.3,9.927-20.588-.82Z" fill="#fff"/>
    <path id="パス_53" data-name="パス 53" d="M456.063,45.316h22.012V70.047H452.394V59.3H466.68V56.02H444.755V41h11.308Zm17.782-13.6-1.209,10.488L447.474,39.23l1.6-10.013Z" fill="#fff"/>
    <path id="パス_54" data-name="パス 54" d="M545.484,68.015,532.6,64.669,535.158,50.4l1.04.379,4.126-21.06-1.524-.3-8.607,43.926L517.772,70.91l.763-3.9-12.676,1.561-.068-2.944-18.349-.605L489.26,50.96l1.4.04,8.3-42.345,29.078,5.7-6.516,33.255-3.557-.7,1.571,15.023,9.292-47.427,26.141,5.122ZM509.667,24l3.557.7.21-1.073-3.557-.7Zm-1.582,8.074-.2,1.016,3.557.7.2-1.016Zm-2.018,20.476-.2-5.844,8.313-.54L505.652,44.5l-1.571,8.018Z" fill="#faee00"/>
    <path id="パス_55" data-name="パス 55" d="M567.966,31.477l-5.7-13.578,15.016-9.551,7.767,9.551Zm52.644-5.7V39.474h-6.9l-.058,27.156-25.2-.748.633-13.75,9.723.4.058-13.06H584.191V37.691l-2.474,3.279.173,25.775-14.959-.057.23-11.45-2.819,3.683-2.071-18.239,15.936-16.109,5.984,4.315V25.781ZM586.032,9.672h32.276V22.847H586.032Z" fill="#faee00"/>
    <path id="パス_56" data-name="パス 56" d="M630.168,60.515l3.313-18.694,7.422,1.315.11-.623-8.651-1.3,1.566-8.837,8.571,1.752.141-.793-7.575-1.108,1.116-9.268,30.73,3.985-1.337,9.521,2.472.555,1.544-9.368,14.106,2.5-2.053,9.277,9.8,1.737-9.349,47.483-14.512-3.507.943-4.332-1.8,5.525-9.826-2.91-31.329-4.559,1.407-8.924,8.971,1.473.15-.85-8.368-1.249,1.583-8.6,8.231,1.692.11-.623Zm12.4-9.956.963.171.161-.906-.963-.171Zm-1.014,5.722.963.171.161-.907-.963-.17Zm9.168.69-.217.9.963.171.161-.906Zm.854-4.815.963.17.16-.906-.963-.171Zm5.787-16.5-.19,1.077,6.271.877v-.993Zm-1.787,10.084,6.345,1.125.07-.4-6.3-1.351Zm-3.246,18.648-.111.624,7.019.951-.342,1.926.912-2.175Zm-1.57,9.188,5.649.767.183-.376-5.768-1.081Zm13.982-24.166-1.673-.122-2.65,14.956Zm6.913,22.318,1.6.518,4.514-20.527-1.133-.2Z" fill="#faee00"/>
  </g>
</svg>
