<svg xmlns="http://www.w3.org/2000/svg" xmlns:xlink="http://www.w3.org/1999/xlink" width="740.669" height="242.453" viewBox="0 0 740.669 242.453">
  <defs>
    <filter id="長方形_985" x="0" y="0" width="740.669" height="242.453" filterUnits="userSpaceOnUse">
      <feOffset dx="5" dy="5" input="SourceAlpha"/>
      <feGaussianBlur result="blur"/>
      <feFlood/>
      <feComposite operator="in" in2="blur"/>
      <feComposite in="SourceGraphic"/>
    </filter>
  </defs>
  <g id="text06" transform="translate(19.081) rotate(11)">
    <g transform="matrix(0.98, -0.19, 0.19, 0.98, -18.73, 3.64)" filter="url(#長方形_985)">
      <rect id="長方形_985-2" data-name="長方形 985" width="730" height="100" transform="translate(19.08) rotate(11)" fill="#e4007f"/>
    </g>
    <path id="パス_111" data-name="パス 111" d="M445.748,77.584,434.267,65.067l9.15-5.956L454.855,69.47Z" fill="#fff"/>
    <path id="パス_112" data-name="パス 112" d="M57.2,31.35l-.845-10.732,32.307-2.545.827,10.5-3.92,8.25,4.9.528-1,13.391L74.726,46.422l-7.24,3.827L82.022,49.1l.057,2.909,8.045-.862.807,10.963-8.081.408.179,2.271,9.26-.673.849,10.788L59.01,77.54l-.4-5.11-3.808.986L53.185,57.261l5-1.023L59.75,66.627l9.2-.725-.179-2.271-8.328.885-.7-8.914-4.493.982-.294-.834-2.31.411,1.984,21.553-12.6.993L40.54,57.743l-6.39.846-1.156-11.05,5.154-.577-5.471-3.454-.435-20.019,2.386,2.726.144-4.7,12.858,1.5-3.8,12.011.871.9,2.746-10.1,9.25,3.556L51.329,40.953l4.945-1.761,4.779,14.249L68,53.123l-.512-2.874-4.935,2.617L58.163,39.958l3.685-1.091-3.979-4.085,5.292-3.9ZM35.222,75.815l-.359-16.882,5.36-.137,1.014,17.231ZM52,45.128,50.864,42.3,49.8,45.473ZM73.361,33.447l2.064-3.533-4.088.322Z"/>
    <path id="パス_113" data-name="パス 113" d="M106.333,63.545l3.926.73-1.738,15.453-4.773-1.3ZM151.3,30.114l15.921,7.08-3.9,15.751-2.662,20.9-7.627-.972,9.359,3.6-5.32,12.47L144.99,81.443l-14.674,3.873L129,78.546l-.82,6.44L115.1,83.091l1.111-6.92-2.642.008.846-11.605,2.9.2-.289,9.034.953.179.13-1.017-.707.14.329-8,2.176.047.106-.388L106,62.987l4.719-37.063,25.792,3.054-.345,2.712Zm-42.257,48.7,1.834-14.407,2.967.148-.711,14.148Zm13.14-40.527.094-.734-1.695-.216-.094.735ZM120.2,53.828l-1.695-.215-.03.685,1.639.208Zm1.043-8.192-1.646-.152-.1.791,1.645.152Zm16.812,25.336-6.611-.842,2.684-21.073L133.5,47.2l-2.26-.288-.1.791,2.119.041-1,7.853L130.2,55.1l-.086.678,2.373.3-2.154,15.113Zm-2.309-22,6.723.856.157-.784-3.616-.461.209-1.638Zm7.026,13.353.338-2.655-.847-.108-.338,2.655Zm5.614-20.643,2.486.316-.973-.927Zm2.861,21.722.791.1.338-2.656-.791-.1Zm6.793-14.12-.216,1.7-3.107-.4-.094.735,6.272.8Z"/>
    <path id="パス_114" data-name="パス 114" d="M640.222,52.127l16.4-1.947,1.393,13.543-16.451,1.5L643.2,77.9l-16.3,1.677-2.5-26.207-1.46,5.988-8.954-3.814,2.838,25.069L600.964,82.24l-1.412-15.617-1.8,7.71-5.319-23.972L596.6,17.112l19.064.569-3.725,18.026.641,6.226,5.7-27.181,18.8-.7-1.942,5.713L655.2,17.441l1.439,13.992-18.383,1.631.3,2.953,16.341-1.94,1.379,13.414-16.393,1.427Z"/>
    <path id="パス_115" data-name="パス 115" d="M54.2,27.347l-.845-10.732L85.658,14.07l.827,10.5-3.92,8.25,4.9.528-1,13.391L71.723,42.419l-7.24,3.827L79.019,45.1l.057,2.909,8.045-.862.807,10.963-8.081.408.179,2.271,9.26-.673L90.135,70.9,56.007,73.537l-.4-5.11-3.808.986L50.182,53.258l5-1.023,1.561,10.389,9.2-.725-.179-2.271-8.328.885-.7-8.914-4.493.982-.294-.834-2.31.411,1.984,21.553L39.017,74.7,37.537,53.74l-6.39.846-1.156-11.05,5.154-.577-5.471-3.454-.435-20.019,2.386,2.726.144-4.7,12.858,1.5L40.832,31.028l.871.9,2.746-10.1,9.25,3.556L48.326,36.95l4.945-1.761L58.05,49.438,65,49.12l-.512-2.874-4.935,2.617L55.16,35.955l3.685-1.091-3.979-4.085,5.292-3.9ZM32.219,71.812,31.86,54.93l5.36-.137,1.014,17.231ZM49,41.125,47.861,38.3,46.8,41.47ZM70.358,29.444l2.064-3.533-4.088.322Z" fill="#faee00"/>
    <path id="パス_116" data-name="パス 116" d="M103.33,59.542l3.926.73-1.738,15.453-4.773-1.3Zm44.963-33.431,15.921,7.08-3.9,15.751-2.662,20.9-7.627-.972,9.359,3.6-5.32,12.47L141.987,77.44l-14.674,3.873-1.32-6.77-.82,6.44-13.079-1.9,1.111-6.92-2.642.008.846-11.605,2.9.2-.289,9.034.953.179.13-1.017-.707.14.329-8,2.176.047.106-.388L103,58.984l4.719-37.063,25.792,3.054-.345,2.712Zm-42.257,48.7,1.834-14.407,2.967.148L110.126,74.7Zm13.14-40.527.094-.734-1.695-.216-.094.735ZM117.2,49.825,115.5,49.61l-.03.685,1.639.208Zm1.043-8.192-1.646-.152-.1.791,1.645.152Zm16.812,25.336-6.611-.842,2.684-21.073-.625-1.86-2.26-.288-.1.791,2.119.041-1,7.853L127.2,51.1l-.086.678,2.373.3-2.154,15.113Zm-2.309-22,6.723.856.157-.784-3.616-.461.209-1.638Zm7.026,13.353.338-2.655-.847-.108-.338,2.655Zm5.614-20.643L147.87,38l-.973-.927ZM148.245,59.4l.791.1.338-2.656-.791-.1Zm6.793-14.12-.216,1.695-3.107-.4-.094.735,6.272.8Z" fill="#faee00"/>
    <path id="パス_117" data-name="パス 117" d="M215.671,48.034l6.258-1.64L224,56.71l-6.949,1.251v4.834h-10.4V60.076l-2.417.6v2.46h19.034v9.322H193.4l.043-12.344-1.856,3.5-7.639-9.106L191.63,43.5l-6.949.087.043-9.755H195.9l1.209-2.934,12,.992-.906,1.942h14.632v9.5l-13.423.043Zm-12.3,2.849-2.633-1.9-2.46,3.28Z" fill="#fff"/>
    <path id="パス_118" data-name="パス 118" d="M233.705,40.394l4.317-10.4,10.747,4.747-2.2,8.071ZM248.9,56.537l-2.546,17.005-12.56-4.489L240.87,54.12Zm-4.4-2.245-10.575-2.158,3.755-10.7,9.841,5.784Zm4.791-.863h7.466V52.005l-8.8.172-.044-9.366,8.848.173v-1.51l-7.035.474-.475-9.927,26.026-1.942,1.338,10.272-8.675.518v2.072l9.539-.173v9.366l-9.539-.172v1.467H275.4V73.542H249.287Zm10.876,11.222h4.316v-1.77h-4.316Z" fill="#fff"/>
    <path id="パス_119" data-name="パス 119" d="M316.089,69.96l-11.956.173-.216-21.494h-1.726l-3.237,21.839-11.524-2.5,3.8-19.207-3.28.259L287.43,38.5l4.92-.173L293,31.547l11.48.561-.777,5.913,10.877-.388Zm12.43-10.488-10.877,1.6-2.891-25.077,10.79-1.338Z" fill="#fff"/>
    <path id="パス_120" data-name="パス 120" d="M339.043,32.021l12.646-.043.216,28.788L363,60.68l.3-9.064,12,.691L374,71.729l-34.485.043Z" fill="#fff"/>
    <path id="パス_121" data-name="パス 121" d="M386.642,45.79,386.124,34.4l37.464-.95.216,9.323L410.078,55.588l12.992,7.078-6.086,10.229-25.12-15.926,14.071-12.258Z" fill="#fff"/>
    <path id="パス_122" data-name="パス 122" d="M513.863,64.91v7.424H488.571V52.825h13.811v-.432H487.233V43.07h15.149v-.561H488.268V33.143h14.114V31.029h11.481v2.114h11.308l-.043,9.366H513.863v.561h11.955v9.323H513.863v.691l12.344,4.834-3.971,11.049Zm-15.15-1.986h3.669V62.19h-3.669Z" fill="#fff"/>
    <path id="パス_123" data-name="パス 123" d="M536.986,46.005l-.431-10.445,6.474-.216.474-4.186,12.172.518-.518,3.151,16.833-.734.474,10.272-19.206.734L548.683,73.11l-12.3-2.762,5.352-24.6Zm16.833,14.114L575.7,63.1l-1.166,9.668-21.969-2.676Zm1.9-14.977,20.458.475-.3,9.927-20.588-.82Z" fill="#fff"/>
    <path id="パス_124" data-name="パス 124" d="M637.219,49.124l16.4-1.947,1.393,13.543-16.451,1.5,1.628,12.675-16.3,1.677-2.5-26.207-1.46,5.988-8.954-3.814,2.838,25.069-15.853,1.631L596.549,63.62l-1.8,7.71-5.319-23.972L593.6,14.109l19.064.569L608.936,32.7l.641,6.226,5.7-27.181,18.8-.7-1.942,5.713L652.2,14.438l1.439,13.992-18.383,1.631.3,2.953,16.341-1.94,1.379,13.414-16.393,1.427Z" fill="#faee00"/>
    <path id="パス_125" data-name="パス 125" d="M666.836,44.6V35.409l32.112.044-.043,8.286-9.841,5.05h11.7v26.89h-34.4V58.932h22.055v7.683h.906v-8.46H666.362V51.379L680.691,44.6ZM678.144,66.01H676.5v.95h1.64Z" fill="#fff"/>
  </g>
</svg>
