<svg xmlns="http://www.w3.org/2000/svg" xmlns:xlink="http://www.w3.org/1999/xlink" width="500.782" height="138.937" viewBox="0 0 500.782 138.937">
  <defs>
    <filter id="長方形_983" x="0" y="0" width="500.782" height="138.937" filterUnits="userSpaceOnUse">
      <feOffset dx="5" dy="5" input="SourceAlpha"/>
      <feGaussianBlur result="blur"/>
      <feFlood/>
      <feComposite operator="in" in2="blur"/>
      <feComposite in="SourceGraphic"/>
    </filter>
  </defs>
  <g id="text04" transform="matrix(0.998, 0.07, -0.07, 0.998, 6.976, 0)">
    <g transform="matrix(1, -0.07, 0.07, 1, -6.96, 0.49)" filter="url(#長方形_983)">
      <rect id="長方形_983-2" data-name="長方形 983" width="490" height="100" transform="matrix(1, 0.07, -0.07, 1, 6.98, 0)" fill="#2955ff"/>
    </g>
    <path id="パス_87" data-name="パス 87" d="M241.995,13.695l2.716,24.825.628-.006-.675-8.467,4.364-.29,1.451,19L232.6,50.71l-.761-6.951-6.993,4.973-.789-2.049-1,3.5,4.176-2.592,5.187,10.675-2.8,1.939,7.646-.146-2.19-5.1L249.5,50.118l3.982,22.049-10.507,3.85-.953-2.973-.219,3.164L202.577,80.5l-.863-7.882-.323,7.949-10.956-.246L188.971,57.18l11.08.232-.5-2.269,15.7-1.718,1,13.2,10.489-1.147-.133-2.938-3.086,2.222-7.4-10.244,4.465-2.812-9.109-3.463-22.316,7.278-2.629-15.414,6.078-1.859-.584-5.337-6.331.693-1.473-13.468,27.184-2.974,1.473,13.467-5.461.6.346,3.165,5.9-1.714-1.16-15.763ZM226.51,30.023l2.126-1.237,2.134,5.733-.706-6.455-3.662.4Z"/>
    <path id="パス_88" data-name="パス 88" d="M291.563,89.308h-16.8V78.07l-6.68,2.248L265.154,64.4l9.614-2.685V53.6l-9.115.25V37.176l9.115.25V29.434h16.8V37.55h27.346l-.749,35.713h5.119V89.308H301.365l.749-35.712H291.563Z"/>
    <path id="パス_89" data-name="パス 89" d="M332.508,41.848l-.437-15.109,8.366-.312,1.311-6.743,15.983,1.436-1.124,4.37,6.618-.312.188,14.859-9.8.375-5.869,24.911-16.108-3.808L337.44,41.6ZM382.393,51.9,392.632,56.4,387.45,71.442l-5.057-2.872V78.934H346.618v-11.8l2.31.562,4.995-21.665h11.925V41.036h16.545Zm-16.545,8.741h-3.621v4.433h3.621ZM387.2,42.847l-23.1-8.928,6.3-14.3,22.352,8.428Z"/>
    <path id="パス_90" data-name="パス 90" d="M427.068,28.341l-1.1,33.472,12.3-1.144,1.34,16.968-31.779,1.276.968-50.564Zm32.612,2.7,4.106,43.568L444.867,76,441.94,32.555Z"/>
    <path id="パス_91" data-name="パス 91" d="M26.948,68.8V59.045L32,59.26,26.646,56.8l2.935-15.322,11.351,1.511L39.853,46.01l4.187-.043-.173-4.575,11.4-.043-.13,4.575L66.7,45.751l.086,9.539-11.653-.173v4.014l14.114-.173.043,9.755L57.117,68.54l12.819,5.05L66.483,85.071l-17.825-10.4L31.523,85.243,26.214,74.367,39.9,68.626Zm17.178-9.625-.043-4.014-7.035.043-1.123,4.014Z" fill="#fff"/>
    <path id="パス_92" data-name="パス 92" d="M81.452,73.978h-1.9V41.952H99.882V51.62l1.51-10.4,13.251.733-1.554,3.626,10.143-.173V56.368H122.2L120.34,71.906l2.935.647L121.764,85.2l-10.315-5.093L101.436,85.07,100.4,83.214l-8.46,1.9L90.559,74.625l2.849-.647H85.423l3.8.345-.259,11.006-9.927-.949Zm7.683-23.221h1.122V49.635H89.135Zm0,7.812h1.122V57.533H89.135Zm0,7.942h1.122V65.3H89.135ZM97.9,73.978l.475.777,7.251-3.151-.906-3.151-.345.993-4.489-4.1v8.632Zm14.114-10.4.6-7.208-2.805.043-.907,2.158,2.547-.518Z" fill="#fff"/>
    <path id="パス_93" data-name="パス 93" d="M143.68,82.611l-10.79-.173.172-38.845,10.747.173Zm.82-24.645V47.693h12.258V42.687h11.351v5.006h5.784V57.966h-5.784V62.8l6.258,1.856-2.546,10.229-3.712-1.425v9.8H144.457V61.289h12.3V57.966Zm10.747,13.509.043,1.683,1.468-.043v-1.64Z" fill="#fff"/>
    <path id="パス_94" data-name="パス 94" d="M238.992,10.692l2.716,24.825.628-.006-.675-8.467,4.364-.29,1.451,19L229.6,47.707l-.761-6.951-6.993,4.973-.789-2.049-1,3.5,4.176-2.592,5.187,10.675-2.8,1.939,7.646-.146-2.19-5.1,14.418-4.844,3.982,22.049-10.507,3.85-.953-2.973-.219,3.164L199.574,77.5l-.863-7.882-.323,7.949-10.956-.246-1.464-23.141,11.08.232-.5-2.269,15.7-1.718,1.005,13.2,10.489-1.147-.133-2.938-3.086,2.222-7.4-10.244,4.465-2.812-9.109-3.463-22.316,7.278-2.629-15.414,6.078-1.859-.584-5.337-6.331.693-1.473-13.468,27.184-2.974,1.473,13.467-5.461.6.346,3.165,5.9-1.714-1.16-15.763ZM223.507,27.02l2.126-1.237,2.134,5.733-.706-6.455-3.662.4Z" fill="#faee00"/>
    <path id="パス_95" data-name="パス 95" d="M288.56,86.305h-16.8V75.067l-6.68,2.248-2.934-15.921,9.614-2.685V50.593l-9.115.25V34.173l9.115.25V26.431h16.8v8.116h27.346l-.749,35.713h5.119V86.305H298.362l.749-35.712H288.56Z" fill="#faee00"/>
    <path id="パス_96" data-name="パス 96" d="M329.506,38.846l-.437-15.109,8.366-.312,1.311-6.743,15.983,1.436-1.124,4.37,6.618-.312.188,14.859-9.8.375L344.74,62.321l-16.108-3.808L334.438,38.6ZM379.391,48.9l10.239,4.5L384.448,68.44l-5.057-2.872V75.932H343.616v-11.8l2.31.562,4.995-21.665h11.925V38.034h16.545Zm-16.545,8.741h-3.621v4.433h3.621ZM384.2,39.845l-23.1-8.928,6.305-14.3,22.352,8.428Z" fill="#faee00"/>
    <path id="パス_97" data-name="パス 97" d="M424.065,25.338l-1.1,33.472,12.3-1.144,1.34,16.968L404.826,75.91l.968-50.564Zm32.612,2.7,4.106,43.568L441.864,73l-2.927-43.443Z" fill="#faee00"/>
  </g>
</svg>
