<svg width="5464" height="1078" viewBox="0 0 5464 1078" fill="none" xmlns="http://www.w3.org/2000/svg">
<path d="M608.1 925.556C498.116 925.556 524.733 1056.31 392.682 1059.44C325.898 1061.03 280.729 1028.92 241.245 996.815C202.656 965.438 169.497 934.062 126.897 934.132C40.707 934.274 0 1024.63 0 1024.63V41.4919C0 41.4919 42.7034 81.5419 126.896 79.5749C211.089 77.6079 219.149 63.9109 337.226 11.6979C455.303 -40.5151 547.766 108.647 657.866 108.647C767.966 108.647 800.31 20.5469 919.554 11.6979C1038.8 2.84892 1113.59 84.5399 1191.3 88.2769C1269.02 92.0139 1364.89 47 1364.89 47V130.805H1364.88C1364.78 187.559 1363.02 641.384 1364.88 925.556C1365.34 994.654 1337.74 1023.38 1281.96 1027.19C1265.83 1028.3 1247.35 1027.32 1226.51 1024.63C1190.35 1025.84 1160.45 1000.32 1131.4 974.806C1100.46 947.639 1070.48 920.473 1034.89 925.556C937.407 939.48 929.112 1072.5 820.87 1072.5C712.629 1072.5 718.082 925.556 608.1 925.556Z" fill="#FF9710"/>
<path d="M4706.1 930.945C4596.12 930.945 4622.73 1061.7 4490.68 1064.83C4423.9 1066.41 4378.73 1034.31 4339.24 1002.2C4300.66 970.827 4267.5 939.451 4224.9 939.521C4138.71 939.663 4032 990.5 4032 990.5L4095 47C4095 47 4140.7 86.9306 4224.9 84.9636C4309.09 82.9966 4317.15 69.2996 4435.23 17.0866C4553.3 -35.1264 4645.77 114.036 4755.87 114.036C4865.97 114.036 4898.31 25.9356 5017.55 17.0866C5136.8 8.23759 5211.59 89.9286 5289.3 93.6656C5367.02 97.4026 5464 58 5464 58L5462.89 136.194H5462.88C5462.78 192.948 5461.02 646.773 5462.88 930.945C5463.34 1000.04 5435.74 1028.77 5379.96 1032.58C5363.83 1033.69 5345.35 1032.71 5324.51 1030.02C5288.35 1031.23 5258.45 1005.71 5229.4 980.195C5198.46 953.028 5168.48 925.862 5132.89 930.945C5035.41 944.869 5027.11 1077.89 4918.87 1077.89C4810.63 1077.89 4816.08 930.945 4706.1 930.945Z" fill="#FF9710"/>
<path d="M2582.2 931.041C2362.23 931.041 2415.46 1061.81 2151.36 1064.94C2017.79 1066.52 1927.46 1034.42 1848.49 1002.31C1771.31 970.927 1704.99 939.547 1619.79 939.617C1447.41 939.76 1325 1016.5 1325 1016.5L1364.5 47C1364.5 47 1451.41 86.939 1619.79 84.9718C1788.18 83.0046 1804.3 69.3062 2040.45 17.0877C2276.6 -35.1307 2461.53 114.047 2681.73 114.047C2901.93 114.047 2966.62 25.9377 3205.1 17.0877C3443.59 8.23782 3593.17 89.9373 3748.6 93.6747C3904.03 97.4121 4095.78 46.8848 4095.78 46.8848V136.207H4095.76C4095.56 192.967 4094.26 617.122 4097.99 901.324C4099.16 990.411 3968.32 1027.64 3819.01 1030.13C3746.69 1031.34 3686.9 1005.82 3628.79 980.296C3566.92 953.126 3506.95 925.957 3435.77 931.041C3240.81 944.966 3224.22 1078 3007.74 1078C2791.25 1078 2802.16 931.041 2582.2 931.041Z" fill="#FF9710"/>
</svg>
