<svg xmlns="http://www.w3.org/2000/svg" xmlns:xlink="http://www.w3.org/1999/xlink" width="448" height="231" viewBox="0 0 448 231">
  <defs>
    <clipPath id="clip-path">
      <rect id="長方形_1088" data-name="長方形 1088" width="434" height="217" transform="translate(0.006 0.183)" fill="none"/>
    </clipPath>
  </defs>
  <g id="img_text01" transform="translate(15.098 0.261)">
    <rect id="長方形_1087" data-name="長方形 1087" width="434" height="217" transform="translate(-1.098 -0.261)" fill="none"/>
    <g id="グループ_186" data-name="グループ 186" transform="translate(-15.103 13.556)">
      <g id="グループ_185" data-name="グループ 185" transform="translate(0 0)" clip-path="url(#clip-path)">
        <path id="パス_714" data-name="パス 714" d="M95.533,36.569c.193.552.371,1.136.541,1.751.3,1.107.577,2.326.826,3.716.063.35.125.709.186,1.082.15.93.281,1.9.4,2.889.313,2.57.523,5.293.621,8q.517-.048,1.035-.089c2.609-.214,5.228-.36,7.673-.395a4.521,4.521,0,0,1,4.5,5.392,4.512,4.512,0,0,1,3.24,6.355c-4.588,9.79-9.307,20.829-13.368,31.191,4.792-.052,9.827,0,14.662.156a4.519,4.519,0,0,1,2.206.668,157.849,157.849,0,0,1,18.956-14.61l.045-2.486a4.525,4.525,0,0,1,4.427-4.441l15.8-.334a4.515,4.515,0,0,1,4.572,4,4.516,4.516,0,0,1,3.051-.989l.3.015,4.985-10.273a4.524,4.524,0,0,1,2.568-2.293,75.192,75.192,0,0,1,15.953-3.742,4.525,4.525,0,0,1,5.045,4.487c0,.3.012.608.014.912a4.455,4.455,0,0,1,3.567,4.39,95.61,95.61,0,0,0,.647,10.843c2.239-6.3,4.692-12.63,7.122-17.963a4.524,4.524,0,0,1,5.986-2.244L225.3,69a4.489,4.489,0,0,1,1.694,1.367l.83-1.709a4.521,4.521,0,0,1,2.568-2.293,75.188,75.188,0,0,1,15.952-3.743,4.525,4.525,0,0,1,5.046,4.488c0,.3.012.607.015.91a4.46,4.46,0,0,1,3.566,4.391,95.626,95.626,0,0,0,.647,10.845c2.239-6.3,4.692-12.63,7.122-17.964a4.528,4.528,0,0,1,5.985-2.244l14.205,6.441a4.463,4.463,0,0,1,2.578,4.847l1,.454a4.543,4.543,0,0,1,1.028.671,118.522,118.522,0,0,1,18.366-1.3,4.517,4.517,0,0,1,4.358,5.391,4.46,4.46,0,0,1,3.523,3.321c.078-.033.147-.078.226-.106a75.159,75.159,0,0,1,15.953-3.742,4.525,4.525,0,0,1,5.045,4.487c0,.3.011.608.014.912a4.455,4.455,0,0,1,3.567,4.39,95.619,95.619,0,0,0,.647,10.843c2.239-6.3,4.692-12.631,7.122-17.965a4.581,4.581,0,0,1,5.986-2.243l2,.907,6.35,2.88q.506-.642,1.032-1.278.642-.772,1.31-1.532-1-.713-2.03-1.408-2.227-1.5-4.586-2.92A36.325,36.325,0,0,0,352.3,63.277c-7.6-14.384-24.687-27.036-46.581-33.474-3.245-.954-6.588-1.779-10.027-2.445a98.444,98.444,0,0,0-41.113.393c-.564.135-1.128.267-1.684.413q-2.208-.942-4.448-1.8c-4.187-1.634-8.446-3.093-12.771-4.325-1.635-.465-3.277-.9-4.931-1.3-6.009-1.507-12.135-2.81-18.259-3.743a135.471,135.471,0,0,0-18.549-1.683c-12.423-.237-25.052,1.3-37,5.872l-.32.122-.277-.034a109.359,109.359,0,0,0-20.083-.794,87.737,87.737,0,0,0-19.977,3.483,67.233,67.233,0,0,0-18.636,8.89c-1.02.7-2.014,1.458-2.994,2.233a4.488,4.488,0,0,1,.881,1.488" transform="translate(-8.898 -1.434)" fill="#fff700"/>
        <path id="パス_715" data-name="パス 715" d="M376.838,148.017c-.044,0-.087-.009-.131-.012a33.1,33.1,0,0,1-4.452-.539c-7.77-1.5-13.473-5.772-16.354-11.948a19.763,19.763,0,0,1-1.6-1.948,168.047,168.047,0,0,0-5.93,17.47,4.526,4.526,0,0,1-3.518,3.263l-14.6,2.791a4.531,4.531,0,0,1-4.917-2.464c-.521-1.07-1.022-2.148-1.512-3.228a4.519,4.519,0,0,1-2.069-2.074,130.32,130.32,0,0,1-5.468-12.965c-1.519,4.814-2.891,9.73-3.969,14.372a4.525,4.525,0,0,1-3.569,3.423L293.641,157a4.516,4.516,0,0,1-5.273-5.305h-.007a4.514,4.514,0,0,1-2.337-1.25,4.49,4.49,0,0,1-2.079.625l-15.983.736a4.524,4.524,0,0,1-4.65-5.379,4.523,4.523,0,0,1-3.441-5.842c.265-.817.548-1.683.845-2.591l-14.088,2.693a4.524,4.524,0,0,1-4.917-2.462c-.521-1.07-1.022-2.147-1.511-3.226a4.518,4.518,0,0,1-2.07-2.077,130.025,130.025,0,0,1-5.47-12.965c-1.518,4.814-2.89,9.731-3.968,14.372a4.521,4.521,0,0,1-3.569,3.423l-15.1,2.848a4.506,4.506,0,0,1-5.271-3.582,4.5,4.5,0,0,1-1.15.389L189,140.2a4.525,4.525,0,0,1-4.918-2.463c-.521-1.07-1.021-2.147-1.511-3.226a4.52,4.52,0,0,1-2.07-2.076,130.325,130.325,0,0,1-5.468-12.965c-1.519,4.814-2.891,9.73-3.969,14.372a4.525,4.525,0,0,1-3.569,3.423l-6.386,1.2a9.694,9.694,0,0,0,1,3.415,4.523,4.523,0,0,1-2.068,6.582l-16.389,6.911a4.523,4.523,0,0,1-6.167-3.153c-.147-.641-.284-1.3-.415-1.971a4.48,4.48,0,0,1-3.166-3.332,73.072,73.072,0,0,1-1.457-9.254,21.73,21.73,0,0,0-14.281,11.519c-.36.688-.708,1.4-1.031,2.144a4.524,4.524,0,0,1-6.761,1.9L101.52,147,98.1,144.581a4.5,4.5,0,0,1-1.88-4.1l-1.7-1.2a4.524,4.524,0,0,1-1.1-6.292c.437-.624.915-1.282,1.408-1.951-8.625-.277-17.664-.222-25.119.171a4.519,4.519,0,0,1-4.677-5.377h0a4.526,4.526,0,0,1-3.461-5.781c2.431-7.843,5.324-16.16,8.386-24.165-1.377.959-2.751,1.859-4.106,2.674a4.519,4.519,0,0,1-4.359.166L53,94.467l-.525-.262c-.1.7-.19,1.415-.287,2.123-.642,4.721-1.141,9.57-1.444,14.422q-.16,2.579-.242,5.143c-.119,3.779-.119,7.525.066,11.161C61.448,139.1,78.55,148.848,98.934,153.383c1.01.225,2.023.445,3.049.644A110.642,110.642,0,0,0,117.29,155.9c.618.475,1.248.933,1.878,1.392a100.1,100.1,0,0,0,8.7,5.677c12.469,7.187,26.107,12.013,40.082,15.276.624.146,1.249.292,1.874.433a210.672,210.672,0,0,0,22.2,3.755,148.625,148.625,0,0,0,22.454.768,117.733,117.733,0,0,0,22.332-2.98c1.828-.47,3.657-.958,5.471-1.5.916-.32,1.841-.612,2.762-.921-.114-.461-.233-.923-.33-1.388.216.431.444.85.67,1.271.325.6.667,1.19,1.009,1.775.127.216.243.443.373.656.475.781.975,1.532,1.488,2.271.728,1.051,1.5,2.046,2.308,3,.133.158.261.323.4.479a33.988,33.988,0,0,0,3.485,3.5,52.26,52.26,0,0,0,13.017,8.213,101.141,101.141,0,0,0,13.236,4.834c.262.078.521.163.785.239-.634-.669-1.241-1.368-1.839-2.078a48.2,48.2,0,0,1-5.722-8.467,44.033,44.033,0,0,1-3.049-7.182,48.269,48.269,0,0,1-1.853-7.453c-.009-.06-.023-.118-.032-.177-.122-.791-.223-1.586-.313-2.382-.06-.536-.107-1.072-.151-1.609,1.525.627,3.081,1.222,4.655,1.794a124.869,124.869,0,0,0,15.262,4.465c1.242.28,2.492.548,3.756.793,42.508,8.233,81.693-6.223,92.1-32.685a40.5,40.5,0,0,1-7.463.339" transform="translate(-4.689 -8.943)" fill="#fff700"/>
        <path id="パス_716" data-name="パス 716" d="M418.7,119.956q-.516-1.295-1.108-2.578a18.533,18.533,0,0,0-.637,2.56c.039,0,.072.006.111.008.517.027,1.067.026,1.633.01" transform="translate(-39.567 -11.148)" fill="#fff700"/>
        <path id="パス_717" data-name="パス 717" d="M426.85,90.014a4.523,4.523,0,0,0-2.992-2.059,4.514,4.514,0,0,0-3.665-5.319,4.515,4.515,0,0,0,1.015-6.829l-2.493-2.831a4.517,4.517,0,0,0-1.089-2.47L405.238,56.431a4.52,4.52,0,0,0-3.854-1.512c-14.68,1.492-30.1,9.247-41.48,19.878q-.522-.38-1.052-.756a51.743,51.743,0,0,0-8.827-15.4c-9.984-18.275-32.76-33.193-60.963-38.655a105.18,105.18,0,0,0-43.542.344c-.855-.349-1.7-.684-2.525-1a140.333,140.333,0,0,0-18.52-5.885c-6.775-1.7-12.953-2.962-18.846-3.864A142.844,142.844,0,0,0,186.146,7.81c-14.039-.268-26.909,1.7-38.272,5.841a115.677,115.677,0,0,0-19.966-.661,95,95,0,0,0-21.591,3.784,73.375,73.375,0,0,0-20.449,9.779c-1.032.714-2.025,1.457-3,2.215A4.506,4.506,0,0,0,79.3,27.542c-3.43.355-7.317.756-11.1,1.369C50.54,31.773,33.357,37.117,14.116,45.731a4.525,4.525,0,0,0-1.231,7.445l2.144,1.991a4.519,4.519,0,0,0,1.438,3.311l5.008,4.652c-3.744,16.013-8.87,42.158-8.29,63.266a4.508,4.508,0,0,0,3.562,4.293c.006.336.01.675.019,1.009a4.523,4.523,0,0,0,5.794,4.217,228.98,228.98,0,0,0,21.735-7.9,71.333,71.333,0,0,0,6.1,6.841c12.944,12.8,31.526,22.068,52.32,26.1a118.1,118.1,0,0,0,14.151,1.861,106.927,106.927,0,0,0,9.637,6.3c12.691,7.316,27.039,12.7,43.9,16.461a214.89,214.89,0,0,0,22.908,3.871,155.713,155.713,0,0,0,23.435.8,124.747,124.747,0,0,0,23.618-3.149l.159-.039c1.158-.3,2.467-.641,3.843-1.029.107.158.217.318.331.483a43.968,43.968,0,0,0,7.285,8.218,58.478,58.478,0,0,0,14.685,9.293,109.435,109.435,0,0,0,14.942,5.414c.2.059.4.107.605.146a6.786,6.786,0,0,0,6.213-11.331,40.725,40.725,0,0,1-3.989-4.962,6.746,6.746,0,0,0-1.742-3.521c-.384-.405-.743-.834-1.11-1.255a37.171,37.171,0,0,1-1.932-4.506,133.269,133.269,0,0,0,13.271,3.28c23.555,4.562,46.987,2.686,65.978-5.28,19.928-8.36,32.732-22.408,36.053-39.557a44.883,44.883,0,0,0,.643-4.659l9.095,4.675a4.524,4.524,0,0,0,6.44-2.854A350.21,350.21,0,0,1,427.152,94.2a4.524,4.524,0,0,0-.3-4.183M264.816,165.087c.043.537.091,1.074.151,1.609.09.8.19,1.593.313,2.383.009.059.022.117.031.176a48.26,48.26,0,0,0,1.853,7.454,44.028,44.028,0,0,0,3.049,7.181,48.2,48.2,0,0,0,5.722,8.467c.6.709,1.2,1.409,1.839,2.078-.263-.076-.522-.161-.785-.239a101.267,101.267,0,0,1-13.236-4.833,52.288,52.288,0,0,1-13.017-8.214,33.9,33.9,0,0,1-3.485-3.5c-.135-.156-.263-.32-.4-.479-.8-.959-1.58-1.954-2.308-3-.512-.738-1.013-1.489-1.488-2.271-.129-.213-.246-.439-.372-.655-.343-.586-.684-1.172-1.01-1.776-.226-.422-.454-.841-.67-1.27.1.465.216.927.33,1.387-.921.309-1.847.6-2.762.921-1.813.547-3.643,1.034-5.471,1.5a117.736,117.736,0,0,1-22.331,2.98,148.753,148.753,0,0,1-22.455-.769,210.42,210.42,0,0,1-22.2-3.755c-.626-.139-1.25-.287-1.875-.433-13.973-3.264-27.612-8.089-40.082-15.276a99.879,99.879,0,0,1-8.7-5.676c-.629-.46-1.26-.918-1.878-1.393A110.642,110.642,0,0,1,98.273,145.8c-1.026-.2-2.04-.419-3.049-.644-20.383-4.533-37.486-14.281-48.367-26.328-.185-3.636-.186-7.383-.067-11.161q.08-2.565.242-5.142c.3-4.854.8-9.7,1.444-14.423.1-.707.185-1.422.287-2.123l.525.263L57.774,90.5a4.522,4.522,0,0,0,4.359-.167c1.356-.814,2.729-1.714,4.107-2.674-3.062,8-5.956,16.322-8.387,24.165a4.524,4.524,0,0,0,3.462,5.781h0a4.52,4.52,0,0,0,3.579,5.3,4.581,4.581,0,0,0,1.1.076c7.455-.394,16.494-.449,25.12-.172-.494.669-.972,1.326-1.409,1.951a4.524,4.524,0,0,0,1.1,6.292l1.7,1.2a4.5,4.5,0,0,0,1.88,4.1l3.423,2.414,8.848,6.24a4.524,4.524,0,0,0,6.761-1.9c.323-.748.671-1.455,1.032-2.144a21.722,21.722,0,0,1,14.28-11.518,73.1,73.1,0,0,0,1.457,9.254,4.524,4.524,0,0,0,2.349,3.013,4.371,4.371,0,0,0,.818.318c.13.671.267,1.331.414,1.971a4.523,4.523,0,0,0,6.167,3.154l16.389-6.911a4.524,4.524,0,0,0,2.069-6.582,9.677,9.677,0,0,1-1-3.416l6.386-1.2a4.524,4.524,0,0,0,3.57-3.423c1.077-4.642,2.449-9.558,3.968-14.371a130.3,130.3,0,0,0,5.468,12.965,4.516,4.516,0,0,0,2.07,2.076c.49,1.079.99,2.156,1.511,3.227a4.526,4.526,0,0,0,4.918,2.462l14.6-2.791a4.489,4.489,0,0,0,1.15-.389,4.512,4.512,0,0,0,5.271,3.582l15.1-2.847a4.523,4.523,0,0,0,3.569-3.423c1.078-4.642,2.449-9.559,3.969-14.372a129.88,129.88,0,0,0,5.469,12.965,4.524,4.524,0,0,0,2.07,2.076c.49,1.079.99,2.155,1.511,3.226a4.525,4.525,0,0,0,4.917,2.463l14.088-2.694c-.3.908-.58,1.774-.845,2.591a4.523,4.523,0,0,0,3.441,5.842h0a4.52,4.52,0,0,0,4.649,5.379l15.983-.736a4.507,4.507,0,0,0,2.08-.624,4.52,4.52,0,0,0,2.336,1.25h.007a4.519,4.519,0,0,0,5.273,5.306l15.1-2.848a4.522,4.522,0,0,0,3.569-3.423c1.078-4.641,2.449-9.558,3.969-14.371a130.307,130.307,0,0,0,5.468,12.965,4.516,4.516,0,0,0,2.07,2.074c.49,1.079.99,2.157,1.511,3.228a4.531,4.531,0,0,0,4.917,2.463l14.6-2.791a4.525,4.525,0,0,0,3.518-3.263,167.958,167.958,0,0,1,5.93-17.469,19.88,19.88,0,0,0,1.6,1.948c2.88,6.176,8.583,10.443,16.353,11.948a33.11,33.11,0,0,0,4.452.54c.045,0,.087.009.131.011a40.578,40.578,0,0,0,7.463-.338c-10.41,26.462-49.6,40.917-92.1,32.684-1.264-.244-2.514-.512-3.756-.792a124.806,124.806,0,0,1-15.261-4.466c-1.575-.573-3.131-1.166-4.655-1.794M239.134,72.2c.645,10.606,2.981,21.53,6.858,30.177.224-.76.465-1.561.714-2.38.757-2.489,1.617-5.216,2.56-8.082a264.784,264.784,0,0,1,9.67-25.463l2.22,1.007,11.985,5.434c-.553.949-1.108,1.928-1.661,2.925-.718,1.293-1.436,2.629-2.151,3.991-6.6,12.573-12.89,27.749-16.238,40.122l-8.972,1.715-4.568.873-1.064.2a120.062,120.062,0,0,1-9.147-25.633c-.572-2.5-1.054-5.013-1.431-7.526-.109-.73-.211-1.46-.3-2.191a195.191,195.191,0,0,0-10.613,32.411l-5.067.956-4.916.927-2.5.471-2.4.452-.221.041c1.934-8.26,4.214-16.474,6.67-24.048,1.054-3.25,2.14-6.385,3.247-9.352.849-2.277,1.709-4.455,2.575-6.516l.625.033,1.228.065,1.442.075,4.227-8.709,2.068-4.265A70.808,70.808,0,0,1,238.944,66.4c0,.411.011.827.017,1.241q.034,2.263.173,4.559m42,6.885a116.434,116.434,0,0,1,16.773-1.117c-.118.268-.237.545-.355.814q-.988,2.261-2,4.6-.985,2.292-1.981,4.642c-6.282,14.858-12.728,31.289-17.13,45l-5.745.265-4.838.223-4.837.223-.564.026c4.785-14.7,10.269-30.776,15.383-44.487,1.3-3.488,2.579-6.831,3.814-9.95.467-.086.964-.166,1.474-.244M387.2,97.523a4.517,4.517,0,0,0,1.325,3.057l1.277,1.27c-.6,1.606-1.223,3.342-1.86,5.189a69.012,69.012,0,0,0-4.9-7.149,29.062,29.062,0,0,1,3.266-3.257Zm-8.725,11.995c-.04,0-.072-.006-.111-.008a18.533,18.533,0,0,1,.637-2.56q.594,1.283,1.108,2.578c-.566.016-1.117.017-1.633-.01m23.365-50.1.941,1.069L414.23,73.495c-.3.056-.617.119-.927.179-1.612.315-3.3.682-5.051,1.108C397.39,77.428,384.5,82.332,376.79,90.738c-.333.363-.657.73-.97,1.106a26.676,26.676,0,0,0-3.134,4.671c-.205.392-.405.787-.589,1.191a23.3,23.3,0,0,0-1.958,7.053c-.009.078-.014.157-.022.235-.015.153-.029.307-.042.461-.024.277-.061.547-.076.828-.186,3.582,1.191,5.673,3.609,6.771q.331.151.687.277a11.507,11.507,0,0,0,1.914.485,17.815,17.815,0,0,0,2.033.221c.147.007.3,0,.451.009a28.968,28.968,0,0,0,2.935-.067c.746-.052,1.509-.122,2.3-.216,1.43-.171,2.93-.4,4.483-.673.794-.137,1.6-.279,2.418-.431l.033-.1c.811-2.472,1.646-4.911,2.472-7.2.594-1.641,1.181-3.2,1.752-4.64.167-.423.335-.842.5-1.242l-2.641-2.627-4.806-4.78a60.988,60.988,0,0,1,13.557-4.093,66.372,66.372,0,0,1,15.3-1.117c.811.043,1.618.186,2.429.229-.071.163-.141.332-.212.5q-.952,2.2-1.907,4.509c-.618,1.495-1.235,3.024-1.85,4.574a351.02,351.02,0,0,0-11.875,35.044c-.13.476-.265.956-.391,1.426l-7.65-3.934-4.17-2.144-1.336-.687-.712-.366c-.342.147-.681.271-1.023.41a53.229,53.229,0,0,1-5.139,1.8c-.459.134-.919.273-1.374.393a44.671,44.671,0,0,1-5.6,1.089,35.946,35.946,0,0,1-6.4.28c-.5-.025-.982-.079-1.468-.128-5.054-.513-9.305-2.264-12.325-5.168a15.382,15.382,0,0,1-3.264-4.541,18.542,18.542,0,0,1-1.69-7.389c-.022-.67-.019-1.355.018-2.06,0-.084.014-.172.019-.256.038-.627.1-1.272.185-1.931q.161-1.272.444-2.619a40.942,40.942,0,0,1,1.979-6.554l-.778-.65-.862-.72q-1.368,2.666-2.7,5.45c-.917,1.915-1.818,3.862-2.695,5.827a193.343,193.343,0,0,0-9.931,27.1l-8.972,1.716-4.568.872-1.064.2a120.043,120.043,0,0,1-9.147-25.633c-.572-2.5-1.054-5.013-1.43-7.526q-.164-1.1-.3-2.191a195.328,195.328,0,0,0-10.613,32.411l-5.067.956-4.916.927-4.9.924-.221.042c.839-3.582,1.743-7.156,2.7-10.672A240.205,240.205,0,0,1,298,99.118l1.6.083,1.7.089,6.3-12.973A70.751,70.751,0,0,1,322.564,82.8c0,.412.012.828.017,1.241q.033,2.263.173,4.558c.645,10.607,2.98,21.531,6.857,30.177.225-.761.466-1.562.715-2.38.757-2.49,1.617-5.218,2.561-8.083a264.447,264.447,0,0,1,9.669-25.463l2.22,1.007,2.8,1.269,2.479,1.125,4.195,1.9c.1-.138.188-.276.285-.413.133-.188.275-.375.412-.562q.719-.987,1.492-1.956c.2-.256.405-.512.614-.766.556-.674,1.135-1.339,1.726-2,.718-.8,1.454-1.591,2.221-2.364.836-.844,1.706-1.669,2.6-2.48,10.586-9.644,24.81-16.83,38.245-18.2M89.727,32.134a67.249,67.249,0,0,1,18.637-8.889,87.719,87.719,0,0,1,19.977-3.483,109.432,109.432,0,0,1,20.082.793l.277.035.32-.122c11.943-4.572,24.573-6.109,37-5.872a135.471,135.471,0,0,1,18.548,1.683c6.124.934,12.25,2.237,18.259,3.743,1.655.395,3.3.834,4.932,1.3,4.325,1.232,8.583,2.691,12.77,4.325q2.239.859,4.448,1.8c.556-.146,1.12-.278,1.684-.413a98.459,98.459,0,0,1,41.113-.394c3.44.667,6.784,1.492,10.027,2.446,21.9,6.438,38.977,19.089,46.581,33.474A36.326,36.326,0,0,1,348.5,75.381q2.359,1.414,4.585,2.92,1.03.695,2.031,1.408-.67.759-1.311,1.532-.527.635-1.032,1.278l-6.349-2.88-2-.907a4.581,4.581,0,0,0-5.986,2.243c-2.43,5.334-4.883,11.663-7.122,17.965a95.818,95.818,0,0,1-.647-10.843,4.455,4.455,0,0,0-3.566-4.39c0-.3-.014-.609-.015-.912a4.523,4.523,0,0,0-5.045-4.487,75.174,75.174,0,0,0-15.953,3.742c-.079.028-.148.073-.225.106a4.465,4.465,0,0,0-3.523-3.321,4.517,4.517,0,0,0-4.358-5.391,118.529,118.529,0,0,0-18.366,1.3,4.512,4.512,0,0,0-1.028-.671l-1-.454a4.465,4.465,0,0,0-2.579-4.847l-14.2-6.441a4.529,4.529,0,0,0-5.986,2.244c-2.43,5.334-4.883,11.663-7.122,17.964a95.637,95.637,0,0,1-.647-10.845,4.46,4.46,0,0,0-3.566-4.391c0-.3-.014-.608-.015-.91a4.525,4.525,0,0,0-5.045-4.488,75.2,75.2,0,0,0-15.953,3.743,4.523,4.523,0,0,0-2.568,2.293l-.829,1.709a4.51,4.51,0,0,0-1.695-1.368l-14.205-6.441a4.524,4.524,0,0,0-5.986,2.243c-2.43,5.334-4.883,11.663-7.121,17.964a95.42,95.42,0,0,1-.648-10.843,4.455,4.455,0,0,0-3.566-4.39c0-.3-.014-.609-.015-.912a4.525,4.525,0,0,0-5.045-4.487,75.192,75.192,0,0,0-15.953,3.742,4.526,4.526,0,0,0-2.568,2.293l-4.984,10.273-.3-.015a4.512,4.512,0,0,0-3.05.989,4.516,4.516,0,0,0-4.572-4l-15.8.334a4.525,4.525,0,0,0-4.428,4.441l-.045,2.486a157.764,157.764,0,0,0-18.955,14.61,4.524,4.524,0,0,0-2.206-.668c-4.836-.158-9.87-.208-14.663-.156,4.061-10.362,8.78-21.4,13.368-31.191A4.512,4.512,0,0,0,103.4,58.2a4.52,4.52,0,0,0-4.5-5.392c-2.444.034-5.064.181-7.673.395q-.518.042-1.035.088c-.1-2.7-.307-5.427-.62-8-.12-.989-.252-1.96-.4-2.89-.061-.372-.122-.731-.186-1.081-.249-1.39-.521-2.61-.826-3.717q-.254-.922-.541-1.75a4.489,4.489,0,0,0-.881-1.488c.981-.775,1.974-1.528,2.994-2.234M22.322,81c.935-4.951,1.946-9.767,2.981-14.319q.592-2.6,1.187-5.072c.129-.537.259-1.089.388-1.616l-5.889-5.468L17.4,51.19l-1.432-1.33c18.072-8.091,35.193-13.6,52.951-16.483,3.3-.535,6.63-.9,9.961-1.242l.884-.093c.122.352.233.72.342,1.093a38.5,38.5,0,0,1,.974,4.446c.014.082.03.16.043.244.076.464.146.938.213,1.416.189,1.353.343,2.753.466,4.167.157,1.822.261,3.666.311,5.467.047,1.664.05,3.286.008,4.82,0,.169-.008.34-.014.508-.041,1.206-.107,2.353-.2,3.406-.232.3-.479.611-.72.918-.112.142-.219.281-.333.423l.327-.048c1.435-.21,2.966-.412,4.54-.6l.658-.077c.315-.036.629-.071.946-.106.968-.106,1.946-.2,2.924-.292,3.017-.274,6.029-.461,8.715-.5-.142.3-.283.611-.425.916q-1.08,2.317-2.148,4.672t-2.1,4.712C89.152,79.279,84.428,91.122,81,100.68c.233-.014.476-.027.714-.041,1.567-.09,3.212-.165,4.913-.223,1.591-.054,3.225-.095,4.883-.122,4.891-.081,9.975-.048,14.657.081q.816.022,1.614.049l-.239.677-1.586,4.5-.94,2.667q1.16-1.341,2.386-2.64,2.116-2.256,4.377-4.394c.168-.158.339-.314.509-.471A154.734,154.734,0,0,1,132.716,84.99c.286-.187.574-.379.857-.564l.042-2.248.047-2.623,15.8-.332c.017.274.03.565.044.851.068,1.388.1,2.9.094,4.523q0,1.733-.043,3.6c-.109,5.029-.4,10.7-.6,16.257,1.343-4.512,2.758-8.865,4.216-12.949q.442-1.241.889-2.447c.887-2.391,1.786-4.68,2.692-6.834l.171.009,3.124.163,6.295-12.974a70.766,70.766,0,0,1,14.972-3.515c0,.412.011.827.017,1.241q.033,2.261.173,4.558c.645,10.606,2.981,21.53,6.857,30.177.225-.761.466-1.562.715-2.381.757-2.489,1.617-5.217,2.561-8.083A264.526,264.526,0,0,1,201.3,65.962l2.22,1.006L215.509,72.4c-.553.949-1.107,1.929-1.66,2.925-.653,1.174-1.3,2.385-1.954,3.617q-.1.187-.2.376c-1.378,2.624-2.74,5.358-4.067,8.161a202.578,202.578,0,0,0-12.172,31.961l-8.972,1.714-4.568.873-1.064.2A120.064,120.064,0,0,1,171.708,96.6c-.572-2.5-1.054-5.014-1.431-7.526-.109-.73-.211-1.46-.3-2.191A195.329,195.329,0,0,0,159.362,119.3l-2.515.474-2.553.481-.9.17-1.079.2-2.935.554-.46.087c.03.452.063.893.1,1.326.1,1.137.222,2.209.382,3.186.076.461.159.9.251,1.326a11.653,11.653,0,0,0,1.332,3.67l-2.468,1.041-.275.116-6.826,2.878-4.335,1.829-2.484,1.047a79.353,79.353,0,0,1-1.72-13.634c-.093-1.866-.148-3.748-.167-5.631a38.03,38.03,0,0,0-12.579,2.686,25.97,25.97,0,0,0-13.472,12.833q-.51,1.007-.974,2.073l-7.365-5.194-3.7-2.607-1.212-.853c.949-1.355,2.042-2.826,3.2-4.32,1.126-1.45,2.312-2.921,3.493-4.332l.4-.48q.865-1.025,1.71-1.988c.869-.991,1.711-1.922,2.493-2.748l-.53-1-.232-.434-.162-.3-.309.876-.445,1.262-.386-.031q-1.949-.159-4.08-.316c-1.53-.109-3.121-.214-4.753-.3-6.857-.357-14.419-.494-21.5-.4-1.629.022-3.233.055-4.8.1-1.66.05-3.272.114-4.825.192l-.524.025c2.636-8.5,5.8-17.52,9.133-26.071q.954-2.447,1.921-4.83c.308-.757.613-1.521.921-2.266l-3.012-1.46-.328-.159-.286-.138c.349-.99.725-2,1.112-3.01.793-2.074,1.657-4.178,2.566-6.258q.717-1.641,1.464-3.249.377-.809.758-1.6-.9.985-1.853,1.976c-2.1,2.188-4.366,4.37-6.75,6.46A84.551,84.551,0,0,1,57.6,80.293c-.459.292-.918.585-1.381.862l-2.735-1.372-3.3-1.653-2.924-1.467-1.412-.708-1.044-.524-.971-.487c.836-.623,1.707-1.288,2.6-1.982l.027-.021c1.816-1.415,3.716-2.958,5.591-4.553,2.4-2.041,4.753-4.168,6.824-6.219.667-.66,1.3-1.31,1.9-1.949a42.056,42.056,0,0,0,3.147-3.7l-.113-.7-.185-1.136-.357-2.2L62.9,50.2l-.24-1.479a143.483,143.483,0,0,0-15.291,4.733c-.426.159-.845.319-1.247.476-.049.176-.1.363-.144.539-1.012,3.675-1.961,7.621-2.824,11.743q-.619,2.953-1.173,6.01c-.017.1-.036.19-.053.286a201.754,201.754,0,0,0-3.322,34.507c0,3.965.147,7.817.49,11.472-.241.1-.495.208-.745.313l-.263.111-.277.115c-3.515,1.46-7.8,3.11-11.956,4.579-1.554.549-3.086,1.071-4.556,1.551-1.253.408-2.462.785-3.59,1.117C17.333,112.618,19.452,96.2,22.322,81" transform="translate(-0.98 -0.72)"/>
        <path id="パス_718" data-name="パス 718" d="M137.48,120.606c2.386-.024,4.732-.019,6.557.04.048-2.262.161-4.573.278-6.848.02-.382.037-.77.057-1.149.091-1.748.185-3.491.3-5.189.012-.18.023-.363.035-.542.047-.68.1-1.352.154-2.01a114.465,114.465,0,0,0-10.9,10.329,72.731,72.731,0,0,0-4.719,5.547c.627-.022,1.336-.042,2.091-.062,1.852-.049,4.012-.093,6.147-.115" transform="translate(-12.19 -9.962)"/>
        <path id="パス_719" data-name="パス 719" d="M212.371,81.5c.65-1.231,1.3-2.443,1.954-3.618.554-1,1.108-1.976,1.66-2.924L204,69.519l-2.219-1.006a264.584,264.584,0,0,0-9.67,25.462c-.943,2.866-1.8,5.594-2.56,8.083-.249.819-.49,1.62-.715,2.38-3.876-8.647-6.212-19.571-6.857-30.177q-.14-2.294-.173-4.559c-.006-.414-.016-.829-.017-1.241a70.753,70.753,0,0,0-14.972,3.515L160.523,84.95l-3.124-.162-.171-.009c-.906,2.154-1.805,4.443-2.692,6.834q-.448,1.205-.889,2.446c-1.459,4.085-2.873,8.439-4.216,12.95.2-5.562.491-11.228.6-16.257q.041-1.869.043-3.6c0-1.619-.027-3.135-.1-4.523-.014-.286-.026-.576-.043-.851l-15.8.333-.048,2.623-.041,2.247c-.284.185-.572.377-.857.565a154.8,154.8,0,0,0-20.427,15.767c-.168.157-.339.312-.508.471q-2.26,2.132-4.377,4.394-1.222,1.3-2.387,2.64l.941-2.667,1.586-4.5.239-.677c-.532-.017-1.071-.033-1.614-.048-4.682-.128-9.767-.161-14.657-.081-1.659.027-3.294.068-4.883.122-1.7.058-3.347.131-4.913.222l-.715.042c3.427-9.558,8.149-21.4,13.282-33.047q1.041-2.364,2.1-4.712T99.011,60.8c.142-.3.283-.613.426-.916-2.686.037-5.7.223-8.715.5-.978.089-1.957.186-2.925.291l-.946.107-.658.077c-1.574.185-3.1.387-4.54.6l-.327.049c.114-.142.221-.282.333-.423.242-.308.489-.616.72-.918.094-1.053.16-2.2.2-3.406.005-.167.009-.339.014-.509.041-1.533.039-3.156-.008-4.819-.051-1.8-.154-3.646-.312-5.467-.122-1.414-.276-2.814-.466-4.167-.067-.478-.137-.952-.212-1.416-.014-.084-.029-.162-.043-.244a38.5,38.5,0,0,0-.974-4.446c-.109-.373-.22-.741-.342-1.093l-.884.092c-3.332.347-6.661.708-9.961,1.243C51.634,38.807,34.513,44.32,16.441,52.411l1.432,1.33,3.592,3.336,5.888,5.468c-.128.528-.258,1.079-.387,1.616q-.594,2.473-1.187,5.072C24.745,73.785,23.733,78.6,22.8,83.552c-2.869,15.2-4.989,31.617-4.614,45.268,1.128-.33,2.337-.708,3.59-1.116,1.469-.48,3-1,4.555-1.551,4.157-1.469,8.441-3.12,11.957-4.579l.277-.116.262-.11.746-.313c-.342-3.655-.494-7.507-.49-11.473A201.753,201.753,0,0,1,42.4,75.057c.017-.1.036-.191.053-.286q.552-3.057,1.173-6.01c.863-4.122,1.812-8.068,2.823-11.743.049-.177.1-.364.144-.539.4-.157.822-.317,1.248-.476a143.407,143.407,0,0,1,15.29-4.733l.24,1.479.37,2.285.357,2.2.185,1.137.113.7a42.212,42.212,0,0,1-3.147,3.7c-.6.639-1.23,1.289-1.9,1.949-2.071,2.051-4.426,4.177-6.825,6.219-1.874,1.6-3.775,3.138-5.591,4.553l-.026.021c-.891.694-1.763,1.358-2.6,1.982l.971.487,1.044.524,1.412.708,2.924,1.467,3.3,1.653L56.7,83.706c.461-.278.921-.571,1.381-.863A84.364,84.364,0,0,0,68.3,75.1c2.384-2.089,4.65-4.272,6.75-6.459Q76,67.656,76.9,66.669q-.38.8-.757,1.605-.746,1.606-1.465,3.249c-.909,2.08-1.773,4.184-2.565,6.258-.387,1.013-.763,2.02-1.112,3.01l.286.138.328.159,3.012,1.46c-.309.745-.614,1.508-.921,2.266q-.968,2.385-1.921,4.83c-3.33,8.551-6.5,17.57-9.133,26.071l.524-.025c1.553-.078,3.164-.142,4.825-.192,1.563-.046,3.166-.08,4.795-.1,7.078-.1,14.639.041,21.5.4,1.633.085,3.224.188,4.754.3q2.131.153,4.08.316l.386.031.444-1.262.309-.877.162.306.232.434.529,1c-.781.826-1.623,1.757-2.493,2.748-.561.641-1.133,1.3-1.709,1.988-.135.159-.269.32-.4.48-1.181,1.412-2.367,2.882-3.493,4.332-1.158,1.494-2.251,2.964-3.2,4.32l1.211.853,3.7,2.607,7.365,5.193c.308-.712.633-1.4.974-2.072a25.968,25.968,0,0,1,13.471-12.833,38.013,38.013,0,0,1,12.58-2.686c.017,1.883.073,3.764.166,5.63a79.275,79.275,0,0,0,1.72,13.635l2.484-1.047,4.334-1.829,6.827-2.878.275-.116,2.468-1.041a11.663,11.663,0,0,1-1.332-3.67c-.091-.422-.175-.865-.251-1.326-.16-.977-.284-2.049-.383-3.187-.037-.433-.071-.873-.1-1.326l.46-.087,2.935-.554,1.079-.2.9-.17,2.553-.481,2.515-.474a195.31,195.31,0,0,1,10.612-32.412q.138,1.1.3,2.192c.376,2.512.859,5.023,1.431,7.525a120,120,0,0,0,9.147,25.634l1.064-.2,4.567-.873,8.972-1.715a202.512,202.512,0,0,1,12.172-31.96c1.327-2.8,2.689-5.537,4.067-8.162q.1-.187.2-.375M120.6,114.03c-.755.02-1.463.041-2.091.062a72.731,72.731,0,0,1,4.719-5.547,114.578,114.578,0,0,1,10.9-10.329c-.057.658-.107,1.33-.155,2.01-.012.179-.023.362-.035.542-.112,1.7-.205,3.441-.3,5.189-.02.379-.038.767-.057,1.149-.118,2.275-.231,4.586-.278,6.848-1.826-.059-4.172-.064-6.558-.04-2.134.022-4.294.065-6.147.115" transform="translate(-1.456 -3.271)" fill="#20e507"/>
        <path id="パス_720" data-name="パス 720" d="M281.185,73.623l-2.22-1.007a264.455,264.455,0,0,0-9.67,25.463c-.944,2.865-1.8,5.593-2.56,8.082-.249.818-.49,1.619-.715,2.38-3.876-8.647-6.212-19.571-6.857-30.177q-.14-2.294-.173-4.56c-.006-.414-.016-.829-.017-1.24A70.808,70.808,0,0,0,244,76.08l-2.069,4.264-4.226,8.71-1.443-.076-1.228-.064-.625-.033c-.865,2.06-1.726,4.239-2.575,6.516-1.106,2.967-2.192,6.1-3.247,9.352-2.456,7.574-4.735,15.787-6.669,24.048l.22-.042,2.4-.452,2.5-.472,4.916-.927,5.066-.956a195.357,195.357,0,0,1,10.613-32.411q.138,1.1.3,2.191c.376,2.512.859,5.023,1.431,7.526a119.937,119.937,0,0,0,9.147,25.632l1.064-.2,4.567-.874,8.972-1.714c3.349-12.373,9.637-27.549,16.238-40.122.715-1.362,1.432-2.7,2.152-3.992.554-1,1.108-1.976,1.66-2.924Z" transform="translate(-21.009 -6.884)" fill="#20e507"/>
        <path id="パス_721" data-name="パス 721" d="M324.094,85.347a116.434,116.434,0,0,0-16.773,1.117c-.51.078-1.007.158-1.474.244-1.235,3.119-2.513,6.461-3.814,9.95-5.114,13.71-10.6,29.785-15.383,44.487l.564-.026,4.837-.223,4.838-.223,5.745-.265c4.4-13.712,10.847-30.143,17.13-45q1-2.354,1.981-4.642,1.007-2.34,2-4.6c.118-.27.237-.547.355-.814" transform="translate(-27.168 -8.1)" fill="#20e507"/>
        <path id="パス_722" data-name="パス 722" d="M445.815,92.292a66.361,66.361,0,0,0-15.3,1.117A60.973,60.973,0,0,0,416.959,97.5l4.806,4.78,2.641,2.627c-.165.4-.332.819-.5,1.242-.571,1.438-1.158,3-1.751,4.64-.826,2.289-1.662,4.727-2.473,7.2l-.033.1c-.821.152-1.623.294-2.417.432-1.554.268-3.054.5-4.483.672-.789.1-1.553.165-2.3.216a29.25,29.25,0,0,1-2.935.068c-.149-.005-.3,0-.451-.01a17.653,17.653,0,0,1-2.034-.221,11.387,11.387,0,0,1-1.913-.485q-.357-.126-.688-.277c-2.418-1.1-3.795-3.188-3.608-6.771.014-.281.052-.551.075-.828.014-.154.026-.308.043-.461.008-.078.013-.157.022-.234a23.334,23.334,0,0,1,1.957-7.054c.185-.4.385-.8.59-1.191a26.669,26.669,0,0,1,3.134-4.67q.468-.563.969-1.107c7.712-8.407,20.6-13.31,31.461-15.956,1.747-.426,3.44-.794,5.052-1.108.309-.061.623-.123.927-.18L431.605,65.92l-.941-1.069C417.23,66.216,403,73.4,392.42,83.046c-.89.812-1.76,1.636-2.6,2.48-.767.775-1.5,1.565-2.221,2.364-.593.66-1.171,1.325-1.726,2-.209.253-.412.509-.615.765q-.772.97-1.491,1.956c-.137.187-.279.374-.413.562-.1.137-.189.275-.284.413l-4.195-1.9-2.48-1.125-2.8-1.269-2.22-1.007a264.938,264.938,0,0,0-9.669,25.463c-.944,2.866-1.8,5.594-2.56,8.083-.249.818-.49,1.62-.715,2.38-3.876-8.647-6.212-19.571-6.857-30.177q-.14-2.294-.173-4.559c-.006-.414-.016-.829-.017-1.241a70.773,70.773,0,0,0-14.972,3.516l-6.294,12.973-1.7-.089-1.6-.083a240.47,240.47,0,0,0-9.794,29.244c-.955,3.517-1.859,7.09-2.7,10.673l.22-.042,4.9-.925,4.917-.927,5.066-.956A195.4,195.4,0,0,1,340.049,109.2q.138,1.1.3,2.192c.376,2.512.859,5.023,1.431,7.525a119.994,119.994,0,0,0,9.147,25.633l1.064-.2,4.567-.873,8.972-1.715a193.325,193.325,0,0,1,9.932-27.1c.876-1.964,1.777-3.913,2.695-5.826q1.331-2.781,2.7-5.451l.862.72.778.65a40.942,40.942,0,0,0-1.979,6.554q-.282,1.346-.443,2.619c-.084.659-.147,1.3-.185,1.931,0,.084-.014.172-.019.256-.037.706-.039,1.391-.018,2.06a18.542,18.542,0,0,0,1.691,7.389,15.4,15.4,0,0,0,3.263,4.542c3.02,2.9,7.271,4.654,12.326,5.167.485.049.967.1,1.468.128a35.938,35.938,0,0,0,6.4-.281,44.709,44.709,0,0,0,5.6-1.089c.455-.119.915-.258,1.374-.392a53.576,53.576,0,0,0,5.139-1.8c.341-.138.68-.262,1.023-.41l.712.366,1.336.688,4.171,2.144,7.65,3.934c.125-.47.261-.95.391-1.425A351.011,351.011,0,0,1,444.274,102.1c.615-1.55,1.232-3.078,1.851-4.574q.954-2.309,1.907-4.509c.071-.164.142-.333.213-.5-.812-.042-1.618-.186-2.43-.229" transform="translate(-29.802 -6.15)" fill="#20e507"/>
      </g>
    </g>
  </g>
</svg>
