<svg xmlns="http://www.w3.org/2000/svg" xmlns:xlink="http://www.w3.org/1999/xlink" width="365" height="262" viewBox="0 0 365 262">
  <defs>
    <clipPath id="clip-path">
      <rect id="長方形_1086" data-name="長方形 1086" width="365" height="262" transform="translate(0.146 0)" fill="none"/>
    </clipPath>
  </defs>
  <g id="img_text02" transform="translate(-0.146 -0.288)">
    <rect id="長方形_1085" data-name="長方形 1085" width="365" height="262" transform="translate(0.146 0.288)" fill="none"/>
    <g id="グループ_183" data-name="グループ 183" transform="translate(0 0.288)">
      <g id="グループ_182" data-name="グループ 182" clip-path="url(#clip-path)">
        <path id="パス_701" data-name="パス 701" d="M157.936,153.53c2.42-.777,4.791-1.614,6.954-2.465a20.121,20.121,0,0,1-6.051-4,23.219,23.219,0,0,1-2.562-1.024l-3.436,7.765c-.035.079-.076.154-.114.229l0,.132q.586-.295,1.162-.582a4.683,4.683,0,0,1,4.043-.058" transform="translate(-9.715 -9.596)" fill="#09ffbd"/>
        <path id="パス_702" data-name="パス 702" d="M291.369,82.5a4.678,4.678,0,0,1-1.6,3.052c.077.067.158.132.231.206a4.674,4.674,0,0,1,1.33,3.772c.046-.008.094-.021.14-.028.488-.087.978-.147,1.468-.2.3-.035.6-.066.894-.118a4.677,4.677,0,0,1,1.833.046l1.013-4.458a4.678,4.678,0,0,1,2.051-2.912,80.322,80.322,0,0,1,15.715-7.76,4.541,4.541,0,0,1,1.52-.273c1.978-2.268,4.026-4.456,6.112-6.559-4.039,1.845-7.914,3.4-11.734,4.726-7.681,2.66-16.4,5.023-24.527,3.627l3.621,2.589a4.682,4.682,0,0,1,1.933,4.294" transform="translate(-18.18 -4.585)" fill="#09ffbd"/>
        <path id="パス_703" data-name="パス 703" d="M119.419,105.072l.476-.143.164-.46a4.688,4.688,0,0,1,3.194-2.947c6.515-1.747,14.578-3.511,22.7-4.956a4.681,4.681,0,0,1,5.083,2.671c.323.711.658,1.515,1,2.407.627-.116,1.254-.232,1.883-.345a4.679,4.679,0,0,1,3.658.886A64.7,64.7,0,0,1,175.3,94.156l.018,0a4.684,4.684,0,0,1,4.145.933l4.454-1.2a4.649,4.649,0,0,1,4.86,1.578l2.651,3.279.108-.029c.116-.806.234-1.609.352-2.4a4.683,4.683,0,0,1,2.765-3.6,124.039,124.039,0,0,1,19.6-6.131,4.672,4.672,0,0,1,1.89-.007c8.51-12.262,21.2-22.663,34.536-27.225a4.662,4.662,0,0,1,4.238.623l5.4,3.861a39.226,39.226,0,0,1-6.683-25.592c.113-1.733.315-3.482.6-5.232-5.082,5.929-11.632,12.663-19.621,17.422a28.5,28.5,0,0,1-12.783,4.408c-4.274.269-8.66-.981-13.8-3.936-10.309-5.92-17.932-15.679-22.769-22.506-1.518-2.142-2.882-4.162-4.118-6.1q-.643,2.2-1.376,4.491c-2.376,7.419-5.852,16.935-11.707,24.742-2.15,2.866-5.152,6.411-9.322,8.4a25.794,25.794,0,0,1-11.656,2.11c-9.009-.147-17.794-2.614-25.2-5.008-1.625-.525-3.152-1.04-4.6-1.551a60.854,60.854,0,0,1-1.513,12.236,66.974,66.974,0,0,1-13.224,27.845,22.1,22.1,0,0,1,9.7,11.7c2.485-.772,4.883-1.5,7.174-2.186" transform="translate(-6.523 -1.725)" fill="#09ffbd"/>
        <path id="パス_704" data-name="パス 704" d="M74.048,122.465c-.449.021-.92.051-1.422.1-1.078.1-2.135.232-3.163.4-1.5,5.838-3.183,12.579-4.762,19.416,5.7-5.24,10.037-11.924,9.347-19.911" transform="translate(-4.116 -8.097)" fill="#09ffbd"/>
        <path id="パス_705" data-name="パス 705" d="M272.862,151.3c0-.33,0-.658.007-.988l-10.73-2.7a46.888,46.888,0,0,1-17.818,7.627c-6.746,1.2-12.868.272-17.705-2.688a19.713,19.713,0,0,1-3.475-2.7,20.934,20.934,0,0,1-4.049-1.788c-.824,6.391-1.538,12.8-2.039,18.877a4.681,4.681,0,0,1-3.4,4.122L197.147,175.7l-.112.03a4.672,4.672,0,0,1-5.827-4.7c-8.686,6.564-20.734,10.389-29.712,12.813l-.064.018a4.682,4.682,0,0,1-4.757-1.544l-2.755-3.315-.4.109-.064.018a4.673,4.673,0,0,1-4.5-1.278,52.978,52.978,0,0,1-15.289,6.689q-1.648.421-3.291.714c-9.216,1.641-16.968-.4-22.026-5.364A19.729,19.729,0,0,1,95,165.719a80.138,80.138,0,0,1-9.582,7.345,51.419,51.419,0,0,1,.755,19.336c-1.418,10.379-5.2,21.327-11.55,33.377,8.744-6.573,16.931-10.967,24.953-13.4a38.692,38.692,0,0,1,15.8-1.679c5.206.618,10.469,2.672,16.563,6.468,9.2,5.726,17.3,14.05,24.079,24.738,1.249,1.971,2.346,3.8,3.313,5.528q.82-2.131,1.778-4.291c4.712-10.632,10.718-18.225,17.851-22.569a24.05,24.05,0,0,1,6.577-2.766,27.687,27.687,0,0,1,20.694,3.3c6.323,3.651,12.149,9.355,17.782,17.418q.157-1.635.356-3.3c1.6-13.407,5.06-23.76,10.576-31.65,3.614-5.17,7.692-8.769,12.123-10.7a36.45,36.45,0,0,1,15.242-2.624,93.694,93.694,0,0,1,23.314,3.682q-.91-1.075-1.766-2.158c-10.127-12.815-12.715-25.086-7.487-35.487.068-.137.15-.259.22-.394a4.68,4.68,0,0,1-3.732-4.592" transform="translate(-4.747 -9.696)" fill="#09ffbd"/>
        <path id="パス_706" data-name="パス 706" d="M259.661,111.184l-1.685-1.043a21.251,21.251,0,0,0-3.726,10.778c1.44-.484,2.955-1.081,4.483-1.72.287-2.922.6-5.624.928-8.015" transform="translate(-16.172 -7.313)" fill="#09ffbd"/>
        <path id="パス_707" data-name="パス 707" d="M321.369,136.428l.188-.047-.17-.248c-.006.1-.012.2-.018.295" transform="translate(-20.442 -8.966)" fill="#09ffbd"/>
        <path id="パス_708" data-name="パス 708" d="M340.271,36.162a2.988,2.988,0,0,0-3.6.261l-.016.01c-.236.167-.474.329-.713.493l-1.158.784c-.519.348-.945.631-1.141.758-2.784,1.83-5.687,3.649-8.626,5.409A185.482,185.482,0,0,1,298.542,57.3c-8.184,3.261-17.723,6.408-26.419,5-9.742-1.579-14.966-12.59-15.822-22.8a44.645,44.645,0,0,1,2.776-18.674,56.691,56.691,0,0,1,2.465-5.75L262.116,14c.1-.183.205-.365.316-.546l.015-.024c.985-1.62,1.23-3.01.727-4.131a2.776,2.776,0,0,0-2.08-1.6c-2.312-.422-3.906,2-4.72,3.316-.066.1-.129.2-.194.3l-.172.269q-.823,1.263-1.679,2.5c-1.9,2.761-3.622,5.105-5.589,7.6-4.531,5.741-10.717,12.991-18.394,18.123a25.536,25.536,0,0,1-10.27,4.4c-3.222.484-6.419-.186-10.367-2.175-9.352-4.712-16.537-13.41-21.127-19.543A109.667,109.667,0,0,1,178.509,6.637a2.764,2.764,0,0,0-2.865-1.531c-2.844.386-4.922,5.616-4.994,5.986-.682,3.512-1.641,7.345-3.021,12.063-2.018,6.9-4.628,14.812-8.693,21.21a14.906,14.906,0,0,1-5.3,5.546c-2.716,1.435-6.149,1.62-8.5,1.631-7.929.041-15.925-2.114-22.7-4.229a135.969,135.969,0,0,1-13.812-5.044,2.683,2.683,0,0,0-1.931-.3c-1.494.28-2.766,1.671-3.625,3.025a8.417,8.417,0,0,0-1.136,2.245,3.966,3.966,0,0,0-.147,1.615,2.625,2.625,0,0,0,.89,1.8c.606.792.76,3.141.837,4.291l.016.245a45.752,45.752,0,0,1-.694,10.564c-1.177,7.049-4.091,17.128-11.289,25.116-.106.118-.22.228-.328.345-7.057-5.363-17.995-7.826-31.4-6.6C47.343,85.768,34,90.012,21.227,96.895a4.682,4.682,0,0,0-1.2,7.322l8.384,8.954c-.118.5-.228.979-.346,1.472-2.561.4-4.925.72-7.212.978-2.356.261-5.1,4.65-5.221,6.461a2.637,2.637,0,0,0,1.963,2.8c2.38.6,4.87,1.367,7.564,2.335-3.156,14.057-5.815,27.274-7.935,39.45a4.681,4.681,0,0,0,4.74,5.484l3.169-.085a4.673,4.673,0,0,0,4.8,4.819l15.155-.412a4.687,4.687,0,0,0,4.372-3.382l.3-1.041,3.7,2.425a4.681,4.681,0,0,0,3.722.62c.044-.01.088-.022.132-.035a91.179,91.179,0,0,0,16.091-6.3A38.929,38.929,0,0,1,74.8,179.922c-.221,10.435-3.527,21.714-10.109,34.482a134.429,134.429,0,0,1-7.6,12.919c-.936,1.406-1.812,2.668-2.678,3.864l-.35.476q-.173.23-.343.464l-.022.027c-.882,1.125-2.36,3.006-1.735,4.995a2.833,2.833,0,0,0,2.069,1.975c.811.18,2.066.08,3.439-1.421a101,101,0,0,1,10.221-9.54c8.457-7.013,16.322-11.829,24.043-14.724a37.968,37.968,0,0,1,13.639-2.628c4.481.044,8.947,1.344,14.055,4.092,8.973,4.828,16.986,12.308,23.815,22.232a74.52,74.52,0,0,1,8.659,15.92,2.706,2.706,0,0,0,2.021,1.74c1.6.307,2.863-.845,3.676-1.74a8.786,8.786,0,0,0,2.271-4.226c.049-.259.1-.52.162-.779l.025-.121c.008-.038.017-.076.023-.113s.017-.063.024-.095l.131-.552c.126-.526.261-1.052.4-1.575a78.178,78.178,0,0,1,2.733-8.424c2.381-6.075,5.638-12.83,11.74-16.863,6.011-3.973,13.968-3.938,21.284.1,5.724,3.156,11.088,8.3,16.4,15.743a75.428,75.428,0,0,1,7.268,12.214l.026.055a2.745,2.745,0,0,0,2.117,1.568,2.793,2.793,0,0,0,1.071-.065A5.7,5.7,0,0,0,226,247.891a7.172,7.172,0,0,0,2-4.81.3.3,0,0,0,0-.031,110.124,110.124,0,0,1,.316-15.429c.675-8.276,2.063-18.863,6.841-27.346a17.258,17.258,0,0,1,7.281-7.359c3.137-1.528,6.956-2.271,12.022-2.335,10.589-.133,21.171,2.75,29.207,5.277a154.662,154.662,0,0,1,17.5,6.543l.017.008c2.259,1.013,4.473-1.1,5.793-3.419,1.846-3.243.423-4.747-.289-5.249l-.016-.01a97.828,97.828,0,0,1-15.781-13.977c-10.2-11.078-14.275-20.429-12.447-28.59.054-.24.136-.467.2-.7a4.616,4.616,0,0,0,5,.8l15.076-6.635a4.683,4.683,0,0,0,2.8-4.287c0-1.079.023-2.192.043-3.3,2.022-.49,4.105-.929,6.266-1.325.185.231.365.465.552.7a4.682,4.682,0,0,0,4.792,1.588,4.564,4.564,0,0,0,.564-.195c.855,1.122,1.723,2.238,2.616,3.34a4.678,4.678,0,0,0,5.533,1.331l14.569-6.455a4.673,4.673,0,0,0,2.617-3.081c1.967-.04,3.938-.067,5.9-.063.857,0,1.724.04,2.593.078,1.425.062,2.9.125,4.362.046l.1.006c.033,0,.066,0,.1.006,2.884.1,5.294-4.4,5.425-6.359a2.7,2.7,0,0,0-2.425-3.029h-.007s-.008,0-.011,0c-4.768-.414-9.763-1.086-15.115-2.027a236.625,236.625,0,0,1,8.559-42.445A4.683,4.683,0,0,0,345,73.172l-4.277-.855a4.623,4.623,0,0,0-3.694-3.878l-16.392-3.279a4.682,4.682,0,0,0-5.508,3.664c-.9,4.479-1.691,9.517-2.366,14.67-.513-1.754-.985-3.517-1.4-5.279a4.682,4.682,0,0,0-6.136-3.342c-.463.166-.906.343-1.358.515q-.131-.514-.257-1.027c.353-.391.705-.784,1.067-1.173a185.767,185.767,0,0,1,13.807-13.3c6.426-5.629,13.3-10.866,19.366-15.483l.262-.187a8.755,8.755,0,0,0,3.173-4.586,2.991,2.991,0,0,0-1.017-3.473M268.344,91.8q-.41,2.552-.793,5.186c-1.6,11.027-2.8,22.925-3.24,33.392-.03.7-.059,1.4-.082,2.083l-9.926-2.5-4.833-1.216a43.532,43.532,0,0,1-17.693,8.084c-.176.031-.346.046-.521.074a23.228,23.228,0,0,1-9.3-.243,16.076,16.076,0,0,1-5.93-2.811,15.037,15.037,0,0,1-2-1.879,16.006,16.006,0,0,1-2.049-2.87,20.405,20.405,0,0,1-2.26-6.467q-.222-1.25-.339-2.619a34.364,34.364,0,0,1-.1-3.814c0-.169.009-.338.016-.508a41.936,41.936,0,0,1,.416-4.437l-.651-.329-2.759-1.391c-.558,3.4-1.1,6.835-1.615,10.267-1.73,11.474-3.187,22.921-4.014,32.95l-3.075.865-3.819,1.075-1.008.284-4.824,1.358-1.453.409-2.329.655c.138-1.588.28-3.194.424-4.807q.268-3,.553-6.045c.4-4.277.821-8.6,1.262-12.9q.264-2.568.536-5.118.211-1.968.425-3.919c.037-.341.075-.68.112-1.02q.19-1.7.38-3.379.284-2.49.576-4.93c.064-.536.126-1.077.191-1.609q.558-4.6,1.136-8.943c.089-.665.177-1.337.266-1.991.2-1.448.4-2.857.6-4.246.125-.87.251-1.738.377-2.583a118.247,118.247,0,0,1,16.373-5.3c.842-.208,1.635-.393,2.347-.546-.125.674-.252,1.364-.378,2.048-.313,1.7-.626,3.414-.937,5.164-.178.994-.354,2-.531,3.007.444-1.1.935-2.195,1.462-3.289a62.528,62.528,0,0,1,3.163-5.756c.538-.867,1.1-1.727,1.687-2.579,7.931-11.6,19.94-21.682,32.494-25.975L249.21,64.5l4.536,3.244,7.809,5.583c-1.3.57-2.666,1.2-4.066,1.882C242.62,82.454,223.5,95.974,226.753,114.26c.472,2.655,1.629,4.266,3.3,5.1a8.889,8.889,0,0,0,4.9.637c.439-.046.887-.1,1.35-.186a27.526,27.526,0,0,0,3.235-.813,83.363,83.363,0,0,0,8.422-3.275c.266-3,.575-5.971.918-8.7.218-1.74.449-3.384.693-4.877l-7.958-4.927-.757-.468c1.029-.782,2.13-1.538,3.276-2.271a67.485,67.485,0,0,1,19.494-8.306c1.184-.292,2.357-.544,3.51-.749.781-.139,1.579-.181,2.36-.319-.1.522-.189,1.058-.284,1.589q-.444,2.5-.864,5.109m-23.862,12.7c-.328,2.391-.641,5.093-.928,8.015-1.527.64-3.042,1.236-4.482,1.72a21.251,21.251,0,0,1,3.726-10.778ZM110.241,66.616a60.849,60.849,0,0,0,1.512-12.237c1.45.511,2.978,1.026,4.6,1.551,7.4,2.394,16.19,4.861,25.2,5.008a25.8,25.8,0,0,0,11.656-2.109c4.17-1.987,7.172-5.532,9.321-8.4,5.854-7.808,9.331-17.324,11.707-24.742q.735-2.292,1.376-4.491c1.237,1.94,2.6,3.96,4.119,6.1,4.837,6.826,12.461,16.586,22.769,22.505,5.144,2.954,9.53,4.205,13.8,3.937a28.506,28.506,0,0,0,12.783-4.408c7.99-4.76,14.539-11.492,19.622-17.423-.285,1.749-.486,3.5-.6,5.232a40.446,40.446,0,0,0,4.567,22.119,39.9,39.9,0,0,0,2.116,3.474l-5.4-3.862a4.666,4.666,0,0,0-4.239-.622c-13.337,4.562-26.025,14.962-34.535,27.225a4.66,4.66,0,0,0-1.891.007,124.122,124.122,0,0,0-19.6,6.131,4.68,4.68,0,0,0-2.765,3.6c-.119.791-.236,1.593-.353,2.4l-.108.028-2.651-3.279a4.648,4.648,0,0,0-4.86-1.577l-4.454,1.2a4.679,4.679,0,0,0-4.144-.933l-.019,0a64.713,64.713,0,0,0-17.719,8.028,4.678,4.678,0,0,0-3.658-.886c-.628.111-1.255.228-1.883.345-.346-.891-.682-1.7-1-2.407a4.682,4.682,0,0,0-5.083-2.672c-8.123,1.446-16.186,3.21-22.7,4.957a4.684,4.684,0,0,0-3.194,2.947l-.164.46-.476.143c-2.29.689-4.689,1.414-7.175,2.186a22.1,22.1,0,0,0-9.7-11.7,67,67,0,0,0,13.225-27.845M21.84,167.474c2.264-13.006,4.964-26.15,7.741-38.559,1.126-5.027,2.262-9.931,3.389-14.659.037-.151.072-.3.109-.452.159-.666.317-1.334.477-1.993l-6.685-7.139-3.422-3.655c12.616-6.8,25.5-10.7,36.8-11.733a63.15,63.15,0,0,1,10.428-.133c6.912.516,12.8,2.315,17.081,5.336A19.966,19.966,0,0,1,89.84,96.18a17.355,17.355,0,0,1,2.7,3.172,16.372,16.372,0,0,1,2.22,5.142,18.2,18.2,0,0,1,.442,2.637,20.093,20.093,0,0,1,.05,2.81,27.145,27.145,0,0,1-.82,5.264q2.1-.765,4.131-1.464c.346-.119.681-.228,1.023-.345q1.833-.624,3.606-1.2,2.327-.757,4.559-1.452c3.581-1.114,6.989-2.129,10.228-3.11l.959-2.685c6.942-1.866,15.081-3.583,22.307-4.869.194.426.389.885.584,1.364.551,1.347,1.1,2.877,1.629,4.45.19.564.375,1.127.559,1.7.3.946.6,1.882.873,2.794.263.868.51,1.7.74,2.488.365-.461.749-.915,1.156-1.362a32.577,32.577,0,0,1,2.575-2.51q.563-.5,1.154-.976a48.1,48.1,0,0,1,3.921-2.859,60.384,60.384,0,0,1,16.51-7.572l1.806,1.564,3.55-.957,1.685-.454,1.622-.437.372.46,4.2,5.19.932,1.153,3.831,4.739c-.339.06-.9.161-1.636.3-.789.146-1.785.337-2.919.565-8.615,1.734-25.442,5.714-24.6,10.437.17.957,1.314,1.833,3.158,1.594.242-.029.471-.041.71-.066a37.036,37.036,0,0,1,6.351-.144c5.45.375,9.748,2.08,12.467,4.693a11.693,11.693,0,0,1,.866.917,10.121,10.121,0,0,1,2.254,4.761,10.414,10.414,0,0,1,.14,1.3,14.875,14.875,0,0,1-3,9.1,26.233,26.233,0,0,1-2.159,2.715c-.387.429-.788.859-1.223,1.288l.95,1.625.021.036.837,1.431c-.349.4-.719.783-1.1,1.163-6.017,6.046-15.633,10.046-23.374,12.576-1.732.566-3.371,1.059-4.853,1.485-.553.159-1.083.307-1.59.448-.6.167-1.167.321-1.69.463l-2.528-3.041-2.659-3.2-.47-.564-1.45-1.746-.4-.481-1.409-1.695.051,1.6c-.92.815-1.892,1.581-2.892,2.309q-.878.638-1.789,1.232a48,48,0,0,1-17.172,6.908c-.393.07-.768.11-1.152.165a24.736,24.736,0,0,1-9.488-.3,15.42,15.42,0,0,1-7.716-4.451,16.867,16.867,0,0,1-4.122-8.661c-.046-.261-.075-.55-.11-.828a34.8,34.8,0,0,1,.022-7.162,97.662,97.662,0,0,1,1.51-10.039c.026-.134.054-.263.081-.4.542-2.7,1.134-5.238,1.672-7.386l.109-.431c.155-.61.305-1.2.447-1.729l-1.863-2.108c-.137.392-.282.785-.429,1.176-.1.262-.2.523-.3.786a54.5,54.5,0,0,1-4.121,8.264,67.405,67.405,0,0,1-15.994,17.776,77.629,77.629,0,0,1-8.188,5.634A83.331,83.331,0,0,1,54.252,163.8q-2.77,1.02-5.679,1.877c-.171.05-.339.1-.511.155l-1.156-.758-4-2.623-3.85-2.522L37,167.062l-1.516.041-4.782.13-4.777.129Zm250.781-20.256c-5.228,10.4-2.639,22.674,7.487,35.488q.857,1.084,1.766,2.158a93.686,93.686,0,0,0-23.313-3.682,36.447,36.447,0,0,0-15.242,2.624c-4.431,1.93-8.51,5.529-12.123,10.7-5.516,7.89-8.975,18.243-10.576,31.65q-.2,1.666-.356,3.3c-5.633-8.062-11.46-13.767-17.783-17.418a27.682,27.682,0,0,0-20.694-3.3,24.032,24.032,0,0,0-6.576,2.766c-7.134,4.344-13.139,11.936-17.852,22.569q-.956,2.159-1.778,4.291c-.967-1.73-2.063-3.557-3.313-5.528-6.779-10.688-14.881-19.012-24.078-24.739-6.094-3.794-11.357-5.849-16.564-6.467a38.677,38.677,0,0,0-15.8,1.679c-8.022,2.432-16.208,6.824-24.953,13.4,6.347-12.049,10.134-23,11.551-33.376A51.419,51.419,0,0,0,81.666,164a80.128,80.128,0,0,0,9.581-7.345A19.73,19.73,0,0,0,104.6,170.83c5.057,4.964,12.809,7.005,22.025,5.364q1.642-.292,3.292-.714a52.962,52.962,0,0,0,15.288-6.689,4.671,4.671,0,0,0,4.5,1.277l.065-.017.394-.109,2.755,3.315a4.683,4.683,0,0,0,4.757,1.544l.065-.018c8.977-2.423,21.026-6.249,29.712-12.813a4.671,4.671,0,0,0,5.827,4.7l.112-.03,16.508-4.647a4.681,4.681,0,0,0,3.4-4.121c.5-6.073,1.215-12.486,2.039-18.877a20.909,20.909,0,0,0,4.049,1.788,19.707,19.707,0,0,0,3.474,2.7c4.837,2.961,10.96,3.89,17.706,2.688a46.884,46.884,0,0,0,17.817-7.627l10.73,2.7c0,.33-.006.657-.007.988a4.681,4.681,0,0,0,3.732,4.592c-.07.135-.152.258-.22.393m29.3-19.126c.007-.1.012-.2.019-.295l.169.248-.188.047m14.37-34.5c.83-8.055,1.966-16.609,3.426-23.838l5.139,1.028,11.254,2.251q-.447,1.451-.883,2.962c-.426,1.47-.84,2.987-1.246,4.526a247.706,247.706,0,0,0-6.3,32.975c-.121,1.016-.23,2.021-.333,3.021-.084.813-.16,1.616-.231,2.417-.251,2.787-.436,5.5-.529,8.071l-6.926,3.069-4.4,1.948-3.248,1.439q-2.589-3.191-4.99-6.548-1.749-2.443-3.385-4.96-2.708-4.169-5.07-8.517c-1.309-2.415-2.534-4.865-3.656-7.345-.577-1.274-1.122-2.559-1.645-3.849-.066-.163-.135-.325-.2-.488-.34-.85-.671-1.7-.987-2.557-.025.135-.05.277-.075.413-.358,1.92-.69,3.941-.994,6.043-.375,2.594-.707,5.3-.992,8.075-.634,6.168-1.029,12.632-1.129,18.793-.016,1.038-.028,2.069-.027,3.087l-2.24.985-4.747,2.09-4.734,2.084h0l-3.353,1.477c0-.224,0-.448,0-.67a279.93,279.93,0,0,1,3.355-44.03l3.482-.62,1.455-6.407,1.969-8.664a78.444,78.444,0,0,1,9.065-4.949c1.843-.853,3.756-1.652,5.712-2.352q.312,1.33.666,2.668c.128.493.265.985.4,1.478.285,1.024.581,2.049.9,3.071q.7,2.25,1.5,4.481a99.53,99.53,0,0,0,8.679,18.369c1.255,2.044,2.571,3.982,3.939,5.782.132-2.234.3-4.721.514-7.361.236-2.987.522-6.172.859-9.446M298.777,69.867a4.565,4.565,0,0,0-1.52.273,80.31,80.31,0,0,0-15.715,7.76,4.679,4.679,0,0,0-2.052,2.912l-1.013,4.458a4.677,4.677,0,0,0-1.833-.046c-.3.053-.6.084-.894.118-.491.056-.98.115-1.468.2-.046.007-.093.02-.14.028a4.676,4.676,0,0,0-1.33-3.772c-.073-.074-.154-.139-.231-.206a4.672,4.672,0,0,0-.332-7.346l-3.621-2.589c8.129,1.4,16.846-.966,24.527-3.627,3.82-1.323,7.7-2.88,11.734-4.725-2.085,2.1-4.133,4.291-6.112,6.558" transform="translate(-0.994 -0.63)"/>
        <path id="パス_709" data-name="パス 709" d="M56.322,152.844q1.216-.726,2.416-1.506,1.6-1.035,3.143-2.163a56.232,56.232,0,0,0,5.16-4.248c6.481-6.048,11.05-13.619,10.558-22.7-.016-.31-.025-.618-.053-.932a11.284,11.284,0,0,0-.876-3.549c-.072-.163-.154-.318-.233-.474-1.267-2.451-3.559-3.957-6.841-4.564-.549-.1-1.118-.183-1.721-.233a27.47,27.47,0,0,0-4.806.053,49.229,49.229,0,0,0-6.527,1.034q-.329,1.26-.667,2.569c-.78,3.025-1.592,6.234-2.4,9.532-.668,2.707-1.334,5.474-1.987,8.262-.824,3.515-1.624,7.054-2.367,10.528-1,4.681-1.9,9.238-2.615,13.44,1.453-.641,2.951-1.347,4.464-2.11,1.776-.9,3.575-1.875,5.358-2.938m7.221-11.107C65.122,134.9,66.8,128.158,68.3,122.32c1.029-.166,2.086-.3,3.164-.4.5-.046.973-.077,1.422-.1.69,7.987-3.644,14.67-9.347,19.911" transform="translate(-2.958 -7.456)"/>
        <path id="パス_710" data-name="パス 710" d="M120.476,160.448a9.537,9.537,0,0,0,4.247.032c.141-.025.29-.062.434-.091A30.916,30.916,0,0,0,129.8,159c.478-.18.964-.372,1.454-.571,4.661-1.9,9.835-4.67,14.5-6.992l.1,3.226.154,4.755c.707-.165,1.552-.37,2.488-.608.672-.17,1.394-.359,2.158-.564.979-.263,2.018-.552,3.106-.868,1.485-.432,3.048-.909,4.633-1.428a78.474,78.474,0,0,0,11.436-4.605c2.808-1.465,5.013-3.041,6.048-4.672a3.453,3.453,0,0,0,.611-2.487c-.174-.98-1.151-1.676-2.71-2.055a15.332,15.332,0,0,0-4.141-.316q-.826.034-1.723.125a23.261,23.261,0,0,1-8.75-.616,18.962,18.962,0,0,1-3.237-1.211,15.386,15.386,0,0,1-3.833-2.59l-.1-.093a12.776,12.776,0,0,1-.966-1.028,11.037,11.037,0,0,1-2-3.482,10.285,10.285,0,0,1-.42-1.554,11.244,11.244,0,0,1-.128-2.827c.022-.293.047-.585.091-.875a12.486,12.486,0,0,1,.379-1.648,15.367,15.367,0,0,1,1.583-3.542,20.543,20.543,0,0,1,1.169-1.735c-1.952.352-4.047.753-6.222,1.187-4.81.964-9.994,2.092-14.839,3.222-3.166.74-6.186,1.479-8.854,2.172l-.143.59c-.9,3.714-1.9,7.941-2.5,11.287,1.457-.5,2.962-1.012,4.482-1.525q2.569-.867,5.2-1.729c5.1-1.663,10.288-3.248,15.078-4.5.254-.066.516-.14.767-.2l-.59,1.332-.423.957-.049.11-2.5,5.662-2.532,5.723-.242.547-4.407.987-11.228,2.515-.917-.927-3.464-3.5c-.431,3.13-1.575,8.813-1.017,11.946a4.4,4.4,0,0,0,3.182,3.855m35.2-8.527a4.683,4.683,0,0,0-4.043.058q-.576.287-1.162.582l0-.132c.038-.076.08-.151.114-.229l3.436-7.766a23.22,23.22,0,0,0,2.562,1.024,20.121,20.121,0,0,0,6.051,4c-2.163.851-4.534,1.688-6.954,2.466" transform="translate(-7.451 -7.987)"/>
        <path id="パス_711" data-name="パス 711" d="M183.155,148a14.872,14.872,0,0,0,3-9.1,10.415,10.415,0,0,0-.14-1.3,10.112,10.112,0,0,0-2.254-4.761,11.529,11.529,0,0,0-.866-.917c-2.719-2.613-7.017-4.32-12.467-4.693a36.942,36.942,0,0,0-6.351.144c-.239.025-.468.037-.71.066-1.844.239-2.987-.637-3.158-1.594-.841-4.723,15.986-8.7,24.6-10.437,1.134-.228,2.129-.419,2.919-.565.732-.137,1.3-.237,1.636-.3l-3.831-4.738-.932-1.153-4.2-5.19-.372-.461-1.622.437-1.685.455-3.55.957-1.805-1.564a60.376,60.376,0,0,0-16.51,7.572,47.875,47.875,0,0,0-3.921,2.859q-.59.479-1.154.976a32.411,32.411,0,0,0-2.575,2.51c-.407.447-.791.9-1.156,1.362-.229-.786-.477-1.62-.74-2.489-.276-.911-.569-1.848-.873-2.793q-.274-.853-.559-1.7c-.529-1.572-1.079-3.1-1.629-4.449-.2-.479-.39-.938-.584-1.364-7.226,1.286-15.364,3-22.307,4.869l-.959,2.685c-3.239.98-6.647,2-10.228,3.11q-2.23.694-4.559,1.452-1.773.577-3.605,1.2c-.343.117-.678.227-1.023.346q-2.028.7-4.131,1.463a27.13,27.13,0,0,0,.821-5.263,20.09,20.09,0,0,0-.051-2.81,18.2,18.2,0,0,0-.442-2.637,16.363,16.363,0,0,0-2.22-5.142,17.36,17.36,0,0,0-2.7-3.172,19.956,19.956,0,0,0-2.083-1.692C83.9,97.167,78.009,95.368,71.1,94.852a63.049,63.049,0,0,0-10.428.133c-11.3,1.038-24.183,4.931-36.8,11.733l3.422,3.654,6.685,7.14c-.158.658-.317,1.327-.477,1.993-.037.152-.072.3-.109.452-1.126,4.727-2.263,9.631-3.389,14.659-2.777,12.408-5.477,25.552-7.741,38.559l4.081-.111,4.777-.129,4.782-.13,1.516-.041,2.058-7.135,3.85,2.522,4,2.623,1.156.757c.172-.05.34-.1.511-.155q2.91-.851,5.679-1.877a83.184,83.184,0,0,0,13.941-6.632,77.627,77.627,0,0,0,8.188-5.633A67.394,67.394,0,0,0,92.8,139.456a54.449,54.449,0,0,0,4.121-8.263c.1-.262.2-.523.3-.786.147-.391.292-.784.429-1.176l1.863,2.108c-.141.532-.292,1.118-.447,1.729-.036.14-.072.287-.109.431-.538,2.148-1.13,4.689-1.672,7.386-.027.133-.055.262-.081.4a97.717,97.717,0,0,0-1.51,10.04,34.8,34.8,0,0,0-.022,7.162c.035.278.064.567.11.828a16.867,16.867,0,0,0,4.122,8.661,15.423,15.423,0,0,0,7.716,4.451,24.736,24.736,0,0,0,9.488.3c.384-.055.758-.1,1.152-.165a48,48,0,0,0,17.172-6.908q.91-.6,1.788-1.233c1-.728,1.971-1.494,2.893-2.308l-.052-1.6,1.409,1.695.4.481,1.451,1.745.469.565,2.659,3.2,2.528,3.041c.524-.141,1.091-.3,1.69-.463q.76-.211,1.59-.448c1.482-.426,3.121-.92,4.853-1.486,7.741-2.529,17.357-6.529,23.374-12.575.379-.38.749-.766,1.1-1.163l-.837-1.431-.021-.036-.95-1.625c.434-.43.836-.86,1.223-1.288A26.334,26.334,0,0,0,183.155,148m-38.661-27.186a15.409,15.409,0,0,0-1.583,3.542,12.337,12.337,0,0,0-.378,1.648c-.045.289-.069.581-.091.875a11.157,11.157,0,0,0,.128,2.827,10.172,10.172,0,0,0,.419,1.554,11.055,11.055,0,0,0,2,3.482,12.788,12.788,0,0,0,.967,1.028c.033.032.067.061.1.093a15.385,15.385,0,0,0,3.833,2.59,18.991,18.991,0,0,0,3.237,1.211,23.264,23.264,0,0,0,8.751.616q.9-.093,1.722-.125a15.341,15.341,0,0,1,4.142.316c1.558.379,2.535,1.075,2.71,2.056a3.461,3.461,0,0,1-.611,2.486c-1.036,1.63-3.241,3.207-6.049,4.672a78.507,78.507,0,0,1-11.435,4.605c-1.586.519-3.149,1-4.634,1.428-1.087.316-2.127.6-3.105.868q-1.148.308-2.159.564c-.936.238-1.781.443-2.487.608l-.154-4.755-.1-3.226c-4.661,2.322-9.836,5.089-14.5,6.992q-.737.3-1.455.571a31.034,31.034,0,0,1-4.64,1.39c-.143.029-.292.065-.433.09a9.54,9.54,0,0,1-4.247-.032,4.4,4.4,0,0,1-3.182-3.855c-.558-3.133.586-8.816,1.017-11.946l3.465,3.5.917.927,11.227-2.515,4.407-.987.242-.547,2.533-5.723,2.5-5.662.05-.111.422-.957.59-1.332c-.251.065-.513.138-.766.2-4.79,1.251-9.975,2.836-15.079,4.5q-2.632.858-5.2,1.729c-1.52.513-3.024,1.024-4.481,1.525.6-3.347,1.6-7.574,2.5-11.287.047-.2.1-.4.142-.59,2.668-.694,5.689-1.433,8.854-2.172,4.845-1.13,10.029-2.259,14.84-3.222,2.175-.434,4.269-.835,6.222-1.187a20.32,20.32,0,0,0-1.169,1.735m-96.92,22.509c.743-3.473,1.543-7.013,2.366-10.528.654-2.788,1.32-5.555,1.988-8.262.813-3.3,1.624-6.507,2.4-9.532q.337-1.308.667-2.569a49.371,49.371,0,0,1,6.526-1.034,27.469,27.469,0,0,1,4.806-.053c.6.052,1.173.132,1.721.234,3.282.606,5.575,2.113,6.841,4.564.081.155.161.31.233.473A11.239,11.239,0,0,1,76,120.168c.029.314.037.622.054.932.493,9.083-4.077,16.654-10.558,22.7a56.25,56.25,0,0,1-5.161,4.248c-1.028.752-2.079,1.473-3.143,2.163q-1.2.778-2.416,1.506c-1.783,1.065-3.583,2.042-5.359,2.938-1.513.763-3.01,1.469-4.463,2.11.715-4.2,1.614-8.759,2.615-13.44" transform="translate(-1.416 -6.33)" fill="#ff6183"/>
        <path id="パス_712" data-name="パス 712" d="M279.793,95.713q.42-2.61.863-5.109c.095-.531.188-1.067.285-1.589-.781.14-1.58.181-2.36.319-1.153.206-2.326.458-3.51.749a67.478,67.478,0,0,0-19.495,8.307c-1.146.732-2.246,1.488-3.275,2.271l.757.467,7.958,4.927c-.243,1.493-.475,3.138-.693,4.877-.343,2.732-.652,5.7-.918,8.7a83.387,83.387,0,0,1-8.422,3.276,27.669,27.669,0,0,1-3.236.812c-.463.083-.91.14-1.349.186a8.888,8.888,0,0,1-4.9-.636c-1.667-.835-2.824-2.446-3.3-5.1-3.256-18.286,15.867-31.806,30.737-39.053,1.4-.683,2.764-1.313,4.066-1.883l-7.809-5.583-4.536-3.244-2.54-1.816c-12.552,4.293-24.562,14.373-32.493,25.975-.583.853-1.15,1.712-1.687,2.579a62.661,62.661,0,0,0-3.163,5.757c-.527,1.093-1.018,2.189-1.462,3.288.176-1.008.353-2.012.53-3.007q.469-2.624.938-5.164c.126-.684.253-1.374.378-2.048-.712.153-1.5.339-2.347.547a118.246,118.246,0,0,0-16.373,5.3c-.126.845-.252,1.713-.377,2.584-.2,1.389-.4,2.8-.6,4.245-.089.654-.177,1.327-.266,1.992q-.577,4.34-1.136,8.943c-.065.531-.127,1.072-.192,1.608q-.291,2.441-.575,4.93-.192,1.681-.38,3.379c-.037.34-.075.678-.113,1.019q-.214,1.951-.424,3.919-.271,2.551-.536,5.118c-.441,4.3-.862,8.622-1.262,12.9q-.285,3.041-.553,6.044c-.145,1.613-.287,3.219-.424,4.807l2.329-.655,1.453-.409,4.824-1.358,1.008-.284,3.819-1.074,3.074-.866c.828-10.029,2.285-21.476,4.015-32.95.518-3.432,1.057-6.867,1.615-10.266l2.758,1.391.652.329a41.692,41.692,0,0,0-.416,4.437c-.007.171-.011.34-.016.508a34.371,34.371,0,0,0,.1,3.814q.117,1.367.34,2.619a20.382,20.382,0,0,0,2.26,6.467,15.96,15.96,0,0,0,2.049,2.87,15.035,15.035,0,0,0,2,1.879,16.047,16.047,0,0,0,5.93,2.811,23.224,23.224,0,0,0,9.3.243c.175-.028.346-.042.522-.074a43.532,43.532,0,0,0,17.693-8.084l4.832,1.216,9.927,2.5c.022-.685.052-1.384.082-2.082.442-10.468,1.641-22.366,3.24-33.393q.382-2.634.793-5.186" transform="translate(-12.442 -4.543)" fill="#ff6183"/>
        <path id="パス_713" data-name="パス 713" d="M342.392,75.173l-5.138-1.028c-1.461,7.229-2.6,15.783-3.427,23.839-.337,3.275-.623,6.459-.859,9.446-.21,2.639-.382,5.126-.514,7.361-1.368-1.8-2.685-3.739-3.939-5.783a99.528,99.528,0,0,1-8.679-18.369q-.8-2.228-1.5-4.48c-.317-1.023-.613-2.048-.9-3.071-.137-.493-.272-.986-.4-1.478q-.351-1.337-.666-2.669c-1.956.7-3.869,1.5-5.712,2.352a78.3,78.3,0,0,0-9.065,4.95l-1.969,8.663-1.455,6.407-3.482.621a280.019,280.019,0,0,0-3.355,44.029c0,.223,0,.447,0,.67l3.353-1.476h0l4.734-2.084,4.747-2.09L306.4,140c0-1.017.011-2.05.028-3.087.1-6.161.494-12.625,1.128-18.793.285-2.771.616-5.482.992-8.075.3-2.1.637-4.123.994-6.043.025-.136.05-.278.075-.413.316.856.647,1.708.987,2.557.066.164.134.325.2.488.523,1.289,1.068,2.574,1.645,3.85,1.122,2.48,2.347,4.929,3.656,7.344q2.354,4.343,5.07,8.518,1.635,2.516,3.386,4.959,2.4,3.35,4.989,6.549l3.248-1.44,4.4-1.948,6.926-3.069c.093-2.572.278-5.283.529-8.071.071-.8.147-1.6.231-2.417q.154-1.5.333-3.021a247.729,247.729,0,0,1,6.3-32.975c.406-1.538.82-3.055,1.246-4.526.29-1,.585-1.995.883-2.962Z" transform="translate(-18.531 -5.023)" fill="#ff6183"/>
      </g>
    </g>
  </g>
</svg>
