<svg id="img_text04" xmlns="http://www.w3.org/2000/svg" xmlns:xlink="http://www.w3.org/1999/xlink" width="430" height="300" viewBox="0 0 430 300">
  <defs>
    <clipPath id="clip-path">
      <rect id="長方形_1077" data-name="長方形 1077" width="430" height="300" fill="none"/>
    </clipPath>
  </defs>
  <rect id="長方形_1076" data-name="長方形 1076" width="430" height="300" fill="none"/>
  <g id="グループ_167" data-name="グループ 167">
    <g id="グループ_166" data-name="グループ 166" clip-path="url(#clip-path)">
      <path id="パス_622" data-name="パス 622" d="M343.379,215.706q-.855-2.521-1.709-5.043l-2.744.694-4.085,1.034-4.086,1.034-2.458.622a5,5,0,0,1-6.212-4.474q-.154-2.065-.186-4.3a4.98,4.98,0,0,1-4.232-4.563,79.014,79.014,0,0,1-.148-8.477c-8.076,1.239-14.02,5.355-18.634,12.733a5,5,0,0,1-7.7.954l-12.393-11.908a4.983,4.983,0,0,1-1.476-4.3,76.9,76.9,0,0,1-35.282,2.774,5,5,0,0,1-3.815-3.177l-1.428-3.83a4.982,4.982,0,0,1-1.979.585,183.909,183.909,0,0,1-24.086-.2,5,5,0,0,1-4.577-6l.359-1.745c.073-.353.173-.726.255-1.086l-.455-.028a4.657,4.657,0,0,1-.5-.065,40.782,40.782,0,0,1-31.926,6.582,35.926,35.926,0,0,1-4.129-1.107,27.659,27.659,0,0,1-18.388-18.747q-.3-.4-.586-.818l-1.181,2.212a5,5,0,0,1-5.564,2.509c-3.176-.753-6.606-1.551-10.177-2.288-8.732-1.8-18.381-3.406-27.109-4.532l9.386,3.938c.306.08.465.252.355.562a.7.7,0,0,1-.037.109q-1.809,3.6-3.617,7.206L97.01,204.082l-9.18,18.289,3.995-.978,49.72-12.16c.5-.122,2.585-.5,2.352.621q-.683,3.288-1.364,6.573l-8.949,43.119.519-.329,32.39-20.559L186.9,225.7c.76-.482,5.629-3.032,6.285-1.384q1.482,3.724,2.963,7.45l12.945,32.544q2.61,6.563,5.221,13.125l.852,2.143,21.072-29.215,1.137-1.576,1.9-2.63,4.738-6.569a8,8,0,0,1,3.637-2.182c.718-.265,2.769-1.069,3.592-.475l5.848,4.218,23.05,16.626q2.157,1.554,4.312,3.11L288.761,264l1.665,1.2q-1.08-12.087-2.159-24.175-.15-1.687-.3-3.373t-.3-3.372q-.275-3.072-.548-6.144c-.113-1.268,1.958-2.147,2.882-2.582,1.233-.582,3.228-1.438,4.625-.9l8.617,3.292q18.629,7.119,37.258,14.235l.144.055,4.952,1.892,5.1,1.947,3.422,1.307q-5.365-15.834-10.733-31.67" fill="#ff7300"/>
      <path id="パス_623" data-name="パス 623" d="M254.139,150.3q-2.139,3.716-4.18,7.693c1.581-.063,3.2-.188,4.788-.409,4.167-.577,7.284-1.666,8.935-3.056a35.089,35.089,0,0,0-7.907-3.379,5.12,5.12,0,0,1-1.636-.849" fill="#ff7300"/>
      <path id="パス_624" data-name="パス 624" d="M179.582,145.97a5.012,5.012,0,0,1,1.084,3.356,15.245,15.245,0,0,0,7.1-3.7,22.882,22.882,0,0,0,6.238-9.252c-4.034-.032-8.906,1.8-14.427,9.592" fill="#ff7300"/>
      <path id="パス_625" data-name="パス 625" d="M353.373,187.8c-.4-.041-.8-.084-1.188-.122-.129-.013-.255-.037-.381-.06-.144.989-.277,1.96-.393,2.9l.843-.178a4.994,4.994,0,0,1,.343-.964c.253-.521.518-1.052.776-1.577" fill="#ff7300"/>
      <path id="パス_626" data-name="パス 626" d="M94.577,152.657c.253-.522.518-1.052.776-1.577-.4-.042-.8-.084-1.188-.123a5,5,0,0,1-3.871-2.534,5.058,5.058,0,0,1-.318-.706c-.406.9-.807,1.8-1.192,2.678a5,5,0,0,1-1.727,2.1l7.062,2.963a5,5,0,0,1,.458-2.8" fill="#ff7300"/>
      <path id="パス_627" data-name="パス 627" d="M64.408,142.991l9.049,3.8-6.08-4.4c-.994.226-1.983.421-2.969.6" fill="#ff7300"/>
      <path id="パス_628" data-name="パス 628" d="M357.066,158.84q-.367,2.019-.771,4.121-.252,1.314-.51,2.651.571-1.074,1.151-2.146.9-1.656,1.8-3.308t1.826-3.288q1.254-2.235,2.519-4.437l-4.442-3.5c-.223,1.8-.513,3.729-.849,5.753-.224,1.349-.465,2.732-.725,4.158" fill="#ff7300"/>
      <path id="パス_629" data-name="パス 629" d="M140.271,83.506q1.542.131,3.052.293c1.115.12,2.211.252,3.274.4a4.9,4.9,0,0,1,.854.207,4.986,4.986,0,0,1,2.616,7.526c-.2.3-.408.618-.61.923q.789.1,1.559.2a5,5,0,0,1,3.469,7.734c-6.536,9.772-13.4,20.794-19.539,31.326,4.222.621,8.554,1.332,12.777,2.1,6.989-21.551,29.27-35.51,51.035-31.022,12.132,2.5,20.275,9.7,22.647,19.178a23.319,23.319,0,0,1,2.217,3.293q3.444-4.941,7.291-9.918l-6.129-12.559a5,5,0,0,1,4.13-7.18,237.859,237.859,0,0,1,65.334,4.059c3.942.814,7.71,1.713,11.519,2.75a5,5,0,0,1,3.685,4.914,31.231,31.231,0,0,1-.3,3.681c.345.091.689.17,1.034.264a5.019,5.019,0,0,1,3.685,4.913,38.835,38.835,0,0,1-.908,7.186,90.688,90.688,0,0,1-6.674,19.269,5,5,0,0,1-2.656,2.479c-2.468.983-5.156,2-7.977,3.025.106.376.2.755.285,1.138a21.918,21.918,0,0,1,2.083,2.943,170.484,170.484,0,0,1,28.176-16.17l.495-2.9a5,5,0,0,1,5.577-4.114L350.2,131.8a5.019,5.019,0,0,1,4.325,4.732l1.914-2.128,26.722-29.7,7.6-8.45.747-.831q.516-.571,1.029-1.143l1.777-1.974,4.448-4.944-7.7.225-43.72,1.277-27.561.805c-.2.006-1.415.107-1.492-.381q-.492-3.1-.983-6.2l-6.471-40.837-2.386,1.934-3.016,2.446-.223.181-3.45,2.8-27.9,22.624a9.9,9.9,0,0,1-2.207,1.318,13.163,13.163,0,0,1-1.939.692,6.8,6.8,0,0,1-2.046.309.875.875,0,0,1-.8-.421l-3.683-8.456L247.362,29.346l-7.97-18.3-.094.123-2.157,2.81-2.93,3.816-2.929,3.817Q223.29,32.025,215.3,42.438q-7.52,9.8-15.04,19.594a8.227,8.227,0,0,1-3.637,2.181l-.031.012c-.71.263-2.53.956-3.416.529a1.116,1.116,0,0,1-.145-.064l-1.822-1.3-4.339-3.081L160.236,41.4l-8.266-5.87q.367,3.41.736,6.82.258,2.407.519,4.813l.519,4.813q1.392,12.9,2.783,25.8c.136,1.259-1.976,2.155-2.882,2.582-1.2.569-3.258,1.464-4.625.9l-2-.815-4.251-1.737L140.055,77.6l-1.532-.626L108.394,64.663l.436.68a5,5,0,0,1,.768,3.17l2.139,3.334,1.511,2.355a5.031,5.031,0,0,1,.219,5.026c-.005.009-.011.016-.016.026a4.99,4.99,0,0,1-2.44,2.236,4.988,4.988,0,0,1,1.689,6.96c-.178.284-.358.578-.537.865.186.049.375.088.561.139.388.106.776.215,1.17.3a5.052,5.052,0,0,1,1.189.41c1.237-1.816,2.492-3.588,3.743-5.275a4.993,4.993,0,0,1,3.534-1.991c.142-.014.284-.028.428-.03,2.3-.024,5.03,0,7.941.1,2.731.088,5.623.237,8.489.461q.528.041,1.053.085" fill="#ff7300"/>
      <path id="パス_630" data-name="パス 630" d="M415.406,182.844a5,5,0,0,0-3.59-2.749c-.535-.1-1.076-.2-1.615-.294l.691-1.295a5,5,0,0,0-3.495-7.27c-3.557-.662-7.218-1.285-10.843-1.853l-2.677-2.112c5.9-10.05,12.414-20.471,18.627-29.76a5,5,0,0,0-3.469-7.733c-.512-.071-1.033-.138-1.559-.2.2-.3.408-.62.61-.923a5,5,0,0,0-3.469-7.733,176.7,176.7,0,0,0-23.81-1.334,5,5,0,0,0-3.961,2.02,172.819,172.819,0,0,0-13.11,20.663,4.972,4.972,0,0,0-.375.927l-5.274-4.161,16.177-17.978q13.362-14.849,26.722-29.7l6.156-6.841c.933-1.038-.475-1.231-1.214-1.21l-27.561.805-43.72,1.277-8.639.253q-3.467-21.879-6.934-43.757-.49-3.1-.982-6.2c-.133-.841-2.574-.185-2.848-.111a11.235,11.235,0,0,0-4.145,2.01L273.435,68.121q-4.4-10.109-8.806-20.216L248.8,11.576q-1.842-4.229-3.683-8.457c-.4-.918-2.785-.154-3.338.021a8.625,8.625,0,0,0-4.163,2.374l-5.142,6.7a7.912,7.912,0,0,0-3.687,2.217q-7.52,9.8-15.04,19.594l-18.13,23.619-12.161-8.637L156.829,30.094l-6.161-4.376c-1.454-1.033-7.721,1.507-7.508,3.487l.744,6.9q-1.032-.734-2.065-1.467c-1.454-1.032-7.721,1.508-7.507,3.487q1.716,15.92,3.434,31.837l-6-2.452-29.2-11.933L96.2,45.656a5,5,0,0,0-3.958-2.294C64,41.949,30.8,58.535,16.649,81.12a5,5,0,0,0,.491,5.967l1.885,2.13a47.987,47.987,0,0,0-4.214,11.809c-1.734,8.406-.281,16.017,4.2,22.011.121.162.259.311.384.47a24.222,24.222,0,0,0,4.035,8.389,29.151,29.151,0,0,0,14.429,9.938,40.962,40.962,0,0,0,4.731,1.266,47.515,47.515,0,0,0,4.75.7l-8.056,3.661c-.152.069-4.713,2.412-3.118,3.082l21.647,9.081L92.159,174.04l7.475,3.137-9.645,19.215L74.17,227.906q-1.811,3.606-3.62,7.212c-.548,1.091,2.129.676,2.351.622l49.721-12.161,4.418-1.08-9.4,45.289q-.683,3.287-1.364,6.573c-.434,2.088,5.731-.659,6.278-1.006L142.964,260.4l32.389-20.558,2.052-1.3q3.649,9.173,7.3,18.347l12.945,32.543q1.48,3.726,2.963,7.45c.368.924,2.814.146,3.338-.02,1.382-.435,3.281-1.152,4.163-2.374l4.735-6.565c1.376-.438,3.226-1.149,4.094-2.352q11.652-16.155,23.305-32.311l36.625,26.417,5.848,4.218c1.464,1.056,7.683-1.512,7.507-3.486l-.609-6.823,1.931,1.393c1.464,1.056,7.683-1.513,7.507-3.487q-1.218-13.638-2.435-27.276l5.391,2.06,37.4,14.29,8.616,3.292c1.4.534,3.393-.322,4.626-.9.711-.336,3.262-1.46,2.881-2.582l-2.31-6.817,3.632,1.387c1.4.534,3.392-.322,4.625-.9.712-.335,3.262-1.46,2.882-2.582q-3.346-9.876-6.694-19.753-3.973-11.721-7.945-23.443a4.98,4.98,0,0,0,1.664-6.05,6.111,6.111,0,0,1-.388-1.488l.954-.2,13.787-2.914c8.466,1.118,17.72,2.669,26.127,4.4,3.569.736,7,1.535,10.176,2.288a5,5,0,0,0,5.565-2.51l7.7-14.419a5,5,0,0,0,.1-4.521m-52.324-30.411q-1.264,2.2-2.518,4.437-.92,1.637-1.827,3.288t-1.8,3.308q-.579,1.072-1.151,2.145c.173-.893.343-1.774.511-2.65q.4-2.1.77-4.121.39-2.139.725-4.158c.337-2.024.626-3.953.85-5.753l4.441,3.5M352.6,189.378a5.008,5.008,0,0,0-.343.963l-.843.178c.117-.94.249-1.912.393-2.9.126.023.252.047.381.06.39.039.791.081,1.188.122-.258.526-.523,1.056-.776,1.578M231.429,105.4l-2.152-4.409a231.5,231.5,0,0,1,63.961,3.97c3.84.792,7.54,1.676,11.215,2.677-.014.81-.088,1.659-.19,2.528-.143,1.2-.351,2.451-.616,3.736q-.123.594-.261,1.193c-.368,1.6-.816,3.228-1.312,4.834a91.762,91.762,0,0,1-4.71,12.086c-3.257,1.3-6.738,2.587-10.264,3.836-2.342.83-4.7,1.646-7.04,2.423.488.239.948.491,1.4.745a24.307,24.307,0,0,1,3.761,2.584,18.56,18.56,0,0,1,3.646,4.042,15.3,15.3,0,0,1,2.367,6.3,16.066,16.066,0,0,1-.2,5.453c-.066.316-.157.615-.235.923-.136.533-.288,1.056-.462,1.566a20.586,20.586,0,0,1-3.279,6.06c-.211.272-.435.533-.659.794a26.592,26.592,0,0,1-5.331,4.694c-9.756,6.607-24.485,8.658-35.857,8.023-1.966-.11-3.825-.3-5.546-.562-.4-.06-.8-.121-1.186-.189l-1.541-4.132-2.563-6.874-1.286-3.449-3.1,7.973c-3.413.273-7.367.341-11.43.28-1.747-.027-3.512-.08-5.265-.149-.54-.021-1.075-.043-1.611-.067q-1.813-.084-3.573-.187c-.5-.03-1-.057-1.491-.088l.36-1.744c.046-.224.1-.456.151-.686a63.954,63.954,0,0,1,2.637-8.559c.27-.714.553-1.439.856-2.183.276-.678.57-1.371.874-2.073,1.5-3.473,3.354-7.243,5.571-11.266q2.01-3.648,4.427-7.561,2.021-3.264,4.33-6.691,3.461-5.124,7.591-10.567,1.628-2.139,3.361-4.318Zm52.8,69.922c1.936-1.779,3.921-3.523,5.785-5.083,1.049-.878,2.06-1.7,3-2.432l-.38-1.085-.894-2.553c1.118-1.026,2.276-2.021,3.452-3,.154-.129.307-.259.462-.386q2.152-1.77,4.411-3.433A170.336,170.336,0,0,1,330.682,139.9l.94-5.494,17.933,2.348c-.088,1-.207,2.07-.353,3.191-.08.617-.168,1.252-.263,1.9-.143.981-.3,2-.478,3.046-.048.292-.1.583-.147.879-.222,1.312-.464,2.665-.719,4.05q-.125.67-.251,1.349c-.253,1.347-.516,2.72-.785,4.11-2.376,12.256-5.2,25.774-5.1,34.167a24.606,24.606,0,0,0,.224,3.147,13.8,13.8,0,0,0,.282,1.454c.021.079.037.165.059.242a8.1,8.1,0,0,0,.364,1.059l-1.357.343-.118.03-1.867.472-2.1.532-4.84,1.224-5.08,1.285-4.374,1.107a73.269,73.269,0,0,1-.146-7.412c.009-.366.02-.732.034-1.1q.093-2.469.306-4.993c.24-2.852.583-5.741.993-8.616v0c-.015,0-.029,0-.043,0a42.859,42.859,0,0,0-15.285,1.033c-7.371,2.006-12.959,6.36-17.344,12.8-.317.466-.637.929-.942,1.416l-5.639-5.418-.963-.926-2.642-2.537-1.188-1.143-1.961-1.884c1.86-1.949,4.089-4.112,6.391-6.228m-145.7-98.35,1.532.626,2.719,1.111,4.251,1.737,2,.815c1.367.559,3.421-.336,4.625-.9.906-.427,3.018-1.323,2.882-2.582q-1.392-12.9-2.783-25.8l-.519-4.813q-.26-2.406-.519-4.813-.369-3.41-.736-6.82l8.266,5.87,26.632,18.913,4.339,3.081,1.822,1.3a1.116,1.116,0,0,0,.145.064c.886.427,2.706-.266,3.416-.529l.031-.011a8.238,8.238,0,0,0,3.637-2.182q7.52-9.8,15.04-19.594l15.984-20.823,2.929-3.817,2.93-3.816,2.157-2.81.094-.123,7.97,18.3,15.824,36.329,3.683,8.456a.875.875,0,0,0,.8.421,6.8,6.8,0,0,0,2.046-.309,13.163,13.163,0,0,0,1.939-.692,9.9,9.9,0,0,0,2.207-1.318l27.9-22.624,3.45-2.8.223-.181,3.016-2.446,2.386-1.934,6.471,40.837q.492,3.1.983,6.2c.077.488,1.291.387,1.492.381l27.561-.805,43.72-1.277,7.7-.225-4.448,4.944-1.777,1.974-1.029,1.144-.747.83-7.6,8.45-26.722,29.7-1.914,2.128A5.019,5.019,0,0,0,350.2,131.8l-17.934-2.348a5,5,0,0,0-5.577,4.114l-.495,2.9a170.484,170.484,0,0,0-28.176,16.17,21.918,21.918,0,0,0-2.083-2.943c-.083-.383-.179-.762-.285-1.138,2.821-1.025,5.509-2.042,7.977-3.025a5,5,0,0,0,2.656-2.479,90.688,90.688,0,0,0,6.674-19.269,38.835,38.835,0,0,0,.908-7.186,5.019,5.019,0,0,0-3.685-4.913c-.345-.094-.689-.173-1.034-.264a31.231,31.231,0,0,0,.3-3.681,5,5,0,0,0-3.685-4.914c-3.809-1.037-7.577-1.936-11.519-2.75a237.859,237.859,0,0,0-65.334-4.059,5,5,0,0,0-4.13,7.18l6.129,12.559q-3.852,4.963-7.291,9.918a23.319,23.319,0,0,0-2.217-3.293c-2.372-9.474-10.515-16.674-22.647-19.178-21.765-4.488-44.046,9.471-51.035,31.022-4.223-.766-8.555-1.477-12.777-2.1,6.143-10.532,13-21.554,19.539-31.326a5,5,0,0,0-3.469-7.734q-.77-.106-1.559-.2c.2-.3.408-.621.61-.923a4.986,4.986,0,0,0-2.616-7.526,4.9,4.9,0,0,0-.854-.207c-1.063-.147-2.159-.279-3.274-.4q-1.508-.162-3.052-.293-.525-.045-1.053-.085c-2.865-.224-5.758-.373-8.489-.461-2.911-.094-5.639-.12-7.941-.1-.144,0-.286.016-.427.03a4.993,4.993,0,0,0-3.535,1.991c-1.251,1.687-2.506,3.459-3.743,5.275a5,5,0,0,0-1.189-.409c-.394-.082-.782-.191-1.17-.3-.186-.051-.375-.09-.561-.139.179-.287.359-.581.537-.865a4.988,4.988,0,0,0-1.689-6.96,4.99,4.99,0,0,0,2.44-2.236c.005-.01.011-.017.016-.026a5.031,5.031,0,0,0-.219-5.026l-1.511-2.355L109.6,68.513a5,5,0,0,0-.768-3.17l-.436-.68,30.129,12.311m72.911,68.464,1.539,3.042.254.5c-.819,1.178-1.668,2.313-2.537,3.412a61.175,61.175,0,0,1-5.193,5.8c-9.709,9.5-21.719,14.318-35.029,11.572a29.326,29.326,0,0,1-5.316-1.616,23.2,23.2,0,0,1-9.22-6.73,22.113,22.113,0,0,1-2.433-3.672,23.737,23.737,0,0,1-2.26-6.384,26.232,26.232,0,0,1-.441-3.16c-.008-.1-.015-.2-.021-.3q-.07-1.032-.062-2.077a28.6,28.6,0,0,1,.178-2.983c.1-.923.245-1.848.435-2.772q.4-1.946.989-3.825c5.889-18.925,25.3-32.31,45.431-28.16a27.161,27.161,0,0,1,13.4,6.528,18.577,18.577,0,0,1,5.606,10.06,20.955,20.955,0,0,1-.112,8.233c-.109.527-.24,1.056-.385,1.585a31.5,31.5,0,0,1-5.15,10.29ZM94.12,155.457l-7.062-2.963a5,5,0,0,0,1.726-2.1c.385-.88.786-1.776,1.192-2.678a5.176,5.176,0,0,0,.318.706,5,5,0,0,0,2.778,2.3,4.945,4.945,0,0,0,1.094.234c.39.039.791.081,1.188.123-.258.525-.523,1.055-.777,1.577a5,5,0,0,0-.457,2.8M64.408,142.991c.986-.181,1.975-.377,2.969-.6l6.081,4.4-9.05-3.8m38.612,3.953q-2.708-.351-5.286-.637c-1.044-.116-2.075-.227-3.077-.325,4.5-9.265,9.7-19.032,15-28.22q1.729-3,3.466-5.9c.268-.446.535-.9.8-1.346l-.4-.273-.774-.532-.114-.079-.366-.252-1.742-1.2-.409-.281q.709-1.332,1.473-2.686c.78-1.385,1.6-2.782,2.442-4.175,1.236-2.047,2.519-4.086,3.829-6.067,1.649-2.5,3.329-4.9,4.969-7.109,3.628-.039,8.027.054,12.432.305,1.507.085,3.013.19,4.492.314q1.368.115,2.692.254c.96.1,1.9.209,2.8.328.216.028.437.056.65.085q-1.044,1.56-2.086,3.144-1.564,2.377-3.12,4.794t-3.084,4.839c-7.361,11.672-14.27,23.483-19.507,33.173,1.1.1,2.24.211,3.407.335,1.739.184,3.543.395,5.384.627,1.757.221,3.547.462,5.349.718,4.786.679,9.652,1.464,14.179,2.279.684.123,1.362.247,2.029.372L147,142.176l-1.246,2.334-1.241,2.324-2.489,4.661-1.257,2.355c-3.126-.741-6.621-1.557-10.32-2.32-7.036-1.451-14.769-2.795-22.174-3.866-1.774-.256-3.529-.5-5.25-.72m-63.838-17.6a33.99,33.99,0,0,1-6.558-2.05A23.776,23.776,0,0,1,24,121.22a19.566,19.566,0,0,1-4.785-11.262,26.637,26.637,0,0,1,.492-7.922,39.626,39.626,0,0,1,1.822-6.129,51.554,51.554,0,0,1,3.553-7.386l-1.7-1.928-2.492-2.819C31.755,66.426,55.878,52.272,79.046,49c1.533-.216,3.061-.379,4.582-.5.234-.018.469-.044.7-.06s.453-.023.68-.036a64.566,64.566,0,0,1,6.978-.048l2.437,3.8.083.129,2.917,4.545,2.916,4.545,4.28,6.67c-.4.014-.821.033-1.234.05-.256.011-.5.018-.763.031-1.59.075-3.249.184-4.949.326q-.963.08-1.944.174l-.071.007q-2.181.215-4.437.51c-.625.083-1.252.167-1.883.261q-1.265.186-2.541.4c-1.28.217-2.566.462-3.854.727q-2.128.438-4.251.973-2.088.525-4.152,1.147c-14.521,4.4-27.567,12.621-30.638,27.513a9.957,9.957,0,0,0,.143,5.312,7.7,7.7,0,0,0,4.143,4.354,18.232,18.232,0,0,0,4.422,1.448c.127.026.264.044.393.069,4.279.817,9.57.779,15.386.6,1.568-3.1,3.163-6.15,4.71-8.982.919-1.682,1.821-3.291,2.687-4.776q.481-.827.947-1.6l-1.581-2.139-3.2-4.332-.33-.445-2.677-3.622A70.956,70.956,0,0,1,80.9,83.91q2.289-.222,4.618-.323,2.375-.1,4.756-.079,1.129.01,2.254.051,1.05.036,2.094.1,2.565.152,5.058.457c1.8.218,3.565.5,5.27.831.186.036.378.068.563.106.994.2,1.961.534,2.954.739-.519.824-1.041,1.668-1.565,2.515-.009.016-.019.031-.028.046q-1.239,2.007-2.49,4.09c-.105.174-.21.353-.315.528q-1.069,1.785-2.142,3.619c-.218.372-.436.743-.654,1.117q-.753,1.3-1.506,2.612-1.2,2.1-2.4,4.243t-2.374,4.294c-1.995,3.655-3.95,7.354-5.835,11.04q-.479.933-.948,1.865t-.933,1.857c-.438.878-.876,1.756-1.3,2.629-.3.616-.6,1.227-.892,1.839s-.6,1.226-.886,1.836c-1.5,3.142-2.919,6.231-4.237,9.228-.056.127-.115.258-.171.384l-6.459-4.672-1.217-.881-1.217-.88-1.364-.986-.365-.264-1.217-.881-1.216-.88-2.71-1.96c-9.161,2.381-17.764,2.677-24.838,1.218m15.056-22.852c2.331-6.286,7.08-10.971,12.911-14.462l1.333,1.8a5,5,0,0,0,.861,4.048l.49.663c-1.427,2.552-2.953,5.4-4.544,8.483a60.069,60.069,0,0,1-11.051-.535M354.113,247.377l-3.422-1.308-5.1-1.947-4.952-1.892-.143-.055-37.259-14.234-8.616-3.293c-1.4-.533-3.393.323-4.626.9-.923.436-2.995,1.314-2.882,2.582l.549,6.144q.15,1.686.3,3.373t.3,3.372q1.078,12.087,2.158,24.175l-1.665-1.2-4.311-3.109-4.311-3.11-23.051-16.626q-2.924-2.109-5.848-4.218c-.822-.594-2.874.21-3.592.475a8.016,8.016,0,0,0-3.637,2.183l-4.737,6.568-1.9,2.63-1.137,1.576-21.072,29.215-.852-2.143-5.221-13.125q-6.472-16.272-12.944-32.543l-2.964-7.451c-.655-1.647-5.525.9-6.284,1.384l-20.409,12.954L134.1,259.217l-.518.329q4.474-21.559,8.948-43.119.683-3.285,1.364-6.572c.234-1.125-1.852-.744-2.352-.622l-49.72,12.161-3.995.977,9.18-18.289,15.819-31.514q1.809-3.6,3.617-7.206l0-.007a.8.8,0,0,0,.034-.1c.109-.31-.049-.483-.356-.563l-9.385-3.938c8.728,1.126,18.377,2.732,27.108,4.532,3.572.737,7,1.535,10.177,2.288a5,5,0,0,0,5.565-2.509l1.181-2.212c.191.277.385.55.585.818a27.659,27.659,0,0,0,18.389,18.747,35.909,35.909,0,0,0,4.128,1.107,40.784,40.784,0,0,0,31.927-6.582,4.657,4.657,0,0,0,.5.065l.455.028c-.083.36-.182.733-.255,1.086l-.36,1.745a5,5,0,0,0,4.578,6,184.074,184.074,0,0,0,24.086.205,5,5,0,0,0,1.979-.586l1.427,3.831a5,5,0,0,0,3.815,3.176,76.888,76.888,0,0,0,35.283-2.774,4.981,4.981,0,0,0,1.476,4.3l12.393,11.908a5,5,0,0,0,7.7-.954c4.614-7.378,10.559-11.494,18.635-12.733a79.3,79.3,0,0,0,.147,8.477,4.98,4.98,0,0,0,4.233,4.563q.033,2.228.185,4.3a5,5,0,0,0,6.212,4.474l2.459-.622,4.085-1.034,4.086-1.034,2.743-.694,1.709,5.043,10.734,31.671M406.082,176.9l-1.066,2-.176.33-.535,1-.2.371-.189.354L403,182.679l-.468.876-2.489,4.661-.025.047-.4.753-.83,1.555-1.148-.271q-1.066-.251-2.179-.508l-.424-.1q-1.5-.347-3.075-.694c-1.143-.252-2.3-.5-3.494-.75l-.153-.031c-1.946-.4-3.947-.792-5.978-1.172q-1.932-.363-3.894-.709-1.992-.351-4-.686c-2.728-.453-5.459-.878-8.15-1.267-1.773-.256-3.528-.5-5.249-.721q-2.709-.35-5.287-.636c-1.044-.116-2.075-.227-3.076-.326,2.555-5.266,5.346-10.7,8.246-16.09q.893-1.66,1.8-3.312t1.818-3.295q1.25-2.238,2.513-4.441c.208-.364.418-.72.627-1.082.418-.724.836-1.447,1.254-2.163.636-1.087,1.272-2.158,1.908-3.224.369-.618.738-1.247,1.106-1.857l-1.168-.8-2.631-1.812a168.138,168.138,0,0,1,12.714-20.037,172.594,172.594,0,0,1,23.069,1.288q-1.044,1.559-2.085,3.142-1.566,2.379-3.12,4.795t-3.084,4.839c-4.339,6.879-8.518,13.8-12.292,20.315q-.954,1.647-1.87,3.254-.948,1.659-1.851,3.269-1.285,2.291-2.478,4.469c-.343.627-.686,1.256-1.017,1.867,1.1.1,2.24.211,3.407.334l.464.05c1.6.172,3.242.366,4.921.577,1.563.2,3.153.41,4.755.634l.593.084c2.267.321,4.551.666,6.81,1.027,2.606.417,5.176.855,7.643,1.3q.886.16,1.755.322Z"/>
      <path id="パス_631" data-name="パス 631" d="M199.994,132.435a10.717,10.717,0,0,0-.908-5.508,7.387,7.387,0,0,0-5.465-3.971c-10.359-2.136-18.321,3.743-25.281,15.517l2.916,1.759c-.163.292-.307.588-.452.882a17.08,17.08,0,0,0-1.43,4.033c-.774,3.756.26,7.169,4.477,8.627a11.652,11.652,0,0,0,1.47.409,16.073,16.073,0,0,0,3.5.327c9.2-.137,17.077-8.187,20.039-16.807a24.281,24.281,0,0,0,.823-2.987,17.3,17.3,0,0,0,.313-2.281m-12.223,13.2a15.241,15.241,0,0,1-7.1,3.7,5.014,5.014,0,0,0-1.084-3.357c5.521-7.79,10.393-9.624,14.427-9.592a22.882,22.882,0,0,1-6.238,9.252"/>
      <path id="パス_632" data-name="パス 632" d="M236.926,162.134a44.616,44.616,0,0,0,5.114.683c1.662.138,3.5.224,5.421.227,7.456.013,16.111-1.213,20.2-5.385a7.98,7.98,0,0,0,2.2-4.019,7.251,7.251,0,0,0,.094-.737c.317-3.273-1.646-6.946-6.016-10.144a34.06,34.06,0,0,0-8.313-4.3c-.9-.333-1.83-.656-2.818-.954l5.548-2.979,15.548-8.35,5.506-2.957.343-1.662.689-3.342a185.614,185.614,0,0,0-19.775-1.167c-11.029,12.888-19.769,28.8-26.387,44.417.9.187,1.68.458,2.577.65.026,0,.048.013.075.019M254.139,150.3a5.12,5.12,0,0,0,1.636.849,35.089,35.089,0,0,1,7.907,3.379c-1.651,1.39-4.768,2.479-8.935,3.056-1.593.221-3.207.346-4.788.409q2.042-3.974,4.18-7.693"/>
      <path id="パス_633" data-name="パス 633" d="M314.446,168.663c2.258.3,4.644.638,6.819.976,1.43.222,2.769.444,3.919.658.235-1.349.5-2.714.765-4.077.324-1.648.659-3.294.993-4.914q.213-1.03.426-2.059c.094-.449.188-.894.283-1.34.38-1.8.768-3.58,1.177-5.275A123.173,123.173,0,0,0,308.419,167.9c.6.072,1.263.153,1.967.24,1.245.155,2.625.331,4.06.523"/>
      <path id="パス_634" data-name="パス 634" d="M104.95,84.943c-1.7-.336-3.467-.612-5.269-.83q-2.488-.3-5.058-.457c-.7-.041-1.394-.072-2.094-.1q-1.125-.041-2.255-.051-2.377-.023-4.756.079-2.325.1-4.617.324a70.888,70.888,0,0,0-11.957,2.138l2.678,3.622.33.446,3.2,4.331,1.582,2.139c-.311.516-.627,1.052-.948,1.6-.866,1.485-1.768,3.095-2.687,4.776-1.546,2.832-3.142,5.879-4.709,8.982-5.816.183-11.107.221-15.386-.6-.13-.024-.267-.042-.394-.069a18.218,18.218,0,0,1-4.422-1.448,7.7,7.7,0,0,1-4.143-4.354,9.967,9.967,0,0,1-.143-5.312c3.071-14.892,16.117-23.111,30.639-27.513q2.061-.624,4.152-1.147,2.121-.533,4.251-.972,1.931-.4,3.854-.728,1.275-.216,2.541-.4c.631-.093,1.257-.177,1.883-.261q2.251-.3,4.436-.51l.072-.007q.981-.095,1.943-.174c1.7-.141,3.359-.251,4.95-.326.258-.013.507-.02.762-.032.414-.016.831-.035,1.235-.048l-4.281-6.67-2.916-4.545-2.916-4.545-.084-.13-2.437-3.8a64.544,64.544,0,0,0-6.977.047c-.227.013-.453.022-.681.037s-.468.041-.7.06c-1.521.119-3.049.282-4.583.5-23.167,3.276-47.29,17.429-58.16,34.778l2.492,2.817,1.706,1.929a51.35,51.35,0,0,0-3.553,7.387,39.538,39.538,0,0,0-1.822,6.128,26.641,26.641,0,0,0-.493,7.922A19.571,19.571,0,0,0,24,121.219a23.784,23.784,0,0,0,8.622,6.077,33.94,33.94,0,0,0,6.558,2.048c7.075,1.461,15.677,1.164,24.839-1.216l2.709,1.959,1.217.88,1.217.881.365.263,1.364.987,1.216.881,1.217.88,6.46,4.673c.055-.128.115-.257.171-.384,1.317-3,2.737-6.086,4.237-9.229.291-.609.589-1.224.885-1.836s.59-1.224.892-1.838c.428-.875.866-1.752,1.305-2.63q.463-.927.932-1.857t.948-1.864c1.885-3.688,3.84-7.386,5.835-11.041q1.181-2.16,2.374-4.294t2.4-4.243q.753-1.315,1.506-2.612c.218-.375.435-.744.653-1.116q1.072-1.833,2.142-3.621c.105-.174.21-.352.315-.528q1.251-2.082,2.49-4.088l.029-.046c.523-.849,1.046-1.691,1.564-2.517-.993-.2-1.96-.532-2.953-.737-.186-.039-.377-.071-.564-.108" fill="#1effff"/>
      <path id="パス_635" data-name="パス 635" d="M132.254,136.781c-1.8-.256-3.593-.5-5.349-.718-1.841-.232-3.645-.443-5.384-.627-1.167-.124-2.306-.237-3.407-.335,5.237-9.689,12.146-21.5,19.507-33.173q1.531-2.427,3.084-4.839t3.12-4.794q1.043-1.583,2.085-3.144c-.212-.029-.433-.057-.649-.085-.907-.119-1.844-.228-2.8-.328q-1.323-.138-2.693-.254c-1.478-.124-2.984-.228-4.491-.314-4.4-.251-8.8-.344-12.432-.305-1.64,2.21-3.32,4.614-4.97,7.109-1.309,1.981-2.593,4.02-3.828,6.067-.841,1.393-1.662,2.79-2.442,4.176q-.76,1.351-1.474,2.685l.41.282,1.742,1.2.366.253.113.078.775.533.4.272c-.268.442-.536.9-.8,1.346q-1.735,2.9-3.467,5.9c-5.3,9.188-10.5,18.955-15,28.22,1,.1,2.033.209,3.077.325q2.574.286,5.286.637c1.721.222,3.476.464,5.249.72,7.406,1.072,15.139,2.415,22.174,3.866,3.7.763,7.2,1.579,10.321,2.321h0l1.257-2.355,2.489-4.661,1.241-2.324L147,142.176l1.465-2.744q-1-.187-2.03-.372c-4.527-.815-9.393-1.6-14.178-2.279" fill="#1effff"/>
      <path id="パス_636" data-name="パス 636" d="M211.434,145.438l-.331-.653a31.5,31.5,0,0,0,5.151-10.29c.145-.529.275-1.058.384-1.585a20.936,20.936,0,0,0,.112-8.233,18.57,18.57,0,0,0-5.606-10.06,27.161,27.161,0,0,0-13.4-6.528c-20.126-4.15-39.541,9.236-45.431,28.16q-.585,1.878-.988,3.825c-.191.924-.333,1.85-.436,2.772a29.156,29.156,0,0,0-.178,2.983q-.008,1.046.062,2.077l.021.3a26.044,26.044,0,0,0,.442,3.159,23.756,23.756,0,0,0,2.259,6.384,22.114,22.114,0,0,0,2.433,3.672,23.2,23.2,0,0,0,9.22,6.73,29.456,29.456,0,0,0,5.316,1.617c13.311,2.745,25.32-2.074,35.029-11.573a61.284,61.284,0,0,0,5.193-5.8q1.305-1.65,2.538-3.413l-.255-.5Zm-37.584,8.336c-4.217-1.458-5.251-4.871-4.477-8.628a17.088,17.088,0,0,1,1.43-4.032c.145-.294.289-.59.452-.882l-2.916-1.759c6.961-11.774,14.922-17.653,25.282-15.517a7.387,7.387,0,0,1,5.464,3.971,10.707,10.707,0,0,1,.908,5.508,17.258,17.258,0,0,1-.313,2.28,24.244,24.244,0,0,1-.823,2.988c-2.962,8.62-10.839,16.67-20.039,16.807a16.073,16.073,0,0,1-3.5-.327,11.651,11.651,0,0,1-1.47-.409" fill="#1effff"/>
      <path id="パス_637" data-name="パス 637" d="M287.061,165.951a20.627,20.627,0,0,0,3.279-6.061q.26-.765.461-1.566c.079-.308.17-.607.235-.923a16.067,16.067,0,0,0,.2-5.453,15.274,15.274,0,0,0-2.368-6.3,18.539,18.539,0,0,0-3.646-4.043,24.25,24.25,0,0,0-3.76-2.584c-.454-.254-.914-.5-1.4-.745,2.338-.777,4.7-1.592,7.039-2.422,3.527-1.25,7.008-2.54,10.264-3.836h0a91.792,91.792,0,0,0,4.71-12.086c.495-1.605.944-3.233,1.312-4.833.091-.4.179-.8.26-1.193.265-1.285.474-2.533.616-3.737.1-.868.176-1.718.19-2.528-3.674-1-7.374-1.885-11.215-2.677a231.531,231.531,0,0,0-63.96-3.97l2.152,4.41,5.352,10.967q-1.736,2.178-3.362,4.317-4.137,5.435-7.59,10.567-2.313,3.426-4.33,6.692-2.418,3.906-4.427,7.56c-2.217,4.023-4.066,7.793-5.571,11.266-.3.7-.6,1.4-.874,2.073-.3.744-.586,1.47-.856,2.183a64,64,0,0,0-2.637,8.559c-.052.23-.1.462-.151.686l-.36,1.744c.488.032.993.059,1.49.088q1.761.1,3.573.187c.537.024,1.072.047,1.612.068,1.753.069,3.518.122,5.265.148,4.062.061,8.017-.007,11.43-.279l3.1-7.974,1.286,3.45,2.563,6.874,1.541,4.131c.384.069.785.129,1.185.189,1.722.26,3.58.453,5.546.562,11.373.635,26.1-1.416,35.858-8.022a26.654,26.654,0,0,0,5.331-4.694c.224-.262.448-.523.659-.794m-50.135-3.817-.075-.019c-.9-.192-1.672-.462-2.577-.649,6.618-15.618,15.358-31.529,26.387-44.418a185.35,185.35,0,0,1,19.775,1.168l-.689,3.342-.343,1.661-5.506,2.957-15.548,8.351-5.548,2.979c.988.3,1.917.62,2.818.953a34.086,34.086,0,0,1,8.314,4.3c4.37,3.2,6.332,6.871,6.015,10.144a6.943,6.943,0,0,1-.094.737,7.976,7.976,0,0,1-2.2,4.02c-4.085,4.171-12.74,5.4-20.2,5.385-1.922,0-3.759-.09-5.421-.228a44.616,44.616,0,0,1-5.114-.683" fill="#1effff"/>
      <path id="パス_638" data-name="パス 638" d="M341.966,194.047a13.563,13.563,0,0,1-.282-1.455,24.589,24.589,0,0,1-.224-3.146c-.1-8.393,2.723-21.911,5.1-34.168.27-1.389.533-2.762.785-4.109q.128-.68.251-1.349c.256-1.385.5-2.738.72-4.05.05-.3.1-.588.146-.879.173-1.044.335-2.065.479-3.046q.143-.974.263-1.9c.145-1.121.265-2.189.353-3.191l-17.933-2.348-.94,5.494a170.378,170.378,0,0,0-30.622,17.453q-2.253,1.665-4.41,3.433c-.156.127-.308.257-.463.386-1.176.978-2.333,1.973-3.452,3l.894,2.554.38,1.084c-.939.733-1.951,1.555-3,2.433-1.865,1.56-3.85,3.3-5.785,5.083-2.3,2.116-4.531,4.279-6.392,6.228l1.961,1.884,1.189,1.142,2.642,2.538.962.926,5.64,5.418c.305-.487.624-.95.942-1.416,4.384-6.438,9.973-10.792,17.343-12.8a42.861,42.861,0,0,1,15.285-1.033l.043,0v0c-.41,2.875-.753,5.763-.994,8.616q-.213,2.521-.306,4.992c-.014.368-.024.735-.034,1.1a73.556,73.556,0,0,0,.146,7.412l4.375-1.107,5.08-1.285,4.839-1.224,2.1-.532,1.868-.472.118-.03,1.357-.343a8.1,8.1,0,0,1-.364-1.059c-.022-.077-.039-.163-.059-.242m-31.58-25.907c-.7-.087-1.368-.168-1.968-.239a123.162,123.162,0,0,1,20.409-15.269c-.409,1.695-.8,3.472-1.177,5.275-.094.446-.189.891-.282,1.34q-.213,1.028-.426,2.059c-.334,1.62-.669,3.266-.993,4.914-.268,1.363-.53,2.728-.765,4.077-1.151-.213-2.489-.436-3.919-.658-2.175-.338-4.561-.674-6.819-.976-1.435-.192-2.815-.368-4.06-.523" fill="#1effff"/>
      <path id="パス_639" data-name="パス 639" d="M404.726,175.83c-2.466-.446-5.037-.884-7.643-1.3-2.259-.361-4.543-.706-6.81-1.027l-.593-.084c-1.6-.225-3.192-.437-4.755-.634-1.679-.211-3.325-.4-4.921-.577l-.464-.05c-1.167-.123-2.305-.236-3.406-.335.33-.61.674-1.239,1.017-1.866q1.189-2.175,2.477-4.469.9-1.611,1.851-3.269.918-1.608,1.87-3.254c3.774-6.513,7.953-13.436,12.292-20.315q1.531-2.427,3.084-4.839t3.12-4.795q1.043-1.581,2.085-3.142a172.419,172.419,0,0,0-23.069-1.288,168.138,168.138,0,0,0-12.714,20.037l2.631,1.812,1.168.8c-.368.61-.737,1.239-1.106,1.857-.636,1.066-1.272,2.137-1.907,3.224-.419.716-.837,1.439-1.255,2.163-.209.362-.418.718-.627,1.082q-1.263,2.2-2.513,4.441c-.611,1.093-1.214,2.194-1.818,3.295s-1.2,2.205-1.8,3.311c-2.9,5.4-5.69,10.825-8.246,16.091,1,.1,2.032.21,3.077.326q2.574.286,5.286.636c1.721.223,3.476.465,5.249.721,2.691.389,5.423.814,8.151,1.267q2.006.333,4,.686,1.961.347,3.894.709c2.031.38,4.032.772,5.979,1.172l.152.031c1.191.246,2.351.5,3.495.75q1.575.348,3.074.694l.425.1q1.115.258,2.178.508l1.148.271.831-1.555.4-.753.025-.047,2.488-4.661.468-.876.922-1.726.188-.354.2-.372.534-1,.176-.33,1.066-2,.4-.748q-.868-.162-1.756-.322" fill="#1effff"/>
    </g>
  </g>
</svg>
