<svg id="img_text05" xmlns="http://www.w3.org/2000/svg" xmlns:xlink="http://www.w3.org/1999/xlink" width="600" height="290" viewBox="0 0 600 290">
  <defs>
    <clipPath id="clip-path">
      <rect id="長方形_1094" data-name="長方形 1094" width="600" height="290" fill="none"/>
    </clipPath>
    <clipPath id="clip-path-3">
      <rect id="長方形_1090" data-name="長方形 1090" width="555.933" height="198.725" transform="translate(16.503 81.997)" fill="none"/>
    </clipPath>
    <clipPath id="clip-path-4">
      <rect id="長方形_1091" data-name="長方形 1091" width="52.247" height="85.299" transform="translate(194.536 16.634)" fill="none"/>
    </clipPath>
    <clipPath id="clip-path-5">
      <rect id="長方形_1092" data-name="長方形 1092" width="589.037" height="170.248" transform="translate(9.386 96.968)" fill="none"/>
    </clipPath>
  </defs>
  <g id="グループ_199" data-name="グループ 199" clip-path="url(#clip-path)">
    <rect id="長方形_1089" data-name="長方形 1089" width="600" height="290" fill="none"/>
    <g id="グループ_198" data-name="グループ 198">
      <g id="グループ_197" data-name="グループ 197" clip-path="url(#clip-path)">
        <g id="グループ_190" data-name="グループ 190" style="mix-blend-mode: multiply;isolation: isolate">
          <g id="グループ_189" data-name="グループ 189">
            <g id="グループ_188" data-name="グループ 188" clip-path="url(#clip-path-3)">
              <path id="パス_723" data-name="パス 723" d="M565.9,122.491C563.16,97.583,522.18,83.558,470.7,89.91a185.351,185.351,0,0,0-36.69,7.986c-13.5-8.144-36.3-11.607-62.573-8.366-21.371,2.53-39.461,8.819-51.485,17.059a145.825,145.825,0,0,0-38.2,0c-22.931,2.714-42.238,9.581-54.752,18.545-14.33-7.148-36.56-9.989-61.864-6.867C122.6,123.3,92.491,142.611,95.191,163.126a19.572,19.572,0,0,0,1.365,5.308c-45.158,6.722-76.475,27.791-73.535,50.12,2.386,21.677,35.682,34.551,79.055,31.509,9.257,18.48,44.24,28.171,86.933,22.9,25.18-2.981,46.518-10.371,60.738-20.063,5.824-.153,11.864-.6,18.068-1.365a173.816,173.816,0,0,0,34.354-7.475c16.319,8.193,41.252,11.485,69.552,7.99,32.17-3.8,58.037-15.079,70.778-29.307a201.5,201.5,0,0,0,28.545-1.544c51.788-6.132,88.524-28.974,85.346-53.057a24.522,24.522,0,0,0-7.525-14.773C560.952,144.295,567.358,133.538,565.9,122.491Z" fill="none" stroke="#000" stroke-linecap="round" stroke-linejoin="round" stroke-width="12.656"/>
              <path id="パス_724" data-name="パス 724" d="M565.9,122.491C563.16,97.583,522.18,83.558,470.7,89.91a185.351,185.351,0,0,0-36.69,7.986c-13.5-8.144-36.3-11.607-62.573-8.366-21.371,2.53-39.461,8.819-51.485,17.059a145.825,145.825,0,0,0-38.2,0c-22.931,2.714-42.238,9.581-54.752,18.545-14.33-7.148-36.56-9.989-61.864-6.867C122.6,123.3,92.491,142.611,95.191,163.126a19.572,19.572,0,0,0,1.365,5.308c-45.158,6.722-76.475,27.791-73.535,50.12,2.386,21.677,35.682,34.551,79.055,31.509,9.257,18.48,44.24,28.171,86.933,22.9,25.18-2.981,46.518-10.371,60.738-20.063,5.824-.153,11.864-.6,18.068-1.365a173.816,173.816,0,0,0,34.354-7.475c16.319,8.193,41.252,11.485,69.552,7.99,32.17-3.8,58.037-15.079,70.778-29.307a201.5,201.5,0,0,0,28.545-1.544c51.788-6.132,88.524-28.974,85.346-53.057a24.522,24.522,0,0,0-7.525-14.773c12.087-9.079,18.493-19.836,17.039-30.883"/>
            </g>
          </g>
        </g>
        <path id="パス_725" data-name="パス 725" d="M559.154,115.742c-2.744-24.908-43.724-38.933-95.2-32.581a185.351,185.351,0,0,0-36.69,7.986c-13.5-8.144-36.3-11.607-62.573-8.366C343.318,85.311,325.228,91.6,313.2,99.84a145.825,145.825,0,0,0-38.2,0c-22.931,2.714-42.238,9.581-54.752,18.545-14.33-7.148-36.56-9.989-61.864-6.867-42.538,5.035-72.645,24.347-69.945,44.862a19.572,19.572,0,0,0,1.365,5.308c-45.158,6.722-76.475,27.791-73.535,50.12,2.386,21.676,35.682,34.55,79.055,31.508,9.257,18.481,44.24,28.171,86.933,22.906,25.18-2.981,46.518-10.371,60.738-20.063,5.824-.153,11.864-.6,18.068-1.366a173.673,173.673,0,0,0,34.354-7.475c16.319,8.193,41.252,11.486,69.552,7.99,32.17-3.8,58.037-15.078,70.778-29.306a201.5,201.5,0,0,0,28.545-1.545c51.788-6.131,88.524-28.974,85.346-53.056a24.522,24.522,0,0,0-7.525-14.773C554.2,137.546,560.608,126.789,559.154,115.742Z" fill="none" stroke="#000" stroke-linecap="round" stroke-linejoin="round" stroke-width="12.656"/>
        <path id="パス_726" data-name="パス 726" d="M559.154,115.742c-2.744-24.908-43.724-38.933-95.2-32.581a185.351,185.351,0,0,0-36.69,7.986c-13.5-8.144-36.3-11.607-62.573-8.366C343.318,85.311,325.228,91.6,313.2,99.84a145.825,145.825,0,0,0-38.2,0c-22.931,2.714-42.238,9.581-54.752,18.545-14.33-7.148-36.56-9.989-61.864-6.867-42.538,5.035-72.645,24.347-69.945,44.862a19.572,19.572,0,0,0,1.365,5.308c-45.158,6.722-76.475,27.791-73.535,50.12,2.386,21.676,35.682,34.55,79.055,31.508,9.257,18.481,44.24,28.171,86.933,22.906,25.18-2.981,46.518-10.371,60.738-20.063,5.824-.153,11.864-.6,18.068-1.366a173.673,173.673,0,0,0,34.354-7.475c16.319,8.193,41.252,11.486,69.552,7.99,32.17-3.8,58.037-15.078,70.778-29.306a201.5,201.5,0,0,0,28.545-1.545c51.788-6.131,88.524-28.974,85.346-53.056a24.522,24.522,0,0,0-7.525-14.773c12.087-9.079,18.493-19.836,17.039-30.883" fill="#00a0e9"/>
        <g id="グループ_193" data-name="グループ 193" style="mix-blend-mode: multiply;isolation: isolate">
          <g id="グループ_192" data-name="グループ 192">
            <g id="グループ_191" data-name="グループ 191" clip-path="url(#clip-path-4)">
              <path id="パス_727" data-name="パス 727" d="M198.889,85.908c-1.013-7.913,6.425-14.853,17.28-16.124,10.845-1.353,19.724,3.617,20.625,11.543,1.011,7.912-6.426,14.852-17.281,16.124C208.669,98.805,199.79,93.832,198.889,85.908Z" fill="none" stroke="#000" stroke-linecap="round" stroke-linejoin="round" stroke-width="8.521"/>
              <path id="パス_728" data-name="パス 728" d="M210.077,53.717c-.722-5.651,4.444-10.589,12-11.473,7.552-.942,13.745,2.623,14.39,8.283.722,5.652-4.444,10.588-12,11.473C216.917,62.944,210.723,59.377,210.077,53.717Z" fill="none" stroke="#000" stroke-linecap="round" stroke-linejoin="round" stroke-width="8.521"/>
              <path id="パス_729" data-name="パス 729" d="M225,28.973c-.506-3.964,2.894-7.4,7.9-7.984,5-.625,9.118,1.9,9.572,5.872.5,3.965-2.9,7.4-7.9,7.985C229.577,35.471,225.457,32.942,225,28.973Z" fill="none" stroke="#000" stroke-linecap="round" stroke-linejoin="round" stroke-width="8.521"/>
              <path id="パス_730" data-name="パス 730" d="M198.889,85.908c-1.013-7.913,6.425-14.853,17.28-16.124,10.845-1.353,19.724,3.617,20.625,11.543,1.011,7.912-6.426,14.852-17.281,16.124-10.844,1.354-19.723-3.619-20.624-11.543"/>
              <path id="パス_731" data-name="パス 731" d="M210.077,53.717c-.722-5.651,4.444-10.589,12-11.473,7.552-.942,13.745,2.623,14.39,8.283.722,5.652-4.444,10.588-12,11.473-7.55.944-13.744-2.623-14.39-8.283"/>
              <path id="パス_732" data-name="パス 732" d="M225,28.973c-.506-3.964,2.894-7.4,7.9-7.984,5-.625,9.118,1.9,9.572,5.872.5,3.965-2.9,7.4-7.9,7.985-5,.625-9.118-1.9-9.572-5.873"/>
            </g>
          </g>
        </g>
        <path id="パス_733" data-name="パス 733" d="M194.344,81.364c-1.013-7.913,6.425-14.853,17.28-16.124,10.845-1.353,19.724,3.617,20.625,11.543,1.011,7.912-6.426,14.852-17.281,16.124C204.124,94.261,195.245,89.288,194.344,81.364Z" fill="none" stroke="#000" stroke-linecap="round" stroke-linejoin="round" stroke-width="8.521"/>
        <path id="パス_734" data-name="パス 734" d="M205.533,49.173c-.722-5.651,4.444-10.589,12-11.473,7.551-.942,13.745,2.623,14.39,8.283.722,5.652-4.444,10.588-12,11.473C212.373,58.4,206.179,54.833,205.533,49.173Z" fill="none" stroke="#000" stroke-linecap="round" stroke-linejoin="round" stroke-width="8.521"/>
        <path id="パス_735" data-name="パス 735" d="M220.458,24.429c-.506-3.964,2.894-7.4,7.9-7.984,5-.625,9.118,1.9,9.572,5.872.505,3.965-2.895,7.4-7.9,7.985C225.032,30.927,220.912,28.4,220.458,24.429Z" fill="none" stroke="#000" stroke-linecap="round" stroke-linejoin="round" stroke-width="8.521"/>
        <path id="パス_736" data-name="パス 736" d="M194.344,81.364c-1.013-7.913,6.425-14.853,17.28-16.124,10.845-1.353,19.724,3.617,20.625,11.543,1.011,7.912-6.426,14.852-17.281,16.124-10.844,1.354-19.723-3.619-20.624-11.543" fill="#00a0e9"/>
        <path id="パス_737" data-name="パス 737" d="M205.533,49.173c-.722-5.651,4.444-10.589,12-11.473,7.551-.942,13.745,2.623,14.39,8.283.722,5.652-4.444,10.588-12,11.473-7.55.944-13.744-2.623-14.39-8.283" fill="#00a0e9"/>
        <path id="パス_738" data-name="パス 738" d="M220.458,24.429c-.506-3.964,2.894-7.4,7.9-7.984,5-.625,9.118,1.9,9.572,5.872.505,3.965-2.895,7.4-7.9,7.985-5,.625-9.118-1.9-9.572-5.873" fill="#00a0e9"/>
        <g id="グループ_196" data-name="グループ 196" style="mix-blend-mode: multiply;isolation: isolate">
          <g id="グループ_195" data-name="グループ 195">
            <g id="グループ_194" data-name="グループ 194" clip-path="url(#clip-path-5)">
              <path id="パス_739" data-name="パス 739" d="M70.572,195.132c-4.73,7.027-12.448,15.831-20.771,21.564L38.849,212.03c5.612-4.753,13.056-11.937,16.244-16.874l-1.5-6.623a122.2,122.2,0,0,0-13.906,5.349c-3.462,16.268-5.26,38.666-2.583,55.743a192.16,192.16,0,0,1-17.929,7.818c-1.563-17.421,1.289-40.423,4.331-57.331L13.6,192c15.069-7.9,29.459-13.545,44.536-16.961,3.051-.691,6.14-1.208,9.23-1.724a29.582,29.582,0,0,1,1.474,4.889A75.328,75.328,0,0,1,70.572,195.132Z" fill="none" stroke="#000" stroke-linecap="round" stroke-linejoin="round" stroke-width="8.437"/>
              <path id="パス_740" data-name="パス 740" d="M103.389,263c-12.306-6.86-23.719-19.606-30.821-32.552l16.8-16.4-.4-3.322a128.248,128.248,0,0,0-13.376,3.543,127.417,127.417,0,0,0-7.807,40.993,119.773,119.773,0,0,1-14.913,4.772l-.086-.712c-1.214-10.046,1.991-25.362,7.42-40.866l-7.99-8.344a168.909,168.909,0,0,1,41.958-10.77q4.034-.487,8.1-.738a25.129,25.129,0,0,1,.842,4.313,48.816,48.816,0,0,1-.1,12.452A204.789,204.789,0,0,1,86.8,230.01c7.329,8.183,18.948,18.657,30.617,24.229Z" fill="none" stroke="#000" stroke-linecap="round" stroke-linejoin="round" stroke-width="8.437"/>
              <path id="パス_741" data-name="パス 741" d="M149.69,202.416l2.676,2.641c-4.2,14.341-13.253,24.937-27.113,26.613-12.736,1.539-20.76-6.993-22.046-17.631-2.047-16.932,9.657-33.929,27.038-36.03,11.687-1.412,19.479,4.563,20.62,14A24.4,24.4,0,0,1,149.69,202.416ZM133.916,190.3c-8.391,1.014-12.929,7.492-15.209,18.181l2.655.591a14.026,14.026,0,0,0-.176,4.2c.408,3.371,2.382,5.869,6.8,5.335,9.515-1.15,14.558-12.249,13.508-20.94C140.98,193.4,138.711,189.718,133.916,190.3Z" fill="none" stroke="#000" stroke-linecap="round" stroke-linejoin="round" stroke-width="8.437"/>
              <path id="パス_742" data-name="パス 742" d="M194.194,222.849,182.517,219.2a34.977,34.977,0,0,1-14.561,5.692c-9.018,1.09-15.949-3.128-17.067-12.383a28.638,28.638,0,0,1,.5-9.13l-3.451-1.991c3.579-14.879,19.23-30.816,35.3-35.327l11.466,9.209c-12.442,4.634-31.727,15.071-29.767,31.287.516,4.271,3.378,5.37,7.412,4.883a45.262,45.262,0,0,0,9.539-2.758c.569-3.922,1.228-7.773,1.9-10.824l-6.75-4.722a52.516,52.516,0,0,1,21.6-7.908c.633-.076,1.276-.074,1.909-.15A277.543,277.543,0,0,0,194.194,222.849Z" fill="none" stroke="#000" stroke-linecap="round" stroke-linejoin="round" stroke-width="8.437"/>
              <path id="パス_743" data-name="パス 743" d="M254.2,212.386c-12.307-6.859-23.719-19.606-30.822-32.552l16.8-16.4-.4-3.322a128.18,128.18,0,0,0-13.376,3.543,127.39,127.39,0,0,0-7.807,40.993,119.841,119.841,0,0,1-14.914,4.772l-.086-.712c-1.214-10.046,1.991-25.362,7.421-40.866l-7.991-8.344a168.909,168.909,0,0,1,41.958-10.77q4.035-.487,8.1-.738a25.125,25.125,0,0,1,.843,4.313,48.861,48.861,0,0,1-.1,12.452,204.624,204.624,0,0,1-16.209,14.64c7.33,8.183,18.949,18.657,30.618,24.229Z" fill="none" stroke="#000" stroke-linecap="round" stroke-linejoin="round" stroke-width="8.437"/>
              <path id="パス_744" data-name="パス 744" d="M290.994,218.1a88.9,88.9,0,0,1-4.987-18.017c-13.425,3.147-20.184,10.305-22.8,21.214l-13.11-6.2a133.762,133.762,0,0,1,8.452-15.067l-1.995-2.568c6.322-11.439,15.911-21.747,24.642-29.865l-.723-4.648,14.975-2.934c3.227,13.415,4.432,42.644,9.991,48.795ZM283.95,185.72c-.306-2.532-.612-5.063-.819-7.445a103.963,103.963,0,0,0-12.229,17.69c3.68-.766,10.109-2.024,14.055-2.582C284.571,190.861,284.256,188.251,283.95,185.72Z" fill="none" stroke="#000" stroke-linecap="round" stroke-linejoin="round" stroke-width="8.437"/>
              <path id="パス_745" data-name="パス 745" d="M390.969,130.123c-5.4,16.772-8.517,40.385-8.041,56.447L363.68,197.06c-.225-17.452,2.768-36.864,6.768-53.99-7.186,8.091-15.559,19.36-20.4,28.634l2.128,2.883a220.562,220.562,0,0,0-11.851,20.587,229.776,229.776,0,0,1-16.783-40.991c-3.415,12.449-5.587,29.982-7.114,44.193l-18.887,7.412c1.863-17.5,3.791-35.314,7.839-51.189l3.817-.462,5.1-20.189c5.231-2.621,14.6-5.638,21.09-7.364,1.2,9.9,4.807,22.447,8.033,30.953a329.524,329.524,0,0,1,29.423-37.155Z" fill="none" stroke="#000" stroke-linecap="round" stroke-linejoin="round" stroke-width="8.437"/>
              <path id="パス_746" data-name="パス 746" d="M450.424,131.776a125.7,125.7,0,0,0-5.308,37.26l-12.7,6.924c-.148-11.52,1.827-24.333,4.467-35.638a105.221,105.221,0,0,0-13.468,18.9l1.4,1.9a145.7,145.7,0,0,0-7.823,13.589,151.636,151.636,0,0,1-11.078-27.057c-2.254,8.217-3.688,19.79-4.7,29.171l-12.467,4.892c1.229-11.549,2.5-23.31,5.174-33.789l2.52-.3,3.364-13.328a87.259,87.259,0,0,1,13.921-4.86,97.534,97.534,0,0,0,5.3,20.432,217.53,217.53,0,0,1,19.422-24.526Z" fill="none" stroke="#000" stroke-linecap="round" stroke-linejoin="round" stroke-width="8.437"/>
              <path id="パス_747" data-name="パス 747" d="M468.709,177.549l-14.989,3.327c2.638-18.422,5.962-39.079,9.188-54.621a107.041,107.041,0,0,1,17.026-4.29C475.66,139.387,471.056,160.677,468.709,177.549Z" fill="none" stroke="#000" stroke-linecap="round" stroke-linejoin="round" stroke-width="8.437"/>
              <path id="パス_748" data-name="パス 748" d="M537.928,104.939c-5.233,14.109-9.866,33.171-11.212,47.768l-13.347,5.042a109.831,109.831,0,0,1-16.1-31.627,187.422,187.422,0,0,0-4.7,32.387l-13.808,5.178A251.713,251.713,0,0,1,484,123.9l3.144-.38,3.815-13.3a67.9,67.9,0,0,1,13.575-5.787c2.045,11.634,6.561,23.928,12.583,32.85,1.131-9.786,3.381-24.812,6.324-36.093Z" fill="none" stroke="#000" stroke-linecap="round" stroke-linejoin="round" stroke-width="8.437"/>
              <path id="パス_749" data-name="パス 749" d="M585.95,177.138,570.773,172.4a45.483,45.483,0,0,1-18.927,7.4c-11.72,1.417-20.728-4.066-22.182-16.1a37.3,37.3,0,0,1,.652-11.867l-4.485-2.587c4.653-19.339,24.994-40.052,45.878-45.915l14.9,11.968c-16.171,6.023-41.236,19.588-38.688,40.665.67,5.552,4.391,6.98,9.633,6.346,3.6-.434,7.8-1.881,12.4-3.584.741-5.1,1.6-10.1,2.473-14.069l-8.775-6.137a68.257,68.257,0,0,1,28.072-10.278c.823-.1,1.657-.1,2.479-.2A360.937,360.937,0,0,0,585.95,177.138Z" fill="none" stroke="#000" stroke-linecap="round" stroke-linejoin="round" stroke-width="8.437"/>
              <path id="パス_750" data-name="パス 750" d="M70.572,195.132c-4.73,7.027-12.448,15.831-20.771,21.564L38.849,212.03c5.612-4.753,13.056-11.937,16.244-16.874l-1.5-6.623a122.2,122.2,0,0,0-13.906,5.349c-3.462,16.268-5.26,38.666-2.583,55.743a192.16,192.16,0,0,1-17.929,7.818c-1.563-17.421,1.289-40.423,4.331-57.331L13.6,192c15.069-7.9,29.459-13.545,44.536-16.961,3.051-.691,6.14-1.208,9.23-1.724a29.582,29.582,0,0,1,1.474,4.889,75.328,75.328,0,0,1,1.727,16.926"/>
              <path id="パス_751" data-name="パス 751" d="M103.389,263c-12.306-6.86-23.719-19.606-30.821-32.552l16.8-16.4-.4-3.322a128.248,128.248,0,0,0-13.376,3.543,127.417,127.417,0,0,0-7.807,40.993,119.773,119.773,0,0,1-14.913,4.772l-.086-.712c-1.214-10.046,1.991-25.362,7.42-40.866l-7.99-8.344a168.909,168.909,0,0,1,41.958-10.77q4.034-.487,8.1-.738a25.129,25.129,0,0,1,.842,4.313,48.816,48.816,0,0,1-.1,12.452A204.789,204.789,0,0,1,86.8,230.01c7.329,8.183,18.948,18.657,30.617,24.229Z"/>
              <path id="パス_752" data-name="パス 752" d="M149.69,202.416l2.676,2.641c-4.2,14.341-13.253,24.937-27.113,26.613-12.736,1.539-20.76-6.993-22.046-17.631-2.047-16.932,9.657-33.929,27.038-36.03,11.687-1.412,19.479,4.563,20.62,14a24.4,24.4,0,0,1-1.175,10.4M133.916,190.3c-8.391,1.014-12.929,7.492-15.209,18.181l2.655.591a14.026,14.026,0,0,0-.176,4.2c.408,3.371,2.382,5.869,6.8,5.335,9.515-1.15,14.558-12.249,13.508-20.94-.516-4.271-2.785-7.949-7.58-7.369"/>
              <path id="パス_753" data-name="パス 753" d="M194.194,222.849,182.517,219.2a34.977,34.977,0,0,1-14.561,5.692c-9.018,1.09-15.949-3.128-17.067-12.383a28.638,28.638,0,0,1,.5-9.13l-3.451-1.991c3.579-14.879,19.23-30.816,35.3-35.327l11.466,9.209c-12.442,4.634-31.727,15.071-29.767,31.287.516,4.271,3.378,5.37,7.412,4.883a45.262,45.262,0,0,0,9.539-2.758c.569-3.922,1.228-7.773,1.9-10.824l-6.75-4.722a52.516,52.516,0,0,1,21.6-7.908c.633-.076,1.276-.074,1.909-.15a277.543,277.543,0,0,0-6.351,37.767"/>
              <path id="パス_754" data-name="パス 754" d="M254.2,212.386c-12.307-6.859-23.719-19.606-30.822-32.552l16.8-16.4-.4-3.322a128.18,128.18,0,0,0-13.376,3.543,127.39,127.39,0,0,0-7.807,40.993,119.841,119.841,0,0,1-14.914,4.772l-.086-.712c-1.214-10.046,1.991-25.362,7.421-40.866l-7.991-8.344a168.909,168.909,0,0,1,41.958-10.77q4.035-.487,8.1-.738a25.125,25.125,0,0,1,.843,4.313,48.861,48.861,0,0,1-.1,12.452,204.624,204.624,0,0,1-16.209,14.64c7.33,8.183,18.949,18.657,30.618,24.229Z"/>
              <path id="パス_755" data-name="パス 755" d="M290.994,218.1a88.9,88.9,0,0,1-4.987-18.017c-13.425,3.147-20.184,10.305-22.8,21.214l-13.11-6.2a133.762,133.762,0,0,1,8.452-15.067l-1.995-2.568c6.322-11.439,15.911-21.747,24.642-29.865l-.723-4.648,14.975-2.934c3.227,13.415,4.432,42.644,9.991,48.795ZM283.95,185.72c-.306-2.532-.612-5.063-.819-7.445a103.963,103.963,0,0,0-12.229,17.69c3.68-.766,10.109-2.024,14.055-2.582-.386-2.522-.7-5.132-1.007-7.663"/>
              <path id="パス_756" data-name="パス 756" d="M390.969,130.123c-5.4,16.772-8.517,40.385-8.041,56.447L363.68,197.06c-.225-17.452,2.768-36.864,6.768-53.99-7.186,8.091-15.559,19.36-20.4,28.634l2.128,2.883a220.562,220.562,0,0,0-11.851,20.587,229.776,229.776,0,0,1-16.783-40.991c-3.415,12.449-5.587,29.982-7.114,44.193l-18.887,7.412c1.863-17.5,3.791-35.314,7.839-51.189l3.817-.462,5.1-20.189c5.231-2.621,14.6-5.638,21.09-7.364,1.2,9.9,4.807,22.447,8.033,30.953a329.524,329.524,0,0,1,29.423-37.155Z"/>
              <path id="パス_757" data-name="パス 757" d="M450.424,131.776a125.7,125.7,0,0,0-5.308,37.26l-12.7,6.924c-.148-11.52,1.827-24.333,4.467-35.638a105.221,105.221,0,0,0-13.468,18.9l1.4,1.9a145.7,145.7,0,0,0-7.823,13.589,151.636,151.636,0,0,1-11.078-27.057c-2.254,8.217-3.688,19.79-4.7,29.171l-12.467,4.892c1.229-11.549,2.5-23.31,5.174-33.789l2.52-.3,3.364-13.328a87.259,87.259,0,0,1,13.921-4.86,97.534,97.534,0,0,0,5.3,20.432,217.53,217.53,0,0,1,19.422-24.526Z"/>
              <path id="パス_758" data-name="パス 758" d="M468.709,177.549l-14.989,3.327c2.638-18.422,5.962-39.079,9.188-54.621a107.041,107.041,0,0,1,17.026-4.29c-4.274,17.422-8.878,38.712-11.225,55.584"/>
              <path id="パス_759" data-name="パス 759" d="M537.928,104.939c-5.233,14.109-9.866,33.171-11.212,47.768l-13.347,5.042a109.831,109.831,0,0,1-16.1-31.627,187.422,187.422,0,0,0-4.7,32.387l-13.808,5.178A251.713,251.713,0,0,1,484,123.9l3.144-.38,3.815-13.3a67.9,67.9,0,0,1,13.575-5.787c2.045,11.634,6.561,23.928,12.583,32.85,1.131-9.786,3.381-24.812,6.324-36.093Z"/>
              <path id="パス_760" data-name="パス 760" d="M585.95,177.138,570.773,172.4a45.483,45.483,0,0,1-18.927,7.4c-11.72,1.417-20.728-4.066-22.182-16.1a37.3,37.3,0,0,1,.652-11.867l-4.485-2.587c4.653-19.339,24.994-40.052,45.878-45.915l14.9,11.968c-16.171,6.023-41.236,19.588-38.688,40.665.67,5.552,4.391,6.98,9.633,6.346,3.6-.434,7.8-1.881,12.4-3.584.741-5.1,1.6-10.1,2.473-14.069l-8.775-6.137a68.257,68.257,0,0,1,28.072-10.278c.823-.1,1.657-.1,2.479-.2a360.937,360.937,0,0,0-8.253,49.087"/>
            </g>
          </g>
        </g>
        <path id="パス_761" data-name="パス 761" d="M64.666,189.225c-4.73,7.027-12.448,15.831-20.771,21.564l-10.952-4.666C38.555,201.37,46,194.186,49.187,189.249l-1.5-6.623a122.2,122.2,0,0,0-13.906,5.349c-3.462,16.268-5.26,38.666-2.583,55.743a192.16,192.16,0,0,1-17.929,7.818c-1.563-17.421,1.289-40.423,4.331-57.331L7.7,186.1c15.069-7.9,29.459-13.545,44.536-16.961,3.051-.691,6.14-1.208,9.23-1.724a29.581,29.581,0,0,1,1.474,4.889A75.328,75.328,0,0,1,64.666,189.225Z" fill="none" stroke="#000" stroke-linecap="round" stroke-linejoin="round" stroke-width="8.437"/>
        <path id="パス_762" data-name="パス 762" d="M97.483,257.091c-12.306-6.859-23.719-19.605-30.821-32.551l16.8-16.4-.4-3.322a128.247,128.247,0,0,0-13.376,3.543,127.417,127.417,0,0,0-7.807,40.993,119.771,119.771,0,0,1-14.913,4.772l-.086-.712c-1.214-10.046,1.991-25.362,7.42-40.867l-7.99-8.343a168.866,168.866,0,0,1,41.958-10.77q4.034-.487,8.1-.738a25.135,25.135,0,0,1,.842,4.312,48.824,48.824,0,0,1-.1,12.453A204.988,204.988,0,0,1,80.9,224.1c7.329,8.182,18.948,18.657,30.617,24.229Z" fill="none" stroke="#000" stroke-linecap="round" stroke-linejoin="round" stroke-width="8.437"/>
        <path id="パス_763" data-name="パス 763" d="M143.783,196.51l2.676,2.641c-4.2,14.341-13.253,24.937-27.113,26.613-12.736,1.539-20.76-6.993-22.046-17.631-2.047-16.932,9.657-33.929,27.038-36.03,11.687-1.412,19.479,4.563,20.62,14A24.4,24.4,0,0,1,143.783,196.51Zm-15.774-12.118c-8.391,1.014-12.929,7.492-15.209,18.181l2.655.591a14.026,14.026,0,0,0-.176,4.2c.408,3.371,2.382,5.869,6.8,5.335,9.515-1.15,14.558-12.249,13.508-20.94C135.073,187.49,132.8,183.813,128.009,184.392Z" fill="none" stroke="#000" stroke-linecap="round" stroke-linejoin="round" stroke-width="8.437"/>
        <path id="パス_764" data-name="パス 764" d="M188.288,216.943,176.611,213.3a34.977,34.977,0,0,1-14.561,5.692c-9.018,1.09-15.949-3.128-17.067-12.383a28.639,28.639,0,0,1,.5-9.13l-3.451-1.991c3.579-14.879,19.23-30.816,35.3-35.327l11.466,9.209c-12.442,4.633-31.727,15.071-29.767,31.287.516,4.271,3.378,5.37,7.412,4.883a45.261,45.261,0,0,0,9.539-2.758c.569-3.922,1.228-7.773,1.9-10.824l-6.75-4.722a52.515,52.515,0,0,1,21.6-7.908c.633-.076,1.276-.074,1.909-.15A277.544,277.544,0,0,0,188.288,216.943Z" fill="none" stroke="#000" stroke-linecap="round" stroke-linejoin="round" stroke-width="8.437"/>
        <path id="パス_765" data-name="パス 765" d="M248.289,206.48c-12.307-6.859-23.719-19.606-30.822-32.552l16.8-16.4-.4-3.322a128.182,128.182,0,0,0-13.376,3.543,127.39,127.39,0,0,0-7.807,40.993,119.842,119.842,0,0,1-14.914,4.772l-.086-.712c-1.214-10.046,1.991-25.362,7.421-40.866l-7.991-8.344a168.91,168.91,0,0,1,41.958-10.77q4.035-.487,8.1-.738a25.126,25.126,0,0,1,.843,4.313,48.861,48.861,0,0,1-.1,12.452,204.635,204.635,0,0,1-16.209,14.64c7.33,8.183,18.949,18.657,30.618,24.229Z" fill="none" stroke="#000" stroke-linecap="round" stroke-linejoin="round" stroke-width="8.437"/>
        <path id="パス_766" data-name="パス 766" d="M285.088,212.19a88.9,88.9,0,0,1-4.987-18.017c-13.425,3.147-20.184,10.3-22.8,21.214l-13.11-6.2a133.761,133.761,0,0,1,8.452-15.067l-2-2.568c6.322-11.439,15.911-21.747,24.642-29.865l-.723-4.648,14.975-2.934c3.227,13.415,4.432,42.644,9.991,48.795Zm-7.044-32.376c-.306-2.532-.612-5.063-.819-7.445A103.964,103.964,0,0,0,265,190.059c3.68-.766,10.109-2.024,14.055-2.582C278.665,184.955,278.35,182.345,278.044,179.814Z" fill="none" stroke="#000" stroke-linecap="round" stroke-linejoin="round" stroke-width="8.437"/>
        <path id="パス_767" data-name="パス 767" d="M385.063,124.217c-5.4,16.772-8.517,40.385-8.041,56.447l-19.248,10.49c-.225-17.452,2.768-36.864,6.768-53.99-7.186,8.091-15.559,19.36-20.4,28.634l2.128,2.883a220.562,220.562,0,0,0-11.851,20.587,229.776,229.776,0,0,1-16.783-40.991c-3.415,12.449-5.587,29.982-7.114,44.193l-18.887,7.412c1.863-17.5,3.791-35.314,7.839-51.189l3.817-.462,5.1-20.189c5.231-2.621,14.6-5.638,21.09-7.364,1.2,9.9,4.807,22.447,8.033,30.953a329.526,329.526,0,0,1,29.423-37.155Z" fill="none" stroke="#000" stroke-linecap="round" stroke-linejoin="round" stroke-width="8.437"/>
        <path id="パス_768" data-name="パス 768" d="M444.518,125.87a125.7,125.7,0,0,0-5.308,37.26l-12.7,6.924c-.148-11.52,1.827-24.333,4.467-35.638a105.222,105.222,0,0,0-13.468,18.9l1.4,1.9a145.7,145.7,0,0,0-7.823,13.589,151.636,151.636,0,0,1-11.078-27.057c-2.254,8.217-3.688,19.79-4.7,29.171l-12.467,4.892c1.229-11.549,2.5-23.31,5.174-33.789l2.52-.3,3.364-13.328a87.26,87.26,0,0,1,13.921-4.86,97.534,97.534,0,0,0,5.3,20.432,217.528,217.528,0,0,1,19.422-24.526Z" fill="none" stroke="#000" stroke-linecap="round" stroke-linejoin="round" stroke-width="8.437"/>
        <path id="パス_769" data-name="パス 769" d="M462.8,171.643l-14.989,3.327c2.638-18.422,5.962-39.079,9.188-54.621a107.04,107.04,0,0,1,17.026-4.29C469.754,133.481,465.15,154.771,462.8,171.643Z" fill="none" stroke="#000" stroke-linecap="round" stroke-linejoin="round" stroke-width="8.437"/>
        <path id="パス_770" data-name="パス 770" d="M532.022,99.033c-5.233,14.109-9.867,33.171-11.212,47.768l-13.347,5.042a109.831,109.831,0,0,1-16.1-31.627,187.327,187.327,0,0,0-4.7,32.387l-13.808,5.178a251.709,251.709,0,0,1,5.239-39.79l3.144-.38,3.815-13.3a67.9,67.9,0,0,1,13.575-5.787c2.045,11.634,6.561,23.928,12.583,32.85,1.131-9.786,3.381-24.812,6.324-36.093Z" fill="none" stroke="#000" stroke-linecap="round" stroke-linejoin="round" stroke-width="8.437"/>
        <path id="パス_771" data-name="パス 771" d="M580.043,171.232l-15.177-4.737a45.481,45.481,0,0,1-18.925,7.4c-11.721,1.417-20.729-4.066-22.183-16.1a37.268,37.268,0,0,1,.652-11.867l-4.485-2.587C524.577,124,544.918,103.292,565.8,97.429l14.9,11.968c-16.171,6.023-41.236,19.588-38.689,40.665.671,5.552,4.391,6.98,9.634,6.346,3.6-.434,7.8-1.881,12.4-3.584.74-5.1,1.6-10.1,2.472-14.069l-8.774-6.137a68.258,68.258,0,0,1,28.071-10.278c.823-.1,1.658-.1,2.481-.195A360.79,360.79,0,0,0,580.043,171.232Z" fill="none" stroke="#000" stroke-linecap="round" stroke-linejoin="round" stroke-width="8.437"/>
        <path id="パス_772" data-name="パス 772" d="M64.666,189.225c-4.73,7.027-12.448,15.831-20.771,21.564l-10.952-4.666C38.555,201.37,46,194.186,49.187,189.249l-1.5-6.623a122.2,122.2,0,0,0-13.906,5.349c-3.462,16.268-5.26,38.666-2.583,55.743a192.16,192.16,0,0,1-17.929,7.818c-1.563-17.421,1.289-40.423,4.331-57.331L7.7,186.1c15.069-7.9,29.459-13.545,44.536-16.961,3.051-.691,6.14-1.208,9.23-1.724a29.581,29.581,0,0,1,1.474,4.889,75.328,75.328,0,0,1,1.727,16.926" fill="#ffff0b"/>
        <path id="パス_773" data-name="パス 773" d="M97.483,257.091c-12.306-6.859-23.719-19.605-30.821-32.551l16.8-16.4-.4-3.322a128.247,128.247,0,0,0-13.376,3.543,127.417,127.417,0,0,0-7.807,40.993,119.771,119.771,0,0,1-14.913,4.772l-.086-.712c-1.214-10.046,1.991-25.362,7.42-40.867l-7.99-8.343a168.866,168.866,0,0,1,41.958-10.77q4.034-.487,8.1-.738a25.135,25.135,0,0,1,.842,4.312,48.824,48.824,0,0,1-.1,12.453A204.988,204.988,0,0,1,80.9,224.1c7.329,8.182,18.948,18.657,30.617,24.229Z" fill="#ffff0b"/>
        <path id="パス_774" data-name="パス 774" d="M143.783,196.51l2.676,2.641c-4.2,14.341-13.253,24.937-27.113,26.613-12.736,1.539-20.76-6.993-22.046-17.631-2.047-16.932,9.657-33.929,27.038-36.03,11.687-1.412,19.479,4.563,20.62,14a24.4,24.4,0,0,1-1.175,10.4m-15.774-12.118c-8.391,1.014-12.929,7.492-15.209,18.181l2.655.591a14.026,14.026,0,0,0-.176,4.2c.408,3.371,2.382,5.869,6.8,5.335,9.515-1.15,14.558-12.249,13.508-20.94-.516-4.271-2.785-7.948-7.58-7.369" fill="#ffff0b"/>
        <path id="パス_775" data-name="パス 775" d="M188.288,216.943,176.611,213.3a34.977,34.977,0,0,1-14.561,5.692c-9.018,1.09-15.949-3.128-17.067-12.383a28.639,28.639,0,0,1,.5-9.13l-3.451-1.991c3.579-14.879,19.23-30.816,35.3-35.327l11.466,9.209c-12.442,4.633-31.727,15.071-29.767,31.287.516,4.271,3.378,5.37,7.412,4.883a45.261,45.261,0,0,0,9.539-2.758c.569-3.922,1.228-7.773,1.9-10.824l-6.75-4.722a52.515,52.515,0,0,1,21.6-7.908c.633-.076,1.276-.074,1.909-.15a277.544,277.544,0,0,0-6.351,37.767" fill="#ffff0b"/>
        <path id="パス_776" data-name="パス 776" d="M248.289,206.48c-12.307-6.859-23.719-19.606-30.822-32.552l16.8-16.4-.4-3.322a128.182,128.182,0,0,0-13.376,3.543,127.39,127.39,0,0,0-7.807,40.993,119.842,119.842,0,0,1-14.914,4.772l-.086-.712c-1.214-10.046,1.991-25.362,7.421-40.866l-7.991-8.344a168.91,168.91,0,0,1,41.958-10.77q4.035-.487,8.1-.738a25.126,25.126,0,0,1,.843,4.313,48.861,48.861,0,0,1-.1,12.452,204.635,204.635,0,0,1-16.209,14.64c7.33,8.183,18.949,18.657,30.618,24.229Z" fill="#ffff0b"/>
        <path id="パス_777" data-name="パス 777" d="M285.088,212.19a88.9,88.9,0,0,1-4.987-18.017c-13.425,3.147-20.184,10.3-22.8,21.214l-13.11-6.2a133.761,133.761,0,0,1,8.452-15.067l-2-2.568c6.322-11.439,15.911-21.747,24.642-29.865l-.723-4.648,14.975-2.934c3.227,13.415,4.432,42.644,9.991,48.795Zm-7.044-32.376c-.306-2.532-.612-5.063-.819-7.445A103.964,103.964,0,0,0,265,190.059c3.68-.766,10.109-2.024,14.055-2.582-.386-2.522-.7-5.132-1.007-7.663" fill="#ffff0b"/>
        <path id="パス_778" data-name="パス 778" d="M385.063,124.217c-5.4,16.772-8.517,40.385-8.041,56.447l-19.248,10.49c-.225-17.452,2.768-36.864,6.768-53.99-7.186,8.091-15.559,19.36-20.4,28.634l2.128,2.883a220.562,220.562,0,0,0-11.851,20.587,229.776,229.776,0,0,1-16.783-40.991c-3.415,12.449-5.587,29.982-7.114,44.193l-18.887,7.412c1.863-17.5,3.791-35.314,7.839-51.189l3.817-.462,5.1-20.189c5.231-2.621,14.6-5.638,21.09-7.364,1.2,9.9,4.807,22.447,8.033,30.953a329.526,329.526,0,0,1,29.423-37.155Z" fill="#ffff0b"/>
        <path id="パス_779" data-name="パス 779" d="M444.518,125.87a125.7,125.7,0,0,0-5.308,37.26l-12.7,6.924c-.148-11.52,1.827-24.333,4.467-35.638a105.222,105.222,0,0,0-13.468,18.9l1.4,1.9a145.7,145.7,0,0,0-7.823,13.589,151.636,151.636,0,0,1-11.078-27.057c-2.254,8.217-3.688,19.79-4.7,29.171l-12.467,4.892c1.229-11.549,2.5-23.31,5.174-33.789l2.52-.3,3.364-13.328a87.26,87.26,0,0,1,13.921-4.86,97.534,97.534,0,0,0,5.3,20.432,217.528,217.528,0,0,1,19.422-24.526Z" fill="#ffff0b"/>
        <path id="パス_780" data-name="パス 780" d="M462.8,171.643l-14.989,3.327c2.638-18.422,5.962-39.079,9.188-54.621a107.04,107.04,0,0,1,17.026-4.29c-4.274,17.422-8.878,38.712-11.225,55.584" fill="#ffff0b"/>
        <path id="パス_781" data-name="パス 781" d="M532.022,99.033c-5.233,14.109-9.867,33.171-11.212,47.768l-13.347,5.042a109.831,109.831,0,0,1-16.1-31.627,187.327,187.327,0,0,0-4.7,32.387l-13.808,5.178a251.709,251.709,0,0,1,5.239-39.79l3.144-.38,3.815-13.3a67.9,67.9,0,0,1,13.575-5.787c2.045,11.634,6.561,23.928,12.583,32.85,1.131-9.786,3.381-24.812,6.324-36.093Z" fill="#ffff0b"/>
        <path id="パス_782" data-name="パス 782" d="M580.043,171.232l-15.177-4.737a45.481,45.481,0,0,1-18.925,7.4c-11.721,1.417-20.729-4.066-22.183-16.1a37.268,37.268,0,0,1,.652-11.867l-4.485-2.587C524.577,124,544.918,103.292,565.8,97.429l14.9,11.968c-16.171,6.023-41.236,19.588-38.689,40.665.671,5.552,4.391,6.98,9.634,6.346,3.6-.434,7.8-1.881,12.4-3.584.74-5.1,1.6-10.1,2.472-14.069l-8.774-6.137a68.258,68.258,0,0,1,28.071-10.278c.823-.1,1.658-.1,2.481-.195a360.79,360.79,0,0,0-8.255,49.087" fill="#ffff0b"/>
      </g>
    </g>
  </g>
</svg>
